<?xml version="1.0" encoding="UTF-8" standalone="no"?>
<!-- Created with Inkscape (http://www.inkscape.org/) -->

<svg
   xmlns:dc="http://purl.org/dc/elements/1.1/"
   xmlns:cc="http://creativecommons.org/ns#"
   xmlns:rdf="http://www.w3.org/1999/02/22-rdf-syntax-ns#"
   xmlns:svg="http://www.w3.org/2000/svg"
   xmlns="http://www.w3.org/2000/svg"
   xmlns:xlink="http://www.w3.org/1999/xlink"
   xmlns:sodipodi="http://sodipodi.sourceforge.net/DTD/sodipodi-0.dtd"
   xmlns:inkscape="http://www.inkscape.org/namespaces/inkscape"
   version="1.0"
   width="48"
   height="48"
   id="svg11300"
   inkscape:version="0.48.4 r9939"
   sodipodi:docname="gtk-print.svg">
  <sodipodi:namedview
     pagecolor="#ffffff"
     bordercolor="#666666"
     borderopacity="1"
     objecttolerance="10"
     gridtolerance="10"
     guidetolerance="10"
     inkscape:pageopacity="0"
     inkscape:pageshadow="2"
     inkscape:window-width="1054"
     inkscape:window-height="883"
     id="namedview78"
     showgrid="false"
     inkscape:zoom="15.458333"
     inkscape:cx="24"
     inkscape:cy="24"
     inkscape:window-x="440"
     inkscape:window-y="94"
     inkscape:window-maximized="0"
     inkscape:current-layer="svg11300" />
  <metadata
     id="metadata99">
    <rdf:RDF>
      <cc:Work
         rdf:about="">
        <dc:format>image/svg+xml</dc:format>
        <dc:type
           rdf:resource="http://purl.org/dc/dcmitype/StillImage" />
        <dc:title></dc:title>
      </cc:Work>
    </rdf:RDF>
  </metadata>
  <defs
     id="defs3">
    <linearGradient
       id="linearGradient3512">
      <stop
         id="stop3514"
         style="stop-color:#ffffff;stop-opacity:1"
         offset="0" />
      <stop
         id="stop3516"
         style="stop-color:#ffffff;stop-opacity:0.23529412"
         offset="0.03402857" />
      <stop
         id="stop3518"
         style="stop-color:#ffffff;stop-opacity:0.15686275"
         offset="1" />
      <stop
         id="stop3520"
         style="stop-color:#ffffff;stop-opacity:0.39215687"
         offset="1" />
    </linearGradient>
    <linearGradient
       id="linearGradient3688-166-749-6">
      <stop
         id="stop2883-8"
         style="stop-color:#181818;stop-opacity:1"
         offset="0" />
      <stop
         id="stop2885-3"
         style="stop-color:#181818;stop-opacity:0"
         offset="1" />
    </linearGradient>
    <linearGradient
       id="linearGradient3688-464-309-7">
      <stop
         id="stop2889-0"
         style="stop-color:#181818;stop-opacity:1"
         offset="0" />
      <stop
         id="stop2891-66"
         style="stop-color:#181818;stop-opacity:0"
         offset="1" />
    </linearGradient>
    <linearGradient
       id="linearGradient3702-501-757-3">
      <stop
         id="stop2895-3"
         style="stop-color:#181818;stop-opacity:0"
         offset="0" />
      <stop
         id="stop2897-28"
         style="stop-color:#181818;stop-opacity:1"
         offset="0.5" />
      <stop
         id="stop2899-8"
         style="stop-color:#181818;stop-opacity:0"
         offset="1" />
    </linearGradient>
    <linearGradient
       id="linearGradient2867-449-88-871-390-598-476-591-434-148-57-177-8-3-3-6-4-8-8-8-5-9-4-5">
      <stop
         id="stop3750-1-0-7-6-6-1-3-9-3-3-3-6"
         style="stop-color:#505050;stop-opacity:1"
         offset="0" />
      <stop
         id="stop3752-3-7-4-0-32-8-923-0-7-1-1-4"
         style="stop-color:#2b2b2b;stop-opacity:1"
         offset="0.26238" />
      <stop
         id="stop3754-1-8-5-2-7-6-7-1-9-8-6-2"
         style="stop-color:#0a0a0a;stop-opacity:1"
         offset="0.704952" />
      <stop
         id="stop3756-1-6-2-6-6-1-96-6-0-0-6-2"
         style="stop-color:#000000;stop-opacity:1"
         offset="1" />
    </linearGradient>
    <linearGradient
       id="linearGradient3924-0-9-4">
      <stop
         id="stop3926-6-0-8"
         style="stop-color:#ffffff;stop-opacity:1"
         offset="0" />
      <stop
         id="stop3928-3-5-9"
         style="stop-color:#ffffff;stop-opacity:0.23529412"
         offset="0.06316455" />
      <stop
         id="stop3930-2-1-9"
         style="stop-color:#ffffff;stop-opacity:0.15686275"
         offset="0.95056331" />
      <stop
         id="stop3932-62-5-8"
         style="stop-color:#ffffff;stop-opacity:0.39215687"
         offset="1" />
    </linearGradient>
    <linearGradient
       id="linearGradient3600-4-3">
      <stop
         id="stop3602-7-9"
         style="stop-color:#f4f4f4;stop-opacity:1"
         offset="0" />
      <stop
         id="stop3604-6-6"
         style="stop-color:#dbdbdb;stop-opacity:1"
         offset="1" />
    </linearGradient>
    <linearGradient
       id="linearGradient3977-6">
      <stop
         id="stop3979-5"
         style="stop-color:#ffffff;stop-opacity:1"
         offset="0" />
      <stop
         id="stop3981-9"
         style="stop-color:#ffffff;stop-opacity:0.23529412"
         offset="0.03626217" />
      <stop
         id="stop3983-2"
         style="stop-color:#ffffff;stop-opacity:0.15686275"
         offset="0.95056331" />
      <stop
         id="stop3985-4"
         style="stop-color:#ffffff;stop-opacity:0.39215687"
         offset="1" />
    </linearGradient>
    <linearGradient
       id="linearGradient3977">
      <stop
         id="stop3979"
         style="stop-color:#ffffff;stop-opacity:1"
         offset="0" />
      <stop
         id="stop3981"
         style="stop-color:#ffffff;stop-opacity:0.23529412"
         offset="0.03626217" />
      <stop
         id="stop3983"
         style="stop-color:#ffffff;stop-opacity:0.15686275"
         offset="0.95056331" />
      <stop
         id="stop3985"
         style="stop-color:#ffffff;stop-opacity:0.39215687"
         offset="1" />
    </linearGradient>
    <linearGradient
       id="linearGradient3600-4">
      <stop
         id="stop3602-7"
         style="stop-color:#f4f4f4;stop-opacity:1"
         offset="0" />
      <stop
         id="stop3604-6"
         style="stop-color:#dbdbdb;stop-opacity:1"
         offset="1" />
    </linearGradient>
    <linearGradient
       id="linearGradient4251-1">
      <stop
         id="stop4253-8"
         style="stop-color:#000000;stop-opacity:1"
         offset="0" />
      <stop
         id="stop4255-2"
         style="stop-color:#000000;stop-opacity:0"
         offset="1" />
    </linearGradient>
    <linearGradient
       x1="25.058096"
       y1="47.027729"
       x2="25.058096"
       y2="39.999443"
       id="linearGradient3471"
       xlink:href="#linearGradient3702-501-757-3"
       gradientUnits="userSpaceOnUse"
       gradientTransform="matrix(0.84210526,0,0,0.42857134,-1.1257809,20.857146)" />
    <radialGradient
       cx="4.9929786"
       cy="43.5"
       r="2.5"
       fx="4.9929786"
       fy="43.5"
       id="radialGradient3473"
       xlink:href="#linearGradient3688-464-309-7"
       gradientUnits="userSpaceOnUse"
       gradientTransform="matrix(-1.687397,0,0,-0.59999988,15.72632,65.599994)" />
    <radialGradient
       cx="3.0032907"
       cy="43.787853"
       r="2.5"
       fx="3.0032907"
       fy="43.787853"
       id="radialGradient3475"
       xlink:href="#linearGradient3688-166-749-6"
       gradientUnits="userSpaceOnUse"
       gradientTransform="matrix(1.899529,0,0,0.59999988,36.206774,13.329547)" />
    <linearGradient
       x1="17"
       y1="14"
       x2="17"
       y2="10"
       id="linearGradient3739"
       xlink:href="#linearGradient4251-1"
       gradientUnits="userSpaceOnUse"
       gradientTransform="matrix(1.3,0,0,1.6666666,3.199998,-2.6666663)" />
    <linearGradient
       x1="23.99999"
       y1="5.5641499"
       x2="23.99999"
       y2="43"
       id="linearGradient3743"
       xlink:href="#linearGradient3977-6"
       gradientUnits="userSpaceOnUse"
       gradientTransform="matrix(0.62162161,0,0,1.042471,9.081084,1.7664208)" />
    <linearGradient
       x1="25.132275"
       y1="0.98520643"
       x2="25.132275"
       y2="62.706093"
       id="linearGradient3746"
       xlink:href="#linearGradient3600-4-3"
       gradientUnits="userSpaceOnUse"
       gradientTransform="matrix(0.68571268,0,0,0.19108172,7.542894,6.5179604)" />
    <linearGradient
       x1="23.99999"
       y1="10.124985"
       x2="23.99999"
       y2="37.874985"
       id="linearGradient3749"
       xlink:href="#linearGradient3924-0-9-4"
       gradientUnits="userSpaceOnUse"
       gradientTransform="matrix(0.99277432,0,0,0.10810811,0.173416,15.905407)" />
    <linearGradient
       x1="23.99999"
       y1="5.5641499"
       x2="23.99999"
       y2="43"
       id="linearGradient3755"
       xlink:href="#linearGradient3977"
       gradientUnits="userSpaceOnUse"
       gradientTransform="matrix(0.62162161,0,0,1.042471,9.081085,-0.80500837)" />
    <linearGradient
       x1="33.210621"
       y1="46.353771"
       x2="33.210621"
       y2="11.28877"
       id="linearGradient3758"
       xlink:href="#linearGradient3600-4"
       gradientUnits="userSpaceOnUse"
       gradientTransform="matrix(0.68571268,0,0,0.30867042,7.542894,29.015438)" />
    <linearGradient
       x1="23.99999"
       y1="6.6562309"
       x2="23.99999"
       y2="41.343731"
       id="linearGradient3764"
       xlink:href="#linearGradient3512"
       gradientUnits="userSpaceOnUse"
       gradientTransform="matrix(0.99999999,0,0,0.43243241,0,20.12163)" />
    <radialGradient
       cx="7.1183534"
       cy="9.9571075"
       r="12.671875"
       fx="7.1183534"
       fy="9.9571075"
       id="radialGradient3767"
       xlink:href="#linearGradient2867-449-88-871-390-598-476-591-434-148-57-177-8-3-3-6-4-8-8-8-5-9-4-5"
       gradientUnits="userSpaceOnUse"
       gradientTransform="matrix(0,7.8046631,-11.214713,0,136.04426,-56.530174)" />
    <linearGradient
       x1="24"
       y1="21"
       x2="24"
       y2="6"
       id="linearGradient6317"
       xlink:href="#linearGradient6311"
       gradientUnits="userSpaceOnUse" />
    <linearGradient
       id="linearGradient6311">
      <stop
         id="stop6313"
         style="stop-color:#9b9b9b;stop-opacity:1"
         offset="0" />
      <stop
         id="stop6315"
         style="stop-color:#9b9b9b;stop-opacity:0"
         offset="1" />
    </linearGradient>
    <linearGradient
       gradientTransform="matrix(1,0,0,0.74237289,-0.13869977,1.552821)"
       y2="6"
       x2="24"
       y1="21"
       x1="24"
       gradientUnits="userSpaceOnUse"
       id="linearGradient3062"
       xlink:href="#linearGradient6311"
       inkscape:collect="always" />
    <linearGradient
       x1="29.126724"
       y1="19.787613"
       x2="29.291178"
       y2="57.567127"
       id="linearGradient2864"
       xlink:href="#linearGradient11223"
       gradientUnits="userSpaceOnUse"
       gradientTransform="matrix(0.57929573,0,-0.00252165,0.60178637,18.303598,11.31731)" />
    <linearGradient
       x1="4.1914001"
       y1="11.1133"
       x2="47.319698"
       y2="56.052299"
       id="linearGradient11223"
       gradientUnits="userSpaceOnUse">
      <stop
         id="stop11225"
         style="stop-color:white;stop-opacity:1"
         offset="0" />
      <stop
         id="stop11227"
         style="stop-color:white;stop-opacity:0"
         offset="1" />
    </linearGradient>
    <linearGradient
       gradientTransform="matrix(0.54571664,0,0,0.54131421,22.029488,22.142596)"
       x1="24"
       y1="-3"
       x2="24"
       y2="47"
       id="linearGradient4268"
       xlink:href="#linearGradient7012-661-145-733-759-865-745-661-970-94"
       gradientUnits="userSpaceOnUse" />
    <linearGradient
       id="linearGradient7012-661-145-733-759-865-745-661-970-94">
      <stop
         id="stop3618"
         style="stop-color:#edd563;stop-opacity:1"
         offset="0" />
      <stop
         id="stop3620"
         style="stop-color:#e08223;stop-opacity:1"
         offset="1" />
    </linearGradient>
    <linearGradient
       gradientTransform="matrix(0.54571664,0,0,0.54131421,22.029488,22.142596)"
       x1="20"
       y1="47"
       x2="20"
       y2="-3"
       id="linearGradient4276"
       xlink:href="#linearGradient3390-178-986-453"
       gradientUnits="userSpaceOnUse" />
    <linearGradient
       id="linearGradient3390-178-986-453">
      <stop
         id="stop3624"
         style="stop-color:#bb5e12;stop-opacity:1"
         offset="0" />
      <stop
         id="stop3626"
         style="stop-color:#cd8033;stop-opacity:1"
         offset="1" />
    </linearGradient>
    <filter
       x="-0.028342649"
       y="-0.41569221"
       width="1.0566853"
       height="1.8313844"
       color-interpolation-filters="sRGB"
       id="filter11277">
      <feGaussianBlur
         stdDeviation="0.51961525"
         id="feGaussianBlur11279" />
    </filter>
  </defs>
  <path
     d="m 41.874219,38 4.210526,0 0,2.999999 -4.210526,0 z"
     id="rect2801-0"
     style="opacity:0.4;fill:url(#radialGradient3475);fill-opacity:1;stroke:none" />
  <path
     d="m 7.2952717,40.999999 -4.2105263,0 0,-2.999999 4.2105263,0 z"
     id="rect3696-2"
     style="opacity:0.4;fill:url(#radialGradient3473);fill-opacity:1;stroke:none" />
  <path
     d="m 7.2952717,38 34.5721453,0 0,2.999999 -34.5721453,0 z"
     id="rect3700-1"
     style="opacity:0.4;fill:url(#linearGradient3471);fill-opacity:1;stroke:none" />
  <path
     d="m 7.210907,15.5 c 12.096344,0 21.504609,0 33.600952,0 1.743341,0 2.688076,4.428543 2.688076,6.660257 0,5.565649 0,10.419455 0,15.985104 0.01388,1.284323 -1.389269,1.423756 -2.369187,1.332051 -11.754627,0 -23.509253,0 -35.263879,0 -1.295881,0.01376 -1.43657,-1.376878 -1.344038,-2.348055 l 0,-14.9691 c 0,0 0.637953,-6.660257 2.688076,-6.660257 z"
     id="rect5505-21-9"
     style="opacity:0.9;color:#000000;fill:url(#radialGradient3767);fill-opacity:1;fill-rule:nonzero;stroke:none;stroke-width:0.99999994;marker:none;visibility:visible;display:inline;overflow:visible;enable-background:accumulate" />
  <rect
     width="37"
     height="16"
     x="5.4999981"
     y="22.500004"
     id="rect6741-7-4-4"
     style="opacity:0.25;fill:none;stroke:url(#linearGradient3764);stroke-width:1;stroke-linecap:round;stroke-linejoin:round;stroke-miterlimit:4;stroke-opacity:1;stroke-dasharray:none;stroke-dashoffset:0" />
  <path
     d="m 7.210906,15.499999 c 0,0 21.504609,0 33.600952,0 1.947903,0 2.688075,6.660527 2.688075,6.660527 0,0 0,10.259812 0,15.984746 0.01102,1.306008 -1.42111,1.419954 -2.410157,1.332105 -11.74097,0 -23.48194,0 -35.22291,0 -1.317707,0.01092 -1.432675,-1.408495 -1.344038,-2.38876 l 0,-14.928091 c 0,0 0.708193,-6.660527 2.688078,-6.660527 z"
     id="rect5505-6-9"
     style="opacity:0.7;color:#000000;fill:none;stroke:#000000;stroke-width:1;stroke-linecap:round;stroke-linejoin:round;stroke-miterlimit:4;stroke-opacity:1;stroke-dasharray:none;stroke-dashoffset:0;marker:none;visibility:visible;display:inline;overflow:visible;enable-background:accumulate" />
  <rect
     width="38"
     height="1"
     rx="0"
     ry="0"
     x="4.9999981"
     y="-22"
     transform="scale(1,-1)"
     id="rect3957-0"
     style="opacity:0.4;color:#000000;fill:#000000;fill-opacity:1;fill-rule:nonzero;stroke:none;stroke-width:1;marker:none;visibility:visible;display:inline;overflow:visible;enable-background:accumulate" />
  <path
     d="m 12,32.5 c 5.499618,0 23.99997,9.06e-4 23.99997,9.06e-4 L 36,44 c 0,0 -16.000001,0 -24,0 0,-4.735294 0,-6.764705 0,-11.5 z"
     id="path4160-3"
     style="fill:url(#linearGradient3758);fill-opacity:1;stroke:none;display:inline" />
  <path
     d="m 35.5,43.5 -23,0 0,-10 23,0 z"
     id="rect6741-1"
     style="fill:none;stroke:url(#linearGradient3755);stroke-width:0.99999994;stroke-linecap:round;stroke-linejoin:round;stroke-miterlimit:4;stroke-opacity:1;stroke-dasharray:none;stroke-dashoffset:0" />
  <path
     d="m 11.499961,32.499961 c 5.728787,0 25.000048,7.63e-4 25.000048,7.63e-4 l 3e-5,11.999315 c 0,0 -16.666717,0 -25.000078,0 0,-4.000026 0,-8.000052 0,-12.000077 z"
     id="path4160-3-4"
     style="opacity:0.3;fill:none;stroke:#000000;stroke-width:0.99992174;stroke-linecap:butt;stroke-linejoin:round;stroke-miterlimit:4;stroke-opacity:1;stroke-dasharray:none;stroke-dashoffset:0;display:inline" />
  <rect
     width="26"
     height="1"
     x="10.999998"
     y="32"
     id="rect4124-5-6"
     style="opacity:0.15;color:#000000;fill:#000000;fill-opacity:1;fill-rule:nonzero;stroke:none;stroke-width:1;marker:none;visibility:visible;display:inline;overflow:visible;enable-background:accumulate" />
  <path
     d="m 7.674381,16.5 32.651243,0 c 1.137104,0 2.040702,4 2.040702,4 -12.244217,0 -36.73265,0 -36.73265,0 0,0 0.788956,-4 2.040705,-4 z"
     id="rect6741-7-4-2-7"
     style="opacity:0.1;fill:none;stroke:url(#linearGradient3749);stroke-width:1;stroke-linecap:round;stroke-linejoin:round;stroke-miterlimit:4;stroke-opacity:1;stroke-dasharray:none;stroke-dashoffset:0" />
  <path
     d="m 12,7.0000001 c 5.499618,0 23.99997,5.61e-4 23.99997,5.61e-4 L 36,18.5 c 0,0 -16.000001,0 -24,0 0,-2.931373 0,-8.5686269 0,-11.4999999 z"
     id="path4160-3-8"
     style="fill:url(#linearGradient3746);fill-opacity:1;stroke:none;display:inline" />
  <path
     d="m 11.499961,6.4999402 25.000048,0.0026 3e-5,11.9974988 -25.000078,0 z"
     id="path4160-3-4-7"
     style="opacity:0.3;fill:none;stroke:#000000;stroke-width:0.99992174;stroke-linecap:butt;stroke-linejoin:round;stroke-miterlimit:4;stroke-opacity:1;stroke-dasharray:none;stroke-dashoffset:0;display:inline" />
  <rect
     width="26"
     height="5"
     x="10.999998"
     y="14"
     id="rect4249-5"
     style="opacity:0.3;color:#000000;fill:url(#linearGradient3739);fill-opacity:1;fill-rule:nonzero;stroke:none;stroke-width:1;marker:none;visibility:visible;display:inline;overflow:visible;enable-background:accumulate" />
  <path
     d="m 16,36 0,1 16,0 0,-1 -16,0 z m 0,2 0,1 9,0 0,-1 -9,0 z m 11,0 0,1 3,0 0,-1 -3,0 z m -11,2 0,1 4,0 0,-1 -4,0 z m 5,0 0,1 10,0 0,-1 -10,0 z"
     id="rect4731"
     style="opacity:0.1;fill:#000000;fill-opacity:1;stroke:none" />
  <path
     d="m 39,25 2,0 0,2 -2,0 z"
     id="rect3991"
     style="color:#000000;fill:#0cceff;fill-opacity:1;fill-rule:nonzero;stroke:none;stroke-width:1;marker:none;visibility:visible;display:inline;overflow:visible;enable-background:accumulate" />
  <path
     inkscape:connector-curvature="0"
     d="m 30.8613,11.203669 -7,5.938983 -7,-5.938983 3,0 0,-5.1966107 8,0 0,5.1966107 3,0 z"
     id="path3288"
     style="fill:url(#linearGradient3062);fill-opacity:1;fill-rule:nonzero;stroke:none;stroke-width:0.98542732;marker:none;visibility:visible;display:inline;overflow:visible" />
  <path
     d="m 35.499999,17.5 -23,0 0,-9.9999999 23,0 z"
     id="rect6741-1-8"
     style="fill:none;stroke:url(#linearGradient3743);stroke-width:0.99999994;stroke-linecap:round;stroke-linejoin:round;stroke-miterlimit:4;stroke-opacity:1;stroke-dasharray:none;stroke-dashoffset:0" />
  <rect
     width="44"
     height="3"
     rx="3.25"
     ry="1.5"
     x="298"
     y="91"
     transform="matrix(0.54571664,0,0,0.72175227,-139.50264,-21.07255)"
     id="rect11271"
     style="opacity:0.3;fill:#000000;fill-opacity:1;stroke:none;display:inline;filter:url(#filter11277);enable-background:new" />
  <path
     inkscape:connector-curvature="0"
     d="M 47.230046,43.794633 36.572089,23.844311 c -0.306342,-0.554176 -0.860658,-0.86205 -1.477998,-0.86205 -0.617342,0 -1.174501,0.369448 -1.485497,0.923625 L 23.030003,43.856208 c -0.249006,0.4926 -0.251851,1.169926 0.05475,1.662527 0.306601,0.4926 0.799441,0.7389 1.416783,0.7389 l 21.236545,0 c 0.61734,0 1.174241,-0.307875 1.423248,-0.800476 0.310739,-0.4926 0.313324,-1.108351 0.06872,-1.662526 z"
     id="path11155"
     style="fill:url(#linearGradient4268);fill-opacity:1;fill-rule:nonzero;stroke:url(#linearGradient4276);stroke-width:0.54351127;stroke-miterlimit:4;stroke-opacity:1;stroke-dasharray:none" />
  <path
     inkscape:connector-curvature="0"
     d="M 46.336858,43.367098 36.310885,24.565688 c -0.426997,-0.809944 -0.580152,-1.069806 -1.229067,-1.069806 -0.558117,0 -0.850141,0.378455 -1.253464,1.142976 l -9.914692,18.78627 c -0.575726,1.054738 -0.63741,1.32967 -0.360295,1.793902 0.277113,0.464233 0.632914,0.438949 1.947563,0.469231 l 19.486731,0 c 1.223914,0.01514 1.499611,-0.07817 1.724802,-0.5424 0.281002,-0.464235 0.161478,-0.832547 -0.375605,-1.778763 z"
     id="path11159"
     style="opacity:0.4;fill:none;stroke:url(#linearGradient2864);stroke-width:0.54351133;stroke-miterlimit:4;stroke-opacity:1;stroke-dasharray:none" />
  <g
     transform="matrix(0.54571664,0,0,0.54131421,49.93642,22.991711)"
     id="g3243">
    <path
       inkscape:connector-curvature="0"
       d="m -29.450843,12.554367 c 0.562985,5.499325 1.207856,10.960802 1.687101,16.481667 0.482028,0 1.047391,0 1.529419,0 0.39752,-5.301782 1.038697,-10.571527 1.501221,-15.866736 0.235772,-1.253831 -0.407984,-2.74252 -1.731999,-3.047145 -1.308328,-0.3825154 -2.770054,0.564714 -2.944023,1.917755 -0.02885,0.169852 -0.04172,0.342238 -0.04172,0.514459 l -1e-6,0 z m -0.166856,22.358706 c -0.05953,1.636939 1.741632,2.920137 3.279478,2.401164 1.489513,-0.380147 2.274063,-2.252289 1.510684,-3.583058 -0.683355,-1.375642 -2.687256,-1.828891 -3.840007,-0.776055 -0.582694,0.478722 -0.968913,1.193389 -0.950154,1.95795 l -1e-6,-1e-6 z"
       id="path3295"
       style="font-size:62.4582634px;font-style:normal;font-variant:normal;font-weight:normal;font-stretch:normal;text-align:start;line-height:125%;writing-mode:lr-tb;text-anchor:start;opacity:0.2;fill:#000000;fill-opacity:1;stroke:none;font-family:Georgia" />
    <path
       inkscape:connector-curvature="0"
       d="m -29.450843,13.554676 c 0.562985,5.499325 1.207856,10.960802 1.687101,16.481667 0.482028,0 1.047391,0 1.529419,0 0.39752,-5.301782 1.038697,-10.571527 1.501221,-15.866736 0.235772,-1.253831 -0.407984,-2.74252 -1.731999,-3.047145 -1.308328,-0.382515 -2.770054,0.564714 -2.944023,1.917755 -0.02885,0.169852 -0.04172,0.342238 -0.04172,0.514459 l -1e-6,0 z m -0.166856,22.358706 c -0.05953,1.636939 1.741632,2.920137 3.279478,2.401164 1.489513,-0.380147 2.274063,-2.252289 1.510684,-3.583058 -0.683355,-1.375642 -2.687256,-1.828891 -3.840007,-0.776055 -0.582694,0.478722 -0.968913,1.193389 -0.950154,1.95795 l -1e-6,-1e-6 z"
       id="text2315"
       style="font-size:62.4582634px;font-style:normal;font-variant:normal;font-weight:normal;font-stretch:normal;text-align:start;line-height:125%;writing-mode:lr-tb;text-anchor:start;fill:#ffffff;fill-opacity:1;stroke:none;font-family:Georgia" />
  </g>
</svg>
