<?xml version="1.0" encoding="UTF-8" standalone="no"?>
<!-- Created with Inkscape (http://www.inkscape.org/) -->

<svg
   xmlns:dc="http://purl.org/dc/elements/1.1/"
   xmlns:cc="http://creativecommons.org/ns#"
   xmlns:rdf="http://www.w3.org/1999/02/22-rdf-syntax-ns#"
   xmlns:svg="http://www.w3.org/2000/svg"
   xmlns="http://www.w3.org/2000/svg"
   xmlns:xlink="http://www.w3.org/1999/xlink"
   xmlns:sodipodi="http://sodipodi.sourceforge.net/DTD/sodipodi-0.dtd"
   xmlns:inkscape="http://www.inkscape.org/namespaces/inkscape"
   width="48"
   height="48"
   id="svg1306"
   sodipodi:version="0.32"
   inkscape:version="0.48.2 r9819"
   sodipodi:docname="Gnome-tools-check-spelling.svg"
   inkscape:export-filename="/home/lapo/Desktop/insert-link-16.png"
   inkscape:export-xdpi="90.000031"
   inkscape:export-ydpi="90.000031"
   version="1.0"
   inkscape:output_extension="org.inkscape.output.svg.inkscape">
  <defs
     id="defs1308">
    <linearGradient
       inkscape:collect="always"
       id="linearGradient6373">
      <stop
         style="stop-color:#ffffff;stop-opacity:1;"
         offset="0"
         id="stop6375" />
      <stop
         style="stop-color:#ffffff;stop-opacity:0;"
         offset="1"
         id="stop6377" />
    </linearGradient>
    <linearGradient
       id="linearGradient5348">
      <stop
         style="stop-color:#555753;stop-opacity:1;"
         offset="0"
         id="stop5350" />
      <stop
         style="stop-color:#888a85;stop-opacity:1"
         offset="1"
         id="stop5352" />
    </linearGradient>
    <linearGradient
       id="linearGradient5048">
      <stop
         id="stop5050"
         offset="0"
         style="stop-color:black;stop-opacity:0;" />
      <stop
         style="stop-color:black;stop-opacity:1;"
         offset="0.5"
         id="stop5056" />
      <stop
         id="stop5052"
         offset="1"
         style="stop-color:black;stop-opacity:0;" />
    </linearGradient>
    <linearGradient
       id="linearGradient5060"
       inkscape:collect="always">
      <stop
         id="stop5062"
         offset="0"
         style="stop-color:black;stop-opacity:1;" />
      <stop
         id="stop5064"
         offset="1"
         style="stop-color:black;stop-opacity:0;" />
    </linearGradient>
    <linearGradient
       inkscape:collect="always"
       xlink:href="#linearGradient5048"
       id="linearGradient6875"
       gradientUnits="userSpaceOnUse"
       gradientTransform="matrix(2.77439,0,0,1.96971,-1892.18,-872.885)"
       x1="302.85715"
       y1="366.64789"
       x2="302.85715"
       y2="609.50507" />
    <radialGradient
       inkscape:collect="always"
       xlink:href="#linearGradient5060"
       id="radialGradient6877"
       gradientUnits="userSpaceOnUse"
       gradientTransform="matrix(2.77439,0,0,1.96971,-1891.63,-872.885)"
       cx="605.71429"
       cy="486.64789"
       fx="605.71429"
       fy="486.64789"
       r="117.14286" />
    <radialGradient
       inkscape:collect="always"
       xlink:href="#linearGradient5060"
       id="radialGradient6879"
       gradientUnits="userSpaceOnUse"
       gradientTransform="matrix(-2.77439,0,0,1.96971,112.762,-872.885)"
       cx="605.71429"
       cy="486.64789"
       fx="605.71429"
       fy="486.64789"
       r="117.14286" />
    <linearGradient
       inkscape:collect="always"
       xlink:href="#linearGradient5048"
       id="linearGradient6889"
       gradientUnits="userSpaceOnUse"
       gradientTransform="matrix(2.77439,0,0,1.96971,-1892.18,-872.885)"
       x1="302.85715"
       y1="366.64789"
       x2="302.85715"
       y2="609.50507" />
    <radialGradient
       inkscape:collect="always"
       xlink:href="#linearGradient5060"
       id="radialGradient6891"
       gradientUnits="userSpaceOnUse"
       gradientTransform="matrix(2.77439,0,0,1.96971,-1891.63,-872.885)"
       cx="605.71429"
       cy="486.64789"
       fx="605.71429"
       fy="486.64789"
       r="117.14286" />
    <radialGradient
       inkscape:collect="always"
       xlink:href="#linearGradient5060"
       id="radialGradient6893"
       gradientUnits="userSpaceOnUse"
       gradientTransform="matrix(-2.77439,0,0,1.96971,112.762,-872.885)"
       cx="605.71429"
       cy="486.64789"
       fx="605.71429"
       fy="486.64789"
       r="117.14286" />
    <linearGradient
       inkscape:collect="always"
       xlink:href="#linearGradient5348"
       id="linearGradient5380"
       gradientUnits="userSpaceOnUse"
       gradientTransform="matrix(0.96979763,0,0,-0.99999858,1.0538703,47.999987)"
       x1="17.856678"
       y1="29.360811"
       x2="17.856678"
       y2="19.586843" />
    <linearGradient
       inkscape:collect="always"
       xlink:href="#linearGradient6373"
       id="linearGradient6379"
       x1="16.882174"
       y1="23.103367"
       x2="16.882174"
       y2="14.433153"
       gradientUnits="userSpaceOnUse"
       gradientTransform="matrix(0.99999858,0,0,0.99999858,-0.20041843,5.5072147e-5)" />
  </defs>
  <sodipodi:namedview
     id="base"
     pagecolor="#ffffff"
     bordercolor="#868686"
     borderopacity="1"
     inkscape:pageopacity="0"
     inkscape:pageshadow="2"
     inkscape:zoom="4.46875"
     inkscape:cx="64"
     inkscape:cy="64"
     inkscape:current-layer="layer1"
     showgrid="false"
     inkscape:grid-bbox="true"
     inkscape:document-units="px"
     fill="#fcaf3e"
     stroke="#555753"
     showguides="true"
     inkscape:guide-bbox="true"
     inkscape:window-width="1085"
     inkscape:window-height="760"
     inkscape:window-x="526"
     inkscape:window-y="89"
     inkscape:showpageshadow="false"
     showborder="true"
     inkscape:grid-points="true"
     width="48px"
     height="48px"
     inkscape:window-maximized="0">
    <inkscape:grid
       id="GridFromPre046Settings"
       type="xygrid"
       originx="0px"
       originy="0px"
       spacingx="0.5px"
       spacingy="0.5px"
       color="#0000ff"
       empcolor="#0000ff"
       opacity="0.2"
       empopacity="0.4"
       empspacing="2"
       visible="true"
       enabled="true"
       snapvisiblegridlinesonly="true" />
  </sodipodi:namedview>
  <metadata
     id="metadata1311">
    <rdf:RDF>
      <cc:Work
         rdf:about="">
        <dc:format>image/svg+xml</dc:format>
        <dc:type
           rdf:resource="http://purl.org/dc/dcmitype/StillImage" />
        <dc:title>Insert Text</dc:title>
        <dc:creator>
          <cc:Agent>
            <dc:title>Lapo Calamandrei</dc:title>
          </cc:Agent>
        </dc:creator>
        <dc:source>http://www.gnome.org</dc:source>
        <dc:contributor>
          <cc:Agent>
            <dc:title />
          </cc:Agent>
        </dc:contributor>
        <cc:license
           rdf:resource="http://creativecommons.org/licenses/GPL/2.0/" />
        <dc:subject>
          <rdf:Bag>
            <rdf:li>insert</rdf:li>
            <rdf:li>text</rdf:li>
            <rdf:li>generic</rdf:li>
          </rdf:Bag>
        </dc:subject>
      </cc:Work>
      <cc:License
         rdf:about="http://creativecommons.org/licenses/GPL/2.0/">
        <cc:permits
           rdf:resource="http://web.resource.org/cc/Reproduction" />
        <cc:permits
           rdf:resource="http://web.resource.org/cc/Distribution" />
        <cc:requires
           rdf:resource="http://web.resource.org/cc/Notice" />
        <cc:permits
           rdf:resource="http://web.resource.org/cc/DerivativeWorks" />
        <cc:requires
           rdf:resource="http://web.resource.org/cc/ShareAlike" />
        <cc:requires
           rdf:resource="http://web.resource.org/cc/SourceCode" />
      </cc:License>
    </rdf:RDF>
  </metadata>
  <g
     id="layer1"
     inkscape:label="Layer 1"
     inkscape:groupmode="layer">
    <g
       style="opacity:0.27155175;display:inline"
       id="g6881"
       transform="matrix(0.02093147,0,0,0.01619928,42.416703,22.980723)">
      <rect
         y="-150.69685"
         x="-1559.2523"
         height="478.35718"
         width="1339.6335"
         id="rect6883"
         style="opacity:0.39195981;color:#000000;fill:url(#linearGradient6889);fill-opacity:1;fill-rule:nonzero;stroke:none;stroke-width:1;marker:none;visibility:visible;display:inline;overflow:visible" />
      <path
         sodipodi:nodetypes="cccc"
         id="path6885"
         d="m -219.61876,-150.68038 c 0,0 0,478.33079 0,478.33079 142.874166,0.90045 345.40022,-107.16966 345.40014,-239.196175 0,-132.026537 -159.436816,-239.134595 -345.40014,-239.134615 z"
         style="opacity:0.40206185;color:#000000;fill:url(#radialGradient6891);fill-opacity:1;fill-rule:nonzero;stroke:none;stroke-width:1;marker:none;visibility:visible;display:inline;overflow:visible"
         inkscape:connector-curvature="0" />
      <path
         style="opacity:0.40206185;color:#000000;fill:url(#radialGradient6893);fill-opacity:1;fill-rule:nonzero;stroke:none;stroke-width:1;marker:none;visibility:visible;display:inline;overflow:visible"
         d="m -1559.2523,-150.68038 c 0,0 0,478.33079 0,478.33079 -142.8742,0.90045 -345.4002,-107.16966 -345.4002,-239.196175 0,-132.026537 159.4368,-239.134595 345.4002,-239.134615 z"
         id="path6887"
         sodipodi:nodetypes="cccc"
         inkscape:connector-curvature="0" />
    </g>
    <path
       style="font-size:17.50059891px;font-style:normal;font-weight:bold;fill:url(#linearGradient5380);fill-opacity:1;stroke:#2e3436;stroke-width:0.99999851px;stroke-linecap:butt;stroke-linejoin:miter;stroke-opacity:1;font-family:Bitstream Vera Sans"
       d="m 10.893311,11.500039 c -0.187177,0.03362 -0.342112,0.164718 -0.406249,0.343749 L 5.8933244,24.81252 c -0.06172,0.163683 -0.037398,0.356395 0.0625,0.499999 0.099898,0.143603 0.2625688,0.219693 0.4374992,0.21875 l 3.218741,0 c 0.2303382,-0.0034 0.4322534,-0.154823 0.4999984,-0.375 l 0.531249,-1.624997 4.562493,0 0.53125,1.624997 c 0.06774,0.220177 0.26966,0.371614 0.499999,0.375 l 3.218745,0 c 0.174931,9.44e-4 0.337602,-0.07515 0.4375,-0.21875 0.0999,-0.143605 0.124219,-0.336316 0.0625,-0.499999 L 15.299555,11.843788 c -0.07841,-0.207843 -0.277859,-0.344961 -0.499999,-0.343749 l -3.812495,0 c -0.03119,-0.0028 -0.06256,-0.0028 -0.09375,0 z m 9.843737,0 c -0.249894,0.04594 -0.410207,0.270881 -0.40625,0.531249 l -0.03125,12.968732 c 2.8e-5,0.293388 0.245209,0.53122 0.531249,0.531249 l 2.937496,0 c 0.28604,-2.9e-5 0.53122,-0.237861 0.53125,-0.531249 l 0,-0.1875 c 0.266858,0.194947 0.459065,0.372016 0.687499,0.499999 0.56632,0.310552 1.228857,0.468751 1.937497,0.46875 1.268474,0 2.354272,-0.595321 3.156245,-1.656248 0.798436,-1.06273 1.218737,-2.400811 1.218748,-3.999994 -1.1e-5,-1.599174 -0.415139,-2.968104 -1.218748,-4.031245 -0.802478,-1.068058 -1.889517,-1.656236 -3.156245,-1.656247 -0.705547,1.1e-5 -1.366531,0.148855 -1.937497,0.468749 -0.232066,0.127257 -0.428156,0.304349 -0.687499,0.499999 l 0.03125,-3.374995 c -2.9e-5,-0.293388 -0.245209,-0.53122 -0.531249,-0.531249 l -2.968746,0 c -0.03041,-0.0028 -0.06334,-0.0028 -0.09375,0 z m 16.281226,2.937496 c -1.731638,1.1e-5 -3.185554,0.514655 -4.218744,1.531248 -1.038653,1.015453 -1.499999,2.44278 -1.499998,4.156244 -10e-7,1.713472 0.463567,3.136436 1.499998,4.156244 1.03658,1.013404 2.49228,1.499999 4.218744,1.499998 0.492486,0 0.994441,-0.02355 1.499985,-0.125 0.504253,-0.09377 0.985785,-0.245265 1.468746,-0.4375 0.201565,-0.07841 0.344924,-0.277859 0.343749,-0.499999 l 0,-2.562496 c 3.84e-4,-0.207194 -0.130249,-0.381498 -0.312499,-0.46875 -0.18225,-0.08725 -0.378017,-0.07153 -0.531249,0.0625 -0.310729,0.256597 -0.623777,0.440105 -0.968747,0.562499 -0.345182,0.124102 -0.724891,0.187501 -1.124985,0.1875 -0.697508,2e-6 -1.211001,-0.232342 -1.562498,-0.624999 -0.348446,-0.398454 -0.5,-0.922443 -0.499999,-1.749997 1e-6,-0.827545 0.193769,-1.430964 0.531249,-1.812498 0.343182,-0.387767 0.818495,-0.562491 1.531248,-0.562499 0.36515,8e-6 0.718517,0.06554 1.062485,0.1875 0.0101,3.06e-4 0.02116,3.06e-4 0.03126,0 0.358575,0.125439 0.678946,0.302249 1.031247,0.562499 0.157839,0.11837 0.357988,0.123887 0.531248,0.03125 0.173261,-0.09264 0.284122,-0.267526 0.28125,-0.46875 l 0,-2.531246 c 0.0012,-0.222139 -0.142184,-0.421584 -0.343749,-0.499999 -0.486847,-0.191492 -0.970238,-0.343707 -1.468747,-0.437499 -0.479892,-0.09742 -0.98046,-0.156239 -1.499984,-0.15625 z m -24.093716,2.218747 0.937499,2.812496 -1.874997,0 0.937498,-2.812496 z M 25.89329,17.50003 c 0.497872,6e-6 0.767106,0.153346 0.999999,0.531249 0.234865,0.374889 0.40624,1.064333 0.406249,1.999998 -9e-6,0.935674 -0.165534,1.553279 -0.406249,1.937497 -0.232894,0.377912 -0.50213,0.531251 -0.999999,0.531249 -0.497868,2e-6 -0.990101,-0.221251 -1.187498,-0.531249 -0.251664,-0.40645 -0.406258,-1.021323 -0.406249,-1.937497 -10e-6,-0.916163 0.158176,-1.572801 0.406249,-1.968748 0.203248,-0.322979 0.703246,-0.562493 1.187498,-0.562499 z"
       id="path6355"
       sodipodi:nodetypes="cccsccccccccsccccccccccccsssssssccccccssssssccssssssssssssccssccccccsssssssc"
       inkscape:connector-curvature="0" />
    <g
       style="opacity:0.32758622;display:inline"
       id="g6055"
       transform="matrix(0.02364027,0,0,0.01881237,45.179499,32.240609)">
      <rect
         y="-150.69685"
         x="-1559.2523"
         height="478.35718"
         width="1339.6335"
         id="rect6057"
         style="opacity:0.39195981;color:#000000;fill:url(#linearGradient6875);fill-opacity:1;fill-rule:nonzero;stroke:none;stroke-width:1;marker:none;visibility:visible;display:inline;overflow:visible" />
      <path
         sodipodi:nodetypes="cccc"
         id="path6059"
         d="m -219.61876,-150.68038 c 0,0 0,478.33079 0,478.33079 142.874166,0.90045 345.40022,-107.16966 345.40014,-239.196175 0,-132.026537 -159.436816,-239.134595 -345.40014,-239.134615 z"
         style="opacity:0.40206185;color:#000000;fill:url(#radialGradient6877);fill-opacity:1;fill-rule:nonzero;stroke:none;stroke-width:1;marker:none;visibility:visible;display:inline;overflow:visible"
         inkscape:connector-curvature="0" />
      <path
         style="opacity:0.40206185;color:#000000;fill:url(#radialGradient6879);fill-opacity:1;fill-rule:nonzero;stroke:none;stroke-width:1;marker:none;visibility:visible;display:inline;overflow:visible"
         d="m -1559.2523,-150.68038 c 0,0 0,478.33079 0,478.33079 -142.8742,0.90045 -345.4002,-107.16966 -345.4002,-239.196175 0,-132.026537 159.4368,-239.134595 345.4002,-239.134615 z"
         id="path6061"
         sodipodi:nodetypes="cccc"
         inkscape:connector-curvature="0" />
    </g>
    <path
       style="fill:none;stroke:#4e9a06;stroke-width:2.99999571;stroke-linecap:square;stroke-linejoin:miter;stroke-miterlimit:4;stroke-opacity:1;stroke-dasharray:none"
       d="m 3.2995771,33.500007 3.9999952,-3.999994 3.9999887,3.999994 3.999994,-3.999994 3.999994,3.999994 3.999995,-3.999994 3.999994,3.999994 3.999994,-3.999994 3.999994,3.999994 3.999981,-3.999994 3.999993,3.999994"
       id="path6341"
       sodipodi:nodetypes="ccccccccccc"
       inkscape:connector-curvature="0" />
    <path
       style="fill:none;stroke:#8ae234;stroke-width:0.99999863px;stroke-linecap:square;stroke-linejoin:miter;stroke-opacity:1"
       d="m 3.2995771,33.500007 3.9999952,-3.999994 3.9999887,3.999994 3.999994,-3.999994 3.999994,3.999994 3.999995,-3.999994 3.999994,3.999994 3.999994,-3.999994 3.999994,3.999994 3.999981,-3.999994 3.999993,3.999994"
       id="path6339"
       sodipodi:nodetypes="ccccccccccc"
       inkscape:connector-curvature="0" />
    <path
       style="font-size:17.50059891px;font-style:normal;font-weight:bold;opacity:0.15;fill:none;stroke:url(#linearGradient6379);stroke-width:0.99999851px;stroke-linecap:butt;stroke-linejoin:miter;stroke-opacity:1;font-family:Bitstream Vera Sans"
       d="m 11.330811,12.531287 -4.2499885,11.968733 2.1874947,0 0.4062474,-1.281248 c 0.1345362,-0.423133 0.5247824,-0.712671 0.9687474,-0.718749 l 4.562493,0 c 0.443966,0.0061 0.834212,0.295616 0.968749,0.718749 l 0.40625,1.281248 2.156246,0 -4.281244,-11.968733 -3.124995,0 z m 10.031235,0 -0.03125,11.968733 1.968748,0 c 0.09769,-0.318893 0.343566,-0.570858 0.659973,-0.676327 0.316406,-0.105469 0.664284,-0.05142 0.933774,0.145078 0.316583,0.231271 0.503969,0.387199 0.59375,0.437499 0.398463,0.218505 0.882339,0.343751 1.437498,0.34375 0.945817,0 1.699875,-0.398223 2.343746,-1.249998 0.653131,-0.869327 0.999989,-1.956497 0.999999,-3.374995 -10e-6,-1.42071 -0.350152,-2.546526 -0.999999,-3.406246 -0.643043,-0.855858 -1.396239,-1.24999 -2.343746,-1.249998 -0.56052,9e-6 -1.043607,0.123065 -1.437498,0.34375 -0.09314,0.05108 -0.263828,0.18093 -0.5625,0.406249 -0.310724,0.236673 -0.728488,0.277506 -1.079159,0.105478 -0.350672,-0.172028 -0.574073,-0.527394 -0.577088,-0.917977 l 0.03125,-2.874996 -1.937498,0 z m 15.656228,2.937496 c -1.527317,10e-6 -2.687538,0.450593 -3.499995,1.249998 -0.802397,0.784475 -1.187499,1.87789 -1.187498,3.406246 -1e-6,1.527474 0.383333,2.614978 1.187498,3.406245 0.809476,0.791379 1.967299,1.218749 3.499995,1.218748 0.459604,0 0.905854,-0.01215 1.312489,-0.09375 0.321089,-0.05971 0.644517,-0.197527 0.968744,-0.312499 l 0,-1.312499 c -0.149238,0.0757 -0.27941,0.193909 -0.437499,0.25 -0.466537,0.16773 -0.959697,0.250001 -1.468734,0.25 -0.92652,3e-6 -1.794194,-0.354845 -2.343747,-0.968749 -0.545824,-0.62416 -0.75,-1.484036 -0.749999,-2.437496 10e-7,-0.988522 0.216053,-1.861021 0.781249,-2.499997 0.554483,-0.626519 1.431216,-0.906239 2.312497,-0.906249 0.369013,8e-6 0.716543,0.0947 1.062485,0.1875 0.01041,-1.58e-4 0.02081,-1.58e-4 0.03126,0 0.02081,-6.14e-4 0.04167,-6.14e-4 0.0625,0 0.08562,0.0103 0.169606,0.0313 0.25,0.0625 0.01041,-1.58e-4 0.02081,-1.58e-4 0.03126,0 0.165988,0.05807 0.310917,0.172572 0.468749,0.25 l 0,-1.312498 c -0.328266,-0.115632 -0.651963,-0.252897 -0.968744,-0.3125 -0.01041,1.58e-4 -0.02081,1.58e-4 -0.03126,0 -0.422184,-0.08571 -0.839537,-0.124991 -1.281238,-0.125 z m -24.249965,0.15625 c 0.500396,-0.06817 0.976549,0.236043 1.124998,0.718749 l 0.937499,2.812496 c 0.09893,0.311156 0.04468,0.650777 -0.146263,0.91563 -0.190939,0.264851 -0.496013,0.423647 -0.822486,0.428118 l -1.874997,0 c -0.326472,-0.0045 -0.631546,-0.163267 -0.822486,-0.428118 -0.19094,-0.264853 -0.245192,-0.604474 -0.146262,-0.91563 l 0.937498,-2.812496 c 0.112786,-0.374168 0.427365,-0.652451 0.812499,-0.718749 l 0,0 z m 13.124981,0.843749 c 0.709611,9e-6 1.521234,0.457214 1.874997,1.031248 0.417047,0.665682 0.56249,1.469666 0.5625,2.531247 -10e-6,1.057291 -0.170735,1.874681 -0.5625,2.499996 -0.353764,0.574047 -1.165383,1.000002 -1.874997,0.999999 -0.803397,3e-6 -1.56732,-0.222358 -2.062497,-0.999999 -1.58e-4,-0.01042 -1.58e-4,-0.02083 0,-0.03125 -0.397211,-0.641517 -0.562508,-1.43656 -0.562499,-2.468746 -10e-6,-1.034872 0.146793,-1.867741 0.562499,-2.531247 0.486898,-0.773723 1.238213,-1.031238 2.062497,-1.031248 z"
       id="path5386"
       sodipodi:nodetypes="ccccccccccccccsssssssssssccccsssssccsssssssssssccssccccsccscccccssssssssc"
       inkscape:connector-curvature="0" />
    <path
       style="font-size:17.50059891px;font-style:normal;font-weight:bold;fill:#babdb6;fill-opacity:1;stroke:none;font-family:Bitstream Vera Sans"
       d="m 10.987061,12.031288 -4.5937375,12.968732 0.3437495,0 4.249988,-11.968733 3.812495,0 4.312494,11.968733 0.343749,0 -4.656243,-12.968732 -3.812495,0 z m 9.874986,0 0,0.999999 2.937496,0 0,-0.999999 -2.937496,0 z m 6.062492,2.937496 c -0.630837,1e-5 -1.207752,0.137463 -1.687498,0.406249 -0.1605,0.08801 -0.345395,0.257815 -0.624999,0.46875 -0.162753,0.118369 -0.383842,0.123887 -0.562499,0.03125 -0.169199,-0.08773 -0.272752,-0.248698 -0.28125,-0.4375 l 0,0.968749 c -0.003,0.201224 0.102592,0.376112 0.28125,0.468749 0.178657,0.09264 0.399746,0.08712 0.562499,-0.03125 0.279604,-0.210934 0.464499,-0.380736 0.624999,-0.468749 0.479746,-0.268787 1.056661,-0.406239 1.687498,-0.406249 1.102281,10e-6 1.998401,0.478754 2.718746,1.437497 0.641584,0.848789 1.013509,1.93574 1.093748,3.218746 0.01099,-0.16931 0.03125,-0.322773 0.03125,-0.499999 -10e-6,-1.507238 -0.4006,-2.760398 -1.124998,-3.718745 -0.720345,-0.958744 -1.616465,-1.437488 -2.718746,-1.437498 z m 10.093735,0 c -1.626381,1e-5 -2.924266,0.470289 -3.843744,1.374998 -0.916946,0.896465 -1.343749,2.16314 -1.343748,3.781245 0,0.174619 0.02122,0.333683 0.03125,0.499999 0.08286,-1.37556 0.494533,-2.481551 1.312498,-3.281246 0.919478,-0.904708 2.217363,-1.374987 3.843744,-1.374997 0.479435,10e-6 0.956076,0.06487 1.406235,0.15625 0.457194,0.08602 0.910383,0.223501 1.374996,0.406249 l 0,-0.999999 c -0.464613,-0.182748 -0.917802,-0.320229 -1.374996,-0.406249 -0.450159,-0.09138 -0.9268,-0.15624 -1.406235,-0.15625 z m -25.374964,4.874993 -0.156249,0.468749 c -0.04918,0.159838 -0.03586,0.333502 0.0625,0.46875 0.09836,0.135247 0.270283,0.216292 0.437499,0.218749 l 1.874997,0 c 0.167216,-0.0025 0.339138,-0.0835 0.4375,-0.218749 0.09836,-0.135248 0.111682,-0.308912 0.0625,-0.46875 l -0.15625,-0.468749 c -0.09437,0.08405 -0.214912,0.154357 -0.34375,0.15625 l -1.874997,0 c -0.128838,-0.0019 -0.24938,-0.0722 -0.34375,-0.15625 z m 12.156233,0.687499 c -0.01098,0.162245 -0.03125,0.322169 -0.03125,0.499999 -9e-6,0.975939 0.173357,1.691202 0.499999,2.218747 0.350799,0.550904 0.969736,0.781252 1.624998,0.781249 0.60695,2e-6 1.142337,-0.302298 1.437498,-0.781249 0.318528,-0.508419 0.499989,-1.220421 0.499999,-2.218747 -2e-6,-0.174148 -0.02094,-0.340595 -0.03125,-0.499999 -0.05282,0.733674 -0.208179,1.302839 -0.468749,1.718748 -0.295161,0.478951 -0.830548,0.78125 -1.437498,0.781248 -0.655262,3e-6 -1.274199,-0.230344 -1.624998,-0.781248 -0.267206,-0.431554 -0.417687,-0.996017 -0.468749,-1.718748 z m 11.031234,0.21875 c -0.0084,0.12285 -0.03125,0.244711 -0.03125,0.374999 -10e-7,0.892416 0.174874,1.57902 0.624999,2.093747 0.453527,0.506632 1.153264,0.812501 1.968748,0.812499 0.456216,1e-6 0.904788,-0.07217 1.312484,-0.21875 0.393858,-0.13974 0.753881,-0.349897 1.093747,-0.624999 l 0,-0.999998 c -0.339866,0.275101 -0.699889,0.485258 -1.093747,0.624999 -0.407696,0.146577 -0.856268,0.21875 -1.312484,0.218749 -0.815484,2e-6 -1.515221,-0.305866 -1.968748,-0.812498 -0.337593,-0.386046 -0.523466,-0.875025 -0.593749,-1.468748 z"
       id="path6363"
       sodipodi:nodetypes="cccccccccccccccsssccssssscssccsscsssccscccsccsccccccssssscsssccssssccsssc"
       inkscape:connector-curvature="0" />
  </g>
</svg>
