<?xml version="1.0" encoding="UTF-8" standalone="no"?>
<!-- Created with Inkscape (http://www.inkscape.org/) -->

<svg
   xmlns:dc="http://purl.org/dc/elements/1.1/"
   xmlns:cc="http://creativecommons.org/ns#"
   xmlns:rdf="http://www.w3.org/1999/02/22-rdf-syntax-ns#"
   xmlns:svg="http://www.w3.org/2000/svg"
   xmlns="http://www.w3.org/2000/svg"
   xmlns:xlink="http://www.w3.org/1999/xlink"
   xmlns:sodipodi="http://sodipodi.sourceforge.net/DTD/sodipodi-0.dtd"
   xmlns:inkscape="http://www.inkscape.org/namespaces/inkscape"
   version="1.0"
   width="48"
   height="48"
   id="svg3367"
   inkscape:version="0.48.3.1 r9886"
   sodipodi:docname="5.svg">
  <metadata
     id="metadata120">
    <rdf:RDF>
      <cc:Work
         rdf:about="">
        <dc:format>image/svg+xml</dc:format>
        <dc:type
           rdf:resource="http://purl.org/dc/dcmitype/StillImage" />
        <dc:title></dc:title>
      </cc:Work>
    </rdf:RDF>
  </metadata>
  <sodipodi:namedview
     pagecolor="#ffffff"
     bordercolor="#666666"
     borderopacity="1"
     objecttolerance="10"
     gridtolerance="10"
     guidetolerance="10"
     inkscape:pageopacity="0"
     inkscape:pageshadow="2"
     inkscape:window-width="900"
     inkscape:window-height="612"
     id="namedview118"
     showgrid="false"
     inkscape:zoom="6.0208333"
     inkscape:cx="24"
     inkscape:cy="24"
     inkscape:window-x="407"
     inkscape:window-y="39"
     inkscape:window-maximized="0"
     inkscape:current-layer="svg3367" />
  <defs
     id="defs3369">
    <linearGradient
       id="linearGradient23419">
      <stop
         id="stop23421"
         style="stop-color:#000000;stop-opacity:1"
         offset="0" />
      <stop
         id="stop23423"
         style="stop-color:#000000;stop-opacity:0"
         offset="1" />
    </linearGradient>
    <linearGradient
       id="linearGradient3772">
      <stop
         id="stop3774"
         style="stop-color:#b4b4b4;stop-opacity:1"
         offset="0" />
      <stop
         id="stop3776"
         style="stop-color:#969696;stop-opacity:1"
         offset="1" />
    </linearGradient>
    <linearGradient
       x1="12.2744"
       y1="32.4165"
       x2="35.391201"
       y2="14.2033"
       id="linearGradient3263"
       gradientUnits="userSpaceOnUse">
      <stop
         id="stop3265"
         style="stop-color:#dedbde;stop-opacity:1"
         offset="0" />
      <stop
         id="stop3267"
         style="stop-color:#e6e6e6;stop-opacity:1"
         offset="0.5" />
      <stop
         id="stop3269"
         style="stop-color:#d2d2d2;stop-opacity:1"
         offset="1" />
    </linearGradient>
    <linearGradient
       id="linearGradient3428">
      <stop
         id="stop3430"
         style="stop-color:#aaaaaa;stop-opacity:1"
         offset="0" />
      <stop
         id="stop3432"
         style="stop-color:#d4d4d4;stop-opacity:1"
         offset="1" />
    </linearGradient>
    <linearGradient
       x1="10.609375"
       y1="17.886322"
       x2="9.7297754"
       y2="20.612656"
       id="linearGradient3354"
       xlink:href="#linearGradient3519"
       gradientUnits="userSpaceOnUse"
       spreadMethod="reflect" />
    <linearGradient
       x1="12.371647"
       y1="16.188046"
       x2="14.609327"
       y2="13.461712"
       id="linearGradient3352"
       xlink:href="#linearGradient3511"
       gradientUnits="userSpaceOnUse"
       spreadMethod="reflect" />
    <linearGradient
       x1="14.084608"
       y1="13.045606"
       x2="16.994024"
       y2="10.732353"
       id="linearGradient3350"
       xlink:href="#linearGradient3503"
       gradientUnits="userSpaceOnUse"
       spreadMethod="reflect" />
    <linearGradient
       x1="17.494959"
       y1="11.200086"
       x2="21.047453"
       y2="9.7956104"
       id="linearGradient3348"
       xlink:href="#linearGradient3495"
       gradientUnits="userSpaceOnUse"
       spreadMethod="reflect" />
    <linearGradient
       x1="20.580074"
       y1="10.774516"
       x2="24.27351"
       y2="9.8622112"
       id="linearGradient3346"
       xlink:href="#linearGradient3487"
       gradientUnits="userSpaceOnUse"
       spreadMethod="reflect" />
    <linearGradient
       id="linearGradient6036">
      <stop
         id="stop6038"
         style="stop-color:#ffffff;stop-opacity:1"
         offset="0" />
      <stop
         id="stop6040"
         style="stop-color:#ffffff;stop-opacity:0"
         offset="1" />
    </linearGradient>
    <linearGradient
       id="linearGradient3519">
      <stop
         id="stop3521"
         style="stop-color:#fcd9cd;stop-opacity:1"
         offset="0" />
      <stop
         id="stop3523"
         style="stop-color:#fcd9cd;stop-opacity:0"
         offset="1" />
    </linearGradient>
    <linearGradient
       x1="10.609375"
       y1="17.886322"
       x2="9.7297754"
       y2="20.612656"
       id="linearGradient3319"
       xlink:href="#linearGradient3519"
       gradientUnits="userSpaceOnUse"
       spreadMethod="reflect" />
    <linearGradient
       id="linearGradient3511">
      <stop
         id="stop3513"
         style="stop-color:#ebeec7;stop-opacity:1"
         offset="0" />
      <stop
         id="stop3515"
         style="stop-color:#ebeec7;stop-opacity:0"
         offset="1" />
    </linearGradient>
    <linearGradient
       x1="12.371647"
       y1="16.188046"
       x2="14.609327"
       y2="13.461712"
       id="linearGradient3317"
       xlink:href="#linearGradient3511"
       gradientUnits="userSpaceOnUse"
       spreadMethod="reflect" />
    <linearGradient
       id="linearGradient3503">
      <stop
         id="stop3505"
         style="stop-color:#c4ebdd;stop-opacity:1"
         offset="0" />
      <stop
         id="stop3507"
         style="stop-color:#c4ebdd;stop-opacity:0"
         offset="1" />
    </linearGradient>
    <linearGradient
       x1="14.084608"
       y1="13.045606"
       x2="16.994024"
       y2="10.732353"
       id="linearGradient3315"
       xlink:href="#linearGradient3503"
       gradientUnits="userSpaceOnUse"
       spreadMethod="reflect" />
    <linearGradient
       id="linearGradient3495">
      <stop
         id="stop3497"
         style="stop-color:#c1cbe4;stop-opacity:1"
         offset="0" />
      <stop
         id="stop3499"
         style="stop-color:#c1cbe4;stop-opacity:0"
         offset="1" />
    </linearGradient>
    <linearGradient
       x1="17.494959"
       y1="11.200086"
       x2="21.047453"
       y2="9.7956104"
       id="linearGradient3313"
       xlink:href="#linearGradient3495"
       gradientUnits="userSpaceOnUse"
       spreadMethod="reflect" />
    <linearGradient
       id="linearGradient3487">
      <stop
         id="stop3489"
         style="stop-color:#e6cde2;stop-opacity:1"
         offset="0" />
      <stop
         id="stop3491"
         style="stop-color:#e6cde2;stop-opacity:0"
         offset="1" />
    </linearGradient>
    <linearGradient
       x1="20.580074"
       y1="10.774516"
       x2="24.27351"
       y2="9.8622112"
       id="linearGradient3311"
       xlink:href="#linearGradient3487"
       gradientUnits="userSpaceOnUse"
       spreadMethod="reflect" />
    <linearGradient
       x1="10.50172"
       y1="3.6100161"
       x2="48.798885"
       y2="54.698483"
       id="linearGradient2453"
       xlink:href="#linearGradient6036"
       gradientUnits="userSpaceOnUse"
       gradientTransform="matrix(0.9849664,0,0,0.9849663,0.01902206,-0.6241532)" />
    <linearGradient
       x1="18.775953"
       y1="4.0378027"
       x2="18.203465"
       y2="45.962208"
       id="linearGradient2462"
       xlink:href="#linearGradient6036"
       gradientUnits="userSpaceOnUse"
       gradientTransform="matrix(0.4293444,0,0,0.4293442,13.546752,13.266392)" />
    <linearGradient
       x1="21.448364"
       y1="15.5"
       x2="21.448364"
       y2="32.509201"
       id="linearGradient2465"
       xlink:href="#linearGradient3428"
       gradientUnits="userSpaceOnUse"
       gradientTransform="matrix(0.9375,0,0,0.9375,1.5,1.5)" />
    <linearGradient
       x1="12.2744"
       y1="32.4165"
       x2="35.391201"
       y2="14.2033"
       id="linearGradient2470"
       xlink:href="#linearGradient3263"
       gradientUnits="userSpaceOnUse"
       gradientTransform="matrix(0,1.1714389,-1.1714389,0,51.060244,-4.11454)" />
    <linearGradient
       x1="-21.915663"
       y1="3"
       x2="-21.915663"
       y2="45.032898"
       id="linearGradient2472"
       xlink:href="#linearGradient3772"
       gradientUnits="userSpaceOnUse"
       gradientTransform="translate(50.26506,0)" />
    <radialGradient
       cx="23.334524"
       cy="41.63604"
       r="22.627417"
       fx="23.334524"
       fy="41.63604"
       id="radialGradient2475"
       xlink:href="#linearGradient23419"
       gradientUnits="userSpaceOnUse"
       gradientTransform="matrix(0.9722718,0,0,0.2872354,1.3124992,27.540524)" />
    <linearGradient
       x1="32.892288"
       y1="8.0590115"
       x2="36.358372"
       y2="5.4565363"
       id="linearGradient3598"
       xlink:href="#linearGradient8589"
       gradientUnits="userSpaceOnUse"
       gradientTransform="matrix(0.6371285,0,0,0.6445638,18.829693,18.744517)" />
    <linearGradient
       id="linearGradient8589">
      <stop
         id="stop8591"
         style="stop-color:#fefefe;stop-opacity:1"
         offset="0" />
      <stop
         id="stop8593"
         style="stop-color:#cbcbcb;stop-opacity:1"
         offset="1" />
    </linearGradient>
    <filter
       x="-0.14846256"
       y="-0.16434373"
       width="1.2969251"
       height="1.3286875"
       color-interpolation-filters="sRGB"
       id="filter3212">
      <feGaussianBlur
         stdDeviation="0.77391625"
         id="feGaussianBlur3214" />
    </filter>
    <linearGradient
       x1="24"
       y1="1.9999999"
       x2="24"
       y2="46.01725"
       id="linearGradient3602"
       xlink:href="#linearGradient3211"
       gradientUnits="userSpaceOnUse"
       gradientTransform="matrix(0.6363646,0,0,0.6279076,18.727264,16.930216)" />
    <linearGradient
       id="linearGradient3211">
      <stop
         id="stop3213"
         style="stop-color:#ffffff;stop-opacity:1"
         offset="0" />
      <stop
         id="stop3215"
         style="stop-color:#ffffff;stop-opacity:0"
         offset="1" />
    </linearGradient>
    <radialGradient
       cx="102"
       cy="112.3047"
       r="139.55859"
       id="radialGradient3605"
       xlink:href="#XMLID_8_"
       gradientUnits="userSpaceOnUse"
       gradientTransform="matrix(0.2340426,0,0,-0.2542968,19.02129,50.288672)" />
    <radialGradient
       cx="102"
       cy="112.3047"
       r="139.55859"
       id="XMLID_8_"
       gradientUnits="userSpaceOnUse">
      <stop
         id="stop41"
         style="stop-color:#b7b8b9;stop-opacity:1"
         offset="0" />
      <stop
         id="stop47"
         style="stop-color:#ececec;stop-opacity:1"
         offset="0.18851049" />
      <stop
         id="stop49"
         style="stop-color:#fafafa;stop-opacity:0"
         offset="0.25718147" />
      <stop
         id="stop51"
         style="stop-color:#ffffff;stop-opacity:0"
         offset="0.30111277" />
      <stop
         id="stop53"
         style="stop-color:#fafafa;stop-opacity:0"
         offset="0.53130001" />
      <stop
         id="stop55"
         style="stop-color:#ebecec;stop-opacity:0"
         offset="0.84490001" />
      <stop
         id="stop57"
         style="stop-color:#e1e2e3;stop-opacity:0"
         offset="1" />
    </radialGradient>
    <linearGradient
       x1="25.132275"
       y1="0.98520643"
       x2="25.132275"
       y2="47.013336"
       id="linearGradient3608"
       xlink:href="#linearGradient3600"
       gradientUnits="userSpaceOnUse"
       gradientTransform="matrix(0.6571436,0,0,0.6301241,18.228566,15.910352)" />
    <linearGradient
       id="linearGradient3600">
      <stop
         id="stop3602"
         style="stop-color:#f4f4f4;stop-opacity:1"
         offset="0" />
      <stop
         id="stop3604"
         style="stop-color:#dbdbdb;stop-opacity:1"
         offset="1" />
    </linearGradient>
    <linearGradient
       x1="-51.786404"
       y1="50.786446"
       x2="-51.786404"
       y2="2.9062471"
       id="linearGradient3610"
       xlink:href="#linearGradient3104"
       gradientUnits="userSpaceOnUse"
       gradientTransform="matrix(0.5306412,0,0,0.5897023,57.269618,15.208092)" />
    <linearGradient
       id="linearGradient3104">
      <stop
         id="stop3106"
         style="stop-color:#9a9a9a;stop-opacity:1"
         offset="0" />
      <stop
         id="stop3108"
         style="stop-color:#afafaf;stop-opacity:1"
         offset="1" />
    </linearGradient>
    <radialGradient
       cx="605.71429"
       cy="486.64789"
       r="117.14286"
       fx="605.71429"
       fy="486.64789"
       id="radialGradient3613"
       xlink:href="#linearGradient5060"
       gradientUnits="userSpaceOnUse"
       gradientTransform="matrix(0.01566318,0,0,0.00823529,35.610446,42.980566)" />
    <linearGradient
       id="linearGradient5060">
      <stop
         id="stop5062"
         style="stop-color:#000000;stop-opacity:1"
         offset="0" />
      <stop
         id="stop5064"
         style="stop-color:#000000;stop-opacity:0"
         offset="1" />
    </linearGradient>
    <radialGradient
       cx="605.71429"
       cy="486.64789"
       r="117.14286"
       fx="605.71429"
       fy="486.64789"
       id="radialGradient3616"
       xlink:href="#linearGradient5060"
       gradientUnits="userSpaceOnUse"
       gradientTransform="matrix(-0.01566318,0,0,0.00823529,33.389579,42.980566)" />
    <linearGradient
       x1="3.7797408"
       y1="106.37297"
       x2="3.7797408"
       y2="99.720741"
       id="linearGradient3619"
       xlink:href="#linearGradient5048"
       gradientUnits="userSpaceOnUse"
       gradientTransform="matrix(3.1586968,0,0,0.3008283,19.296394,16)" />
    <linearGradient
       id="linearGradient5048">
      <stop
         id="stop5050"
         style="stop-color:#000000;stop-opacity:0"
         offset="0" />
      <stop
         id="stop5056"
         style="stop-color:#000000;stop-opacity:1"
         offset="0.5" />
      <stop
         id="stop5052"
         style="stop-color:#000000;stop-opacity:0"
         offset="1" />
    </linearGradient>
    <linearGradient
       id="linearGradient5060-179">
      <stop
         id="stop2675"
         style="stop-color:#000000;stop-opacity:1"
         offset="0" />
      <stop
         id="stop2677"
         style="stop-color:#000000;stop-opacity:0"
         offset="1" />
    </linearGradient>
    <radialGradient
       cx="605.71429"
       cy="486.64789"
       r="117.14286"
       fx="605.71429"
       fy="486.64789"
       id="radialGradient3717"
       xlink:href="#linearGradient5060-179"
       gradientUnits="userSpaceOnUse"
       gradientTransform="matrix(0.03079083,0,0,0.02470588,24.610252,31.941642)" />
    <radialGradient
       gradientTransform="matrix(-1.4061954,0,0,0.3867044,27.819698,13.522738)"
       gradientUnits="userSpaceOnUse"
       xlink:href="#linearGradient5105-262-943-861"
       id="radialGradient3932"
       fy="19.03125"
       fx="11.25"
       r="8.0625"
       cy="19.03125"
       cx="11.25" />
    <linearGradient
       id="linearGradient5105-262-943-861">
      <stop
         offset="0"
         style="stop-color:#0d0d0d;stop-opacity:1"
         id="stop2487" />
      <stop
         offset="1"
         style="stop-color:#0d0d0d;stop-opacity:0"
         id="stop2489" />
    </linearGradient>
    <linearGradient
       gradientTransform="matrix(-0.5165267,0,0,0.5333212,23.457373,-0.7415553)"
       gradientUnits="userSpaceOnUse"
       xlink:href="#linearGradient7012-661-145-733-759-865-745-661-970-94"
       id="linearGradient3927"
       y2="44.051018"
       x2="22.181572"
       y1="14.499924"
       x1="22.181572" />
    <linearGradient
       id="linearGradient7012-661-145-733-759-865-745-661-970-94">
      <stop
         offset="0"
         style="stop-color:#f0c178;stop-opacity:1"
         id="stop3618" />
      <stop
         offset="0.5"
         style="stop-color:#e18941;stop-opacity:1"
         id="stop3270" />
      <stop
         offset="1"
         style="stop-color:#ec4f18;stop-opacity:1"
         id="stop3620" />
    </linearGradient>
    <linearGradient
       gradientTransform="matrix(-1,0,0,1,24,0)"
       gradientUnits="userSpaceOnUse"
       xlink:href="#linearGradient3390-178-986-453"
       id="linearGradient3929"
       y2="0.98732251"
       x2="17.481928"
       y1="23"
       x1="17.481928" />
    <linearGradient
       id="linearGradient3390-178-986-453">
      <stop
         offset="0"
         style="stop-color:#bb2b12;stop-opacity:1"
         id="stop3624" />
      <stop
         offset="1"
         style="stop-color:#cd7233;stop-opacity:1"
         id="stop3626" />
    </linearGradient>
    <linearGradient
       gradientTransform="matrix(0.599071,0,0,0.6156931,-3.232032,-3.9814102)"
       gradientUnits="userSpaceOnUse"
       xlink:href="#linearGradient4222"
       id="linearGradient3924"
       y2="40.445961"
       x2="29.367338"
       y1="11.491515"
       x1="29.367338" />
    <linearGradient
       id="linearGradient4222">
      <stop
         offset="0"
         style="stop-color:#ffffff;stop-opacity:1"
         id="stop4224" />
      <stop
         offset="1"
         style="stop-color:#ffffff;stop-opacity:0"
         id="stop4226" />
    </linearGradient>
    <linearGradient
       y2="40.445961"
       x2="29.367338"
       y1="11.491515"
       x1="29.367338"
       gradientTransform="matrix(0.599071,0,0,0.6156931,-3.232032,-3.9814102)"
       gradientUnits="userSpaceOnUse"
       id="linearGradient3524"
       xlink:href="#linearGradient4222"
       inkscape:collect="always" />
    <radialGradient
       r="15.644737"
       fy="36.421127"
       fx="24.837126"
       cy="36.421127"
       cx="24.837126"
       gradientTransform="matrix(1,0,0,0.536723,0,16.87306)"
       gradientUnits="userSpaceOnUse"
       id="radialGradient3067"
       xlink:href="#linearGradient8662-4"
       inkscape:collect="always" />
    <linearGradient
       id="linearGradient8662-4"
       inkscape:collect="always">
      <stop
         id="stop8664-6"
         offset="0"
         style="stop-color:#000000;stop-opacity:1;" />
      <stop
         id="stop8666-1"
         offset="1"
         style="stop-color:#000000;stop-opacity:0;" />
    </linearGradient>
    <linearGradient
       inkscape:collect="always"
       xlink:href="#linearGradient3671-580-6-3"
       id="linearGradient3039-1"
       gradientUnits="userSpaceOnUse"
       gradientTransform="matrix(0.8227934,0,0,-0.76606771,10.701288,47.781512)"
       x1="23.731871"
       y1="4.4175272"
       x2="23.731871"
       y2="42.03978" />
    <linearGradient
       id="linearGradient3671-580-6-3">
      <stop
         offset="0"
         style="stop-color:#fc93dc;stop-opacity:1"
         id="stop4088-6-9" />
      <stop
         offset="0.26238"
         style="stop-color:#da72d3;stop-opacity:1"
         id="stop4090-4-3" />
      <stop
         offset="0.704952"
         style="stop-color:#a33fab;stop-opacity:1"
         id="stop4092-6-9" />
      <stop
         offset="1"
         style="stop-color:#502b58;stop-opacity:1"
         id="stop4094-2-3" />
    </linearGradient>
    <linearGradient
       inkscape:collect="always"
       xlink:href="#linearGradient3707-662-8-1"
       id="linearGradient3041-8"
       gradientUnits="userSpaceOnUse"
       gradientTransform="matrix(0.8227934,0,0,-0.76606771,10.701288,47.781512)"
       x1="35.998066"
       y1="37.038586"
       x2="35.998066"
       y2="4.0044417" />
    <linearGradient
       id="linearGradient3707-662-8-1">
      <stop
         offset="0"
         style="stop-color:#542f57;stop-opacity:1"
         id="stop4098-9-5" />
      <stop
         offset="1"
         style="stop-color:#bb5ca4;stop-opacity:1"
         id="stop4100-6-7" />
    </linearGradient>
    <linearGradient
       inkscape:collect="always"
       xlink:href="#linearGradient4087-6"
       id="linearGradient3036-7"
       gradientUnits="userSpaceOnUse"
       gradientTransform="matrix(0,0.89777469,0.96425314,0,12.230466,6.4070478)"
       x1="38.940514"
       y1="15.991243"
       x2="20.576487"
       y2="15.991243" />
    <linearGradient
       id="linearGradient4087-6">
      <stop
         offset="0"
         style="stop-color:#ffffff;stop-opacity:1;"
         id="stop4089-4" />
      <stop
         id="stop4091-6"
         style="stop-color:#ffffff;stop-opacity:0.23529412;"
         offset="0.51153916" />
      <stop
         offset="0.58522105"
         style="stop-color:#ffffff;stop-opacity:0.15686275;"
         id="stop4093-5" />
      <stop
         offset="1"
         style="stop-color:#ffffff;stop-opacity:0.39215687;"
         id="stop4095-9" />
    </linearGradient>
    <radialGradient
       r="15.644737"
       fy="36.421127"
       fx="24.837126"
       cy="36.421127"
       cx="24.837126"
       gradientTransform="matrix(1,0,0,0.536723,0,16.87306)"
       gradientUnits="userSpaceOnUse"
       id="radialGradient3155"
       xlink:href="#linearGradient8662-4"
       inkscape:collect="always" />
    <radialGradient
       gradientUnits="userSpaceOnUse"
       gradientTransform="matrix(1,0,0,0.45,0,37.95)"
       r="20"
       fy="69"
       fx="28.603323"
       cy="69"
       cx="38"
       id="radialGradient6025"
       xlink:href="#linearGradient6019"
       inkscape:collect="always" />
    <linearGradient
       id="linearGradient6019"
       inkscape:collect="always">
      <stop
         id="stop6021"
         offset="0"
         style="stop-color:#000000;stop-opacity:1;" />
      <stop
         id="stop6023"
         offset="1"
         style="stop-color:#000000;stop-opacity:0;" />
    </linearGradient>
    <linearGradient
       gradientTransform="matrix(0.88825157,0,0,0.88825157,6.3936732,1.3634737)"
       gradientUnits="userSpaceOnUse"
       y2="8"
       x2="26"
       y1="16"
       x1="28"
       id="linearGradient5964"
       xlink:href="#linearGradient5958"
       inkscape:collect="always" />
    <linearGradient
       id="linearGradient5958"
       inkscape:collect="always">
      <stop
         id="stop5960"
         offset="0"
         style="stop-color:#c17d11;stop-opacity:1;" />
      <stop
         id="stop5962"
         offset="1"
         style="stop-color:#e9b96e;stop-opacity:1" />
    </linearGradient>
    <linearGradient
       gradientTransform="matrix(0.88825157,0,0,0.88825157,6.3936732,1.3634737)"
       gradientUnits="userSpaceOnUse"
       y2="18"
       x2="34"
       y1="9.2407961"
       x1="30.324829"
       id="linearGradient6002"
       xlink:href="#linearGradient5996"
       inkscape:collect="always" />
    <linearGradient
       id="linearGradient5996"
       inkscape:collect="always">
      <stop
         id="stop5998"
         offset="0"
         style="stop-color:#8f5902;stop-opacity:1;" />
      <stop
         id="stop6000"
         offset="1"
         style="stop-color:#73521e;stop-opacity:1" />
    </linearGradient>
    <linearGradient
       y2="16.685888"
       x2="33.447109"
       y1="8"
       x1="28"
       gradientUnits="userSpaceOnUse"
       id="linearGradient5994"
       xlink:href="#linearGradient5984"
       inkscape:collect="always" />
    <linearGradient
       id="linearGradient5984"
       inkscape:collect="always">
      <stop
         id="stop5986"
         offset="0"
         style="stop-color:#ffffff;stop-opacity:1;" />
      <stop
         id="stop5988"
         offset="1"
         style="stop-color:#ffffff;stop-opacity:0.13438736" />
    </linearGradient>
    <linearGradient
       gradientTransform="matrix(0.88825157,0,0,0.88825157,6.3936732,1.3634737)"
       gradientUnits="userSpaceOnUse"
       y2="30.742676"
       x2="30.208115"
       y1="25.060659"
       x1="20.933708"
       id="linearGradient5972"
       xlink:href="#linearGradient5966"
       inkscape:collect="always" />
    <linearGradient
       id="linearGradient5966"
       inkscape:collect="always">
      <stop
         id="stop5968"
         offset="0"
         style="stop-color:#fdef72;stop-opacity:1" />
      <stop
         id="stop5970"
         offset="1"
         style="stop-color:#e2cb0b;stop-opacity:1" />
    </linearGradient>
    <linearGradient
       gradientTransform="matrix(0.88825157,0,0,0.88825157,6.3936732,1.3634737)"
       gradientUnits="userSpaceOnUse"
       y2="37.845814"
       x2="29.494455"
       y1="27.446827"
       x1="17.032078"
       id="linearGradient5993"
       xlink:href="#linearGradient5987"
       inkscape:collect="always" />
    <linearGradient
       id="linearGradient5987"
       inkscape:collect="always">
      <stop
         id="stop5989"
         offset="0"
         style="stop-color:#d7c20f;stop-opacity:1" />
      <stop
         id="stop5991"
         offset="1"
         style="stop-color:#b6970d;stop-opacity:1" />
    </linearGradient>
    <linearGradient
       gradientTransform="matrix(0.88825157,0,0,0.88825157,6.3936732,1.3634737)"
       y2="37.029255"
       x2="18.985712"
       y1="41.955986"
       x1="22.319767"
       gradientUnits="userSpaceOnUse"
       id="linearGradient5973"
       xlink:href="#linearGradient5981"
       inkscape:collect="always" />
    <linearGradient
       inkscape:collect="always"
       id="linearGradient5981">
      <stop
         style="stop-color:#ffffff;stop-opacity:1;"
         offset="0"
         id="stop5983" />
      <stop
         style="stop-color:#ffffff;stop-opacity:0.69411765"
         offset="1"
         id="stop5985" />
    </linearGradient>
    <linearGradient
       gradientTransform="matrix(0.88825157,0,0,0.88825157,6.3936732,1.3634737)"
       gradientUnits="userSpaceOnUse"
       y2="34.728424"
       x2="23.489431"
       y1="36.218422"
       x1="27.354809"
       id="linearGradient6005"
       xlink:href="#linearGradient5999"
       inkscape:collect="always" />
    <linearGradient
       id="linearGradient5999"
       inkscape:collect="always">
      <stop
         id="stop6001"
         offset="0"
         style="stop-color:#c4a000;stop-opacity:1;" />
      <stop
         id="stop6003"
         offset="1"
         style="stop-color:#c4a000;stop-opacity:0;" />
    </linearGradient>
    <linearGradient
       gradientTransform="matrix(0.86766128,0,0,0.88825157,6.94913,1.3634737)"
       gradientUnits="userSpaceOnUse"
       y2="20.618719"
       x2="21.59099"
       y1="23.145937"
       x1="27.651777"
       id="linearGradient5980-761"
       xlink:href="#linearGradient5974-892"
       inkscape:collect="always" />
    <linearGradient
       id="linearGradient5974-892"
       inkscape:collect="always">
      <stop
         id="stop2473"
         offset="0"
         style="stop-color:#919191;stop-opacity:1;" />
      <stop
         id="stop2475"
         offset="1"
         style="stop-color:#cecece;stop-opacity:1" />
    </linearGradient>
    <radialGradient
       r="20"
       fy="69"
       fx="28.603323"
       cy="69"
       cx="38"
       gradientTransform="matrix(1,0,0,0.45,0,37.95)"
       gradientUnits="userSpaceOnUse"
       id="radialGradient3094"
       xlink:href="#linearGradient6019"
       inkscape:collect="always" />
  </defs>
  <path
     d="m 46,39.499867 c 0.0011,3.589753 -9.848934,6.500001 -22,6.500001 -12.151066,0 -22.001133,-2.910248 -21.9999999,-6.500001 C 1.998867,35.910116 11.848934,32.999868 24,32.999868 c 12.151066,0 22.001133,2.910248 22,6.499999 l 0,0 z"
     id="path23417"
     style="opacity:0.3;fill:url(#radialGradient2475);fill-opacity:1;fill-rule:evenodd;stroke:none;stroke-width:2;marker:none;visibility:visible;display:inline;overflow:visible" />
  <path
     d="M 44.5,24 C 44.5,12.637039 35.362959,3.5 24,3.5 12.637038,3.5 3.5000001,12.63704 3.5000001,24 3.4999981,35.36296 12.637039,44.5 24,44.5 35.362958,44.499998 44.5,35.362961 44.5,24 z m -13,0 c 0,4.12813 -3.28927,7.5 -7.5,7.5 -4.29333,0 -7.5,-3.455313 -7.5,-7.5 0,-4.127303 3.041467,-7.5 7.5,-7.5 4.458533,0 7.5,3.45447 7.5,7.5 z"
     id="path2781"
     style="fill:url(#linearGradient2470);fill-rule:nonzero;stroke:url(#linearGradient2472);stroke-width:1;stroke-miterlimit:4;stroke-opacity:1" />
  <path
     d="m 24,16 c -4.416,0 -8,3.584 -8,8 0,4.416 3.584,8 8,8 4.416,0 8,-3.584 8,-8 0,-4.416 -3.584,-8 -8,-8 z m 0,4 c 2.208,0 4,1.792 4,4 0,2.208 -1.792,4 -4,4 -2.208,0 -4,-1.792 -4,-4 0,-2.208 1.792,-4 4,-4 z"
     id="path2474"
     style="opacity:0.5;fill:#ffffff;fill-opacity:1;fill-rule:nonzero;stroke:none;stroke-width:1;marker:none;visibility:visible;display:inline;overflow:visible;enable-background:accumulate" />
  <path
     d="m 24,16.5 c -4.14,0 -7.5,3.36 -7.5,7.5 0,4.14 3.36,7.5 7.5,7.5 4.14,0 7.5,-3.36 7.5,-7.5 0,-4.14 -3.36,-7.5 -7.5,-7.5 z m 0,3.75 c 2.07,0 3.75,1.68 3.75,3.75 0,2.07 -1.68,3.75 -3.75,3.75 -2.07,0 -3.75,-1.68 -3.75,-3.75 0,-2.07 1.68,-3.75 3.75,-3.75 z"
     id="path3418"
     style="fill:none;stroke:url(#linearGradient2465);stroke-width:1;stroke-linecap:butt;stroke-linejoin:round;stroke-miterlimit:4;stroke-opacity:1;stroke-dasharray:none;stroke-dashoffset:0;marker:none;visibility:visible;display:inline;overflow:visible;enable-background:accumulate" />
  <path
     d="m 24,15.499999 c -4.711429,0 -8.5,3.788571 -8.5,8.5 0,4.711429 3.788571,8.500001 8.5,8.500001 4.711431,0 8.5,-3.788572 8.5,-8.500001 0,-4.711429 -3.788569,-8.5 -8.5,-8.5 l 0,0 0,0 0,0 z"
     id="path3281"
     style="opacity:0.8;fill:none;stroke:url(#linearGradient2462);stroke-width:0.99999982;stroke-miterlimit:4;stroke-opacity:1" />
  <g
     id="g3527">
    <path
       d="M 15.856928,5.7307748 20.625,16.34375 C 21.660403,15.885186 22.795334,15.625 24,15.625 c 0.03206,0 0.06178,-3.6e-4 0.09375,0 L 24.10801,4.0047512 c -2.94215,-0.070687 -5.543041,0.6572865 -8.251083,1.7260236 l 10e-7,0 z"
       transform="matrix(0.9996011,0.02824295,-0.02824295,0.9996011,0.6924114,-0.6708346)"
       id="path3296"
       style="opacity:0.8;fill:url(#linearGradient3346);fill-opacity:1;fill-rule:nonzero;stroke:none" />
    <path
       d="m 12.121471,7.9060109 6.931026,9.3601041 c 0.913109,-0.669755 1.965938,-1.167064 3.142629,-1.425169 0.03132,-0.0069 0.06026,-0.01359 0.09157,-0.02009 L 19.857174,4.426276 c -2.888973,0.5613244 -5.31953,1.8556038 -7.735703,3.4797349 l 0,0 z"
       id="path3308"
       style="opacity:0.8;fill:url(#linearGradient3348);fill-opacity:1;fill-rule:nonzero;stroke:none" />
    <path
       d="m 8.2523933,11.646535 9.2137237,7.155818 c 0.70865,-0.883264 1.596891,-1.636119 2.666685,-2.18998 0.02847,-0.01474 0.05469,-0.02872 0.08325,-0.0431 L 14.86585,6.2506132 C 12.220599,7.5405321 10.165881,9.452393 8.2523933,11.646535 z"
       id="path3310"
       style="opacity:0.8;fill:url(#linearGradient3350);fill-opacity:1;fill-rule:nonzero;stroke:none" />
    <path
       d="m 5.6328855,16.073974 c 7.1748065,2.242248 7.8502625,7.031463 12.7767855,1.754127 L 10.499985,9.1321388 C 8.2787249,11.062747 6.9132871,13.459349 5.6328855,16.073974 z"
       id="path3312"
       style="opacity:0.8;fill:url(#linearGradient3352);fill-opacity:1;fill-rule:nonzero;stroke:none" />
    <path
       d="M 7.155289,13.193173 C 5.9722117,14.945185 5.2475768,16.829547 4.6301929,18.837116 L 15.96875,21.8125 C 16.184264,21.049497 16.486796,20.297733 16.9375,19.59375 16.95479,19.56675 16.98246,19.52673 17,19.5 L 7.155289,13.193173 z"
       id="path3314"
       style="opacity:0.8;fill:url(#linearGradient3354);fill-opacity:1;fill-rule:nonzero;stroke:none" />
  </g>
  <path
     d="m 24.000001,4.5000009 c -10.808572,0 -19.5000015,8.6914301 -19.5000015,19.5000001 0,10.808571 8.6914295,19.499998 19.5000015,19.499998 C 34.808573,43.499999 43.5,34.808572 43.5,24.000001 43.5,13.191431 34.808573,4.5000009 24.000001,4.5000009 l 0,0 0,0 z"
     id="path3272"
     style="opacity:0.4;fill:none;stroke:url(#linearGradient2453);stroke-width:0.99999994;stroke-miterlimit:4;stroke-opacity:1" />
  <path
     transform="matrix(0.88825157,0,0,0.59216783,-4.2653442,-3.077792)"
     d="m 58,69 a 20,9 0 1 1 -40,0 20,9 0 1 1 40,0 z"
     sodipodi:ry="9"
     sodipodi:rx="20"
     sodipodi:cy="69"
     sodipodi:cx="38"
     id="path6017"
     style="opacity:0.25;fill:url(#radialGradient3094);fill-opacity:1;stroke:none"
     sodipodi:type="arc" />
  <path
     inkscape:connector-curvature="0"
     id="path5371"
     d="M 38.89813,3.5563447 C 31.611609,3.6501888 30.551407,17.988235 28.461174,20.571913 l 3.553006,1.276862 C 34.351945,17.964853 46.009468,5.0537178 39.619834,3.5841026 39.371577,3.5565943 39.133179,3.5533175 38.89813,3.5563447 z m -0.91601,1.8320188 c 0.171933,-0.016645 0.326864,0.00508 0.471884,0.083274 0.580078,0.3127735 0.642788,1.327827 0.138789,2.2483868 C 38.088795,8.6405834 37.202061,9.1431114 36.621985,8.8303384 36.04191,8.5175644 35.979197,7.5025119 36.483196,6.581952 36.861195,5.891532 37.466323,5.4382978 37.98212,5.3883639 z"
     style="fill:url(#linearGradient5964);fill-opacity:1;fill-rule:evenodd;stroke:url(#linearGradient6002);stroke-width:0.8882516px;stroke-linecap:butt;stroke-linejoin:miter;stroke-opacity:1" />
  <path
     transform="matrix(0.88825157,0,0,0.88825157,6.3936732,1.3634737)"
     d="m 36.59375,3.46875 c -1.721618,0.022173 -3.007925,0.8558743 -4.1875,2.28125 -1.179575,1.4253757 -2.148334,3.4416354 -2.9375,5.59375 -0.789166,2.152115 -1.42404,4.43427 -2,6.375 -0.399891,1.347456 -0.769857,2.406448 -1.21875,3.34375 l 2.1875,0.78125 c 1.618594,-2.495624 5.038798,-6.591178 7.53125,-10.625 1.325839,-2.1457566 2.2837,-4.1780411 2.5,-5.5625 C 38.5769,4.9640206 38.513818,4.4833206 38.34375,4.1875 38.179059,3.9010309 37.880274,3.6629145 37.21875,3.5 37.019255,3.4812162 36.817917,3.4658629 36.59375,3.46875 z"
     id="path5992"
     style="opacity:0.26666667;fill:none;stroke:url(#linearGradient5994);stroke-width:1px;stroke-linecap:butt;stroke-linejoin:miter;stroke-opacity:1"
     inkscape:original="M 36.59375 2.46875 C 28.390533 2.5744003 27.19695 18.716276 24.84375 21.625 L 28.84375 23.0625 C 31.475623 18.689953 44.599746 4.1545034 37.40625 2.5 C 37.12676 2.4690309 36.85837 2.4653419 36.59375 2.46875 z "
     inkscape:radius="-1.0049498"
     sodipodi:type="inkscape:offset" />
  <path
     inkscape:connector-curvature="0"
     sodipodi:nodetypes="cccccccccccccccc"
     id="path5367"
     d="m 26.379334,16.019624 c 0.63022,1.779174 -0.480889,3.320134 -0.888251,4.441258 -4.611418,1.372947 -7.80489,8.61935 -12.55329,12.394294 0.593164,0.619465 1.289943,1.282793 1.89427,1.817731 l 3.608523,-3.136638 -2.724762,4.019026 c 1.962358,1.590844 4.001623,2.670619 5.334001,3.114744 l 2.442691,-3.24767 -1.55444,3.691796 c 1.289736,0.523075 4.428188,1.316411 6.217761,1.332377 l 1.779959,-3.022273 -0.455823,3.077789 c 0.73686,0.140663 2.165703,0.332398 3.117122,0.360852 2.986467,-4.885383 3.553006,-12.85189 1.776503,-16.404896 -0.444126,-1.776503 1.332378,-3.997132 2.664755,-4.885384 -2.220629,-1.776503 -7.288627,-3.822791 -10.659019,-3.553006 z"
     style="fill:url(#linearGradient5972);fill-opacity:1;fill-rule:evenodd;stroke:url(#linearGradient5993);stroke-width:0.88825154;stroke-linecap:butt;stroke-linejoin:miter;stroke-miterlimit:20;stroke-opacity:1;stroke-dasharray:none" />
  <path
     inkscape:connector-curvature="0"
     sodipodi:nodetypes="cccc"
     id="path5975"
     d="m 16.164441,35.561159 c 4.278259,-4.450936 3.966064,-6.398899 8.985657,-10.239523 -2.649159,4.288862 -3.078537,6.519818 -6.320902,12.016026 l -2.664755,-1.776503 z"
     style="opacity:0.26666667;fill:#c4a000;fill-rule:evenodd;stroke:none" />
  <path
     inkscape:connector-curvature="0"
     sodipodi:nodetypes="ccccc"
     id="path5979"
     d="m 22.515269,38.849868 3.860366,-8.740526 c 1.478506,-2.650301 2.540108,-5.302909 4.022867,-7.41455 -1.422938,4.81258 -4.344163,10.767202 -6.689645,16.543686 l -1.193588,-0.38861 z"
     style="opacity:0.41568627;fill:#c4a000;fill-rule:evenodd;stroke:none" />
  <path
     inkscape:connector-curvature="0"
     sodipodi:nodetypes="csccccccccccccsssscsc"
     id="path6014"
     d="m 27.378617,16.907876 c 0.08593,1.701131 -0.819805,3.135212 -1.082556,3.858343 -0.09247,0.252893 -0.297858,0.448011 -0.555158,0.527399 -4.843989,1.984926 -6.777184,7.615903 -11.542509,11.623808 0.17911,0.177521 0.437048,0.370671 0.616918,0.540262 l 8.011016,-6.779045 -5.841689,8.714026 c 1.128109,0.912779 2.417999,1.673949 3.754334,2.211005 l 6.212745,-8.260276 -3.79718,9.248131 c 1.417266,0.466915 2.752072,0.734847 4.392412,0.966762 l 4.102594,-6.828434 -1.217562,7.023243 1.665472,0.20074 c 1.273053,-2.252157 1.894091,-5.033304 2.248386,-7.806898 0.37657,-2.94797 -0.0044,-5.810212 -0.749462,-7.300318 -0.02413,-0.05348 -0.04273,-0.109286 -0.05552,-0.166547 -0.308097,-1.232388 0.150241,-2.438807 0.777221,-3.441975 0.379188,-0.606701 0.826404,-1.146536 1.301252,-1.600431 C 34.57876,18.942444 33.321693,18.340765 31.736597,17.768369 30.17143,17.20317 28.629495,16.924508 27.378613,16.907876 z"
     style="opacity:0.47843137;fill:none;stroke:url(#linearGradient5973);stroke-width:0.88825154px;stroke-linecap:butt;stroke-linejoin:miter;stroke-opacity:1" />
  <path
     inkscape:connector-curvature="0"
     sodipodi:nodetypes="ccccccc"
     id="path5977"
     d="m 25.019199,39.558291 c 1.934226,-5.109109 5.681182,-8.943755 7.121035,-14.154655 0.04578,3.252842 0.221815,9.063476 -1.680494,14.848601 -0.284033,0.0016 -0.154491,-0.09843 -0.417372,-0.105304 l 0.711305,-5.084812 -2.914785,4.933691 c -1.945989,-0.138855 -1.149941,0.02896 -2.819689,-0.437521 z"
     style="opacity:0.24705882;fill:url(#linearGradient6005);fill-opacity:1;fill-rule:evenodd;stroke:none" />
  <path
     inkscape:connector-curvature="0"
     sodipodi:nodetypes="cccc"
     id="path5995"
     d="m 26.826184,21.447238 c -1.112086,0.5475 -1.83176,1.356607 -2.649748,2.100172 1.089429,-0.629454 2.113138,-1.287071 3.552627,-1.7665 l -0.902879,-0.333672 z"
     style="opacity:0.48235294;fill:#c4a000;fill-rule:evenodd;stroke:none" />
  <path
     inkscape:connector-curvature="0"
     sodipodi:nodetypes="cccc"
     id="path5997"
     d="m 28.607689,21.847486 -0.902877,1.7665 2.647623,-1.410766 -1.744746,-0.355734 z"
     style="opacity:0.48235294;fill:#c4a000;fill-rule:evenodd;stroke:none" />
  <path
     inkscape:connector-curvature="0"
     sodipodi:nodetypes="cccc"
     id="path6007"
     d="m 28.546495,17.317714 -0.795157,1.516265 1.39076,0.445977 -0.595603,-1.962242 z"
     style="opacity:0.48235294;fill:#c4a000;fill-rule:evenodd;stroke:none" />
  <path
     inkscape:connector-curvature="0"
     sodipodi:nodetypes="cccc"
     id="path6009"
     d="m 34.749554,19.026684 -2.185319,1.630339 1.39076,0.445977 0.794559,-2.076316 z"
     style="opacity:0.48235294;fill:#c4a000;fill-rule:evenodd;stroke:none" />
  <path
     inkscape:connector-curvature="0"
     sodipodi:nodetypes="cccc"
     id="path6011"
     d="m 31.276198,17.297433 -1.344733,2.242492 1.390759,0.445977 -0.04603,-2.688469 z"
     style="opacity:0.48235294;fill:#c4a000;fill-rule:evenodd;stroke:none" />
  <path
     inkscape:connector-curvature="0"
     sodipodi:nodetypes="cccc"
     id="path6013"
     d="m 25.018289,20.926947 c -0.503443,-2.634096 8.289906,1.912319 9.803475,2.659753 -0.0058,0.958484 0,1.776503 -0.867661,1.776503 -2.28062,-1.237317 -5.804951,-3.202274 -8.935814,-4.436256 z"
     style="opacity:0.2;fill:#000000;fill-opacity:1;fill-rule:evenodd;stroke:none" />
  <path
     inkscape:connector-curvature="0"
     sodipodi:nodetypes="ccccc"
     id="path5373"
     d="m 24.736187,20.460882 c -0.433831,-0.888252 0,-1.776503 0.867662,-1.776503 3.545403,0.866416 6.506331,1.959689 9.544274,3.553006 0.43383,0.888252 0,1.776503 -0.867661,1.776503 -3.139031,-1.656074 -6.099367,-2.731207 -9.544275,-3.553006 z"
     style="fill:url(#linearGradient5980-761);fill-opacity:1;fill-rule:evenodd;stroke:#464646;stroke-width:0.8882516px;stroke-linecap:butt;stroke-linejoin:round;stroke-opacity:1" />
</svg>
