<?xml version="1.0" encoding="UTF-8" standalone="no"?>
<!-- Created with Inkscape (http://www.inkscape.org/) -->

<svg
   xmlns:dc="http://purl.org/dc/elements/1.1/"
   xmlns:cc="http://creativecommons.org/ns#"
   xmlns:rdf="http://www.w3.org/1999/02/22-rdf-syntax-ns#"
   xmlns:svg="http://www.w3.org/2000/svg"
   xmlns="http://www.w3.org/2000/svg"
   xmlns:xlink="http://www.w3.org/1999/xlink"
   xmlns:sodipodi="http://sodipodi.sourceforge.net/DTD/sodipodi-0.dtd"
   xmlns:inkscape="http://www.inkscape.org/namespaces/inkscape"
   version="1.0"
   width="48"
   height="48"
   id="svg3367"
   inkscape:version="0.48.3.1 r9886"
   sodipodi:docname="audio-cd-duplicate.svg">
  <metadata
     id="metadata120">
    <rdf:RDF>
      <cc:Work
         rdf:about="">
        <dc:format>image/svg+xml</dc:format>
        <dc:type
           rdf:resource="http://purl.org/dc/dcmitype/StillImage" />
        <dc:title></dc:title>
      </cc:Work>
    </rdf:RDF>
  </metadata>
  <sodipodi:namedview
     pagecolor="#ffffff"
     bordercolor="#666666"
     borderopacity="1"
     objecttolerance="10"
     gridtolerance="10"
     guidetolerance="10"
     inkscape:pageopacity="0"
     inkscape:pageshadow="2"
     inkscape:window-width="640"
     inkscape:window-height="480"
     id="namedview118"
     showgrid="false"
     inkscape:zoom="6.0208333"
     inkscape:cx="24"
     inkscape:cy="24"
     inkscape:window-x="407"
     inkscape:window-y="42"
     inkscape:window-maximized="0"
     inkscape:current-layer="svg3367" />
  <defs
     id="defs3369">
    <linearGradient
       id="linearGradient23419">
      <stop
         id="stop23421"
         style="stop-color:#000000;stop-opacity:1"
         offset="0" />
      <stop
         id="stop23423"
         style="stop-color:#000000;stop-opacity:0"
         offset="1" />
    </linearGradient>
    <linearGradient
       id="linearGradient3772">
      <stop
         id="stop3774"
         style="stop-color:#b4b4b4;stop-opacity:1"
         offset="0" />
      <stop
         id="stop3776"
         style="stop-color:#969696;stop-opacity:1"
         offset="1" />
    </linearGradient>
    <linearGradient
       x1="12.2744"
       y1="32.4165"
       x2="35.391201"
       y2="14.2033"
       id="linearGradient3263"
       gradientUnits="userSpaceOnUse">
      <stop
         id="stop3265"
         style="stop-color:#dedbde;stop-opacity:1"
         offset="0" />
      <stop
         id="stop3267"
         style="stop-color:#e6e6e6;stop-opacity:1"
         offset="0.5" />
      <stop
         id="stop3269"
         style="stop-color:#d2d2d2;stop-opacity:1"
         offset="1" />
    </linearGradient>
    <linearGradient
       id="linearGradient3428">
      <stop
         id="stop3430"
         style="stop-color:#aaaaaa;stop-opacity:1"
         offset="0" />
      <stop
         id="stop3432"
         style="stop-color:#d4d4d4;stop-opacity:1"
         offset="1" />
    </linearGradient>
    <linearGradient
       x1="10.609375"
       y1="17.886322"
       x2="9.7297754"
       y2="20.612656"
       id="linearGradient3354"
       xlink:href="#linearGradient3519"
       gradientUnits="userSpaceOnUse"
       spreadMethod="reflect" />
    <linearGradient
       x1="12.371647"
       y1="16.188046"
       x2="14.609327"
       y2="13.461712"
       id="linearGradient3352"
       xlink:href="#linearGradient3511"
       gradientUnits="userSpaceOnUse"
       spreadMethod="reflect" />
    <linearGradient
       x1="14.084608"
       y1="13.045606"
       x2="16.994024"
       y2="10.732353"
       id="linearGradient3350"
       xlink:href="#linearGradient3503"
       gradientUnits="userSpaceOnUse"
       spreadMethod="reflect" />
    <linearGradient
       x1="17.494959"
       y1="11.200086"
       x2="21.047453"
       y2="9.7956104"
       id="linearGradient3348"
       xlink:href="#linearGradient3495"
       gradientUnits="userSpaceOnUse"
       spreadMethod="reflect" />
    <linearGradient
       x1="20.580074"
       y1="10.774516"
       x2="24.27351"
       y2="9.8622112"
       id="linearGradient3346"
       xlink:href="#linearGradient3487"
       gradientUnits="userSpaceOnUse"
       spreadMethod="reflect" />
    <linearGradient
       id="linearGradient6036">
      <stop
         id="stop6038"
         style="stop-color:#ffffff;stop-opacity:1"
         offset="0" />
      <stop
         id="stop6040"
         style="stop-color:#ffffff;stop-opacity:0"
         offset="1" />
    </linearGradient>
    <linearGradient
       id="linearGradient3519">
      <stop
         id="stop3521"
         style="stop-color:#fcd9cd;stop-opacity:1"
         offset="0" />
      <stop
         id="stop3523"
         style="stop-color:#fcd9cd;stop-opacity:0"
         offset="1" />
    </linearGradient>
    <linearGradient
       x1="10.609375"
       y1="17.886322"
       x2="9.7297754"
       y2="20.612656"
       id="linearGradient3319"
       xlink:href="#linearGradient3519"
       gradientUnits="userSpaceOnUse"
       spreadMethod="reflect" />
    <linearGradient
       id="linearGradient3511">
      <stop
         id="stop3513"
         style="stop-color:#ebeec7;stop-opacity:1"
         offset="0" />
      <stop
         id="stop3515"
         style="stop-color:#ebeec7;stop-opacity:0"
         offset="1" />
    </linearGradient>
    <linearGradient
       x1="12.371647"
       y1="16.188046"
       x2="14.609327"
       y2="13.461712"
       id="linearGradient3317"
       xlink:href="#linearGradient3511"
       gradientUnits="userSpaceOnUse"
       spreadMethod="reflect" />
    <linearGradient
       id="linearGradient3503">
      <stop
         id="stop3505"
         style="stop-color:#c4ebdd;stop-opacity:1"
         offset="0" />
      <stop
         id="stop3507"
         style="stop-color:#c4ebdd;stop-opacity:0"
         offset="1" />
    </linearGradient>
    <linearGradient
       x1="14.084608"
       y1="13.045606"
       x2="16.994024"
       y2="10.732353"
       id="linearGradient3315"
       xlink:href="#linearGradient3503"
       gradientUnits="userSpaceOnUse"
       spreadMethod="reflect" />
    <linearGradient
       id="linearGradient3495">
      <stop
         id="stop3497"
         style="stop-color:#c1cbe4;stop-opacity:1"
         offset="0" />
      <stop
         id="stop3499"
         style="stop-color:#c1cbe4;stop-opacity:0"
         offset="1" />
    </linearGradient>
    <linearGradient
       x1="17.494959"
       y1="11.200086"
       x2="21.047453"
       y2="9.7956104"
       id="linearGradient3313"
       xlink:href="#linearGradient3495"
       gradientUnits="userSpaceOnUse"
       spreadMethod="reflect" />
    <linearGradient
       id="linearGradient3487">
      <stop
         id="stop3489"
         style="stop-color:#e6cde2;stop-opacity:1"
         offset="0" />
      <stop
         id="stop3491"
         style="stop-color:#e6cde2;stop-opacity:0"
         offset="1" />
    </linearGradient>
    <linearGradient
       x1="20.580074"
       y1="10.774516"
       x2="24.27351"
       y2="9.8622112"
       id="linearGradient3311"
       xlink:href="#linearGradient3487"
       gradientUnits="userSpaceOnUse"
       spreadMethod="reflect" />
    <linearGradient
       x1="10.50172"
       y1="3.6100161"
       x2="48.798885"
       y2="54.698483"
       id="linearGradient2453"
       xlink:href="#linearGradient6036"
       gradientUnits="userSpaceOnUse"
       gradientTransform="matrix(0.9849664,0,0,0.9849663,0.01902206,-0.6241532)" />
    <linearGradient
       x1="18.775953"
       y1="4.0378027"
       x2="18.203465"
       y2="45.962208"
       id="linearGradient2462"
       xlink:href="#linearGradient6036"
       gradientUnits="userSpaceOnUse"
       gradientTransform="matrix(0.4293444,0,0,0.4293442,13.546752,13.266392)" />
    <linearGradient
       x1="21.448364"
       y1="15.5"
       x2="21.448364"
       y2="32.509201"
       id="linearGradient2465"
       xlink:href="#linearGradient3428"
       gradientUnits="userSpaceOnUse"
       gradientTransform="matrix(0.9375,0,0,0.9375,1.5,1.5)" />
    <linearGradient
       x1="12.2744"
       y1="32.4165"
       x2="35.391201"
       y2="14.2033"
       id="linearGradient2470"
       xlink:href="#linearGradient3263"
       gradientUnits="userSpaceOnUse"
       gradientTransform="matrix(0,1.1714389,-1.1714389,0,51.060244,-4.11454)" />
    <linearGradient
       x1="-21.915663"
       y1="3"
       x2="-21.915663"
       y2="45.032898"
       id="linearGradient2472"
       xlink:href="#linearGradient3772"
       gradientUnits="userSpaceOnUse"
       gradientTransform="translate(50.26506,0)" />
    <radialGradient
       cx="23.334524"
       cy="41.63604"
       r="22.627417"
       fx="23.334524"
       fy="41.63604"
       id="radialGradient2475"
       xlink:href="#linearGradient23419"
       gradientUnits="userSpaceOnUse"
       gradientTransform="matrix(0.9722718,0,0,0.2872354,1.3124992,27.540524)" />
    <linearGradient
       x1="32.892288"
       y1="8.0590115"
       x2="36.358372"
       y2="5.4565363"
       id="linearGradient3598"
       xlink:href="#linearGradient8589"
       gradientUnits="userSpaceOnUse"
       gradientTransform="matrix(0.6371285,0,0,0.6445638,18.829693,18.744517)" />
    <linearGradient
       id="linearGradient8589">
      <stop
         id="stop8591"
         style="stop-color:#fefefe;stop-opacity:1"
         offset="0" />
      <stop
         id="stop8593"
         style="stop-color:#cbcbcb;stop-opacity:1"
         offset="1" />
    </linearGradient>
    <filter
       x="-0.14846256"
       y="-0.16434373"
       width="1.2969251"
       height="1.3286875"
       color-interpolation-filters="sRGB"
       id="filter3212">
      <feGaussianBlur
         stdDeviation="0.77391625"
         id="feGaussianBlur3214" />
    </filter>
    <linearGradient
       x1="24"
       y1="1.9999999"
       x2="24"
       y2="46.01725"
       id="linearGradient3602"
       xlink:href="#linearGradient3211"
       gradientUnits="userSpaceOnUse"
       gradientTransform="matrix(0.6363646,0,0,0.6279076,18.727264,16.930216)" />
    <linearGradient
       id="linearGradient3211">
      <stop
         id="stop3213"
         style="stop-color:#ffffff;stop-opacity:1"
         offset="0" />
      <stop
         id="stop3215"
         style="stop-color:#ffffff;stop-opacity:0"
         offset="1" />
    </linearGradient>
    <radialGradient
       cx="102"
       cy="112.3047"
       r="139.55859"
       id="radialGradient3605"
       xlink:href="#XMLID_8_"
       gradientUnits="userSpaceOnUse"
       gradientTransform="matrix(0.2340426,0,0,-0.2542968,19.02129,50.288672)" />
    <radialGradient
       cx="102"
       cy="112.3047"
       r="139.55859"
       id="XMLID_8_"
       gradientUnits="userSpaceOnUse">
      <stop
         id="stop41"
         style="stop-color:#b7b8b9;stop-opacity:1"
         offset="0" />
      <stop
         id="stop47"
         style="stop-color:#ececec;stop-opacity:1"
         offset="0.18851049" />
      <stop
         id="stop49"
         style="stop-color:#fafafa;stop-opacity:0"
         offset="0.25718147" />
      <stop
         id="stop51"
         style="stop-color:#ffffff;stop-opacity:0"
         offset="0.30111277" />
      <stop
         id="stop53"
         style="stop-color:#fafafa;stop-opacity:0"
         offset="0.53130001" />
      <stop
         id="stop55"
         style="stop-color:#ebecec;stop-opacity:0"
         offset="0.84490001" />
      <stop
         id="stop57"
         style="stop-color:#e1e2e3;stop-opacity:0"
         offset="1" />
    </radialGradient>
    <linearGradient
       x1="25.132275"
       y1="0.98520643"
       x2="25.132275"
       y2="47.013336"
       id="linearGradient3608"
       xlink:href="#linearGradient3600"
       gradientUnits="userSpaceOnUse"
       gradientTransform="matrix(0.6571436,0,0,0.6301241,18.228566,15.910352)" />
    <linearGradient
       id="linearGradient3600">
      <stop
         id="stop3602"
         style="stop-color:#f4f4f4;stop-opacity:1"
         offset="0" />
      <stop
         id="stop3604"
         style="stop-color:#dbdbdb;stop-opacity:1"
         offset="1" />
    </linearGradient>
    <linearGradient
       x1="-51.786404"
       y1="50.786446"
       x2="-51.786404"
       y2="2.9062471"
       id="linearGradient3610"
       xlink:href="#linearGradient3104"
       gradientUnits="userSpaceOnUse"
       gradientTransform="matrix(0.5306412,0,0,0.5897023,57.269618,15.208092)" />
    <linearGradient
       id="linearGradient3104">
      <stop
         id="stop3106"
         style="stop-color:#9a9a9a;stop-opacity:1"
         offset="0" />
      <stop
         id="stop3108"
         style="stop-color:#afafaf;stop-opacity:1"
         offset="1" />
    </linearGradient>
    <radialGradient
       cx="605.71429"
       cy="486.64789"
       r="117.14286"
       fx="605.71429"
       fy="486.64789"
       id="radialGradient3613"
       xlink:href="#linearGradient5060"
       gradientUnits="userSpaceOnUse"
       gradientTransform="matrix(0.01566318,0,0,0.00823529,35.610446,42.980566)" />
    <linearGradient
       id="linearGradient5060">
      <stop
         id="stop5062"
         style="stop-color:#000000;stop-opacity:1"
         offset="0" />
      <stop
         id="stop5064"
         style="stop-color:#000000;stop-opacity:0"
         offset="1" />
    </linearGradient>
    <radialGradient
       cx="605.71429"
       cy="486.64789"
       r="117.14286"
       fx="605.71429"
       fy="486.64789"
       id="radialGradient3616"
       xlink:href="#linearGradient5060"
       gradientUnits="userSpaceOnUse"
       gradientTransform="matrix(-0.01566318,0,0,0.00823529,33.389579,42.980566)" />
    <linearGradient
       x1="3.7797408"
       y1="106.37297"
       x2="3.7797408"
       y2="99.720741"
       id="linearGradient3619"
       xlink:href="#linearGradient5048"
       gradientUnits="userSpaceOnUse"
       gradientTransform="matrix(3.1586968,0,0,0.3008283,19.296394,16)" />
    <linearGradient
       id="linearGradient5048">
      <stop
         id="stop5050"
         style="stop-color:#000000;stop-opacity:0"
         offset="0" />
      <stop
         id="stop5056"
         style="stop-color:#000000;stop-opacity:1"
         offset="0.5" />
      <stop
         id="stop5052"
         style="stop-color:#000000;stop-opacity:0"
         offset="1" />
    </linearGradient>
    <linearGradient
       id="linearGradient5060-179">
      <stop
         id="stop2675"
         style="stop-color:#000000;stop-opacity:1"
         offset="0" />
      <stop
         id="stop2677"
         style="stop-color:#000000;stop-opacity:0"
         offset="1" />
    </linearGradient>
    <radialGradient
       cx="605.71429"
       cy="486.64789"
       r="117.14286"
       fx="605.71429"
       fy="486.64789"
       id="radialGradient3717"
       xlink:href="#linearGradient5060-179"
       gradientUnits="userSpaceOnUse"
       gradientTransform="matrix(0.03079083,0,0,0.02470588,24.610252,31.941642)" />
    <radialGradient
       gradientTransform="matrix(-1.4061954,0,0,0.3867044,27.819698,13.522738)"
       gradientUnits="userSpaceOnUse"
       xlink:href="#linearGradient5105-262-943-861"
       id="radialGradient3932"
       fy="19.03125"
       fx="11.25"
       r="8.0625"
       cy="19.03125"
       cx="11.25" />
    <linearGradient
       id="linearGradient5105-262-943-861">
      <stop
         offset="0"
         style="stop-color:#0d0d0d;stop-opacity:1"
         id="stop2487" />
      <stop
         offset="1"
         style="stop-color:#0d0d0d;stop-opacity:0"
         id="stop2489" />
    </linearGradient>
    <linearGradient
       gradientTransform="matrix(-0.5165267,0,0,0.5333212,23.457373,-0.7415553)"
       gradientUnits="userSpaceOnUse"
       xlink:href="#linearGradient7012-661-145-733-759-865-745-661-970-94"
       id="linearGradient3927"
       y2="44.051018"
       x2="22.181572"
       y1="14.499924"
       x1="22.181572" />
    <linearGradient
       id="linearGradient7012-661-145-733-759-865-745-661-970-94">
      <stop
         offset="0"
         style="stop-color:#f0c178;stop-opacity:1"
         id="stop3618" />
      <stop
         offset="0.5"
         style="stop-color:#e18941;stop-opacity:1"
         id="stop3270" />
      <stop
         offset="1"
         style="stop-color:#ec4f18;stop-opacity:1"
         id="stop3620" />
    </linearGradient>
    <linearGradient
       gradientTransform="matrix(-1,0,0,1,24,0)"
       gradientUnits="userSpaceOnUse"
       xlink:href="#linearGradient3390-178-986-453"
       id="linearGradient3929"
       y2="0.98732251"
       x2="17.481928"
       y1="23"
       x1="17.481928" />
    <linearGradient
       id="linearGradient3390-178-986-453">
      <stop
         offset="0"
         style="stop-color:#bb2b12;stop-opacity:1"
         id="stop3624" />
      <stop
         offset="1"
         style="stop-color:#cd7233;stop-opacity:1"
         id="stop3626" />
    </linearGradient>
    <linearGradient
       gradientTransform="matrix(0.599071,0,0,0.6156931,-3.232032,-3.9814102)"
       gradientUnits="userSpaceOnUse"
       xlink:href="#linearGradient4222"
       id="linearGradient3924"
       y2="40.445961"
       x2="29.367338"
       y1="11.491515"
       x1="29.367338" />
    <linearGradient
       id="linearGradient4222">
      <stop
         offset="0"
         style="stop-color:#ffffff;stop-opacity:1"
         id="stop4224" />
      <stop
         offset="1"
         style="stop-color:#ffffff;stop-opacity:0"
         id="stop4226" />
    </linearGradient>
    <linearGradient
       y2="40.445961"
       x2="29.367338"
       y1="11.491515"
       x1="29.367338"
       gradientTransform="matrix(0.599071,0,0,0.6156931,-3.232032,-3.9814102)"
       gradientUnits="userSpaceOnUse"
       id="linearGradient3524"
       xlink:href="#linearGradient4222"
       inkscape:collect="always" />
    <radialGradient
       r="15.644737"
       fy="36.421127"
       fx="24.837126"
       cy="36.421127"
       cx="24.837126"
       gradientTransform="matrix(1,0,0,0.536723,0,16.87306)"
       gradientUnits="userSpaceOnUse"
       id="radialGradient3067"
       xlink:href="#linearGradient8662-4"
       inkscape:collect="always" />
    <linearGradient
       id="linearGradient8662-4"
       inkscape:collect="always">
      <stop
         id="stop8664-6"
         offset="0"
         style="stop-color:#000000;stop-opacity:1;" />
      <stop
         id="stop8666-1"
         offset="1"
         style="stop-color:#000000;stop-opacity:0;" />
    </linearGradient>
    <linearGradient
       id="linearGradient3671-580-6-3">
      <stop
         offset="0"
         style="stop-color:#fc93dc;stop-opacity:1"
         id="stop4088-6-9" />
      <stop
         offset="0.26238"
         style="stop-color:#da72d3;stop-opacity:1"
         id="stop4090-4-3" />
      <stop
         offset="0.704952"
         style="stop-color:#a33fab;stop-opacity:1"
         id="stop4092-6-9" />
      <stop
         offset="1"
         style="stop-color:#502b58;stop-opacity:1"
         id="stop4094-2-3" />
    </linearGradient>
    <linearGradient
       id="linearGradient3707-662-8-1">
      <stop
         offset="0"
         style="stop-color:#542f57;stop-opacity:1"
         id="stop4098-9-5" />
      <stop
         offset="1"
         style="stop-color:#bb5ca4;stop-opacity:1"
         id="stop4100-6-7" />
    </linearGradient>
    <linearGradient
       id="linearGradient4087-6">
      <stop
         offset="0"
         style="stop-color:#ffffff;stop-opacity:1;"
         id="stop4089-4" />
      <stop
         id="stop4091-6"
         style="stop-color:#ffffff;stop-opacity:0.23529412;"
         offset="0.51153916" />
      <stop
         offset="0.58522105"
         style="stop-color:#ffffff;stop-opacity:0.15686275;"
         id="stop4093-5" />
      <stop
         offset="1"
         style="stop-color:#ffffff;stop-opacity:0.39215687;"
         id="stop4095-9" />
    </linearGradient>
    <linearGradient
       inkscape:collect="always"
       xlink:href="#linearGradient3155"
       id="linearGradient3265"
       gradientUnits="userSpaceOnUse"
       gradientTransform="matrix(0.88187621,-0.8858407,0.90495961,0.90005189,-14.197941,10.795961)"
       spreadMethod="pad"
       x1="23.575972"
       y1="25.356892"
       x2="23.575972"
       y2="31.210939" />
    <linearGradient
       id="linearGradient3155">
      <stop
         style="stop-color:#000000;stop-opacity:1;"
         offset="0"
         id="stop3157" />
      <stop
         id="stop3171"
         offset="0.13482948"
         style="stop-color:#c3c3c3;stop-opacity:1;" />
      <stop
         style="stop-color:#8c8c8c;stop-opacity:1;"
         offset="0.20224422"
         id="stop3173" />
      <stop
         id="stop3163"
         offset="0.26965895"
         style="stop-color:#ffffff;stop-opacity:1;" />
      <stop
         style="stop-color:#757575;stop-opacity:1;"
         offset="0.44650277"
         id="stop3165" />
      <stop
         id="stop3167"
         offset="0.57114136"
         style="stop-color:#7d7d7d;stop-opacity:1;" />
      <stop
         style="stop-color:#b6b6b6;stop-opacity:1;"
         offset="0.72038066"
         id="stop3169" />
      <stop
         style="stop-color:#000000;stop-opacity:1;"
         offset="1"
         id="stop3159" />
    </linearGradient>
    <linearGradient
       inkscape:collect="always"
       xlink:href="#linearGradient3240"
       id="linearGradient3260"
       gradientUnits="userSpaceOnUse"
       gradientTransform="matrix(0.85694682,-0.86079921,1.0590904,1.0533468,-17.107729,6.5835376)"
       x1="30.037716"
       y1="24.989594"
       x2="30.037716"
       y2="30.000141" />
    <linearGradient
       id="linearGradient3240">
      <stop
         id="stop3242"
         offset="0"
         style="stop-color:#3e3e3e;stop-opacity:1;" />
      <stop
         style="stop-color:#828282;stop-opacity:1;"
         offset="0.5"
         id="stop3244" />
      <stop
         id="stop3246"
         offset="1"
         style="stop-color:#3c3c3c;stop-opacity:1;" />
    </linearGradient>
    <linearGradient
       inkscape:collect="always"
       xlink:href="#linearGradient3223"
       id="linearGradient3257"
       gradientUnits="userSpaceOnUse"
       gradientTransform="matrix(0.85694682,-0.86079921,1.0590904,1.0533468,-17.353147,6.8300596)"
       x1="30.037716"
       y1="24.989594"
       x2="30.037716"
       y2="30.000141" />
    <linearGradient
       id="linearGradient3223">
      <stop
         style="stop-color:#999999;stop-opacity:1;"
         offset="0"
         id="stop3225" />
      <stop
         id="stop3231"
         offset="0.5"
         style="stop-color:#ffffff;stop-opacity:1;" />
      <stop
         style="stop-color:#777777;stop-opacity:1;"
         offset="1"
         id="stop3227" />
    </linearGradient>
    <linearGradient
       inkscape:collect="always"
       xlink:href="#linearGradient3240"
       id="linearGradient3254"
       gradientUnits="userSpaceOnUse"
       gradientTransform="matrix(0.85694682,-0.86079921,1.0590904,1.0533468,-16.254905,5.7268786)"
       x1="30.037716"
       y1="24.989594"
       x2="30.037716"
       y2="30.000141" />
    <linearGradient
       id="linearGradient3057">
      <stop
         id="stop3059"
         offset="0"
         style="stop-color:#3e3e3e;stop-opacity:1;" />
      <stop
         style="stop-color:#828282;stop-opacity:1;"
         offset="0.5"
         id="stop3061" />
      <stop
         id="stop3063"
         offset="1"
         style="stop-color:#3c3c3c;stop-opacity:1;" />
    </linearGradient>
    <linearGradient
       inkscape:collect="always"
       xlink:href="#linearGradient3223"
       id="linearGradient3251"
       gradientUnits="userSpaceOnUse"
       gradientTransform="matrix(0.85694682,-0.86079921,1.0590904,1.0533468,-16.500323,5.9733996)"
       x1="30.037716"
       y1="24.989594"
       x2="30.037716"
       y2="30.000141" />
    <linearGradient
       id="linearGradient3066">
      <stop
         style="stop-color:#999999;stop-opacity:1;"
         offset="0"
         id="stop3068" />
      <stop
         id="stop3070"
         offset="0.5"
         style="stop-color:#ffffff;stop-opacity:1;" />
      <stop
         style="stop-color:#777777;stop-opacity:1;"
         offset="1"
         id="stop3072" />
    </linearGradient>
    <linearGradient
       inkscape:collect="always"
       xlink:href="#linearGradient3240"
       id="linearGradient3248"
       gradientUnits="userSpaceOnUse"
       gradientTransform="matrix(0.85694682,-0.86079921,1.0590904,1.0533468,-15.397957,4.8660796)"
       x1="30.037716"
       y1="24.989594"
       x2="30.037716"
       y2="30.000141" />
    <linearGradient
       id="linearGradient3075">
      <stop
         id="stop3077"
         offset="0"
         style="stop-color:#3e3e3e;stop-opacity:1;" />
      <stop
         style="stop-color:#828282;stop-opacity:1;"
         offset="0.5"
         id="stop3079" />
      <stop
         id="stop3081"
         offset="1"
         style="stop-color:#3c3c3c;stop-opacity:1;" />
    </linearGradient>
    <linearGradient
       inkscape:collect="always"
       xlink:href="#linearGradient3223"
       id="linearGradient3245"
       gradientUnits="userSpaceOnUse"
       gradientTransform="matrix(0.85694682,-0.86079921,1.0590904,1.0533468,-15.643376,5.1126006)"
       x1="30.037716"
       y1="24.989594"
       x2="30.037716"
       y2="30.000141" />
    <linearGradient
       id="linearGradient3084">
      <stop
         style="stop-color:#999999;stop-opacity:1;"
         offset="0"
         id="stop3086" />
      <stop
         id="stop3088"
         offset="0.5"
         style="stop-color:#ffffff;stop-opacity:1;" />
      <stop
         style="stop-color:#777777;stop-opacity:1;"
         offset="1"
         id="stop3090" />
    </linearGradient>
    <linearGradient
       inkscape:collect="always"
       xlink:href="#linearGradient3290"
       id="linearGradient3268"
       gradientUnits="userSpaceOnUse"
       gradientTransform="matrix(0.85694681,-0.86079924,1.0590904,1.0533468,-17.433207,6.9104786)"
       x1="9"
       y1="29.056757"
       x2="9"
       y2="26.02973" />
    <linearGradient
       id="linearGradient3290">
      <stop
         style="stop-color:#e4db7b;stop-opacity:1;"
         offset="0"
         id="stop3292" />
      <stop
         style="stop-color:#f4f0c8;stop-opacity:1;"
         offset="1"
         id="stop3294" />
    </linearGradient>
    <linearGradient
       inkscape:collect="always"
       xlink:href="#linearGradient3191"
       id="linearGradient3270"
       gradientUnits="userSpaceOnUse"
       x1="5.5178981"
       y1="37.371799"
       x2="9.5220556"
       y2="41.391716"
       gradientTransform="matrix(0.72002609,0,0,0.7191379,12.644328,0.95249878)" />
    <linearGradient
       id="linearGradient3191">
      <stop
         style="stop-color:#cbbd27;stop-opacity:1;"
         offset="0"
         id="stop3193" />
      <stop
         style="stop-color:#9b901d;stop-opacity:1;"
         offset="1"
         id="stop3195" />
    </linearGradient>
  </defs>
  <path
     d="m 46,39.499867 c 0.0011,3.589753 -9.848934,6.500001 -22,6.500001 -12.151066,0 -22.001133,-2.910248 -21.9999999,-6.500001 C 1.998867,35.910116 11.848934,32.999868 24,32.999868 c 12.151066,0 22.001133,2.910248 22,6.499999 l 0,0 z"
     id="path23417"
     style="opacity:0.3;fill:url(#radialGradient2475);fill-opacity:1;fill-rule:evenodd;stroke:none;stroke-width:2;marker:none;visibility:visible;display:inline;overflow:visible" />
  <path
     d="M 44.5,24 C 44.5,12.637039 35.362959,3.5 24,3.5 12.637038,3.5 3.5000001,12.63704 3.5000001,24 3.4999981,35.36296 12.637039,44.5 24,44.5 35.362958,44.499998 44.5,35.362961 44.5,24 z m -13,0 c 0,4.12813 -3.28927,7.5 -7.5,7.5 -4.29333,0 -7.5,-3.455313 -7.5,-7.5 0,-4.127303 3.041467,-7.5 7.5,-7.5 4.458533,0 7.5,3.45447 7.5,7.5 z"
     id="path2781"
     style="fill:url(#linearGradient2470);fill-rule:nonzero;stroke:url(#linearGradient2472);stroke-width:1;stroke-miterlimit:4;stroke-opacity:1" />
  <path
     d="m 24,16 c -4.416,0 -8,3.584 -8,8 0,4.416 3.584,8 8,8 4.416,0 8,-3.584 8,-8 0,-4.416 -3.584,-8 -8,-8 z m 0,4 c 2.208,0 4,1.792 4,4 0,2.208 -1.792,4 -4,4 -2.208,0 -4,-1.792 -4,-4 0,-2.208 1.792,-4 4,-4 z"
     id="path2474"
     style="opacity:0.5;fill:#ffffff;fill-opacity:1;fill-rule:nonzero;stroke:none;stroke-width:1;marker:none;visibility:visible;display:inline;overflow:visible;enable-background:accumulate" />
  <path
     d="m 24,16.5 c -4.14,0 -7.5,3.36 -7.5,7.5 0,4.14 3.36,7.5 7.5,7.5 4.14,0 7.5,-3.36 7.5,-7.5 0,-4.14 -3.36,-7.5 -7.5,-7.5 z m 0,3.75 c 2.07,0 3.75,1.68 3.75,3.75 0,2.07 -1.68,3.75 -3.75,3.75 -2.07,0 -3.75,-1.68 -3.75,-3.75 0,-2.07 1.68,-3.75 3.75,-3.75 z"
     id="path3418"
     style="fill:none;stroke:url(#linearGradient2465);stroke-width:1;stroke-linecap:butt;stroke-linejoin:round;stroke-miterlimit:4;stroke-opacity:1;stroke-dasharray:none;stroke-dashoffset:0;marker:none;visibility:visible;display:inline;overflow:visible;enable-background:accumulate" />
  <path
     d="m 24,15.499999 c -4.711429,0 -8.5,3.788571 -8.5,8.5 0,4.711429 3.788571,8.500001 8.5,8.500001 4.711431,0 8.5,-3.788572 8.5,-8.500001 0,-4.711429 -3.788569,-8.5 -8.5,-8.5 l 0,0 0,0 0,0 z"
     id="path3281"
     style="opacity:0.8;fill:none;stroke:url(#linearGradient2462);stroke-width:0.99999982;stroke-miterlimit:4;stroke-opacity:1" />
  <g
     id="g3527">
    <path
       d="M 15.856928,5.7307748 20.625,16.34375 C 21.660403,15.885186 22.795334,15.625 24,15.625 c 0.03206,0 0.06178,-3.6e-4 0.09375,0 L 24.10801,4.0047512 c -2.94215,-0.070687 -5.543041,0.6572865 -8.251083,1.7260236 l 10e-7,0 z"
       transform="matrix(0.9996011,0.02824295,-0.02824295,0.9996011,0.6924114,-0.6708346)"
       id="path3296"
       style="opacity:0.8;fill:url(#linearGradient3346);fill-opacity:1;fill-rule:nonzero;stroke:none" />
    <path
       d="m 12.121471,7.9060109 6.931026,9.3601041 c 0.913109,-0.669755 1.965938,-1.167064 3.142629,-1.425169 0.03132,-0.0069 0.06026,-0.01359 0.09157,-0.02009 L 19.857174,4.426276 c -2.888973,0.5613244 -5.31953,1.8556038 -7.735703,3.4797349 l 0,0 z"
       id="path3308"
       style="opacity:0.8;fill:url(#linearGradient3348);fill-opacity:1;fill-rule:nonzero;stroke:none" />
    <path
       d="m 8.2523933,11.646535 9.2137237,7.155818 c 0.70865,-0.883264 1.596891,-1.636119 2.666685,-2.18998 0.02847,-0.01474 0.05469,-0.02872 0.08325,-0.0431 L 14.86585,6.2506132 C 12.220599,7.5405321 10.165881,9.452393 8.2523933,11.646535 z"
       id="path3310"
       style="opacity:0.8;fill:url(#linearGradient3350);fill-opacity:1;fill-rule:nonzero;stroke:none" />
    <path
       d="m 5.6328855,16.073974 c 7.1748065,2.242248 7.8502625,7.031463 12.7767855,1.754127 L 10.499985,9.1321388 C 8.2787249,11.062747 6.9132871,13.459349 5.6328855,16.073974 z"
       id="path3312"
       style="opacity:0.8;fill:url(#linearGradient3352);fill-opacity:1;fill-rule:nonzero;stroke:none" />
    <path
       d="M 7.155289,13.193173 C 5.9722117,14.945185 5.2475768,16.829547 4.6301929,18.837116 L 15.96875,21.8125 C 16.184264,21.049497 16.486796,20.297733 16.9375,19.59375 16.95479,19.56675 16.98246,19.52673 17,19.5 L 7.155289,13.193173 z"
       id="path3314"
       style="opacity:0.8;fill:url(#linearGradient3354);fill-opacity:1;fill-rule:nonzero;stroke:none" />
  </g>
  <path
     d="m 24.000001,4.5000009 c -10.808572,0 -19.5000015,8.6914301 -19.5000015,19.5000001 0,10.808571 8.6914295,19.499998 19.5000015,19.499998 C 34.808573,43.499999 43.5,34.808572 43.5,24.000001 43.5,13.191431 34.808573,4.5000009 24.000001,4.5000009 l 0,0 0,0 z"
     id="path3272"
     style="opacity:0.4;fill:none;stroke:url(#linearGradient2453);stroke-width:0.99999994;stroke-miterlimit:4;stroke-opacity:1" />
  <path
     style="opacity:0.15;fill:#000000;fill-opacity:1;fill-rule:evenodd;stroke:none"
     d="m 40.919963,26.93916 c -0.257924,-0.003 -0.464816,0.02433 -0.604229,0.05347 l -18.564419,3.867927 -3.41702,0.712982 -0.104177,0.01783 -4.333782,2.014172 9.730172,-0.891227 0.08334,-0.01782 3.437856,-0.712982 18.56442,-3.885749 c 0.557644,-0.116561 -0.194879,-0.4575 -1.687675,-0.766454 -1.119596,-0.231716 -2.330713,-0.383024 -3.104489,-0.39214 z"
     id="path2422"
     inkscape:connector-curvature="0" />
  <path
     id="rect2383"
     d="m 18.583905,23.727574 c 0.592637,-0.455536 2.168438,0.282976 3.585012,1.691868 1.413187,1.405521 2.123369,2.944116 1.677344,3.54195 -0.0017,0.0023 0.03483,0.03067 0.0331,0.03292 L 45.383367,7.3936266 C 45.929336,6.8452036 45.18803,5.2185786 43.726485,3.7649606 42.264941,2.3113416 40.633886,1.5784658 40.087913,2.1268928 L 18.583905,23.727574 z"
     style="fill:url(#linearGradient3265);fill-opacity:1;stroke:#000000;stroke-width:0.66666079;stroke-linecap:butt;stroke-linejoin:round;stroke-miterlimit:4;stroke-opacity:1;stroke-dasharray:none;stroke-dashoffset:0"
     inkscape:connector-curvature="0" />
  <path
     id="rect3175"
     d="m 37.463515,4.7630906 c 0.592636,-0.455536 2.168438,0.282976 3.585012,1.691867 1.413185,1.405521 2.12337,2.944115 1.677343,3.54195 -0.0017,0.0023 0.03483,0.03067 0.0331,0.03292 l 2.6244,-2.6361984 0.05356,-0.0538 c 0.0017,-0.0022 -0.03479,-0.03064 -0.0331,-0.03292 0.446026,-0.597833 -0.264158,-2.136428 -1.677344,-3.541949 -1.416574,-1.408892 -2.992375,-2.1474048 -3.585012,-1.6918678 l -0.05356,0.0538 -2.624398,2.6361978 z"
     style="opacity:0.8;fill:#ff9de8;fill-opacity:1;stroke:#dd78c5;stroke-width:0.66666079;stroke-linecap:butt;stroke-linejoin:round;stroke-miterlimit:4;stroke-opacity:1;stroke-dasharray:none;stroke-dashoffset:0"
     inkscape:connector-curvature="0" />
  <path
     id="path3208"
     d="m 18.583905,23.727574 c 0.592637,-0.455536 2.168438,0.282976 3.585012,1.691868 1.413187,1.405521 2.123369,2.944116 1.677344,3.54195 -0.0017,0.0023 0.03483,0.03067 0.0331,0.03292 l 14.809111,-14.875686 0.05356,-0.0538 c 0.0017,-0.0022 -0.03479,-0.03064 -0.0331,-0.03292 0.446026,-0.597835 -0.264158,-2.136429 -1.677344,-3.54195 C 35.615014,9.0810646 34.039213,8.3425516 33.446576,8.7980886 l -0.05356,0.0538 -14.809112,14.8756874 z"
     style="opacity:0.6;fill:#000000;fill-opacity:1;stroke:none"
     inkscape:connector-curvature="0" />
  <path
     id="path3233"
     d="m 34.521881,7.7179476 c 0.592637,-0.455537 2.16844,0.282975 3.585012,1.691867 1.413187,1.4055214 2.123371,2.9441164 1.677344,3.5419504 -0.0017,0.0023 0.03483,0.03067 0.0331,0.03292 l 0.267796,-0.269002 c 0.0017,-0.0022 -0.03479,-0.03064 -0.0331,-0.03292 0.446027,-0.597834 -0.264156,-2.13643 -1.677344,-3.5419494 -1.416573,-1.408892 -2.992374,-2.147405 -3.585012,-1.691869 l -0.267796,0.269001 z"
     style="fill:url(#linearGradient3260);fill-opacity:1;stroke:none"
     inkscape:connector-curvature="0" />
  <path
     id="path3216"
     d="m 34.276464,7.9644686 c 0.592637,-0.455537 2.168439,0.282975 3.585012,1.691868 1.413187,1.4055204 2.123371,2.9441144 1.677343,3.5419484 -0.0017,0.0023 0.03483,0.03067 0.0331,0.03292 l 0.267796,-0.269 c 0.0017,-0.0022 -0.03479,-0.03064 -0.0331,-0.03292 0.446026,-0.597835 -0.264158,-2.136429 -1.677345,-3.5419504 -1.416573,-1.408891 -2.992374,-2.147405 -3.585013,-1.691868 l -0.267795,0.269001 z"
     style="fill:url(#linearGradient3257);fill-opacity:1;stroke:none"
     inkscape:connector-curvature="0" />
  <path
     id="path3248"
     d="m 35.374707,6.8612886 c 0.592636,-0.455537 2.168439,0.282975 3.585011,1.691868 1.413186,1.40552 2.12337,2.9441144 1.677344,3.5419494 -0.0017,0.0023 0.03483,0.03067 0.0331,0.03292 l 0.267796,-0.269 c 0.0017,-0.0022 -0.03479,-0.03064 -0.0331,-0.03292 0.446028,-0.597834 -0.264156,-2.1364294 -1.677344,-3.5419494 -1.416572,-1.408892 -2.992373,-2.147405 -3.585012,-1.691868 l -0.267795,0.269 z"
     style="fill:url(#linearGradient3254);fill-opacity:1;stroke:none"
     inkscape:connector-curvature="0" />
  <path
     id="path3250"
     d="m 35.129289,7.1078096 c 0.592637,-0.455537 2.168439,0.282975 3.585012,1.691867 1.413187,1.4055224 2.123371,2.9441154 1.677344,3.5419494 -0.0017,0.0023 0.03483,0.03067 0.0331,0.03292 l 0.267796,-0.269002 c 0.0017,-0.0022 -0.03479,-0.03064 -0.0331,-0.03291 0.446028,-0.597835 -0.264156,-2.1364304 -1.677343,-3.5419494 -1.416572,-1.408892 -2.992374,-2.147405 -3.585012,-1.691868 l -0.267796,0.269 z"
     style="fill:url(#linearGradient3251);fill-opacity:1;stroke:none"
     inkscape:connector-curvature="0" />
  <path
     id="path3256"
     d="m 36.231654,6.0004886 c 0.592636,-0.455536 2.168438,0.282976 3.58501,1.691868 1.413188,1.405521 2.123372,2.9441164 1.677345,3.5419494 -0.0017,0.0023 0.03483,0.03067 0.0331,0.03292 l 0.267796,-0.269 c 0.0017,-0.0022 -0.03479,-0.03064 -0.0331,-0.03292 0.446026,-0.597834 -0.264157,-2.1364294 -1.677344,-3.5419504 -1.416572,-1.408891 -2.992374,-2.147404 -3.585012,-1.691867 l -0.267795,0.268999 z"
     style="fill:url(#linearGradient3248);fill-opacity:1;stroke:none"
     inkscape:connector-curvature="0" />
  <path
     id="path3258"
     d="m 35.986236,6.2470096 c 0.592636,-0.455537 2.168438,0.282976 3.585011,1.691868 1.413187,1.405521 2.123371,2.9441154 1.677344,3.5419494 -0.0017,0.0023 0.03483,0.03067 0.0331,0.03292 l 0.267795,-0.269 c 0.0017,-0.0022 -0.03479,-0.03064 -0.0331,-0.03292 0.446026,-0.597835 -0.264158,-2.1364304 -1.677344,-3.5419504 -1.416573,-1.408892 -2.992375,-2.147405 -3.585012,-1.691867 l -0.267796,0.268999 z"
     style="fill:url(#linearGradient3245);fill-opacity:1;stroke:none"
     inkscape:connector-curvature="0" />
  <path
     style="fill:url(#linearGradient3268);fill-opacity:1;fill-rule:evenodd;stroke:url(#linearGradient3270);stroke-width:0.66666085;stroke-linecap:butt;stroke-linejoin:miter;stroke-miterlimit:4;stroke-opacity:1;stroke-dasharray:none"
     d="m 14.229667,33.272206 9.541582,-4.22913 0.08333,-0.08333 C 24.300607,28.36191 23.580283,26.82363 22.167096,25.418109 20.750522,24.009216 19.176432,23.275088 18.583795,23.730624 l -4.354128,9.541582 z"
     id="path3270"
     sodipodi:nodetypes="cccscc"
     inkscape:connector-curvature="0" />
  <path
     id="path3281-8"
     d="m 15.409068,30.687944 -1.179543,2.574257 2.602696,-1.158823 c -0.194377,-0.236674 -0.372841,-0.477887 -0.608372,-0.71214 -0.271159,-0.26969 -0.539966,-0.486407 -0.814781,-0.703294 z"
     style="fill:#000000;fill-opacity:1;fill-rule:evenodd;stroke:#000000;stroke-width:0.66666079;stroke-linecap:butt;stroke-linejoin:miter;stroke-miterlimit:4;stroke-opacity:1;stroke-dasharray:none"
     inkscape:connector-curvature="0" />
</svg>
