<?xml version="1.0" encoding="UTF-8" standalone="no"?>
<!-- Created with Inkscape (http://www.inkscape.org/) -->

<svg
   xmlns:dc="http://purl.org/dc/elements/1.1/"
   xmlns:cc="http://creativecommons.org/ns#"
   xmlns:rdf="http://www.w3.org/1999/02/22-rdf-syntax-ns#"
   xmlns:svg="http://www.w3.org/2000/svg"
   xmlns="http://www.w3.org/2000/svg"
   xmlns:xlink="http://www.w3.org/1999/xlink"
   xmlns:sodipodi="http://sodipodi.sourceforge.net/DTD/sodipodi-0.dtd"
   xmlns:inkscape="http://www.inkscape.org/namespaces/inkscape"
   width="16"
   height="16"
   id="svg4117"
   version="1.1"
   inkscape:version="0.91 r"
   sodipodi:docname="rhythmbox16.svg">
  <defs
     id="defs4119">
    <linearGradient
       id="linearGradient4806">
      <stop
         id="stop4808"
         style="stop-color:#ffffff;stop-opacity:1"
         offset="0" />
      <stop
         id="stop4810"
         style="stop-color:#ffffff;stop-opacity:0.23529412"
         offset="0.03448276" />
      <stop
         id="stop4812"
         style="stop-color:#ffffff;stop-opacity:0.15686275"
         offset="0.98275864" />
      <stop
         id="stop4814"
         style="stop-color:#ffffff;stop-opacity:0.39215687"
         offset="1" />
    </linearGradient>
    <linearGradient
       id="linearGradient3846">
      <stop
         id="stop3848"
         style="stop-color:#fff3cb;stop-opacity:1"
         offset="0" />
      <stop
         id="stop3850"
         style="stop-color:#fdde76;stop-opacity:1"
         offset="0.26238" />
      <stop
         id="stop3852"
         style="stop-color:#f9c440;stop-opacity:1"
         offset="0.66093999" />
      <stop
         id="stop3854"
         style="stop-color:#e48b20;stop-opacity:1"
         offset="1" />
    </linearGradient>
    <radialGradient
       cx="23.896"
       cy="3.99"
       r="20.396999"
       id="radialGradient3093-0-3-6"
       gradientUnits="userSpaceOnUse"
       gradientTransform="matrix(0,1.2316483,-1.625754,0,18.486966,-28.721977)">
      <stop
         id="stop3244-9-33-7-0"
         style="stop-color:#ffffff;stop-opacity:1"
         offset="0" />
      <stop
         id="stop3246-3-5-0-8"
         style="stop-color:#dddddd;stop-opacity:1"
         offset="0.26238" />
      <stop
         id="stop3248-1-7-8-8"
         style="stop-color:#abacae;stop-opacity:1"
         offset="0.66093999" />
      <stop
         id="stop3250-9-3-0-5"
         style="stop-color:#89898b;stop-opacity:1"
         offset="1" />
    </radialGradient>
    <linearGradient
       id="linearGradient3820-7-2">
      <stop
         id="stop3822-2-6"
         style="stop-color:#3d3d3d;stop-opacity:1"
         offset="0" />
      <stop
         id="stop3864-8-7"
         style="stop-color:#686868;stop-opacity:0.49803922"
         offset="0.5" />
      <stop
         id="stop3824-1-2"
         style="stop-color:#686868;stop-opacity:0"
         offset="1" />
    </linearGradient>
    <radialGradient
       cx="7.1183534"
       cy="9.9571075"
       r="12.671875"
       fx="7.1183534"
       fy="9.9571075"
       id="radialGradient3988-3"
       xlink:href="#linearGradient2867-449-88-871-390-598-476-591-434-148-57-177-8-3-3-6-4-8-8-8-5-7"
       gradientUnits="userSpaceOnUse"
       gradientTransform="matrix(0,12.890089,-15.824912,0,128.95915,-113.74762)" />
    <linearGradient
       id="linearGradient2867-449-88-871-390-598-476-591-434-148-57-177-8-3-3-6-4-8-8-8-5-7">
      <stop
         id="stop3750-1-0-7-6-6-1-3-9-3-9"
         style="stop-color:#505050;stop-opacity:1"
         offset="0" />
      <stop
         id="stop3752-3-7-4-0-32-8-923-0-7-0"
         style="stop-color:#2b2b2b;stop-opacity:1"
         offset="0.26238" />
      <stop
         id="stop3754-1-8-5-2-7-6-7-1-9-1"
         style="stop-color:#0a0a0a;stop-opacity:1"
         offset="0.704952" />
      <stop
         id="stop3756-1-6-2-6-6-1-96-6-0-1"
         style="stop-color:#000000;stop-opacity:1"
         offset="1" />
    </linearGradient>
  </defs>
  <sodipodi:namedview
     id="base"
     pagecolor="#ffffff"
     bordercolor="#666666"
     borderopacity="1.0"
     inkscape:pageopacity="0.0"
     inkscape:pageshadow="2"
     inkscape:zoom="57.25"
     inkscape:cx="9.6631583"
     inkscape:cy="8.3368358"
     inkscape:current-layer="layer1"
     showgrid="true"
     inkscape:document-units="px"
     inkscape:grid-bbox="true"
     inkscape:window-width="1855"
     inkscape:window-height="1056"
     inkscape:window-x="65"
     inkscape:window-y="24"
     inkscape:window-maximized="1"
     showguides="false">
    <inkscape:grid
       type="xygrid"
       id="grid4207" />
  </sodipodi:namedview>
  <metadata
     id="metadata4122">
    <rdf:RDF>
      <cc:Work
         rdf:about="">
        <dc:format>image/svg+xml</dc:format>
        <dc:type
           rdf:resource="http://purl.org/dc/dcmitype/StillImage" />
        <dc:title></dc:title>
      </cc:Work>
    </rdf:RDF>
  </metadata>
  <g
     id="layer1"
     inkscape:label="Layer 1"
     inkscape:groupmode="layer"
     transform="translate(0,-48)">
    <path
       inkscape:connector-curvature="0"
       style="display:inline;opacity:1;fill:#353945;fill-opacity:1;stroke:none;enable-background:new"
       d="m 7.9999996,48.5 c -1.5679198,0 -3.0202595,0.476679 -4.2212772,1.293103 l -0.9511376,0 c -0.5731023,0 -1.0344821,0.46138 -1.0344821,1.034482 l 0,0.951139 C 0.9766776,52.97974 0.5,54.43208 0.5,56.000001 c 0,1.567919 0.4766776,3.020259 1.2931027,4.221277 l 0,0.951137 c 0,0.573102 0.4613798,1.034483 1.0344821,1.034483 l 0.9511376,0 C 4.9797401,63.023323 6.4320798,63.5 7.9999996,63.5 c 1.5679192,0 3.0202614,-0.476677 4.2212764,-1.293102 l 0.951138,0 c 0.573103,0 1.034483,-0.461381 1.034483,-1.034483 l 0,-0.951137 c 0.816424,-1.201018 1.293104,-2.653358 1.293104,-4.221277 0,-1.567921 -0.47668,-3.020261 -1.293104,-4.221277 l 0,-0.951139 c 0,-0.573102 -0.46138,-1.034482 -1.034483,-1.034482 l -0.951138,0 C 11.020261,48.976679 9.5679188,48.5 7.9999996,48.5 Z"
       id="rect4229" />
    <path
       id="path4391"
       d="m 2.9568973,50.568965 a 0.38793102,0.38793102 0 0 0 -0.3879325,0.387932 0.38793102,0.38793102 0 0 0 0.3879325,0.387931 0.38793102,0.38793102 0 0 0 0.3879302,-0.387931 0.38793102,0.38793102 0 0 0 -0.3879302,-0.387932 z m 10.0862037,0 a 0.38793102,0.38793102 0 0 0 -0.387929,0.387932 0.38793102,0.38793102 0 0 0 0.387929,0.387931 0.38793102,0.38793102 0 0 0 0.387935,-0.387931 0.38793102,0.38793102 0 0 0 -0.387935,-0.387932 z M 2.9568973,60.655172 a 0.38793102,0.38793102 0 0 0 -0.3879325,0.387931 0.38793102,0.38793102 0 0 0 0.3879325,0.387932 0.38793102,0.38793102 0 0 0 0.3879302,-0.387932 0.38793102,0.38793102 0 0 0 -0.3879302,-0.387931 z m 10.0862037,0 a 0.38793102,0.38793102 0 0 0 -0.387929,0.387931 0.38793102,0.38793102 0 0 0 0.387929,0.387932 0.38793102,0.38793102 0 0 0 0.387935,-0.387932 0.38793102,0.38793102 0 0 0 -0.387935,-0.387931 z"
       style="display:inline;opacity:1;fill:#ffffff;fill-opacity:1;stroke:none;stroke-width:0.70599997;stroke-linecap:round;stroke-linejoin:round;stroke-miterlimit:4;stroke-dasharray:none;stroke-opacity:1;enable-background:new"
       inkscape:connector-curvature="0" />
    <circle
       transform="matrix(0,1,-1,0,0,0)"
       style="display:inline;opacity:1;fill:#ffffff;fill-opacity:1;stroke:none;stroke-width:2;stroke-linecap:round;stroke-linejoin:round;stroke-miterlimit:4;stroke-dasharray:none;stroke-opacity:1;enable-background:new"
       id="circle4406"
       cx="56"
       cy="-7.9999995"
       r="4.9137931" />
    <circle
       r="2.3275859"
       cy="-7.9999995"
       cx="-56"
       id="circle4410"
       style="display:inline;opacity:1;fill:#353945;fill-opacity:1;stroke:none;stroke-width:2;stroke-linecap:round;stroke-linejoin:round;stroke-miterlimit:4;stroke-dasharray:none;stroke-opacity:1;enable-background:new"
       transform="matrix(0,-1,-1,0,0,0)" />
  </g>
</svg>
