<?xml version="1.0" encoding="UTF-8" standalone="no"?>
<svg
   xmlns:dc="http://purl.org/dc/elements/1.1/"
   xmlns:cc="http://creativecommons.org/ns#"
   xmlns:rdf="http://www.w3.org/1999/02/22-rdf-syntax-ns#"
   xmlns:svg="http://www.w3.org/2000/svg"
   xmlns="http://www.w3.org/2000/svg"
   xmlns:xlink="http://www.w3.org/1999/xlink"
   xmlns:sodipodi="http://sodipodi.sourceforge.net/DTD/sodipodi-0.dtd"
   xmlns:inkscape="http://www.inkscape.org/namespaces/inkscape"
   version="1.1"
   width="16"
   height="16"
   id="svg7357"
   inkscape:version="0.91 r"
   sodipodi:docname="softwarecenter.svg">
  <sodipodi:namedview
     pagecolor="#ffffff"
     bordercolor="#666666"
     borderopacity="1"
     objecttolerance="10"
     gridtolerance="10"
     guidetolerance="10"
     inkscape:pageopacity="0"
     inkscape:pageshadow="2"
     inkscape:window-width="640"
     inkscape:window-height="480"
     id="namedview23"
     showgrid="false"
     inkscape:zoom="56.1875"
     inkscape:cx="4.814238"
     inkscape:cy="8"
     inkscape:current-layer="g3186" />
  <defs
     id="defs7359">
    <linearGradient
       x1="23.99999"
       y1="4.999989"
       x2="23.99999"
       y2="43"
       id="linearGradient4224"
       xlink:href="#linearGradient3924-4-8"
       gradientUnits="userSpaceOnUse"
       gradientTransform="matrix(0.2972973,0,0,0.2972973,0.86486973,0.86486734)" />
    <linearGradient
       id="linearGradient3924-4-8">
      <stop
         id="stop3926-0-4"
         style="stop-color:#ffffff;stop-opacity:1"
         offset="0" />
      <stop
         id="stop3928-6-8"
         style="stop-color:#ffffff;stop-opacity:0.23529412"
         offset="0.06316455" />
      <stop
         id="stop3930-2-1"
         style="stop-color:#ffffff;stop-opacity:0.15686275"
         offset="0.95056331" />
      <stop
         id="stop3932-9-0"
         style="stop-color:#ffffff;stop-opacity:0.39215687"
         offset="1" />
    </linearGradient>
    <radialGradient
       gradientTransform="matrix(0,1.972873,-3.8866533,0,46.976844,-18.153909)"
       gradientUnits="userSpaceOnUse"
       xlink:href="#linearGradient2867-449-88-871-390-598-476-591-434-148-57-177-3-8"
       id="radialGradient5521-1"
       fy="9.9571075"
       fx="7.3198657"
       r="12.671875"
       cy="9.9571075"
       cx="7.8500957" />
    <linearGradient
       id="linearGradient2867-449-88-871-390-598-476-591-434-148-57-177-3-8">
      <stop
         id="stop3750-8-9"
         style="stop-color:#90dbec;stop-opacity:1"
         offset="0" />
      <stop
         id="stop3752-3-2"
         style="stop-color:#42baea;stop-opacity:1"
         offset="0.26238" />
      <stop
         id="stop3754-7-2"
         style="stop-color:#3689e6;stop-opacity:1"
         offset="0.704952" />
      <stop
         id="stop3756-9-3"
         style="stop-color:#2b63a0;stop-opacity:1"
         offset="1" />
    </linearGradient>
    <radialGradient
       inkscape:collect="always"
       xlink:href="#linearGradient5803"
       id="radialGradient3128"
       gradientUnits="userSpaceOnUse"
       gradientTransform="matrix(1.8239138e-8,1.8233953,-1.4228771,1.4232817e-8,49.979331,-46.891919)"
       cx="32.244804"
       cy="12.463851"
       fx="32.244804"
       fy="12.463851"
       r="24.264" />
    <linearGradient
       id="linearGradient5803">
      <stop
         id="stop5805"
         style="stop-color:#fff5ef;stop-opacity:1"
         offset="0" />
      <stop
         id="stop5807"
         style="stop-color:#fef8dd;stop-opacity:1"
         offset="1" />
    </linearGradient>
  </defs>
  <metadata
     id="metadata7362">
    <rdf:RDF>
      <cc:Work
         rdf:about="">
        <dc:format>image/svg+xml</dc:format>
        <dc:type
           rdf:resource="http://purl.org/dc/dcmitype/StillImage" />
        <dc:title></dc:title>
      </cc:Work>
    </rdf:RDF>
  </metadata>
  <rect
     style="color:#000000;display:inline;overflow:visible;visibility:visible;fill:url(#radialGradient5521-1);fill-opacity:1;fill-rule:nonzero;stroke:none;stroke-width:0.99999994;marker:none;enable-background:accumulate;clip-rule:nonzero;opacity:1;isolation:auto;mix-blend-mode:normal;color-interpolation:sRGB;color-interpolation-filters:linearRGB;solid-color:#000000;solid-opacity:1;stroke-linecap:butt;stroke-linejoin:miter;stroke-miterlimit:4;stroke-dasharray:none;stroke-dashoffset:0;stroke-opacity:1;filter-blend-mode:normal;filter-gaussianBlur-deviation:0;color-rendering:auto;image-rendering:auto;shape-rendering:auto;text-rendering:auto"
     id="rect5505-21-2"
     y="1.4999971"
     x="1.5"
     ry="1"
     rx="1"
     height="13.000003"
     width="13.000003" />
  <rect
     style="color:#000000;display:inline;overflow:visible;visibility:visible;opacity:0.4;fill:#000000;stroke:#004264;stroke-width:1;stroke-linecap:round;stroke-linejoin:round;stroke-miterlimit:4;stroke-dasharray:none;stroke-dashoffset:0;stroke-opacity:1;marker:none;enable-background:accumulate;clip-rule:nonzero;isolation:auto;mix-blend-mode:normal;color-interpolation:sRGB;color-interpolation-filters:linearRGB;solid-color:#000000;solid-opacity:1;fill-opacity:0;fill-rule:nonzero;filter-blend-mode:normal;filter-gaussianBlur-deviation:0;color-rendering:auto;image-rendering:auto;shape-rendering:auto;text-rendering:auto"
     id="rect5505-21-2-8"
     y="1.4999971"
     x="1.5"
     ry="1"
     rx="1"
     height="13.000003"
     width="13.000003" />
  <rect
     style="opacity:0.5;fill:none;stroke:url(#linearGradient4224);stroke-width:1;stroke-linecap:round;stroke-linejoin:round;stroke-miterlimit:4;stroke-dasharray:none;stroke-dashoffset:0;stroke-opacity:1"
     id="rect6741-0-3"
     y="2.4999971"
     x="2.5"
     height="11"
     width="11" />
  <g
     transform="matrix(0.43116679,0,0,0.45062904,0.93607648,0.75503836)"
     id="g3186">
    <g
       transform="matrix(0.37036288,0,0,0.36023136,4.7226809,5.4611886)"
       id="g3939"
       style="font-style:normal;font-variant:normal;font-weight:500;font-stretch:normal;font-size:72px;line-height:125%;font-family:Ubuntu;-inkscape-font-specification:'Ubuntu Medium';letter-spacing:0px;word-spacing:0px;opacity:0.3;fill:#1261ba;fill-opacity:1;stroke:none">
      <path
         inkscape:connector-curvature="0"
         id="path3941"
         transform="matrix(1.2132,0,0,1.2132,-6.6178368,-6.4668438)"
         d="m 27.84375,11.4375 c -1.384782,2.927833 -2.725626,5.899362 -4.03125,8.90625 -1.30565,3.006954 -2.623556,6.176583 -3.96875,9.5 -0.414544,1.055203 -0.859331,2.155095 -1.28125,3.25 l -3.03125,0 c -2.283151,0 -4.125,1.754575 -4.125,3.9375 l 0,0.125 c 0,2.182925 1.841849,3.9375 4.125,3.9375 l 0.03125,0 c -1.313378,3.535981 -2.704261,7.336167 -4.15625,11.46875 l 7.78125,0 1.65625,-4.75 c 0.420697,-1.149919 0.817925,-2.330193 1.21875,-3.5 0.200352,-0.646079 0.562978,-1.843227 1,-3.21875 l 16.34375,0 c 0.434873,1.365079 0.800979,2.536055 1,3.1875 0.402094,1.16568 0.796611,2.343108 1.21875,3.46875 0.59344,1.582595 1.164812,3.190345 1.71875,4.8125 l 8.0625,0 c -1.45203,-4.132583 -2.842057,-7.932769 -4.1875,-11.46875 l 0.0625,0 c 2.283151,0 4.125,-1.754575 4.125,-3.9375 l 0,-0.125 c 0,-2.182925 -1.841849,-3.9375 -4.125,-3.9375 l -3.125,0 c -0.430022,-1.092555 -0.855041,-2.196981 -1.28125,-3.25 -1.305668,-3.323417 -2.631891,-6.493046 -3.9375,-9.5 -1.305664,-3.006888 -2.646506,-5.978417 -4.03125,-8.90625 l -7.0625,0 z m 3.375,7.9375 c 0.870406,2.017835 1.906784,4.57854 3.09375,7.625 0.748311,1.920719 1.526142,3.978649 2.3125,6.09375 l -10.78125,0 c 0.766791,-2.087828 1.535767,-4.190728 2.25,-6.0625 1.186925,-3.006895 2.214992,-5.559285 3.125,-7.65625 z m -15.5,15.71875 24.6875,0 0,4 -24.6875,0 c -1.639233,0 -2.3125,-0.892 -2.3125,-2 0,-1.108 0.673267,-2 2.3125,-2 z"
         style="fill:#1261ba;fill-opacity:1" />
    </g>
    <g
       style="font-style:normal;font-variant:normal;font-weight:500;font-stretch:normal;font-size:72px;line-height:125%;font-family:Ubuntu;-inkscape-font-specification:'Ubuntu Medium';letter-spacing:0px;word-spacing:0px;opacity:0.15;fill:#126dba;fill-opacity:1;stroke:#125aba;stroke-opacity:1"
       id="g3947"
       transform="matrix(0.37036288,0,0,0.36023136,4.7639586,5.5011328)">
      <path
         style="fill:#125aba;fill-opacity:1;stroke:#125aba;stroke-width:5.11953926;stroke-opacity:1"
         d="m 27.84375,11.4375 c -1.384782,2.927833 -2.725626,5.899362 -4.03125,8.90625 -1.30565,3.006954 -2.623556,6.176583 -3.96875,9.5 -0.414544,1.055203 -0.859331,2.155095 -1.28125,3.25 l -3.03125,0 c -2.283151,0 -4.125,1.754575 -4.125,3.9375 l 0,0.125 c 0,2.182925 1.841849,3.9375 4.125,3.9375 l 0.03125,0 c -1.313378,3.535981 -2.704261,7.336167 -4.15625,11.46875 l 7.78125,0 1.65625,-4.75 c 0.420697,-1.149919 0.817925,-2.330193 1.21875,-3.5 0.200352,-0.646079 0.562978,-1.843227 1,-3.21875 l 16.34375,0 c 0.434873,1.365079 0.800979,2.536055 1,3.1875 0.402094,1.16568 0.796611,2.343108 1.21875,3.46875 0.59344,1.582595 1.164812,3.190345 1.71875,4.8125 l 8.0625,0 c -1.45203,-4.132583 -2.842057,-7.932769 -4.1875,-11.46875 l 0.0625,0 c 2.283151,0 4.125,-1.754575 4.125,-3.9375 l 0,-0.125 c 0,-2.182925 -1.841849,-3.9375 -4.125,-3.9375 l -3.125,0 c -0.430022,-1.092555 -0.855041,-2.196981 -1.28125,-3.25 -1.305668,-3.323417 -2.631891,-6.493046 -3.9375,-9.5 -1.305664,-3.006888 -2.646506,-5.978417 -4.03125,-8.90625 l -7.0625,0 z m 3.375,7.9375 c 0.870406,2.017835 1.906784,4.57854 3.09375,7.625 0.748311,1.920719 1.526142,3.978649 2.3125,6.09375 l -10.78125,0 c 0.766791,-2.087828 1.535767,-4.190728 2.25,-6.0625 1.186925,-3.006895 2.214992,-5.559285 3.125,-7.65625 z m -15.5,15.71875 24.6875,0 0,4 -24.6875,0 c -1.639233,0 -2.3125,-0.892 -2.3125,-2 0,-1.108 0.673267,-2 2.3125,-2 z"
         transform="matrix(1.2132,0,0,1.2132,-6.6178368,-6.4668438)"
         id="path3949"
         inkscape:connector-curvature="0" />
    </g>
    <g
       style="font-style:normal;font-variant:normal;font-weight:500;font-stretch:normal;font-size:72px;line-height:125%;font-family:Ubuntu;-inkscape-font-specification:'Ubuntu Medium';letter-spacing:0px;word-spacing:0px;fill:url(#radialGradient3128);fill-opacity:1;stroke:none"
       id="text3033"
       transform="matrix(0.37091988,0,0,0.36077312,4.7186592,4.6024418)">
      <path
         sodipodi:nodetypes="csccssssccccccccccccsssscccccccccccsccsss"
         style="fill:#ffffff;fill-opacity:1"
         d="m 27.84375,11.4375 c -1.384782,2.927833 -2.725626,5.899362 -4.03125,8.90625 -1.30565,3.006954 -2.623556,6.176583 -3.96875,9.5 -0.414544,1.055203 -0.859331,2.155095 -1.28125,3.25 l -3.03125,0 c -2.283151,0 -4.125,1.754575 -4.125,3.9375 l 0,0.125 c 0,2.182925 1.841849,3.9375 4.125,3.9375 l 0.03125,0 c -1.313378,3.535981 -2.704261,7.336167 -4.15625,11.46875 l 7.78125,0 1.65625,-4.75 c 0.420697,-1.149919 0.817925,-2.330193 1.21875,-3.5 0.200352,-0.646079 0.562978,-1.843227 1,-3.21875 l 16.34375,0 c 0.434873,1.365079 0.800979,2.536055 1,3.1875 0.402094,1.16568 0.796611,2.343108 1.21875,3.46875 0.59344,1.582595 1.164812,3.190345 1.71875,4.8125 l 8.0625,0 c -1.45203,-4.132583 -2.842057,-7.932769 -4.1875,-11.46875 l 0.0625,0 c 2.283151,0 4.125,-1.754575 4.125,-3.9375 l 0,-0.125 c 0,-2.182925 -1.841849,-3.9375 -4.125,-3.9375 l -3.125,0 c -0.430022,-1.092555 -0.855041,-2.196981 -1.28125,-3.25 -1.305668,-3.323417 -2.631891,-6.493046 -3.9375,-9.5 -1.305664,-3.006888 -2.646506,-5.978417 -4.03125,-8.90625 z m 3.375,7.9375 c 0.870406,2.017835 1.906784,4.57854 3.09375,7.625 0.748311,1.920719 1.526142,3.978649 2.3125,6.09375 l -10.78125,0 c 0.766791,-2.087828 1.535767,-4.190728 2.25,-6.0625 1.186925,-3.006895 2.214992,-5.559285 3.125,-7.65625 z m -15.5,15.71875 10.211405,0 0,4 -10.211405,0 c -1.639233,0 -2.3125,-0.892 -2.3125,-2 0,-1.108 0.673267,-2 2.3125,-2 z"
         id="path3038"
         inkscape:connector-curvature="0"
         transform="matrix(1.2132,0,0,1.2132,-6.6178368,-6.4668438)" />
    </g>
  </g>
</svg>
