<?xml version="1.0" encoding="UTF-8" standalone="no"?>
<svg
   xmlns:dc="http://purl.org/dc/elements/1.1/"
   xmlns:cc="http://creativecommons.org/ns#"
   xmlns:rdf="http://www.w3.org/1999/02/22-rdf-syntax-ns#"
   xmlns:svg="http://www.w3.org/2000/svg"
   xmlns="http://www.w3.org/2000/svg"
   xmlns:sodipodi="http://sodipodi.sourceforge.net/DTD/sodipodi-0.dtd"
   xmlns:inkscape="http://www.inkscape.org/namespaces/inkscape"
   width="24"
   height="24"
   version="1.1"
   id="svg2"
   inkscape:version="0.48.4 r9939"
   sodipodi:docname="indicator-messages-red.svg">
  <defs
     id="defs13" />
  <sodipodi:namedview
     pagecolor="#ffffff"
     bordercolor="#666666"
     borderopacity="1"
     objecttolerance="10"
     gridtolerance="10"
     guidetolerance="10"
     inkscape:pageopacity="0"
     inkscape:pageshadow="2"
     inkscape:window-width="1120"
     inkscape:window-height="720"
     id="namedview11"
     showgrid="false"
     inkscape:zoom="9.8333333"
     inkscape:cx="12"
     inkscape:cy="12"
     inkscape:window-x="503"
     inkscape:window-y="50"
     inkscape:window-maximized="0"
     inkscape:current-layer="layer1" />
  <metadata
     id="metadata3401">
    <rdf:RDF>
      <cc:Work
         rdf:about="">
        <dc:format>image/svg+xml</dc:format>
        <dc:type
           rdf:resource="http://purl.org/dc/dcmitype/StillImage" />
      </cc:Work>
    </rdf:RDF>
  </metadata>
  <g
     id="layer1"
     inkscape:label="Layer 1"
     inkscape:groupmode="layer"
     transform="translate(0,6)">
    <path
       sodipodi:type="arc"
       id="path8968"
       sodipodi:cx="53"
       sodipodi:cy="218"
       sodipodi:rx="3"
       sodipodi:ry="3"
       d="m 56,218 a 3,3 0 1 1 -6,0 3,3 0 1 1 6,0 z"
       transform="matrix(-1.0457551,0,0,1.0457551,63.562287,-217.11188)"
       style="opacity:0.2;color:#000000;stroke-width:2" />
    <path
       inkscape:connector-curvature="0"
       id="path8966"
       d="m 10.228776,-0.24841362 c 0.407091,0.0202876 0.766423,0.27798261 0.915035,0.68627679 0.0042,0.0107713 0.02887,0.0220655 0.03263,0.0326275 1.858338,-0.17773654 3.631081,0.84509568 4.34642,2.81046698 0.71721,1.9705268 2.170486,5.898801 3.921581,5.2614554 0.116654,-0.042458 0.244582,0.027399 0.294119,0.1633993 L 20,9.4574485 l -1.960791,0.7189565 -1.960791,0.686276 -3.921581,1.437914 -0.13072,0.03263 c 0.172685,-0.458376 0.294119,-0.951616 0.294119,-1.470489 0,-2.3102178 -1.872801,-4.1830188 -4.1830209,-4.1830188 -0.088994,0 -0.1738672,0.027189 -0.2614388,0.032627 C 7.812297,6.5355777 7.7361556,6.3119011 7.6796952,6.1567842 6.9674941,4.200009 7.6589892,2.2182509 9.1829682,1.1567676 8.9848185,0.61235787 9.2595174,0.01504346 9.8038854,-0.18310623 c 0.136105,-0.0495688 0.2891406,-0.0721571 0.4248386,-0.0653597 z M 16.143828,11.973848 c -0.126558,0.710329 -0.580394,1.304099 -1.307194,1.568633 -0.726799,0.264534 -1.50528,0.10332 -2.05883,-0.359478 l 3.366024,-1.209155 z"
       style="opacity:0.2;color:#000000;stroke-width:4" />
    <path
       d="m 17.124223,0.63394226 c 0.152189,0.27651861 0.280231,0.57484104 0.392159,0.88235594 0.26901,0.7391187 0.628729,1.7019351 1.013075,2.5163482 L 17.581741,4.5228441 C 17.154237,3.6379575 16.775109,2.6225607 16.503306,1.8757765 16.402182,1.5980762 16.28055,1.338321 16.143828,1.0914602 c -0.0042,-0.00836 0.0042,-0.024785 0,-0.032627 L 17.124223,0.63399455 z M 6.6993521,5.4705597 C 6.7405549,5.5839196 6.7854177,5.7391515 6.8300714,5.8627179 6.4985985,5.9717797 6.171434,6.1036598 5.8823559,6.2875559 5.8411531,6.1712784 5.7909569,6.0367733 5.7516366,5.9280776 L 6.6993521,5.4705597 z"
       id="path4184"
       inkscape:connector-curvature="0"
       style="opacity:0.25;color:#000000;fill:#ffffff;stroke-width:4" />
    <path
       d="m 10.228776,-1.2941688 c 0.407091,0.020288 0.766423,0.2779827 0.915035,0.68627685 0.0042,0.0107713 0.02887,0.0220655 0.03263,0.0326275 1.858338,-0.17773664 3.631081,0.84509564 4.34642,2.81046691 0.71721,1.9705268 2.170486,5.8988014 3.921581,5.2614555 0.116654,-0.042458 0.244582,0.027399 0.294119,0.1633992 L 20,8.4116937 l -1.960791,0.7189567 -1.960791,0.6862759 -3.921581,1.4379127 -0.13072,0.03263 c 0.172685,-0.458376 0.294119,-0.951617 0.294119,-1.4704884 0,-2.3102186 -1.872801,-4.1830196 -4.1830209,-4.1830196 -0.088994,0 -0.1738672,0.02719 -0.2614388,0.032627 C 7.812297,5.4898225 7.7361556,5.2661459 7.6796952,5.1110291 6.9674941,3.1542539 7.6589892,1.1724957 9.1829682,0.11101241 8.9848185,-0.43339725 9.2595174,-1.0307117 9.8038854,-1.2288613 c 0.136105,-0.049569 0.2891406,-0.072157 0.4248386,-0.06536 z m 5.915052,12.2222618 c -0.126558,0.710329 -0.580394,1.304099 -1.307194,1.568633 -0.726799,0.264534 -1.50528,0.10332 -2.05883,-0.359479 l 3.366024,-1.209154 z"
       id="path4188"
       inkscape:connector-curvature="0"
       style="color:#000000;fill:#ffffff;stroke-width:4" />
    <path
       transform="matrix(-1.0457551,0,0,1.0457551,63.562287,-218.15764)"
       d="m 56,218 a 3,3 0 1 1 -6,0 3,3 0 1 1 6,0 z"
       sodipodi:ry="3"
       sodipodi:rx="3"
       sodipodi:cy="218"
       sodipodi:cx="53"
       id="path4190"
       sodipodi:type="arc"
       style="color:#000000;fill:#e13f2b;stroke-width:2" />
  </g>
</svg>
