<?xml version="1.0" encoding="UTF-8" standalone="no"?>
<!-- Created with Inkscape (http://www.inkscape.org/) -->

<svg
   xmlns:dc="http://purl.org/dc/elements/1.1/"
   xmlns:cc="http://creativecommons.org/ns#"
   xmlns:rdf="http://www.w3.org/1999/02/22-rdf-syntax-ns#"
   xmlns:svg="http://www.w3.org/2000/svg"
   xmlns="http://www.w3.org/2000/svg"
   xmlns:xlink="http://www.w3.org/1999/xlink"
   xmlns:sodipodi="http://sodipodi.sourceforge.net/DTD/sodipodi-0.dtd"
   xmlns:inkscape="http://www.inkscape.org/namespaces/inkscape"
   width="32"
   height="32"
   id="svg3823"
   version="1.1"
   inkscape:version="0.48.3.1 r9886"
   sodipodi:docname="fusion-icon.svg">
  <defs
     id="defs3825">
    <linearGradient
       inkscape:collect="always"
       xlink:href="#linearGradient3308-4-6-931-761"
       id="linearGradient3097"
       gradientUnits="userSpaceOnUse"
       gradientTransform="matrix(0.4594596,0,0,0.4594596,0.9729727,8.9729658)"
       x1="23.99999"
       y1="4.999989"
       x2="23.99999"
       y2="43" />
    <linearGradient
       id="linearGradient3308-4-6-931-761">
      <stop
         id="stop2919"
         style="stop-color:#ffffff;stop-opacity:1"
         offset="0" />
      <stop
         id="stop2921"
         style="stop-color:#ffffff;stop-opacity:0"
         offset="1" />
    </linearGradient>
    <linearGradient
       id="linearGradient4246">
      <stop
         id="stop4248"
         style="stop-color:#ffffff;stop-opacity:1"
         offset="0" />
      <stop
         id="stop4250"
         style="stop-color:#dcdcdc;stop-opacity:1"
         offset="1" />
    </linearGradient>
    <radialGradient
       inkscape:collect="always"
       xlink:href="#linearGradient3242"
       id="radialGradient3066-0"
       gradientUnits="userSpaceOnUse"
       gradientTransform="matrix(0,1.5278162,-2.0449607,-6.4467772e-8,33.279511,-8.019554)"
       cx="7.4956832"
       cy="8.4497671"
       fx="7.4956832"
       fy="8.4497671"
       r="19.99999" />
    <linearGradient
       id="linearGradient3242">
      <stop
         id="stop3244"
         style="stop-color:#474747;stop-opacity:1;"
         offset="0" />
      <stop
         id="stop3246"
         style="stop-color:#222222;stop-opacity:1;"
         offset="0.26238" />
      <stop
         id="stop3248"
         style="stop-color:#171717;stop-opacity:1;"
         offset="0.66093999" />
      <stop
         id="stop3250"
         style="stop-color:#000000;stop-opacity:1;"
         offset="1" />
    </linearGradient>
    <linearGradient
       inkscape:collect="always"
       xlink:href="#linearGradient2490"
       id="linearGradient3069-5"
       gradientUnits="userSpaceOnUse"
       gradientTransform="matrix(0.66433542,0,0,0.66433542,0.05594485,0.055962)"
       x1="24"
       y1="44"
       x2="24"
       y2="3.8990016" />
    <linearGradient
       id="linearGradient2490">
      <stop
         id="stop2492"
         style="stop-color:#000000;stop-opacity:1;"
         offset="0" />
      <stop
         id="stop2494"
         style="stop-color:#333333;stop-opacity:1;"
         offset="1" />
    </linearGradient>
    <radialGradient
       inkscape:collect="always"
       xlink:href="#linearGradient3688-166-749"
       id="radialGradient3082"
       gradientUnits="userSpaceOnUse"
       gradientTransform="matrix(2.003784,0,0,1.4,27.98813,-17.4)"
       cx="4.9929786"
       cy="43.5"
       fx="4.9929786"
       fy="43.5"
       r="2.5" />
    <linearGradient
       id="linearGradient3688-166-749">
      <stop
         id="stop2883"
         style="stop-color:#181818;stop-opacity:1"
         offset="0" />
      <stop
         id="stop2885"
         style="stop-color:#181818;stop-opacity:0"
         offset="1" />
    </linearGradient>
    <radialGradient
       inkscape:collect="always"
       xlink:href="#linearGradient3688-464-309"
       id="radialGradient3084"
       gradientUnits="userSpaceOnUse"
       gradientTransform="matrix(2.003784,0,0,1.4,-20.01187,-104.4)"
       cx="4.9929786"
       cy="43.5"
       fx="4.9929786"
       fy="43.5"
       r="2.5" />
    <linearGradient
       id="linearGradient3688-464-309">
      <stop
         id="stop2889"
         style="stop-color:#181818;stop-opacity:1"
         offset="0" />
      <stop
         id="stop2891"
         style="stop-color:#181818;stop-opacity:0"
         offset="1" />
    </linearGradient>
    <linearGradient
       inkscape:collect="always"
       xlink:href="#linearGradient3702-501-757"
       id="linearGradient3086"
       gradientUnits="userSpaceOnUse"
       x1="25.058096"
       y1="47.027729"
       x2="25.058096"
       y2="39.999443" />
    <linearGradient
       id="linearGradient3702-501-757">
      <stop
         id="stop2895"
         style="stop-color:#181818;stop-opacity:0"
         offset="0" />
      <stop
         id="stop2897"
         style="stop-color:#181818;stop-opacity:1"
         offset="0.5" />
      <stop
         id="stop2899"
         style="stop-color:#181818;stop-opacity:0"
         offset="1" />
    </linearGradient>
    <linearGradient
       id="linearGradient3924">
      <stop
         id="stop3926"
         style="stop-color:#ffffff;stop-opacity:1"
         offset="0" />
      <stop
         id="stop3928"
         style="stop-color:#ffffff;stop-opacity:0.23529412"
         offset="0.06316455" />
      <stop
         id="stop3930"
         style="stop-color:#ffffff;stop-opacity:0.15686275"
         offset="0.95056331" />
      <stop
         id="stop3932"
         style="stop-color:#ffffff;stop-opacity:0.39215687"
         offset="1" />
    </linearGradient>
    <linearGradient
       y2="43"
       x2="23.99999"
       y1="4.999989"
       x1="23.99999"
       gradientTransform="matrix(0.62653538,0,0,0.62653538,0.96484586,0.96147331)"
       gradientUnits="userSpaceOnUse"
       id="linearGradient3302"
       xlink:href="#linearGradient3924"
       inkscape:collect="always" />
    <radialGradient
       cx="99.94442"
       cy="67.783485"
       r="14.491941"
       fx="99.94442"
       fy="67.783485"
       id="radialGradient3744"
       xlink:href="#linearGradient3387"
       gradientUnits="userSpaceOnUse"
       gradientTransform="matrix(1,0,0,0.6034483,0,26.879657)" />
    <linearGradient
       id="linearGradient3387">
      <stop
         id="stop3389"
         style="stop-color:#fdb377;stop-opacity:1"
         offset="0" />
      <stop
         id="stop3391"
         style="stop-color:#fdb377;stop-opacity:0.46875"
         offset="0.82258064" />
      <stop
         id="stop3393"
         style="stop-color:#fdb377;stop-opacity:0"
         offset="1" />
    </linearGradient>
    <clipPath
       id="clipPath2920">
      <path
         d="M 34.3125,6 C 31.4369,6.00634 28.50536,6.026275 25.5,6.0625 0.817792,34.559394 25.31767,52.904713 45.9375,57.34375 24.11376,43.193251 41.87467,16.803992 60.1875,6.03125 51.17102,6.0755435 42.93929,5.9809865 34.3125,6 z m 16.59375,32.46875 c 21.82374,14.150496 2.495,41.958775 -25.34375,51.3125 12.02197,-0.05906 37.91608,0.0824 49.9375,-0.0625 16.88827,-29.738529 -3.97392,-46.810961 -24.59375,-51.25 z"
         inkscape:connector-curvature="0"
         id="path2922"
         style="fill:#ff00ff;fill-opacity:1;fill-rule:evenodd;stroke:none;display:inline" />
    </clipPath>
    <linearGradient
       x1="28.274937"
       y1="31.704529"
       x2="30.996277"
       y2="5.8127055"
       id="linearGradient2916"
       xlink:href="#linearGradient3319"
       gradientUnits="userSpaceOnUse"
       spreadMethod="reflect" />
    <linearGradient
       id="linearGradient3319">
      <stop
         id="stop3321"
         style="stop-color:#fdb377;stop-opacity:1"
         offset="0" />
      <stop
         id="stop3323"
         style="stop-color:#fdb377;stop-opacity:0"
         offset="1" />
    </linearGradient>
    <filter
       x="-0.12014347"
       y="-0.1054435"
       width="1.2402869"
       height="1.210887"
       color-interpolation-filters="sRGB"
       id="filter3795">
      <feGaussianBlur
         id="feGaussianBlur3797"
         stdDeviation="2.2552138" />
    </filter>
    <linearGradient
       x1="68.954239"
       y1="64.098991"
       x2="66.271294"
       y2="89.625511"
       id="linearGradient2918"
       xlink:href="#linearGradient3319"
       gradientUnits="userSpaceOnUse"
       spreadMethod="reflect" />
    <linearGradient
       id="linearGradient3126">
      <stop
         id="stop3128"
         style="stop-color:#fdb377;stop-opacity:1"
         offset="0" />
      <stop
         id="stop3130"
         style="stop-color:#fdb377;stop-opacity:0"
         offset="1" />
    </linearGradient>
    <filter
       x="-0.096449763"
       y="-0.10544351"
       width="1.1928995"
       height="1.210887"
       color-interpolation-filters="sRGB"
       id="filter3790">
      <feGaussianBlur
         id="feGaussianBlur3792"
         stdDeviation="2.2552138" />
    </filter>
  </defs>
  <sodipodi:namedview
     id="base"
     pagecolor="#ffffff"
     bordercolor="#666666"
     borderopacity="1.0"
     inkscape:pageopacity="0.0"
     inkscape:pageshadow="2"
     inkscape:zoom="11.197802"
     inkscape:cx="16"
     inkscape:cy="8.8557408"
     inkscape:current-layer="layer1"
     showgrid="true"
     inkscape:grid-bbox="true"
     inkscape:document-units="px"
     inkscape:window-width="1094"
     inkscape:window-height="723"
     inkscape:window-x="598"
     inkscape:window-y="26"
     inkscape:window-maximized="0" />
  <metadata
     id="metadata3828">
    <rdf:RDF>
      <cc:Work
         rdf:about="">
        <dc:format>image/svg+xml</dc:format>
        <dc:type
           rdf:resource="http://purl.org/dc/dcmitype/StillImage" />
        <dc:title></dc:title>
      </cc:Work>
    </rdf:RDF>
  </metadata>
  <g
     id="layer1"
     inkscape:label="Layer 1"
     inkscape:groupmode="layer">
    <g
       style="display:inline"
       id="g2036"
       transform="matrix(0.7499997,0,0,0.45454564,-2.0000003,9.6363477)">
      <g
         style="opacity:0.4"
         id="g3712"
         transform="matrix(1.052632,0,0,1.285713,-1.263158,-13.42854)">
        <rect
           style="fill:url(#radialGradient3082);fill-opacity:1;stroke:none"
           id="rect2801"
           y="40"
           x="38"
           height="7"
           width="5" />
        <rect
           style="fill:url(#radialGradient3084);fill-opacity:1;stroke:none"
           id="rect3696"
           transform="scale(-1,-1)"
           y="-47"
           x="-10"
           height="7"
           width="5" />
        <rect
           style="fill:url(#linearGradient3086);fill-opacity:1;stroke:none"
           id="rect3700"
           y="40"
           x="10"
           height="7.0000005"
           width="28" />
      </g>
    </g>
    <rect
       style="color:#000000;fill:url(#radialGradient3066-0);fill-opacity:1;fill-rule:nonzero;stroke:url(#linearGradient3069-5);stroke-width:1.36363578;stroke-linecap:round;stroke-linejoin:round;stroke-miterlimit:4;stroke-opacity:1;stroke-dasharray:none;stroke-dashoffset:0;marker:none;visibility:visible;display:inline;overflow:visible;enable-background:accumulate"
       id="rect5505"
       y="3.0454731"
       x="3.0454538"
       ry="1.48294"
       rx="1.48294"
       height="25.909081"
       width="25.909081" />
    <g
       transform="matrix(0.291226,0,0,0.291226,1.877804,1.8752794)"
       id="layer3">
      <path
         d="m 50.804251,37.858747 c -0.238861,0.04576 -0.428904,0.244023 -0.476561,0.488057 -0.04766,0.244034 0.05664,0.484835 0.259942,0.621163 5.347945,3.467602 8.111974,7.70269 8.90302,12.267974 0.791047,4.565283 -0.399313,9.519796 -3.140968,14.375492 -5.48331,9.711394 -17.184302,18.947904 -30.976445,23.582016 -0.239511,0.09727 -0.381379,0.34066 -0.368251,0.598978 l 51.143627,0 C 84.523536,74.897823 83.546223,62.937566 77.773253,54.253019 71.968965,45.521363 61.463399,40.102152 51.042531,37.858747 c -0.07861,-0.01645 -0.159666,-0.01645 -0.23828,0 z"
         inkscape:connector-curvature="0"
         id="path3427"
         style="fill:#000000;fill-opacity:1;fill-rule:evenodd;stroke:none;display:inline" />
      <path
         d="M 24.701722,6.0241312 C 18.693287,13.064266 15.61913,19.545872 14.758933,25.391113 c -0.875827,5.95145 0.565448,11.223562 3.444234,15.684372 5.75757,8.921621 17.166627,14.636836 27.597196,16.882329 0.28575,0.04394 0.563316,-0.124927 0.671518,-0.399319 0.108201,-0.27439 0.01878,-0.582661 -0.216619,-0.754269 -5.349467,-3.468591 -8.1943,-7.625914 -9.271272,-12.090499 -1.076971,-4.464586 -0.36054,-9.277617 1.602977,-14.042726 3.927034,-9.530219 12.85906,-18.773743 21.90013,-24.0922598 0.199582,-0.1142074 0.323343,-0.3287572 0.324928,-0.55461 l -36.110303,0 z"
         inkscape:connector-curvature="0"
         id="path3309"
         style="fill:#000000;fill-opacity:1;fill-rule:evenodd;stroke:none;display:inline" />
      <path
         d="M 25.50321,6.0685 C 0.82100177,34.565394 25.310502,52.897614 45.930334,57.336651 24.106591,43.186152 41.870999,16.796873 60.183831,6.0241312 48.161863,6.0831892 37.524633,5.9236007 25.50321,6.0685 z"
         inkscape:connector-curvature="0"
         id="path3299"
         style="fill:#e72121;fill-opacity:1;fill-rule:evenodd;stroke:none;display:inline" />
      <path
         inkscape:connector-curvature="0"
         d="m 114.43636,67.783485 a 14.491941,8.7451372 0 1 1 -28.983882,0 14.491941,8.7451372 0 1 1 28.983882,0 z"
         transform="matrix(0.49015172,0.50197571,-0.49015172,0.50197571,32.614386,-36.287054)"
         id="path3301"
         style="fill:#ee0000;fill-opacity:1;fill-rule:nonzero;stroke:#000000;stroke-width:1.42553663;stroke-linecap:square;stroke-linejoin:round;stroke-miterlimit:4;stroke-opacity:1;stroke-dasharray:none;stroke-dashoffset:0;display:inline" />
      <path
         d="M 41.85783,51.701108 C 29.010244,41.69733 43.762082,15.95959 58.636196,9.1823118 37.040381,24.560994 33.598802,44.247846 41.85783,51.701108 z"
         inkscape:connector-curvature="0"
         id="path3351"
         style="opacity:0.3;fill:#ffffff;fill-opacity:1;fill-rule:evenodd;stroke:none;display:inline" />
      <path
         d="m 49.144784,39.346826 c -9.443994,-5.454719 -11.289616,-1.282267 -9.85882,5.769513 -0.371674,-3.64606 -0.04749,-9.276373 9.85882,-5.769513 z"
         inkscape:connector-curvature="0"
         id="path3353"
         style="opacity:0.3;fill:#000000;fill-opacity:1;fill-rule:evenodd;stroke:none;display:inline" />
      <path
         d="m 47.672556,56.412797 c 9.443994,5.454719 11.289616,1.282268 9.85882,-5.769513 0.371674,3.64606 0.04748,9.276373 -9.85882,5.769513 z"
         inkscape:connector-curvature="0"
         id="path3355"
         style="opacity:0.3;fill:#ffffff;fill-opacity:1;fill-rule:evenodd;stroke:none;display:inline" />
      <path
         d="M 31.959289,53.302006 C 13.139176,47.74029 3.2220705,26.685316 20.135883,10.538119 5.2604712,31.277363 17.328956,46.896526 31.959289,53.302006 z"
         inkscape:connector-curvature="0"
         id="path3357"
         style="opacity:0.3;fill:#000000;fill-opacity:1;fill-rule:evenodd;stroke:none;display:inline" />
      <path
         inkscape:connector-curvature="0"
         d="m 114.43636,67.783485 a 14.491941,8.7451372 0 1 1 -28.983882,0 14.491941,8.7451372 0 1 1 28.983882,0 z"
         transform="matrix(0.49738705,0.50938559,-0.49738705,0.50938559,32.38169,-37.5299)"
         id="path3367"
         style="fill:url(#radialGradient3744);fill-opacity:1;fill-rule:nonzero;stroke:none;display:inline" />
      <path
         d="M 75.507424,89.729651 C 92.395695,59.991122 71.541057,42.900541 50.921225,38.461502 72.744968,52.611998 53.415609,80.420295 25.57686,89.77402 37.598829,89.71496 63.486001,89.874549 75.507424,89.72965 z"
         inkscape:connector-curvature="0"
         id="path3399"
         style="fill:#e72121;fill-opacity:1;fill-rule:evenodd;stroke:none;display:inline" />
      <path
         d="M 54.993729,44.097043 C 67.841315,54.100824 51.703889,77.710043 33.712203,84.6647 56.520407,71.237163 64.118749,53.501449 54.993729,44.097043 z"
         inkscape:connector-curvature="0"
         id="path3405"
         style="opacity:0.3;fill:#000000;fill-opacity:1;fill-rule:evenodd;stroke:none;display:inline" />
      <path
         d="M 64.89227,42.496146 C 83.712385,48.057864 90.858314,71.063977 78.101266,88.098057 90.032301,66.294557 79.522602,48.901631 64.89227,42.496146 z"
         inkscape:connector-curvature="0"
         id="path3407"
         style="opacity:0.2;fill:#ffffff;fill-opacity:1;fill-rule:evenodd;stroke:none;display:inline" />
      <g
         clip-path="url(#clipPath2920)"
         id="g2912"
         style="opacity:0.8">
        <path
           inkscape:connector-curvature="0"
           d="M 52.40625,8.46875 C 43.830477,8.4559939 35.514175,8.4080741 26.6875,8.5 c -5.453186,6.520741 -8.141163,12.350404 -8.875,17.34375 -0.766103,5.212895 0.432799,9.633263 2.96875,13.5625 3.421535,5.301372 9.494091,9.448987 16.0625,12.3125 C 35.547702,49.716692 34.526525,47.619569 34,45.4375 32.73062,40.17683 33.60744,34.700747 35.75,29.5 39.044845,21.50225 45.319675,14.064812 52.40625,8.46875 z"
           id="path2907"
           style="fill:url(#linearGradient2916);fill-opacity:1;fill-rule:evenodd;stroke:none;display:inline;filter:url(#filter3795)" />
        <path
           inkscape:connector-curvature="0"
           d="m 59.09375,43.3125 c 1.603818,2.329455 2.642147,4.862645 3.09375,7.46875 0.927705,5.353589 -0.500792,10.930861 -3.46875,16.1875 -4.542518,8.04539 -12.742331,15.469886 -22.78125,20.6875 12.720504,0.0024 28.507282,0.03673 38.21875,-0.0625 C 81.665806,73.757614 80.613523,63.467116 75.5,55.78125 71.806878,50.230313 65.771206,46.072542 59.09375,43.3125 z"
           id="path2903"
           style="fill:url(#linearGradient2918);fill-opacity:1;fill-rule:evenodd;stroke:none;display:inline;filter:url(#filter3790)" />
      </g>
    </g>
    <rect
       style="opacity:0.5;fill:none;stroke:url(#linearGradient3302);stroke-width:1.36363566;stroke-linecap:round;stroke-linejoin:round;stroke-miterlimit:4;stroke-opacity:1;stroke-dasharray:none;stroke-dashoffset:0"
       id="rect6741-9"
       y="4.407413"
       x="4.4107881"
       height="23.181808"
       width="23.181808" />
  </g>
</svg>
