<?xml version="1.0" encoding="UTF-8" standalone="no"?>
<!-- Created with Inkscape (http://www.inkscape.org/) -->

<svg
   xmlns:dc="http://purl.org/dc/elements/1.1/"
   xmlns:cc="http://creativecommons.org/ns#"
   xmlns:rdf="http://www.w3.org/1999/02/22-rdf-syntax-ns#"
   xmlns:svg="http://www.w3.org/2000/svg"
   xmlns="http://www.w3.org/2000/svg"
   xmlns:xlink="http://www.w3.org/1999/xlink"
   xmlns:sodipodi="http://sodipodi.sourceforge.net/DTD/sodipodi-0.dtd"
   xmlns:inkscape="http://www.inkscape.org/namespaces/inkscape"
   version="1.1"
   width="24"
   height="24"
   id="svg2422"
   inkscape:version="0.48.3.1 r9886"
   sodipodi:docname="stock_scores32.svg">
  <metadata
     id="metadata87">
    <rdf:RDF>
      <cc:Work
         rdf:about="">
        <dc:format>image/svg+xml</dc:format>
        <dc:type
           rdf:resource="http://purl.org/dc/dcmitype/StillImage" />
        <dc:title></dc:title>
      </cc:Work>
    </rdf:RDF>
  </metadata>
  <sodipodi:namedview
     pagecolor="#ffffff"
     bordercolor="#666666"
     borderopacity="1"
     objecttolerance="10"
     gridtolerance="10"
     guidetolerance="10"
     inkscape:pageopacity="0"
     inkscape:pageshadow="2"
     inkscape:window-width="807"
     inkscape:window-height="574"
     id="namedview85"
     showgrid="false"
     inkscape:zoom="4.9166667"
     inkscape:cx="24"
     inkscape:cy="24"
     inkscape:window-x="429"
     inkscape:window-y="74"
     inkscape:window-maximized="0"
     inkscape:current-layer="svg2422" />
  <defs
     id="defs2424">
    <linearGradient
       id="linearGradient4566">
      <stop
         id="stop4568"
         style="stop-color:#ffffff;stop-opacity:1"
         offset="0" />
      <stop
         id="stop4570"
         style="stop-color:#ffffff;stop-opacity:0"
         offset="1" />
    </linearGradient>
    <linearGradient
       id="linearGradient4556">
      <stop
         id="stop4558"
         style="stop-color:#ffffff;stop-opacity:1"
         offset="0" />
      <stop
         id="stop4560"
         style="stop-color:#ffffff;stop-opacity:0"
         offset="1" />
    </linearGradient>
    <linearGradient
       id="linearGradient4546">
      <stop
         id="stop4548"
         style="stop-color:#ffffff;stop-opacity:1"
         offset="0" />
      <stop
         id="stop4550"
         style="stop-color:#ffffff;stop-opacity:0"
         offset="1" />
    </linearGradient>
    <linearGradient
       id="linearGradient4536">
      <stop
         id="stop4538"
         style="stop-color:#ffffff;stop-opacity:1"
         offset="0" />
      <stop
         id="stop4540"
         style="stop-color:#ffffff;stop-opacity:0"
         offset="1" />
    </linearGradient>
    <linearGradient
       id="linearGradient4526">
      <stop
         id="stop4528"
         style="stop-color:#ffffff;stop-opacity:1"
         offset="0" />
      <stop
         id="stop4530"
         style="stop-color:#ffffff;stop-opacity:0"
         offset="1" />
    </linearGradient>
    <linearGradient
       id="linearGradient4516">
      <stop
         id="stop4518"
         style="stop-color:#ffffff;stop-opacity:1"
         offset="0" />
      <stop
         id="stop4520"
         style="stop-color:#ffffff;stop-opacity:0"
         offset="1" />
    </linearGradient>
    <linearGradient
       id="linearGradient4506">
      <stop
         id="stop4508"
         style="stop-color:#ffffff;stop-opacity:1"
         offset="0" />
      <stop
         id="stop4510"
         style="stop-color:#ffffff;stop-opacity:0"
         offset="1" />
    </linearGradient>
    <linearGradient
       id="linearGradient4496">
      <stop
         id="stop4498"
         style="stop-color:#ffffff;stop-opacity:1"
         offset="0" />
      <stop
         id="stop4500"
         style="stop-color:#ffffff;stop-opacity:0"
         offset="1" />
    </linearGradient>
    <linearGradient
       id="linearGradient4374">
      <stop
         id="stop4376"
         style="stop-color:#545454;stop-opacity:1"
         offset="0" />
      <stop
         id="stop4378"
         style="stop-color:#000000;stop-opacity:1"
         offset="1" />
    </linearGradient>
    <linearGradient
       id="linearGradient4366">
      <stop
         id="stop4368"
         style="stop-color:#b5b5b5;stop-opacity:1"
         offset="0" />
      <stop
         id="stop4370"
         style="stop-color:#000000;stop-opacity:1"
         offset="1" />
    </linearGradient>
    <linearGradient
       id="linearGradient4103-96-5">
      <stop
         id="stop4105-2-4"
         style="stop-color:#f4f4f4;stop-opacity:1"
         offset="0" />
      <stop
         id="stop4107-1-4"
         style="stop-color:#bebebe;stop-opacity:1"
         offset="1" />
    </linearGradient>
    <linearGradient
       id="linearGradient6493-1-9">
      <stop
         id="stop6495-7-3"
         style="stop-color:#c4c4c4;stop-opacity:1"
         offset="0" />
      <stop
         id="stop6497-5-6"
         style="stop-color:#8c8c8c;stop-opacity:1"
         offset="1" />
    </linearGradient>
    <radialGradient
       cx="20.038782"
       cy="12.610249"
       r="22.463524"
       fx="20.038782"
       fy="12.610249"
       id="radialGradient3521"
       xlink:href="#linearGradient4103-96-5"
       gradientUnits="userSpaceOnUse"
       gradientTransform="matrix(1.0050925,-0.02583241,0.01879435,0.73175186,-10.664016,-4.071354)" />
    <linearGradient
       x1="29.01346"
       y1="29"
       x2="29.75"
       y2="50"
       id="linearGradient3523"
       xlink:href="#linearGradient6493-1-9"
       gradientUnits="userSpaceOnUse"
       gradientTransform="matrix(0.51478074,0,0,0.51478074,-2.732103,-4.1182463)" />
    <linearGradient
       id="linearGradient8838-78-4">
      <stop
         id="stop8840-5-4"
         style="stop-color:#000000;stop-opacity:1"
         offset="0" />
      <stop
         id="stop8842-7-3"
         style="stop-color:#000000;stop-opacity:0"
         offset="1" />
    </linearGradient>
    <radialGradient
       cx="62.625"
       cy="4.625"
       r="10.625"
       fx="62.625"
       fy="4.625"
       id="radialGradient4343"
       xlink:href="#linearGradient8838-78-4"
       gradientUnits="userSpaceOnUse"
       gradientTransform="matrix(0.9915816,0,0,0.37037515,-49.8203,18.351771)" />
    <linearGradient
       x1="75.436081"
       y1="22.037416"
       x2="88.948273"
       y2="29.803606"
       id="linearGradient4372"
       xlink:href="#linearGradient4366"
       gradientUnits="userSpaceOnUse"
       gradientTransform="matrix(0.51478074,0,0,0.51478074,-26.103246,-0.1233261)" />
    <linearGradient
       x1="75.436081"
       y1="25.345238"
       x2="88.948273"
       y2="29.803606"
       id="linearGradient4380"
       xlink:href="#linearGradient4374"
       gradientUnits="userSpaceOnUse"
       gradientTransform="matrix(0.51478074,0,0,0.51478074,-26.103246,-0.1233261)" />
    <linearGradient
       x1="69.771187"
       y1="5.2853189"
       x2="84.601692"
       y2="5.2853189"
       id="linearGradient4390"
       xlink:href="#linearGradient4374"
       gradientUnits="userSpaceOnUse"
       gradientTransform="matrix(0.51478074,0,0,0.51478074,-25.344713,-0.13602832)" />
    <linearGradient
       x1="69.771187"
       y1="5.2853189"
       x2="84.601692"
       y2="5.2853189"
       id="linearGradient4400"
       xlink:href="#linearGradient4366"
       gradientUnits="userSpaceOnUse"
       gradientTransform="matrix(0.51478074,0,0,0.51478074,-25.344713,-0.13602832)" />
    <linearGradient
       id="linearGradient4366-6">
      <stop
         id="stop4368-6"
         style="stop-color:#b5b5b5;stop-opacity:1"
         offset="0" />
      <stop
         id="stop4370-1"
         style="stop-color:#000000;stop-opacity:1"
         offset="1" />
    </linearGradient>
    <linearGradient
       id="linearGradient4374-8">
      <stop
         id="stop4376-2"
         style="stop-color:#545454;stop-opacity:1"
         offset="0" />
      <stop
         id="stop4378-9"
         style="stop-color:#000000;stop-opacity:1"
         offset="1" />
    </linearGradient>
    <linearGradient
       x1="87.763306"
       y1="24.518595"
       x2="73.057274"
       y2="28.069227"
       id="linearGradient4423"
       xlink:href="#linearGradient4366-6"
       gradientUnits="userSpaceOnUse"
       gradientTransform="matrix(-0.40010881,-0.23815033,-0.23338135,0.40828475,44.621065,19.164997)" />
    <linearGradient
       x1="87.763306"
       y1="24.518595"
       x2="73.057274"
       y2="28.069227"
       id="linearGradient4425-6"
       xlink:href="#linearGradient4374-8"
       gradientUnits="userSpaceOnUse"
       gradientTransform="matrix(-0.40010881,-0.23815033,-0.23338135,0.40828475,44.621065,19.164997)" />
    <linearGradient
       x1="18.822033"
       y1="31.322035"
       x2="17.644068"
       y2="40.474575"
       id="linearGradient4464"
       xlink:href="#linearGradient4374-8"
       gradientUnits="userSpaceOnUse"
       gradientTransform="matrix(0.51478074,0,0,0.51478074,-0.53053705,-0.86893658)" />
    <linearGradient
       x1="18.291357"
       y1="21.101694"
       x2="27.661016"
       y2="30.661016"
       id="linearGradient4502"
       xlink:href="#linearGradient4496"
       gradientUnits="userSpaceOnUse"
       gradientTransform="matrix(0.51478074,0,0,0.51478074,-0.53053705,-0.86893672)" />
    <linearGradient
       x1="25.220339"
       y1="26.64407"
       x2="37.932205"
       y2="38.237289"
       id="linearGradient4512"
       xlink:href="#linearGradient4506"
       gradientUnits="userSpaceOnUse"
       gradientTransform="matrix(0.51478074,0,0,0.51478074,-0.53053705,-0.86893672)" />
    <linearGradient
       x1="21.050848"
       y1="11.008474"
       x2="30.254238"
       y2="25.423729"
       id="linearGradient4522"
       xlink:href="#linearGradient4516"
       gradientUnits="userSpaceOnUse"
       gradientTransform="matrix(0.51478074,0,0,0.51478074,-0.53053705,-0.86893672)" />
    <linearGradient
       x1="31.627119"
       y1="24.813559"
       x2="44.745762"
       y2="28.576271"
       id="linearGradient4532"
       xlink:href="#linearGradient4526"
       gradientUnits="userSpaceOnUse"
       gradientTransform="matrix(0.51478074,0,0,0.51478074,-0.53053705,-0.86893672)" />
    <linearGradient
       x1="12.508474"
       y1="23.135592"
       x2="9.6101694"
       y2="36.305084"
       id="linearGradient4542"
       xlink:href="#linearGradient4536"
       gradientUnits="userSpaceOnUse"
       gradientTransform="matrix(0.51478074,0,0,0.51478074,-0.53053705,-0.86893672)" />
    <linearGradient
       x1="15.355932"
       y1="9.3813591"
       x2="17.584753"
       y2="10.963361"
       id="linearGradient4552"
       xlink:href="#linearGradient4546"
       gradientUnits="userSpaceOnUse"
       gradientTransform="matrix(0.51478074,0,0,0.51478074,-0.53053705,-0.86893672)" />
    <linearGradient
       x1="31.728813"
       y1="15.711864"
       x2="43.881355"
       y2="15.711864"
       id="linearGradient4562"
       xlink:href="#linearGradient4556"
       gradientUnits="userSpaceOnUse"
       gradientTransform="matrix(0.51478074,0,0,0.51478074,-0.53053705,-0.86893672)" />
    <linearGradient
       x1="7.1949153"
       y1="15.48305"
       x2="11.898306"
       y2="25.70339"
       id="linearGradient4572"
       xlink:href="#linearGradient4566"
       gradientUnits="userSpaceOnUse"
       gradientTransform="matrix(0.51478074,0,0,0.51478074,-0.53053705,-0.86893672)" />
  </defs>
  <path
     d="M 22.813056,20.064758 C 22.813056,22.238132 18.096129,24 12.277501,24 6.4588743,24 1.7419468,22.238132 1.7419468,20.064758 c 0,-2.173374 4.7169275,-3.935241 10.5355542,-3.935241 5.818628,0 10.535555,1.761867 10.535555,3.935241 l 0,0 z"
     id="path8836-8"
     style="opacity:0.4;fill:url(#radialGradient4343);fill-opacity:1;fill-rule:evenodd;stroke:none;stroke-width:0.49589729;marker:none;visibility:visible;display:inline;overflow:visible"
     inkscape:connector-curvature="0" />
  <path
     d="m 22.75002,10.810395 c 0,5.825523 -4.724859,10.55348 -10.546555,10.55348 -5.8216967,0 -10.5465495,-4.727957 -10.5465495,-10.55348 0,-5.8255205 4.7248528,-10.5534795 10.5465495,-10.5534795 5.821696,0 10.546555,4.727959 10.546555,10.5534795 z"
     id="path1307-0"
     style="fill:url(#radialGradient3521);fill-opacity:1;stroke:url(#linearGradient3523);stroke-width:0.51383102;stroke-linecap:round;stroke-linejoin:round;stroke-miterlimit:4;stroke-opacity:1;stroke-dasharray:none;stroke-dashoffset:0"
     inkscape:connector-curvature="0" />
  <path
     d="m 12.987184,12.296355 c 0,0 2.534723,-2.8219162 3.331571,-3.0354315 0.796848,-0.2135145 3.109467,2.4431525 3.109467,2.4431525 0,0 -1.111853,4.217688 -1.628769,4.516129 -0.516915,0.298442 -3.516658,0.555262 -3.849815,0.222105 -0.333157,-0.333157 -0.888418,-4.07192 -0.962454,-4.145955 z"
     id="path4364"
     style="fill:url(#linearGradient4372);fill-opacity:1;stroke:url(#linearGradient4380);stroke-width:0.5147807px;stroke-linecap:butt;stroke-linejoin:miter;stroke-opacity:1"
     inkscape:connector-curvature="0" />
  <path
     d="m 11.248345,3.0050062 c 0,0 1.401569,0.096748 2.408127,0.3664541 1.006557,0.2697062 2.146373,1.2040636 2.146373,1.2040636 l 2.565179,-1.7537447 c 0,0 -1.884621,-1.4919916 -3.402788,-1.85844552 C 13.481073,0.51134843 12.23483,0.4134171 10.82954,1.0156837 l 0.418805,1.9893224 z"
     id="path4382"
     style="fill:url(#linearGradient4400);fill-opacity:1;stroke:url(#linearGradient4390);stroke-width:0.5147807px;stroke-linecap:butt;stroke-linejoin:miter;stroke-opacity:1"
     inkscape:connector-curvature="0" />
  <path
     d="m 8.6077737,10.931137 c 0,0 -0.6907455,-3.4107542 -1.2132902,-3.9487393 -0.5225437,-0.5379855 -3.524434,0.4992048 -3.524434,0.4992048 0,0 -1.0479564,3.8595185 -0.7814901,4.3353575 0.2664668,0.475839 2.4815583,2.067285 2.8915415,1.957177 0.4099841,-0.110108 2.5365643,-2.818531 2.6276728,-2.843 z"
     id="path4364-5"
     style="fill:url(#linearGradient4423);fill-opacity:1;stroke:url(#linearGradient4425-6);stroke-width:0.46790826px;stroke-linecap:butt;stroke-linejoin:miter;stroke-opacity:1"
     inkscape:connector-curvature="0" />
  <path
     d="m 5.5148189,18.470906 1.0335859,-0.887398 c 0,0 1.4285919,0.939522 2.0964047,1.0968 0.6678135,0.157279 2.3459765,0.263233 2.3459765,0.263233 l 0.638236,1.907322 -1.378113,-0.176397 C 9.193883,20.464993 7.9579692,20.014143 6.881998,19.386698 L 5.5148189,18.470906 z"
     id="path4456"
     style="fill:url(#linearGradient4464);fill-opacity:1;stroke:#000000;stroke-width:0.46015853px;stroke-linecap:butt;stroke-linejoin:miter;stroke-opacity:1"
     inkscape:connector-curvature="0" />
  <path
     d="m 21.90204,7.8675075 0.129561,1.7398208 0.407192,0.9624537 c 0,0 0.01298,-1.1979537 -0.09254,-1.591751 C 22.240732,8.5842345 21.90204,7.8304905 21.90204,7.8675075 z"
     id="path4466"
     style="fill:#000000;fill-opacity:1;stroke:none"
     inkscape:connector-curvature="0" />
  <path
     d="m 19.940932,17.678531 -0.87906,0.350676 -1.196963,1.460541 c 0,0 1.04529,-0.585344 1.334231,-0.87296 0.28894,-0.287616 0.773892,-0.956692 0.741792,-0.938257 z"
     id="path4466-6"
     style="fill:#000000;fill-opacity:1;stroke:none"
     inkscape:connector-curvature="0" />
  <path
     d="m 2.0318351,12.573787 0.2415766,0.522682 0.1307435,1.025355 c 0,0 -0.2235496,-0.561434 -0.2383796,-0.770311 -0.01483,-0.208877 -0.1563429,-0.723653 -0.1339405,-0.777726 z"
     id="path4490"
     style="fill:#000000;fill-opacity:1;stroke:none"
     inkscape:connector-curvature="0" />
  <path
     d="M 3.5969092,4.9801462 4.4853281,4.5359368 5.8549737,2.6850643 4.5408544,3.8140967 C 4.3068722,4.0151232 4.0411187,4.4433931 3.9670834,4.480411 3.8930487,4.5174287 3.5784003,4.9801462 3.5969092,4.9801462 z"
     id="path4492"
     style="fill:#000000;fill-opacity:1;stroke:none"
     inkscape:connector-curvature="0" />
  <path
     d="m 6.0585694,13.993896 c -0.02959,1.326816 0.5182446,3.405606 0.5182446,3.405606 0,0 1.1803095,0.779477 1.844599,0.996576 0.8538615,0.279054 2.66988,0.366455 2.66988,0.366455 0,0 0.811434,-0.235578 1.465816,-0.88996 0.654383,-0.654383 1.151713,-1.361116 1.151713,-1.361116 L 12.714161,12.27106 8.8402175,11.066996 c 0,0 -2.544724,2.919956 -2.7816481,2.9269 z"
     id="path4494"
     style="fill:url(#linearGradient4502);fill-opacity:1;stroke:none"
     inkscape:connector-curvature="0" />
  <path
     d="m 11.195994,18.814883 2.565179,-2.041673 1.83227,0.05235 2.094023,-0.314104 0.366454,-0.05235 0.942311,1.465817 -1.047012,1.413466 -1.518166,0.88996 -1.570518,0.575856 -2.094023,0.314103 -0.83761,0.05235 -0.732908,-2.355776 z"
     id="path4504"
     style="fill:url(#linearGradient4512);fill-opacity:1;stroke:none"
     inkscape:connector-curvature="0" />
  <path
     d="m 7.6885045,6.7742482 c 0.1455278,0.2192858 1.151713,4.1880478 1.151713,4.1880478 l 3.8346805,1.256413 2.918545,-2.8792822 0.44498,-0.2355773 0.261753,-0.091614 c 0,0 -0.45681,-4.019524 -0.523506,-4.1487834 C 15.649661,4.617302 14.736936,3.9367502 13.604121,3.6332132 12.471306,3.3296762 11.065118,3.2405838 11.065118,3.2405838 c 0,0 -2.5153208,1.3061773 -3.3766135,3.5336644 z"
     id="path4514"
     style="fill:url(#linearGradient4522);fill-opacity:1;stroke:none"
     inkscape:connector-curvature="0" />
  <path
     d="m 17.975394,16.432931 1.047012,1.596693 0.863785,-0.366454 c 0,0 0.811434,-1.020836 1.099363,-1.439641 0.287928,-0.418805 0.759083,-1.387291 0.785258,-1.491991 0.02618,-0.104702 0.471155,-1.622869 0.471155,-1.622869 l 0.261753,-1.701394 -0.05235,-0.837609 -0.444979,-0.9161355 -2.277251,2.0678485 -0.471156,1.649044 -0.366453,1.177887 -0.523506,1.28259 -0.314104,0.471155 -0.07853,0.130876 z"
     id="path4524"
     style="fill:url(#linearGradient4532);fill-opacity:1;stroke:none"
     inkscape:connector-curvature="0" />
  <path
     d="m 2.3225698,13.003968 0.5496812,-1.073187 0.9423105,0.968486 0.8899601,0.497331 0.8114339,0.49733 c 0,0 0.482922,0.157262 0.4973307,0.104701 0.065215,1.731459 0.4973306,3.324262 0.4973306,3.324262 L 5.2280273,18.422253 4.2071908,17.322891 3.4742826,16.27588 2.9507768,15.255044 2.4534462,14.077155 2.3225698,13.003968 z"
     id="path4534"
     style="fill:url(#linearGradient4542);fill-opacity:1;stroke:none"
     inkscape:connector-curvature="0" />
  <path
     d="m 3.7098603,7.1930532 2.8269315,-0.628207 0.6020317,0.026177 0.287928,0.052351 L 7.6099788,6.8266004 11.038942,3.292936 10.515436,0.83245838 10.253684,0.7277571 8.6046402,1.1203866 7.531453,1.6177173 6.5106168,2.1673986 5.7515331,2.7432548 4.495119,4.5493499 3.7098603,7.1930548 z"
     id="path4544"
     style="fill:url(#linearGradient4552);fill-opacity:1;stroke:none"
     inkscape:connector-curvature="0" />
  <path
     d="m 15.802845,4.8372765 c 0.394595,1.360301 0.523506,4.0833458 0.523506,4.0833458 l 0.471156,0.1047015 0.549681,0.314103 2.329601,2.2772502 L 22.05874,9.6273548 21.954039,7.664208 21.692286,6.7742482 20.854677,5.2037309 20.043243,4.1043685 19.179458,3.1882333 18.813004,2.8217792 c 0,0 -2.99169,1.952692 -3.010159,2.0154973 z"
     id="path4554"
     style="fill:url(#linearGradient4562);fill-opacity:1;stroke:none"
     inkscape:connector-curvature="0" />
  <path
     d="M 2.2440439,12.977793 2.872251,11.930781 2.7937251,11.642852 3.3172309,8.5279928 3.6575097,7.3239293 4.4427684,4.6278746 3.7098603,4.9419778 2.9246015,6.4077944 2.4534462,7.5071565 2.1131674,8.7373958 1.9037651,9.8891085 l 0,1.0470115 0,1.047011 0.3402788,0.994662 z"
     id="path4564"
     style="fill:url(#linearGradient4572);fill-opacity:1;stroke:none"
     inkscape:connector-curvature="0" />
</svg>
