<?xml version="1.0" encoding="UTF-8" standalone="no"?>
<!-- Created with Inkscape (http://www.inkscape.org/) -->

<svg
   xmlns:dc="http://purl.org/dc/elements/1.1/"
   xmlns:cc="http://creativecommons.org/ns#"
   xmlns:rdf="http://www.w3.org/1999/02/22-rdf-syntax-ns#"
   xmlns:svg="http://www.w3.org/2000/svg"
   xmlns="http://www.w3.org/2000/svg"
   xmlns:sodipodi="http://sodipodi.sourceforge.net/DTD/sodipodi-0.dtd"
   xmlns:inkscape="http://www.inkscape.org/namespaces/inkscape"
   id="svg3833"
   height="22"
   width="22"
   version="1.1"
   inkscape:version="0.91 r"
   sodipodi:docname="dropboxstatus-idle.svg">
  <defs
     id="defs8" />
  <sodipodi:namedview
     pagecolor="#ffffff"
     bordercolor="#666666"
     borderopacity="1"
     objecttolerance="10"
     gridtolerance="10"
     guidetolerance="10"
     inkscape:pageopacity="0"
     inkscape:pageshadow="2"
     inkscape:window-width="1855"
     inkscape:window-height="1056"
     id="namedview6"
     showgrid="true"
     inkscape:zoom="40.768931"
     inkscape:cx="9.5108524"
     inkscape:cy="11.053608"
     inkscape:window-x="65"
     inkscape:window-y="24"
     inkscape:window-maximized="1"
     inkscape:current-layer="svg3833">
    <inkscape:grid
       type="xygrid"
       id="grid2985" />
  </sodipodi:namedview>
  <metadata
     id="metadata13">
    <rdf:RDF>
      <cc:Work
         rdf:about="">
        <dc:format>image/svg+xml</dc:format>
        <dc:type
           rdf:resource="http://purl.org/dc/dcmitype/StillImage" />
        <dc:title></dc:title>
      </cc:Work>
    </rdf:RDF>
  </metadata>
  <g
     id="layer9"
     style="display:inline;fill:#ffffff;fill-opacity:1"
     transform="matrix(1.0058597,0,0,1.0061678,-593.49245,528.62707)">
    <path
       inkscape:connector-curvature="0"
       d="m 600.90645,-521.90625 c -0.5255,-0.0286 -1.03823,0.28305 -1.4375,0.96875 l -6.25,11.59375 c -0.53347,0.96339 0.0482,2.34375 1.09375,2.34375 l 13.15625,0 c 0.98172,0 1.90311,-1.15939 1.21875,-2.34375 l -6.3125,-11.53125 c -0.39872,-0.64617 -0.94325,-1.00262 -1.46875,-1.03125 z M 600.8752,-518 c 0.10791,-0.0187 0.23472,-6.3e-4 0.34375,0.0312 0.44133,0.10154 0.6411,0.58205 0.5625,1 -0.15418,1.76507 -0.36749,3.54524 -0.5,5.3125 l -0.5,0 c -0.15975,-1.84029 -0.37484,-3.66689 -0.5625,-5.5 0,-0.0574 -0.01,-0.1309 0,-0.1875 0.0435,-0.33826 0.33251,-0.6001 0.65625,-0.65625 z m -0.0625,7.46875 c 0.36065,-0.0841 0.76666,0.0936 0.9375,0.4375 0.25446,0.44359 -0.003,1.06078 -0.5,1.1875 -0.51262,0.17299 -1.11355,-0.26685 -1.09375,-0.8125 -0.006,-0.25485 0.11827,-0.49668 0.3125,-0.65625 0.0961,-0.0877 0.22353,-0.12823 0.34375,-0.15625 z"
       id="path18112"
       style="color:#bebebe;display:inline;overflow:visible;visibility:visible;fill:#ffffff;fill-opacity:1;fill-rule:nonzero;stroke:none;stroke-width:1.78124988;marker:none;enable-background:new" />
  </g>
</svg>
