<?xml version="1.0" encoding="UTF-8" standalone="no"?>
<!-- Created with Inkscape (http://www.inkscape.org/) -->

<svg
   xmlns:dc="http://purl.org/dc/elements/1.1/"
   xmlns:cc="http://creativecommons.org/ns#"
   xmlns:rdf="http://www.w3.org/1999/02/22-rdf-syntax-ns#"
   xmlns:svg="http://www.w3.org/2000/svg"
   xmlns="http://www.w3.org/2000/svg"
   xmlns:xlink="http://www.w3.org/1999/xlink"
   xmlns:sodipodi="http://sodipodi.sourceforge.net/DTD/sodipodi-0.dtd"
   xmlns:inkscape="http://www.inkscape.org/namespaces/inkscape"
   version="1.1"
   width="22"
   height="22"
   id="svg3738"
   inkscape:version="0.91 r"
   sodipodi:docname="transmission-tray-icon.svg">
  <metadata
     id="metadata13">
    <rdf:RDF>
      <cc:Work
         rdf:about="">
        <dc:format>image/svg+xml</dc:format>
        <dc:type
           rdf:resource="http://purl.org/dc/dcmitype/StillImage" />
        <dc:title></dc:title>
      </cc:Work>
    </rdf:RDF>
  </metadata>
  <sodipodi:namedview
     pagecolor="#ffffff"
     bordercolor="#666666"
     borderopacity="1"
     objecttolerance="10"
     gridtolerance="10"
     guidetolerance="10"
     inkscape:pageopacity="0"
     inkscape:pageshadow="2"
     inkscape:window-width="1855"
     inkscape:window-height="1056"
     id="namedview11"
     showgrid="false"
     inkscape:zoom="13.832229"
     inkscape:cx="3.9096966"
     inkscape:cy="11"
     inkscape:window-x="65"
     inkscape:window-y="24"
     inkscape:window-maximized="1"
     inkscape:current-layer="svg3738" />
  <defs
     id="defs3740">
    <linearGradient
       x1="40.497971"
       y1="6.1016951"
       x2="40.497971"
       y2="21.101694"
       id="linearGradient2860-8"
       xlink:href="#linearGradient3587-6-5-9"
       gradientUnits="userSpaceOnUse"
       gradientTransform="translate(-28.497469,6.8983051)" />
    <linearGradient
       id="linearGradient3587-6-5-9">
      <stop
         id="stop3589-9-2-0"
         style="stop-color:#000000;stop-opacity:1"
         offset="0" />
      <stop
         id="stop3591-7-4-6"
         style="stop-color:#363636;stop-opacity:1"
         offset="1" />
    </linearGradient>
    <linearGradient
       id="linearGradient3678">
      <stop
         style="stop-color:#ffffff;stop-opacity:1;"
         offset="0"
         id="stop3680" />
      <stop
         style="stop-color:#e6e6e6;stop-opacity:1;"
         offset="1"
         id="stop3682" />
    </linearGradient>
    <linearGradient
       gradientTransform="matrix(-0.4100229,0,0,0.5447147,78.029995,-3.8459034)"
       gradientUnits="userSpaceOnUse"
       xlink:href="#linearGradient3678"
       id="linearGradient2388"
       y2="38.279892"
       x2="159.68553"
       y1="14.403693"
       x1="159.68553" />
  </defs>
  <g
     id="layer10"
     transform="matrix(1.1538462,0,0,1.1538462,-162.00001,-388.15386)"
     style="fill:#ffffff;fill-opacity:1">
    <g
       id="layer1-6"
       transform="translate(142,338)"
       style="fill:#ffffff;fill-opacity:1">
      <path
         inkscape:connector-curvature="0"
         id="path3520"
         style="fill:#ffffff;fill-opacity:1"
         d="M 2,4 C 1.5,4 1,4.5 1,5 l 0,4 c 0,0.5 0.5,1 1,1 l 1,0 0,-2 10,0 0,2 1,0 c 0.5,0 1,-0.5 1,-1 L 15,5 C 15,4.5 14.5,4 14,4 L 2,4 Z" />
      <path
         inkscape:connector-curvature="0"
         id="path4804"
         style="fill:#ffffff;fill-opacity:1"
         d="M 4,1 4,3 12,3 12,1 4,1 Z" />
      <path
         inkscape:connector-curvature="0"
         id="path4806"
         style="fill:#ffffff;fill-opacity:1"
         d="m 4,9 0,5 8,0 0,-5 -8,10e-8 z m 1,1 6,0 0,1 -6,0 0,-1 z m 0,2 5,0 0,1 -5,0 0,-1 z" />
    </g>
  </g>
</svg>
