<?xml version="1.0" encoding="UTF-8" standalone="no"?>
<svg
   xmlns:dc="http://purl.org/dc/elements/1.1/"
   xmlns:cc="http://creativecommons.org/ns#"
   xmlns:rdf="http://www.w3.org/1999/02/22-rdf-syntax-ns#"
   xmlns:svg="http://www.w3.org/2000/svg"
   xmlns="http://www.w3.org/2000/svg"
   xmlns:sodipodi="http://sodipodi.sourceforge.net/DTD/sodipodi-0.dtd"
   xmlns:inkscape="http://www.inkscape.org/namespaces/inkscape"
   height="16"
   id="svg7384"
   version="1.1"
   width="16"
   inkscape:version="0.91 r"
   sodipodi:docname="gtk-spell-check.svg">
  <sodipodi:namedview
     pagecolor="#ffffff"
     bordercolor="#666666"
     borderopacity="1"
     objecttolerance="10"
     gridtolerance="10"
     guidetolerance="10"
     inkscape:pageopacity="0"
     inkscape:pageshadow="2"
     inkscape:window-width="1470"
     inkscape:window-height="1003"
     id="namedview20"
     showgrid="false"
     inkscape:zoom="14.75"
     inkscape:cx="-15.234647"
     inkscape:cy="8"
     inkscape:window-x="75"
     inkscape:window-y="34"
     inkscape:window-maximized="0"
     inkscape:current-layer="layer12" />
  <metadata
     id="metadata90">
    <rdf:RDF>
      <cc:Work
         rdf:about="">
        <dc:format>image/svg+xml</dc:format>
        <dc:type
           rdf:resource="http://purl.org/dc/dcmitype/StillImage" />
        <dc:title>elementary Symbolic Icon Theme</dc:title>
      </cc:Work>
    </rdf:RDF>
  </metadata>
  <title
     id="title9167">elementary Symbolic Icon Theme</title>
  <defs
     id="defs7386">
    <filter
       color-interpolation-filters="sRGB"
       id="filter7554">
      <feBlend
         id="feBlend7556"
         in2="BackgroundImage"
         mode="darken" />
    </filter>
    <filter
       color-interpolation-filters="sRGB"
       id="filter7554-7">
      <feBlend
         id="feBlend7556-6"
         in2="BackgroundImage"
         mode="darken" />
    </filter>
  </defs>
  <g
     id="layer9"
     label="status"
     style="display:inline;fill:#353945;fill-opacity:1"
     transform="translate(-493.0004,-48)" />
  <g
     id="layer10"
     style="display:inline;fill:#353945;fill-opacity:1"
     transform="translate(-493.0004,-48)" />
  <g
     id="layer13"
     style="display:inline;fill:#353945;fill-opacity:1"
     transform="translate(-493.0004,-48)" />
  <g
     id="layer14"
     transform="translate(-493.0004,-48)"
     style="fill:#353945;fill-opacity:1" />
  <g
     id="layer15"
     style="display:inline;fill:#353945;fill-opacity:1"
     transform="translate(-493.0004,-48)" />
  <g
     id="g71291"
     style="display:inline;fill:#353945;fill-opacity:1"
     transform="translate(-493.0004,-48)" />
  <g
     id="layer12"
     style="display:inline;fill:#353945;fill-opacity:1"
     transform="translate(-493.0004,-48)">
    <path
       d="m 496.32208,51.551903 0,2.103806 1.96061,0 c -0.0568,0 0.0964,0.179915 0.0964,0.09862 l 0,0.986159 -1.02852,0 c -1.76481,0 -3.1245,1.167466 -3.14983,2.596886 -0.0127,0.714711 0.32861,1.423468 0.89995,1.906575 C 495.672,59.727051 496.4476,60 497.35054,60 l 2.05704,0 1.02852,0 0,-1.051903 0,-5.193772 c 0,-1.231975 -0.92249,-2.202422 -2.15346,-2.202422 l -1.96061,0 z m 1.02852,5.292388 1.02851,0 0,1.051903 -1.02851,0 c -0.53423,0 -0.80236,-0.153277 -0.9321,-0.262976 -0.12974,-0.109699 -0.16204,-0.187278 -0.1607,-0.262976 0.003,-0.151395 0.0953,-0.525951 1.0928,-0.525951 z"
       id="path28099"
       style="color:#000000;font-style:normal;font-variant:normal;font-weight:normal;font-stretch:normal;font-size:medium;line-height:normal;font-family:Sans;-inkscape-font-specification:Sans;text-indent:0;text-align:start;text-decoration:none;text-decoration-line:none;letter-spacing:normal;word-spacing:normal;text-transform:none;direction:ltr;block-progression:tb;writing-mode:lr-tb;baseline-shift:baseline;text-anchor:start;display:inline;overflow:visible;visibility:visible;fill:#353945;fill-opacity:1;stroke:none;stroke-width:2;marker:none;enable-background:accumulate"
       inkscape:connector-curvature="0" />
    <path
       d="m 501.46467,50.5 0,8.448097 0,1.051903 1.02852,0 2.05703,0 c 0.96532,0 1.83332,-0.402145 2.37845,-1.019031 0.54512,-0.616887 0.78155,-1.40185 0.77139,-2.16955 -0.0103,-0.7677 -0.29381,-1.529544 -0.83567,-2.136679 -0.54187,-0.607134 -1.36685,-1.019031 -2.31417,-1.019031 l -1.02852,0 0,-3.155709 -2.05703,0 z m 2.05703,5.259516 1.02852,0 c 0.43382,0 0.63732,0.142485 0.80353,0.328719 0.16621,0.186234 0.28542,0.46593 0.28927,0.756056 0.004,0.290125 -0.10121,0.5467 -0.25713,0.723183 -0.15595,0.176483 -0.36383,0.32872 -0.83567,0.32872 l -1.02852,0 0,-2.136678 z"
       id="path28101"
       style="color:#000000;font-style:normal;font-variant:normal;font-weight:normal;font-stretch:normal;font-size:medium;line-height:normal;font-family:Sans;-inkscape-font-specification:Sans;text-indent:0;text-align:start;text-decoration:none;text-decoration-line:none;letter-spacing:normal;word-spacing:normal;text-transform:none;direction:ltr;block-progression:tb;writing-mode:lr-tb;baseline-shift:baseline;text-anchor:start;display:inline;overflow:visible;visibility:visible;fill:#353945;fill-opacity:1;stroke:none;stroke-width:2;marker:none;enable-background:accumulate"
       inkscape:connector-curvature="0" />
  </g>
</svg>
