<?xml version="1.0" encoding="UTF-8" standalone="no"?>
<!-- Created with Inkscape (http://www.inkscape.org/) -->

<svg
   xmlns:dc="http://purl.org/dc/elements/1.1/"
   xmlns:cc="http://creativecommons.org/ns#"
   xmlns:rdf="http://www.w3.org/1999/02/22-rdf-syntax-ns#"
   xmlns:svg="http://www.w3.org/2000/svg"
   xmlns="http://www.w3.org/2000/svg"
   xmlns:xlink="http://www.w3.org/1999/xlink"
   xmlns:sodipodi="http://sodipodi.sourceforge.net/DTD/sodipodi-0.dtd"
   xmlns:inkscape="http://www.inkscape.org/namespaces/inkscape"
   version="1.1"
   width="16"
   height="16"
   id="svg3810"
   inkscape:version="0.91 r"
   sodipodi:docname="gnome-mime-application-vnd.openxmlformats-officedocument.wordprocessingml.document.svg">
  <sodipodi:namedview
     pagecolor="#ffffff"
     bordercolor="#666666"
     borderopacity="1"
     objecttolerance="10"
     gridtolerance="10"
     guidetolerance="10"
     inkscape:pageopacity="0"
     inkscape:pageshadow="2"
     inkscape:window-width="1677"
     inkscape:window-height="997"
     id="namedview28"
     showgrid="false"
     inkscape:zoom="53.5625"
     inkscape:cx="8"
     inkscape:cy="8"
     inkscape:current-layer="layer1"
     inkscape:window-x="75"
     inkscape:window-y="34"
     inkscape:window-maximized="0" />
  <defs
     id="defs3812">
    <linearGradient
       x1="23.99999"
       y1="5.5641499"
       x2="23.99999"
       y2="43"
       id="linearGradient3988"
       xlink:href="#linearGradient3977"
       gradientUnits="userSpaceOnUse"
       gradientTransform="matrix(0.24324324,0,0,0.35135133,2.1621636,-0.43242804)" />
    <linearGradient
       id="linearGradient3977">
      <stop
         id="stop3979"
         style="stop-color:#ffffff;stop-opacity:1"
         offset="0" />
      <stop
         id="stop3981"
         style="stop-color:#ffffff;stop-opacity:0.23529412"
         offset="0.03626217" />
      <stop
         id="stop3983"
         style="stop-color:#ffffff;stop-opacity:0.15686275"
         offset="0.95056331" />
      <stop
         id="stop3985"
         style="stop-color:#ffffff;stop-opacity:0.39215687"
         offset="1" />
    </linearGradient>
    <linearGradient
       id="linearGradient3600">
      <stop
         id="stop3602"
         style="stop-color:#f4f4f4;stop-opacity:1"
         offset="0" />
      <stop
         id="stop3604"
         style="stop-color:#dbdbdb;stop-opacity:1"
         offset="1" />
    </linearGradient>
    <linearGradient
       id="linearGradient3104">
      <stop
         id="stop3106"
         style="stop-color:#a0a0a0;stop-opacity:1"
         offset="0" />
      <stop
         id="stop3108"
         style="stop-color:#bebebe;stop-opacity:1"
         offset="1" />
    </linearGradient>
    <linearGradient
       x1="25.132275"
       y1="0.98520643"
       x2="25.132275"
       y2="47.013336"
       id="linearGradient3806"
       xlink:href="#linearGradient3600"
       gradientUnits="userSpaceOnUse"
       gradientTransform="matrix(0.31428714,0,0,0.3259265,0.457108,-0.32223804)" />
    <linearGradient
       x1="-51.786404"
       y1="50.786446"
       x2="-51.786404"
       y2="2.9062471"
       id="linearGradient3808"
       xlink:href="#linearGradient3104"
       gradientUnits="userSpaceOnUse"
       gradientTransform="matrix(0.25378586,0,0,0.30501865,19.128979,-0.68547704)" />
  </defs>
  <metadata
     id="metadata3815">
    <rdf:RDF>
      <cc:Work
         rdf:about="">
        <dc:format>image/svg+xml</dc:format>
        <dc:type
           rdf:resource="http://purl.org/dc/dcmitype/StillImage" />
        <dc:title></dc:title>
      </cc:Work>
    </rdf:RDF>
  </metadata>
  <g
     id="layer1">
    <path
       inkscape:connector-curvature="0"
       d="M 9.000001,0.9999823 0.5,2.4999819 0.5,13.499993 9.000001,15 l 0,-14.0000177 z m 0.499998,1.4999996 0,1.499997 4.499999,0 0,0.5000025 -4.499999,0 0,0.9999994 4.499999,0 0,0.5000004 -4.499999,0 0,0.9999992 4.499999,0 0,0.4999986 -4.499999,0 0,1.0000012 4.499999,0 0,0.5000007 -4.499999,0 0,0.9999992 4.499999,0 0,0.5000009 -4.499999,0 0,0.999998 4.499999,0 0,0.500002 -4.499999,0 0,1.500011 6.000001,0 0,-11.0000101 -6.000001,0 z m -2.9375,2.9531243 0.484376,0 c 0.444259,0 0.472384,0.029702 0.421875,0.2499994 -0.03006,0.1311637 -0.2845,1.296771 -0.5625,2.5937497 l -0.5000019,2.3593737 -0.515624,0 c -0.2811604,0 -0.5102367,-0.01677 -0.5156241,-0.03126 C 5.3696105,10.610399 5.2081063,9.8388789 5.0156246,8.90622 4.8231408,7.9735631 4.6405758,7.2719089 4.6093747,7.3593459 4.5781758,7.4467751 4.4140364,8.2135841 4.2499991,9.0468452 L 3.9531236,10.56247 3.4843739,10.531211 2.9999988,10.499953 2.6093742,8.4218289 C 2.3914284,7.2851509 2.1857086,6.2323133 2.1562501,6.0780788 2.1075054,5.8228993 2.1408802,5.7900517 2.4843748,5.7499541 2.9629372,5.6940829 2.9834253,5.7435791 3.2656235,7.5780784 3.3861879,8.3618342 3.4836453,9.0148498 3.4999992,9.0312037 3.516368,9.0475725 3.6881716,8.3043506 3.8750002,7.3905789 4.0618364,6.476805 4.2717288,5.7019479 4.3437498,5.6562034 4.5510268,5.5245409 5.1332804,5.5571978 5.1874987,5.7030728 5.2145868,5.7759315 5.3826172,6.5641335 5.5468741,7.4530738 5.8216929,8.9403264 6.0147913,9.4820096 6.0156238,8.7655742 6.0159431,8.4794355 6.2353942,7.1132143 6.4531246,6.0155739 L 6.56249,5.4530734 Z"
       id="rect3139"
       style="color:#000000;display:inline;overflow:visible;visibility:visible;fill:#2587c5;fill-opacity:1;fill-rule:nonzero;stroke:none;stroke-width:0.99999994;marker:none;enable-background:accumulate" />
  </g>
</svg>
