<?xml version="1.0" encoding="UTF-8" standalone="no"?>
<!-- Created with Inkscape (http://www.inkscape.org/) -->

<svg
   xmlns:dc="http://purl.org/dc/elements/1.1/"
   xmlns:cc="http://creativecommons.org/ns#"
   xmlns:rdf="http://www.w3.org/1999/02/22-rdf-syntax-ns#"
   xmlns:svg="http://www.w3.org/2000/svg"
   xmlns="http://www.w3.org/2000/svg"
   xmlns:xlink="http://www.w3.org/1999/xlink"
   xmlns:sodipodi="http://sodipodi.sourceforge.net/DTD/sodipodi-0.dtd"
   xmlns:inkscape="http://www.inkscape.org/namespaces/inkscape"
   version="1.1"
   width="16"
   height="16"
   id="svg3810"
   inkscape:version="0.91 r"
   sodipodi:docname="gnome-mime-application-vnd.openxmlformats-officedocument.presentationml.slideshow.svg">
  <sodipodi:namedview
     pagecolor="#ffffff"
     bordercolor="#666666"
     borderopacity="1"
     objecttolerance="10"
     gridtolerance="10"
     guidetolerance="10"
     inkscape:pageopacity="0"
     inkscape:pageshadow="2"
     inkscape:window-width="1457"
     inkscape:window-height="865"
     id="namedview28"
     showgrid="false"
     inkscape:zoom="45.3125"
     inkscape:cx="8"
     inkscape:cy="8"
     inkscape:current-layer="layer1"
     inkscape:window-x="65"
     inkscape:window-y="24"
     inkscape:window-maximized="0" />
  <defs
     id="defs3812">
    <linearGradient
       x1="23.99999"
       y1="5.5641499"
       x2="23.99999"
       y2="43"
       id="linearGradient3988"
       xlink:href="#linearGradient3977"
       gradientUnits="userSpaceOnUse"
       gradientTransform="matrix(0.24324324,0,0,0.35135133,2.1621636,-0.43242804)" />
    <linearGradient
       id="linearGradient3977">
      <stop
         id="stop3979"
         style="stop-color:#ffffff;stop-opacity:1"
         offset="0" />
      <stop
         id="stop3981"
         style="stop-color:#ffffff;stop-opacity:0.23529412"
         offset="0.03626217" />
      <stop
         id="stop3983"
         style="stop-color:#ffffff;stop-opacity:0.15686275"
         offset="0.95056331" />
      <stop
         id="stop3985"
         style="stop-color:#ffffff;stop-opacity:0.39215687"
         offset="1" />
    </linearGradient>
    <linearGradient
       id="linearGradient3600">
      <stop
         id="stop3602"
         style="stop-color:#f4f4f4;stop-opacity:1"
         offset="0" />
      <stop
         id="stop3604"
         style="stop-color:#dbdbdb;stop-opacity:1"
         offset="1" />
    </linearGradient>
    <linearGradient
       id="linearGradient3104">
      <stop
         id="stop3106"
         style="stop-color:#a0a0a0;stop-opacity:1"
         offset="0" />
      <stop
         id="stop3108"
         style="stop-color:#bebebe;stop-opacity:1"
         offset="1" />
    </linearGradient>
    <linearGradient
       x1="25.132275"
       y1="0.98520643"
       x2="25.132275"
       y2="47.013336"
       id="linearGradient3806"
       xlink:href="#linearGradient3600"
       gradientUnits="userSpaceOnUse"
       gradientTransform="matrix(0.31428714,0,0,0.3259265,0.457108,-0.32223804)" />
    <linearGradient
       x1="-51.786404"
       y1="50.786446"
       x2="-51.786404"
       y2="2.9062471"
       id="linearGradient3808"
       xlink:href="#linearGradient3104"
       gradientUnits="userSpaceOnUse"
       gradientTransform="matrix(0.25378586,0,0,0.30501865,19.128979,-0.68547704)" />
  </defs>
  <metadata
     id="metadata3815">
    <rdf:RDF>
      <cc:Work
         rdf:about="">
        <dc:format>image/svg+xml</dc:format>
        <dc:type
           rdf:resource="http://purl.org/dc/dcmitype/StillImage" />
        <dc:title></dc:title>
      </cc:Work>
    </rdf:RDF>
  </metadata>
  <g
     id="layer1">
    <path
       inkscape:connector-curvature="0"
       d="M 8.9999978,1.0000042 0.5,2.5000049 0.5,13.500002 8.9999978,15 l 0,-13.9999958 z m 0.500001,2.000001 0,0.5000003 5.5000002,0 0,6.4999995 0.5,0 0,-6.4999995 0,-0.5000003 -0.5,0 -5.5000002,0 z m 0,1.0000005 0,1.0781249 c 0.16008,-0.04128 0.327025,-0.07812 0.4999996,-0.07812 l 0,1.9999992 1.9999996,0 c 0,1.1045691 -0.895431,2.0000012 -1.9999996,2.0000012 -0.1729796,0 -0.3399166,-0.03684 -0.4999996,-0.07812 l 0,0.5781246 3.4999992,0 0,0.5000004 -3.4999992,0 0,1 3.4999992,0 0,0.499999 -3.4999992,0 0,1.499999 4.9999992,0 0,-8.9999976 -4.9999992,0 z M 10.499998,4.500006 c 1.104569,0 1.999999,0.8954301 1.999999,1.9999992 l -1.999999,0 0,-1.9999992 z M 4.9375004,5.6250051 c 0.5010182,0.00861 0.7554134,0.1081013 0.9687484,0.3125014 0.2782814,0.2666072 0.3939398,0.6171268 0.3906257,1.2343737 -0.0054,1.0131245 -0.6094447,1.6406256 -1.562499,1.6406256 l -0.3593755,0 -0.031239,0.8124995 -0.0156,0.8281237 -0.3749995,-0.03124 -0.3906259,-0.0156 0,-2.3593747 0,-2.3593748 0.7812497,-0.046881 c 0.2308851,-0.012994 0.4267399,-0.018394 0.5937506,-0.0156 z m -0.5781266,0.8437498 0,0.7187494 c 0,0.3945497 0.035739,0.7388774 0.062501,0.7656256 0.078159,0.078161 0.2953912,0.064719 0.5625003,-0.046881 C 5.3085041,7.7708289 5.4556747,7.347595 5.3281242,6.9218731 5.2340838,6.6079756 5.0256049,6.4687489 4.6249989,6.4687489 l -0.2656251,0 z"
       id="path3065"
       style="color:#000000;display:inline;overflow:visible;visibility:visible;fill:#ac3202;fill-opacity:1;fill-rule:nonzero;stroke:none;stroke-width:0.99999994;marker:none;enable-background:accumulate" />
  </g>
</svg>
