<?xml version="1.0" encoding="UTF-8" standalone="no"?>
<svg
   xmlns:dc="http://purl.org/dc/elements/1.1/"
   xmlns:cc="http://creativecommons.org/ns#"
   xmlns:rdf="http://www.w3.org/1999/02/22-rdf-syntax-ns#"
   xmlns:svg="http://www.w3.org/2000/svg"
   xmlns="http://www.w3.org/2000/svg"
   xmlns:xlink="http://www.w3.org/1999/xlink"
   xmlns:sodipodi="http://sodipodi.sourceforge.net/DTD/sodipodi-0.dtd"
   xmlns:inkscape="http://www.inkscape.org/namespaces/inkscape"
   id="svg3810"
   height="16"
   width="16"
   version="1.1"
   inkscape:version="0.91 r"
   sodipodi:docname="image-x-xcf.svg">
  <sodipodi:namedview
     pagecolor="#ffffff"
     bordercolor="#666666"
     borderopacity="1"
     objecttolerance="10"
     gridtolerance="10"
     guidetolerance="10"
     inkscape:pageopacity="0"
     inkscape:pageshadow="2"
     inkscape:window-width="1843"
     inkscape:window-height="1006"
     id="namedview29"
     showgrid="false"
     inkscape:zoom="54.125"
     inkscape:cx="4.5819861"
     inkscape:cy="8"
     inkscape:current-layer="svg3810"
     inkscape:window-x="75"
     inkscape:window-y="34"
     inkscape:window-maximized="0" />
  <defs
     id="defs3812">
    <linearGradient
       gradientTransform="matrix(0.24324324,0,0,0.35135133,2.1621636,-0.43242804)"
       gradientUnits="userSpaceOnUse"
       xlink:href="#linearGradient3977"
       id="linearGradient3988"
       y2="41.076912"
       x2="23.99999"
       y1="6.9230647"
       x1="23.99999" />
    <linearGradient
       id="linearGradient3977">
      <stop
         offset="0"
         style="stop-color:#ffffff;stop-opacity:1"
         id="stop3979" />
      <stop
         offset="0"
         style="stop-color:#ffffff;stop-opacity:0.23529412"
         id="stop3981" />
      <stop
         offset="1"
         style="stop-color:#ffffff;stop-opacity:0.15686275"
         id="stop3983" />
      <stop
         offset="1"
         style="stop-color:#ffffff;stop-opacity:0.39215687"
         id="stop3985" />
    </linearGradient>
    <linearGradient
       id="linearGradient3600">
      <stop
         offset="0"
         style="stop-color:#f4f4f4;stop-opacity:1"
         id="stop3602" />
      <stop
         offset="1"
         style="stop-color:#dbdbdb;stop-opacity:1"
         id="stop3604" />
    </linearGradient>
    <linearGradient
       gradientTransform="matrix(0.28571361,0,0,0.30419701,1.1428727,0.2326048)"
       gradientUnits="userSpaceOnUse"
       xlink:href="#linearGradient3600"
       id="linearGradient3806"
       y2="47.013336"
       x2="25.132275"
       y1="0.98520643"
       x1="25.132275" />
    <linearGradient
       id="linearGradient3104-9">
      <stop
         offset="0"
         style="stop-color:#000000;stop-opacity:0.33950618"
         id="stop3106-5" />
      <stop
         offset="1"
         style="stop-color:#000000;stop-opacity:0.24691358"
         id="stop3108-5" />
    </linearGradient>
    <linearGradient
       gradientTransform="matrix(0.25378586,0,0,0.30501865,19.128979,-0.68547704)"
       gradientUnits="userSpaceOnUse"
       xlink:href="#linearGradient3104-9"
       id="linearGradient3019"
       y2="2.9062471"
       x2="-51.786404"
       y1="50.786446"
       x1="-51.786404" />
    <radialGradient
       gradientTransform="matrix(-5.0811427e-8,2.2503492,-2.5432605,-6.7549429e-8,33.320146,-20.146257)"
       gradientUnits="userSpaceOnUse"
       xlink:href="#linearGradient2867-449-88-871-390-598-476-591-434-148-57-177-8-3"
       id="radialGradient3014"
       fy="9.9571075"
       fx="7.2758255"
       r="12.671875"
       cy="9.9571075"
       cx="7.8060555" />
    <linearGradient
       id="linearGradient2867-449-88-871-390-598-476-591-434-148-57-177-8-3">
      <stop
         offset="0"
         style="stop-color:#90dbec;stop-opacity:1"
         id="stop3750-1-0" />
      <stop
         offset="0.26238"
         style="stop-color:#55c1ec;stop-opacity:1"
         id="stop3752-3-7" />
      <stop
         offset="0.704952"
         style="stop-color:#3689e6;stop-opacity:1"
         id="stop3754-1-8" />
      <stop
         offset="1"
         style="stop-color:#2b63a0;stop-opacity:1"
         id="stop3756-1-6" />
    </linearGradient>
    <linearGradient
       gradientUnits="userSpaceOnUse"
       y2="57.999405"
       x2="32.999352"
       y1="1.9994068"
       x1="32.999352"
       id="linearGradient4521"
       xlink:href="#linearGradient4515"
       gradientTransform="matrix(0.49998995,0,0,0.59596674,-7.9995201,-11.070594)" />
    <linearGradient
       id="linearGradient4515">
      <stop
         id="stop4517"
         offset="0"
         style="stop-color:#67614f;stop-opacity:1" />
      <stop
         id="stop4519"
         offset="1"
         style="stop-color:#4b473a;stop-opacity:1" />
    </linearGradient>
  </defs>
  <metadata
     id="metadata3815">
    <rdf:RDF>
      <cc:Work
         rdf:about="">
        <dc:format>image/svg+xml</dc:format>
        <dc:type
           rdf:resource="http://purl.org/dc/dcmitype/StillImage" />
        <dc:title></dc:title>
      </cc:Work>
    </rdf:RDF>
  </metadata>
  <path
     inkscape:connector-curvature="0"
     id="path4323-9"
     d="m 14.104527,0.50652406 c -0.02403,-0.00996 -0.04917,-0.00887 -0.07422,0.00584 -0.06015,0.035181 -0.113073,0.1497317 -0.165039,0.3352316 C 13.74258,1.2856037 12.957214,4.0106028 8.9464291,4.7446677 A 1.9937543,2.3771327 0 0 1 10.031369,6.8596558 1.9937543,2.3771327 0 0 1 8.0372674,9.2365379 1.9937543,2.3771327 0 0 1 6.222849,7.8397423 1.5823447,1.8866131 0 0 1 4.8927981,8.7080843 1.5823447,1.8866131 0 0 1 3.3215405,7.035419 C 3.2708969,7.1567218 3.2102371,7.2799799 3.1242799,7.4055699 3.0935789,7.3484993 3.0749732,7.2842273 3.0412789,7.2286422 2.838053,6.8935044 2.5996288,6.6110776 2.3459795,6.4010395 2.0545366,6.1597067 1.7515631,6.0005512 1.4524423,5.9482458 1.1075881,5.8879352 0.77405851,5.97685 0.50910311,6.2043252 0.24406791,6.4318576 0.08927527,6.7804559 0.02864338,7.1890666 c -0.0525631,0.3542303 -0.0341167,0.7379134 0.0664048,1.1430456 0.0875024,0.3526359 0.22752117,0.707792 0.43065443,1.0429421 0.2145999,0.3540626 0.48136789,0.6682967 0.76072819,0.8869647 0.3150619,0.246615 0.6491567,0.390711 0.9765429,0.41322 0.1013098,0.007 0.2047588,-0.02278 0.297846,-0.03957 2.1204585,2.000414 6.3301064,3.867259 9.1199343,1.733194 0.06035,0.02444 0.12096,0.0542 0.181635,0.07917 0.0015,0.03417 -0.0076,0.0685 0,0.09892 l 0.132799,-0.05936 c 0.02357,0.0088 0.04138,0.0312 0.06544,0.03958 0.0051,0.0019 0.01136,-0.0018 0.0166,0 l 0.0498,0.0582 1.257787,0.531947 c -0.05162,0.519734 0.164653,1.110379 0.7119,1.359549 C 15.082246,14.925578 16,15.5 16,15.5 c -0.470106,-1.898968 -0.641534,-3.42246 -1.870078,-3.288294 -0.228583,0.02498 -0.400978,0.136742 -0.529287,0.295656 l -1.109353,-0.847392 -0.04981,0 -0.01659,-0.01979 C 13.918117,9.8914079 14.791108,6.6049138 14.261761,0.88717081 14.23879,0.67286966 14.176611,0.53657226 14.104537,0.50654356 Z M 3.4719291,2.2455372 3.4055243,5.7910732 c 0,0 0.025825,0.1089413 0.046874,0.2560798 A 1.5823447,1.8866131 0 0 1 4.8927996,4.9355351 1.5823447,1.8866131 0 0 1 6.2404291,5.8364695 1.9937543,2.3771327 0 0 1 6.897643,4.9134188 C 4.5015941,4.7626714 3.4719315,2.2455372 3.4719315,2.2455372 Z M 5.1379109,5.7654664 A 1.1079499,1.2954744 0 0 0 4.8078398,5.8248227 0.5485966,0.6414485 0 0 1 5.1271691,6.4068224 0.5485966,0.6414485 0 0 1 4.5783531,7.0481849 0.5485966,0.6414485 0 0 1 4.0803142,6.6757047 1.1079499,1.2954744 0 0 0 4.0295338,7.0609887 1.1079499,1.2954744 0 0 0 5.1379107,8.3565176 1.1079499,1.2954744 0 0 0 6.2453104,7.0609887 1.1079499,1.2954744 0 0 0 5.1379107,5.7654585 Z M 8.4718295,6.0168888 A 1.1079499,1.2954744 0 0 0 8.1417581,6.0762452 0.5485966,0.6414485 0 0 1 8.4610882,6.6582446 0.5485966,0.6414485 0 0 1 7.9122701,7.2996069 0.5485966,0.6414485 0 0 1 7.4152103,6.9271281 1.1079499,1.2954744 0 0 0 7.3644294,7.3124112 1.1079499,1.2954744 0 0 0 8.4718285,8.6079397 1.1079499,1.2954744 0 0 0 9.580205,7.3124112 1.1079499,1.2954744 0 0 0 8.4718285,6.0168823 Z M 1.2590823,6.7967675 A 0.57591172,0.76722257 0 0 1 1.8352428,7.5638421 0.57591172,0.76722257 0 0 1 1.2590823,8.3309172 0.57591172,0.76722257 0 0 1 0.68292221,7.5638421 0.57591172,0.76722257 0 0 1 1.2590823,6.7967675 Z"
     style="color:#000000;clip-rule:nonzero;display:inline;overflow:visible;visibility:visible;opacity:1;isolation:auto;mix-blend-mode:normal;color-interpolation:sRGB;color-interpolation-filters:linearRGB;solid-color:#000000;solid-opacity:1;fill:#353945;fill-opacity:1;fill-rule:nonzero;stroke:none;stroke-width:1;stroke-linecap:butt;stroke-linejoin:miter;stroke-miterlimit:4;stroke-dasharray:none;stroke-dashoffset:0;stroke-opacity:1;marker:none;color-rendering:auto;image-rendering:auto;shape-rendering:auto;text-rendering:auto;enable-background:accumulate" />
</svg>
