<?xml version="1.0" encoding="UTF-8" standalone="no"?>
<!-- Generator: Adobe Illustrator 16.0.0, SVG Export Plug-In . SVG Version: 6.00 Build 0)  -->

<svg
   xmlns:dc="http://purl.org/dc/elements/1.1/"
   xmlns:cc="http://creativecommons.org/ns#"
   xmlns:rdf="http://www.w3.org/1999/02/22-rdf-syntax-ns#"
   xmlns:svg="http://www.w3.org/2000/svg"
   xmlns="http://www.w3.org/2000/svg"
   xmlns:sodipodi="http://sodipodi.sourceforge.net/DTD/sodipodi-0.dtd"
   xmlns:inkscape="http://www.inkscape.org/namespaces/inkscape"
   version="1.1"
   id="Capa_1"
   x="0px"
   y="0px"
   width="16"
   height="16"
   viewBox="0 0 16 16"
   xml:space="preserve"
   inkscape:version="0.91 r"
   sodipodi:docname="internet-archive.svg"><metadata
     id="metadata53"><rdf:RDF><cc:Work
         rdf:about=""><dc:format>image/svg+xml</dc:format><dc:type
           rdf:resource="http://purl.org/dc/dcmitype/StillImage" /><dc:title /></cc:Work></rdf:RDF></metadata><defs
     id="defs51" /><sodipodi:namedview
     pagecolor="#ffffff"
     bordercolor="#666666"
     borderopacity="1"
     objecttolerance="10"
     gridtolerance="10"
     guidetolerance="10"
     inkscape:pageopacity="0"
     inkscape:pageshadow="2"
     inkscape:window-width="640"
     inkscape:window-height="480"
     id="namedview49"
     showgrid="false"
     inkscape:zoom="55.174516"
     inkscape:cx="4.601692"
     inkscape:cy="8"
     inkscape:current-layer="g5" /><g
     id="g3"
     transform="translate(0,-301.19101)"><g
       id="g5"><path
         d="m 8.074006,301.71222 c -0.04533,-0.0283 -0.102456,-0.0283 -0.147787,0 l -7.35946495,4.56039 c -0.05355,0.0329 -0.07855,0.0978 -0.0614,0.15854 0.01715,0.0606 0.07222,0.10239 0.135292,0.10239 l 14.71865795,0 c 0.06286,0 0.118144,-0.0417 0.1354,-0.10239 0.01704,-0.0608 -0.008,-0.12561 -0.06183,-0.15854 z"
         id="path7"
         inkscape:connector-curvature="0"
         style="fill:#353945;fill-opacity:1;stroke:none;stroke-opacity:1"
         sodipodi:nodetypes="ccccssccc" /><path
         style="fill:#353945;fill-opacity:1;stroke:none;stroke-opacity:1"
         d="m 1.5298333,306.81518 c -0.07763,0 -0.140625,0.0633 -0.140625,0.14105 l 0,1.12844 c 0,0.0778 0.063058,0.14106 0.140625,0.14106 l 0.7109375,0 c 0.04106,0.2878 0.2677675,0.51717 0.5546875,0.55834 l 0,5.93804 c -0.28692,0.0413 -0.5136295,0.27071 -0.5546875,0.55834 l -0.7109375,0 c -0.07763,0 -0.140625,0.0634 -0.140625,0.14106 l 0,1.12844 c 0,0.0777 0.063058,0.14106 0.140625,0.14106 l 12.9394537,0 c 0.07752,0 0.140626,-0.0634 0.140624,-0.14106 l 0,-1.12844 c 0,-0.0777 -0.06311,-0.14106 -0.140624,-0.14106 l -0.708985,0 c -0.04122,-0.28823 -0.269286,-0.51704 -0.556641,-0.55834 l 0,-5.93804 c 0.287355,-0.0412 0.515204,-0.27059 0.556641,-0.55834 l 0.708985,0 c 0.07752,0 0.140626,-0.0633 0.140624,-0.14106 l 0,-1.12844 c 0,-0.0778 -0.06311,-0.14105 -0.140624,-0.14105 l -12.9394537,0 z m 2.9316406,1.39488 0.8574219,0 c 0.04106,0.28779 0.2677675,0.51711 0.5546875,0.55834 l 0,5.93804 c -0.28692,0.0413 -0.5136875,0.27072 -0.5546875,0.55834 l -0.8574219,0 c -0.04106,-0.28768 -0.2697206,-0.51702 -0.5566406,-0.55834 l 0,-5.93804 c 0.28692,-0.0412 0.5156406,-0.2706 0.5566406,-0.55834 z m 3.0996094,0 0.8574218,0 c 0.04106,0.28779 0.2677665,0.51711 0.5546876,0.55834 l 0,5.93804 c -0.2869201,0.0413 -0.5136874,0.27072 -0.5546876,0.55834 l -0.8574218,0 c -0.04106,-0.28769 -0.2697206,-0.51702 -0.5566406,-0.55834 l 0,-5.93804 c 0.2869199,-0.0412 0.5156406,-0.2706 0.5566406,-0.55834 z m 3.0976567,0.0235 0.855468,0 c 0.04092,0.28682 0.266798,0.51526 0.552735,0.55639 l 0,5.91649 c -0.285936,0.0412 -0.511875,0.26974 -0.552735,0.55638 l -0.855468,0 c -0.04092,-0.2867 -0.268752,-0.51516 -0.554688,-0.55638 l 0,-5.91649 c 0.285936,-0.0411 0.513828,-0.26962 0.554688,-0.55639 z"
         id="path11"
         inkscape:connector-curvature="0" /></g></g><g
     id="g19"
     transform="matrix(0.05409501,0,0,0.05426055,-0.579249,-0.58255148)"
     style="fill:#333333;fill-opacity:1;stroke:none;stroke-opacity:1" /><g
     id="g21"
     transform="matrix(0.05409501,0,0,0.05426055,-0.579249,-0.58255148)"
     style="fill:#333333;fill-opacity:1;stroke:none;stroke-opacity:1" /><g
     id="g23"
     transform="matrix(0.05409501,0,0,0.05426055,-0.579249,-0.58255148)"
     style="fill:#333333;fill-opacity:1;stroke:none;stroke-opacity:1" /><g
     id="g25"
     transform="matrix(0.05409501,0,0,0.05426055,-0.579249,-0.58255148)"
     style="fill:#333333;fill-opacity:1;stroke:none;stroke-opacity:1" /><g
     id="g27"
     transform="matrix(0.05409501,0,0,0.05426055,-0.579249,-0.58255148)"
     style="fill:#333333;fill-opacity:1;stroke:none;stroke-opacity:1" /><g
     id="g29"
     transform="matrix(0.05409501,0,0,0.05426055,-0.579249,-0.58255148)"
     style="fill:#333333;fill-opacity:1;stroke:none;stroke-opacity:1" /><g
     id="g31"
     transform="matrix(0.05409501,0,0,0.05426055,-0.579249,-0.58255148)"
     style="fill:#333333;fill-opacity:1;stroke:none;stroke-opacity:1" /><g
     id="g33"
     transform="matrix(0.05409501,0,0,0.05426055,-0.579249,-0.58255148)"
     style="fill:#333333;fill-opacity:1;stroke:none;stroke-opacity:1" /><g
     id="g35"
     transform="matrix(0.05409501,0,0,0.05426055,-0.579249,-0.58255148)"
     style="fill:#333333;fill-opacity:1;stroke:none;stroke-opacity:1" /><g
     id="g37"
     transform="matrix(0.05409501,0,0,0.05426055,-0.579249,-0.58255148)"
     style="fill:#333333;fill-opacity:1;stroke:none;stroke-opacity:1" /><g
     id="g39"
     transform="matrix(0.05409501,0,0,0.05426055,-0.579249,-0.58255148)"
     style="fill:#333333;fill-opacity:1;stroke:none;stroke-opacity:1" /><g
     id="g41"
     transform="matrix(0.05409501,0,0,0.05426055,-0.579249,-0.58255148)"
     style="fill:#333333;fill-opacity:1;stroke:none;stroke-opacity:1" /><g
     id="g43"
     transform="matrix(0.05409501,0,0,0.05426055,-0.579249,-0.58255148)"
     style="fill:#333333;fill-opacity:1;stroke:none;stroke-opacity:1" /><g
     id="g45"
     transform="matrix(0.05409501,0,0,0.05426055,-0.579249,-0.58255148)"
     style="fill:#333333;fill-opacity:1;stroke:none;stroke-opacity:1" /><g
     id="g47"
     transform="matrix(0.05409501,0,0,0.05426055,-0.579249,-0.58255148)"
     style="fill:#333333;fill-opacity:1;stroke:none;stroke-opacity:1" /></svg>