<?xml version="1.0" encoding="UTF-8" standalone="no"?>
<!-- Generator: Adobe Illustrator 15.0.0, SVG Export Plug-In . SVG Version: 6.00 Build 0)  -->

<svg
   xmlns:dc="http://purl.org/dc/elements/1.1/"
   xmlns:cc="http://creativecommons.org/ns#"
   xmlns:rdf="http://www.w3.org/1999/02/22-rdf-syntax-ns#"
   xmlns:svg="http://www.w3.org/2000/svg"
   xmlns="http://www.w3.org/2000/svg"
   xmlns:sodipodi="http://sodipodi.sourceforge.net/DTD/sodipodi-0.dtd"
   xmlns:inkscape="http://www.inkscape.org/namespaces/inkscape"
   version="1.1"
   id="Layer_1"
   x="0px"
   y="0px"
   width="16"
   height="16"
   viewBox="0 0 16 16"
   enable-background="new 0 0 512 512"
   xml:space="preserve"
   inkscape:version="0.91 r"
   sodipodi:docname="Last.fm-symbolic.svg"><metadata
     id="metadata9"><rdf:RDF><cc:Work
         rdf:about=""><dc:format>image/svg+xml</dc:format><dc:type
           rdf:resource="http://purl.org/dc/dcmitype/StillImage" /><dc:title /></cc:Work></rdf:RDF></metadata><defs
     id="defs7" /><sodipodi:namedview
     pagecolor="#ffffff"
     bordercolor="#666666"
     borderopacity="1"
     objecttolerance="10"
     gridtolerance="10"
     guidetolerance="10"
     inkscape:pageopacity="0"
     inkscape:pageshadow="2"
     inkscape:window-width="1855"
     inkscape:window-height="1056"
     id="namedview5"
     showgrid="true"
     inkscape:zoom="31.738371"
     inkscape:cx="-6.4441275"
     inkscape:cy="8"
     inkscape:window-x="65"
     inkscape:window-y="24"
     inkscape:window-maximized="1"
     inkscape:current-layer="Layer_1"><inkscape:grid
       type="xygrid"
       id="grid4888" /></sodipodi:namedview><path
     d="m 12.65562,12.694655 c -1.614496,-0.007 -2.474723,-0.82814 -3.0725461,-2.275826 L 9.4120639,10.023793 7.9382434,6.5273724 C 7.4494622,5.2897006 6.2365911,4.4536164 4.8680884,4.4536164 c -1.8516831,0 -3.35393,1.5631565 -3.35393,3.4912302 0,1.9280024 1.5022167,3.4911634 3.35393,3.4911634 1.2917012,0 2.4148747,-0.759923 2.9754926,-1.8742115 L 8.4395877,10.99237 c -0.8463003,1.073623 -2.1323402,1.757382 -3.5714687,1.757382 -2.5505866,0 -4.61787143,-2.149828 -4.61787143,-4.8049358 0,-2.6538552 2.06728483,-4.806324 4.61781083,-4.806324 1.9247916,0 3.478865,1.0696824 4.268435,2.9648657 0.059876,0.1470432 0.8349174,2.0330339 1.5110236,3.6381729 0.418763,0.9935202 0.775858,1.6524262 1.933693,1.6931562 1.137766,0.04062 1.918616,-0.679877 1.918616,-1.5908464 0,-0.8898507 -0.595402,-1.1037629 -1.600662,-1.4515542 -1.80697,-0.619491 -2.73973,-1.2416028 -2.73973,-2.7325581 0,-1.4542652 0.951044,-2.4241583 2.496157,-2.4241583 1.006533,0 1.733196,0.4659664 2.236539,1.3951978 L 13.904394,5.1557311 C 13.532225,4.6137231 13.121728,4.3997503 12.60007,4.3997503 c -0.725177,0 -1.243053,0.5250335 -1.243053,1.2232171 0,0.9909699 0.852054,1.1405836 2.043463,1.5474321 1.60381,0.5433286 2.349272,1.1641499 2.349272,2.7142326 6e-5,1.6274779 -1.342134,2.8126459 -3.094132,2.8100229 z"
     id="path3"
     inkscape:connector-curvature="0"
     style="fill:#353945;fill-opacity:1;stroke:#353945;stroke-width:0.50049514;stroke-miterlimit:4;stroke-dasharray:none;stroke-opacity:1" /></svg>