<?xml version="1.0" encoding="UTF-8" standalone="no"?>
<svg
   xmlns:dc="http://purl.org/dc/elements/1.1/"
   xmlns:cc="http://creativecommons.org/ns#"
   xmlns:rdf="http://www.w3.org/1999/02/22-rdf-syntax-ns#"
   xmlns:svg="http://www.w3.org/2000/svg"
   xmlns="http://www.w3.org/2000/svg"
   xmlns:xlink="http://www.w3.org/1999/xlink"
   xmlns:sodipodi="http://sodipodi.sourceforge.net/DTD/sodipodi-0.dtd"
   xmlns:inkscape="http://www.inkscape.org/namespaces/inkscape"
   version="1.1"
   width="16"
   height="16"
   id="svg9991"
   inkscape:version="0.91 r"
   sodipodi:docname="sound.svg">
  <sodipodi:namedview
     pagecolor="#ffffff"
     bordercolor="#666666"
     borderopacity="1"
     objecttolerance="10"
     gridtolerance="10"
     guidetolerance="10"
     inkscape:pageopacity="0"
     inkscape:pageshadow="2"
     inkscape:window-width="640"
     inkscape:window-height="480"
     id="namedview9789"
     showgrid="false"
     inkscape:zoom="57.309859"
     inkscape:cx="4.7283116"
     inkscape:cy="9.3959204"
     inkscape:current-layer="layer1" />
  <defs
     id="defs9993">
    <radialGradient
       cx="17.058823"
       cy="41.058823"
       r="5.7384715"
       fx="15.544384"
       fy="39.027378"
       id="radialGradient5481"
       xlink:href="#linearGradient7067-814-120-245"
       gradientUnits="userSpaceOnUse"
       gradientTransform="matrix(0.28331064,0.05167803,-0.0986092,0.24869207,1.726617,2.8814506)" />
    <linearGradient
       id="linearGradient7067-814-120-245">
      <stop
         id="stop3877"
         style="stop-color:#aaaaaa;stop-opacity:1"
         offset="0" />
      <stop
         id="stop3879"
         style="stop-color:#4d4d4d;stop-opacity:1"
         offset="1" />
    </linearGradient>
    <radialGradient
       cx="17.058823"
       cy="41.058823"
       r="5.7384715"
       fx="15.544384"
       fy="39.027378"
       id="radialGradient5500"
       xlink:href="#linearGradient7067-814-120-245-1"
       gradientUnits="userSpaceOnUse"
       gradientTransform="matrix(0.28333276,0.05172217,-0.0986169,0.24890446,9.7264375,0.87204091)" />
    <linearGradient
       id="linearGradient7067-814-120-245-1">
      <stop
         id="stop3877-2"
         style="stop-color:#aaaaaa;stop-opacity:1"
         offset="0" />
      <stop
         id="stop3879-5"
         style="stop-color:#4d4d4d;stop-opacity:1"
         offset="1" />
    </linearGradient>
  </defs>
  <metadata
     id="metadata9996">
    <rdf:RDF>
      <cc:Work
         rdf:about="">
        <dc:format>image/svg+xml</dc:format>
        <dc:type
           rdf:resource="http://purl.org/dc/dcmitype/StillImage" />
        <dc:title />
      </cc:Work>
    </rdf:RDF>
  </metadata>
  <g
     id="layer1">
    <path
       d="m 183.3125,222.53125 -7.1875,1.84375 c -0.30752,0.0824 -0.65625,0.52036 -0.65625,0.84375 l 0,9.09375 c 4.4e-4,0.35373 -0.36725,0.58771 -0.6875,0.4375 -0.45871,-0.2402 -1.05898,-0.35081 -1.6875,-0.1875 -0.57617,0.14971 -1.04136,0.45145 -1.3125,0.8125 -0.27114,0.36105 -0.35061,0.76088 -0.25,1.125 0.20054,0.72575 1.22627,1.23598 2.375,0.9375 0.91465,-0.23766 1.50878,-0.90083 1.59375,-1.5 l 0.0312,-8.53125 c -0.003,-0.21548 0.13736,-0.40678 0.34375,-0.46875 l 7,-1.875 c 0.30275,-0.0717 0.59321,0.15764 0.59375,0.46875 l 0,6.78125 c 4.4e-4,0.35373 -0.36725,0.58771 -0.6875,0.4375 -0.45871,-0.2402 -1.05898,-0.35081 -1.6875,-0.1875 -0.57617,0.14971 -1.04136,0.45145 -1.3125,0.8125 -0.27114,0.36105 -0.35061,0.76088 -0.25,1.125 0.20054,0.72575 1.22627,1.23598 2.375,0.9375 0.91465,-0.23766 1.50878,-0.90083 1.59375,-1.5 l 0.0312,-11.125 c 0,-0.19384 -0.0546,-0.22736 -0.14895,-0.2638 z"
       transform="translate(-170.98934,-222.02429)"
       id="path5541"
       style="color:#000000;display:inline;overflow:visible;visibility:visible;fill:#353945;fill-opacity:1;fill-rule:nonzero;stroke:#353945;stroke-width:1;stroke-miterlimit:4;stroke-dasharray:none;stroke-opacity:1;marker:none;enable-background:accumulate"
       inkscape:connector-curvature="0"
       sodipodi:nodetypes="ccsccsssscccccccsssscccc" />
  </g>
</svg>
