<?xml version="1.0" encoding="UTF-8" standalone="no"?>
<!-- Created with Inkscape (http://www.inkscape.org/) -->

<svg
   xmlns:dc="http://purl.org/dc/elements/1.1/"
   xmlns:cc="http://creativecommons.org/ns#"
   xmlns:rdf="http://www.w3.org/1999/02/22-rdf-syntax-ns#"
   xmlns:svg="http://www.w3.org/2000/svg"
   xmlns="http://www.w3.org/2000/svg"
   xmlns:xlink="http://www.w3.org/1999/xlink"
   xmlns:sodipodi="http://sodipodi.sourceforge.net/DTD/sodipodi-0.dtd"
   xmlns:inkscape="http://www.inkscape.org/namespaces/inkscape"
   version="1.1"
   width="128"
   height="128"
   id="svg3971"
   inkscape:version="0.48.4 r9939"
   sodipodi:docname="audio-x-generic.svg">
  <sodipodi:namedview
     pagecolor="#ffffff"
     bordercolor="#666666"
     borderopacity="1"
     objecttolerance="10"
     gridtolerance="10"
     guidetolerance="10"
     inkscape:pageopacity="0"
     inkscape:pageshadow="2"
     inkscape:window-width="1855"
     inkscape:window-height="1056"
     id="namedview49"
     showgrid="true"
     inkscape:zoom="7.21875"
     inkscape:cx="64"
     inkscape:cy="64"
     inkscape:window-x="65"
     inkscape:window-y="24"
     inkscape:window-maximized="1"
     inkscape:current-layer="layer1">
    <inkscape:grid
       type="xygrid"
       id="grid3057" />
  </sodipodi:namedview>
  <defs
     id="defs3973">
    <linearGradient
       x1="16.626165"
       y1="15.298182"
       x2="20.054544"
       y2="24.627615"
       id="linearGradient3164"
       xlink:href="#linearGradient8265-821-176-38-919-66-249-7-7"
       gradientUnits="userSpaceOnUse"
       gradientTransform="matrix(2.2144204,0,0,3.4699564,10.750311,-67.821122)" />
    <linearGradient
       id="linearGradient8265-821-176-38-919-66-249-7-7">
      <stop
         id="stop2687-1-9"
         style="stop-color:#ffffff;stop-opacity:1"
         offset="0" />
      <stop
         id="stop2689-5-4"
         style="stop-color:#ffffff;stop-opacity:0"
         offset="1" />
    </linearGradient>
    <linearGradient
       x1="23.99999"
       y1="5.6575165"
       x2="23.99999"
       y2="42.32058"
       id="linearGradient3167"
       xlink:href="#linearGradient3924"
       gradientUnits="userSpaceOnUse"
       gradientTransform="matrix(2.7297298,0,0,2.7297298,-1.5135114,-62.513485)" />
    <linearGradient
       id="linearGradient3924">
      <stop
         id="stop3926"
         style="stop-color:#ffffff;stop-opacity:1"
         offset="0" />
      <stop
         id="stop3928"
         style="stop-color:#ffffff;stop-opacity:0.23529412"
         offset="0.00293467" />
      <stop
         id="stop3930"
         style="stop-color:#ffffff;stop-opacity:0.15686275"
         offset="0.99483037" />
      <stop
         id="stop3932"
         style="stop-color:#ffffff;stop-opacity:0.39215687"
         offset="1" />
    </linearGradient>
    <linearGradient
       x1="-51.786404"
       y1="50.786446"
       x2="-51.786404"
       y2="2.9062471"
       id="linearGradient3095-1-9"
       xlink:href="#linearGradient3104-6-2-3"
       gradientUnits="userSpaceOnUse"
       gradientTransform="matrix(2.0306977,0,0,2.2467814,153.04984,-60.977786)" />
    <linearGradient
       id="linearGradient3104-6-2-3">
      <stop
         id="stop3106-3-4-0"
         style="stop-color:#000000;stop-opacity:0.31782946"
         offset="0" />
      <stop
         id="stop3108-9-9-2"
         style="stop-color:#000000;stop-opacity:0.24031007"
         offset="1" />
    </linearGradient>
    <linearGradient
       x1="25.132275"
       y1="0.98520643"
       x2="25.132275"
       y2="47.013336"
       id="linearGradient3101-2"
       xlink:href="#linearGradient3600-9-9"
       gradientUnits="userSpaceOnUse"
       gradientTransform="matrix(2.4373971,0,0,2.3371711,5.5024661,-56.677922)" />
    <linearGradient
       id="linearGradient3600-9-9">
      <stop
         id="stop3602-3-7"
         style="stop-color:#f4f4f4;stop-opacity:1"
         offset="0" />
      <stop
         id="stop3604-7-3"
         style="stop-color:#dbdbdb;stop-opacity:1"
         offset="1" />
    </linearGradient>
    <radialGradient
       cx="4.9929786"
       cy="43.5"
       r="2.5"
       fx="4.9929786"
       fy="43.5"
       id="radialGradient2455"
       xlink:href="#linearGradient3688-166-749"
       gradientUnits="userSpaceOnUse"
       gradientTransform="matrix(2.003784,0,0,1.4,27.98813,-17.4)" />
    <linearGradient
       id="linearGradient3688-166-749">
      <stop
         id="stop2883"
         style="stop-color:#181818;stop-opacity:1"
         offset="0" />
      <stop
         id="stop2885"
         style="stop-color:#181818;stop-opacity:0"
         offset="1" />
    </linearGradient>
    <radialGradient
       cx="4.9929786"
       cy="43.5"
       r="2.5"
       fx="4.9929786"
       fy="43.5"
       id="radialGradient2457"
       xlink:href="#linearGradient3688-464-309"
       gradientUnits="userSpaceOnUse"
       gradientTransform="matrix(2.003784,0,0,1.4,-20.01187,-104.4)" />
    <linearGradient
       id="linearGradient3688-464-309">
      <stop
         id="stop2889"
         style="stop-color:#181818;stop-opacity:1"
         offset="0" />
      <stop
         id="stop2891"
         style="stop-color:#181818;stop-opacity:0"
         offset="1" />
    </linearGradient>
    <linearGradient
       x1="25.058096"
       y1="47.027729"
       x2="25.058096"
       y2="39.999443"
       id="linearGradient2459"
       xlink:href="#linearGradient3702-501-757"
       gradientUnits="userSpaceOnUse" />
    <linearGradient
       id="linearGradient3702-501-757">
      <stop
         id="stop2895"
         style="stop-color:#181818;stop-opacity:0"
         offset="0" />
      <stop
         id="stop2897"
         style="stop-color:#181818;stop-opacity:1"
         offset="0.5" />
      <stop
         id="stop2899"
         style="stop-color:#181818;stop-opacity:0"
         offset="1" />
    </linearGradient>
  </defs>
  <metadata
     id="metadata3976">
    <rdf:RDF>
      <cc:Work
         rdf:about="">
        <dc:format>image/svg+xml</dc:format>
        <dc:type
           rdf:resource="http://purl.org/dc/dcmitype/StillImage" />
        <dc:title></dc:title>
      </cc:Work>
    </rdf:RDF>
  </metadata>
  <g
     transform="translate(0,64)"
     id="layer1">
    <g
       transform="matrix(2.9499988,0,0,1.2222234,-6.8000012,1.555538)"
       id="g2036"
       style="display:inline">
      <g
         transform="matrix(1.052632,0,0,1.285713,-1.263158,-13.42854)"
         id="g3712"
         style="opacity:0.4">
        <rect
           width="5"
           height="7"
           x="38"
           y="40"
           id="rect2801"
           style="fill:url(#radialGradient2455);fill-opacity:1;stroke:none" />
        <rect
           width="5"
           height="7"
           x="-10"
           y="-47"
           transform="scale(-1,-1)"
           id="rect3696"
           style="fill:url(#radialGradient2457);fill-opacity:1;stroke:none" />
        <rect
           width="28"
           height="7.0000005"
           x="10"
           y="40"
           id="rect3700"
           style="fill:url(#linearGradient2459);fill-opacity:1;stroke:none" />
      </g>
    </g>
    <rect
       width="102"
       height="102"
       x="13"
       y="-48"
       id="rect5505-21-8-4"
       style="color:#000000;fill:url(#linearGradient3101-2);fill-opacity:1;fill-rule:nonzero;stroke:none;stroke-width:0.99999994;marker:none;visibility:visible;display:inline;overflow:visible;enable-background:accumulate" />
    <rect
       width="103"
       height="103"
       x="12.5"
       y="-48.5"
       id="rect5505-21"
       style="color:#000000;fill:none;stroke:url(#linearGradient3095-1-9);stroke-width:0.9999218;stroke-linecap:butt;stroke-linejoin:round;stroke-miterlimit:4;stroke-opacity:1;stroke-dasharray:none;stroke-dashoffset:0;marker:none;visibility:visible;display:inline;overflow:visible;enable-background:accumulate" />
    <rect
       width="101"
       height="101"
       x="13.5"
       y="-47.5"
       id="rect6741-7"
       style="fill:none;stroke:url(#linearGradient3167);stroke-width:1;stroke-linecap:round;stroke-linejoin:miter;stroke-miterlimit:4;stroke-opacity:1;stroke-dasharray:none;stroke-dashoffset:0" />
    <path
       d="m 67.46875,-37.624999 c -1.346474,0 -1.869098,0.376285 -2.15625,0.96875 -0.287152,0.592465 -0.28125,1.506966 -0.28125,2.46875 L 65,20.281251 a 0.37521267,0.37521267 0 0 1 -0.09375,0.25 c -0.217233,0.225998 -0.522926,0.348457 -0.78125,0.34375 -0.258324,-0.0047 -0.481731,-0.08132 -0.6875,-0.15625 -0.411537,-0.149864 -0.737268,-0.288539 -0.9375,-0.21875 a 0.37521267,0.37521267 0 0 1 -0.15625,0.03125 c -8.139139,-0.494041 -17.065023,5.40125 -17.875,13.84375 a 0.37521267,0.37521267 0 0 1 0,0.03125 c -0.470696,3.30959 1.053707,6.31927 3.5,8.40625 2.446293,2.08698 5.797465,3.20361 8.9375,2.6875 a 0.37521267,0.37521267 0 0 1 0.03125,0 c 8.004553,-0.84684 13.982654,-8.92232 12.9375,-16.875 a 0.37521267,0.37521267 0 0 1 0,-0.0625 c 0.02322,-14.379353 -0.05003,-28.782915 0.03125,-43.15625 a 0.37521267,0.37521267 0 0 1 0.09375,-0.25 c 0.225788,-0.257501 0.594326,-0.335442 0.875,-0.28125 0.280674,0.05419 0.517639,0.20085 0.75,0.34375 0.232361,0.1429 0.438145,0.288574 0.625,0.40625 0.186855,0.117676 0.354135,0.185141 0.375,0.1875 a 0.37521267,0.37521267 0 0 1 0.15625,0.0625 c 6.69292,3.943272 12.65864,10.441878 13.0625,18.625 0.379204,5.460852 -1.022455,10.792207 -2.78125,15.875 5.842631,-8.549713 7.472963,-20.050716 2.9375,-29.5 -2.492785,-5.894808 -8.220934,-9.605371 -11.5,-15.3125 -2.380965,-3.74992 -4.192388,-7.921864 -4.78125,-12.375 -0.0073,-0.01444 -0.02348,-0.01731 -0.03125,-0.03125 -0.179896,-0.322842 -0.476719,-0.504815 -0.875,-0.625 -0.415473,-0.125373 -0.908261,-0.161011 -1.34375,-0.15625 z"
       inkscape:connector-curvature="0"
       id="path3982-9"
       style="fill:none;stroke:none" />
    <g
       transform="matrix(0.73764446,0,0,0.73764446,70.378571,6.4378897)"
       id="g3141">
      <path
         inkscape:connector-curvature="0"
         d="m -1.274407,-1.098966 c -1.494,0.02 0.281,0.768 2.232,1.069 0.541,-0.422 1.027,-0.846 1.463,-1.26 -1.213,0.297 -2.449,0.304 -3.695,0.191"
         id="path3022"
         style="fill:#d70751" />
      <path
         inkscape:connector-curvature="0"
         d="m 6.742593,-3.097966 c 0.893,-1.229 1.541,-2.573 1.77,-3.963 -0.201,0.99 -0.736,1.845 -1.244,2.749 -2.793,1.759 -0.264,-1.044 -0.002,-2.111 -3.002,3.783 -0.414,2.268 -0.524,3.325"
         id="path3024"
         style="fill:#d70751" />
      <path
         inkscape:connector-curvature="0"
         d="m 9.705593,-10.801966 c 0.182,-2.691 -0.529,-1.839 -0.768,-0.814 0.278,0.146 0.499,1.898 0.768,0.814"
         id="path3026"
         style="fill:#d70751" />
      <path
         inkscape:connector-curvature="0"
         d="m -6.942407,-47.580966 c 0.798,0.142 1.724,0.252 1.591,0.443 0.876,-0.193 1.073,-0.367 -1.591,-0.443"
         id="path3028"
         style="fill:#d70751" />
      <path
         inkscape:connector-curvature="0"
         d="m -5.350407,-47.137966 -0.561,0.117 0.523,-0.048 0.038,-0.069"
         id="path3030"
         style="fill:#d70751" />
      <path
         inkscape:connector-curvature="0"
         d="m 19.518593,-9.781966 c 0.09,2.416 -0.705,3.59 -1.424,5.666 l -1.293,0.643 c -1.057,2.054 0.105,1.304 -0.652,2.937 -1.652,1.467 -5.006,4.589 -6.08,4.875 -0.785,-0.017 0.531,-0.926 0.703,-1.281 -2.209,1.516 -1.773,2.276 -5.152,3.199 l -0.098,-0.221 c -8.33,3.92 -19.902,-3.847 -19.75,-14.443 -0.088,0.672 -0.253,0.504 -0.437,0.774 -0.43,-5.451 2.518,-10.926 7.49,-13.165 4.863,-2.406 10.564,-1.42 14.045,1.829 -1.912,-2.506 -5.721,-5.163 -10.232,-4.917 -4.421,0.072 -8.558,2.881 -9.938,5.932 -2.264,1.425 -2.528,5.496 -3.514,6.242 -1.329,9.76 2.497,13.975 8.97,18.936 1.016,0.686 0.286,0.791 0.422,1.313 -2.15,-1.006 -4.118,-2.526 -5.738,-4.387 0.86,1.257 1.787,2.479 2.986,3.439 -2.029,-0.685 -4.738,-4.913 -5.527,-5.085 3.495,6.258 14.178,10.975 19.775,8.634 -2.59,0.096 -5.879,0.053 -8.787,-1.022 -1.225,-0.629 -2.884,-1.93 -2.587,-2.173 7.636,2.851 15.522,2.158 22.128,-3.137 1.682,-1.31 3.518,-3.537 4.049,-3.567 -0.799,1.202 0.137,0.578 -0.477,1.639 1.672,-2.701 -0.729,-1.1 1.73,-4.664 l 0.908,1.25 c -0.34,-2.244 2.785,-4.966 2.467,-8.512 0.717,-1.084 0.799,1.168 0.039,3.662 1.055,-2.767 0.279,-3.212 0.549,-5.496 0.291,0.768 0.678,1.583 0.875,2.394 -0.688,-2.675 0.703,-4.503 1.049,-6.058 -0.342,-0.15 -1.061,1.182 -1.227,-1.976 0.025,-1.372 0.383,-0.719 0.52,-1.057 -0.268,-0.155 -0.975,-1.207 -1.404,-3.224 0.309,-0.475 0.832,1.229 1.256,1.298 -0.273,-1.603 -0.742,-2.826 -0.762,-4.057 -1.24,-2.59 -0.439,0.346 -1.443,-1.112 -1.32,-4.114 1.094,-0.955 1.258,-2.823 1.998,2.895 3.137,7.385 3.662,9.244 -0.4,-2.267 -1.045,-4.464 -1.834,-6.589 0.609,0.257 -0.979,-4.663 0.791,-1.405 -1.889,-6.945 -8.078,-13.435 -13.773,-16.479 0.695,0.637 1.574,1.437 1.26,1.563 -2.834,-1.685 -2.336,-1.818 -2.742,-2.53 -2.305,-0.939 -2.459,0.077 -3.984,0.002 -4.35,-2.308 -5.188,-2.063 -9.191,-3.507 l 0.182,0.852 c -2.881,-0.96 -3.357,0.362 -6.47,0.002 -0.189,-0.147 0.998,-0.536 1.976,-0.677 -2.786,0.368 -2.656,-0.55 -5.382,0.101 0.671,-0.471 1.383,-0.784 2.099,-1.184 -2.271,0.138 -5.424,1.322 -4.451,0.244 -3.705,1.654 -10.286,3.975 -13.979,7.438 l -0.116,-0.776 c -1.692,2.031 -7.379,6.066 -7.832,8.699 l -0.453,0.105 c -0.879,1.491 -1.45,3.18 -2.148,4.713 -1.151,1.963 -1.688,0.756 -1.524,1.064 -2.265,4.592 -3.392,8.45 -4.363,11.616 0.692,1.035 0.017,6.232 0.278,10.391 -1.136,20.544 14.418,40.489 31.42,45.093 2.492,0.893 6.197,0.861 9.349,0.949 -3.718,-1.064 -4.198,-0.563 -7.822,-1.826 -2.613,-1.232 -3.185,-2.637 -5.037,-4.244 l 0.733,1.295 c -3.63,-1.285 -2.111,-1.59 -5.065,-2.525 l 0.783,-1.021 c -1.177,-0.09 -3.117,-1.982 -3.647,-3.033 l -1.288,0.051 c -1.546,-1.906 -2.371,-3.283 -2.31,-4.35 l -0.416,0.742 c -0.471,-0.809 -5.691,-7.158 -2.983,-5.68 -0.503,-0.458 -1.172,-0.747 -1.897,-2.066 l 0.551,-0.629 c -1.301,-1.677 -2.398,-3.826 -2.314,-4.542 0.695,0.938 1.177,1.114 1.655,1.275 -3.291,-8.164 -3.476,-0.449 -5.967,-8.31 l 0.526,-0.042 c -0.403,-0.611 -0.65,-1.27 -0.974,-1.919 l 0.23,-2.285 c -2.368,-2.736 -0.662,-11.645 -0.319,-16.53 0.235,-1.986 1.977,-4.101 3.3,-7.418 l -0.806,-0.138 c 1.542,-2.688 8.802,-10.799 12.166,-10.383 1.629,-2.046 -0.324,-0.008 -0.643,-0.522 3.579,-3.703 4.704,-2.616 7.119,-3.283 2.603,-1.545 -2.235,0.604 -1.001,-0.589 4.503,-1.149 3.19,-2.614 9.063,-3.197 0.62,0.352 -1.437,0.544 -1.953,1.001 3.75,-1.836 11.869,-1.417 17.145,1.018 6.117,2.861 12.994,11.314 13.266,19.267 l 0.309,0.083 c -0.156,3.162 0.484,6.819 -0.627,10.177 l 0.751,-1.591"
         id="path3032"
         style="fill:#d70751" />
      <path
         inkscape:connector-curvature="0"
         d="m -17.585407,0.951034 -0.211,1.047 c 0.983,1.335 1.763,2.781 3.016,3.821 -0.902,-1.759 -1.571,-2.486 -2.805,-4.868"
         id="path3034"
         style="fill:#d70751" />
      <path
         inkscape:connector-curvature="0"
         d="m -15.264407,0.861034 c -0.52,-0.576 -0.826,-1.268 -1.172,-1.956 0.33,1.211 1.006,2.252 1.633,3.312 l -0.461,-1.356"
         id="path3036"
         style="fill:#d70751" />
      <path
         inkscape:connector-curvature="0"
         d="m 25.819593,-8.068966 -0.219,0.552 c -0.402,2.858 -1.273,5.686 -2.605,8.309 1.472,-2.767 2.421,-5.794 2.824,-8.861"
         id="path3038"
         style="fill:#d70751" />
      <path
         inkscape:connector-curvature="0"
         d="m -6.645407,-48.297966 c 1.009,-0.369 2.482,-0.203 3.556,-0.446 -1.398,0.117 -2.789,0.187 -4.162,0.362 l 0.606,0.084"
         id="path3040"
         style="fill:#d70751" />
      <path
         inkscape:connector-curvature="0"
         d="m -42.116407,-29.435966 c 0.233,2.154 -1.62,2.991 0.41,1.569 1.09,-2.454 -0.424,-0.677 -0.41,-1.569"
         id="path3042"
         style="fill:#d70751" />
      <path
         inkscape:connector-curvature="0"
         d="m -44.504407,-19.461966 c 0.469,-1.437 0.553,-2.299 0.732,-3.132 -1.293,1.654 -0.596,2.007 -0.732,3.132"
         id="path3044"
         style="fill:#d70751" />
    </g>
  </g>
</svg>
