<?xml version="1.0" encoding="UTF-8" standalone="no"?>
<!-- Created with Inkscape (http://www.inkscape.org/) -->

<svg
   xmlns:dc="http://purl.org/dc/elements/1.1/"
   xmlns:cc="http://creativecommons.org/ns#"
   xmlns:rdf="http://www.w3.org/1999/02/22-rdf-syntax-ns#"
   xmlns:svg="http://www.w3.org/2000/svg"
   xmlns="http://www.w3.org/2000/svg"
   xmlns:xlink="http://www.w3.org/1999/xlink"
   xmlns:sodipodi="http://sodipodi.sourceforge.net/DTD/sodipodi-0.dtd"
   xmlns:inkscape="http://www.inkscape.org/namespaces/inkscape"
   version="1.1"
   width="128"
   height="128"
   id="svg3971"
   inkscape:version="0.48.4 r9939"
   sodipodi:docname="audio-x-generic.svg">
  <sodipodi:namedview
     pagecolor="#ffffff"
     bordercolor="#666666"
     borderopacity="1"
     objecttolerance="10"
     gridtolerance="10"
     guidetolerance="10"
     inkscape:pageopacity="0"
     inkscape:pageshadow="2"
     inkscape:window-width="1855"
     inkscape:window-height="1056"
     id="namedview49"
     showgrid="true"
     inkscape:zoom="7.21875"
     inkscape:cx="18.56277"
     inkscape:cy="64"
     inkscape:window-x="65"
     inkscape:window-y="24"
     inkscape:window-maximized="1"
     inkscape:current-layer="layer1">
    <inkscape:grid
       type="xygrid"
       id="grid3037" />
  </sodipodi:namedview>
  <defs
     id="defs3973">
    <linearGradient
       x1="16.626165"
       y1="15.298182"
       x2="20.054544"
       y2="24.627615"
       id="linearGradient3164"
       xlink:href="#linearGradient8265-821-176-38-919-66-249-7-7"
       gradientUnits="userSpaceOnUse"
       gradientTransform="matrix(2.2144204,0,0,3.4699564,10.750311,-67.821122)" />
    <linearGradient
       id="linearGradient8265-821-176-38-919-66-249-7-7">
      <stop
         id="stop2687-1-9"
         style="stop-color:#ffffff;stop-opacity:1"
         offset="0" />
      <stop
         id="stop2689-5-4"
         style="stop-color:#ffffff;stop-opacity:0"
         offset="1" />
    </linearGradient>
    <linearGradient
       x1="23.99999"
       y1="5.6575165"
       x2="23.99999"
       y2="42.32058"
       id="linearGradient3167"
       xlink:href="#linearGradient3924"
       gradientUnits="userSpaceOnUse"
       gradientTransform="matrix(2.7297298,0,0,2.7297298,-1.5135114,-62.513485)" />
    <linearGradient
       id="linearGradient3924">
      <stop
         id="stop3926"
         style="stop-color:#ffffff;stop-opacity:1"
         offset="0" />
      <stop
         id="stop3928"
         style="stop-color:#ffffff;stop-opacity:0.23529412"
         offset="0.00293467" />
      <stop
         id="stop3930"
         style="stop-color:#ffffff;stop-opacity:0.15686275"
         offset="0.99483037" />
      <stop
         id="stop3932"
         style="stop-color:#ffffff;stop-opacity:0.39215687"
         offset="1" />
    </linearGradient>
    <linearGradient
       x1="-51.786404"
       y1="50.786446"
       x2="-51.786404"
       y2="2.9062471"
       id="linearGradient3095-1-9"
       xlink:href="#linearGradient3104-6-2-3"
       gradientUnits="userSpaceOnUse"
       gradientTransform="matrix(2.0306977,0,0,2.2467814,153.04984,-60.977786)" />
    <linearGradient
       id="linearGradient3104-6-2-3">
      <stop
         id="stop3106-3-4-0"
         style="stop-color:#000000;stop-opacity:0.31782946"
         offset="0" />
      <stop
         id="stop3108-9-9-2"
         style="stop-color:#000000;stop-opacity:0.24031007"
         offset="1" />
    </linearGradient>
    <linearGradient
       x1="25.132275"
       y1="0.98520643"
       x2="25.132275"
       y2="47.013336"
       id="linearGradient3101-2"
       xlink:href="#linearGradient3600-9-9"
       gradientUnits="userSpaceOnUse"
       gradientTransform="matrix(2.4373971,0,0,2.3371711,5.5024661,-56.677922)" />
    <linearGradient
       id="linearGradient3600-9-9">
      <stop
         id="stop3602-3-7"
         style="stop-color:#f4f4f4;stop-opacity:1"
         offset="0" />
      <stop
         id="stop3604-7-3"
         style="stop-color:#dbdbdb;stop-opacity:1"
         offset="1" />
    </linearGradient>
    <radialGradient
       cx="4.9929786"
       cy="43.5"
       r="2.5"
       fx="4.9929786"
       fy="43.5"
       id="radialGradient2455"
       xlink:href="#linearGradient3688-166-749"
       gradientUnits="userSpaceOnUse"
       gradientTransform="matrix(2.003784,0,0,1.4,27.98813,-17.4)" />
    <linearGradient
       id="linearGradient3688-166-749">
      <stop
         id="stop2883"
         style="stop-color:#181818;stop-opacity:1"
         offset="0" />
      <stop
         id="stop2885"
         style="stop-color:#181818;stop-opacity:0"
         offset="1" />
    </linearGradient>
    <radialGradient
       cx="4.9929786"
       cy="43.5"
       r="2.5"
       fx="4.9929786"
       fy="43.5"
       id="radialGradient2457"
       xlink:href="#linearGradient3688-464-309"
       gradientUnits="userSpaceOnUse"
       gradientTransform="matrix(2.003784,0,0,1.4,-20.01187,-104.4)" />
    <linearGradient
       id="linearGradient3688-464-309">
      <stop
         id="stop2889"
         style="stop-color:#181818;stop-opacity:1"
         offset="0" />
      <stop
         id="stop2891"
         style="stop-color:#181818;stop-opacity:0"
         offset="1" />
    </linearGradient>
    <linearGradient
       x1="25.058096"
       y1="47.027729"
       x2="25.058096"
       y2="39.999443"
       id="linearGradient2459"
       xlink:href="#linearGradient3702-501-757"
       gradientUnits="userSpaceOnUse" />
    <linearGradient
       id="linearGradient3702-501-757">
      <stop
         id="stop2895"
         style="stop-color:#181818;stop-opacity:0"
         offset="0" />
      <stop
         id="stop2897"
         style="stop-color:#181818;stop-opacity:1"
         offset="0.5" />
      <stop
         id="stop2899"
         style="stop-color:#181818;stop-opacity:0"
         offset="1" />
    </linearGradient>
    <radialGradient
       cx="11.314826"
       cy="7.6178813"
       r="19.99999"
       fx="11.314826"
       fy="7.6178813"
       id="radialGradient3038"
       xlink:href="#linearGradient2867-449-88-871-390-598-476-591-434-148-57-177-641-289-620-227-114-444-680-744-8-7-5"
       gradientUnits="userSpaceOnUse"
       gradientTransform="matrix(0,3.8373567,-3.2802878,0,88.106647,-8.425277)" />
    <linearGradient
       id="linearGradient2867-449-88-871-390-598-476-591-434-148-57-177-641-289-620-227-114-444-680-744-8-7-5">
      <stop
         id="stop5430-8-6-6"
         style="stop-color:#5f5f5f;stop-opacity:1"
         offset="0" />
      <stop
         id="stop5432-3-5-7"
         style="stop-color:#4f4f4f;stop-opacity:1"
         offset="0.26238" />
      <stop
         id="stop5434-1-6-7"
         style="stop-color:#3b3b3b;stop-opacity:1"
         offset="0.704952" />
      <stop
         id="stop5436-8-9-40"
         style="stop-color:#2b2b2b;stop-opacity:1"
         offset="1" />
    </linearGradient>
    <linearGradient
       x1="24"
       y1="44"
       x2="24"
       y2="3.8990016"
       id="linearGradient3040"
       xlink:href="#linearGradient3707-319-631-407-324-616-674-812-821-107-178-392-400-6-7-4"
       gradientUnits="userSpaceOnUse"
       gradientTransform="matrix(2.6575939,0,0,2.7952469,-3.45964,-3.093247)" />
    <linearGradient
       id="linearGradient3707-319-631-407-324-616-674-812-821-107-178-392-400-6-7-4">
      <stop
         id="stop5440-4-4-7"
         style="stop-color:#272727;stop-opacity:1"
         offset="0" />
      <stop
         id="stop5442-3-5-4"
         style="stop-color:#454545;stop-opacity:1"
         offset="1" />
    </linearGradient>
    <radialGradient
       r="19.99999"
       fy="7.6178813"
       fx="11.314826"
       cy="7.6178813"
       cx="11.314826"
       gradientTransform="matrix(0,3.8373567,-3.2802878,0,-29.280799,-57.425277)"
       gradientUnits="userSpaceOnUse"
       id="radialGradient3869"
       xlink:href="#linearGradient2867-449-88-871-390-598-476-591-434-148-57-177-641-289-620-227-114-444-680-744-8-7-5"
       inkscape:collect="always" />
    <linearGradient
       y2="3.8990016"
       x2="24"
       y1="44"
       x1="24"
       gradientTransform="matrix(2.6575939,0,0,2.7952469,-120.84709,-52.093247)"
       gradientUnits="userSpaceOnUse"
       id="linearGradient3871"
       xlink:href="#linearGradient3707-319-631-407-324-616-674-812-821-107-178-392-400-6-7-4"
       inkscape:collect="always" />
    <linearGradient
       inkscape:collect="always"
       xlink:href="#linearGradient2867-449-88-871-390-598-476-591-434-148-57-177-641-289-620-227-114-444-680-744-8-7-5"
       id="linearGradient4418"
       x1="1.0058084"
       y1="8.0041065"
       x2="14"
       y2="8.0041065"
       gradientUnits="userSpaceOnUse" />
    <radialGradient
       inkscape:collect="always"
       xlink:href="#linearGradient2867-449-88-871-390-598-476-591-434-148-57-177-641-289-620-227-114-444-680-744-8-7-5"
       id="radialGradient4420"
       cx="9.0099144"
       cy="1.4054939"
       fx="9.0099144"
       fy="1.4054939"
       r="6.4970956"
       gradientTransform="matrix(0,3.0798787,-2.8873863,0,13.068119,-27.874507)"
       gradientUnits="userSpaceOnUse" />
    <filter
       inkscape:collect="always"
       id="filter3829">
      <feGaussianBlur
         inkscape:collect="always"
         stdDeviation="0.36253006"
         id="feGaussianBlur3831" />
    </filter>
  </defs>
  <metadata
     id="metadata3976">
    <rdf:RDF>
      <cc:Work
         rdf:about="">
        <dc:format>image/svg+xml</dc:format>
        <dc:type
           rdf:resource="http://purl.org/dc/dcmitype/StillImage" />
        <dc:title />
      </cc:Work>
    </rdf:RDF>
  </metadata>
  <g
     transform="translate(0,64)"
     id="layer1">
    <g
       transform="matrix(2.9499988,0,0,1.2222234,-6.8000012,1.555538)"
       id="g2036"
       style="display:inline">
      <g
         transform="matrix(1.052632,0,0,1.285713,-1.263158,-13.42854)"
         id="g3712"
         style="opacity:0.4">
        <rect
           width="5"
           height="7"
           x="38"
           y="40"
           id="rect2801"
           style="fill:url(#radialGradient2455);fill-opacity:1;stroke:none" />
        <rect
           width="5"
           height="7"
           x="-10"
           y="-47"
           transform="scale(-1,-1)"
           id="rect3696"
           style="fill:url(#radialGradient2457);fill-opacity:1;stroke:none" />
        <rect
           width="28"
           height="7.0000005"
           x="10"
           y="40"
           id="rect3700"
           style="fill:url(#linearGradient2459);fill-opacity:1;stroke:none" />
      </g>
    </g>
    <rect
       width="102"
       height="102"
       x="13"
       y="-48"
       id="rect5505-21-8-4"
       style="color:#000000;fill:url(#linearGradient3101-2);fill-opacity:1;fill-rule:nonzero;stroke:none;stroke-width:0.99999994;marker:none;visibility:visible;display:inline;overflow:visible;enable-background:accumulate" />
    <rect
       width="103"
       height="103"
       x="12.5"
       y="-48.5"
       id="rect5505-21"
       style="color:#000000;fill:none;stroke:url(#linearGradient3095-1-9);stroke-width:0.9999218;stroke-linecap:butt;stroke-linejoin:round;stroke-miterlimit:4;stroke-opacity:1;stroke-dasharray:none;stroke-dashoffset:0;marker:none;visibility:visible;display:inline;overflow:visible;enable-background:accumulate" />
    <rect
       width="101"
       height="101"
       x="13.5"
       y="-47.5"
       id="rect6741-7"
       style="fill:none;stroke:url(#linearGradient3167);stroke-width:1;stroke-linecap:round;stroke-linejoin:miter;stroke-miterlimit:4;stroke-opacity:1;stroke-dasharray:none;stroke-dashoffset:0" />
    <path
       d="m 67.46875,-37.624999 c -1.346474,0 -1.869098,0.376285 -2.15625,0.96875 -0.287152,0.592465 -0.28125,1.506966 -0.28125,2.46875 L 65,20.281251 a 0.37521267,0.37521267 0 0 1 -0.09375,0.25 c -0.217233,0.225998 -0.522926,0.348457 -0.78125,0.34375 -0.258324,-0.0047 -0.481731,-0.08132 -0.6875,-0.15625 -0.411537,-0.149864 -0.737268,-0.288539 -0.9375,-0.21875 a 0.37521267,0.37521267 0 0 1 -0.15625,0.03125 c -8.139139,-0.494041 -17.065023,5.40125 -17.875,13.84375 a 0.37521267,0.37521267 0 0 1 0,0.03125 c -0.470696,3.30959 1.053707,6.31927 3.5,8.40625 2.446293,2.08698 5.797465,3.20361 8.9375,2.6875 a 0.37521267,0.37521267 0 0 1 0.03125,0 c 8.004553,-0.84684 13.982654,-8.92232 12.9375,-16.875 a 0.37521267,0.37521267 0 0 1 0,-0.0625 c 0.02322,-14.379353 -0.05003,-28.782915 0.03125,-43.15625 a 0.37521267,0.37521267 0 0 1 0.09375,-0.25 c 0.225788,-0.257501 0.594326,-0.335442 0.875,-0.28125 0.280674,0.05419 0.517639,0.20085 0.75,0.34375 0.232361,0.1429 0.438145,0.288574 0.625,0.40625 0.186855,0.117676 0.354135,0.185141 0.375,0.1875 a 0.37521267,0.37521267 0 0 1 0.15625,0.0625 c 6.69292,3.943272 12.65864,10.441878 13.0625,18.625 0.379204,5.460852 -1.022455,10.792207 -2.78125,15.875 5.842631,-8.549713 7.472963,-20.050716 2.9375,-29.5 -2.492785,-5.894808 -8.220934,-9.605371 -11.5,-15.3125 -2.380965,-3.74992 -4.192388,-7.921864 -4.78125,-12.375 -0.0073,-0.01444 -0.02348,-0.01731 -0.03125,-0.03125 -0.179896,-0.322842 -0.476719,-0.504815 -0.875,-0.625 -0.415473,-0.125373 -0.908261,-0.161011 -1.34375,-0.15625 z"
       inkscape:connector-curvature="0"
       id="path3982-9"
       style="fill:none;stroke:none" />
    <g
       transform="matrix(3.9979478,0,0,3.9979478,33.978831,-30.500001)"
       id="g3142"
       style="opacity:1;color:#bebebe;fill:#666666;fill-opacity:1;fill-rule:nonzero;stroke:none;stroke-width:1;marker:none;visibility:visible;display:inline;overflow:visible;enable-background:accumulate;filter:url(#filter3829)">
      <path
         d="M 13.375,0 6,1.90625 C 5.446,2.0546939 5,2.645207 5,3.21875 L 5,12.3125 C 4.4382289,12.018344 3.716744,11.899398 2.96875,12.09375 1.6189863,12.444461 0.77316552,13.577902 1.0625,14.625 1.3518345,15.672098 2.6814863,16.256961 4.03125,15.90625 5.1080835,15.626455 5.8503667,14.834802 5.96875,14 L 6,5.40625 l 7,-1.875 0,6.78125 C 12.438229,10.018344 11.716744,9.8993976 10.96875,10.09375 9.6189863,10.444461 8.7731655,11.577902 9.0625,12.625 c 0.2893345,1.047098 1.618986,1.631961 2.96875,1.28125 C 13.108084,13.626455 13.850367,12.834802 13.96875,12 L 14,0.8125 C 14,0.38234275 13.734156,0.06051165 13.375,0 z"
         inkscape:connector-curvature="0"
         id="path3144"
         style="color:#bebebe;fill:#666666;fill-opacity:1;fill-rule:nonzero;stroke:none;stroke-width:1;marker:none;visibility:visible;display:inline;overflow:visible;enable-background:accumulate" />
    </g>
    <g
       style="color:#bebebe;fill:url(#linearGradient4418);fill-opacity:1.0;fill-rule:nonzero;stroke:none;stroke-width:1;marker:none;visibility:visible;display:inline;overflow:visible;enable-background:accumulate"
       id="layer1-5"
       transform="matrix(3.9979478,0,0,3.9979478,33.978831,-30.500001)">
      <path
         style="color:#bebebe;fill:url(#radialGradient4420);fill-opacity:1;fill-rule:nonzero;stroke:none;stroke-width:1;marker:none;visibility:visible;display:inline;overflow:visible;enable-background:accumulate"
         id="rect2996"
         inkscape:connector-curvature="0"
         d="M 13.375,0 6,1.90625 C 5.446,2.0546939 5,2.645207 5,3.21875 L 5,12.3125 C 4.4382289,12.018344 3.716744,11.899398 2.96875,12.09375 1.6189863,12.444461 0.77316552,13.577902 1.0625,14.625 1.3518345,15.672098 2.6814863,16.256961 4.03125,15.90625 5.1080835,15.626455 5.8503667,14.834802 5.96875,14 L 6,5.40625 l 7,-1.875 0,6.78125 C 12.438229,10.018344 11.716744,9.8993976 10.96875,10.09375 9.6189863,10.444461 8.7731655,11.577902 9.0625,12.625 c 0.2893345,1.047098 1.618986,1.631961 2.96875,1.28125 C 13.108084,13.626455 13.850367,12.834802 13.96875,12 L 14,0.8125 C 14,0.38234275 13.734156,0.06051165 13.375,0 z" />
    </g>
  </g>
</svg>
