<?xml version="1.0" encoding="UTF-8" standalone="no"?>
<svg
   xmlns:dc="http://purl.org/dc/elements/1.1/"
   xmlns:cc="http://creativecommons.org/ns#"
   xmlns:rdf="http://www.w3.org/1999/02/22-rdf-syntax-ns#"
   xmlns:svg="http://www.w3.org/2000/svg"
   xmlns="http://www.w3.org/2000/svg"
   xmlns:xlink="http://www.w3.org/1999/xlink"
   xmlns:sodipodi="http://sodipodi.sourceforge.net/DTD/sodipodi-0.dtd"
   xmlns:inkscape="http://www.inkscape.org/namespaces/inkscape"
   id="svg3182"
   height="32"
   width="32"
   version="1.1"
   inkscape:version="0.91 r"
   sodipodi:docname="application-octet-stream.svg">
  <sodipodi:namedview
     pagecolor="#ffffff"
     bordercolor="#666666"
     borderopacity="1"
     objecttolerance="10"
     gridtolerance="10"
     guidetolerance="10"
     inkscape:pageopacity="0"
     inkscape:pageshadow="2"
     inkscape:window-width="1395"
     inkscape:window-height="924"
     id="namedview4176"
     showgrid="false"
     inkscape:zoom="7.375"
     inkscape:cx="-9.0847458"
     inkscape:cy="16"
     inkscape:window-x="75"
     inkscape:window-y="34"
     inkscape:window-maximized="0"
     inkscape:current-layer="svg3182" />
  <defs
     id="defs3184">
    <linearGradient
       id="linearGradient3977">
      <stop
         offset="0"
         style="stop-color:#ffffff;stop-opacity:1"
         id="stop3979" />
      <stop
         offset="0"
         style="stop-color:#ffffff;stop-opacity:0.23529412"
         id="stop3981" />
      <stop
         offset="0.99999994"
         style="stop-color:#ffffff;stop-opacity:0.15686275"
         id="stop3983" />
      <stop
         offset="1"
         style="stop-color:#ffffff;stop-opacity:0.39215687"
         id="stop3985" />
    </linearGradient>
    <linearGradient
       id="linearGradient3600-4">
      <stop
         offset="0"
         style="stop-color:#f4f4f4;stop-opacity:1"
         id="stop3602-7" />
      <stop
         offset="1"
         style="stop-color:#dbdbdb;stop-opacity:1"
         id="stop3604-6" />
    </linearGradient>
    <linearGradient
       id="linearGradient5060">
      <stop
         offset="0"
         style="stop-color:#000000;stop-opacity:1"
         id="stop5062" />
      <stop
         offset="1"
         style="stop-color:#000000;stop-opacity:0"
         id="stop5064" />
    </linearGradient>
    <linearGradient
       id="linearGradient5048">
      <stop
         offset="0"
         style="stop-color:#000000;stop-opacity:0"
         id="stop5050" />
      <stop
         offset="0.5"
         style="stop-color:#000000;stop-opacity:1"
         id="stop5056" />
      <stop
         offset="1"
         style="stop-color:#000000;stop-opacity:0"
         id="stop5052" />
    </linearGradient>
    <linearGradient
       gradientTransform="matrix(0.56756757,0,0,0.72972971,2.378382,-2.5135063)"
       gradientUnits="userSpaceOnUse"
       xlink:href="#linearGradient3977"
       id="linearGradient3013"
       y2="41.814808"
       x2="23.99999"
       y1="6.1851754"
       x1="23.99999" />
    <linearGradient
       gradientTransform="matrix(0.62856997,0,0,0.60839392,0.91431981,-0.5347905)"
       gradientUnits="userSpaceOnUse"
       xlink:href="#linearGradient3600-4"
       id="linearGradient3016"
       y2="47.013336"
       x2="25.132275"
       y1="0.98520643"
       x1="25.132275" />
    <radialGradient
       gradientTransform="matrix(0.01566318,0,0,0.00823529,17.610433,25.980565)"
       gradientUnits="userSpaceOnUse"
       xlink:href="#linearGradient5060"
       id="radialGradient3021"
       fy="486.64789"
       fx="605.71429"
       r="117.14286"
       cy="486.64789"
       cx="605.71429" />
    <radialGradient
       gradientTransform="matrix(-0.01566318,0,0,0.00823529,14.389566,25.980565)"
       gradientUnits="userSpaceOnUse"
       xlink:href="#linearGradient5060"
       id="radialGradient3024"
       fy="486.64789"
       fx="605.71429"
       r="117.14286"
       cy="486.64789"
       cx="605.71429" />
    <linearGradient
       gradientTransform="matrix(0.04576928,0,0,0.00823529,-0.5423243,25.980548)"
       gradientUnits="userSpaceOnUse"
       xlink:href="#linearGradient5048"
       id="linearGradient3027"
       y2="609.50507"
       x2="302.85715"
       y1="366.64789"
       x1="302.85715" />
    <linearGradient
       id="linearGradient3104-6">
      <stop
         id="stop3106-3"
         style="stop-color:#000000;stop-opacity:0.31782946"
         offset="0" />
      <stop
         id="stop3108-9"
         style="stop-color:#000000;stop-opacity:0.24031007"
         offset="1" />
    </linearGradient>
    <linearGradient
       y2="2.9062471"
       x2="-51.786404"
       y1="50.786446"
       x1="-51.786404"
       gradientTransform="matrix(0.53064141,0,0,0.58970049,39.269607,-1.791918)"
       gradientUnits="userSpaceOnUse"
       id="linearGradient3148"
       xlink:href="#linearGradient3104-6" />
  </defs>
  <metadata
     id="metadata3187">
    <rdf:RDF>
      <cc:Work
         rdf:about="">
        <dc:format>image/svg+xml</dc:format>
        <dc:type
           rdf:resource="http://purl.org/dc/dcmitype/StillImage" />
        <dc:title />
      </cc:Work>
    </rdf:RDF>
  </metadata>
  <path
     style="display:inline;overflow:visible;visibility:visible;opacity:1;fill:#353945;fill-opacity:1;fill-rule:evenodd;stroke:none;stroke-width:1.21500194;marker:none"
     id="path2648"
     d="m 12.674164,22.428571 -3.80151,0 0,4.285715 3.80151,0 0,-4.285715 z M 16.452619,1 12.65111,1 l 0,4.2857143 3.801509,0 0,-4.2857143 z m 7.603017,0 -3.801512,0 0,4.2857143 3.801512,0 0,-4.2857143 z m -3.801512,4.2857143 -3.801508,0 0,4.2857143 3.801508,0 0,-4.2857143 z M 8.801509,1 5,1 l 0,4.2857143 3.801509,0 0,-4.2857143 z m 19.055634,4.2857143 -3.801509,0 0,4.2857143 3.801509,0 0,-4.2857143 z m -3.801507,4.2857143 -3.801512,0 0,4.2857144 3.801512,0 0,-4.2857144 z m -3.801512,4.2857144 -3.801508,0 0,4.285714 3.801508,0 0,-4.285714 z m -3.801505,-4.2857144 -3.801509,0 0,4.2857144 3.801509,0 0,-4.2857144 z m -3.801512,-4.2857143 -3.80151,0 0,4.2857143 3.80151,0 0,-4.2857143 z m -3.801506,4.2857143 -3.849601,0 0,4.2857144 3.849601,0 0,-4.2857144 z m 3.801506,4.2857144 -3.80151,0 0,4.285714 3.80151,0 0,-4.285714 z m -3.801506,4.285714 -3.849601,0 0,4.285714 3.849601,0 0,-4.285714 z m 19.007542,-4.285714 -3.801509,0 0,4.285714 3.801509,0 0,-4.285714 z m -3.801507,4.285714 -3.801512,0 0,4.285714 3.801512,0 0,-4.285714 z m 3.801507,4.285714 -3.801509,0 0,4.285715 3.801509,0 0,-4.285715 z m -3.801507,4.285715 -3.801512,0 0,4.285714 3.801512,0 0,-4.285714 z m -3.801512,-4.285715 -3.801508,0 0,4.285715 3.801508,0 0,-4.285715 z m -3.801505,-4.285714 -3.801509,0 0,4.285714 3.801509,0 0,-4.285714 z m -0.0494,8.571429 -3.801509,0 0,4.285714 3.801509,0 0,-4.285714 z m -7.553618,0 L 5,26.714286 5,31 l 3.849601,0 0,-4.285714 z"
     inkscape:connector-curvature="0" />
</svg>
