<?xml version="1.0" encoding="UTF-8" standalone="no"?>
<svg
   xmlns:dc="http://purl.org/dc/elements/1.1/"
   xmlns:cc="http://creativecommons.org/ns#"
   xmlns:rdf="http://www.w3.org/1999/02/22-rdf-syntax-ns#"
   xmlns:svg="http://www.w3.org/2000/svg"
   xmlns="http://www.w3.org/2000/svg"
   xmlns:xlink="http://www.w3.org/1999/xlink"
   xmlns:sodipodi="http://sodipodi.sourceforge.net/DTD/sodipodi-0.dtd"
   xmlns:inkscape="http://www.inkscape.org/namespaces/inkscape"
   version="1.1"
   width="32"
   height="32"
   id="svg3182"
   inkscape:version="0.91 r"
   sodipodi:docname="application-octet-stream.svg">
  <sodipodi:namedview
     pagecolor="#ffffff"
     bordercolor="#666666"
     borderopacity="1"
     objecttolerance="10"
     gridtolerance="10"
     guidetolerance="10"
     inkscape:pageopacity="0"
     inkscape:pageshadow="2"
     inkscape:window-width="640"
     inkscape:window-height="480"
     id="namedview36"
     showgrid="false"
     inkscape:zoom="28.95927"
     inkscape:cx="9.8189049"
     inkscape:cy="16"
     inkscape:current-layer="layer1" />
  <defs
     id="defs3184">
    <linearGradient
       x1="23.99999"
       y1="5.5641499"
       x2="23.99999"
       y2="43"
       id="linearGradient3119"
       xlink:href="#linearGradient3977"
       gradientUnits="userSpaceOnUse"
       gradientTransform="matrix(0.56756757,0,0,0.72972971,2.378382,-2.5135063)" />
    <linearGradient
       id="linearGradient3977">
      <stop
         id="stop3979"
         style="stop-color:#ffffff;stop-opacity:1"
         offset="0" />
      <stop
         id="stop3981"
         style="stop-color:#ffffff;stop-opacity:0.23529412"
         offset="0.03626217" />
      <stop
         id="stop3983"
         style="stop-color:#ffffff;stop-opacity:0.15686275"
         offset="0.95056331" />
      <stop
         id="stop3985"
         style="stop-color:#ffffff;stop-opacity:0.39215687"
         offset="1" />
    </linearGradient>
    <linearGradient
       x1="25.132275"
       y1="0.98520643"
       x2="25.132275"
       y2="47.013336"
       id="linearGradient3122"
       xlink:href="#linearGradient3600-4"
       gradientUnits="userSpaceOnUse"
       gradientTransform="matrix(0.65714319,0,0,0.63012397,0.228556,-1.0896478)" />
    <linearGradient
       id="linearGradient3600-4">
      <stop
         id="stop3602-7"
         style="stop-color:#f4f4f4;stop-opacity:1"
         offset="0" />
      <stop
         id="stop3604-6"
         style="stop-color:#dbdbdb;stop-opacity:1"
         offset="1" />
    </linearGradient>
    <linearGradient
       x1="-51.786404"
       y1="50.786446"
       x2="-51.786404"
       y2="2.9062471"
       id="linearGradient3124"
       xlink:href="#linearGradient3104-5"
       gradientUnits="userSpaceOnUse"
       gradientTransform="matrix(0.53064102,0,0,0.58970216,39.269585,-1.7919079)" />
    <linearGradient
       id="linearGradient3104-5">
      <stop
         id="stop3106-6"
         style="stop-color:#a0a0a0;stop-opacity:1"
         offset="0" />
      <stop
         id="stop3108-9"
         style="stop-color:#bebebe;stop-opacity:1"
         offset="1" />
    </linearGradient>
    <radialGradient
       cx="605.71429"
       cy="486.64789"
       r="117.14286"
       fx="605.71429"
       fy="486.64789"
       id="radialGradient3045"
       xlink:href="#linearGradient5060"
       gradientUnits="userSpaceOnUse"
       gradientTransform="matrix(0.01566318,0,0,0.00823529,17.610433,25.980565)" />
    <linearGradient
       id="linearGradient5060">
      <stop
         id="stop5062"
         style="stop-color:#000000;stop-opacity:1"
         offset="0" />
      <stop
         id="stop5064"
         style="stop-color:#000000;stop-opacity:0"
         offset="1" />
    </linearGradient>
    <radialGradient
       cx="605.71429"
       cy="486.64789"
       r="117.14286"
       fx="605.71429"
       fy="486.64789"
       id="radialGradient3048"
       xlink:href="#linearGradient5060"
       gradientUnits="userSpaceOnUse"
       gradientTransform="matrix(-0.01566318,0,0,0.00823529,14.389566,25.980565)" />
    <linearGradient
       id="linearGradient5048">
      <stop
         id="stop5050"
         style="stop-color:#000000;stop-opacity:0"
         offset="0" />
      <stop
         id="stop5056"
         style="stop-color:#000000;stop-opacity:1"
         offset="0.5" />
      <stop
         id="stop5052"
         style="stop-color:#000000;stop-opacity:0"
         offset="1" />
    </linearGradient>
    <linearGradient
       x1="302.85715"
       y1="366.64789"
       x2="302.85715"
       y2="609.50507"
       id="linearGradient3180"
       xlink:href="#linearGradient5048"
       gradientUnits="userSpaceOnUse"
       gradientTransform="matrix(0.04576928,0,0,0.00823529,-0.5423243,25.980548)" />
  </defs>
  <metadata
     id="metadata3187">
    <rdf:RDF>
      <cc:Work
         rdf:about="">
        <dc:format>image/svg+xml</dc:format>
        <dc:type
           rdf:resource="http://purl.org/dc/dcmitype/StillImage" />
        <dc:title></dc:title>
      </cc:Work>
    </rdf:RDF>
  </metadata>
  <g
     id="layer1">
    <rect
       width="22.100021"
       height="2"
       x="4.9499893"
       y="29"
       id="rect2879"
       style="opacity:0.15;fill:url(#linearGradient3180);fill-opacity:1;fill-rule:nonzero;stroke:none;stroke-width:1;marker:none;visibility:visible;display:inline;overflow:visible" />
    <path
       d="m 4.9499887,29.000086 c 0,0 0,1.99989 0,1.99989 -0.806615,0.0038 -1.950002,-0.448074 -1.950002,-1.000074 0,-0.552 0.900121,-0.999816 1.950002,-0.999816 z"
       id="path2881"
       style="opacity:0.15;fill:url(#radialGradient3048);fill-opacity:1;fill-rule:nonzero;stroke:none;stroke-width:1;marker:none;visibility:visible;display:inline;overflow:visible" />
    <path
       d="m 27.050011,29.000086 c 0,0 0,1.99989 0,1.99989 0.806614,0.0038 1.950002,-0.448074 1.950002,-1.000074 0,-0.552 -0.900122,-0.999816 -1.950002,-0.999816 z"
       id="path2883"
       style="opacity:0.15;fill:url(#radialGradient3045);fill-opacity:1;fill-rule:nonzero;stroke:none;stroke-width:1;marker:none;visibility:visible;display:inline;overflow:visible" />
    <path
       d="m 4.499961,0.49996093 c 5.270482,0 23.000037,0.00185 23.000037,0.00185 l 2.8e-5,28.99822807 c 0,0 -15.333376,0 -23.000065,0 0,-9.666692 0,-19.333383 0,-29.00007387 z"
       id="path4160-3"
       style="fill:url(#linearGradient3122);fill-opacity:1;stroke:url(#linearGradient3124);stroke-width:0.99992186;stroke-linecap:butt;stroke-linejoin:round;stroke-miterlimit:4;stroke-opacity:1;stroke-dasharray:none;stroke-dashoffset:0;display:inline" />
    <path
       d="m 26.5,28.5 -21,0 0,-27 21,0 z"
       id="rect6741-1"
       style="fill:none;stroke:url(#linearGradient3119);stroke-width:0.99999994;stroke-linecap:round;stroke-linejoin:round;stroke-miterlimit:4;stroke-opacity:1;stroke-dasharray:none;stroke-dashoffset:0" />
    <g
       id="g4185"
       transform="matrix(0.6999999,0,0,0.6999999,-0.80000483,-1.4425748)">
      <path
         inkscape:connector-curvature="0"
         style="overflow:visible;opacity:0.4;fill:#ffffff;fill-opacity:1;stroke:#ffffff;stroke-width:0.9494676;stroke-opacity:1"
         d="m 31.921488,27.637883 c 0.415231,0 0.88561,-0.192732 1.24605,-0.444562 l 0.0206,-0.0351 c 0.25195,-0.50044 0.531657,-1.289983 0.140213,-1.996766 l -2.418217,-4.102446 -3.817099,2.190211 2.577895,4.388673 2.25061,0 z"
         id="path3883" />
      <path
         id="path3885"
         d="m 17.21069,30.245297 c -0.309985,-0.467132 -2.120498,-3.759619 -2.492473,-4.320962 -0.372701,-0.560274 -0.256631,-1.361274 -0.05479,-1.708395 l 1.28751,-2.162633 -0.938588,-0.514419 4.099685,-0.550597 1.607217,3.74493 -0.921655,-0.549521 -2.453907,4.23033 c -0.30169,0.520503 -0.486601,1.339064 -0.133005,1.831267 z"
         style="overflow:visible;opacity:0.4;fill:#ffffff;fill-opacity:1;stroke:#ffffff;stroke-width:0.9494676;stroke-linecap:round;stroke-linejoin:round;stroke-opacity:1"
         inkscape:connector-curvature="0" />
      <path
         id="path3887"
         d="m 18.65571,26.982905 -1.058982,1.825176 c -0.252675,0.435253 -0.418838,1.077198 -0.260961,1.564032 0.321511,0.447785 0.839832,0.976889 1.580544,0.99194 l 4.799311,0 0,-4.381148 -5.059912,0 z"
         style="overflow:visible;opacity:0.4;fill:#ffffff;fill-opacity:1;stroke:#ffffff;stroke-width:0.9494676;stroke-linecap:round;stroke-linejoin:round;stroke-opacity:1"
         inkscape:connector-curvature="0" />
      <path
         id="path3889"
         d="m 33.187723,26.184406 c -0.251949,0.500445 -2.216367,3.704811 -2.51878,4.305204 -0.302051,0.601109 -1.0579,0.901661 -1.460879,0.901661 l -2.410288,-0.02479 0,1.158875 -2.627637,-3.349789 2.627637,-3.349446 0,1.158869 4.726864,0 c 0.605183,0 1.411134,-0.250037 1.663083,-0.800643 z"
         style="overflow:visible;opacity:0.4;fill:#ffffff;fill-opacity:1;stroke:#ffffff;stroke-width:0.9494676;stroke-linecap:round;stroke-linejoin:round;stroke-opacity:1"
         inkscape:connector-curvature="0" />
      <path
         id="path3891"
         d="m 21.660731,14.462782 c 0.562293,-0.03322 4.336495,0.05587 5.010888,0.01533 0.674755,-0.04015 1.314177,0.459966 1.515669,0.80709 l 1.273085,2.188064 0.960947,-0.560986 -1.645426,3.815863 -4.122039,-0.50225 0.959144,-0.532325 -2.423265,-4.200235 c -0.302055,-0.520127 -0.923098,-1.088994 -1.529003,-1.030602 z"
         style="overflow:visible;opacity:0.4;fill:#ffffff;fill-opacity:1;stroke:#ffffff;stroke-width:0.9494676;stroke-linecap:round;stroke-linejoin:round;stroke-opacity:1"
         inkscape:connector-curvature="0" />
      <path
         id="path3893"
         d="m 21.483029,14.562371 c -0.555082,0.04759 -1.299398,0.222816 -1.692281,0.867629 l -2.357663,4.072714 3.817102,2.190571 2.52707,-4.365025 -1.00708,-1.745653 c -0.2624,-0.450293 -0.763421,-0.936053 -1.287148,-1.020236 z"
         style="overflow:visible;opacity:0.4;fill:#ffffff;fill-opacity:1;stroke:#ffffff;stroke-width:0.9494676;stroke-linecap:round;stroke-linejoin:round;stroke-opacity:1"
         inkscape:connector-curvature="0" />
      <path
         id="path3982"
         d="m 17.160499,30.551984 c -0.309984,-0.467133 -2.120498,-3.759622 -2.492475,-4.320971 -0.372697,-0.560267 -0.256628,-1.361273 -0.0548,-1.708397 l 1.287501,-2.162626 -0.938586,-0.51442 4.099683,-0.550598 1.60722,3.744927 -0.921654,-0.549521 -2.453906,4.230329 c -0.301693,0.520507 -0.486597,1.339061 -0.133005,1.831277 z"
         style="overflow:visible;opacity:0.5;fill:#ffffff;fill-opacity:1;stroke:none"
         inkscape:connector-curvature="0" />
      <path
         id="path3895"
         d="m 31.921488,26.604255 c 0.415231,0 0.88561,-0.192731 1.24605,-0.444561 l 0.0206,-0.03511 c 0.25195,-0.500443 0.531657,-1.289983 0.140213,-1.996765 l -2.418217,-4.102447 -3.817099,2.190216 2.577895,4.388669 2.25061,0 z"
         style="overflow:visible;opacity:0.4;fill:#ffffff;fill-opacity:1;stroke:#ffffff;stroke-width:0.9494676;stroke-linecap:round;stroke-linejoin:round;stroke-opacity:1"
         inkscape:connector-curvature="0" />
      <path
         id="path3984"
         d="m 18.605521,27.289584 -1.058983,1.82518 c -0.252676,0.435248 -0.41884,1.07719 -0.260962,1.564027 0.321514,0.447784 0.839832,0.976889 1.580546,0.991937 l 4.799308,0 0,-4.381144 -5.059909,0 z"
         style="overflow:visible;opacity:0.5;fill:#ffffff;fill-opacity:1;stroke:none"
         inkscape:connector-curvature="0" />
      <path
         id="path3986"
         d="m 33.137534,26.491086 c -0.251952,0.500454 -2.216369,3.704809 -2.518781,4.305208 -0.302053,0.601109 -1.0579,0.901662 -1.460878,0.901662 l -2.410289,-0.02477 0,1.158863 -2.627636,-3.349791 2.627636,-3.349446 0,1.158873 4.726864,0 c 0.605181,0 1.411132,-0.250046 1.663084,-0.800645 z"
         style="overflow:visible;opacity:0.75;fill:#ffffff;fill-opacity:1;stroke:none"
         inkscape:connector-curvature="0" />
      <path
         id="path3848"
         d="m 17.21069,30.489271 c -0.309985,-0.467131 -2.120498,-3.75962 -2.492473,-4.320966 -0.372701,-0.56027 -0.256631,-1.361269 -0.0548,-1.708392 l 1.287502,-2.162635 -0.938589,-0.514417 4.099686,-0.550599 1.607219,3.74493 -0.921654,-0.549521 -2.45391,4.23033 c -0.301686,0.52051 -0.486594,1.339068 -0.133001,1.83127 z"
         style="overflow:visible;opacity:0.75;fill:#ffffff;fill-opacity:1;stroke:none"
         inkscape:connector-curvature="0" />
      <path
         id="path3988"
         d="m 21.610538,14.769463 c 0.562296,-0.03323 4.336501,0.05587 5.010893,0.01533 0.674751,-0.04015 1.314175,0.459968 1.515667,0.807091 l 1.273085,2.188067 0.960945,-0.560988 -1.645426,3.815855 -4.122037,-0.502234 0.959144,-0.532328 -2.423266,-4.200245 c -0.302052,-0.520133 -0.923097,-1.089005 -1.529005,-1.030613 z"
         style="overflow:visible;opacity:0.75;fill:#ffffff;fill-opacity:1;stroke:none"
         inkscape:connector-curvature="0" />
      <path
         id="path3990"
         d="m 21.432838,14.869051 c -0.555081,0.04758 -1.2994,0.222819 -1.692281,0.867629 l -2.357663,4.072712 3.817101,2.190573 2.527071,-4.365025 -1.007078,-1.74565 c -0.262401,-0.450299 -0.763423,-0.936055 -1.28715,-1.020239 z"
         style="overflow:visible;opacity:0.75;fill:#ffffff;fill-opacity:1;stroke:none"
         inkscape:connector-curvature="0" />
      <path
         inkscape:connector-curvature="0"
         style="overflow:visible;opacity:1;fill:#949494;fill-opacity:1;stroke:none"
         d="m 17.21069,29.934347 c -0.309985,-0.467131 -2.120498,-3.759613 -2.492473,-4.320961 -0.372701,-0.56027 -0.256631,-1.36127 -0.05477,-1.708393 l 1.287517,-2.162634 -0.938592,-0.514417 4.099687,-0.5506 1.607213,3.744932 -0.921652,-0.549523 -2.453908,4.23033 c -0.301684,0.520508 -0.486596,1.339064 -0.133,1.831266 z"
         id="path3043" />
      <path
         id="path3846"
         d="m 18.65571,27.147713 -1.058982,1.825172 c -0.252675,0.435259 -0.418838,1.077201 -0.260961,1.564036 0.321511,0.447794 0.839832,0.976898 1.580544,0.991932 l 4.799311,0 0,-4.38114 -5.059912,0 z"
         style="overflow:visible;opacity:0.75;fill:#ffffff;fill-opacity:1;stroke:none"
         inkscape:connector-curvature="0" />
      <path
         inkscape:connector-curvature="0"
         style="overflow:visible;opacity:1;fill:#949494;fill-opacity:1;stroke:none"
         d="m 18.65571,26.671956 -1.058982,1.82518 c -0.252675,0.435247 -0.418838,1.077196 -0.260961,1.564026 0.321511,0.447793 0.839832,0.976899 1.580544,0.991945 l 4.799311,0 0,-4.381151 -5.059912,0 z"
         id="path3045" />
      <path
         id="path3992"
         d="m 31.871296,26.910936 c 0.415232,0 0.885613,-0.192726 1.246053,-0.444565 l 0.0206,-0.03506 c 0.251952,-0.500446 0.53166,-1.289987 0.140214,-1.996771 l -2.418216,-4.102444 -3.817099,2.190213 2.577895,4.388668 2.250609,0 z"
         style="overflow:visible;opacity:0.75;fill:#ffffff;fill-opacity:1;stroke:none"
         inkscape:connector-curvature="0" />
      <path
         inkscape:connector-curvature="0"
         style="overflow:visible;opacity:1;fill:#949494;fill-opacity:1;stroke:none"
         d="m 33.187723,25.873462 c -0.251949,0.500443 -2.216367,3.704813 -2.51878,4.305199 -0.302051,0.601112 -1.0579,0.901666 -1.460879,0.901666 l -2.410288,-0.02482 0,1.158879 -2.627637,-3.349801 2.627637,-3.349443 0,1.158865 4.726864,0 c 0.605183,0 1.411134,-0.250042 1.663083,-0.800646 z"
         id="path3047" />
      <path
         inkscape:connector-curvature="0"
         style="overflow:visible;opacity:1;fill:#949494;fill-opacity:1;stroke:none"
         d="m 21.660731,14.151837 c 0.562293,-0.03323 4.336495,0.05587 5.010888,0.01533 0.674755,-0.04015 1.314177,0.459967 1.515669,0.807091 l 1.273085,2.188062 0.960947,-0.560984 -1.645426,3.81586 -4.122039,-0.502243 0.959144,-0.532333 -2.423265,-4.200236 c -0.302055,-0.520135 -0.923098,-1.089002 -1.529003,-1.03061 z"
         id="path3049" />
      <path
         inkscape:connector-curvature="0"
         style="overflow:visible;opacity:1;fill:#949494;fill-opacity:1;stroke:none"
         d="m 21.483029,14.251426 c -0.555082,0.04759 -1.299398,0.222814 -1.692281,0.867627 l -2.357663,4.072713 3.817102,2.190572 2.52707,-4.365024 -1.00708,-1.745654 c -0.2624,-0.450294 -0.763421,-0.936052 -1.287148,-1.020234 z"
         id="path3051" />
      <path
         inkscape:connector-curvature="0"
         style="overflow:visible;opacity:1;fill:#949494;fill-opacity:1;stroke:none"
         d="m 31.921488,26.293307 c 0.415231,0 0.88561,-0.192729 1.24605,-0.444559 l 0.0206,-0.03507 c 0.25195,-0.500447 0.531657,-1.289985 0.140213,-1.996772 l -2.418217,-4.10244 -3.817099,2.190212 2.577895,4.388669 2.25061,0 z"
         id="path3053" />
    </g>
  </g>
</svg>
