<?xml version="1.0" encoding="UTF-8" standalone="no"?>
<svg
   xmlns:dc="http://purl.org/dc/elements/1.1/"
   xmlns:cc="http://creativecommons.org/ns#"
   xmlns:rdf="http://www.w3.org/1999/02/22-rdf-syntax-ns#"
   xmlns:svg="http://www.w3.org/2000/svg"
   xmlns="http://www.w3.org/2000/svg"
   xmlns:xlink="http://www.w3.org/1999/xlink"
   xmlns:sodipodi="http://sodipodi.sourceforge.net/DTD/sodipodi-0.dtd"
   xmlns:inkscape="http://www.inkscape.org/namespaces/inkscape"
   version="1.0"
   width="32"
   height="32"
   id="svg3486"
   inkscape:version="0.91 r"
   sodipodi:docname="applications-fonts.svg">
  <sodipodi:namedview
     pagecolor="#ffffff"
     bordercolor="#666666"
     borderopacity="1"
     objecttolerance="10"
     gridtolerance="10"
     guidetolerance="10"
     inkscape:pageopacity="0"
     inkscape:pageshadow="2"
     inkscape:window-width="1398"
     inkscape:window-height="871"
     id="namedview38"
     showgrid="false"
     inkscape:zoom="45.6875"
     inkscape:cx="17.764334"
     inkscape:cy="9.1151468"
     inkscape:window-x="435"
     inkscape:window-y="68"
     inkscape:window-maximized="0"
     inkscape:current-layer="layer1" />
  <metadata
     id="metadata39">
    <rdf:RDF>
      <cc:Work
         rdf:about="">
        <dc:format>image/svg+xml</dc:format>
        <dc:type
           rdf:resource="http://purl.org/dc/dcmitype/StillImage" />
        <dc:title></dc:title>
      </cc:Work>
    </rdf:RDF>
  </metadata>
  <defs
     id="defs3488">
    <linearGradient
       id="linearGradient3434">
      <stop
         id="stop3436"
         style="stop-color:#ffffff;stop-opacity:0"
         offset="0" />
      <stop
         id="stop3438"
         style="stop-color:#ffffff;stop-opacity:1"
         offset="1" />
    </linearGradient>
    <linearGradient
       id="linearGradient3463">
      <stop
         id="stop3465"
         style="stop-color:#000000;stop-opacity:1"
         offset="0" />
      <stop
         id="stop3467"
         style="stop-color:#000000;stop-opacity:0"
         offset="1" />
    </linearGradient>
    <linearGradient
       x1="15"
       y1="17"
       x2="15"
       y2="33.433998"
       id="linearGradient3683"
       xlink:href="#linearGradient3434"
       gradientUnits="userSpaceOnUse"
       gradientTransform="matrix(1.3333,0,0,1.3103,0.5,-13.81)" />
    <linearGradient
       x1="14.499"
       y1="44.179001"
       x2="14.499"
       y2="15.875"
       id="linearGradient3686"
       xlink:href="#linearGradient3434"
       gradientUnits="userSpaceOnUse"
       gradientTransform="matrix(1.4222,0,0,1.3175,-0.63333,-13.851)" />
    <linearGradient
       x1="22.056"
       y1="15.834"
       x2="22.056"
       y2="45.497002"
       id="linearGradient3689"
       gradientUnits="userSpaceOnUse"
       gradientTransform="matrix(0.97935773,0,0,0.98627872,-1.8517981,1.6163413)">
      <stop
         id="stop9938"
         style="stop-color:#575757;stop-opacity:1"
         offset="0" />
      <stop
         id="stop9940"
         style="stop-color:#333333;stop-opacity:1"
         offset="1" />
    </linearGradient>
    <radialGradient
       cx="-6.1602998"
       cy="36.686001"
       r="14.098"
       id="radialGradient3693"
       xlink:href="#linearGradient3463"
       gradientUnits="userSpaceOnUse"
       gradientTransform="matrix(0.28054291,0,0,0.20403383,6.6833737,36.647222)" />
    <linearGradient
       x1="143.92"
       y1="75.221001"
       x2="143.92"
       y2="103.13"
       id="linearGradient3714"
       gradientUnits="userSpaceOnUse"
       gradientTransform="matrix(1.1170334,0,0,1.0868192,-138.80721,-57.876664)">
      <stop
         id="stop3244"
         style="stop-color:#f8b17e;stop-opacity:1"
         offset="0" />
      <stop
         id="stop3246"
         style="stop-color:#e35d4f;stop-opacity:1"
         offset="0.31209999" />
      <stop
         id="stop3248"
         style="stop-color:#c6262e;stop-opacity:1"
         offset="0.57054001" />
      <stop
         id="stop3250"
         style="stop-color:#690b54;stop-opacity:1"
         offset="1" />
    </linearGradient>
    <linearGradient
       x1="153.41"
       y1="98.785004"
       x2="153.41"
       y2="75.221001"
       id="linearGradient3716"
       gradientUnits="userSpaceOnUse"
       gradientTransform="matrix(1.501,0,0,1.4604,-184.02,-95.083)">
      <stop
         id="stop2492"
         style="stop-color:#791235;stop-opacity:1"
         offset="0" />
      <stop
         id="stop2494"
         style="stop-color:#dd3b27;stop-opacity:1"
         offset="1" />
    </linearGradient>
    <linearGradient
       x1="153.41"
       y1="98.785004"
       x2="153.41"
       y2="75.221001"
       id="linearGradient4235"
       gradientUnits="userSpaceOnUse"
       gradientTransform="matrix(1.501,0,0,1.4604,-184.02,-95.083)">
      <stop
         id="stop3344"
         style="stop-color:#ffffff;stop-opacity:0"
         offset="0" />
      <stop
         id="stop3346"
         style="stop-color:#ffffff;stop-opacity:1"
         offset="1" />
    </linearGradient>
  </defs>
  <g
     id="layer1"
     transform="translate(0,-16)">
    <path
       d="m 30.977135,26.268596 c -0.532715,-1.206887 -1.832715,-1.08044 -2.724614,-1.272185 -2.952756,-0.339725 -5.90049,0.202082 -8.375194,1.864382 -2.388659,1.618185 -4.550049,3.807674 -6.068285,6.633037 -1.319721,2.516781 -1.912281,5.879088 -1.07964,9.082045 0.655312,2.156076 2.628014,3.487808 4.29177,3.128705 2.546991,-0.424766 4.362016,-2.788747 5.859287,-5.095074 0.677069,-0.951081 1.092961,-2.210673 1.892117,-3.009974 -0.113736,2.049647 -0.164673,4.178497 0.301164,6.259884 0.264768,1.227271 1.233312,2.194658 2.214895,2.149961 0.998618,-0.114596 1.758827,-0.981365 2.586665,-1.54699 0.744559,-0.65954 1.597438,-1.226616 2.1247,-2.180171 -0.09081,-1.579531 -1.502948,-0.587727 -1.995851,-0.04558 -0.689058,1.084372 -2.112689,0.222742 -1.808109,-1.252966 0.15943,-3.370752 0.945402,-6.536147 1.610104,-9.713915 0.373698,-1.675331 0.767053,-3.340979 1.171144,-5.000804 l -1e-6,0 z m -4.12492,2.103299 c -1.264978,3.995633 -2.631435,8.062171 -4.969209,11.160373 -1.103007,1.413338 -2.720173,2.694986 -4.503241,2.015143 -1.23222,-0.546401 -1.517727,-2.34287 -1.54437,-3.694257 -0.159031,-3.990611 1.767854,-7.295629 4.17675,-9.289514 1.679116,-1.336682 3.849533,-1.941691 5.969356,-1.288928 0.40021,0.149013 0.834316,0.53473 0.870788,1.097255 l 0,-2e-6 z"
       id="text2400"
       style="fill:#ef2929;fill-opacity:1;fill-rule:evenodd;stroke:none"
       inkscape:connector-curvature="0" />
    <path
       d="m 20.436984,46.010905 c -1.080008,-3.26293 -1.766763,-5.488828 -2.649779,-8.007574 l -10.855359,0 c -0.9054383,2.549904 -1.8108765,5.457672 -2.7163148,8.007574 l -3.51758152,0 C 4.0464258,36.78982 7.3959213,27.569463 10.744543,18.348377 l 3.180828,0 10.066248,27.662528 -2.219842,-0.02189 z M 16.712734,34.363525 12.344966,22.641164 7.9771983,34.363525 Z"
       id="text2396"
       style="fill:#353945;fill-opacity:1;stroke:#353945;stroke-width:0.97818905px;stroke-opacity:1"
       inkscape:connector-curvature="0"
       sodipodi:nodetypes="cccccccccccccc" />
  </g>
</svg>
