<?xml version="1.0" encoding="UTF-8" standalone="no"?>
<svg
   xmlns:dc="http://purl.org/dc/elements/1.1/"
   xmlns:cc="http://creativecommons.org/ns#"
   xmlns:rdf="http://www.w3.org/1999/02/22-rdf-syntax-ns#"
   xmlns:svg="http://www.w3.org/2000/svg"
   xmlns="http://www.w3.org/2000/svg"
   xmlns:xlink="http://www.w3.org/1999/xlink"
   xmlns:sodipodi="http://sodipodi.sourceforge.net/DTD/sodipodi-0.dtd"
   xmlns:inkscape="http://www.inkscape.org/namespaces/inkscape"
   version="1.1"
   width="32"
   height="32"
   id="svg9991"
   inkscape:version="0.91 r"
   sodipodi:docname="sound.svg">
  <sodipodi:namedview
     pagecolor="#ffffff"
     bordercolor="#666666"
     borderopacity="1"
     objecttolerance="10"
     gridtolerance="10"
     guidetolerance="10"
     inkscape:pageopacity="0"
     inkscape:pageshadow="2"
     inkscape:window-width="1855"
     inkscape:window-height="1056"
     id="namedview9789"
     showgrid="false"
     inkscape:zoom="28.625"
     inkscape:cx="9.5371179"
     inkscape:cy="16"
     inkscape:current-layer="layer1"
     inkscape:window-x="65"
     inkscape:window-y="24"
     inkscape:window-maximized="1" />
  <defs
     id="defs9993">
    <radialGradient
       cx="17.058823"
       cy="41.058823"
       r="5.7384715"
       fx="15.544384"
       fy="39.027378"
       id="radialGradient5481"
       xlink:href="#linearGradient7067-814-120-245"
       gradientUnits="userSpaceOnUse"
       gradientTransform="matrix(0.28331064,0.05167803,-0.0986092,0.24869207,1.726617,2.8814506)" />
    <linearGradient
       id="linearGradient7067-814-120-245">
      <stop
         id="stop3877"
         style="stop-color:#aaaaaa;stop-opacity:1"
         offset="0" />
      <stop
         id="stop3879"
         style="stop-color:#4d4d4d;stop-opacity:1"
         offset="1" />
    </linearGradient>
    <radialGradient
       cx="17.058823"
       cy="41.058823"
       r="5.7384715"
       fx="15.544384"
       fy="39.027378"
       id="radialGradient5500"
       xlink:href="#linearGradient7067-814-120-245-1"
       gradientUnits="userSpaceOnUse"
       gradientTransform="matrix(0.28333276,0.05172217,-0.0986169,0.24890446,9.7264375,0.87204091)" />
    <linearGradient
       id="linearGradient7067-814-120-245-1">
      <stop
         id="stop3877-2"
         style="stop-color:#aaaaaa;stop-opacity:1"
         offset="0" />
      <stop
         id="stop3879-5"
         style="stop-color:#4d4d4d;stop-opacity:1"
         offset="1" />
    </linearGradient>
  </defs>
  <metadata
     id="metadata9996">
    <rdf:RDF>
      <cc:Work
         rdf:about="">
        <dc:format>image/svg+xml</dc:format>
        <dc:type
           rdf:resource="http://purl.org/dc/dcmitype/StillImage" />
        <dc:title />
      </cc:Work>
    </rdf:RDF>
  </metadata>
  <g
     id="layer1"
     transform="translate(0,16)">
    <path
       d="m 26.085853,-14.033566 -13.46676,3.454517 c -0.57618,0.154388 -1.229574,0.9749654 -1.229574,1.5808811 l 0,17.0383789 C 11.390344,8.7029724 10.701427,9.1413654 10.101394,8.859927 9.241939,8.4098795 8.1172514,8.2026366 6.9396337,8.5086201 5.8601007,8.7891222 4.9885038,9.3544734 4.4804861,10.030949 c -0.5080176,0.676476 -0.6569156,1.425612 -0.468409,2.107841 0.3757389,1.359792 2.2975839,2.315776 4.4498859,1.756534 1.713722,-0.445289 2.826905,-1.687828 2.986108,-2.810454 l 0.05845,-15.9844588 c -0.0056,-0.4037311 0.257362,-0.7621577 0.644062,-0.8782669 L 25.26604,-9.2909235 c 0.567243,-0.1343404 1.111459,0.29536 1.112471,0.8782669 l 0,12.7055954 C 26.379336,4.9557 25.690419,5.3940935 25.090386,5.1126546 24.230931,4.6626072 23.106243,4.4553643 21.928625,4.7613478 c -1.079533,0.2805021 -1.951129,0.845853 -2.459147,1.5223294 -0.508018,0.6764764 -0.656916,1.4256123 -0.46841,2.1078407 0.37574,1.3597905 2.297585,2.3157761 4.449887,1.7565331 1.713721,-0.4452876 2.826905,-1.6878269 2.986107,-2.8104534 l 0.05845,-20.8442036 c 0,-0.363185 -0.102301,-0.425989 -0.279079,-0.494265 z"
       id="path5541"
       style="color:#000000;display:inline;overflow:visible;visibility:visible;fill:#353945;fill-opacity:1;fill-rule:nonzero;stroke:#353945;stroke-width:1.87363625;stroke-miterlimit:4;stroke-dasharray:none;stroke-opacity:1;marker:none;enable-background:accumulate"
       inkscape:connector-curvature="0"
       sodipodi:nodetypes="ccsccsssscccccccsssscccc" />
  </g>
</svg>
