<?xml version="1.0" encoding="UTF-8" standalone="no"?>
<svg
   xmlns:dc="http://purl.org/dc/elements/1.1/"
   xmlns:cc="http://creativecommons.org/ns#"
   xmlns:rdf="http://www.w3.org/1999/02/22-rdf-syntax-ns#"
   xmlns:svg="http://www.w3.org/2000/svg"
   xmlns="http://www.w3.org/2000/svg"
   xmlns:xlink="http://www.w3.org/1999/xlink"
   xmlns:sodipodi="http://sodipodi.sourceforge.net/DTD/sodipodi-0.dtd"
   xmlns:inkscape="http://www.inkscape.org/namespaces/inkscape"
   version="1.1"
   width="32"
   height="32"
   id="svg3182"
   inkscape:version="0.91 r"
   sodipodi:docname="text-x-changelog.svg">
  <sodipodi:namedview
     pagecolor="#ffffff"
     bordercolor="#666666"
     borderopacity="1"
     objecttolerance="10"
     gridtolerance="10"
     guidetolerance="10"
     inkscape:pageopacity="0"
     inkscape:pageshadow="2"
     inkscape:window-width="640"
     inkscape:window-height="480"
     id="namedview61"
     showgrid="false"
     inkscape:zoom="30.889888"
     inkscape:cx="10.205223"
     inkscape:cy="16"
     inkscape:current-layer="svg3182" />
  <defs
     id="defs3184">
    <linearGradient
       id="linearGradient3977">
      <stop
         id="stop3979"
         style="stop-color:#ffffff;stop-opacity:1"
         offset="0" />
      <stop
         id="stop3981"
         style="stop-color:#ffffff;stop-opacity:0.23529412"
         offset="0.01187616" />
      <stop
         id="stop3983"
         style="stop-color:#ffffff;stop-opacity:0.15686275"
         offset="0.99133235" />
      <stop
         id="stop3985"
         style="stop-color:#ffffff;stop-opacity:0.39215687"
         offset="1" />
    </linearGradient>
    <linearGradient
       id="linearGradient3600-4">
      <stop
         id="stop3602-7"
         style="stop-color:#f4f4f4;stop-opacity:1"
         offset="0" />
      <stop
         id="stop3604-6"
         style="stop-color:#dbdbdb;stop-opacity:1"
         offset="1" />
    </linearGradient>
    <linearGradient
       id="linearGradient5060">
      <stop
         id="stop5062"
         style="stop-color:#000000;stop-opacity:1"
         offset="0" />
      <stop
         id="stop5064"
         style="stop-color:#000000;stop-opacity:0"
         offset="1" />
    </linearGradient>
    <linearGradient
       id="linearGradient5048">
      <stop
         id="stop5050"
         style="stop-color:#000000;stop-opacity:0"
         offset="0" />
      <stop
         id="stop5056"
         style="stop-color:#000000;stop-opacity:1"
         offset="0.5" />
      <stop
         id="stop5052"
         style="stop-color:#000000;stop-opacity:0"
         offset="1" />
    </linearGradient>
    <linearGradient
       x1="23.99999"
       y1="6.1856723"
       x2="23.99999"
       y2="41.757225"
       id="linearGradient3013"
       xlink:href="#linearGradient3977"
       gradientUnits="userSpaceOnUse"
       gradientTransform="matrix(0.56756757,0,0,0.72972971,2.378382,-2.5135063)" />
    <linearGradient
       x1="25.132275"
       y1="0.98520643"
       x2="25.132275"
       y2="47.013336"
       id="linearGradient3016"
       xlink:href="#linearGradient3600-4"
       gradientUnits="userSpaceOnUse"
       gradientTransform="matrix(0.62856997,0,0,0.60839392,0.91431981,-0.5347905)" />
    <radialGradient
       cx="605.71429"
       cy="486.64789"
       r="117.14286"
       fx="605.71429"
       fy="486.64789"
       id="radialGradient3021"
       xlink:href="#linearGradient5060"
       gradientUnits="userSpaceOnUse"
       gradientTransform="matrix(0.01566318,0,0,0.00823529,17.610433,25.980565)" />
    <radialGradient
       cx="605.71429"
       cy="486.64789"
       r="117.14286"
       fx="605.71429"
       fy="486.64789"
       id="radialGradient3024"
       xlink:href="#linearGradient5060"
       gradientUnits="userSpaceOnUse"
       gradientTransform="matrix(-0.01566318,0,0,0.00823529,14.389566,25.980565)" />
    <linearGradient
       x1="302.85715"
       y1="366.64789"
       x2="302.85715"
       y2="609.50507"
       id="linearGradient3027"
       xlink:href="#linearGradient5048"
       gradientUnits="userSpaceOnUse"
       gradientTransform="matrix(0.04576928,0,0,0.00823529,-0.5423243,25.980548)" />
    <linearGradient
       id="linearGradient3104-6">
      <stop
         id="stop3106-3"
         style="stop-color:#000000;stop-opacity:0.31782946"
         offset="0" />
      <stop
         id="stop3108-9"
         style="stop-color:#000000;stop-opacity:0.24031007"
         offset="1" />
    </linearGradient>
    <linearGradient
       x1="-51.786404"
       y1="50.786446"
       x2="-51.786404"
       y2="2.9062471"
       id="linearGradient3047"
       xlink:href="#linearGradient3104-6"
       gradientUnits="userSpaceOnUse"
       gradientTransform="matrix(0.53064143,0,0,0.58970049,39.269602,-1.7919191)" />
    <linearGradient
       xlink:href="#linearGradient3104-6-6"
       id="linearGradient3047-9"
       gradientUnits="userSpaceOnUse"
       gradientTransform="matrix(0.53064143,0,0,0.58970049,39.269602,-1.7919058)"
       x1="-51.786404"
       y1="50.786446"
       x2="-51.786404"
       y2="2.9062471" />
    <linearGradient
       id="linearGradient3104-6-6">
      <stop
         offset="0"
         style="stop-color:#000000;stop-opacity:0.31782946"
         id="stop3106-3-2" />
      <stop
         offset="1"
         style="stop-color:#000000;stop-opacity:0.24031007"
         id="stop3108-9-8" />
    </linearGradient>
    <linearGradient
       gradientTransform="matrix(0.04576928,0,0,0.00823529,-0.5423243,25.980548)"
       gradientUnits="userSpaceOnUse"
       xlink:href="#linearGradient5048-5"
       id="linearGradient3027-1"
       y2="609.50507"
       x2="302.85715"
       y1="366.64789"
       x1="302.85715" />
    <radialGradient
       gradientTransform="matrix(-0.01566318,0,0,0.00823529,14.389566,25.980565)"
       gradientUnits="userSpaceOnUse"
       xlink:href="#linearGradient5060-1"
       id="radialGradient3024-9"
       fy="486.64789"
       fx="605.71429"
       r="117.14286"
       cy="486.64789"
       cx="605.71429" />
    <radialGradient
       gradientTransform="matrix(0.01566318,0,0,0.00823529,17.610433,25.980565)"
       gradientUnits="userSpaceOnUse"
       xlink:href="#linearGradient5060-1"
       id="radialGradient3021-8"
       fy="486.64789"
       fx="605.71429"
       r="117.14286"
       cy="486.64789"
       cx="605.71429" />
    <linearGradient
       gradientTransform="matrix(0.62856997,0,0,0.60839392,0.91431981,-0.5347905)"
       gradientUnits="userSpaceOnUse"
       xlink:href="#linearGradient3600-4-0"
       id="linearGradient3016-5"
       y2="47.013336"
       x2="25.132275"
       y1="0.98520643"
       x1="25.132275" />
    <linearGradient
       gradientTransform="matrix(0.56756757,0,0,0.72972971,2.378382,-2.5135063)"
       gradientUnits="userSpaceOnUse"
       xlink:href="#linearGradient3977-2"
       id="linearGradient3013-6"
       y2="41.757225"
       x2="23.99999"
       y1="6.1856723"
       x1="23.99999" />
    <linearGradient
       id="linearGradient5048-5">
      <stop
         offset="0"
         style="stop-color:#000000;stop-opacity:0"
         id="stop5050-8" />
      <stop
         offset="0.5"
         style="stop-color:#000000;stop-opacity:1"
         id="stop5056-8" />
      <stop
         offset="1"
         style="stop-color:#000000;stop-opacity:0"
         id="stop5052-3" />
    </linearGradient>
    <linearGradient
       id="linearGradient5060-1">
      <stop
         offset="0"
         style="stop-color:#000000;stop-opacity:1"
         id="stop5062-1" />
      <stop
         offset="1"
         style="stop-color:#000000;stop-opacity:0"
         id="stop5064-9" />
    </linearGradient>
    <linearGradient
       id="linearGradient3600-4-0">
      <stop
         offset="0"
         style="stop-color:#f4f4f4;stop-opacity:1"
         id="stop3602-7-2" />
      <stop
         offset="1"
         style="stop-color:#dbdbdb;stop-opacity:1"
         id="stop3604-6-2" />
    </linearGradient>
    <linearGradient
       id="linearGradient3977-2">
      <stop
         offset="0"
         style="stop-color:#ffffff;stop-opacity:1"
         id="stop3979-6" />
      <stop
         offset="0.01187616"
         style="stop-color:#ffffff;stop-opacity:0.23529412"
         id="stop3981-0" />
      <stop
         offset="0.99133235"
         style="stop-color:#ffffff;stop-opacity:0.15686275"
         id="stop3983-5" />
      <stop
         offset="1"
         style="stop-color:#ffffff;stop-opacity:0.39215687"
         id="stop3985-3" />
    </linearGradient>
  </defs>
  <metadata
     id="metadata3187">
    <rdf:RDF>
      <cc:Work
         rdf:about="">
        <dc:format>image/svg+xml</dc:format>
        <dc:type
           rdf:resource="http://purl.org/dc/dcmitype/StillImage" />
        <dc:title />
      </cc:Work>
    </rdf:RDF>
  </metadata>
  <rect
     width="22.100021"
     height="2"
     x="4.9499893"
     y="29"
     id="rect2879"
     style="opacity:0.15;fill:url(#linearGradient3027);fill-opacity:1;fill-rule:nonzero;stroke:none;stroke-width:1;marker:none;visibility:visible;display:inline;overflow:visible" />
  <path
     d="m 4.9499887,29.000086 c 0,0 0,1.99989 0,1.99989 -0.806615,0.0038 -1.950002,-0.448074 -1.950002,-1.000074 0,-0.552 0.900121,-0.999816 1.950002,-0.999816 z"
     id="path2881"
     style="opacity:0.15;fill:url(#radialGradient3024);fill-opacity:1;fill-rule:nonzero;stroke:none;stroke-width:1;marker:none;visibility:visible;display:inline;overflow:visible" />
  <path
     d="m 27.050011,29.000086 c 0,0 0,1.99989 0,1.99989 0.806614,0.0038 1.950002,-0.448074 1.950002,-1.000074 0,-0.552 -0.900122,-0.999816 -1.950002,-0.999816 z"
     id="path2883"
     style="opacity:0.15;fill:url(#radialGradient3021);fill-opacity:1;fill-rule:nonzero;stroke:none;stroke-width:1;marker:none;visibility:visible;display:inline;overflow:visible" />
  <path
     d="m 5,1 c 5.041316,0 21.999973,0.00179 21.999973,0.00179 L 27,29 C 27,29 12.333334,29 5,29 5,19.666667 5,10.333336 5,1.0000041 z"
     id="path4160-3"
     style="fill:url(#linearGradient3016);fill-opacity:1;stroke:none;display:inline" />
  <path
     d="m 26.5,28.5 -21,0 0,-27 21,0 z"
     id="rect6741-1"
     style="fill:none;stroke:url(#linearGradient3013);stroke-width:1;stroke-linecap:round;stroke-linejoin:miter;stroke-miterlimit:4;stroke-opacity:1;stroke-dasharray:none;stroke-dashoffset:0" />
  <path
     d="m 4.4999542,0.4999439 c 5.2704806,0 23.0000548,0.002 23.0000548,0.002 l 2.4e-5,28.9981121 c 0,0 -15.333386,0 -23.0000788,0 0,-9.666722 0,-19.333346 0,-28.9999561 z"
     id="path4160-6-1"
     style="fill:none;stroke:url(#linearGradient3047);stroke-width:0.9999218;stroke-linecap:butt;stroke-linejoin:round;stroke-miterlimit:4;stroke-opacity:1;stroke-dasharray:none;stroke-dashoffset:0;display:inline" />
  <g
     id="g4209"
     transform="matrix(0.84999998,0,0,0.84999998,2.2974087,2.3731031)">
    <path
       d="m 6.5206882,6.8551742 1.5999998,0 c 0.2216,0 0.4,0.1784 0.4,0.3999999 l 0,1.5999999 c 0,0.2215991 -0.1784,0.3999999 -0.4,0.3999999 l -1.5999998,0 c -0.2216,0 -0.4,-0.1784 -0.4,-0.3999999 l 0,-1.5999999 c 0,-0.2215999 0.1784,-0.3999999 0.4,-0.3999999 z m 3.9370008,3.208e-4 c -0.183163,0.012456 -0.339405,0.1547688 -0.336973,0.3069335 l 0,1.7857983 c -0.002,0.1611423 0.176066,0.3085351 0.37067,0.3069343 l 13.658616,0 c 0.194603,0.0016 0.372602,-0.1457928 0.370669,-0.3069343 l 0,-1.7857983 C 24.522671,7.001287 24.344605,6.8538942 24.150002,6.855495 l -13.658616,0 c -0.01122,-4.272e-4 -0.02247,-4.272e-4 -0.0337,0 z"
       id="path4247"
       style="color:#000000;display:inline;overflow:visible;visibility:visible;fill:#ffffff;fill-opacity:1;fill-rule:nonzero;stroke:none;stroke-width:0.99999994;stroke-linecap:square;stroke-linejoin:miter;stroke-miterlimit:4;stroke-dashoffset:0;stroke-opacity:1;marker:none;enable-background:accumulate"
       inkscape:connector-curvature="0" />
    <path
       d="m 8.1206888,11.655172 1.5999998,0 c 0.2216,0 0.4000004,0.1784 0.4000004,0.4 l 0,1.6 c 0,0.2216 -0.1784004,0.4 -0.4000004,0.4 l -1.5999998,0 c -0.2216,0 -0.4,-0.1784 -0.4,-0.4 l 0,-1.6 c 0,-0.2216 0.1784,-0.4 0.4,-0.4 z m 3.9370002,3.21e-4 c -0.183162,0.01246 -0.339405,0.154769 -0.336973,0.306934 l 0,1.785799 c -0.002,0.161142 0.176067,0.308535 0.370671,0.306934 l 13.658616,0 c 0.194603,0.0016 0.372601,-0.145793 0.370669,-0.306934 l 0,-1.785799 c 0.002,-0.161142 -0.176066,-0.308535 -0.370669,-0.306934 l -13.658616,0 c -0.01122,-4.27e-4 -0.02247,-4.27e-4 -0.0337,0 z"
       id="path4249"
       style="color:#000000;display:inline;overflow:visible;visibility:visible;fill:#ffffff;fill-opacity:1;fill-rule:nonzero;stroke:none;stroke-width:0.99999994;stroke-linecap:square;stroke-linejoin:miter;stroke-miterlimit:4;stroke-dashoffset:0;stroke-opacity:1;marker:none;enable-background:accumulate"
       inkscape:connector-curvature="0" />
    <path
       inkscape:connector-curvature="0"
       style="color:#000000;display:inline;overflow:visible;visibility:visible;fill:#a5a5a5;fill-opacity:1;fill-rule:nonzero;stroke:none;stroke-width:0.99999994;stroke-linecap:square;stroke-linejoin:miter;stroke-miterlimit:4;stroke-dashoffset:0;stroke-opacity:1;marker:none;enable-background:accumulate"
       id="rect4432"
       d="m 6.5206882,6.0551743 1.5999998,0 c 0.2216,0 0.4,0.1783999 0.4,0.3999999 l 0,1.5999998 c 0,0.2215992 -0.1784,0.4 -0.4,0.4 l -1.5999998,0 c -0.2216,0 -0.4,-0.1784 -0.4,-0.4 l 0,-1.5999998 c 0,-0.2216 0.1784,-0.3999999 0.4,-0.3999999 z m 3.9370008,3.208e-4 c -0.183163,0.012456 -0.339405,0.1547687 -0.336973,0.3069335 l 0,1.7857982 c -0.002,0.1611424 0.176066,0.3085352 0.37067,0.3069344 l 13.658616,0 c 0.194603,0.0016 0.372602,-0.1457928 0.370669,-0.3069344 l 0,-1.7857982 c 0.002,-0.1611416 -0.176066,-0.3085343 -0.370669,-0.3069335 l -13.658616,0 c -0.01122,-4.272e-4 -0.02247,-4.272e-4 -0.0337,0 z" />
    <path
       d="m 8.120688,16.455172 1.5999998,0 c 0.2216,0 0.4000002,0.1784 0.4000002,0.4 l 0,1.6 c 0,0.2216 -0.1784002,0.4 -0.4000002,0.4 l -1.5999998,0 c -0.2216,0 -0.4,-0.1784 -0.4,-0.4 l 0,-1.6 c 0,-0.2216 0.1784,-0.4 0.4,-0.4 z m 3.937,3.21e-4 c -0.183162,0.01246 -0.339404,0.154769 -0.336972,0.306933 l 0,1.785799 c -0.002,0.161143 0.176066,0.308536 0.37067,0.306935 l 13.658616,0 c 0.194603,0.0016 0.372602,-0.145793 0.370669,-0.306935 l 0,-1.785799 c 0.002,-0.161141 -0.176066,-0.308534 -0.370669,-0.306933 l -13.658616,0 c -0.01122,-4.27e-4 -0.02247,-4.27e-4 -0.0337,0 z"
       id="path4251"
       style="color:#000000;display:inline;overflow:visible;visibility:visible;fill:#ffffff;fill-opacity:1;fill-rule:nonzero;stroke:none;stroke-width:0.99999994;stroke-linecap:square;stroke-linejoin:miter;stroke-miterlimit:4;stroke-dashoffset:0;stroke-opacity:1;marker:none;enable-background:accumulate"
       inkscape:connector-curvature="0" />
    <path
       inkscape:connector-curvature="0"
       style="color:#000000;display:inline;overflow:visible;visibility:visible;fill:#aad643;fill-opacity:1;fill-rule:nonzero;stroke:none;stroke-width:0.99999994;stroke-linecap:square;stroke-linejoin:miter;stroke-miterlimit:4;stroke-dashoffset:0;stroke-opacity:1;marker:none;enable-background:accumulate"
       id="rect4432-4"
       d="m 8.1206888,10.855172 1.5999998,0 c 0.2216,0 0.4000004,0.1784 0.4000004,0.4 l 0,1.6 c 0,0.2216 -0.1784004,0.4 -0.4000004,0.4 l -1.5999998,0 c -0.2216,0 -0.4,-0.1784 -0.4,-0.4 l 0,-1.6 c 0,-0.2216 0.1784,-0.4 0.4,-0.4 z m 3.9370002,3.21e-4 c -0.183162,0.01246 -0.339405,0.154769 -0.336973,0.306934 l 0,1.785799 c -0.002,0.161142 0.176067,0.308535 0.370671,0.306934 l 13.658616,0 c 0.194603,0.0016 0.372601,-0.145792 0.370669,-0.306934 l 0,-1.785799 c 0.002,-0.161142 -0.176066,-0.308535 -0.370669,-0.306934 l -13.658616,0 c -0.01122,-4.27e-4 -0.02247,-4.27e-4 -0.0337,0 z" />
    <path
       d="m 6.5206882,21.255172 1.5999998,0 c 0.2216,0 0.4,0.178399 0.4,0.4 l 0,1.6 c 0,0.2216 -0.1784,0.4 -0.4,0.4 l -1.5999998,0 c -0.2216,0 -0.4,-0.1784 -0.4,-0.4 l 0,-1.6 c 0,-0.221601 0.1784,-0.4 0.4,-0.4 z m 3.9370008,3.2e-4 c -0.183163,0.01246 -0.339405,0.154769 -0.336973,0.306934 l 0,1.785799 c -0.002,0.161142 0.176066,0.308535 0.37067,0.306934 l 13.658616,0 c 0.194603,0.0016 0.372602,-0.145793 0.370669,-0.306934 l 0,-1.785799 c 0.002,-0.161142 -0.176066,-0.308535 -0.370669,-0.306934 l -13.658616,0 c -0.01122,-4.26e-4 -0.02247,-4.26e-4 -0.0337,0 z"
       id="path4253"
       style="color:#000000;display:inline;overflow:visible;visibility:visible;fill:#ffffff;fill-opacity:1;fill-rule:nonzero;stroke:none;stroke-width:0.99999994;stroke-linecap:square;stroke-linejoin:miter;stroke-miterlimit:4;stroke-dashoffset:0;stroke-opacity:1;marker:none;enable-background:accumulate"
       inkscape:connector-curvature="0" />
    <path
       inkscape:connector-curvature="0"
       style="color:#000000;display:inline;overflow:visible;visibility:visible;fill:#d6b943;fill-opacity:1;fill-rule:nonzero;stroke:none;stroke-width:0.99999994;stroke-linecap:square;stroke-linejoin:miter;stroke-miterlimit:4;stroke-dashoffset:0;stroke-opacity:1;marker:none;enable-background:accumulate"
       id="rect4432-0"
       d="m 8.120688,15.655172 1.5999998,0 c 0.2216,0 0.4000002,0.1784 0.4000002,0.4 l 0,1.6 c 0,0.2216 -0.1784002,0.4 -0.4000002,0.4 l -1.5999998,0 c -0.2216,0 -0.4,-0.1784 -0.4,-0.4 l 0,-1.6 c 0,-0.2216 0.1784,-0.4 0.4,-0.4 z m 3.937,3.21e-4 c -0.183162,0.01246 -0.339404,0.154769 -0.336972,0.306933 l 0,1.785799 c -0.002,0.161143 0.176066,0.308536 0.37067,0.306935 l 13.658616,0 c 0.194603,0.0016 0.372602,-0.145793 0.370669,-0.306935 l 0,-1.785799 c 0.002,-0.161141 -0.176066,-0.308534 -0.370669,-0.306933 l -13.658616,0 c -0.01122,-4.27e-4 -0.02247,-4.27e-4 -0.0337,0 z" />
    <path
       inkscape:connector-curvature="0"
       style="color:#000000;display:inline;overflow:visible;visibility:visible;fill:#a5a5a5;fill-opacity:1;fill-rule:nonzero;stroke:none;stroke-width:0.99999994;stroke-linecap:square;stroke-linejoin:miter;stroke-miterlimit:4;stroke-dashoffset:0;stroke-opacity:1;marker:none;enable-background:accumulate"
       id="rect4432-8"
       d="m 6.5206882,20.455172 1.5999998,0 c 0.2216,0 0.4,0.1784 0.4,0.4 l 0,1.6 c 0,0.2216 -0.1784,0.4 -0.4,0.4 l -1.5999998,0 c -0.2216,0 -0.4,-0.1784 -0.4,-0.4 l 0,-1.6 c 0,-0.2216 0.1784,-0.4 0.4,-0.4 z m 3.9370008,3.2e-4 c -0.183163,0.01246 -0.339405,0.154769 -0.336973,0.306934 l 0,1.785799 c -0.002,0.161142 0.176066,0.308535 0.37067,0.306934 l 13.658616,0 c 0.194603,0.0016 0.372602,-0.145792 0.370669,-0.306934 l 0,-1.785799 c 0.002,-0.161142 -0.176066,-0.308534 -0.370669,-0.306934 l -13.658616,0 c -0.01122,-4.26e-4 -0.02247,-4.26e-4 -0.0337,0 z" />
  </g>
</svg>
