<?xml version="1.0" encoding="UTF-8" standalone="no"?>
<svg
   xmlns:dc="http://purl.org/dc/elements/1.1/"
   xmlns:cc="http://creativecommons.org/ns#"
   xmlns:rdf="http://www.w3.org/1999/02/22-rdf-syntax-ns#"
   xmlns:svg="http://www.w3.org/2000/svg"
   xmlns="http://www.w3.org/2000/svg"
   xmlns:xlink="http://www.w3.org/1999/xlink"
   xmlns:sodipodi="http://sodipodi.sourceforge.net/DTD/sodipodi-0.dtd"
   xmlns:inkscape="http://www.inkscape.org/namespaces/inkscape"
   version="1.1"
   width="32"
   height="32"
   id="svg3182"
   inkscape:version="0.91 r"
   sodipodi:docname="32.svg">
  <sodipodi:namedview
     pagecolor="#ffffff"
     bordercolor="#666666"
     borderopacity="1"
     objecttolerance="10"
     gridtolerance="10"
     guidetolerance="10"
     inkscape:pageopacity="0"
     inkscape:pageshadow="2"
     inkscape:window-width="640"
     inkscape:window-height="480"
     id="namedview61"
     showgrid="false"
     inkscape:zoom="25.03125"
     inkscape:cx="8.8489388"
     inkscape:cy="16"
     inkscape:current-layer="svg3182" />
  <defs
     id="defs3184">
    <linearGradient
       id="linearGradient3977">
      <stop
         id="stop3979"
         style="stop-color:#ffffff;stop-opacity:1"
         offset="0" />
      <stop
         id="stop3981"
         style="stop-color:#ffffff;stop-opacity:0.23529412"
         offset="0.01187616" />
      <stop
         id="stop3983"
         style="stop-color:#ffffff;stop-opacity:0.15686275"
         offset="0.99133235" />
      <stop
         id="stop3985"
         style="stop-color:#ffffff;stop-opacity:0.39215687"
         offset="1" />
    </linearGradient>
    <linearGradient
       id="linearGradient3600-4">
      <stop
         id="stop3602-7"
         style="stop-color:#f4f4f4;stop-opacity:1"
         offset="0" />
      <stop
         id="stop3604-6"
         style="stop-color:#dbdbdb;stop-opacity:1"
         offset="1" />
    </linearGradient>
    <linearGradient
       id="linearGradient5060">
      <stop
         id="stop5062"
         style="stop-color:#000000;stop-opacity:1"
         offset="0" />
      <stop
         id="stop5064"
         style="stop-color:#000000;stop-opacity:0"
         offset="1" />
    </linearGradient>
    <linearGradient
       id="linearGradient5048">
      <stop
         id="stop5050"
         style="stop-color:#000000;stop-opacity:0"
         offset="0" />
      <stop
         id="stop5056"
         style="stop-color:#000000;stop-opacity:1"
         offset="0.5" />
      <stop
         id="stop5052"
         style="stop-color:#000000;stop-opacity:0"
         offset="1" />
    </linearGradient>
    <linearGradient
       x1="23.99999"
       y1="6.1856723"
       x2="23.99999"
       y2="41.757225"
       id="linearGradient3013"
       xlink:href="#linearGradient3977"
       gradientUnits="userSpaceOnUse"
       gradientTransform="matrix(0.56756757,0,0,0.72972971,2.378382,-2.5135063)" />
    <linearGradient
       x1="25.132275"
       y1="0.98520643"
       x2="25.132275"
       y2="47.013336"
       id="linearGradient3016"
       xlink:href="#linearGradient3600-4"
       gradientUnits="userSpaceOnUse"
       gradientTransform="matrix(0.62856997,0,0,0.60839392,0.91431981,-0.5347905)" />
    <radialGradient
       cx="605.71429"
       cy="486.64789"
       r="117.14286"
       fx="605.71429"
       fy="486.64789"
       id="radialGradient3021"
       xlink:href="#linearGradient5060"
       gradientUnits="userSpaceOnUse"
       gradientTransform="matrix(0.01566318,0,0,0.00823529,17.610433,25.980565)" />
    <radialGradient
       cx="605.71429"
       cy="486.64789"
       r="117.14286"
       fx="605.71429"
       fy="486.64789"
       id="radialGradient3024"
       xlink:href="#linearGradient5060"
       gradientUnits="userSpaceOnUse"
       gradientTransform="matrix(-0.01566318,0,0,0.00823529,14.389566,25.980565)" />
    <linearGradient
       x1="302.85715"
       y1="366.64789"
       x2="302.85715"
       y2="609.50507"
       id="linearGradient3027"
       xlink:href="#linearGradient5048"
       gradientUnits="userSpaceOnUse"
       gradientTransform="matrix(0.04576928,0,0,0.00823529,-0.5423243,25.980548)" />
    <linearGradient
       id="linearGradient3104-6">
      <stop
         id="stop3106-3"
         style="stop-color:#000000;stop-opacity:0.31782946"
         offset="0" />
      <stop
         id="stop3108-9"
         style="stop-color:#000000;stop-opacity:0.24031007"
         offset="1" />
    </linearGradient>
    <linearGradient
       x1="-51.786404"
       y1="50.786446"
       x2="-51.786404"
       y2="2.9062471"
       id="linearGradient3047"
       xlink:href="#linearGradient3104-6"
       gradientUnits="userSpaceOnUse"
       gradientTransform="matrix(0.53064143,0,0,0.58970049,39.269602,-1.7919191)" />
    <linearGradient
       xlink:href="#linearGradient3104-6-6"
       id="linearGradient3047-9"
       gradientUnits="userSpaceOnUse"
       gradientTransform="matrix(0.53064143,0,0,0.58970049,39.269602,-1.7919058)"
       x1="-51.786404"
       y1="50.786446"
       x2="-51.786404"
       y2="2.9062471" />
    <linearGradient
       id="linearGradient3104-6-6">
      <stop
         offset="0"
         style="stop-color:#000000;stop-opacity:0.31782946"
         id="stop3106-3-2" />
      <stop
         offset="1"
         style="stop-color:#000000;stop-opacity:0.24031007"
         id="stop3108-9-8" />
    </linearGradient>
    <linearGradient
       gradientTransform="matrix(0.04576928,0,0,0.00823529,-0.5423243,25.980548)"
       gradientUnits="userSpaceOnUse"
       xlink:href="#linearGradient5048-5"
       id="linearGradient3027-1"
       y2="609.50507"
       x2="302.85715"
       y1="366.64789"
       x1="302.85715" />
    <radialGradient
       gradientTransform="matrix(-0.01566318,0,0,0.00823529,14.389566,25.980565)"
       gradientUnits="userSpaceOnUse"
       xlink:href="#linearGradient5060-1"
       id="radialGradient3024-9"
       fy="486.64789"
       fx="605.71429"
       r="117.14286"
       cy="486.64789"
       cx="605.71429" />
    <radialGradient
       gradientTransform="matrix(0.01566318,0,0,0.00823529,17.610433,25.980565)"
       gradientUnits="userSpaceOnUse"
       xlink:href="#linearGradient5060-1"
       id="radialGradient3021-8"
       fy="486.64789"
       fx="605.71429"
       r="117.14286"
       cy="486.64789"
       cx="605.71429" />
    <linearGradient
       gradientTransform="matrix(0.62856997,0,0,0.60839392,0.91431981,-0.5347905)"
       gradientUnits="userSpaceOnUse"
       xlink:href="#linearGradient3600-4-0"
       id="linearGradient3016-5"
       y2="47.013336"
       x2="25.132275"
       y1="0.98520643"
       x1="25.132275" />
    <linearGradient
       gradientTransform="matrix(0.56756757,0,0,0.72972971,2.378382,-2.5135063)"
       gradientUnits="userSpaceOnUse"
       xlink:href="#linearGradient3977-2"
       id="linearGradient3013-6"
       y2="41.757225"
       x2="23.99999"
       y1="6.1856723"
       x1="23.99999" />
    <linearGradient
       id="linearGradient5048-5">
      <stop
         offset="0"
         style="stop-color:#000000;stop-opacity:0"
         id="stop5050-8" />
      <stop
         offset="0.5"
         style="stop-color:#000000;stop-opacity:1"
         id="stop5056-8" />
      <stop
         offset="1"
         style="stop-color:#000000;stop-opacity:0"
         id="stop5052-3" />
    </linearGradient>
    <linearGradient
       id="linearGradient5060-1">
      <stop
         offset="0"
         style="stop-color:#000000;stop-opacity:1"
         id="stop5062-1" />
      <stop
         offset="1"
         style="stop-color:#000000;stop-opacity:0"
         id="stop5064-9" />
    </linearGradient>
    <linearGradient
       id="linearGradient3600-4-0">
      <stop
         offset="0"
         style="stop-color:#f4f4f4;stop-opacity:1"
         id="stop3602-7-2" />
      <stop
         offset="1"
         style="stop-color:#dbdbdb;stop-opacity:1"
         id="stop3604-6-2" />
    </linearGradient>
    <linearGradient
       id="linearGradient3977-2">
      <stop
         offset="0"
         style="stop-color:#ffffff;stop-opacity:1"
         id="stop3979-6" />
      <stop
         offset="0.01187616"
         style="stop-color:#ffffff;stop-opacity:0.23529412"
         id="stop3981-0" />
      <stop
         offset="0.99133235"
         style="stop-color:#ffffff;stop-opacity:0.15686275"
         id="stop3983-5" />
      <stop
         offset="1"
         style="stop-color:#ffffff;stop-opacity:0.39215687"
         id="stop3985-3" />
    </linearGradient>
  </defs>
  <metadata
     id="metadata3187">
    <rdf:RDF>
      <cc:Work
         rdf:about="">
        <dc:format>image/svg+xml</dc:format>
        <dc:type
           rdf:resource="http://purl.org/dc/dcmitype/StillImage" />
        <dc:title></dc:title>
      </cc:Work>
    </rdf:RDF>
  </metadata>
  <rect
     width="22.100021"
     height="2"
     x="4.9499893"
     y="29"
     id="rect2879"
     style="opacity:0.15;fill:url(#linearGradient3027);fill-opacity:1;fill-rule:nonzero;stroke:none;stroke-width:1;marker:none;visibility:visible;display:inline;overflow:visible" />
  <path
     d="m 4.9499887,29.000086 c 0,0 0,1.99989 0,1.99989 -0.806615,0.0038 -1.950002,-0.448074 -1.950002,-1.000074 0,-0.552 0.900121,-0.999816 1.950002,-0.999816 z"
     id="path2881"
     style="opacity:0.15;fill:url(#radialGradient3024);fill-opacity:1;fill-rule:nonzero;stroke:none;stroke-width:1;marker:none;visibility:visible;display:inline;overflow:visible" />
  <path
     d="m 27.050011,29.000086 c 0,0 0,1.99989 0,1.99989 0.806614,0.0038 1.950002,-0.448074 1.950002,-1.000074 0,-0.552 -0.900122,-0.999816 -1.950002,-0.999816 z"
     id="path2883"
     style="opacity:0.15;fill:url(#radialGradient3021);fill-opacity:1;fill-rule:nonzero;stroke:none;stroke-width:1;marker:none;visibility:visible;display:inline;overflow:visible" />
  <path
     d="m 5,1 c 5.041316,0 21.999973,0.00179 21.999973,0.00179 L 27,29 C 27,29 12.333334,29 5,29 5,19.666667 5,10.333336 5,1.0000041 z"
     id="path4160-3"
     style="fill:url(#linearGradient3016);fill-opacity:1;stroke:none;display:inline" />
  <path
     d="m 26.5,28.5 -21,0 0,-27 21,0 z"
     id="rect6741-1"
     style="fill:none;stroke:url(#linearGradient3013);stroke-width:1;stroke-linecap:round;stroke-linejoin:miter;stroke-miterlimit:4;stroke-opacity:1;stroke-dasharray:none;stroke-dashoffset:0" />
  <path
     d="m 4.4999542,0.4999439 c 5.2704806,0 23.0000548,0.002 23.0000548,0.002 l 2.4e-5,28.9981121 c 0,0 -15.333386,0 -23.0000788,0 0,-9.666722 0,-19.333346 0,-28.9999561 z"
     id="path4160-6-1"
     style="fill:none;stroke:url(#linearGradient3047);stroke-width:0.9999218;stroke-linecap:butt;stroke-linejoin:round;stroke-miterlimit:4;stroke-opacity:1;stroke-dasharray:none;stroke-dashoffset:0;display:inline" />
  <g
     id="g4199"
     transform="matrix(0.75,0,0,0.75,3.8181001,2.8024342)">
    <path
       id="circle4216"
       d="m 8.5502256,23.955729 a 1.1538461,1.1538461 0 0 0 -1.1538461,1.153846 1.1538461,1.1538461 0 0 0 1.1538461,1.153846 1.1538461,1.1538461 0 0 0 1.1538462,-1.153846 1.1538461,1.1538461 0 0 0 -1.1538462,-1.153846 z m 3.8461534,0 a 1.1538461,1.1538461 0 0 0 -1.153846,1.153846 1.1538461,1.1538461 0 0 0 1.153846,1.153846 1.1538461,1.1538461 0 0 0 1.153846,-1.153846 1.1538461,1.1538461 0 0 0 -1.153846,-1.153846 z m 3.846154,0 a 1.1538461,1.1538461 0 0 0 -1.153846,1.153846 1.1538461,1.1538461 0 0 0 1.153846,1.153846 1.1538461,1.1538461 0 0 0 1.153846,-1.153846 1.1538461,1.1538461 0 0 0 -1.153846,-1.153846 z m 3.846153,0 a 1.1538461,1.1538461 0 0 0 -1.153845,1.153846 1.1538461,1.1538461 0 0 0 1.153845,1.153846 1.1538461,1.1538461 0 0 0 1.153846,-1.153846 1.1538461,1.1538461 0 0 0 -1.153846,-1.153846 z m 3.846155,0 a 1.1538461,1.1538461 0 0 0 -1.153847,1.153846 1.1538461,1.1538461 0 0 0 1.153847,1.153846 1.1538461,1.1538461 0 0 0 1.153846,-1.153846 1.1538461,1.1538461 0 0 0 -1.153846,-1.153846 z"
       style="opacity:0.2;fill:#ffffff;fill-opacity:1;stroke:none;stroke-width:2;stroke-miterlimit:4;stroke-dasharray:none;stroke-opacity:1"
       inkscape:connector-curvature="0" />
    <path
       id="path4194"
       d="m 8.5502256,23.186498 a 1.1538461,1.1538461 0 0 0 -1.1538461,1.153846 1.1538461,1.1538461 0 0 0 1.1538461,1.153847 1.1538461,1.1538461 0 0 0 1.1538462,-1.153847 1.1538461,1.1538461 0 0 0 -1.1538462,-1.153846 z m 3.8461534,0 a 1.1538461,1.1538461 0 0 0 -1.153846,1.153846 1.1538461,1.1538461 0 0 0 1.153846,1.153847 1.1538461,1.1538461 0 0 0 1.153846,-1.153847 1.1538461,1.1538461 0 0 0 -1.153846,-1.153846 z m 3.846154,0 a 1.1538461,1.1538461 0 0 0 -1.153846,1.153846 1.1538461,1.1538461 0 0 0 1.153846,1.153847 1.1538461,1.1538461 0 0 0 1.153846,-1.153847 1.1538461,1.1538461 0 0 0 -1.153846,-1.153846 z m 3.846153,0 a 1.1538461,1.1538461 0 0 0 -1.153845,1.153846 1.1538461,1.1538461 0 0 0 1.153845,1.153847 1.1538461,1.1538461 0 0 0 1.153846,-1.153847 1.1538461,1.1538461 0 0 0 -1.153846,-1.153846 z m 3.846155,0 a 1.1538461,1.1538461 0 0 0 -1.153847,1.153846 1.1538461,1.1538461 0 0 0 1.153847,1.153847 1.1538461,1.1538461 0 0 0 1.153846,-1.153847 1.1538461,1.1538461 0 0 0 -1.153846,-1.153846 z"
       style="opacity:1;fill:#8d8d8d;fill-opacity:1;stroke:none;stroke-width:2;stroke-miterlimit:4;stroke-dasharray:none;stroke-opacity:1"
       inkscape:connector-curvature="0" />
    <path
       style="color:#000000;display:inline;overflow:visible;visibility:visible;opacity:1;fill:#8d8d8d;fill-opacity:1;fill-rule:nonzero;stroke:none;stroke-width:1;marker:none;enable-background:accumulate"
       id="rect3032-8"
       d="m 11.050226,6.263421 c -0.319616,0 -0.576923,0.2573077 -0.576923,0.576923 l 0,10.384615 c 0,0.319616 0.257307,0.576924 0.576923,0.576924 l 9.615384,0 c 0.319615,0 0.576922,-0.257308 0.576922,-0.576924 l 0,-10.384615 c 0,-0.3196153 -0.257307,-0.576923 -0.576922,-0.576923 l -9.615384,0 z m 0.192307,0.7692308 0.769231,0 0,0.7692307 -0.769231,0 0,-0.7692307 z m 1.923077,0 5.384615,0 c 0.213077,0 0.384616,0.1715384 0.384616,0.3846153 l 0,3.8461529 c 0,0.213078 -0.171539,0.384616 -0.384616,0.384616 l -5.384615,0 c -0.213077,0 -0.384615,-0.171538 -0.384615,-0.384616 l 0,-3.8461529 c 0,-0.2130769 0.171538,-0.3846153 0.384615,-0.3846153 z m 6.538461,0 0.769231,0 0,0.7692307 -0.769231,0 0,-0.7692307 z m -8.461538,1.5384615 0.769231,0 0,0.7692307 -0.769231,0 0,-0.7692307 z m 8.461538,0 0.769231,0 0,0.7692307 -0.769231,0 0,-0.7692307 z m -8.461538,1.5384617 0.769231,0 0,0.769231 -0.769231,0 0,-0.769231 z m 8.461538,0 0.769231,0 0,0.769231 -0.769231,0 0,-0.769231 z m -8.461538,1.538461 0.769231,0 0,0.769231 -0.769231,0 0,-0.769231 z m 8.461538,0 0.769231,0 0,0.769231 -0.769231,0 0,-0.769231 z m -6.538461,0.769231 5.384615,0 c 0.213077,0 0.384616,0.171539 0.384616,0.384615 l 0,3.846155 c 0,0.213077 -0.171539,0.384614 -0.384616,0.384614 l -5.384615,0 c -0.213077,0 -0.384615,-0.171537 -0.384615,-0.384614 l 0,-3.846155 c 0,-0.213076 0.171538,-0.384615 0.384615,-0.384615 z m -1.923077,0.769231 0.769231,0 0,0.769231 -0.769231,0 0,-0.769231 z m 8.461538,0 0.769231,0 0,0.769231 -0.769231,0 0,-0.769231 z m -8.461538,1.538462 0.769231,0 0,0.76923 -0.769231,0 0,-0.76923 z m 8.461538,0 0.769231,0 0,0.76923 -0.769231,0 0,-0.76923 z m -8.461538,1.538461 0.769231,0 0,0.76923 -0.769231,0 0,-0.76923 z m 8.461538,0 0.769231,0 0,0.76923 -0.769231,0 0,-0.76923 z"
       inkscape:connector-curvature="0" />
  </g>
</svg>
