<?xml version="1.0" encoding="UTF-8" standalone="no"?>
<!-- Created with Inkscape (http://www.inkscape.org/) -->

<svg
   xmlns:dc="http://purl.org/dc/elements/1.1/"
   xmlns:cc="http://creativecommons.org/ns#"
   xmlns:rdf="http://www.w3.org/1999/02/22-rdf-syntax-ns#"
   xmlns:svg="http://www.w3.org/2000/svg"
   xmlns="http://www.w3.org/2000/svg"
   xmlns:sodipodi="http://sodipodi.sourceforge.net/DTD/sodipodi-0.dtd"
   xmlns:inkscape="http://www.inkscape.org/namespaces/inkscape"
   id="svg7384"
   height="16"
   width="16"
   version="1.1"
   inkscape:version="0.91 r"
   sodipodi:docname="network-idle-symbolic.svg">
  <defs
     id="defs4187" />
  <sodipodi:namedview
     pagecolor="#ffffff"
     bordercolor="#666666"
     borderopacity="1"
     objecttolerance="10"
     gridtolerance="10"
     guidetolerance="10"
     inkscape:pageopacity="0"
     inkscape:pageshadow="2"
     inkscape:window-width="1241"
     inkscape:window-height="834"
     id="namedview4185"
     showgrid="false"
     inkscape:zoom="14.75"
     inkscape:cx="8"
     inkscape:cy="8"
     inkscape:window-x="75"
     inkscape:window-y="34"
     inkscape:window-maximized="0"
     inkscape:current-layer="layer9" />
  <metadata
     id="metadata90">
    <rdf:RDF>
      <cc:Work
         rdf:about="">
        <dc:format>image/svg+xml</dc:format>
        <dc:type
           rdf:resource="http://purl.org/dc/dcmitype/StillImage" />
        <dc:title>Gnome Symbolic Icon Theme</dc:title>
      </cc:Work>
    </rdf:RDF>
  </metadata>
  <title
     id="title9167">Gnome Symbolic Icon Theme</title>
  <g
     id="layer9"
     transform="translate(-301 -177)"
     style="fill:#353945;fill-opacity:1">
    <path
       id="rect12675-3-8-70"
       style="opacity:0.99999999;block-progression:tb;text-indent:0;color:#bebebe;text-transform:none;fill:#353945;fill-opacity:1"
       d="m302.75 181c-0.9522 0-1.75 0.7978-1.75 1.75v4.5c0 0.9522 0.7978 1.75 1.75 1.75h0.125l-0.78125 1.5625-0.71875 1.4375h1.625 6 1.625l-0.71875-1.4375-0.78125-1.5625h0.125c0.9522 0 1.75-0.7978 1.75-1.75v-4.5c0-0.9522-0.7978-1.75-1.75-1.75h-6.5zm0.25 2h6v4h-6v-4z" />
    <path
       id="rect12675-3-8-5-2"
       style="opacity:0.99999999;color:#bebebe;text-indent:0pt;text-transform:none;fill:#353945;fill-opacity:1"
       d="m308.75 178c-0.9522 0-1.75 0.7978-1.75 1.75v0.25h2 0.25 5.75v4h-3v3.25c0 0.6591-0.25164 1.2698-0.65625 1.75h5.2812l-1.5-3h0.125c0.9522 0 1.75-0.7978 1.75-1.75v-4.5c0-0.9522-0.7978-1.75-1.75-1.75h-6.5z" />
  </g>
</svg>
