<?xml version="1.0" encoding="UTF-8" standalone="no"?>
<svg
   xmlns:osb="http://www.openswatchbook.org/uri/2009/osb"
   xmlns:dc="http://purl.org/dc/elements/1.1/"
   xmlns:cc="http://creativecommons.org/ns#"
   xmlns:rdf="http://www.w3.org/1999/02/22-rdf-syntax-ns#"
   xmlns:svg="http://www.w3.org/2000/svg"
   xmlns="http://www.w3.org/2000/svg"
   xmlns:xlink="http://www.w3.org/1999/xlink"
   xmlns:sodipodi="http://sodipodi.sourceforge.net/DTD/sodipodi-0.dtd"
   xmlns:inkscape="http://www.inkscape.org/namespaces/inkscape"
   id="svg4248"
   height="16"
   width="16"
   version="1.1"
   inkscape:version="0.91 r"
   sodipodi:docname="dialog-fill-and-stroke.svg">
  <sodipodi:namedview
     pagecolor="#ffffff"
     bordercolor="#666666"
     borderopacity="1"
     objecttolerance="10"
     gridtolerance="10"
     guidetolerance="10"
     inkscape:pageopacity="0"
     inkscape:pageshadow="2"
     inkscape:window-width="1728"
     inkscape:window-height="1027"
     id="namedview51"
     showgrid="false"
     inkscape:zoom="20.750344"
     inkscape:cx="7.3737698"
     inkscape:cy="10.795002"
     inkscape:current-layer="svg4248"
     inkscape:window-x="75"
     inkscape:window-y="24"
     inkscape:window-maximized="0" />
  <defs
     id="defs4250">
    <linearGradient
       id="linearGradient4011-4">
      <stop
         id="stop4013-8"
         style="stop-color:#ffffff;stop-opacity:1"
         offset="0" />
      <stop
         id="stop4015-5"
         style="stop-color:#ffffff;stop-opacity:0.23529412"
         offset="0.507761" />
      <stop
         id="stop4017-6"
         style="stop-color:#ffffff;stop-opacity:0.15686275"
         offset="0.83456558" />
      <stop
         id="stop4019-1"
         style="stop-color:#ffffff;stop-opacity:0.39215687"
         offset="1" />
    </linearGradient>
    <linearGradient
       osb:paint="solid"
       id="linearGradient4526">
      <stop
         id="stop4528"
         offset="0"
         style="stop-color:#ffffff;stop-opacity:1;" />
    </linearGradient>
    <linearGradient
       id="linearGradient4661">
      <stop
         id="stop4663"
         style="stop-color:#000000;stop-opacity:1"
         offset="0" />
      <stop
         id="stop4665"
         style="stop-color:#000000;stop-opacity:0"
         offset="1" />
    </linearGradient>
    <radialGradient
       xlink:href="#linearGradient4661"
       id="radialGradient3090"
       gradientUnits="userSpaceOnUse"
       gradientTransform="matrix(2.2588236,0,0,0.564705,-117.45882,39.388236)"
       cx="62.625"
       cy="4.625"
       fx="62.625"
       fy="4.625"
       r="10.625" />
    <linearGradient
       y2="44.340794"
       x2="71.204407"
       y1="6.2375584"
       x1="71.204407"
       gradientTransform="matrix(0.63068927,0,0,0.63068927,-29.244162,15.006159)"
       gradientUnits="userSpaceOnUse"
       id="linearGradient14881"
       xlink:href="#linearGradient4011-4" />
    <linearGradient
       y2="44.340794"
       x2="71.204407"
       y1="6.2375584"
       x1="71.204407"
       gradientTransform="matrix(0.63068927,0,0,0.63068927,-13.687159,15.006159)"
       gradientUnits="userSpaceOnUse"
       id="linearGradient14885"
       xlink:href="#linearGradient4011-4" />
    <linearGradient
       y2="44.340794"
       x2="71.204407"
       y1="6.2375584"
       x1="71.204407"
       gradientTransform="matrix(0.66086875,0,0,0.66086879,-23.65644,0.19218961)"
       gradientUnits="userSpaceOnUse"
       id="linearGradient14889"
       xlink:href="#linearGradient4011-4" />
    <radialGradient
       cx="5.1929822"
       cy="8.4497671"
       r="19.99999"
       fx="5.1929822"
       fy="8.4497671"
       id="radialGradient3166-9"
       xlink:href="#linearGradient2867-449-88-871-390-598-476-591-434-148-57-177-8"
       gradientUnits="userSpaceOnUse"
       gradientTransform="matrix(0,3.2534594,-3.8388999,-9.8442832e-8,56.213834,-17.053419)" />
    <linearGradient
       id="linearGradient2867-449-88-871-390-598-476-591-434-148-57-177-8">
      <stop
         id="stop3750-4"
         style="stop-color:#90dbec;stop-opacity:1"
         offset="0" />
      <stop
         id="stop3752-8"
         style="stop-color:#55c1ec;stop-opacity:1"
         offset="0.26238" />
      <stop
         id="stop3754-1"
         style="stop-color:#3689e6;stop-opacity:1"
         offset="0.704952" />
      <stop
         id="stop3756-0"
         style="stop-color:#2b63a0;stop-opacity:1"
         offset="1" />
    </linearGradient>
    <radialGradient
       xlink:href="#linearGradient4223"
       id="radialGradient3116"
       gradientUnits="userSpaceOnUse"
       gradientTransform="matrix(-1.9674655e-7,4.0502856,-4.9724565,-2.4154189e-7,74.0855,-37.001894)"
       cx="9.9972658"
       cy="10.164884"
       fx="9.4670353"
       fy="10.164884"
       r="12.671875" />
    <linearGradient
       id="linearGradient4223">
      <stop
         offset="0"
         style="stop-color:#cdf87e;stop-opacity:1"
         id="stop4225" />
      <stop
         offset="0.26238"
         style="stop-color:#a2e34f;stop-opacity:1"
         id="stop4227" />
      <stop
         offset="0.66093999"
         style="stop-color:#68b723;stop-opacity:1"
         id="stop4229" />
      <stop
         offset="1"
         style="stop-color:#1d7e0d;stop-opacity:1"
         id="stop4231" />
    </linearGradient>
    <linearGradient
       id="linearGradient3242-8">
      <stop
         offset="0"
         style="stop-color:#f8b17e;stop-opacity:1"
         id="stop3244-2" />
      <stop
         offset="0.26238"
         style="stop-color:#e35d4f;stop-opacity:1"
         id="stop3246-9" />
      <stop
         offset="0.66093999"
         style="stop-color:#c6262e;stop-opacity:1"
         id="stop3248-10" />
      <stop
         offset="1"
         style="stop-color:#690b54;stop-opacity:1"
         id="stop3250-2" />
    </linearGradient>
    <radialGradient
       xlink:href="#linearGradient3242-8"
       id="radialGradient3233-0"
       gradientUnits="userSpaceOnUse"
       gradientTransform="matrix(0,4.7076714,-5.7795167,0,82.151949,-37.457645)"
       cx="11.731915"
       cy="9.9571075"
       fx="11.201677"
       fy="9.9571075"
       r="12.671875" />
    <linearGradient
       y2="44.340794"
       x2="71.204407"
       y1="6.2375584"
       x1="71.204407"
       gradientTransform="matrix(0.66086875,0,0,0.66086879,-31.35644,14.19219)"
       gradientUnits="userSpaceOnUse"
       id="linearGradient14889-1"
       xlink:href="#linearGradient4011-4" />
  </defs>
  <metadata
     id="metadata4253">
    <rdf:RDF>
      <cc:Work
         rdf:about="">
        <dc:format>image/svg+xml</dc:format>
        <dc:type
           rdf:resource="http://purl.org/dc/dcmitype/StillImage" />
        <dc:title />
      </cc:Work>
    </rdf:RDF>
  </metadata>
  <path
     id="path14769"
     d="M 7.9987505,0.39357193 C 5.2194557,0.39357076 2.9616553,2.6513719 2.9616553,5.4306672 c 0,0.2450719 0.023952,0.4841438 0.057873,0.7199158 0.6179599,-0.2709105 1.2989551,-0.4236165 2.0162273,-0.4236162 1.1081474,0 2.1320897,0.3593784 2.9629966,0.9676041 0.8311353,-0.6087994 1.8554293,-0.9687613 2.9641528,-0.9687613 0.717272,0 1.398267,0.1527057 2.016227,0.4236161 -0.01137,0.079096 -0.02897,0.1559241 -0.04399,0.2337989 0.05975,-0.3096334 0.100696,-0.6255601 0.100696,-0.9525574 4e-6,-2.7792953 -2.257801,-5.03709527 -5.0370956,-5.03709527 z M 12.851815,6.7431825 c -0.02401,0.08884 -0.04655,0.178216 -0.07523,0.2650488 0.02881,-0.086946 0.05113,-0.1760786 0.07523,-0.2650488 z m -0.262734,0.745379 c -0.03658,0.081487 -0.07735,0.1604574 -0.118057,0.2395861 0.04088,-0.079177 0.08132,-0.1580378 0.118057,-0.2395861 z m -0.337967,0.6250072 c -0.03398,0.053833 -0.06708,0.1084495 -0.103011,0.1608808 0.03614,-0.052502 0.06884,-0.1069651 0.103011,-0.1608808 z m -0.438662,0.5937571 c -0.03779,0.044036 -0.07533,0.08809 -0.114585,0.1307884 0.03941,-0.042691 0.07665,-0.086753 0.114585,-0.1307884 z m -0.546303,0.5486175 c -0.0315,0.027004 -0.06506,0.051316 -0.09722,0.077548 0.03225,-0.026211 0.06564,-0.05056 0.09722,-0.077548 z m -0.553247,0.4097272 c -0.02762,0.017796 -0.0542,0.037135 -0.08218,0.0544 0.0281,-0.01728 0.05445,-0.036589 0.08218,-0.0544 z m -0.649313,0.3530135 c -0.01651,0.0075 -0.03318,0.0147 -0.04977,0.02199 1.74e-4,0.0012 10e-4,0.0023 0.0012,0.0035 0.01685,-0.0074 0.03186,-0.0179 0.04861,-0.02546 z"
     style="color:#000000;clip-rule:nonzero;display:inline;overflow:visible;visibility:visible;opacity:1;isolation:auto;mix-blend-mode:normal;color-interpolation:sRGB;color-interpolation-filters:linearRGB;solid-color:#000000;solid-opacity:1;fill:#77ff00;fill-opacity:1;fill-rule:nonzero;stroke:none;stroke-width:0.99999994;stroke-linecap:butt;stroke-linejoin:miter;stroke-miterlimit:4;stroke-dasharray:none;stroke-dashoffset:0;stroke-opacity:1;marker:none;color-rendering:auto;image-rendering:auto;shape-rendering:auto;text-rendering:auto;enable-background:accumulate"
     inkscape:connector-curvature="0" />
  <path
     id="path14761"
     d="m 5.2695529,5.7373836 c 0.045135,0.00206 0.090599,0.00366 0.1354182,0.00695 -0.04512,-0.00339 -0.090175,-0.00474 -0.1354182,-0.00695 z m -0.4930615,0.00351 c -0.071488,0.00354 -0.142644,0.00492 -0.2141227,0.011572 0.07051,-0.00668 0.1427818,-0.00787 0.2141227,-0.011572 z m 1.2789502,0.093751 c 0.010487,0.00221 0.020785,0.00468 0.031244,0.00695 -0.010465,-0.00225 -0.020771,-0.00474 -0.031244,-0.00695 z m -2.0810433,0.0081 c -0.07589,0.016314 -0.1502426,0.040231 -0.2256966,0.060185 0.075223,-0.020071 0.1491459,-0.043556 0.2256966,-0.060186 z M 3.3412896,6.0279282 c -0.07895,0.028283 -0.1568844,0.057779 -0.2349569,0.090278 0.077293,-0.03223 0.1558162,-0.061794 0.2349569,-0.090278 z M 3.0206837,6.1587168 C 2.8515321,6.2328654 2.6820174,6.3061227 2.5183634,6.4006083 0.11142131,7.7902538 -0.71505518,10.874535 0.67459221,13.281475 2.0642385,15.688415 5.1485183,16.514893 7.5554582,15.125247 7.7676967,15.002711 7.9631476,14.862781 8.1503724,14.715519 7.6067775,14.315806 7.133992,13.801955 6.7753571,13.180779 6.2170023,12.21368 6.0183005,11.138761 6.1353034,10.107827 4.4967641,9.4518524 3.2827439,7.9593695 3.0206837,6.1587076 Z M 7.3563818,6.299922 C 7.3985568,6.321977 7.4399208,6.345001 7.4813833,6.368209 7.4397323,6.345098 7.3986223,6.321821 7.3563818,6.299922 Z m 0.6053317,0.3703747 c 0.01976,0.014204 0.039476,0.028342 0.059025,0.042829 0.00131,-0.00102 0.00218,-0.00247 0.00349,-0.00349 -0.019942,-0.014662 -0.042364,-0.025004 -0.062502,-0.039353 z"
     style="color:#000000;clip-rule:nonzero;display:inline;overflow:visible;visibility:visible;opacity:1;isolation:auto;mix-blend-mode:normal;color-interpolation:sRGB;color-interpolation-filters:linearRGB;solid-color:#000000;solid-opacity:1;fill:#0089ff;fill-opacity:1;fill-rule:nonzero;stroke:none;stroke-width:1;stroke-linecap:round;stroke-linejoin:round;stroke-miterlimit:4;stroke-dasharray:none;stroke-dashoffset:0;stroke-opacity:1;marker:none;color-rendering:auto;image-rendering:auto;shape-rendering:auto;text-rendering:auto;enable-background:accumulate"
     inkscape:connector-curvature="0" />
  <path
     id="path14771"
     d="M 5.0357537,5.7269668 C 4.3184815,5.7269665 3.6374864,5.8835705 3.0195265,6.1613966 3.2709825,7.9538495 4.4203887,9.4475404 5.9836809,10.151976 6.1813252,8.7453876 6.9301782,7.5235724 8.0010655,6.7216444 7.1696931,6.0967058 6.1450605,5.7269668 5.0357537,5.7269668 Z"
     style="color:#000000;display:inline;overflow:visible;visibility:visible;opacity:1;fill:#00ff97;fill-opacity:1;fill-rule:nonzero;stroke:none;stroke-width:1;marker:none;enable-background:accumulate"
     inkscape:connector-curvature="0" />
  <path
     id="path14763"
     d="m 9.86247,10.095367 c -0.619107,0.272116 -1.3018991,0.424774 -2.0208562,0.424774 -0.6587418,0 -1.2864174,-0.13056 -1.8634471,-0.361115 -0.1172786,1.03128 0.081493,2.106655 0.6400537,3.074109 0.3586349,0.621176 0.8314203,1.135026 1.3750152,1.534741 C 9.424453,13.642153 10.111697,11.843207 9.86247,10.095367 Z"
     style="color:#000000;display:inline;overflow:visible;visibility:visible;opacity:1;fill:#ff00c9;fill-opacity:1;fill-rule:nonzero;stroke:none;stroke-width:1;marker:none;enable-background:accumulate"
     inkscape:connector-curvature="0" />
  <path
     style="color:#000000;clip-rule:nonzero;display:inline;overflow:visible;visibility:visible;opacity:1;isolation:auto;mix-blend-mode:normal;color-interpolation:sRGB;color-interpolation-filters:linearRGB;solid-color:#000000;solid-opacity:1;fill:#ee1600;fill-opacity:1;fill-rule:nonzero;stroke:none;stroke-width:0.99999994;stroke-linecap:butt;stroke-linejoin:miter;stroke-miterlimit:4;stroke-dasharray:none;stroke-dashoffset:0;stroke-opacity:1;marker:none;color-rendering:auto;image-rendering:auto;shape-rendering:auto;text-rendering:auto;enable-background:accumulate"
     d="m 12.979132,6.1494257 c -0.259479,1.8036114 -1.474563,3.2987067 -3.11462,3.9560633 0.117556,1.031627 -0.08129,2.107458 -0.640053,3.075268 -0.3586357,0.621175 -0.8314205,1.135026 -1.3750154,1.53474 C 8.7071513,15.392361 9.786967,15.800001 10.962905,15.8 13.742199,15.8 16.000003,13.542201 16,10.762905 16,8.7008815 14.755651,6.9282429 12.979132,6.1494257 Z M 7.526544,14.436559 c 0.1029062,0.09631 0.2087505,0.189118 0.3194473,0.276623 C 7.7344007,14.62526 7.6290153,14.532319 7.526544,14.436559 Z"
     id="path14717"
     inkscape:connector-curvature="0" />
  <path
     id="path14744"
     d="M 10.933025,5.7258096 C 9.330799,5.6932826 7.9507847,6.7096167 7.9507847,6.7096167 c 0,0 1.0314415,0.9135644 1.3953923,1.5347404 C 9.680624,8.815176 9.884989,9.4234516 9.974574,10.03836 11.558953,9.3507222 12.724169,7.8957651 12.979132,6.1494257 12.352015,5.8785153 11.660927,5.7258096 10.933025,5.7258096 Z"
     style="color:#000000;display:inline;overflow:visible;visibility:visible;opacity:1;fill:#ffe200;fill-opacity:1;fill-rule:nonzero;stroke:none;stroke-width:1;marker:none;enable-background:accumulate"
     inkscape:connector-curvature="0" />
  <path
     id="path14842"
     d="m 7.983704,6.7744327 c -0.065047,0.00182 -0.1276836,0.025011 -0.1782429,0.065971 -0.9076567,0.7312189 -1.5555802,1.7694299 -1.7859002,2.9595251 -0.027455,0.1413477 -0.096185,0.3737602 0.038327,0.4251232 0.5565075,0.212403 1.3072908,0.242708 1.940861,0.242708 0.6335702,0 1.2374939,-0.122091 1.7940019,-0.334494 0.134517,-0.05136 0.2126422,-0.1919895 0.185187,-0.3333372 C 9.874227,9.2680756 9.686367,8.7416916 9.399229,8.2443549 9.074223,7.6814269 8.6500858,7.2176611 8.1769927,6.8392458 8.1222582,6.7954567 8.0537716,6.7724967 7.983704,6.7744313 Z"
     style="color:#000000;font-style:normal;font-variant:normal;font-weight:normal;font-stretch:normal;font-size:medium;line-height:normal;font-family:sans-serif;text-indent:0;text-align:start;text-decoration:none;text-decoration-line:none;text-decoration-style:solid;text-decoration-color:#000000;letter-spacing:normal;word-spacing:normal;text-transform:none;direction:ltr;block-progression:tb;writing-mode:lr-tb;baseline-shift:baseline;text-anchor:start;white-space:normal;clip-rule:nonzero;display:inline;overflow:visible;visibility:visible;opacity:1;isolation:auto;mix-blend-mode:normal;color-interpolation:sRGB;color-interpolation-filters:linearRGB;solid-color:#000000;solid-opacity:1;fill:#ffffff;fill-opacity:1;fill-rule:nonzero;stroke:none;stroke-width:1;stroke-linecap:round;stroke-linejoin:round;stroke-miterlimit:4;stroke-dasharray:none;stroke-dashoffset:0;stroke-opacity:1;marker:none;color-rendering:auto;image-rendering:auto;shape-rendering:auto;text-rendering:auto;enable-background:accumulate"
     inkscape:connector-curvature="0"
     sodipodi:nodetypes="ccccsccscc" />
</svg>
