<?xml version="1.0" encoding="UTF-8" standalone="no"?>
<svg
   xmlns:dc="http://purl.org/dc/elements/1.1/"
   xmlns:cc="http://creativecommons.org/ns#"
   xmlns:rdf="http://www.w3.org/1999/02/22-rdf-syntax-ns#"
   xmlns:svg="http://www.w3.org/2000/svg"
   xmlns="http://www.w3.org/2000/svg"
   xmlns:sodipodi="http://sodipodi.sourceforge.net/DTD/sodipodi-0.dtd"
   xmlns:inkscape="http://www.inkscape.org/namespaces/inkscape"
   height="16"
   id="svg7384"
   version="1.1"
   width="16"
   inkscape:version="0.91 r"
   sodipodi:docname="dialog-xml-editor.svg">
  <sodipodi:namedview
     pagecolor="#ffffff"
     bordercolor="#666666"
     borderopacity="1"
     objecttolerance="10"
     gridtolerance="10"
     guidetolerance="10"
     inkscape:pageopacity="0"
     inkscape:pageshadow="2"
     inkscape:window-width="1290"
     inkscape:window-height="815"
     id="namedview8"
     showgrid="false"
     inkscape:zoom="14.75"
     inkscape:cx="-3.7288136"
     inkscape:cy="8"
     inkscape:window-x="257"
     inkscape:window-y="63"
     inkscape:window-maximized="0"
     inkscape:current-layer="svg7384" />
  <metadata
     id="metadata90">
    <rdf:RDF>
      <cc:Work
         rdf:about="">
        <dc:format>image/svg+xml</dc:format>
        <dc:type
           rdf:resource="http://purl.org/dc/dcmitype/StillImage" />
        <dc:title>elementary Symbolic Icon Theme</dc:title>
      </cc:Work>
    </rdf:RDF>
  </metadata>
  <title
     id="title9167">elementary Symbolic Icon Theme</title>
  <defs
     id="defs7386" />
  <path
     style="opacity:1;fill:#353945;fill-opacity:1;stroke:#353945;stroke-width:0.4;stroke-linecap:round;stroke-linejoin:round;stroke-miterlimit:4;stroke-dasharray:none;stroke-opacity:1"
     d="M 2.0506248,9.1421953 C 0.86384844,10.064596 0.6510121,11.762599 1.5734134,12.949376 2.4958146,14.136151 4.1938167,14.348988 5.380593,13.426587 L 7.0943494,12.094599 C 7.7960911,11.549183 8.1480728,10.73267 8.1354177,9.910937 l -1.707062,1.326784 -0.4284391,0.332997 -1.2853173,0.998991 C 4.0025335,13.12315 2.9837324,12.995447 2.4302916,12.283381 1.8768509,11.571316 2.0045526,10.552514 2.7166183,9.999073 L 4.0019357,9.000083 4.4303748,8.6670861 6.1374368,7.3403019 C 5.3442475,7.1252241 4.4661229,7.2647914 3.7643811,7.8102079 L 2.0506248,9.1421953 Z M 8.9056502,3.8142462 C 8.2039082,4.359663 7.8519268,5.1761741 7.8645819,5.9979085 L 9.5716439,4.6711243 10.000082,4.3381275 11.2854,3.339137 c 0.712065,-0.5534407 1.730867,-0.425739 2.284308,0.2863268 0.553441,0.7120657 0.425738,1.730867 -0.286327,2.2843078 L 11.998063,6.908762 11.569625,7.2417589 9.8625635,8.5685431 C 10.655752,8.783621 11.533876,8.6440541 12.235618,8.0986371 L 13.949375,6.7666497 C 15.136151,5.8442485 15.348987,4.1462464 14.426586,2.9594702 13.504185,1.7726939 11.806183,1.5598576 10.619406,2.4822588 L 8.9056502,3.8142462 Z M 5.0963684,9.5239643 C 4.8590131,9.7084445 4.8164459,10.048045 5.0009262,10.2854 c 0.1844802,0.237355 0.5240806,0.279923 0.7614358,0.09544 l 5.14127,-3.9959623 C 11.140986,6.2004005 11.183554,5.8608001 10.999074,5.6234447 10.814593,5.3860895 10.474993,5.3435223 10.237637,5.5280025 L 5.0963684,9.5239643 Z"
     id="rect4753"
     inkscape:connector-curvature="0" />
</svg>
