<?xml version="1.0" encoding="UTF-8" standalone="no"?>
<svg
   xmlns:dc="http://purl.org/dc/elements/1.1/"
   xmlns:cc="http://creativecommons.org/ns#"
   xmlns:rdf="http://www.w3.org/1999/02/22-rdf-syntax-ns#"
   xmlns:svg="http://www.w3.org/2000/svg"
   xmlns="http://www.w3.org/2000/svg"
   xmlns:sodipodi="http://sodipodi.sourceforge.net/DTD/sodipodi-0.dtd"
   xmlns:inkscape="http://www.inkscape.org/namespaces/inkscape"
   height="16"
   id="svg7384"
   version="1.1"
   width="16"
   inkscape:version="0.91 r"
   sodipodi:docname="document-open.svg">
  <sodipodi:namedview
     pagecolor="#ffffff"
     bordercolor="#666666"
     borderopacity="1"
     objecttolerance="10"
     gridtolerance="10"
     guidetolerance="10"
     inkscape:pageopacity="0"
     inkscape:pageshadow="2"
     inkscape:window-width="1178"
     inkscape:window-height="889"
     id="namedview18"
     showgrid="false"
     inkscape:zoom="14.75"
     inkscape:cx="-3.7288136"
     inkscape:cy="8"
     inkscape:window-x="635"
     inkscape:window-y="162"
     inkscape:window-maximized="0"
     inkscape:current-layer="layer13" />
  <metadata
     id="metadata90">
    <rdf:RDF>
      <cc:Work
         rdf:about="">
        <dc:format>image/svg+xml</dc:format>
        <dc:type
           rdf:resource="http://purl.org/dc/dcmitype/StillImage" />
        <dc:title>elementary Symbolic Icon Theme</dc:title>
      </cc:Work>
    </rdf:RDF>
  </metadata>
  <title
     id="title9167">elementary Symbolic Icon Theme</title>
  <defs
     id="defs7386">
    <filter
       color-interpolation-filters="sRGB"
       id="filter7554">
      <feBlend
         id="feBlend7556"
         in2="BackgroundImage"
         mode="darken" />
    </filter>
  </defs>
  <g
     id="layer9"
     style="display:inline"
     transform="translate(-693.00043,604)" />
  <g
     id="layer10"
     style="display:inline"
     transform="translate(-693.00043,604)" />
  <g
     id="layer11"
     transform="translate(-693.00043,604)" />
  <g
     id="layer13"
     style="display:inline;fill:#353945;fill-opacity:1"
     transform="translate(-693.00043,604)">
    <path
       d="m 695.429,-596.85703 c -0.23743,0 -0.42857,0.19114 -0.42857,0.42857 l 0,5.99989 c 0,0.23743 0.19114,0.42857 0.42857,0.42857 l 11.14267,0 c 0.23742,0 0.42857,-0.19114 0.42857,-0.42857 l 0,-5.99989 c 0,-0.23743 -0.19115,-0.42857 -0.42857,-0.42857 z"
       id="rect3058"
       style="color:#bebebe;display:inline;overflow:visible;visibility:visible;fill:#353945;fill-opacity:1;fill-rule:nonzero;stroke:none;stroke-width:1;marker:none;enable-background:accumulate"
       inkscape:connector-curvature="0"
       sodipodi:nodetypes="sssssssss" />
    <path
       d="m 696.28632,-601.57124 c -0.23742,0 -0.42856,0.19114 -0.42856,0.42857 l 0,0.42856 -0.42857,0 c -0.23742,0 -0.42857,0.19114 -0.42857,0.42857 l 0,1.71425 c 0,-0.23742 0.19115,-0.42856 0.42857,-0.42856 l 11.14267,0 c 0.23743,0 0.42857,0.19114 0.42857,0.42856 l 0,-1.71425 c 0,-0.23743 -0.19114,-0.42857 -0.42857,-0.42857 l -5.57133,0 0,-0.42856 c 0,-0.23743 -0.19114,-0.42857 -0.42856,-0.42857 z"
       id="rect3058-6"
       style="color:#bebebe;display:inline;overflow:visible;visibility:visible;fill:#353945;fill-opacity:1;fill-rule:nonzero;stroke:none;stroke-width:1;marker:none;enable-background:accumulate"
       inkscape:connector-curvature="0"
       sodipodi:nodetypes="sscsscsscsscsss" />
  </g>
  <g
     id="layer14"
     transform="translate(-693.00043,604)" />
  <g
     id="layer15"
     style="display:inline"
     transform="translate(-693.00043,604)" />
  <g
     id="g71291"
     style="display:inline"
     transform="translate(-693.00043,604)" />
  <g
     id="g4953"
     style="display:inline"
     transform="translate(-693.00043,604)" />
  <g
     id="layer12"
     style="display:inline"
     transform="translate(-693.00043,604)" />
</svg>
