<?xml version="1.0" encoding="UTF-8" standalone="no"?>
<svg
   xmlns:dc="http://purl.org/dc/elements/1.1/"
   xmlns:cc="http://creativecommons.org/ns#"
   xmlns:rdf="http://www.w3.org/1999/02/22-rdf-syntax-ns#"
   xmlns:svg="http://www.w3.org/2000/svg"
   xmlns="http://www.w3.org/2000/svg"
   xmlns:xlink="http://www.w3.org/1999/xlink"
   xmlns:sodipodi="http://sodipodi.sourceforge.net/DTD/sodipodi-0.dtd"
   xmlns:inkscape="http://www.inkscape.org/namespaces/inkscape"
   height="16"
   id="svg7384"
   version="1.1"
   width="16"
   inkscape:version="0.91 r"
   sodipodi:docname="editclear.svg">
  <sodipodi:namedview
     pagecolor="#ffffff"
     bordercolor="#666666"
     borderopacity="1"
     objecttolerance="10"
     gridtolerance="10"
     guidetolerance="10"
     inkscape:pageopacity="0"
     inkscape:pageshadow="2"
     inkscape:window-width="1855"
     inkscape:window-height="1056"
     id="namedview18"
     showgrid="true"
     inkscape:zoom="49.8157"
     inkscape:cx="-0.099192827"
     inkscape:cy="8.0900009"
     inkscape:window-x="65"
     inkscape:window-y="24"
     inkscape:window-maximized="1"
     inkscape:current-layer="svg7384">
    <inkscape:grid
       type="xygrid"
       id="grid4193" />
  </sodipodi:namedview>
  <metadata
     id="metadata90">
    <rdf:RDF>
      <cc:Work
         rdf:about="">
        <dc:format>image/svg+xml</dc:format>
        <dc:type
           rdf:resource="http://purl.org/dc/dcmitype/StillImage" />
        <dc:title>elementary Symbolic Icon Theme</dc:title>
      </cc:Work>
    </rdf:RDF>
  </metadata>
  <title
     id="title9167">elementary Symbolic Icon Theme</title>
  <defs
     id="defs7386">
    <filter
       color-interpolation-filters="sRGB"
       id="filter7554">
      <feBlend
         id="feBlend7556"
         in2="BackgroundImage"
         mode="darken" />
    </filter>
    <filter
       color-interpolation-filters="sRGB"
       id="filter7554-7">
      <feBlend
         id="feBlend7556-6"
         in2="BackgroundImage"
         mode="darken" />
    </filter>
    <radialGradient
       cx="21.385109"
       cy="-19.005346"
       r="19.99999"
       fx="21.385109"
       fy="-19.005346"
       id="radialGradient3015"
       xlink:href="#linearGradient2867-449-88-871-390-598-476-591-434-148-57-177-641-289-620-227-114-444-680-744-4"
       gradientUnits="userSpaceOnUse"
       gradientTransform="matrix(0,0.99994569,-1.0668483,0,-30.033692,-20.31548)" />
    <linearGradient
       id="linearGradient2867-449-88-871-390-598-476-591-434-148-57-177-641-289-620-227-114-444-680-744-4">
      <stop
         id="stop5430-5"
         style="stop-color:#737373;stop-opacity:1"
         offset="0" />
      <stop
         id="stop5432-2"
         style="stop-color:#636363;stop-opacity:1"
         offset="0.26238" />
      <stop
         id="stop5434-9"
         style="stop-color:#4b4b4b;stop-opacity:1"
         offset="0.704952" />
      <stop
         id="stop5436-2"
         style="stop-color:#3f3f3f;stop-opacity:1"
         offset="1" />
    </linearGradient>
    <linearGradient
       x1="12"
       y1="16"
       x2="12"
       y2="8"
       id="linearGradient3011"
       xlink:href="#linearGradient3805"
       gradientUnits="userSpaceOnUse"
       gradientTransform="matrix(1.0116033,0,0,1.0116033,-29.291782,-4.5036462)" />
    <linearGradient
       id="linearGradient3805">
      <stop
         id="stop3807"
         style="stop-color:#ffffff;stop-opacity:1"
         offset="0" />
      <stop
         id="stop3809"
         style="stop-color:#ffffff;stop-opacity:0"
         offset="1" />
    </linearGradient>
    <linearGradient
       x1="12.47939"
       y1="2"
       x2="12.47939"
       y2="22.006775"
       id="linearGradient3014"
       xlink:href="#linearGradient3805"
       gradientUnits="userSpaceOnUse"
       gradientTransform="translate(-29.095658,-4.4188265)" />
    <linearGradient
       x1="86.132919"
       y1="105.105"
       x2="84.63858"
       y2="20.895"
       id="linearGradient3017"
       xlink:href="#linearGradient2867-449-88-871-390-598-476-591-434-148-57-177-641-289-620-227-114-444-680-744-4"
       gradientUnits="userSpaceOnUse"
       gradientTransform="matrix(0.15623116,0,0,0.15623125,-27.151342,-2.2069758)" />
    <linearGradient
       x1="32.036148"
       y1="19"
       x2="32.036148"
       y2="47.012184"
       id="linearGradient3021"
       xlink:href="#linearGradient2867-449-88-871-390-598-476-591-434-148-57-177-641-289-620-227-114-444-680-744-4"
       gradientUnits="userSpaceOnUse"
       gradientTransform="matrix(0.77777782,0,0,0.77777782,-41.263654,-18.031076)" />
    <radialGradient
       cx="6.702713"
       cy="73.615715"
       r="7.228416"
       fx="6.702713"
       fy="73.615715"
       id="radialGradient3026"
       xlink:href="#linearGradient10691"
       gradientUnits="userSpaceOnUse"
       gradientTransform="matrix(1.6600963,0,0,0.36315008,-28.27969,-9.7229589)" />
    <linearGradient
       id="linearGradient10691">
      <stop
         id="stop10693"
         style="stop-color:#000000;stop-opacity:1"
         offset="0" />
      <stop
         id="stop10695"
         style="stop-color:#000000;stop-opacity:0"
         offset="1" />
    </linearGradient>
    <radialGradient
       cx="16.202444"
       cy="-19.005346"
       r="19.99999"
       fx="16.202444"
       fy="-19.005346"
       id="radialGradient3896-0"
       xlink:href="#linearGradient2867-449-88-871-390-598-476-591-434-148-57-177-641-289-620-227-114-444-680-744-4"
       gradientUnits="userSpaceOnUse"
       gradientTransform="matrix(0,1.2955087,1.315286,0,13.41073,-17.81194)" />
  </defs>
  <g
     id="layer9"
     label="status"
     style="display:inline"
     transform="translate(-453.0004,12)" />
  <g
     id="layer10"
     style="display:inline"
     transform="translate(-453.0004,12)" />
  <g
     id="layer13"
     style="display:inline"
     transform="translate(-453.0004,12)" />
  <g
     id="layer14"
     transform="translate(-453.0004,12)" />
  <g
     id="layer15"
     style="display:inline"
     transform="translate(-453.0004,12)" />
  <g
     id="g71291"
     style="display:inline"
     transform="translate(-453.0004,12)" />
  <g
     id="layer12"
     style="display:inline;fill:#353945;fill-opacity:1"
     transform="matrix(1.0011668,0,0,0.99990065,-453.54627,12.000099)">
    <path
       d="m 459.59393,-10.000139 a 0.51931882,0.52641945 0 0 0 -0.25,0.1562495 l -5.1875,5.3125 a 0.51931882,0.52641945 0 0 0 0.0312,0.75 l 5.03125,4.62500001 a 0.51931882,0.52641945 0 0 0 0.3438,0.15625 l 7.90625,0 a 0.51931882,0.52641945 0 0 0 0.53125,-0.53124997 l 0,-9.93750004 a 0.51931882,0.52641945 0 0 0 -0.53125,-0.5312495 l -7.75,0 a 0.51931882,0.52641945 0 0 0 -0.0625,0 0.51931882,0.52641945 0 0 0 -0.0625,0 z m 1.34375,2.2499995 1.8125,1.75 1.78125,-1.75 1.46875,1.46875 -1.75,1.78125 1.75,1.84375 -1.46875,1.40625 -1.78125,-1.75 -1.8125,1.75 -1.4375,-1.4375 1.75,-1.8125 -1.75,-1.78125 1.4375,-1.46875 z"
       id="path4463"
       style="color:#bebebe;display:inline;overflow:visible;visibility:visible;fill:#353945;fill-opacity:1;fill-rule:nonzero;stroke:none;stroke-width:1;marker:none;enable-background:accumulate"
       inkscape:connector-curvature="0" />
  </g>
  <g
     transform="translate(-453.0004,12)"
     style="display:inline;opacity:0.3;stroke:none"
     id="g4851">
    <path
       style="color:#bebebe;fill:none;fill-opacity:1;fill-rule:nonzero;stroke:none;stroke-width:1;marker:none;visibility:visible;display:inline;overflow:visible;enable-background:accumulate;stroke-opacity:1"
       id="path4853"
       d="m 459.59393,-10.000139 a 0.51931882,0.52641945 0 0 0 -0.25,0.1562495 l -5.1875,5.3125 a 0.51931882,0.52641945 0 0 0 0.0312,0.75 l 5.03125,4.62500001 a 0.51931882,0.52641945 0 0 0 0.3438,0.15625 l 7.90625,0 a 0.51931882,0.52641945 0 0 0 0.53125,-0.53124997 l 0,-9.93750004 a 0.51931882,0.52641945 0 0 0 -0.53125,-0.5312495 l -7.75,0 a 0.51931882,0.52641945 0 0 0 -0.0625,0 0.51931882,0.52641945 0 0 0 -0.0625,0 z m 1.34375,2.2499995 1.8125,1.75 1.78125,-1.75 1.46875,1.46875 -1.75,1.78125 1.75,1.84375 -1.46875,1.40625 -1.78125,-1.75 -1.8125,1.75 -1.4375,-1.4375 1.75,-1.8125 -1.75,-1.78125 1.4375,-1.46875 z" />
  </g>
</svg>
