<?xml version="1.0" encoding="UTF-8" standalone="no"?>
<svg
   xmlns:dc="http://purl.org/dc/elements/1.1/"
   xmlns:cc="http://creativecommons.org/ns#"
   xmlns:rdf="http://www.w3.org/1999/02/22-rdf-syntax-ns#"
   xmlns:svg="http://www.w3.org/2000/svg"
   xmlns="http://www.w3.org/2000/svg"
   xmlns:sodipodi="http://sodipodi.sourceforge.net/DTD/sodipodi-0.dtd"
   xmlns:inkscape="http://www.inkscape.org/namespaces/inkscape"
   height="16"
   id="svg7384"
   version="1.1"
   width="16"
   inkscape:version="0.91 r"
   sodipodi:docname="filesaveas.svg">
  <sodipodi:namedview
     pagecolor="#ffffff"
     bordercolor="#666666"
     borderopacity="1"
     objecttolerance="10"
     gridtolerance="10"
     guidetolerance="10"
     inkscape:pageopacity="0"
     inkscape:pageshadow="2"
     inkscape:window-width="767"
     inkscape:window-height="480"
     id="namedview21"
     showgrid="false"
     inkscape:zoom="14.75"
     inkscape:cx="8"
     inkscape:cy="8"
     inkscape:window-x="75"
     inkscape:window-y="34"
     inkscape:window-maximized="0"
     inkscape:current-layer="layer12" />
  <metadata
     id="metadata90">
    <rdf:RDF>
      <cc:Work
         rdf:about="">
        <dc:format>image/svg+xml</dc:format>
        <dc:type
           rdf:resource="http://purl.org/dc/dcmitype/StillImage" />
        <dc:title>elementary Symbolic Icon Theme</dc:title>
      </cc:Work>
    </rdf:RDF>
  </metadata>
  <title
     id="title9167">elementary Symbolic Icon Theme</title>
  <defs
     id="defs7386">
    <filter
       color-interpolation-filters="sRGB"
       id="filter7554">
      <feBlend
         id="feBlend7556"
         in2="BackgroundImage"
         mode="darken" />
    </filter>
    <filter
       color-interpolation-filters="sRGB"
       id="filter7554-7">
      <feBlend
         id="feBlend7556-6"
         in2="BackgroundImage"
         mode="darken" />
    </filter>
  </defs>
  <g
     id="layer9"
     label="status"
     style="display:inline;fill:#353945;fill-opacity:1"
     transform="translate(-333.0004,12)" />
  <g
     id="layer10"
     style="display:inline;fill:#353945;fill-opacity:1"
     transform="translate(-333.0004,12)" />
  <g
     id="layer13"
     style="display:inline;fill:#353945;fill-opacity:1"
     transform="translate(-333.0004,12)" />
  <g
     id="layer14"
     transform="translate(-333.0004,12)"
     style="fill:#353945;fill-opacity:1" />
  <g
     id="layer15"
     style="display:inline;fill:#353945;fill-opacity:1"
     transform="translate(-333.0004,12)" />
  <g
     id="g71291"
     style="display:inline;fill:#353945;fill-opacity:1"
     transform="translate(-333.0004,12)" />
  <g
     id="layer12"
     style="display:inline;fill:#353945;fill-opacity:1"
     transform="translate(-333.0004,12)">
    <path
       d="m 335.0004,-9 0,12 12,0 0,-12 z m 1,1 10,0 0,10 -10,0 z"
       id="path3701-0-3-2-4-2-9-2-1-0"
       style="color:#bebebe;fill:#353945;fill-opacity:1;fill-rule:nonzero;stroke:none;stroke-width:1;marker:none;visibility:visible;display:inline;overflow:visible;enable-background:accumulate" />
    <path
       d="m 340.40665,-7 c -0.2292,0.043733 -0.41036,0.2667 -0.40625,0.5 l 0,2.5 -1.5,0 c -0.36917,0.01125 -0.60595,0.524269 -0.375,0.8125 l 2.5,3 c 0.187,0.211987 0.563,0.211987 0.75,0 l 2.5,-3 c 0.23095,-0.288231 -0.006,-0.8012504 -0.375,-0.8125 l -1.5,0 0,-2.5 c -3e-5,-0.2617922 -0.23821,-0.4999738 -0.5,-0.5 l -1,0 c -0.0312,-0.00293 -0.0626,-0.00293 -0.0937,0 z"
       id="path3870"
       style="font-size:medium;font-style:normal;font-variant:normal;font-weight:normal;font-stretch:normal;text-indent:0;text-align:start;text-decoration:none;line-height:normal;letter-spacing:normal;word-spacing:normal;text-transform:none;direction:ltr;block-progression:tb;writing-mode:lr-tb;text-anchor:start;baseline-shift:baseline;color:#000000;fill:#353945;fill-opacity:1;fill-rule:nonzero;stroke:none;stroke-width:1;marker:none;visibility:visible;display:inline;overflow:visible;enable-background:accumulate;font-family:Sans;-inkscape-font-specification:Sans" />
    <g
       id="layer9-1-5"
       transform="matrix(1,0,0,0.99915,219.57997,-686.56034)"
       style="fill:#353945;fill-opacity:1" />
    <path
       d="m 335.0004,-12 c -0.54535,0 -1,0.45465 -1,1 l 0,2 c 0,0.54535 0.45465,1 1,1 l 12,0 c 0.54535,0 1,-0.45465 1,-1 l 0,-2 c 0,-0.54535 -0.45465,-1 -1,-1 z m 0,1 12,0 0,2 -12,0 z"
       id="rect4390-7"
       style="text-indent:0;text-transform:none;block-progression:tb;color:#bebebe;fill:#353945;fill-opacity:1;stroke:none" />
  </g>
</svg>
