<?xml version="1.0" encoding="UTF-8" standalone="no"?>
<svg
   xmlns:osb="http://www.openswatchbook.org/uri/2009/osb"
   xmlns:dc="http://purl.org/dc/elements/1.1/"
   xmlns:cc="http://creativecommons.org/ns#"
   xmlns:rdf="http://www.w3.org/1999/02/22-rdf-syntax-ns#"
   xmlns:svg="http://www.w3.org/2000/svg"
   xmlns="http://www.w3.org/2000/svg"
   xmlns:xlink="http://www.w3.org/1999/xlink"
   xmlns:sodipodi="http://sodipodi.sourceforge.net/DTD/sodipodi-0.dtd"
   xmlns:inkscape="http://www.inkscape.org/namespaces/inkscape"
   height="16"
   version="1.1"
   width="16"
   enable-background="new"
   id="svg3001"
   inkscape:version="0.91 r"
   sodipodi:docname="format-text-underline.svg">
  <sodipodi:namedview
     pagecolor="#ffffff"
     bordercolor="#666666"
     borderopacity="1"
     objecttolerance="10"
     gridtolerance="10"
     guidetolerance="10"
     inkscape:pageopacity="0"
     inkscape:pageshadow="2"
     inkscape:window-width="640"
     inkscape:window-height="480"
     id="namedview8133"
     showgrid="false"
     inkscape:zoom="57.261315"
     inkscape:cx="4.725538"
     inkscape:cy="8"
     inkscape:current-layer="layer12" />
  <metadata
     id="metadata90">
    <rdf:RDF>
      <cc:Work
         rdf:about="">
        <dc:format>image/svg+xml</dc:format>
        <dc:type
           rdf:resource="http://purl.org/dc/dcmitype/StillImage" />
        <dc:title />
      </cc:Work>
    </rdf:RDF>
  </metadata>
  <defs
     id="defs7386">
    <linearGradient
       id="linearGradient5153">
      <stop
         style="stop-color:#555555;stop-opacity:1;"
         offset="0"
         id="stop5155" />
      <stop
         style="stop-color:#666666;stop-opacity:1;"
         offset="1"
         id="stop5157" />
    </linearGradient>
    <linearGradient
       id="linearGradient5606"
       osb:paint="solid">
      <stop
         id="stop5608" />
    </linearGradient>
    <linearGradient
       xlink:href="#linearGradient5153"
       id="linearGradient5159"
       x1="8"
       y1="16"
       x2="8"
       y2="0"
       gradientUnits="userSpaceOnUse" />
    <linearGradient
       xlink:href="#linearGradient5153"
       id="linearGradient5175"
       gradientUnits="userSpaceOnUse"
       x1="8"
       y1="16"
       x2="8"
       y2="0"
       gradientTransform="translate(401.00061,70.00002)" />
    <linearGradient
       xlink:href="#linearGradient5153"
       id="linearGradient5188"
       gradientUnits="userSpaceOnUse"
       x1="8"
       y1="16"
       x2="8"
       y2="0" />
  </defs>
  <g
     id="layer12"
     transform="translate(-401.00061,-69.00002)">
    <path
       style="color:#000000;fill:#353945;fill-opacity:1;stroke:none;stroke-width:2"
       d="m 404.50061,70.50002 0,0.5 0,2 0,0.5 0.5,0 6,0 c -0.025,0 0.17547,0.07803 0.3125,0.21875 0.13703,0.14072 0.1875,0.335318 0.1875,0.28125 l 0,0.5 -4.5,0 c -1.0585,0 -2.00902,0.424732 -2.625,1.125 -0.59855,0.680457 -0.88241,1.53948 -0.875,2.375 0.007,0.83941 0.31143,1.703294 0.90625,2.375 0.60922,0.687962 1.54227,1.125 2.59375,1.125 l 5,0 1,0 1,0 0.5,0 c 8.1e-4,-0.839515 0,-1.663525 0,-2.5 l 0,-5 c 0,-1.903521 -1.54887,-3.5 -3.5,-3.5 l -6,0 z m 2.5,7 4.5,0 0,1 -4.5,0 c -0.30589,0 -0.24379,-0.01212 -0.34375,-0.125 -0.0722,-0.08147 -0.15509,-0.244207 -0.15625,-0.375 -6.6e-4,-0.09212 0.0127,-0.198091 0.0312,-0.25 0.0186,-0.05191 0.0554,-0.08134 0.0937,-0.125 0.0851,-0.09669 0.0442,-0.125 0.375,-0.125 z m -4.5,5 0,0.5 0,1 0,0.5 0.5,0 12,0 0.5,0 0,-0.5 0,-1 0,-0.5 -0.5,0 -12,0 z"
       id="path11643-3-2" />
  </g>
</svg>
