<?xml version="1.0" encoding="UTF-8" standalone="no"?>
<!-- Generator: Adobe Illustrator 15.0.0, SVG Export Plug-In . SVG Version: 6.00 Build 0)  -->

<svg
   xmlns:dc="http://purl.org/dc/elements/1.1/"
   xmlns:cc="http://creativecommons.org/ns#"
   xmlns:rdf="http://www.w3.org/1999/02/22-rdf-syntax-ns#"
   xmlns:svg="http://www.w3.org/2000/svg"
   xmlns="http://www.w3.org/2000/svg"
   xmlns:sodipodi="http://sodipodi.sourceforge.net/DTD/sodipodi-0.dtd"
   xmlns:inkscape="http://www.inkscape.org/namespaces/inkscape"
   id="Layer_1"
   xml:space="preserve"
   height="16"
   viewBox="0 0 16 16"
   width="16"
   version="1.1"
   y="0px"
   x="0px"
   enable-background="new 0 0 22 22"
   inkscape:version="0.91 r"
   sodipodi:docname="gtk-preferences.svg"><metadata
     id="metadata9"><rdf:RDF><cc:Work
         rdf:about=""><dc:format>image/svg+xml</dc:format><dc:type
           rdf:resource="http://purl.org/dc/dcmitype/StillImage" /><dc:title /></cc:Work></rdf:RDF></metadata><defs
     id="defs7" /><sodipodi:namedview
     pagecolor="#ffffff"
     bordercolor="#666666"
     borderopacity="1"
     objecttolerance="10"
     gridtolerance="10"
     guidetolerance="10"
     inkscape:pageopacity="0"
     inkscape:pageshadow="2"
     inkscape:window-width="1377"
     inkscape:window-height="1017"
     id="namedview5"
     showgrid="false"
     inkscape:zoom="10.727273"
     inkscape:cx="-6.2457623"
     inkscape:cy="11"
     inkscape:window-x="75"
     inkscape:window-y="34"
     inkscape:window-maximized="0"
     inkscape:current-layer="Layer_1" /><path
     d="M 6.0184014,6.0182442 3.1717696,6.2357415 0.70679977,3.7724384 c -0.4908273,1.5891472 -0.108332,3.3941251 1.15165263,4.6532763 1.439149,1.4424823 3.5907893,1.7333123 5.3232681,0.8858225 l -0.0075,0.00583 4.0974505,5.4582668 c 0.965821,0.965821 2.534968,0.965821 3.502457,0 0.967488,-0.966655 0.965821,-2.534136 0,-3.503291 l -5.4566002,-4.0982828 -0.0083,0.00917 C 10.157518,5.4507512 9.8641878,3.2999442 8.4242052,1.8591285 7.1658873,0.59914396 5.3625761,0.21581531 3.7725956,0.70664264 L 6.2375654,3.1732791 6.0184014,6.0182442 Z m 7.6474066,6.3365888 c 0.362495,0.360829 0.362495,0.949155 0,1.312484 -0.363329,0.361662 -0.952488,0.361662 -1.311651,0 -0.364995,-0.364162 -0.364995,-0.952488 0,-1.312484 0.359163,-0.364995 0.948322,-0.364995 1.311651,0 z"
     id="path3"
     inkscape:connector-curvature="0"
     style="fill:#353945;fill-opacity:1" /></svg>