<?xml version="1.0" encoding="UTF-8" standalone="no"?>
<svg
   xmlns:dc="http://purl.org/dc/elements/1.1/"
   xmlns:cc="http://creativecommons.org/ns#"
   xmlns:rdf="http://www.w3.org/1999/02/22-rdf-syntax-ns#"
   xmlns:svg="http://www.w3.org/2000/svg"
   xmlns="http://www.w3.org/2000/svg"
   xmlns:xlink="http://www.w3.org/1999/xlink"
   xmlns:sodipodi="http://sodipodi.sourceforge.net/DTD/sodipodi-0.dtd"
   xmlns:inkscape="http://www.inkscape.org/namespaces/inkscape"
   width="16px"
   height="16px"
   id="svg3850"
   version="1.1"
   inkscape:version="0.91 r"
   sodipodi:docname="object-merge.svg">
  <sodipodi:namedview
     pagecolor="#ffffff"
     bordercolor="#666666"
     borderopacity="1"
     objecttolerance="10"
     gridtolerance="10"
     guidetolerance="10"
     inkscape:pageopacity="0"
     inkscape:pageshadow="2"
     inkscape:window-width="640"
     inkscape:window-height="480"
     id="namedview4156"
     showgrid="false"
     inkscape:zoom="50.1875"
     inkscape:cx="4.26401"
     inkscape:cy="8"
     inkscape:current-layer="layer1" />
  <defs
     id="defs3852">
    <linearGradient
       id="linearGradient4715">
      <stop
         style="stop-color:#555555;stop-opacity:1;"
         offset="0"
         id="stop4717" />
      <stop
         style="stop-color:#666666;stop-opacity:1;"
         offset="1"
         id="stop4719" />
    </linearGradient>
    <linearGradient
       xlink:href="#linearGradient4715"
       id="linearGradient4721"
       x1="8"
       y1="16"
       x2="8"
       y2="0"
       gradientUnits="userSpaceOnUse" />
  </defs>
  <metadata
     id="metadata3855">
    <rdf:RDF>
      <cc:Work
         rdf:about="">
        <dc:format>image/svg+xml</dc:format>
        <dc:type
           rdf:resource="http://purl.org/dc/dcmitype/StillImage" />
      </cc:Work>
    </rdf:RDF>
  </metadata>
  <g
     id="layer1">
    <path
       style="color:#bebebe;fill:#353945;fill-opacity:1;fill-rule:nonzero;stroke:none;stroke-width:1;marker:none;visibility:visible;display:inline;overflow:visible;enable-background:accumulate;stroke-opacity:1"
       d="m 8,1.09375 -0.40625,0.625 -4,6 L 3.0625,8.5 4,8.5 l 2.5,0 0,0.5 c 0,0 -0.00921,0.8798886 -0.53125,1.75 C 5.4312439,11.645847 4.5995036,12.5 2,12.5 l -1,0 -0.5,0 0,0.5 0,2 0,0.5 0.5,0 1,0 c 3.0401949,0 4.9049782,-1.291201 6,-2.71875 C 9.0950218,14.208799 10.959805,15.5 14,15.5 l 1,0 0.5,0 0,-0.5 0,-2 0,-0.5 -0.5,0 -1,0 c -2.599504,0 -3.431244,-0.854154 -3.96875,-1.75 C 9.5091892,9.8798957 9.5,9 9.5,9 l 0,-0.5 2.5,0 0.9375,0 -0.53125,-0.78125 -4,-6 L 8,1.09375 z"
       id="path2843-39-5-5" />
    <path
       id="path4382"
       d="m 8,1.09375 -0.40625,0.625 -4,6 L 3.0625,8.5 4,8.5 l 2.5,0 0,0.5 c 0,0 -0.00921,0.8798886 -0.53125,1.75 C 5.4312439,11.645847 4.5995036,12.5 2,12.5 l -1,0 -0.5,0 0,0.5 0,2 0,0.5 0.5,0 1,0 c 3.0401949,0 4.9049782,-1.291201 6,-2.71875 C 9.0950218,14.208799 10.959805,15.5 14,15.5 l 1,0 0.5,0 0,-0.5 0,-2 0,-0.5 -0.5,0 -1,0 c -2.599504,0 -3.431244,-0.854154 -3.96875,-1.75 C 9.5091892,9.8798957 9.5,9 9.5,9 l 0,-0.5 2.5,0 0.9375,0 -0.53125,-0.78125 -4,-6 L 8,1.09375 z"
       style="opacity:0.61000001;color:#bebebe;fill:none;stroke:none;stroke-width:1;stroke-opacity:1;marker:none;visibility:visible;display:inline;overflow:visible;enable-background:accumulate" />
  </g>
</svg>
