<?xml version="1.0" encoding="UTF-8" standalone="no"?>
<svg
   xmlns:dc="http://purl.org/dc/elements/1.1/"
   xmlns:cc="http://creativecommons.org/ns#"
   xmlns:rdf="http://www.w3.org/1999/02/22-rdf-syntax-ns#"
   xmlns:svg="http://www.w3.org/2000/svg"
   xmlns="http://www.w3.org/2000/svg"
   xmlns:sodipodi="http://sodipodi.sourceforge.net/DTD/sodipodi-0.dtd"
   xmlns:inkscape="http://www.inkscape.org/namespaces/inkscape"
   height="16"
   id="svg7384"
   version="1.1"
   width="16"
   inkscape:version="0.91 r"
   sodipodi:docname="iso-image-burn.svg">
  <sodipodi:namedview
     pagecolor="#ffffff"
     bordercolor="#666666"
     borderopacity="1"
     objecttolerance="10"
     gridtolerance="10"
     guidetolerance="10"
     inkscape:pageopacity="0"
     inkscape:pageshadow="2"
     inkscape:window-width="1546"
     inkscape:window-height="980"
     id="namedview19"
     showgrid="true"
     inkscape:zoom="17.5"
     inkscape:cx="15.474004"
     inkscape:cy="14.857143"
     inkscape:current-layer="svg7384"
     inkscape:window-x="289"
     inkscape:window-y="38"
     inkscape:window-maximized="0">
    <inkscape:grid
       type="xygrid"
       id="grid4202" />
  </sodipodi:namedview>
  <metadata
     id="metadata90">
    <rdf:RDF>
      <cc:Work
         rdf:about="">
        <dc:format>image/svg+xml</dc:format>
        <dc:type
           rdf:resource="http://purl.org/dc/dcmitype/StillImage" />
        <dc:title>elementary Symbolic Icon Theme</dc:title>
      </cc:Work>
    </rdf:RDF>
  </metadata>
  <title
     id="title9167">elementary Symbolic Icon Theme</title>
  <defs
     id="defs7386">
    <filter
       id="filter7554"
       style="color-interpolation-filters:sRGB">
      <feBlend
         id="feBlend7556"
         in2="BackgroundImage"
         mode="darken" />
    </filter>
    <filter
       id="filter7554-7"
       style="color-interpolation-filters:sRGB">
      <feBlend
         id="feBlend7556-6"
         in2="BackgroundImage"
         mode="darken" />
    </filter>
  </defs>
  <g
     id="layer9"
     label="status"
     style="display:inline"
     transform="matrix(0.99936396,0,0,0.99936396,-432.7197,251.84481)" />
  <g
     id="layer10"
     style="display:inline;fill:#353945;fill-opacity:1"
     transform="matrix(0.99936396,0,0,0.99936396,-432.7197,251.84481)">
    <path
       style="color:#bebebe;font-style:normal;font-variant:normal;font-weight:normal;font-stretch:normal;font-size:medium;line-height:normal;font-family:Sans;-inkscape-font-specification:Sans;text-indent:0;text-align:start;text-decoration:none;text-decoration-line:none;letter-spacing:normal;word-spacing:normal;text-transform:none;direction:ltr;block-progression:tb;writing-mode:lr-tb;baseline-shift:baseline;text-anchor:start;display:inline;overflow:visible;visibility:visible;fill:#353945;fill-opacity:1;stroke:none;stroke-width:5.61250019;marker:none;enable-background:accumulate"
       d="M 23.966797,3 C 12.447198,3 3,12.447228 3,23.966797 3,35.486365 12.447198,45 23.966797,45 c 1.331331,0 2.63423,-0.132443 3.900391,-0.375 -0.01854,0.0021 -0.03613,0.0057 -0.05469,0.0078 0,10e-7 0.598195,-0.298894 0.822266,-0.597656 4.47554,-5.241094 4.569979,-10.898557 3.611328,-16.46289 -1.371716,3.203576 -4.529425,5.408203 -8.279297,5.408203 -5.038443,0 -8.947266,-3.975259 -8.947266,-9.013672 0,-5.038413 3.908823,-8.947266 8.947266,-8.947266 2.407469,0 4.565463,0.899102 6.169922,2.38086 C 29.478119,13.067086 29.708645,8.8983469 32.746094,4.9609375 30.064256,3.7155385 27.094704,3 23.966797,3 Z M 36.78125,7.4160156 c 0.327284,3.8373224 2.116063,7.6354104 3.580078,11.2246094 1.838491,4.464904 3.776002,8.634493 3.160156,13.001953 C 44.471484,29.258123 45,26.66886 45,23.966797 45,17.254647 41.75603,11.262038 36.78125,7.4160156 Z"
       transform="matrix(0.33354548,0,0,0.33354548,432.9951,-252.0051)"
       id="path39797"
       inkscape:connector-curvature="0" />
    <path
       d="m 441.00524,-245.9942 c -1.09865,0 -2.01317,0.89789 -2.01317,1.99654 0,1.09864 0.91453,1.99653 2.01317,1.99653 1.09865,0 1.99654,-0.89789 1.99654,-1.99653 0,-1.09865 -0.89789,-1.99654 -1.99654,-1.99654 z"
       id="path40342"
       style="color:#bebebe;font-style:normal;font-variant:normal;font-weight:normal;font-stretch:normal;font-size:medium;line-height:normal;font-family:Sans;-inkscape-font-specification:Sans;text-indent:0;text-align:start;text-decoration:none;text-decoration-line:none;letter-spacing:normal;word-spacing:normal;text-transform:none;direction:ltr;block-progression:tb;writing-mode:lr-tb;baseline-shift:baseline;text-anchor:start;display:inline;overflow:visible;visibility:visible;fill:#353945;fill-opacity:1;stroke:none;stroke-width:1.87825239;marker:none;enable-background:accumulate"
       inkscape:connector-curvature="0" />
  </g>
  <g
     id="layer13"
     style="display:inline"
     transform="matrix(0.99936396,0,0,0.99936396,-432.7197,251.84481)" />
  <g
     id="layer14"
     transform="matrix(0.99936396,0,0,0.99936396,-432.7197,251.84481)" />
  <g
     id="layer15"
     style="display:inline"
     transform="matrix(0.99936396,0,0,0.99936396,-432.7197,251.84481)" />
  <g
     id="g71291"
     style="display:inline"
     transform="matrix(0.99936396,0,0,0.99936396,-432.7197,251.84481)" />
  <g
     id="layer12"
     style="display:inline"
     transform="matrix(0.99936396,0,0,0.99936396,-432.7197,251.84481)" />
  <path
     inkscape:connector-curvature="0"
     class="st0"
     d="m 13.056542,6.2581533 c -0.619205,-1.852609 -1.458127,-3.87585 -0.619205,-5.85034098 -0.45941,0.243765 -0.783633,0.70464898 -1.18312,1.26530598 -1.3382809,1.901361 -0.843555,3.840023 -0.424095,6.009524 0.439436,2.2670074 1.103736,4.2749437 -0.414315,6.4444457 -0.05992,0.0975 -0.7149549,0.614059 -0.7149549,0.614059 1.4181779,-0.195012 3.0747079,-0.622336 4.0135019,-2.255556 0.446562,-0.773516 0.519117,-1.416929 0.5427,-2.142429 0.04182,-1.2864677 -0.753501,-2.7601597 -1.200512,-4.0850087 z"
     id="path7-8"
     style="fill:#353945;fill-opacity:1;stroke:none;stroke-width:1.39042115;stroke-opacity:1"
     sodipodi:nodetypes="cccccccsc" />
</svg>
