<?xml version="1.0" encoding="UTF-8" standalone="no"?>
<!-- Generator: Adobe Illustrator 16.0.0, SVG Export Plug-In . SVG Version: 6.00 Build 0)  -->

<svg
   xmlns:dc="http://purl.org/dc/elements/1.1/"
   xmlns:cc="http://creativecommons.org/ns#"
   xmlns:rdf="http://www.w3.org/1999/02/22-rdf-syntax-ns#"
   xmlns:svg="http://www.w3.org/2000/svg"
   xmlns="http://www.w3.org/2000/svg"
   xmlns:sodipodi="http://sodipodi.sourceforge.net/DTD/sodipodi-0.dtd"
   xmlns:inkscape="http://www.inkscape.org/namespaces/inkscape"
   version="1.1"
   id="Capa_1"
   x="0px"
   y="0px"
   width="16"
   height="16"
   viewBox="0 0 16 16.000001"
   xml:space="preserve"
   inkscape:version="0.91 r"
   sodipodi:docname="zoom-double-size.svg"><metadata
     id="metadata45"><rdf:RDF><cc:Work
         rdf:about=""><dc:format>image/svg+xml</dc:format><dc:type
           rdf:resource="http://purl.org/dc/dcmitype/StillImage" /><dc:title></dc:title></cc:Work></rdf:RDF></metadata><defs
     id="defs43" /><sodipodi:namedview
     pagecolor="#ffffff"
     bordercolor="#666666"
     borderopacity="1"
     objecttolerance="10"
     gridtolerance="10"
     guidetolerance="10"
     inkscape:pageopacity="0"
     inkscape:pageshadow="2"
     inkscape:window-width="1444"
     inkscape:window-height="894"
     id="namedview41"
     showgrid="true"
     inkscape:zoom="47.875"
     inkscape:cx="-1.0016593"
     inkscape:cy="8"
     inkscape:window-x="167"
     inkscape:window-y="63"
     inkscape:window-maximized="0"
     inkscape:current-layer="g5"><inkscape:grid
       type="xygrid"
       id="grid4716" /></sodipodi:namedview><g
     id="g3"
     transform="matrix(0.0306055,0,0,0.0306055,1.0810601e-4,0.00204845)"><g
       id="g5"
       style="fill:#3b3b3b;fill-opacity:1"><path
         d="m 512.703,455.395 -75.353,-75.2 c -7.191,-7.19 -16.983,-10.557 -26.469,-10.098 L 374.619,333.836 C 436.354,252.211 430.082,135.471 355.723,61.037 274.405,-20.282 142.443,-20.282 61.124,61.19 c -81.473,81.472 -81.473,213.282 -0.153,294.601 74.435,74.435 191.174,80.631 272.799,18.896 l 36.261,36.262 c -0.459,9.485 2.907,19.277 10.098,26.469 l 75.2,75.199 c 13.464,13.464 35.419,13.464 48.883,0 l 8.339,-8.339 c 13.616,-13.464 13.616,-35.266 0.152,-48.883 z M 310.666,310.733 c -56.457,56.457 -148.18,56.61 -204.637,0.153 -56.457,-56.457 -56.457,-148.027 0.153,-204.638 56.457,-56.457 148.181,-56.61 204.638,-0.153 56.457,56.457 56.227,148.028 -0.154,204.638 z"
         id="path7"
         inkscape:connector-curvature="0"
         style="fill:#353945;fill-opacity:1;stroke:none;stroke-opacity:1" /><path
         style="fill:none;fill-rule:evenodd;stroke:#353945;stroke-width:32.67387009;stroke-linecap:round;stroke-linejoin:round;stroke-miterlimit:4;stroke-dasharray:none;stroke-opacity:1"
         d="m 244.98664,120.82638 0,163.36936 0,-163.36936 z m -97.95779,49.71278 0,64.64577 0,-64.64577 z"
         id="path4734"
         inkscape:connector-curvature="0" /></g></g><g
     id="g11"
     transform="matrix(0.0306055,0,0,0.0306055,1.0810601e-4,0.00204845)" /><g
     id="g13"
     transform="matrix(0.0306055,0,0,0.0306055,1.0810601e-4,0.00204845)" /><g
     id="g15"
     transform="matrix(0.0306055,0,0,0.0306055,1.0810601e-4,0.00204845)" /><g
     id="g17"
     transform="matrix(0.0306055,0,0,0.0306055,1.0810601e-4,0.00204845)" /><g
     id="g19"
     transform="matrix(0.0306055,0,0,0.0306055,1.0810601e-4,0.00204845)" /><g
     id="g21"
     transform="matrix(0.0306055,0,0,0.0306055,1.0810601e-4,0.00204845)" /><g
     id="g23"
     transform="matrix(0.0306055,0,0,0.0306055,1.0810601e-4,0.00204845)" /><g
     id="g25"
     transform="matrix(0.0306055,0,0,0.0306055,1.0810601e-4,0.00204845)" /><g
     id="g27"
     transform="matrix(0.0306055,0,0,0.0306055,1.0810601e-4,0.00204845)" /><g
     id="g29"
     transform="matrix(0.0306055,0,0,0.0306055,1.0810601e-4,0.00204845)" /><g
     id="g31"
     transform="matrix(0.0306055,0,0,0.0306055,1.0810601e-4,0.00204845)" /><g
     id="g33"
     transform="matrix(0.0306055,0,0,0.0306055,1.0810601e-4,0.00204845)" /><g
     id="g35"
     transform="matrix(0.0306055,0,0,0.0306055,1.0810601e-4,0.00204845)" /><g
     id="g37"
     transform="matrix(0.0306055,0,0,0.0306055,1.0810601e-4,0.00204845)" /><g
     id="g39"
     transform="matrix(0.0306055,0,0,0.0306055,1.0810601e-4,0.00204845)" /></svg>