<?xml version="1.0" encoding="UTF-8" standalone="no"?>
<!-- Created with Inkscape (http://www.inkscape.org/) -->

<svg
   xmlns:dc="http://purl.org/dc/elements/1.1/"
   xmlns:cc="http://creativecommons.org/ns#"
   xmlns:rdf="http://www.w3.org/1999/02/22-rdf-syntax-ns#"
   xmlns:svg="http://www.w3.org/2000/svg"
   xmlns="http://www.w3.org/2000/svg"
   xmlns:xlink="http://www.w3.org/1999/xlink"
   version="1.1"
   width="24"
   height="24"
   id="svg3828">
  <defs
     id="defs3830">
    <linearGradient
       id="linearGradient3958">
      <stop
         id="stop3960"
         style="stop-color:#e8efff;stop-opacity:1"
         offset="0" />
      <stop
         id="stop3963"
         style="stop-color:#1166c9;stop-opacity:1"
         offset="1" />
    </linearGradient>
    <linearGradient
       id="linearGradient3916">
      <stop
         id="stop3918"
         style="stop-color:#232323;stop-opacity:1"
         offset="0" />
      <stop
         id="stop3926"
         style="stop-color:#535353;stop-opacity:1"
         offset="0.80000001" />
      <stop
         id="stop3924"
         style="stop-color:#676767;stop-opacity:1"
         offset="0.80000001" />
      <stop
         id="stop3920"
         style="stop-color:#676767;stop-opacity:1"
         offset="1" />
    </linearGradient>
    <linearGradient
       id="linearGradient3801">
      <stop
         id="stop3803"
         style="stop-color:#ffffff;stop-opacity:1"
         offset="0" />
      <stop
         id="stop3805"
         style="stop-color:#ffffff;stop-opacity:0"
         offset="1" />
    </linearGradient>
    <linearGradient
       id="linearGradient3977">
      <stop
         id="stop3979"
         style="stop-color:#ffffff;stop-opacity:1"
         offset="0" />
      <stop
         id="stop3981"
         style="stop-color:#ffffff;stop-opacity:0.23529412"
         offset="0.03626217" />
      <stop
         id="stop3983"
         style="stop-color:#ffffff;stop-opacity:0.15686275"
         offset="0.95056331" />
      <stop
         id="stop3985"
         style="stop-color:#ffffff;stop-opacity:0.39215687"
         offset="1" />
    </linearGradient>
    <linearGradient
       id="linearGradient3600-4">
      <stop
         id="stop3602-7"
         style="stop-color:#f4f4f4;stop-opacity:1"
         offset="0" />
      <stop
         id="stop3604-6"
         style="stop-color:#dbdbdb;stop-opacity:1"
         offset="1" />
    </linearGradient>
    <linearGradient
       x1="23.99999"
       y1="5.5641499"
       x2="23.99999"
       y2="43"
       id="linearGradient3000"
       xlink:href="#linearGradient3977"
       gradientUnits="userSpaceOnUse"
       gradientTransform="matrix(0.40540511,0,0,0.51351253,1.2696879,-1.32431)" />
    <linearGradient
       x1="25.132275"
       y1="0.98520643"
       x2="25.132275"
       y2="47.013336"
       id="linearGradient3003"
       xlink:href="#linearGradient3988-5"
       gradientUnits="userSpaceOnUse"
       gradientTransform="matrix(0.48571543,0,0,-0.45629579,-0.6571703,22.651132)" />
    <linearGradient
       x1="144.00006"
       y1="280.00018"
       x2="144.00006"
       y2="40.000172"
       id="linearGradient3158"
       xlink:href="#linearGradient3988-5"
       gradientUnits="userSpaceOnUse"
       gradientTransform="matrix(0.175,0,0,0.175,-1.20002,-6.0000326)" />
    <linearGradient
       id="linearGradient3988-5">
      <stop
         id="stop3990-5"
         style="stop-color:#ededed;stop-opacity:1"
         offset="0" />
      <stop
         id="stop3992-0"
         style="stop-color:#fafafa;stop-opacity:1"
         offset="1" />
    </linearGradient>
    <linearGradient
       x1="10"
       y1="0"
       x2="10"
       y2="22"
       id="linearGradient3807"
       xlink:href="#linearGradient3801"
       gradientUnits="userSpaceOnUse" />
    <radialGradient
       cx="311.46875"
       cy="828.53125"
       r="3.28125"
       fx="311.46875"
       fy="828.53125"
       id="radialGradient3981"
       xlink:href="#linearGradient6557"
       gradientUnits="userSpaceOnUse" />
    <linearGradient
       id="linearGradient6557">
      <stop
         id="stop6559"
         style="stop-color:#fce94f;stop-opacity:1"
         offset="0" />
      <stop
         id="stop6565"
         style="stop-color:#fce94f;stop-opacity:1"
         offset="0.67301035" />
      <stop
         id="stop6561"
         style="stop-color:#fce94f;stop-opacity:0"
         offset="1" />
    </linearGradient>
    <linearGradient
       id="linearGradient6620">
      <stop
         id="stop6622"
         style="stop-color:#ffffff;stop-opacity:1"
         offset="0" />
      <stop
         id="stop6624"
         style="stop-color:#ffffff;stop-opacity:1"
         offset="0.32992947" />
      <stop
         id="stop6626"
         style="stop-color:#fce94f;stop-opacity:1"
         offset="1" />
    </linearGradient>
    <linearGradient
       id="linearGradient3952">
      <stop
         id="stop3954"
         style="stop-color:#000000;stop-opacity:1"
         offset="0" />
      <stop
         id="stop3956"
         style="stop-color:#000000;stop-opacity:0"
         offset="1" />
    </linearGradient>
    <linearGradient
       id="linearGradient3944">
      <stop
         id="stop3946"
         style="stop-color:#000000;stop-opacity:1"
         offset="0" />
      <stop
         id="stop3948"
         style="stop-color:#000000;stop-opacity:0"
         offset="1" />
    </linearGradient>
    <linearGradient
       x1="25"
       y1="45"
       x2="25"
       y2="42"
       id="linearGradient3051"
       xlink:href="#linearGradient3960"
       gradientUnits="userSpaceOnUse"
       gradientTransform="matrix(1.1428571,0,0,1,-11.857143,2)" />
    <linearGradient
       id="linearGradient3960">
      <stop
         id="stop3962"
         style="stop-color:#000000;stop-opacity:0"
         offset="0" />
      <stop
         id="stop3970"
         style="stop-color:#000000;stop-opacity:1"
         offset="0.5" />
      <stop
         id="stop3964"
         style="stop-color:#000000;stop-opacity:0"
         offset="1" />
    </linearGradient>
    <linearGradient
       x1="25"
       y1="45"
       x2="25"
       y2="42"
       id="linearGradient3320"
       xlink:href="#linearGradient3960"
       gradientUnits="userSpaceOnUse"
       gradientTransform="translate(-9,-23)" />
    <radialGradient
       cx="9"
       cy="43.5"
       r="2"
       fx="9"
       fy="43.5"
       id="radialGradient3323"
       xlink:href="#linearGradient3944"
       gradientUnits="userSpaceOnUse"
       gradientTransform="matrix(1,0,0,0.75,-5,-12.125)" />
    <radialGradient
       cx="40"
       cy="43.5"
       r="2"
       fx="40"
       fy="43.5"
       id="radialGradient3326"
       xlink:href="#linearGradient3952"
       gradientUnits="userSpaceOnUse"
       gradientTransform="matrix(1,0,0,0.75,-22,-12.125)" />
    <linearGradient
       x1="25"
       y1="45"
       x2="25"
       y2="42"
       id="linearGradient4262"
       xlink:href="#linearGradient3960"
       gradientUnits="userSpaceOnUse"
       gradientTransform="translate(-9,-23)" />
    <radialGradient
       cx="9"
       cy="43.5"
       r="2"
       fx="9"
       fy="43.5"
       id="radialGradient4265"
       xlink:href="#linearGradient3944"
       gradientUnits="userSpaceOnUse"
       gradientTransform="matrix(1,0,0,0.75,-3,-12.125)" />
    <radialGradient
       cx="40"
       cy="43.5"
       r="2"
       fx="40"
       fy="43.5"
       id="radialGradient4268"
       xlink:href="#linearGradient3952"
       gradientUnits="userSpaceOnUse"
       gradientTransform="matrix(1,0,0,0.75,-22,-12.125)" />
    <radialGradient
       cx="40"
       cy="43.5"
       r="2"
       fx="40"
       fy="43.5"
       id="radialGradient4295"
       xlink:href="#linearGradient3952"
       gradientUnits="userSpaceOnUse"
       gradientTransform="matrix(1,0,0,0.75,-22,-12.125)" />
    <radialGradient
       cx="9"
       cy="43.5"
       r="2"
       fx="9"
       fy="43.5"
       id="radialGradient4297"
       xlink:href="#linearGradient3944"
       gradientUnits="userSpaceOnUse"
       gradientTransform="matrix(1,0,0,0.75,-3,-12.125)" />
    <linearGradient
       x1="25"
       y1="45"
       x2="25"
       y2="42"
       id="linearGradient4299"
       xlink:href="#linearGradient3960"
       gradientUnits="userSpaceOnUse"
       gradientTransform="translate(-9,-23)" />
    <linearGradient
       x1="25.132275"
       y1="0.98520643"
       x2="25.132275"
       y2="47.013336"
       id="linearGradient4301"
       xlink:href="#linearGradient3988-5"
       gradientUnits="userSpaceOnUse"
       gradientTransform="matrix(0.48571543,0,0,-0.45629579,-0.6571703,22.651132)" />
    <linearGradient
       x1="10"
       y1="0"
       x2="10"
       y2="22"
       id="linearGradient4303"
       xlink:href="#linearGradient3801"
       gradientUnits="userSpaceOnUse" />
    <radialGradient
       cx="40"
       cy="43.5"
       r="2"
       fx="40"
       fy="43.5"
       id="radialGradient4305"
       xlink:href="#linearGradient3952"
       gradientUnits="userSpaceOnUse"
       gradientTransform="matrix(1,0,0,0.75,-22,-12.125)" />
    <radialGradient
       cx="9"
       cy="43.5"
       r="2"
       fx="9"
       fy="43.5"
       id="radialGradient4307"
       xlink:href="#linearGradient3944"
       gradientUnits="userSpaceOnUse"
       gradientTransform="matrix(1,0,0,0.75,-3,-12.125)" />
    <linearGradient
       x1="25"
       y1="45"
       x2="25"
       y2="42"
       id="linearGradient4309"
       xlink:href="#linearGradient3960"
       gradientUnits="userSpaceOnUse"
       gradientTransform="translate(-9,-23)" />
    <linearGradient
       x1="25.132275"
       y1="0.98520643"
       x2="25.132275"
       y2="47.013336"
       id="linearGradient4311"
       xlink:href="#linearGradient3988-5"
       gradientUnits="userSpaceOnUse"
       gradientTransform="matrix(0.48571543,0,0,-0.45629579,-0.6571703,22.651132)" />
    <linearGradient
       x1="10"
       y1="0"
       x2="10"
       y2="22"
       id="linearGradient4313"
       xlink:href="#linearGradient3801"
       gradientUnits="userSpaceOnUse" />
    <linearGradient
       x1="10"
       y1="0"
       x2="10"
       y2="22"
       id="linearGradient4333"
       xlink:href="#linearGradient3801"
       gradientUnits="userSpaceOnUse"
       gradientTransform="translate(-3,-2)" />
    <linearGradient
       x1="25.132275"
       y1="0.98520643"
       x2="25.132275"
       y2="47.013336"
       id="linearGradient4338"
       xlink:href="#linearGradient3988-5"
       gradientUnits="userSpaceOnUse"
       gradientTransform="matrix(0.48571543,0,0,-0.45629579,-3.6571703,20.651132)" />
    <linearGradient
       x1="25"
       y1="45"
       x2="25"
       y2="42"
       id="linearGradient4341"
       xlink:href="#linearGradient3960"
       gradientUnits="userSpaceOnUse"
       gradientTransform="translate(-12,-25)" />
    <radialGradient
       cx="9"
       cy="43.5"
       r="2"
       fx="9"
       fy="43.5"
       id="radialGradient4344"
       xlink:href="#linearGradient3944"
       gradientUnits="userSpaceOnUse"
       gradientTransform="matrix(1,0,0,0.75,-6,-14.125)" />
    <radialGradient
       cx="40"
       cy="43.5"
       r="2"
       fx="40"
       fy="43.5"
       id="radialGradient4347"
       xlink:href="#linearGradient3952"
       gradientUnits="userSpaceOnUse"
       gradientTransform="matrix(1,0,0,0.75,-25,-14.125)" />
    <linearGradient
       x1="10"
       y1="0"
       x2="10"
       y2="22"
       id="linearGradient3129"
       xlink:href="#linearGradient3801"
       gradientUnits="userSpaceOnUse"
       gradientTransform="translate(0,-5)" />
    <linearGradient
       x1="25.132275"
       y1="0.98520643"
       x2="25.132275"
       y2="47.013336"
       id="linearGradient3134"
       xlink:href="#linearGradient3988-5"
       gradientUnits="userSpaceOnUse"
       gradientTransform="matrix(0.48571543,0,0,-0.25856743,-0.6571703,10.218952)" />
    <linearGradient
       x1="11"
       y1="19"
       x2="11"
       y2="9"
       id="linearGradient3922"
       xlink:href="#linearGradient3916"
       gradientUnits="userSpaceOnUse"
       gradientTransform="translate(1,-1)" />
    <linearGradient
       x1="25.132275"
       y1="0.98520643"
       x2="25.132275"
       y2="47.013336"
       id="linearGradient4032"
       xlink:href="#linearGradient3988-5"
       gradientUnits="userSpaceOnUse"
       gradientTransform="matrix(0.48571543,0,0,-0.25856743,-0.6571312,24.718969)" />
    <linearGradient
       x1="-172.64999"
       y1="99.667"
       x2="-166.64"
       y2="93.653999"
       id="linearGradient3319"
       gradientUnits="userSpaceOnUse"
       gradientTransform="matrix(0.13658,0,0,0.14121,20.892,-0.93862)">
      <stop
         id="stop11116"
         style="stop-color:#242424;stop-opacity:0.99216002"
         offset="0" />
      <stop
         id="stop11118"
         style="stop-color:#656565;stop-opacity:1"
         offset="1" />
    </linearGradient>
    <radialGradient
       cx="18.240999"
       cy="21.818001"
       r="8.3085003"
       id="radialGradient3321"
       gradientUnits="userSpaceOnUse">
      <stop
         id="stop4456"
         style="stop-color:#a1a1a1;stop-opacity:0.20784"
         offset="0" />
      <stop
         id="stop4458"
         style="stop-color:#a1a1a1;stop-opacity:0.67843002"
         offset="1" />
    </radialGradient>
    <radialGradient
       cx="15.414"
       cy="13.078"
       r="6.6561999"
       id="radialGradient3323-5"
       gradientUnits="userSpaceOnUse"
       gradientTransform="matrix(1.0388,0,0,0.83463,-25.313,-6.7608)">
      <stop
         id="stop4469"
         style="stop-color:#ffffff;stop-opacity:1"
         offset="0" />
      <stop
         id="stop4471"
         style="stop-color:#ffffff;stop-opacity:0.24762"
         offset="1" />
    </radialGradient>
    <linearGradient
       x1="173.10001"
       y1="75.319"
       x2="173.10001"
       y2="11.949"
       id="linearGradient3325"
       gradientUnits="userSpaceOnUse"
       gradientTransform="matrix(0.13658,0,0,0.14121,-31.68,0.66153)">
      <stop
         id="stop2302"
         style="stop-color:#343435;stop-opacity:0.97646999"
         offset="0" />
      <stop
         id="stop2304"
         style="stop-color:#919295;stop-opacity:1"
         offset="1" />
    </linearGradient>
    <linearGradient
       x1="41.542"
       y1="68.292"
       x2="41.485001"
       y2="4.5363002"
       id="linearGradient3327"
       gradientUnits="userSpaceOnUse"
       gradientTransform="matrix(0.13658,0,0,0.14121,-13.965,1.7243)">
      <stop
         id="stop11106"
         style="stop-color:#333333;stop-opacity:1"
         offset="0" />
      <stop
         id="stop11108"
         style="stop-color:#333333;stop-opacity:0.61224002"
         offset="1" />
    </linearGradient>
    <linearGradient
       x1="173.10001"
       y1="75.319"
       x2="173.10001"
       y2="11.949"
       id="linearGradient8886"
       xlink:href="#linearGradient3325"
       gradientUnits="userSpaceOnUse"
       gradientTransform="matrix(0.13658,0,0,0.14121,-31.68,0.66153)" />
    <linearGradient
       x1="41.542"
       y1="68.292"
       x2="41.485001"
       y2="4.5363002"
       id="linearGradient8888"
       xlink:href="#linearGradient3327"
       gradientUnits="userSpaceOnUse"
       gradientTransform="matrix(0.13658,0,0,0.14121,-13.965,1.7243)" />
  </defs>
  <metadata
     id="metadata3833">
    <rdf:RDF>
      <cc:Work
         rdf:about="">
        <dc:format>image/svg+xml</dc:format>
        <dc:type
           rdf:resource="http://purl.org/dc/dcmitype/StillImage" />
        <dc:title></dc:title>
      </cc:Work>
    </rdf:RDF>
  </metadata>
  <g
     transform="translate(0,2)"
     id="layer1"
     style="display:inline">
    <path
       d="m 6,1 0,1 c 4.157995,7.52e-5 11.292656,-7.52e-5 12,0 l 0,-1 c -0.707344,-7.52e-5 -7.842005,7.52e-5 -12,0 z"
       id="path4291"
       style="opacity:0.4;fill:#ffffff;fill-opacity:1;stroke:none;display:inline" />
    <path
       d="M 6,1 6,15 18,15 18,1 z M 7,2 17,2 17,14 7,14 z"
       id="path4293"
       style="opacity:0.4;fill:url(#linearGradient3129);fill-opacity:1" />
    <path
       d="m 4.78125,7.5 -0.125,0.15625 -2,2 L 2.5,9.78125 2.5,10 l 0,7 0,0.5 0.5,0 18,0 0.5,0 0,-0.5 0,-7 0,-0.21875 -0.15625,-0.125 -2,-2 L 19.21875,7.5 19,7.5 5,7.5 z"
       id="rect3145"
       style="fill:url(#linearGradient3922);fill-opacity:1;stroke:none" />
    <path
       d="m 4.78125,7.5 -0.125,0.15625 -2,2 L 2.5,9.78125 2.5,10 l 0,7 0,0.5 0.5,0 18,0 0.5,0 0,-0.5 0,-7 0,-0.21875 -0.15625,-0.125 -2,-2 L 19.21875,7.5 19,7.5 5,7.5 z"
       id="path3935"
       style="opacity:0.70999995;fill:none;stroke:#000000;stroke-opacity:1" />
    <path
       d="M 5.4999609,9 C 9.3955418,9 18.50002,8.9992064 18.50002,8.9992064 l 2.1e-5,-8.4992434 c 0,0 -7.333386,0 -13.0000801,0 0,3.9666667 0,4.5333346 0,8.5000021 z"
       id="path4287"
       style="fill:url(#linearGradient3134);fill-opacity:1;stroke:none;display:inline" />
    <rect
       width="18"
       height="1"
       x="3"
       y="10"
       id="rect3937"
       style="opacity:0.2;fill:#ffffff;fill-opacity:1;stroke:none" />
    <path
       d="M 5.34375,0 A 0.50001093,0.50001093 0 0 0 5,0.5 L 5,7 6,7 6,1 c 3.9461392,9.56e-5 11.37307,-9.56e-5 12,0 l 0,6 1,0 0,-6.5 A 0.50001093,0.50001093 0 0 0 18.5,0 L 5.5,0 A 0.50001093,0.50001093 0 0 0 5.40625,0 0.50001093,0.50001093 0 0 0 5.34375,0 z"
       id="path4289"
       style="font-size:medium;font-style:normal;font-variant:normal;font-weight:normal;font-stretch:normal;text-indent:0;text-align:start;text-decoration:none;line-height:normal;letter-spacing:normal;word-spacing:normal;text-transform:none;direction:ltr;block-progression:tb;writing-mode:lr-tb;text-anchor:start;baseline-shift:baseline;opacity:0.41000001;color:#000000;fill:#000000;fill-opacity:1;stroke:none;stroke-width:0.99992186;marker:none;visibility:visible;display:inline;overflow:visible;enable-background:accumulate;font-family:Sans;-inkscape-font-specification:Sans" />
    <rect
       width="13"
       height="1"
       x="5.5"
       y="9"
       id="rect3948"
       style="opacity:0.4;fill:#000000;fill-opacity:1;stroke:none" />
    <rect
       width="14"
       height="1"
       x="5"
       y="-16"
       transform="scale(1,-1)"
       id="rect3950"
       style="fill:#505050;fill-opacity:1;stroke:none" />
    <rect
       width="12"
       height="1"
       x="6"
       y="14"
       id="rect3952"
       style="opacity:0.2;fill:#000000;fill-opacity:1;stroke:none" />
    <rect
       width="14"
       height="1"
       x="5"
       y="16"
       id="rect3954"
       style="opacity:0.4;fill:#000000;fill-opacity:1;stroke:none" />
    <path
       d="m 19,19.5 -0.49992,-4.50002 c 0,0 -7.333386,0 -13.00008,0 L 5,19.5 z"
       id="path4030"
       style="fill:url(#linearGradient4032);fill-opacity:1;stroke:none;display:inline" />
    <path
       d="m 5,14.875 -0.5,4.5 C 4.4225572,19.67445 4.6908541,20.009821 5,20 l 14,0 c 0.309146,0.0098 0.577443,-0.32555 0.5,-0.625 l -0.5,-4.5 0,0.125 -0.90625,0 0,0.5 0,0 0.25,3.5 -0.25,0 0,0.03125 L 7,19.03125 7,19 l -1.34375,0 0.25,-3.5 0,0 0,-0.5 L 5,15 z"
       id="path4034"
       style="font-size:medium;font-style:normal;font-variant:normal;font-weight:normal;font-stretch:normal;text-indent:0;text-align:start;text-decoration:none;line-height:normal;letter-spacing:normal;word-spacing:normal;text-transform:none;direction:ltr;block-progression:tb;writing-mode:lr-tb;text-anchor:start;baseline-shift:baseline;opacity:0.61000001;color:#000000;fill:#000000;fill-opacity:1;stroke:none;stroke-width:1;marker:none;visibility:visible;display:inline;overflow:visible;enable-background:accumulate;font-family:Sans;-inkscape-font-specification:Sans" />
    <rect
       width="9"
       height="1"
       x="7"
       y="16"
       id="rect4046"
       style="opacity:0.2;fill:#000000;fill-opacity:1;stroke:none" />
    <g
       transform="translate(15.462005,-3.8682836)"
       id="g3312">
      <path
         d="m -4.5023,9.5722 6.1066,5.8768 -0.84642,1.187 -6.0846,-6.356 0.8244,-0.7078 z"
         id="path11112"
         style="fill:url(#linearGradient3319);fill-rule:evenodd;stroke:#333333;stroke-width:0.77201003;stroke-linecap:round;stroke-linejoin:round" />
      <path
         d="m 248.35,110.29 a 5.3125,2.65625 0 1 1 -10.625,0 5.3125,2.65625 0 1 1 10.625,0 z"
         transform="matrix(0.1354,-0.15647,0.15133,0.14,-48.386,38.654)"
         id="path13082"
         style="fill:#3e3e3e" />
      <path
         d="m 25.898,18.478 a 8.3085,8.3085 0 1 1 -16.617,0 8.3085,8.3085 0 1 1 16.617,0 z"
         transform="matrix(0.50364,0,0,0.50807,-16.686,-2.7544)"
         id="path4452"
         style="fill:url(#radialGradient3321);fill-rule:evenodd" />
      <path
         d="m -8,3 c -2.0862,0 -3.7756,1.5628 -3.7756,3.4927 0,0.55737 0.16838,1.0702 0.41951,1.538 0.50172,0.17107 1.0347,0.28747 1.6003,0.28747 2.4722,0 4.4465,-1.8017 4.5991,-4.0533 -0.6934,-0.7581 -1.6866,-1.2649 -2.8433,-1.2649 z"
         id="path4462"
         style="opacity:0.83422002;fill:url(#radialGradient3323-5);fill-rule:evenodd" />
      <path
         d="m -7.9196,2.4186 c -2.5699,0 -4.6564,1.9893 -4.6564,4.4393 0,2.4501 2.0865,4.4393 4.6564,4.4393 2.5699,0 4.6564,-1.9893 4.6564,-4.4393 0,-2.4501 -2.0865,-4.4393 -4.6564,-4.4393 z m 0.05548,0.29125 c 2.3001,0 4.1698,1.7788 4.1698,3.9716 0,2.1928 -1.8698,3.9716 -4.1698,3.9716 -2.3001,0 -4.1656,-1.7788 -4.1656,-3.9716 0,-2.1928 1.8655,-3.9716 4.1656,-3.9716 z"
         id="path2298"
         style="fill:url(#linearGradient8886);stroke:url(#linearGradient8888);stroke-width:0.77201003;stroke-linecap:round;stroke-linejoin:round" />
    </g>
  </g>
  <g
     transform="translate(0,2)"
     id="layer2" />
</svg>
