<?xml version="1.0" encoding="UTF-8" standalone="no"?>
<!-- Created with Inkscape (http://www.inkscape.org/) -->

<svg
   xmlns:dc="http://purl.org/dc/elements/1.1/"
   xmlns:cc="http://creativecommons.org/ns#"
   xmlns:rdf="http://www.w3.org/1999/02/22-rdf-syntax-ns#"
   xmlns:svg="http://www.w3.org/2000/svg"
   xmlns="http://www.w3.org/2000/svg"
   xmlns:xlink="http://www.w3.org/1999/xlink"
   xmlns:sodipodi="http://sodipodi.sourceforge.net/DTD/sodipodi-0.dtd"
   xmlns:inkscape="http://www.inkscape.org/namespaces/inkscape"
   id="svg2890"
   height="24"
   width="24"
   version="1.0"
   inkscape:version="0.48.3.1 r9886"
   sodipodi:docname="gnome-dev-cdwriter.svg">
  <metadata
     id="metadata63">
    <rdf:RDF>
      <cc:Work
         rdf:about="">
        <dc:format>image/svg+xml</dc:format>
        <dc:type
           rdf:resource="http://purl.org/dc/dcmitype/StillImage" />
        <dc:title></dc:title>
      </cc:Work>
    </rdf:RDF>
  </metadata>
  <sodipodi:namedview
     pagecolor="#ffffff"
     bordercolor="#666666"
     borderopacity="1"
     objecttolerance="10"
     gridtolerance="10"
     guidetolerance="10"
     inkscape:pageopacity="0"
     inkscape:pageshadow="2"
     inkscape:window-width="1028"
     inkscape:window-height="663"
     id="namedview61"
     showgrid="false"
     inkscape:zoom="9.8333333"
     inkscape:cx="12"
     inkscape:cy="12"
     inkscape:window-x="65"
     inkscape:window-y="24"
     inkscape:window-maximized="0"
     inkscape:current-layer="svg2890" />
  <defs
     id="defs2892">
    <radialGradient
       id="radialGradient2888"
       gradientUnits="userSpaceOnUse"
       cy="41.636"
       cx="23.335"
       gradientTransform="matrix(.48614 0 0 .15467 .65625 13.06)"
       r="22.627">
      <stop
         id="stop23421"
         offset="0" />
      <stop
         id="stop23423"
         style="stop-opacity:0"
         offset="1" />
    </radialGradient>
    <linearGradient
       id="linearGradient2885"
       y2="45.033"
       gradientUnits="userSpaceOnUse"
       x2="-21.916"
       gradientTransform="matrix(.51220 0 0 .51220 25.453 -.29268)"
       y1="3"
       x1="-21.916">
      <stop
         id="stop3774"
         style="stop-color:#b4b4b4"
         offset="0" />
      <stop
         id="stop3776"
         style="stop-color:#969696"
         offset="1" />
    </linearGradient>
    <linearGradient
       id="linearGradient2883"
       y2="14.203"
       gradientUnits="userSpaceOnUse"
       x2="35.391"
       gradientTransform="matrix(0 .60001 -.60001 0 25.86 -2.4001)"
       y1="32.416"
       x1="12.274">
      <stop
         id="stop3265"
         style="stop-color:#dedbde"
         offset="0" />
      <stop
         id="stop3267"
         style="stop-color:#e6e6e6"
         offset=".5" />
      <stop
         id="stop3269"
         style="stop-color:#d2d2d2"
         offset="1" />
    </linearGradient>
    <linearGradient
       id="linearGradient2879"
       y2="32.509"
       gradientUnits="userSpaceOnUse"
       x2="21.448"
       gradientTransform="matrix(.43750 0 0 .43750 1.5 1.5)"
       y1="15.5"
       x1="21.448">
      <stop
         id="stop3430"
         style="stop-color:#aaa"
         offset="0" />
      <stop
         id="stop3432"
         style="stop-color:#d4d4d4"
         offset="1" />
    </linearGradient>
    <linearGradient
       id="linearGradient2876"
       y2="45.962"
       xlink:href="#linearGradient6036"
       gradientUnits="userSpaceOnUse"
       x2="18.203"
       gradientTransform="matrix(.22730 0 0 .22730 6.4659 6.3175)"
       y1="4.0378"
       x1="18.776" />
    <linearGradient
       id="linearGradient2488"
       y2="20.613"
       xlink:href="#linearGradient3519"
       spreadMethod="reflect"
       gradientUnits="userSpaceOnUse"
       x2="9.7298"
       y1="17.886"
       x1="10.609" />
    <linearGradient
       id="linearGradient2486"
       y2="13.462"
       xlink:href="#linearGradient3511"
       spreadMethod="reflect"
       gradientUnits="userSpaceOnUse"
       x2="14.609"
       y1="16.188"
       x1="12.372" />
    <linearGradient
       id="linearGradient2484"
       y2="10.732"
       xlink:href="#linearGradient3503"
       spreadMethod="reflect"
       gradientUnits="userSpaceOnUse"
       x2="16.994"
       y1="13.046"
       x1="14.085" />
    <linearGradient
       id="linearGradient2482"
       y2="9.7956"
       xlink:href="#linearGradient3495"
       spreadMethod="reflect"
       gradientUnits="userSpaceOnUse"
       x2="21.047"
       y1="11.2"
       x1="17.495" />
    <linearGradient
       id="linearGradient2480"
       y2="9.8622"
       xlink:href="#linearGradient3487"
       spreadMethod="reflect"
       gradientUnits="userSpaceOnUse"
       x2="24.274"
       y1="10.775"
       x1="20.58" />
    <linearGradient
       id="linearGradient6036">
      <stop
         id="stop6038"
         style="stop-color:#fff"
         offset="0" />
      <stop
         id="stop6040"
         style="stop-color:#fff;stop-opacity:0"
         offset="1" />
    </linearGradient>
    <linearGradient
       id="linearGradient2867"
       y2="54.698"
       xlink:href="#linearGradient6036"
       gradientUnits="userSpaceOnUse"
       x2="48.799"
       gradientTransform="matrix(.48201 0 0 .48201 .26461 -.050137)"
       y1="3.61"
       x1="10.502" />
    <linearGradient
       id="linearGradient3519">
      <stop
         id="stop3521"
         style="stop-color:#fcd9cd"
         offset="0" />
      <stop
         id="stop3523"
         style="stop-color:#fcd9cd;stop-opacity:0"
         offset="1" />
    </linearGradient>
    <linearGradient
       id="linearGradient3511">
      <stop
         id="stop3513"
         style="stop-color:#ebeec7"
         offset="0" />
      <stop
         id="stop3515"
         style="stop-color:#ebeec7;stop-opacity:0"
         offset="1" />
    </linearGradient>
    <linearGradient
       id="linearGradient3503">
      <stop
         id="stop3505"
         style="stop-color:#c4ebdd"
         offset="0" />
      <stop
         id="stop3507"
         style="stop-color:#c4ebdd;stop-opacity:0"
         offset="1" />
    </linearGradient>
    <linearGradient
       id="linearGradient3495">
      <stop
         id="stop3497"
         style="stop-color:#c1cbe4"
         offset="0" />
      <stop
         id="stop3499"
         style="stop-color:#c1cbe4;stop-opacity:0"
         offset="1" />
    </linearGradient>
    <linearGradient
       id="linearGradient3487">
      <stop
         id="stop3489"
         style="stop-color:#e6cde2"
         offset="0" />
      <stop
         id="stop3491"
         style="stop-color:#e6cde2;stop-opacity:0"
         offset="1" />
    </linearGradient>
    <radialGradient
       inkscape:collect="always"
       xlink:href="#radialGradient2888"
       id="radialGradient3078"
       gradientUnits="userSpaceOnUse"
       gradientTransform="matrix(0.48614,0,0,0.15467,0.65625,13.06)"
       cx="23.335"
       cy="41.636"
       r="22.627" />
    <linearGradient
       inkscape:collect="always"
       xlink:href="#linearGradient2883"
       id="linearGradient3080"
       gradientUnits="userSpaceOnUse"
       gradientTransform="matrix(0,0.60001,-0.60001,0,25.86,-2.4001)"
       x1="12.274"
       y1="32.416"
       x2="35.391"
       y2="14.203" />
    <linearGradient
       inkscape:collect="always"
       xlink:href="#linearGradient2885"
       id="linearGradient3082"
       gradientUnits="userSpaceOnUse"
       gradientTransform="matrix(0.5122,0,0,0.5122,25.453,-0.29268)"
       x1="-21.916"
       y1="3"
       x2="-21.916"
       y2="45.033" />
    <linearGradient
       inkscape:collect="always"
       xlink:href="#linearGradient2879"
       id="linearGradient3084"
       gradientUnits="userSpaceOnUse"
       gradientTransform="matrix(0.4375,0,0,0.4375,1.5,1.5)"
       x1="21.448"
       y1="15.5"
       x2="21.448"
       y2="32.509" />
    <linearGradient
       inkscape:collect="always"
       xlink:href="#linearGradient6036"
       id="linearGradient3086"
       gradientUnits="userSpaceOnUse"
       gradientTransform="matrix(0.2273,0,0,0.2273,6.4659,6.3175)"
       x1="18.776"
       y1="4.0378"
       x2="18.203"
       y2="45.962" />
    <linearGradient
       inkscape:collect="always"
       xlink:href="#linearGradient3487"
       id="linearGradient3088"
       gradientUnits="userSpaceOnUse"
       spreadMethod="reflect"
       x1="20.58"
       y1="10.775"
       x2="24.274"
       y2="9.8622" />
    <linearGradient
       inkscape:collect="always"
       xlink:href="#linearGradient3495"
       id="linearGradient3090"
       gradientUnits="userSpaceOnUse"
       spreadMethod="reflect"
       x1="17.495"
       y1="11.2"
       x2="21.047"
       y2="9.7956" />
    <linearGradient
       inkscape:collect="always"
       xlink:href="#linearGradient3503"
       id="linearGradient3092"
       gradientUnits="userSpaceOnUse"
       spreadMethod="reflect"
       x1="14.085"
       y1="13.046"
       x2="16.994"
       y2="10.732" />
    <linearGradient
       inkscape:collect="always"
       xlink:href="#linearGradient3511"
       id="linearGradient3094"
       gradientUnits="userSpaceOnUse"
       spreadMethod="reflect"
       x1="12.372"
       y1="16.188"
       x2="14.609"
       y2="13.462" />
    <linearGradient
       inkscape:collect="always"
       xlink:href="#linearGradient3519"
       id="linearGradient3096"
       gradientUnits="userSpaceOnUse"
       spreadMethod="reflect"
       x1="10.609"
       y1="17.886"
       x2="9.7298"
       y2="20.613" />
    <linearGradient
       inkscape:collect="always"
       xlink:href="#linearGradient6036"
       id="linearGradient3098"
       gradientUnits="userSpaceOnUse"
       gradientTransform="matrix(0.48201,0,0,0.48201,0.26461,-0.050137)"
       x1="10.502"
       y1="3.61"
       x2="48.799"
       y2="54.698" />
    <linearGradient
       inkscape:collect="always"
       xlink:href="#linearGradient3487"
       id="linearGradient3100"
       gradientUnits="userSpaceOnUse"
       spreadMethod="reflect"
       x1="20.58"
       y1="10.775"
       x2="24.274"
       y2="9.8622" />
    <linearGradient
       inkscape:collect="always"
       xlink:href="#linearGradient3495"
       id="linearGradient3102"
       gradientUnits="userSpaceOnUse"
       spreadMethod="reflect"
       x1="17.495"
       y1="11.2"
       x2="21.047"
       y2="9.7956" />
    <linearGradient
       inkscape:collect="always"
       xlink:href="#linearGradient3503"
       id="linearGradient3104"
       gradientUnits="userSpaceOnUse"
       spreadMethod="reflect"
       x1="14.085"
       y1="13.046"
       x2="16.994"
       y2="10.732" />
    <linearGradient
       inkscape:collect="always"
       xlink:href="#linearGradient3511"
       id="linearGradient3106"
       gradientUnits="userSpaceOnUse"
       spreadMethod="reflect"
       x1="12.372"
       y1="16.188"
       x2="14.609"
       y2="13.462" />
    <linearGradient
       inkscape:collect="always"
       xlink:href="#linearGradient3519"
       id="linearGradient3108"
       gradientUnits="userSpaceOnUse"
       spreadMethod="reflect"
       x1="10.609"
       y1="17.886"
       x2="9.7298"
       y2="20.613" />
  </defs>
  <g
     id="layer1">
    <path
       id="path23417"
       style="opacity:.3;fill-rule:evenodd;fill:url(#radialGradient2888)"
       d="m23 19.5c0.001 1.933-4.924 3.5-11 3.5-6.0755 0-11.001-1.567-11-3.5-0.00057-1.933 4.9245-3.5 11-3.5s11.001 1.5671 11 3.5z" />
    <path
       id="path2781"
       style="stroke:url(#linearGradient2885);fill:url(#linearGradient2883)"
       d="m22.5 12c0-5.8201-4.68-10.5-10.5-10.5-5.8201 0-10.5 4.6799-10.5 10.5 0 5.82 4.6799 10.5 10.5 10.5 5.8201-0.000001 10.5-4.6799 10.5-10.5zm-7 0c0 1.9711-1.57 3.5-3.5 3.5-1.9713 0-3.5-1.655-3.5-3.5 0-1.8863 1.4638-3.5 3.5-3.5 2.0775 0 3.5 1.4877 3.5 3.5z" />
    <path
       id="path2474"
       style="opacity:.5;fill:#fff"
       d="m12 8.0851c-2.161 0-3.9149 1.7539-3.9149 3.9149s1.7539 3.9149 3.9149 3.9149 3.9149-1.7539 3.9149-3.9149-1.7539-3.9149-3.9149-3.9149zm0 1.9574c1.0805 0 1.9574 0.87694 1.9574 1.9574s-0.87694 1.9574-1.9574 1.9574-1.9574-0.87694-1.9574-1.9574 0.87694-1.9574 1.9574-1.9574z" />
    <path
       id="path3418"
       style="stroke-linejoin:round;stroke:url(#linearGradient2879);fill:none"
       d="m12 8.5c-1.932 0-3.5 1.568-3.5 3.5s1.568 3.5 3.5 3.5 3.5-1.568 3.5-3.5-1.568-3.5-3.5-3.5zm0 1.75c0.966 0 1.75 0.784 1.75 1.75s-0.784 1.75-1.75 1.75-1.75-0.784-1.75-1.75 0.784-1.75 1.75-1.75z" />
    <path
       id="path3281"
       style="opacity:.8;stroke:url(#linearGradient2876);fill:none"
       d="m12 7.5c-2.4943 0-4.5 2.0057-4.5 4.5s2.0057 4.5 4.5 4.5 4.5-2.0057 4.5-4.5-2.0057-4.5-4.5-4.5z" />
    <g
       id="g3527"
       transform="matrix(.48936 0 0 .48936 .2553 .2553)">
      <path
         id="path3296"
         style="opacity:.8;fill:url(#linearGradient2480)"
         d="m15.857 5.7308 4.768 10.613c1.035-0.459 2.17-0.719 3.375-0.719 0.03206 0 0.06178-0.00036 0.09375 0l0.01426-11.62c-2.9422-0.070687-5.543 0.65729-8.2511 1.726z"
         transform="matrix(.99960 .028243 -.028243 .99960 .69241 -.67083)" />
      <path
         id="path3308"
         style="opacity:.8;fill:url(#linearGradient2482)"
         d="m12.121 7.906 6.931 9.3601c0.91311-0.66976 1.9659-1.1671 3.1426-1.4252 0.03132-0.0069 0.06026-0.01359 0.09157-0.02009l-2.429-11.395c-2.889 0.56132-5.3195 1.8556-7.7357 3.4797z" />
      <path
         id="path3310"
         style="opacity:.8;fill:url(#linearGradient2484)"
         d="m8.2524 11.647 9.2137 7.1558c0.70865-0.88326 1.5969-1.6361 2.6667-2.19 0.02847-0.01474 0.05469-0.02872 0.08325-0.0431l-5.35-10.319c-2.645 1.2895-4.7 3.2014-6.6136 5.396z" />
      <path
         id="path3312"
         style="opacity:.8;fill:url(#linearGradient2486)"
         d="m5.6329 16.074c7.1748 2.2422 7.8503 7.0315 12.777 1.7541l-7.91-8.6959c-2.2213 1.9309-3.5867 4.3269-4.8671 6.9419z" />
      <path
         id="path3314"
         style="opacity:.8;fill:url(#linearGradient2488)"
         d="m7.1553 13.193c-1.1831 1.752-1.9077 3.637-2.5251 5.644l11.339 2.975c0.21551-0.763 0.51805-1.5148 0.96875-2.2188 0.01729-0.027 0.04496-0.06702 0.0625-0.09375l-9.8447-6.306z" />
    </g>
    <path
       id="path3272"
       style="opacity:.5;stroke:url(#linearGradient2867);fill:none"
       d="m12 2.4574c-5.2893 0-9.5426 4.2533-9.5426 9.5426s4.2533 9.5426 9.5426 9.5426 9.5426-4.2533 9.5426-9.5426-4.254-9.5426-9.543-9.5426z" />
    <g
       id="g3297"
       transform="matrix(-.48936 0 0 -.48936 23.745 23.74)">
      <path
         id="path3299"
         style="opacity:.8;fill:url(#linearGradient2480)"
         d="m15.857 5.7308 4.768 10.613c1.035-0.459 2.17-0.719 3.375-0.719 0.03206 0 0.06178-0.00036 0.09375 0l0.01426-11.62c-2.9422-0.070687-5.543 0.65729-8.2511 1.726z"
         transform="matrix(.99960 .028243 -.028243 .99960 .69241 -.67083)" />
      <path
         id="path3301"
         style="opacity:.8;fill:url(#linearGradient2482)"
         d="m12.121 7.906 6.931 9.3601c0.91311-0.66976 1.9659-1.1671 3.1426-1.4252 0.03132-0.0069 0.06026-0.01359 0.09157-0.02009l-2.429-11.395c-2.889 0.56132-5.3195 1.8556-7.7357 3.4797z" />
      <path
         id="path3303"
         style="opacity:.8;fill:url(#linearGradient2484)"
         d="m8.2524 11.647 9.2137 7.1558c0.70865-0.88326 1.5969-1.6361 2.6667-2.19 0.02847-0.01474 0.05469-0.02872 0.08325-0.0431l-5.35-10.319c-2.645 1.2895-4.7 3.2014-6.6136 5.396z" />
      <path
         id="path3305"
         style="opacity:.8;fill:url(#linearGradient2486)"
         d="m5.6329 16.074c7.1748 2.2422 7.8503 7.0315 12.777 1.7541l-7.91-8.6959c-2.2213 1.9309-3.5867 4.3269-4.8671 6.9419z" />
      <path
         id="path3307"
         style="opacity:.8;fill:url(#linearGradient2488)"
         d="m7.1553 13.193c-1.1831 1.752-1.9077 3.637-2.5251 5.644l11.339 2.975c0.21551-0.763 0.51805-1.5148 0.96875-2.2188 0.01729-0.027 0.04496-0.06702 0.0625-0.09375l-9.8447-6.306z" />
    </g>
  </g>
  <g
     id="g3040"
     transform="matrix(0.62557782,0,0,0.62557782,8.6117103,8.6117102)">
    <path
       d="M 23,19.5 C 23.001,21.433 18.076,23 12,23 5.9245,23 0.999,21.433 1,19.5 0.99943,17.567 5.9245,16 12,16 c 6.0755,0 11.001,1.5671 11,3.5 z"
       style="opacity:0.3;fill:url(#radialGradient3078);fill-rule:evenodd"
       id="path3042"
       inkscape:connector-curvature="0" />
    <path
       d="M 22.5,12 C 22.5,6.1799 17.82,1.5 12,1.5 6.1799,1.5 1.5,6.1799 1.5,12 c 0,5.82 4.6799,10.5 10.5,10.5 5.8201,-1e-6 10.5,-4.6799 10.5,-10.5 z m -7,0 c 0,1.9711 -1.57,3.5 -3.5,3.5 -1.9713,0 -3.5,-1.655 -3.5,-3.5 0,-1.8863 1.4638,-3.5 3.5,-3.5 2.0775,0 3.5,1.4877 3.5,3.5 z"
       style="fill:url(#linearGradient3080);stroke:url(#linearGradient3082)"
       id="path3044"
       inkscape:connector-curvature="0" />
    <path
       d="M 12,8.0851 C 9.839,8.0851 8.0851,9.839 8.0851,12 c 0,2.161 1.7539,3.9149 3.9149,3.9149 2.161,0 3.9149,-1.7539 3.9149,-3.9149 C 15.9149,9.839 14.161,8.0851 12,8.0851 z m 0,1.9574 c 1.0805,0 1.9574,0.87694 1.9574,1.9574 0,1.08046 -0.87694,1.9574 -1.9574,1.9574 -1.08046,0 -1.9574,-0.87694 -1.9574,-1.9574 0,-1.08046 0.87694,-1.9574 1.9574,-1.9574 z"
       style="opacity:0.5;fill:#ffffff"
       id="path3046"
       inkscape:connector-curvature="0" />
    <path
       d="m 12,8.5 c -1.932,0 -3.5,1.568 -3.5,3.5 0,1.932 1.568,3.5 3.5,3.5 1.932,0 3.5,-1.568 3.5,-3.5 0,-1.932 -1.568,-3.5 -3.5,-3.5 z m 0,1.75 c 0.966,0 1.75,0.784 1.75,1.75 0,0.966 -0.784,1.75 -1.75,1.75 -0.966,0 -1.75,-0.784 -1.75,-1.75 0,-0.966 0.784,-1.75 1.75,-1.75 z"
       style="fill:none;stroke:url(#linearGradient3084);stroke-linejoin:round"
       id="path3048"
       inkscape:connector-curvature="0" />
    <path
       d="m 12,7.5 c -2.4943,0 -4.5,2.0057 -4.5,4.5 0,2.4943 2.0057,4.5 4.5,4.5 2.4943,0 4.5,-2.0057 4.5,-4.5 0,-2.4943 -2.0057,-4.5 -4.5,-4.5 z"
       style="opacity:0.8;fill:none;stroke:url(#linearGradient3086)"
       id="path3050"
       inkscape:connector-curvature="0" />
    <g
       transform="matrix(0.48936,0,0,0.48936,0.2553,0.2553)"
       id="g3052">
      <path
         transform="matrix(0.9996,0.028243,-0.028243,0.9996,0.69241,-0.67083)"
         d="m 15.857,5.7308 4.768,10.613 c 1.035,-0.459 2.17,-0.719 3.375,-0.719 0.03206,0 0.06178,-3.6e-4 0.09375,0 l 0.01426,-11.62 c -2.9422,-0.070687 -5.543,0.65729 -8.2511,1.726 z"
         style="opacity:0.8;fill:url(#linearGradient3088)"
         id="path3054"
         inkscape:connector-curvature="0" />
      <path
         d="m 12.121,7.906 6.931,9.3601 c 0.91311,-0.66976 1.9659,-1.1671 3.1426,-1.4252 0.03132,-0.0069 0.06026,-0.01359 0.09157,-0.02009 l -2.429,-11.395 c -2.889,0.56132 -5.3195,1.8556 -7.7357,3.4797 z"
         style="opacity:0.8;fill:url(#linearGradient3090)"
         id="path3056"
         inkscape:connector-curvature="0" />
      <path
         d="m 8.2524,11.647 9.2137,7.1558 c 0.70865,-0.88326 1.5969,-1.6361 2.6667,-2.19 0.02847,-0.01474 0.05469,-0.02872 0.08325,-0.0431 l -5.35,-10.319 c -2.645,1.2895 -4.7,3.2014 -6.6136,5.396 z"
         style="opacity:0.8;fill:url(#linearGradient3092)"
         id="path3058"
         inkscape:connector-curvature="0" />
      <path
         d="m 5.6329,16.074 c 7.1748,2.2422 7.8503,7.0315 12.777,1.7541 l -7.91,-8.6959 c -2.2213,1.9309 -3.5867,4.3269 -4.8671,6.9419 z"
         style="opacity:0.8;fill:url(#linearGradient3094)"
         id="path3060"
         inkscape:connector-curvature="0" />
      <path
         d="M 7.1553,13.193 C 5.9722,14.945 5.2476,16.83 4.6302,18.837 l 11.339,2.975 c 0.21551,-0.763 0.51805,-1.5148 0.96875,-2.2188 0.01729,-0.027 0.04496,-0.06702 0.0625,-0.09375 l -9.8447,-6.306 z"
         style="opacity:0.8;fill:url(#linearGradient3096)"
         id="path3062"
         inkscape:connector-curvature="0" />
    </g>
    <path
       d="m 12,2.4574 c -5.2893,0 -9.5426,4.2533 -9.5426,9.5426 0,5.2893 4.2533,9.5426 9.5426,9.5426 5.2893,0 9.5426,-4.2533 9.5426,-9.5426 0,-5.2893 -4.254,-9.5426 -9.543,-9.5426 z"
       style="opacity:0.5;fill:none;stroke:url(#linearGradient3098)"
       id="path3064"
       inkscape:connector-curvature="0" />
    <g
       transform="matrix(-0.48936,0,0,-0.48936,23.745,23.74)"
       id="g3066">
      <path
         transform="matrix(0.9996,0.028243,-0.028243,0.9996,0.69241,-0.67083)"
         d="m 15.857,5.7308 4.768,10.613 c 1.035,-0.459 2.17,-0.719 3.375,-0.719 0.03206,0 0.06178,-3.6e-4 0.09375,0 l 0.01426,-11.62 c -2.9422,-0.070687 -5.543,0.65729 -8.2511,1.726 z"
         style="opacity:0.8;fill:url(#linearGradient3100)"
         id="path3068"
         inkscape:connector-curvature="0" />
      <path
         d="m 12.121,7.906 6.931,9.3601 c 0.91311,-0.66976 1.9659,-1.1671 3.1426,-1.4252 0.03132,-0.0069 0.06026,-0.01359 0.09157,-0.02009 l -2.429,-11.395 c -2.889,0.56132 -5.3195,1.8556 -7.7357,3.4797 z"
         style="opacity:0.8;fill:url(#linearGradient3102)"
         id="path3070"
         inkscape:connector-curvature="0" />
      <path
         d="m 8.2524,11.647 9.2137,7.1558 c 0.70865,-0.88326 1.5969,-1.6361 2.6667,-2.19 0.02847,-0.01474 0.05469,-0.02872 0.08325,-0.0431 l -5.35,-10.319 c -2.645,1.2895 -4.7,3.2014 -6.6136,5.396 z"
         style="opacity:0.8;fill:url(#linearGradient3104)"
         id="path3072"
         inkscape:connector-curvature="0" />
      <path
         d="m 5.6329,16.074 c 7.1748,2.2422 7.8503,7.0315 12.777,1.7541 l -7.91,-8.6959 c -2.2213,1.9309 -3.5867,4.3269 -4.8671,6.9419 z"
         style="opacity:0.8;fill:url(#linearGradient3106)"
         id="path3074"
         inkscape:connector-curvature="0" />
      <path
         d="M 7.1553,13.193 C 5.9722,14.945 5.2476,16.83 4.6302,18.837 l 11.339,2.975 c 0.21551,-0.763 0.51805,-1.5148 0.96875,-2.2188 0.01729,-0.027 0.04496,-0.06702 0.0625,-0.09375 l -9.8447,-6.306 z"
         style="opacity:0.8;fill:url(#linearGradient3108)"
         id="path3076"
         inkscape:connector-curvature="0" />
    </g>
  </g>
</svg>
