<?xml version="1.0" encoding="UTF-8" standalone="no"?>
<!-- Created with Inkscape (http://www.inkscape.org/) -->

<svg
   xmlns:dc="http://purl.org/dc/elements/1.1/"
   xmlns:cc="http://creativecommons.org/ns#"
   xmlns:rdf="http://www.w3.org/1999/02/22-rdf-syntax-ns#"
   xmlns:svg="http://www.w3.org/2000/svg"
   xmlns="http://www.w3.org/2000/svg"
   xmlns:xlink="http://www.w3.org/1999/xlink"
   xmlns:sodipodi="http://sodipodi.sourceforge.net/DTD/sodipodi-0.dtd"
   xmlns:inkscape="http://www.inkscape.org/namespaces/inkscape"
   id="svg11300"
   height="24"
   width="24"
   version="1.0"
   inkscape:version="0.48.4 r9939"
   sodipodi:docname="gtk-index.svg">
  <sodipodi:namedview
     pagecolor="#ffffff"
     bordercolor="#666666"
     borderopacity="1"
     objecttolerance="10"
     gridtolerance="10"
     guidetolerance="10"
     inkscape:pageopacity="0"
     inkscape:pageshadow="2"
     inkscape:window-width="1461"
     inkscape:window-height="817"
     id="namedview60"
     showgrid="false"
     inkscape:zoom="29.782609"
     inkscape:cx="12.257888"
     inkscape:cy="11.5"
     inkscape:window-x="75"
     inkscape:window-y="34"
     inkscape:window-maximized="0"
     inkscape:current-layer="g5568" />
  <metadata
     id="metadata66">
    <rdf:RDF>
      <cc:Work
         rdf:about="">
        <dc:format>image/svg+xml</dc:format>
        <dc:type
           rdf:resource="http://purl.org/dc/dcmitype/StillImage" />
        <dc:title></dc:title>
      </cc:Work>
    </rdf:RDF>
  </metadata>
  <defs
     id="defs3">
    <linearGradient
       id="linearGradient6814">
      <stop
         id="stop6816"
         style="stop-color:#e6e6e6"
         offset="0" />
      <stop
         id="stop6818"
         style="stop-color:#fafafa"
         offset="1" />
    </linearGradient>
    <linearGradient
       id="linearGradient5060">
      <stop
         id="stop5062"
         offset="0" />
      <stop
         id="stop5064"
         style="stop-opacity:0"
         offset="1" />
    </linearGradient>
    <radialGradient
       id="radialGradient5615"
       xlink:href="#linearGradient5060"
       gradientUnits="userSpaceOnUse"
       cy="486.65"
       cx="605.71"
       gradientTransform="matrix(.011446 0 0 .012353 11.677 16.471)"
       r="117.14" />
    <radialGradient
       id="radialGradient5618"
       xlink:href="#linearGradient5060"
       gradientUnits="userSpaceOnUse"
       cy="486.65"
       cx="605.71"
       gradientTransform="matrix(-.011446 0 0 .012353 9.3231 16.471)"
       r="117.14" />
    <linearGradient
       id="linearGradient5621"
       y2="609.51"
       gradientUnits="userSpaceOnUse"
       x2="302.86"
       gradientTransform="matrix(.033447 0 0 .012353 -1.5886 16.471)"
       y1="366.65"
       x1="302.86">
      <stop
         id="stop5050"
         style="stop-opacity:0"
         offset="0" />
      <stop
         id="stop5056"
         offset=".5" />
      <stop
         id="stop5052"
         style="stop-opacity:0"
         offset="1" />
    </linearGradient>
    <linearGradient
       id="linearGradient5547"
       y2="8"
       xlink:href="#linearGradient6814"
       gradientUnits="userSpaceOnUse"
       x2="27.991"
       gradientTransform="matrix(.52381 0 0 .6 -3.1905 -3.8)"
       y1="13"
       x1="27.976" />
    <linearGradient
       id="linearGradient5550"
       y2="32.999"
       gradientUnits="userSpaceOnUse"
       x2="18"
       gradientTransform="matrix(.66684 0 0 .18794 -3.0011 -3.7249)"
       y1="46"
       x1="18">
      <stop
         id="stop7402"
         style="stop-opacity:0"
         offset="0" />
      <stop
         id="stop7404"
         offset=".35001" />
      <stop
         id="stop7406"
         style="stop-opacity:0"
         offset="1" />
    </linearGradient>
    <radialGradient
       id="radialGradient5553"
       gradientUnits="userSpaceOnUse"
       cy="25.54"
       cx="6.75"
       gradientTransform="matrix(.67728 .011584 -.015557 .84573 -.55780 -8.559)"
       r="15.5">
      <stop
         id="stop6808"
         style="stop-color:#fff"
         offset="0" />
      <stop
         id="stop6810"
         style="stop-color:#fff;stop-opacity:0"
         offset="1" />
    </radialGradient>
    <linearGradient
       id="linearGradient5556"
       y2="13.178"
       xlink:href="#linearGradient6814"
       gradientUnits="userSpaceOnUse"
       x2="25"
       gradientTransform="matrix(.59256 0 0 .48716 -4.3141 -1.1278)"
       y1="49"
       x1="25" />
    <linearGradient
       id="linearGradient5562"
       y2="31.211"
       gradientUnits="userSpaceOnUse"
       x2="23.576"
       gradientTransform="matrix(.41578 -.41749 .51898 .51462 -15.747 2.6504)"
       y1="25.357"
       x1="23.576">
      <stop
         id="stop2541"
         style="stop-color:#181818"
         offset="0" />
      <stop
         id="stop2543"
         style="stop-color:#dbdbdb"
         offset=".13483" />
      <stop
         id="stop2545"
         style="stop-color:#a4a4a4"
         offset=".20224" />
      <stop
         id="stop2547"
         style="stop-color:#fff"
         offset=".26966" />
      <stop
         id="stop2549"
         style="stop-color:#8d8d8d"
         offset=".44650" />
      <stop
         id="stop2551"
         style="stop-color:#959595"
         offset=".57114" />
      <stop
         id="stop2553"
         style="stop-color:#cecece"
         offset=".72038" />
      <stop
         id="stop2555"
         style="stop-color:#181818"
         offset="1" />
    </linearGradient>
    <linearGradient
       id="linearGradient5564"
       y2="26.03"
       gradientUnits="userSpaceOnUse"
       x2="9"
       gradientTransform="matrix(.40402 -.40569 .60738 .60227 -17.637 .46249)"
       y1="29.057"
       x1="9">
      <stop
         id="stop2607"
         style="stop-color:#ece5a5"
         offset="0" />
      <stop
         id="stop2609"
         style="stop-color:#fcfbf2"
         offset="1" />
    </linearGradient>
    <linearGradient
       id="linearGradient5566"
       y2="41.392"
       gradientUnits="userSpaceOnUse"
       x2="9.5221"
       gradientTransform="matrix(.37638 .036153 0.0367 .37487 -2.2183 -1.1331)"
       y1="37.372"
       x1="5.5179">
      <stop
         id="stop2613"
         style="stop-color:#dbce48"
         offset="0" />
      <stop
         id="stop2615"
         style="stop-color:#c5b625"
         offset="1" />
    </linearGradient>
    <linearGradient
       inkscape:collect="always"
       xlink:href="#linearGradient2867-449-88-871-390-598-476-591-434-148-57-177-641-289-620-227-114-444-680-744-4-1-5"
       id="linearGradient3795"
       x1="-47.01096"
       y1="12.450426"
       x2="-36.782223"
       y2="12.450426"
       gradientUnits="userSpaceOnUse" />
    <linearGradient
       id="linearGradient2867-449-88-871-390-598-476-591-434-148-57-177-641-289-620-227-114-444-680-744-4-1-5">
      <stop
         id="stop5430-5-0-9"
         style="stop-color:#737373;stop-opacity:1"
         offset="0" />
      <stop
         id="stop5432-2-0-0"
         style="stop-color:#636363;stop-opacity:1"
         offset="0.26238" />
      <stop
         id="stop5434-9-6-8"
         style="stop-color:#4b4b4b;stop-opacity:1"
         offset="0.704952" />
      <stop
         id="stop5436-2-7-0"
         style="stop-color:#3f3f3f;stop-opacity:1"
         offset="1" />
    </linearGradient>
    <radialGradient
       inkscape:collect="always"
       xlink:href="#linearGradient2867-449-88-871-390-598-476-591-434-148-57-177-641-289-620-227-114-444-680-744-4-1-5"
       id="radialGradient3815"
       cx="-47.886391"
       cy="12.798388"
       fx="-47.886391"
       fy="12.798388"
       r="4.6143694"
       gradientTransform="matrix(0.01062994,4.2167549,-3.8318684,0.00965963,6.5016348,203.6757)"
       gradientUnits="userSpaceOnUse" />
    <linearGradient
       id="linearGradient3124">
      <stop
         id="stop3126"
         style="stop-color:#737373;stop-opacity:1"
         offset="0" />
      <stop
         id="stop3128"
         style="stop-color:#636363;stop-opacity:1"
         offset="0.26238" />
      <stop
         id="stop3130"
         style="stop-color:#4b4b4b;stop-opacity:1"
         offset="0.704952" />
      <stop
         id="stop3132"
         style="stop-color:#3f3f3f;stop-opacity:1"
         offset="1" />
    </linearGradient>
  </defs>
  <g
     id="g5568">
    <g
       id="g5623">
      <rect
         id="rect3706"
         style="opacity:.25;fill:url(#linearGradient5621)"
         height="3"
         width="16.15"
         y="21"
         x="2.425" />
      <path
         id="path3708"
         style="opacity:.25;fill:url(#radialGradient5618)"
         d="m2.425 21v2.9998c-0.58945 0.0056-1.425-0.67211-1.425-1.5001 0-0.828 0.65778-1.4997 1.425-1.4997z" />
      <path
         id="path3710"
         style="opacity:.25;fill:url(#radialGradient5615)"
         d="m18.575 21v2.9998c0.58945 0.0056 1.425-0.67211 1.425-1.5001 0-0.828-0.65778-1.4997-1.425-1.4997z" />
    </g>
    <rect
       id="rect6802"
       style="stroke-linejoin:round;stroke:#aaa;stroke-linecap:round;stroke-width:.99992;fill:url(#linearGradient5556)"
       rx="0.5"
       ry=".5"
       height="19"
       width="16"
       y="3.5"
       x="2.5" />
    <rect
       id="rect6804"
       style="stroke-linejoin:round;stroke:url(#radialGradient5553);stroke-linecap:round;stroke-width:.99976;fill:none"
       rx=".23334"
       ry="0.225"
       height="18"
       width="14"
       y="3.4999"
       x="3.4999" />
    <rect
       id="rect7392"
       style="opacity:.4;fill:url(#linearGradient5550)"
       height="2.4432"
       width="22.006"
       y="2.4771"
       x="1" />
    <rect
       id="rect6028"
       style="fill:url(#linearGradient5547)"
       height="3"
       width="22"
       y="1"
       x="1" />
    <rect
       id="rect6800"
       style="fill:#aaa"
       height="1"
       width="22"
       y="4"
       x="1" />
    <rect
       id="rect5731"
       style="fill:#3689e6;fill-opacity:1;stroke:#185f9a;stroke-width:0.50037998;stroke-linecap:square;stroke-miterlimit:10;stroke-opacity:1"
       height="2.4995999"
       width="14.5"
       y="9.1502104"
       x="3.2502" />
    <path
       id="path5721"
       style="fill:#999999"
       d="m 5,2 0,1 1.6,0 0,-1 z m 2.3905,0 0,1 L 8,3 8,2 z m 1.1314,0 0,1 1.1679,0 0,-1 z m 1.7518,0 0,1 0.92628,0 0,-1 -0.926,0 z m 1.726,0 0,1 1.7774,0 0,-1 -1.777,0 z m 2.4161,0 0,1 0.58394,0 0,-1 -0.584,0 z m -9.416,5 0,1 1.3,0 0,-1 z m 2.5,0 0,1 2.2,0 0,-1 z m 2.9,0 0,1 0.4,0 0,-1 z m 1.1,0 0,1 1,0 0,-1 z m 1.7,0 0,1 0.8,0 0,-1 z m -8.2,6 0,1 0.5,0 0,-1 z m 1,0 0,1 0.8,0 0,-1 z m 1.5,0 0,1 2.1,0 0,-1 z m 3,0 0,1 1.5,0 0,-1 z m -5.5,3 0,1 1.7,0 0,-1 z m 2.6,0 0,1 1.4,0 0,-1 z m 2.1,0 0,1 0.8,0 0,-1 z m 1.7,0 0,1 1.3,0 0,-1 z"
       inkscape:connector-curvature="0"
       sodipodi:nodetypes="cccccccccccccccccccccccccccccccccccccccccccccccccccccccccccccccccccccccccccccccccccccccccccccccccc" />
    <path
       id="rect7428"
       style="enable-background:new;fill:#999999;fill-opacity:1"
       d="m5 19v1h0.6v-1h-0.6zm1.5 0v1h1.5v-1h-1.5zm2.3 0v1h1.2v-1h-1.2z" />
    <path
       style="opacity:0.35;fill:none;stroke:#ffffff;stroke-width:0.77341932px;stroke-linecap:round;stroke-linejoin:round;stroke-opacity:1"
       d="m 16.078616,10.168733 -0.119904,10.215968 2.32617,-2.446078 1.271,2.877738 0.143887,0.215831 0.215831,0.119906 0.287773,0.119905 0.263793,0 0.287773,-0.119905 0.239812,-0.09593 0.239811,-0.359717 0.119906,-0.287773 0,-0.311755 -0.07195,-0.287774 -1.414887,-2.685889 3.261435,-0.07195 z"
       id="path3969"
       inkscape:connector-curvature="0" />
    <g
       transform="matrix(0.77341934,0,0,0.77341934,52.220986,6.3738591)"
       id="g2500"
       style="fill:url(#linearGradient3795);fill-opacity:1">
      <path
         inkscape:connector-curvature="0"
         d="m -46.716194,5.0060199 9.09499,8.8273311 -4.146245,0.133748 c 0,0 1.738748,3.61118 1.738748,3.61118 0.535,1.60497 -1.872498,2.206832 -2.273748,1.003106 0,0 -1.604998,-3.611181 -1.604998,-3.611181 l -2.942496,3.143066 0.133749,-13.1072501 z"
         id="path3970"
         style="fill:url(#radialGradient3815);fill-opacity:1;fill-rule:evenodd;stroke:none;stroke-width:1.00000012;marker:none;visibility:visible;display:inline;overflow:visible" />
      <path
         style="opacity:0.1;fill:none;stroke:#000000;stroke-width:0.88411272;stroke-linecap:butt;stroke-linejoin:round;stroke-miterlimit:4;stroke-opacity:1;stroke-dasharray:none;stroke-dashoffset:0;marker:none;visibility:visible;display:inline;overflow:visible"
         id="path3817"
         d="m -46.255393,6.1346661 7.616407,7.3158229 -3.864784,0.07452 1.89618,3.707586 c 0.880475,1.695201 -1.084209,2.063003 -1.515752,0.753471 l -1.631385,-3.949283 -2.642973,3.002764 z"
         inkscape:connector-curvature="0"
         sodipodi:nodetypes="cccccccc" />
    </g>
    <path
       style="opacity:0.02999998;fill:none;stroke:#000000;stroke-width:0.77341932px;stroke-linecap:butt;stroke-linejoin:miter;stroke-opacity:1"
       d="m 20.374265,20.344003 -1.86554,-4.020559 2.155021,-0.192987 -3.634585,-3.505927 -0.128659,5.210644 1.543895,-1.543895"
       id="path3836"
       inkscape:connector-curvature="0" />
    <path
       inkscape:connector-curvature="0"
       id="path5721-6"
       style="fill:#4d4d4d;fill-opacity:1"
       d="m 4.9745605,9.852 0,1 1.3,0 0,-1 z m 2.5,0 0,1 2.2000004,0 0,-1 z m 2.9000005,0 0,1 0.4,0 0,-1 z m 1.1,0 0,1 1,0 0,-1 z m 1.7,0 0,1 0.8,0 0,-1 z"
       sodipodi:nodetypes="ccccccccccccccccccccccccc" />
  </g>
</svg>
