<?xml version="1.0" encoding="UTF-8" standalone="no"?>
<!-- Created with Inkscape (http://www.inkscape.org/) -->

<svg
   xmlns:dc="http://purl.org/dc/elements/1.1/"
   xmlns:cc="http://creativecommons.org/ns#"
   xmlns:rdf="http://www.w3.org/1999/02/22-rdf-syntax-ns#"
   xmlns:svg="http://www.w3.org/2000/svg"
   xmlns="http://www.w3.org/2000/svg"
   xmlns:xlink="http://www.w3.org/1999/xlink"
   xmlns:sodipodi="http://sodipodi.sourceforge.net/DTD/sodipodi-0.dtd"
   xmlns:inkscape="http://www.inkscape.org/namespaces/inkscape"
   width="24"
   height="24"
   id="svg1306"
   sodipodi:version="0.32"
   inkscape:version="0.48.2 r9819"
   sodipodi:docname="1.svg"
   inkscape:export-filename="/home/lapo/Desktop/insert-link-16.png"
   inkscape:export-xdpi="90.000031"
   inkscape:export-ydpi="90.000031"
   version="1.0"
   inkscape:output_extension="org.inkscape.output.svg.inkscape">
  <defs
     id="defs1308">
    <linearGradient
       inkscape:collect="always"
       id="linearGradient6373">
      <stop
         style="stop-color:#ffffff;stop-opacity:1;"
         offset="0"
         id="stop6375" />
      <stop
         style="stop-color:#ffffff;stop-opacity:0;"
         offset="1"
         id="stop6377" />
    </linearGradient>
    <linearGradient
       id="linearGradient5348">
      <stop
         style="stop-color:#555753;stop-opacity:1;"
         offset="0"
         id="stop5350" />
      <stop
         style="stop-color:#888a85;stop-opacity:1"
         offset="1"
         id="stop5352" />
    </linearGradient>
    <linearGradient
       id="linearGradient5048">
      <stop
         id="stop5050"
         offset="0"
         style="stop-color:black;stop-opacity:0;" />
      <stop
         style="stop-color:black;stop-opacity:1;"
         offset="0.5"
         id="stop5056" />
      <stop
         id="stop5052"
         offset="1"
         style="stop-color:black;stop-opacity:0;" />
    </linearGradient>
    <linearGradient
       id="linearGradient5060"
       inkscape:collect="always">
      <stop
         id="stop5062"
         offset="0"
         style="stop-color:black;stop-opacity:1;" />
      <stop
         id="stop5064"
         offset="1"
         style="stop-color:black;stop-opacity:0;" />
    </linearGradient>
    <linearGradient
       inkscape:collect="always"
       xlink:href="#linearGradient5048"
       id="linearGradient6889"
       gradientUnits="userSpaceOnUse"
       gradientTransform="matrix(2.77439,0,0,1.96971,-1892.18,-872.885)"
       x1="302.85715"
       y1="366.64789"
       x2="302.85715"
       y2="609.50507" />
    <radialGradient
       inkscape:collect="always"
       xlink:href="#linearGradient5060"
       id="radialGradient6891"
       gradientUnits="userSpaceOnUse"
       gradientTransform="matrix(2.77439,0,0,1.96971,-1891.63,-872.885)"
       cx="605.71429"
       cy="486.64789"
       fx="605.71429"
       fy="486.64789"
       r="117.14286" />
    <radialGradient
       inkscape:collect="always"
       xlink:href="#linearGradient5060"
       id="radialGradient6893"
       gradientUnits="userSpaceOnUse"
       gradientTransform="matrix(-2.77439,0,0,1.96971,112.762,-872.885)"
       cx="605.71429"
       cy="486.64789"
       fx="605.71429"
       fy="486.64789"
       r="117.14286" />
    <linearGradient
       inkscape:collect="always"
       xlink:href="#linearGradient5348"
       id="linearGradient5380"
       gradientUnits="userSpaceOnUse"
       gradientTransform="matrix(0.68487802,0,0,-0.70620615,0.0580654,53.327602)"
       x1="17.856678"
       y1="29.360811"
       x2="17.856678"
       y2="19.586843" />
    <linearGradient
       inkscape:collect="always"
       xlink:href="#linearGradient6373"
       id="linearGradient6379"
       x1="16.882174"
       y1="23.103367"
       x2="16.882174"
       y2="14.433153"
       gradientUnits="userSpaceOnUse"
       gradientTransform="matrix(0.70620615,0,0,0.70620615,-0.82772229,19.429706)" />
    <linearGradient
       inkscape:collect="always"
       xlink:href="#linearGradient5048-0"
       id="linearGradient6875-2"
       gradientUnits="userSpaceOnUse"
       gradientTransform="matrix(2.77439,0,0,1.96971,-1892.18,-872.885)"
       x1="302.85715"
       y1="366.64789"
       x2="302.85715"
       y2="609.50507" />
    <linearGradient
       id="linearGradient5048-0">
      <stop
         id="stop5050-5"
         offset="0"
         style="stop-color:black;stop-opacity:0;" />
      <stop
         style="stop-color:black;stop-opacity:1;"
         offset="0.5"
         id="stop5056-5" />
      <stop
         id="stop5052-2"
         offset="1"
         style="stop-color:black;stop-opacity:0;" />
    </linearGradient>
    <radialGradient
       inkscape:collect="always"
       xlink:href="#linearGradient5060-0"
       id="radialGradient6877-9"
       gradientUnits="userSpaceOnUse"
       gradientTransform="matrix(2.77439,0,0,1.96971,-1891.63,-872.885)"
       cx="605.71429"
       cy="486.64789"
       fx="605.71429"
       fy="486.64789"
       r="117.14286" />
    <linearGradient
       id="linearGradient5060-0"
       inkscape:collect="always">
      <stop
         id="stop5062-2"
         offset="0"
         style="stop-color:black;stop-opacity:1;" />
      <stop
         id="stop5064-8"
         offset="1"
         style="stop-color:black;stop-opacity:0;" />
    </linearGradient>
    <radialGradient
       inkscape:collect="always"
       xlink:href="#linearGradient5060-0"
       id="radialGradient6879-3"
       gradientUnits="userSpaceOnUse"
       gradientTransform="matrix(-2.77439,0,0,1.96971,112.762,-872.885)"
       cx="605.71429"
       cy="486.64789"
       fx="605.71429"
       fy="486.64789"
       r="117.14286" />
    <radialGradient
       r="117.14286"
       fy="486.64789"
       fx="605.71429"
       cy="486.64789"
       cx="605.71429"
       gradientTransform="matrix(-2.77439,0,0,1.96971,112.762,-872.885)"
       gradientUnits="userSpaceOnUse"
       id="radialGradient3245"
       xlink:href="#linearGradient5060-0"
       inkscape:collect="always" />
  </defs>
  <sodipodi:namedview
     id="base"
     pagecolor="#ffffff"
     bordercolor="#868686"
     borderopacity="1"
     inkscape:pageopacity="0"
     inkscape:pageshadow="2"
     inkscape:zoom="12.541667"
     inkscape:cx="24"
     inkscape:cy="24"
     inkscape:current-layer="layer1"
     showgrid="false"
     inkscape:grid-bbox="true"
     inkscape:document-units="px"
     fill="#fcaf3e"
     stroke="#555753"
     showguides="true"
     inkscape:guide-bbox="true"
     inkscape:window-width="1085"
     inkscape:window-height="760"
     inkscape:window-x="526"
     inkscape:window-y="89"
     inkscape:showpageshadow="false"
     showborder="true"
     inkscape:grid-points="true"
     width="48px"
     height="48px"
     inkscape:window-maximized="0">
    <inkscape:grid
       id="GridFromPre046Settings"
       type="xygrid"
       originx="0px"
       originy="0px"
       spacingx="0.5px"
       spacingy="0.5px"
       color="#0000ff"
       empcolor="#0000ff"
       opacity="0.2"
       empopacity="0.4"
       empspacing="2"
       visible="true"
       enabled="true"
       snapvisiblegridlinesonly="true" />
  </sodipodi:namedview>
  <metadata
     id="metadata1311">
    <rdf:RDF>
      <cc:Work
         rdf:about="">
        <dc:format>image/svg+xml</dc:format>
        <dc:type
           rdf:resource="http://purl.org/dc/dcmitype/StillImage" />
        <dc:title></dc:title>
        <dc:creator>
          <cc:Agent>
            <dc:title>Lapo Calamandrei</dc:title>
          </cc:Agent>
        </dc:creator>
        <dc:source>http://www.gnome.org</dc:source>
        <dc:contributor>
          <cc:Agent>
            <dc:title />
          </cc:Agent>
        </dc:contributor>
        <cc:license
           rdf:resource="http://creativecommons.org/licenses/GPL/2.0/" />
        <dc:subject>
          <rdf:Bag>
            <rdf:li>insert</rdf:li>
            <rdf:li>text</rdf:li>
            <rdf:li>generic</rdf:li>
          </rdf:Bag>
        </dc:subject>
      </cc:Work>
      <cc:License
         rdf:about="http://creativecommons.org/licenses/GPL/2.0/">
        <cc:permits
           rdf:resource="http://web.resource.org/cc/Reproduction" />
        <cc:permits
           rdf:resource="http://web.resource.org/cc/Distribution" />
        <cc:requires
           rdf:resource="http://web.resource.org/cc/Notice" />
        <cc:permits
           rdf:resource="http://web.resource.org/cc/DerivativeWorks" />
        <cc:requires
           rdf:resource="http://web.resource.org/cc/ShareAlike" />
        <cc:requires
           rdf:resource="http://web.resource.org/cc/SourceCode" />
      </cc:License>
    </rdf:RDF>
  </metadata>
  <g
     id="layer1"
     inkscape:label="Layer 1"
     inkscape:groupmode="layer"
     transform="translate(0,-24)">
    <g
       style="opacity:0.27155175;display:inline"
       id="g6881"
       transform="matrix(0.01083512,0,0,0.01144004,21.751444,35.658817)">
      <rect
         y="-150.69685"
         x="-1559.2523"
         height="478.35718"
         width="1339.6335"
         id="rect6883"
         style="opacity:0.39195981;color:#000000;fill:url(#linearGradient6889);fill-opacity:1;fill-rule:nonzero;stroke:none;stroke-width:1;marker:none;visibility:visible;display:inline;overflow:visible" />
      <path
         sodipodi:nodetypes="cccc"
         id="path6885"
         d="m -219.61876,-150.68038 c 0,0 0,478.33079 0,478.33079 142.874166,0.90045 345.40022,-107.16966 345.40014,-239.196175 0,-132.026537 -159.436816,-239.134595 -345.40014,-239.134615 z"
         style="opacity:0.40206185;color:#000000;fill:url(#radialGradient6891);fill-opacity:1;fill-rule:nonzero;stroke:none;stroke-width:1;marker:none;visibility:visible;display:inline;overflow:visible"
         inkscape:connector-curvature="0" />
      <path
         style="opacity:0.40206185;color:#000000;fill:url(#radialGradient6893);fill-opacity:1;fill-rule:nonzero;stroke:none;stroke-width:1;marker:none;visibility:visible;display:inline;overflow:visible"
         d="m -1559.2523,-150.68038 c 0,0 0,478.33079 0,478.33079 -142.8742,0.90045 -345.4002,-107.16966 -345.4002,-239.196175 0,-132.026537 159.4368,-239.134595 345.4002,-239.134615 z"
         id="path6887"
         sodipodi:nodetypes="cccc"
         inkscape:connector-curvature="0" />
    </g>
    <path
       style="font-size:17.50059891px;font-style:normal;font-weight:bold;fill:url(#linearGradient5380);fill-opacity:1;stroke:#2e3436;stroke-width:0.70620608px;stroke-linecap:butt;stroke-linejoin:miter;stroke-opacity:1;font-family:Bitstream Vera Sans"
       d="m 7.0067489,27.551076 c -0.132186,0.02374 -0.2416022,0.116325 -0.2868962,0.242758 l -3.244131,9.158611 c -0.043583,0.115594 -0.026414,0.251689 0.04414,0.353103 0.070554,0.101419 0.1854275,0.155148 0.308965,0.154483 l 2.2730972,0 c 0.1626672,-0.0024 0.3052616,-0.109338 0.3531026,-0.264828 l 0.3751725,-1.147585 3.222065,0 0.375173,1.147585 c 0.04783,0.15549 0.190436,0.262436 0.353103,0.264828 l 2.2731,0 c 0.123538,6.66e-4 0.238418,-0.05307 0.308966,-0.154483 0.07056,-0.101418 0.08772,-0.237509 0.04414,-0.353103 L 10.118472,27.793834 C 10.063092,27.647054 9.922246,27.55022 9.76537,27.551076 l -2.6924116,0 c -0.022028,-0.002 -0.044182,-0.002 -0.06621,0 z m 6.9517181,0 c -0.176477,0.03244 -0.289691,0.191298 -0.286897,0.375172 l -0.02207,9.15861 c 2e-5,0.207193 0.173169,0.375152 0.375172,0.375173 l 2.07448,0 c 0.202004,-2.1e-5 0.375152,-0.16798 0.375173,-0.375173 l 0,-0.132413 c 0.188457,0.137673 0.324195,0.26272 0.485517,0.353103 0.39994,0.219313 0.867827,0.331035 1.368274,0.331034 0.895806,0 1.662604,-0.420419 2.228963,-1.169654 0.563861,-0.750507 0.86068,-1.69547 0.860689,-2.824824 -9e-6,-1.129348 -0.293174,-2.096096 -0.860689,-2.846894 -0.566716,-0.754271 -1.334391,-1.169645 -2.228963,-1.169654 -0.498263,9e-6 -0.965054,0.105123 -1.368274,0.331034 -0.163886,0.08987 -0.302367,0.214934 -0.485517,0.353103 l 0.02207,-2.383445 c -2.1e-5,-0.207193 -0.173169,-0.375152 -0.375173,-0.375172 l -2.096549,0 c -0.02147,-0.002 -0.04473,-0.002 -0.06621,0 z m -5.5172377,3.641376 0.6620687,1.986205 -1.3241364,0 z m 9.1586127,0.595861 c 0.3516,4e-6 0.541735,0.108293 0.706206,0.375171 0.165863,0.264749 0.286889,0.75164 0.286896,1.412413 -7e-6,0.66078 -0.116901,1.096937 -0.286896,1.368275 -0.164472,0.266883 -0.354608,0.375172 -0.706206,0.375171 -0.351599,10e-7 -0.699217,-0.156248 -0.83862,-0.375171 -0.177727,-0.287038 -0.286903,-0.721266 -0.286896,-1.368275 -7e-6,-0.647001 0.111705,-1.110723 0.286896,-1.390344 0.143535,-0.228089 0.496637,-0.397236 0.83862,-0.39724 z"
       id="path6355"
       sodipodi:nodetypes="cccsccccccccsccccccccccccsssssssccccccccccsssssscc"
       inkscape:connector-curvature="0" />
    <path
       style="font-size:17.50059891px;font-style:normal;font-weight:bold;opacity:0.15;fill:none;stroke:url(#linearGradient6379);stroke-width:0.70620608px;stroke-linecap:butt;stroke-linejoin:miter;stroke-opacity:1;font-family:Bitstream Vera Sans"
       d="m 7.315714,28.27935 -3.0013723,8.452406 1.5448243,0 0.2868952,-0.904828 c 0.095006,-0.298819 0.3706052,-0.503292 0.6841364,-0.507585 l 3.2220654,0 c 0.313532,0.0043 0.589127,0.208766 0.684138,0.507585 l 0.286897,0.904828 1.522756,0 -3.023446,-8.452406 z m 7.08413,0 -0.02207,8.452406 1.390343,0 c 0.06899,-0.225205 0.242629,-0.403144 0.466078,-0.477628 0.223449,-0.07448 0.469123,-0.03631 0.659438,0.102458 0.223574,0.163325 0.355906,0.273442 0.419311,0.308965 0.281397,0.154309 0.623114,0.242759 1.015171,0.242758 0.667943,0 1.200464,-0.281228 1.65517,-0.882757 0.461246,-0.613925 0.706199,-1.381692 0.706207,-2.383446 -8e-6,-1.003315 -0.24728,-1.798375 -0.706207,-2.405515 -0.454122,-0.604413 -0.986034,-0.882752 -1.65517,-0.882757 -0.395843,6e-6 -0.737003,0.0869 -1.015171,0.242758 -0.06578,0.03607 -0.186318,0.127775 -0.397241,0.286896 -0.219436,0.167141 -0.514465,0.195977 -0.762111,0.07449 -0.247647,-0.121487 -0.405414,-0.372449 -0.407543,-0.648282 l 0.02207,-2.030343 z m -6.0689587,2.184827 c 0.3533839,-0.04814 0.6896461,0.166694 0.7944815,0.507585 l 0.6620682,1.986205 c 0.06986,0.21974 0.03156,0.459583 -0.103286,0.646624 -0.134843,0.187039 -0.350288,0.299183 -0.5808459,0.30234 l -1.3241364,0 C 7.5486099,33.903782 7.3331651,33.79163 7.1983219,33.604591 7.0634787,33.41755 7.0251656,33.177707 7.095025,32.957967 l 0.6620677,-1.986205 c 0.079653,-0.26424 0.3018078,-0.460766 0.5737925,-0.507585 z m 9.2689567,0.595861 c 0.501132,6e-6 1.074306,0.322888 1.324135,0.728275 0.294522,0.470109 0.397235,1.037889 0.397243,1.787584 -8e-6,0.746666 -0.120575,1.323913 -0.397243,1.765515 -0.249829,0.405397 -0.823001,0.706208 -1.324135,0.706206 -0.567365,2e-6 -1.106853,-0.15703 -1.45655,-0.706206 -1.12e-4,-0.0073 -1.12e-4,-0.01471 0,-0.02207 -0.280514,-0.453044 -0.397248,-1.014509 -0.397241,-1.743446 -8e-6,-0.730834 0.103664,-1.319012 0.397241,-1.787584 0.343851,-0.54641 0.874434,-0.728268 1.45655,-0.728275 z"
       id="path5386"
       sodipodi:nodetypes="ccccccccccccccssssssssssscccccsccsccccccssssssscc"
       inkscape:connector-curvature="0" />
    <path
       style="font-size:17.50059891px;font-style:normal;font-weight:bold;fill:#babdb6;fill-opacity:1;stroke:none;font-family:Bitstream Vera Sans"
       d="m 7.0729553,27.926248 -3.2441299,9.15861 0.2427587,0 3.0013712,-8.452404 2.6924117,0 3.045515,8.452404 0.242757,0 -3.288272,-9.15861 z m 6.9737867,0 0,0.706206 2.07448,0 0,-0.706206 z m 4.281375,2.074481 c -0.445502,6e-6 -0.852923,0.09707 -1.191724,0.286895 -0.113345,0.06216 -0.24392,0.182072 -0.441378,0.331035 -0.114937,0.08359 -0.271072,0.08749 -0.397241,0.02207 -0.119489,-0.06196 -0.192619,-0.175632 -0.198621,-0.308965 l 0,0.684137 c -0.0021,0.142106 0.07245,0.265613 0.198621,0.331034 0.126169,0.06542 0.282304,0.06153 0.397241,-0.02207 0.197458,-0.148962 0.328033,-0.268878 0.441378,-0.331034 0.338801,-0.189818 0.746222,-0.286888 1.191724,-0.286895 0.778439,7e-6 1.411286,0.338099 1.919998,1.015171 0.453092,0.599421 0.715747,1.367033 0.772413,2.273101 0.0078,-0.119568 0.02207,-0.227945 0.02207,-0.353103 -7e-6,-1.064423 -0.282906,-1.949412 -0.794481,-2.626204 -0.508712,-0.677072 -1.141559,-1.015165 -1.919998,-1.015171 z m 3.464824,3.641375 c -14.9860841,13.12367 -7.493043,6.561836 0,0 z M 7.5364029,33.443483 7.426059,33.774517 c -0.034737,0.112879 -0.025323,0.235522 0.04414,0.331035 0.069463,0.09551 0.1908763,0.152747 0.3089651,0.154482 l 1.3241364,0 c 0.1180888,-0.0018 0.2395019,-0.05897 0.3089659,-0.154482 0.06946,-0.09551 0.07887,-0.218156 0.04414,-0.331035 l -0.110345,-0.331034 c -0.06664,0.05936 -0.1517719,0.109008 -0.2427588,0.110345 l -1.3241364,0 c -0.090987,-0.0014 -0.1761137,-0.05099 -0.2427587,-0.110345 z M 16.121222,33.929 c -0.0078,0.114579 -0.02207,0.227518 -0.02207,0.353103 -6e-6,0.689215 0.122426,1.194339 0.353104,1.566895 0.247736,0.389053 0.684834,0.551725 1.147585,0.551723 0.428632,2e-6 0.806726,-0.213484 1.015171,-0.551723 0.224947,-0.35905 0.353096,-0.86187 0.353103,-1.566895 -2e-6,-0.122984 -0.01479,-0.240531 -0.02207,-0.353103 -0.0373,0.518126 -0.147018,0.920074 -0.331034,1.213792 -0.208445,0.338238 -0.586539,0.551725 -1.015171,0.551723 -0.462751,2e-6 -0.899849,-0.162671 -1.147585,-0.551723 C 16.263552,34.838026 16.157281,34.439398 16.12122,33.929 z"
       id="path6363"
       sodipodi:nodetypes="cccccccccccccccsssccssssscsscccccsccsccccccssssscsssc"
       inkscape:connector-curvature="0" />
    <g
       style="opacity:0.32758622;display:inline"
       id="g6055"
       transform="matrix(0.01059689,0,0,0.01328543,21.29909,42.231282)">
      <rect
         y="-150.69685"
         x="-1559.2523"
         height="478.35718"
         width="1339.6335"
         id="rect6057"
         style="opacity:0.39195981;color:#000000;fill:url(#linearGradient6875-2);fill-opacity:1;fill-rule:nonzero;stroke:none;stroke-width:1;marker:none;visibility:visible;display:inline;overflow:visible" />
      <path
         sodipodi:nodetypes="cccc"
         id="path6059"
         d="m -219.61876,-150.68038 c 0,0 0,478.33079 0,478.33079 142.874166,0.90045 345.40022,-107.16966 345.40014,-239.196175 0,-132.026537 -159.436816,-239.134595 -345.40014,-239.134615 z"
         style="opacity:0.40206185;color:#000000;fill:url(#radialGradient6877-9);fill-opacity:1;fill-rule:nonzero;stroke:none;stroke-width:1;marker:none;visibility:visible;display:inline;overflow:visible"
         inkscape:connector-curvature="0" />
      <path
         style="opacity:0.40206185;color:#000000;fill:url(#radialGradient3245);fill-opacity:1;fill-rule:nonzero;stroke:none;stroke-width:1;marker:none;visibility:visible;display:inline;overflow:visible"
         d="m -1559.2523,-150.68038 c 0,0 0,478.33079 0,478.33079 -142.8742,0.90045 -345.4002,-107.16966 -345.4002,-239.196175 0,-132.026537 159.4368,-239.134595 345.4002,-239.134615 z"
         id="path6061"
         sodipodi:nodetypes="cccc"
         inkscape:connector-curvature="0" />
    </g>
    <path
       style="fill:none;stroke:#4e9a06;stroke-width:2.11861849;stroke-linecap:square;stroke-linejoin:miter;stroke-miterlimit:4;stroke-opacity:1;stroke-dasharray:none"
       d="m 3.3378299,43.120677 2.8248251,-2.824824 2.8248199,2.824824 2.8248251,-2.824824 2.824825,2.824824 2.824825,-2.824824 2.824824,2.824824"
       id="path6341"
       sodipodi:nodetypes="ccccccc"
       inkscape:connector-curvature="0" />
    <path
       style="fill:none;stroke:#8ae234;stroke-width:0.70620614px;stroke-linecap:square;stroke-linejoin:miter;stroke-opacity:1"
       d="m 3.3378299,43.120677 2.8248251,-2.824824 2.8248199,2.824824 2.8248251,-2.824824 2.824825,2.824824 2.824825,-2.824824 2.824824,2.824824"
       id="path6339"
       sodipodi:nodetypes="ccccccc"
       inkscape:connector-curvature="0" />
  </g>
</svg>
