<?xml version="1.0" encoding="UTF-8" standalone="no"?>
<!-- Created with Inkscape (http://www.inkscape.org/) -->

<svg
   xmlns:dc="http://purl.org/dc/elements/1.1/"
   xmlns:cc="http://creativecommons.org/ns#"
   xmlns:rdf="http://www.w3.org/1999/02/22-rdf-syntax-ns#"
   xmlns:svg="http://www.w3.org/2000/svg"
   xmlns="http://www.w3.org/2000/svg"
   xmlns:xlink="http://www.w3.org/1999/xlink"
   xmlns:sodipodi="http://sodipodi.sourceforge.net/DTD/sodipodi-0.dtd"
   xmlns:inkscape="http://www.inkscape.org/namespaces/inkscape"
   width="24"
   height="24"
   id="svg3095"
   version="1.1"
   inkscape:version="0.48.4 r9939"
   sodipodi:docname="text-html.svg">
  <defs
     id="defs3097">
    <linearGradient
       x1="32.892288"
       y1="8.0590115"
       x2="36.358372"
       y2="5.4565363"
       id="linearGradient2425"
       xlink:href="#linearGradient8589"
       gradientUnits="userSpaceOnUse"
       gradientTransform="matrix(0.4778466,0,0,0.5524833,0.3722548,7.9238715)" />
    <linearGradient
       id="linearGradient8589">
      <stop
         id="stop8591"
         style="stop-color:#fefefe;stop-opacity:1"
         offset="0" />
      <stop
         id="stop8593"
         style="stop-color:#cbcbcb;stop-opacity:1"
         offset="1" />
    </linearGradient>
    <linearGradient
       x1="24"
       y1="1.9999999"
       x2="24"
       y2="46.01725"
       id="linearGradient2429"
       xlink:href="#linearGradient3211"
       gradientUnits="userSpaceOnUse"
       gradientTransform="matrix(0.4545444,0,0,0.4651153,1.0909345,8.3372291)" />
    <linearGradient
       id="linearGradient3211">
      <stop
         id="stop3213"
         style="stop-color:#ffffff;stop-opacity:1"
         offset="0" />
      <stop
         id="stop3215"
         style="stop-color:#ffffff;stop-opacity:0"
         offset="1" />
    </linearGradient>
    <radialGradient
       cx="92.090363"
       cy="102.70267"
       r="139.55859"
       fx="92.090363"
       fy="102.70267"
       id="radialGradient2432"
       xlink:href="#XMLID_8_"
       gradientUnits="userSpaceOnUse"
       gradientTransform="matrix(0.1702128,0,0,-0.1907226,1.1063831,31.716504)" />
    <radialGradient
       cx="102"
       cy="112.3047"
       r="139.55859"
       id="XMLID_8_"
       gradientUnits="userSpaceOnUse">
      <stop
         id="stop41"
         style="stop-color:#b7b8b9;stop-opacity:1"
         offset="0" />
      <stop
         id="stop47"
         style="stop-color:#ececec;stop-opacity:1"
         offset="0.17402567" />
      <stop
         id="stop49"
         style="stop-color:#fafafa;stop-opacity:0"
         offset="0.23907544" />
      <stop
         id="stop51"
         style="stop-color:#ffffff;stop-opacity:0"
         offset="0.30111277" />
      <stop
         id="stop53"
         style="stop-color:#fafafa;stop-opacity:0"
         offset="0.53130001" />
      <stop
         id="stop55"
         style="stop-color:#ebecec;stop-opacity:0"
         offset="0.84490001" />
      <stop
         id="stop57"
         style="stop-color:#e1e2e3;stop-opacity:0"
         offset="1" />
    </radialGradient>
    <linearGradient
       x1="25.132275"
       y1="0.98520643"
       x2="25.132275"
       y2="47.013336"
       id="linearGradient2435"
       xlink:href="#linearGradient3600"
       gradientUnits="userSpaceOnUse"
       gradientTransform="matrix(0.4857154,0,0,0.4780255,0.3428305,7.2940497)" />
    <linearGradient
       id="linearGradient3600">
      <stop
         id="stop3602"
         style="stop-color:#f4f4f4;stop-opacity:1"
         offset="0" />
      <stop
         id="stop3604"
         style="stop-color:#dbdbdb;stop-opacity:1"
         offset="1" />
    </linearGradient>
    <linearGradient
       x1="-51.786404"
       y1="50.786446"
       x2="-51.786404"
       y2="2.9062471"
       id="linearGradient2438"
       xlink:href="#linearGradient3104"
       gradientUnits="userSpaceOnUse"
       gradientTransform="matrix(0.3922135,0,0,0.4473607,29.199293,6.7613001)" />
    <linearGradient
       id="linearGradient3104">
      <stop
         id="stop3106"
         style="stop-color:#aaaaaa;stop-opacity:1"
         offset="0" />
      <stop
         id="stop3108"
         style="stop-color:#c8c8c8;stop-opacity:1"
         offset="1" />
    </linearGradient>
    <radialGradient
       cx="605.71429"
       cy="486.64789"
       r="117.14286"
       fx="605.71429"
       fy="486.64789"
       id="radialGradient2441"
       xlink:href="#linearGradient5060"
       gradientUnits="userSpaceOnUse"
       gradientTransform="matrix(0.01204859,0,0,0.00823529,13.238794,26.980568)" />
    <linearGradient
       id="linearGradient5060">
      <stop
         id="stop5062"
         style="stop-color:#000000;stop-opacity:1"
         offset="0" />
      <stop
         id="stop5064"
         style="stop-color:#000000;stop-opacity:0"
         offset="1" />
    </linearGradient>
    <radialGradient
       cx="605.71429"
       cy="486.64789"
       r="117.14286"
       fx="605.71429"
       fy="486.64789"
       id="radialGradient2444"
       xlink:href="#linearGradient5060"
       gradientUnits="userSpaceOnUse"
       gradientTransform="matrix(-0.01204859,0,0,0.00823529,10.761206,26.980568)" />
    <linearGradient
       id="linearGradient5048">
      <stop
         id="stop5050"
         style="stop-color:#000000;stop-opacity:0"
         offset="0" />
      <stop
         id="stop5056"
         style="stop-color:#000000;stop-opacity:1"
         offset="0.5" />
      <stop
         id="stop5052"
         style="stop-color:#000000;stop-opacity:0"
         offset="1" />
    </linearGradient>
    <linearGradient
       y2="609.50507"
       x2="302.85715"
       y1="366.64789"
       x1="302.85715"
       gradientTransform="matrix(0.0352071,0,0,0.00823529,-0.724852,26.980551)"
       gradientUnits="userSpaceOnUse"
       id="linearGradient3093"
       xlink:href="#linearGradient5048"
       inkscape:collect="always" />
    <linearGradient
       inkscape:collect="always"
       xlink:href="#linearGradient3263"
       id="linearGradient3204"
       gradientUnits="userSpaceOnUse"
       gradientTransform="matrix(0,0.44357456,-0.44357456,0,18.246573,-2.6457913)"
       x1="12.2744"
       y1="32.4165"
       x2="35.391201"
       y2="14.2033" />
    <linearGradient
       gradientUnits="userSpaceOnUse"
       id="linearGradient3263"
       y2="14.2033"
       x2="35.391201"
       y1="32.4165"
       x1="12.2744">
      <stop
         offset="0"
         style="stop-color:#dedbde;stop-opacity:1"
         id="stop3265" />
      <stop
         offset="0.5"
         style="stop-color:#e6e6e6;stop-opacity:1"
         id="stop3267" />
      <stop
         offset="1"
         style="stop-color:#d2d2d2;stop-opacity:1"
         id="stop3269" />
    </linearGradient>
    <linearGradient
       inkscape:collect="always"
       xlink:href="#linearGradient3772"
       id="linearGradient3206"
       gradientUnits="userSpaceOnUse"
       gradientTransform="matrix(0.37865782,0,0,0.37865782,17.94547,-1.0877885)"
       x1="-21.915663"
       y1="3"
       x2="-21.915663"
       y2="45.032898" />
    <linearGradient
       id="linearGradient3772">
      <stop
         offset="0"
         style="stop-color:#b4b4b4;stop-opacity:1"
         id="stop3774" />
      <stop
         offset="1"
         style="stop-color:#969696;stop-opacity:1"
         id="stop3776" />
    </linearGradient>
    <linearGradient
       inkscape:collect="always"
       xlink:href="#linearGradient3487"
       id="linearGradient3208"
       gradientUnits="userSpaceOnUse"
       spreadMethod="reflect"
       x1="20.580074"
       y1="10.774516"
       x2="24.27351"
       y2="9.8622112" />
    <linearGradient
       id="linearGradient3487">
      <stop
         offset="0"
         style="stop-color:#e6cde2;stop-opacity:1"
         id="stop3489" />
      <stop
         offset="1"
         style="stop-color:#e6cde2;stop-opacity:0"
         id="stop3491" />
    </linearGradient>
    <linearGradient
       inkscape:collect="always"
       xlink:href="#linearGradient3495"
       id="linearGradient3210"
       gradientUnits="userSpaceOnUse"
       spreadMethod="reflect"
       x1="17.494959"
       y1="11.200086"
       x2="21.047453"
       y2="9.7956104" />
    <linearGradient
       id="linearGradient3495">
      <stop
         offset="0"
         style="stop-color:#c1cbe4;stop-opacity:1"
         id="stop3497" />
      <stop
         offset="1"
         style="stop-color:#c1cbe4;stop-opacity:0"
         id="stop3499" />
    </linearGradient>
    <linearGradient
       inkscape:collect="always"
       xlink:href="#linearGradient3503"
       id="linearGradient3212"
       gradientUnits="userSpaceOnUse"
       spreadMethod="reflect"
       x1="14.084608"
       y1="13.045606"
       x2="16.994024"
       y2="10.732353" />
    <linearGradient
       id="linearGradient3503">
      <stop
         offset="0"
         style="stop-color:#c4ebdd;stop-opacity:1"
         id="stop3505" />
      <stop
         offset="1"
         style="stop-color:#c4ebdd;stop-opacity:0"
         id="stop3507" />
    </linearGradient>
    <linearGradient
       inkscape:collect="always"
       xlink:href="#linearGradient3511"
       id="linearGradient3214"
       gradientUnits="userSpaceOnUse"
       spreadMethod="reflect"
       x1="12.371647"
       y1="16.188046"
       x2="14.609327"
       y2="13.461712" />
    <linearGradient
       id="linearGradient3511">
      <stop
         offset="0"
         style="stop-color:#ebeec7;stop-opacity:1"
         id="stop3513" />
      <stop
         offset="1"
         style="stop-color:#ebeec7;stop-opacity:0"
         id="stop3515" />
    </linearGradient>
    <linearGradient
       inkscape:collect="always"
       xlink:href="#linearGradient3519"
       id="linearGradient3216"
       gradientUnits="userSpaceOnUse"
       spreadMethod="reflect"
       x1="10.609375"
       y1="17.886322"
       x2="9.7297754"
       y2="20.612656" />
    <linearGradient
       id="linearGradient3519">
      <stop
         offset="0"
         style="stop-color:#fcd9cd;stop-opacity:1"
         id="stop3521" />
      <stop
         offset="1"
         style="stop-color:#fcd9cd;stop-opacity:0"
         id="stop3523" />
    </linearGradient>
    <linearGradient
       inkscape:collect="always"
       xlink:href="#linearGradient6036"
       id="linearGradient3218"
       gradientUnits="userSpaceOnUse"
       gradientTransform="matrix(0.30843437,0,0,0.30843437,0.49054727,0.28914309)"
       x1="10.50172"
       y1="3.6100161"
       x2="48.798885"
       y2="54.698483" />
    <linearGradient
       id="linearGradient6036">
      <stop
         offset="0"
         style="stop-color:#ffffff;stop-opacity:1"
         id="stop6038" />
      <stop
         offset="1"
         style="stop-color:#ffffff;stop-opacity:0"
         id="stop6040" />
    </linearGradient>
    <linearGradient
       inkscape:collect="always"
       xlink:href="#linearGradient3487"
       id="linearGradient3220"
       gradientUnits="userSpaceOnUse"
       spreadMethod="reflect"
       x1="20.580074"
       y1="10.774516"
       x2="24.27351"
       y2="9.8622112" />
    <linearGradient
       id="linearGradient3158">
      <stop
         offset="0"
         style="stop-color:#e6cde2;stop-opacity:1"
         id="stop3160" />
      <stop
         offset="1"
         style="stop-color:#e6cde2;stop-opacity:0"
         id="stop3162" />
    </linearGradient>
    <linearGradient
       inkscape:collect="always"
       xlink:href="#linearGradient3495"
       id="linearGradient3222"
       gradientUnits="userSpaceOnUse"
       spreadMethod="reflect"
       x1="17.494959"
       y1="11.200086"
       x2="21.047453"
       y2="9.7956104" />
    <linearGradient
       id="linearGradient3165">
      <stop
         offset="0"
         style="stop-color:#c1cbe4;stop-opacity:1"
         id="stop3167" />
      <stop
         offset="1"
         style="stop-color:#c1cbe4;stop-opacity:0"
         id="stop3169" />
    </linearGradient>
    <linearGradient
       inkscape:collect="always"
       xlink:href="#linearGradient3503"
       id="linearGradient3224"
       gradientUnits="userSpaceOnUse"
       spreadMethod="reflect"
       x1="14.084608"
       y1="13.045606"
       x2="16.994024"
       y2="10.732353" />
    <linearGradient
       id="linearGradient3172">
      <stop
         offset="0"
         style="stop-color:#c4ebdd;stop-opacity:1"
         id="stop3174" />
      <stop
         offset="1"
         style="stop-color:#c4ebdd;stop-opacity:0"
         id="stop3176" />
    </linearGradient>
    <linearGradient
       inkscape:collect="always"
       xlink:href="#linearGradient3511"
       id="linearGradient3226"
       gradientUnits="userSpaceOnUse"
       spreadMethod="reflect"
       x1="12.371647"
       y1="16.188046"
       x2="14.609327"
       y2="13.461712" />
    <linearGradient
       id="linearGradient3179">
      <stop
         offset="0"
         style="stop-color:#ebeec7;stop-opacity:1"
         id="stop3181" />
      <stop
         offset="1"
         style="stop-color:#ebeec7;stop-opacity:0"
         id="stop3183" />
    </linearGradient>
    <linearGradient
       inkscape:collect="always"
       xlink:href="#linearGradient3519"
       id="linearGradient3228"
       gradientUnits="userSpaceOnUse"
       spreadMethod="reflect"
       x1="10.609375"
       y1="17.886322"
       x2="9.7297754"
       y2="20.612656" />
    <linearGradient
       id="linearGradient3186">
      <stop
         offset="0"
         style="stop-color:#fcd9cd;stop-opacity:1"
         id="stop3188" />
      <stop
         offset="1"
         style="stop-color:#fcd9cd;stop-opacity:0"
         id="stop3190" />
    </linearGradient>
    <radialGradient
       inkscape:collect="always"
       xlink:href="#linearGradient3242-7"
       id="radialGradient3113"
       gradientUnits="userSpaceOnUse"
       gradientTransform="matrix(0,0.35684158,-0.38820022,0,24.349285,-15.15836)"
       cx="69.447609"
       cy="51.694645"
       fx="69.447609"
       fy="51.694645"
       r="31.000002" />
    <linearGradient
       id="linearGradient3242-7">
      <stop
         id="stop3244-5-7"
         style="stop-color:#eef87e;stop-opacity:1"
         offset="0" />
      <stop
         id="stop3246-9-8"
         style="stop-color:#cde34f;stop-opacity:1"
         offset="0.26238" />
      <stop
         id="stop3248-7-8"
         style="stop-color:#93b723;stop-opacity:1"
         offset="0.66093999" />
      <stop
         id="stop3250-8-8"
         style="stop-color:#5a7e0d;stop-opacity:1"
         offset="1" />
    </linearGradient>
    <linearGradient
       inkscape:collect="always"
       xlink:href="#linearGradient2490-3"
       id="linearGradient3115"
       gradientUnits="userSpaceOnUse"
       gradientTransform="matrix(0.1482266,0,0,0.1494387,-7.5564967,0.31243709)"
       x1="72.421684"
       y1="124.75623"
       x2="72.421684"
       y2="51.244411" />
    <linearGradient
       id="linearGradient2490-3">
      <stop
         id="stop2492-3-6"
         style="stop-color:#365f0e;stop-opacity:1"
         offset="0" />
      <stop
         id="stop2494-8-9"
         style="stop-color:#84a718;stop-opacity:1"
         offset="1" />
    </linearGradient>
    <linearGradient
       inkscape:collect="always"
       xlink:href="#linearGradient3943"
       id="linearGradient3111"
       gradientUnits="userSpaceOnUse"
       gradientTransform="matrix(0.2817955,0,0,0.2800956,-0.82125928,6.9779354)"
       x1="24.138529"
       y1="7.0478544"
       x2="24.138529"
       y2="39.268391" />
    <linearGradient
       id="linearGradient3943">
      <stop
         id="stop3945"
         style="stop-color:#ffffff;stop-opacity:1"
         offset="0" />
      <stop
         id="stop3947"
         style="stop-color:#ffffff;stop-opacity:0"
         offset="1" />
    </linearGradient>
  </defs>
  <sodipodi:namedview
     id="base"
     pagecolor="#ffffff"
     bordercolor="#666666"
     borderopacity="1.0"
     inkscape:pageopacity="0.0"
     inkscape:pageshadow="2"
     inkscape:zoom="11.197802"
     inkscape:cx="16"
     inkscape:cy="8.8557408"
     inkscape:current-layer="layer1"
     showgrid="true"
     inkscape:grid-bbox="true"
     inkscape:document-units="px"
     inkscape:window-width="603"
     inkscape:window-height="478"
     inkscape:window-x="417"
     inkscape:window-y="165"
     inkscape:window-maximized="0" />
  <metadata
     id="metadata3100">
    <rdf:RDF>
      <cc:Work
         rdf:about="">
        <dc:format>image/svg+xml</dc:format>
        <dc:type
           rdf:resource="http://purl.org/dc/dcmitype/StillImage" />
        <dc:title></dc:title>
      </cc:Work>
    </rdf:RDF>
  </metadata>
  <g
     id="layer1"
     inkscape:label="Layer 1"
     inkscape:groupmode="layer"
     transform="translate(0,-8)">
    <rect
       width="17"
       height="1.9999981"
       x="3.5000005"
       y="29.999998"
       id="rect2879"
       style="opacity:0.15;fill:url(#linearGradient3093);fill-opacity:1;fill-rule:nonzero;stroke:none;stroke-width:1;marker:none;visibility:visible;display:inline;overflow:visible" />
    <path
       d="m 3.5,30.000086 c 0,0 0,1.999889 0,1.999889 C 2.8795275,32.00374 2,31.551901 2,30.999901 2,30.447902 2.6924,30.000086 3.5,30.000086 z"
       id="path2881"
       style="opacity:0.15;fill:url(#radialGradient2444);fill-opacity:1;fill-rule:nonzero;stroke:none;stroke-width:1;marker:none;visibility:visible;display:inline;overflow:visible" />
    <path
       d="m 20.5,30.000086 c 0,0 0,1.999889 0,1.999889 0.620472,0.0038 1.5,-0.448074 1.5,-1.000074 0,-0.551999 -0.692401,-0.999815 -1.5,-0.999815 z"
       id="path2883"
       style="opacity:0.15;fill:url(#radialGradient2441);fill-opacity:1;fill-rule:nonzero;stroke:none;stroke-width:1;marker:none;visibility:visible;display:inline;overflow:visible" />
    <path
       d="m 3.4999617,8.4999608 c 3.8955799,0 7.6044553,0 11.5000383,0 0.683368,0.2372969 4.541325,3.1281702 5.5,5.0000392 0,5.729157 3.9e-5,11.270881 3.9e-5,17.000039 -5.666693,0 -11.3333845,0 -17.0000773,0 0,-7.33336 0,-14.66672 0,-22.0000782 z"
       id="path4160"
       style="fill:url(#linearGradient2435);fill-opacity:1;stroke:url(#linearGradient2438);stroke-width:0.99992162;stroke-linecap:butt;stroke-linejoin:round;stroke-miterlimit:4;stroke-opacity:1;stroke-dasharray:none;stroke-dashoffset:0;display:inline" />
    <path
       d="M 4.1702128,30 C 4.0764256,30 4,29.914366 4,29.809277 L 4,9.211245 C 4,9.1059665 4.0764256,9.0205231 4.1702128,9.0205231 7.6916683,9.0732399 11.594065,8.9416651 15.11124,9.0336485 L 19.950127,13.360785 20,29.809277 C 20,29.914366 19.923743,30 19.829786,30 L 4.1702128,30 z"
       id="path4191"
       style="fill:url(#radialGradient2432);fill-opacity:1" />
    <path
       d="m 19.500001,13.677035 c 0,5.208306 0,10.614658 0,15.822965 -5,0 -9.9999998,0 -15.000001,0 0,-6.66667 0,-13.333335 0,-20.0000003 3.4372614,0 6.956499,0 10.393761,0"
       id="path2435"
       style="opacity:0.6;fill:none;stroke:url(#linearGradient2429);stroke-width:0.99999988;stroke-linecap:butt;stroke-linejoin:miter;stroke-miterlimit:4;stroke-opacity:1;stroke-dasharray:none;stroke-dashoffset:0;display:inline" />
    <path
       d="m 14.075474,8.9999998 c 1.156303,0.3287671 0.339059,4.6143792 0.339059,4.6143792 0,0 4.515388,-0.427737 5.60771,1.194996 1.489153,2.212256 -0.06822,-0.635172 -0.173447,-0.821697 -0.755928,-1.340046 -3.86634,-4.5470864 -5.045409,-4.9412079 -0.08823,-0.029493 -0.283876,-0.04647 -0.727913,-0.04647 z"
       id="path3370"
       style="opacity:0.2;fill:#000000;fill-opacity:1;fill-rule:evenodd;stroke:none;display:inline" />
    <path
       d="M 14,8.9999998 C 15.526166,8.9999998 15,13 15,13 c 0,0 4.992074,-0.45326 4.992074,2 0,-0.597742 0.05575,-1.478434 -0.06407,-1.655933 C 19.088897,12.101061 16.184239,9.4821801 15.129935,9.0464701 15.043957,9.0109382 14.444037,8.9999998 14,8.9999998 z"
       id="path4474"
       style="fill:url(#linearGradient2425);fill-opacity:1;fill-rule:evenodd;stroke:none;display:inline" />
    <g
       id="layer1-4"
       transform="matrix(0.99583442,0,0,0.99583442,7.5183279,15.563842)">
      <path
         style="fill:url(#linearGradient3204);fill-rule:nonzero;stroke:url(#linearGradient3206);stroke-width:1.48484826;stroke-miterlimit:4;stroke-opacity:1"
         id="path2781"
         d="m 15.762486,7.9999999 c 0,-4.3026744 -3.459812,-7.76248602 -7.7624868,-7.76248602 -4.3026748,0 -7.7624859,3.45981202 -7.7624859,7.76248602 -8.3e-7,4.3026741 3.4598114,7.7624861 7.7624859,7.7624861 4.3026738,-1e-6 7.7624868,-3.459812 7.7624868,-7.7624861 z m -5.174991,0 c 0,1.3392298 -1.0286933,2.5874951 -2.5874958,2.5874951 -1.5588025,0 -2.5874948,-1.352234 -2.5874948,-2.5874951 0,-1.2699612 1.071213,-2.5874955 2.5874948,-2.5874955 1.5509596,0 2.5874958,1.2478159 2.5874958,2.5874955 z"
         inkscape:connector-curvature="0" />
      <g
         id="g3527"
         transform="matrix(0.3357395,0,0,0.3357395,-0.1714995,-0.3919651)">
        <path
           style="opacity:0.8;fill:url(#linearGradient3208);fill-opacity:1;fill-rule:nonzero;stroke:none"
           id="path3296"
           transform="matrix(0.9996011,0.02824295,-0.02824295,0.9996011,0.6924114,-0.6708346)"
           d="M 15.856928,5.7307748 20.625,16.34375 C 21.660403,15.885186 22.795334,15.625 24,15.625 c 0.03206,0 0.06178,-3.6e-4 0.09375,0 L 24.10801,4.0047512 c -2.94215,-0.070687 -5.543041,0.6572865 -8.251083,1.7260236 l 10e-7,0 z"
           inkscape:connector-curvature="0" />
        <path
           style="opacity:0.8;fill:url(#linearGradient3210);fill-opacity:1;fill-rule:nonzero;stroke:none"
           id="path3308"
           d="m 12.121471,7.9060109 6.931026,9.3601041 c 0.913109,-0.669755 1.965938,-1.167064 3.142629,-1.425169 0.03132,-0.0069 0.06026,-0.01359 0.09157,-0.02009 L 19.857174,4.426276 c -2.888973,0.5613244 -5.31953,1.8556038 -7.735703,3.4797349 l 0,0 z"
           inkscape:connector-curvature="0" />
        <path
           style="opacity:0.8;fill:url(#linearGradient3212);fill-opacity:1;fill-rule:nonzero;stroke:none"
           id="path3310"
           d="m 8.2523933,11.646535 9.2137237,7.155818 c 0.70865,-0.883264 1.596891,-1.636119 2.666685,-2.18998 0.02847,-0.01474 0.05469,-0.02872 0.08325,-0.0431 L 14.86585,6.2506132 C 12.220599,7.5405321 10.165881,9.452393 8.2523933,11.646535 z"
           inkscape:connector-curvature="0" />
        <path
           style="opacity:0.8;fill:url(#linearGradient3214);fill-opacity:1;fill-rule:nonzero;stroke:none"
           id="path3312"
           d="m 5.6328855,16.073974 c 7.1748065,2.242248 7.8502625,7.031463 12.7767855,1.754127 L 10.499985,9.1321388 C 8.2787249,11.062747 6.9132871,13.459349 5.6328855,16.073974 z"
           inkscape:connector-curvature="0" />
        <path
           style="opacity:0.8;fill:url(#linearGradient3216);fill-opacity:1;fill-rule:nonzero;stroke:none"
           id="path3314"
           d="M 7.155289,13.193173 C 5.9722117,14.945185 5.2475768,16.829547 4.6301929,18.837116 L 15.96875,21.8125 C 16.184264,21.049497 16.486796,20.297733 16.9375,19.59375 16.95479,19.56675 16.98246,19.52673 17,19.5 L 7.155289,13.193173 z"
           inkscape:connector-curvature="0" />
      </g>
      <path
         style="opacity:0.4;fill:none;stroke:url(#linearGradient3218);stroke-width:1.48484826;stroke-miterlimit:4;stroke-opacity:1"
         id="path3272"
         d="m 8.0000005,1.8937312 c -3.3846185,0 -6.1062707,2.7216524 -6.1062707,6.1062703 0,3.3846175 2.7216522,6.1062695 6.1062707,6.1062695 3.3846185,0 6.1062705,-2.721652 6.1062705,-6.1062695 0,-3.3846179 -2.721652,-6.1062703 -6.1062705,-6.1062703 l 0,0 0,0 z"
         inkscape:connector-curvature="0" />
      <g
         id="g3297"
         transform="matrix(-0.3507965,0,0,-0.3507965,16.408914,16.448702)">
        <path
           style="opacity:0.8;fill:url(#linearGradient3220);fill-opacity:1;fill-rule:nonzero;stroke:none"
           id="path3299"
           transform="matrix(0.9996011,0.02824295,-0.02824295,0.9996011,0.6924114,-0.6708346)"
           d="M 15.856928,5.7307748 20.625,16.34375 C 21.660403,15.885186 22.795334,15.625 24,15.625 c 0.03206,0 0.06178,-3.6e-4 0.09375,0 L 24.10801,4.0047512 c -2.94215,-0.070687 -5.543041,0.6572865 -8.251083,1.7260236 l 10e-7,0 z"
           inkscape:connector-curvature="0" />
        <path
           style="opacity:0.8;fill:url(#linearGradient3222);fill-opacity:1;fill-rule:nonzero;stroke:none"
           id="path3301"
           d="m 12.121471,7.9060109 6.931026,9.3601041 c 0.913109,-0.669755 1.965938,-1.167064 3.142629,-1.425169 0.03132,-0.0069 0.06026,-0.01359 0.09157,-0.02009 L 19.857174,4.426276 c -2.888973,0.5613244 -5.31953,1.8556038 -7.735703,3.4797349 l 0,0 z"
           inkscape:connector-curvature="0" />
        <path
           style="opacity:0.8;fill:url(#linearGradient3224);fill-opacity:1;fill-rule:nonzero;stroke:none"
           id="path3303"
           d="m 8.2523933,11.646535 9.2137237,7.155818 c 0.70865,-0.883264 1.596891,-1.636119 2.666685,-2.18998 0.02847,-0.01474 0.05469,-0.02872 0.08325,-0.0431 L 14.86585,6.2506132 C 12.220599,7.5405321 10.165881,9.452393 8.2523933,11.646535 z"
           inkscape:connector-curvature="0" />
        <path
           style="opacity:0.8;fill:url(#linearGradient3226);fill-opacity:1;fill-rule:nonzero;stroke:none"
           id="path3305"
           d="m 5.6328855,16.073974 c 7.1748065,2.242248 7.8502625,7.031463 12.7767855,1.754127 L 10.499985,9.1321388 C 8.2787249,11.062747 6.9132871,13.459349 5.6328855,16.073974 z"
           inkscape:connector-curvature="0" />
        <path
           style="opacity:0.8;fill:url(#linearGradient3228);fill-opacity:1;fill-rule:nonzero;stroke:none"
           id="path3307"
           d="M 7.155289,13.193173 C 5.9722117,14.945185 5.2475768,16.829547 4.6301929,18.837116 L 15.96875,21.8125 C 16.184264,21.049497 16.486796,20.297733 16.9375,19.59375 16.95479,19.56675 16.98246,19.52673 17,19.5 L 7.155289,13.193173 z"
           inkscape:connector-curvature="0" />
      </g>
    </g>
    <path
       inkscape:connector-curvature="0"
       style="color:#000000;fill:url(#radialGradient3113);fill-opacity:1;fill-rule:nonzero;stroke:url(#linearGradient3115);stroke-width:0.98542744;stroke-linecap:round;stroke-linejoin:round;stroke-miterlimit:4;stroke-opacity:1;stroke-dasharray:none;stroke-dashoffset:0;marker:none;visibility:visible;display:inline;overflow:visible;enable-background:accumulate"
       id="path2262"
       d="m 3.4821787,11.46305 0,-2.9999996 4,0 0,2.9999996 3.0000003,0 0,4 -3.0000003,0 0,2.99999 -4,0 0,-2.99999 -2.98946498,0 0,-4 2.98946498,0 z" />
    <path
       inkscape:connector-curvature="0"
       style="opacity:0.4;fill:none;stroke:url(#linearGradient3111);stroke-width:1;stroke-linecap:butt;stroke-linejoin:miter;stroke-miterlimit:4;stroke-opacity:1;stroke-dasharray:none;display:inline"
       id="path2272"
       d="m 4.4821787,12.46305 0,-2.9999996 2,0 0,2.9999996 3,0 0,2 -3,0 0,3 -2,0 0,-3 -3,0 0,-2 3,0 z" />
  </g>
</svg>
