<?xml version="1.0" encoding="UTF-8" standalone="no"?>
<!-- Created with Inkscape (http://www.inkscape.org/) -->

<svg
   xmlns:dc="http://purl.org/dc/elements/1.1/"
   xmlns:cc="http://creativecommons.org/ns#"
   xmlns:rdf="http://www.w3.org/1999/02/22-rdf-syntax-ns#"
   xmlns:svg="http://www.w3.org/2000/svg"
   xmlns="http://www.w3.org/2000/svg"
   xmlns:xlink="http://www.w3.org/1999/xlink"
   xmlns:sodipodi="http://sodipodi.sourceforge.net/DTD/sodipodi-0.dtd"
   xmlns:inkscape="http://www.inkscape.org/namespaces/inkscape"
   id="svg2890"
   height="24"
   width="24"
   version="1.0"
   inkscape:version="0.48.4 r9939"
   sodipodi:docname="audio-cd-new.svg">
  <metadata
     id="metadata63">
    <rdf:RDF>
      <cc:Work
         rdf:about="">
        <dc:format>image/svg+xml</dc:format>
        <dc:type
           rdf:resource="http://purl.org/dc/dcmitype/StillImage" />
        <dc:title></dc:title>
      </cc:Work>
    </rdf:RDF>
  </metadata>
  <sodipodi:namedview
     pagecolor="#ffffff"
     bordercolor="#666666"
     borderopacity="1"
     objecttolerance="10"
     gridtolerance="10"
     guidetolerance="10"
     inkscape:pageopacity="0"
     inkscape:pageshadow="2"
     inkscape:window-width="1261"
     inkscape:window-height="932"
     id="namedview61"
     showgrid="false"
     inkscape:zoom="33.130435"
     inkscape:cx="12.435772"
     inkscape:cy="12.998082"
     inkscape:window-x="175"
     inkscape:window-y="147"
     inkscape:window-maximized="0"
     inkscape:current-layer="svg2890" />
  <defs
     id="defs2892">
    <radialGradient
       id="radialGradient2888"
       gradientUnits="userSpaceOnUse"
       cy="41.636"
       cx="23.335"
       gradientTransform="matrix(.48614 0 0 .15467 .65625 13.06)"
       r="22.627">
      <stop
         id="stop23421"
         offset="0" />
      <stop
         id="stop23423"
         style="stop-opacity:0"
         offset="1" />
    </radialGradient>
    <linearGradient
       id="linearGradient2885"
       y2="45.033"
       gradientUnits="userSpaceOnUse"
       x2="-21.916"
       gradientTransform="matrix(.51220 0 0 .51220 25.453 -.29268)"
       y1="3"
       x1="-21.916">
      <stop
         id="stop3774"
         style="stop-color:#b4b4b4"
         offset="0" />
      <stop
         id="stop3776"
         style="stop-color:#969696"
         offset="1" />
    </linearGradient>
    <linearGradient
       id="linearGradient2883"
       y2="14.203"
       gradientUnits="userSpaceOnUse"
       x2="35.391"
       gradientTransform="matrix(0 .60001 -.60001 0 25.86 -2.4001)"
       y1="32.416"
       x1="12.274">
      <stop
         id="stop3265"
         style="stop-color:#dedbde"
         offset="0" />
      <stop
         id="stop3267"
         style="stop-color:#e6e6e6"
         offset=".5" />
      <stop
         id="stop3269"
         style="stop-color:#d2d2d2"
         offset="1" />
    </linearGradient>
    <linearGradient
       id="linearGradient2879"
       y2="32.509"
       gradientUnits="userSpaceOnUse"
       x2="21.448"
       gradientTransform="matrix(.43750 0 0 .43750 1.5 1.5)"
       y1="15.5"
       x1="21.448">
      <stop
         id="stop3430"
         style="stop-color:#aaa"
         offset="0" />
      <stop
         id="stop3432"
         style="stop-color:#d4d4d4"
         offset="1" />
    </linearGradient>
    <linearGradient
       id="linearGradient2876"
       y2="45.962"
       xlink:href="#linearGradient6036"
       gradientUnits="userSpaceOnUse"
       x2="18.203"
       gradientTransform="matrix(.22730 0 0 .22730 6.4659 6.3175)"
       y1="4.0378"
       x1="18.776" />
    <linearGradient
       id="linearGradient2488"
       y2="20.613"
       xlink:href="#linearGradient3519"
       spreadMethod="reflect"
       gradientUnits="userSpaceOnUse"
       x2="9.7298"
       y1="17.886"
       x1="10.609" />
    <linearGradient
       id="linearGradient2486"
       y2="13.462"
       xlink:href="#linearGradient3511"
       spreadMethod="reflect"
       gradientUnits="userSpaceOnUse"
       x2="14.609"
       y1="16.188"
       x1="12.372" />
    <linearGradient
       id="linearGradient2484"
       y2="10.732"
       xlink:href="#linearGradient3503"
       spreadMethod="reflect"
       gradientUnits="userSpaceOnUse"
       x2="16.994"
       y1="13.046"
       x1="14.085" />
    <linearGradient
       id="linearGradient2482"
       y2="9.7956"
       xlink:href="#linearGradient3495"
       spreadMethod="reflect"
       gradientUnits="userSpaceOnUse"
       x2="21.047"
       y1="11.2"
       x1="17.495" />
    <linearGradient
       id="linearGradient2480"
       y2="9.8622"
       xlink:href="#linearGradient3487"
       spreadMethod="reflect"
       gradientUnits="userSpaceOnUse"
       x2="24.274"
       y1="10.775"
       x1="20.58" />
    <linearGradient
       id="linearGradient6036">
      <stop
         id="stop6038"
         style="stop-color:#fff"
         offset="0" />
      <stop
         id="stop6040"
         style="stop-color:#fff;stop-opacity:0"
         offset="1" />
    </linearGradient>
    <linearGradient
       id="linearGradient2867"
       y2="54.698"
       xlink:href="#linearGradient6036"
       gradientUnits="userSpaceOnUse"
       x2="48.799"
       gradientTransform="matrix(.48201 0 0 .48201 .26461 -.050137)"
       y1="3.61"
       x1="10.502" />
    <linearGradient
       id="linearGradient3519">
      <stop
         id="stop3521"
         style="stop-color:#fcd9cd"
         offset="0" />
      <stop
         id="stop3523"
         style="stop-color:#fcd9cd;stop-opacity:0"
         offset="1" />
    </linearGradient>
    <linearGradient
       id="linearGradient3511">
      <stop
         id="stop3513"
         style="stop-color:#ebeec7"
         offset="0" />
      <stop
         id="stop3515"
         style="stop-color:#ebeec7;stop-opacity:0"
         offset="1" />
    </linearGradient>
    <linearGradient
       id="linearGradient3503">
      <stop
         id="stop3505"
         style="stop-color:#c4ebdd"
         offset="0" />
      <stop
         id="stop3507"
         style="stop-color:#c4ebdd;stop-opacity:0"
         offset="1" />
    </linearGradient>
    <linearGradient
       id="linearGradient3495">
      <stop
         id="stop3497"
         style="stop-color:#c1cbe4"
         offset="0" />
      <stop
         id="stop3499"
         style="stop-color:#c1cbe4;stop-opacity:0"
         offset="1" />
    </linearGradient>
    <linearGradient
       id="linearGradient3487">
      <stop
         id="stop3489"
         style="stop-color:#e6cde2"
         offset="0" />
      <stop
         id="stop3491"
         style="stop-color:#e6cde2;stop-opacity:0"
         offset="1" />
    </linearGradient>
    <linearGradient
       inkscape:collect="always"
       xlink:href="#linearGradient2372-9"
       id="linearGradient3337"
       gradientUnits="userSpaceOnUse"
       gradientTransform="matrix(0.24520917,0,0,0.12817908,16.669779,-7.4280174)"
       x1="28.739122"
       y1="144.11652"
       x2="26.256771"
       y2="125.39074" />
    <linearGradient
       id="linearGradient2372-9">
      <stop
         id="stop2374-9"
         style="stop-color:white;stop-opacity:1"
         offset="0" />
      <stop
         id="stop2376-4"
         style="stop-color:white;stop-opacity:0.34482759"
         offset="1" />
    </linearGradient>
    <radialGradient
       inkscape:collect="always"
       xlink:href="#linearGradient3668-5"
       id="radialGradient3334"
       gradientUnits="userSpaceOnUse"
       gradientTransform="matrix(0.30175409,-0.04835969,0.00658636,0.27878538,15.25332,9.1962068)"
       cx="17.058823"
       cy="41.058823"
       fx="14.757765"
       fy="37.841019"
       r="5.7384715" />
    <linearGradient
       id="linearGradient3668-5">
      <stop
         id="stop3670-7"
         style="stop-color:white;stop-opacity:1"
         offset="0" />
      <stop
         id="stop3672-4"
         style="stop-color:white;stop-opacity:0"
         offset="1" />
    </linearGradient>
    <linearGradient
       inkscape:collect="always"
       xlink:href="#linearGradient2372-9"
       id="linearGradient3340"
       gradientUnits="userSpaceOnUse"
       gradientTransform="matrix(0.12857673,0,0,0.12784222,11.86221,-6.4524164)"
       x1="28.503141"
       y1="137.53885"
       x2="26.256771"
       y2="125.39074" />
    <linearGradient
       id="linearGradient3079">
      <stop
         id="stop3081"
         style="stop-color:white;stop-opacity:1"
         offset="0" />
      <stop
         id="stop3083"
         style="stop-color:white;stop-opacity:0.34482759"
         offset="1" />
    </linearGradient>
    <radialGradient
       inkscape:collect="always"
       xlink:href="#linearGradient7067-5"
       id="radialGradient3328"
       gradientUnits="userSpaceOnUse"
       gradientTransform="matrix(0.25844885,-0.05124335,0.00907415,0.2724308,8.7150704,10.636141)"
       cx="17.058823"
       cy="41.058823"
       fx="14.68769"
       fy="37.45607"
       r="5.7384715" />
    <linearGradient
       id="linearGradient7067-5">
      <stop
         id="stop7069-9"
         style="stop-color:white;stop-opacity:1"
         offset="0" />
      <stop
         id="stop7071-3"
         style="stop-color:white;stop-opacity:0"
         offset="1" />
    </linearGradient>
    <linearGradient
       inkscape:collect="always"
       xlink:href="#linearGradient3943"
       id="linearGradient2867-5"
       gradientUnits="userSpaceOnUse"
       gradientTransform="matrix(0.2817955,0,0,0.2800956,12.178741,12.022179)"
       x1="24.138529"
       y1="7.0478544"
       x2="24.138529"
       y2="39.268391" />
    <linearGradient
       id="linearGradient3943">
      <stop
         id="stop3945"
         style="stop-color:#ffffff;stop-opacity:1"
         offset="0" />
      <stop
         id="stop3947"
         style="stop-color:#ffffff;stop-opacity:0"
         offset="1" />
    </linearGradient>
    <radialGradient
       inkscape:collect="always"
       xlink:href="#linearGradient3242-7"
       id="radialGradient2870"
       gradientUnits="userSpaceOnUse"
       gradientTransform="matrix(0,0.35684158,-0.38820022,0,37.356571,-10.114114)"
       cx="69.447609"
       cy="51.694645"
       fx="69.447609"
       fy="51.694645"
       r="31.000002" />
    <linearGradient
       id="linearGradient3242-7">
      <stop
         id="stop3244-5"
         style="stop-color:#eef87e;stop-opacity:1"
         offset="0" />
      <stop
         id="stop3246-9"
         style="stop-color:#cde34f;stop-opacity:1"
         offset="0.26238" />
      <stop
         id="stop3248-7"
         style="stop-color:#93b723;stop-opacity:1"
         offset="0.66093999" />
      <stop
         id="stop3250-8"
         style="stop-color:#5a7e0d;stop-opacity:1"
         offset="1" />
    </linearGradient>
    <linearGradient
       inkscape:collect="always"
       xlink:href="#linearGradient2490-3"
       id="linearGradient2872"
       gradientUnits="userSpaceOnUse"
       gradientTransform="matrix(0.1482266,0,0,0.1494387,5.4507901,5.356682)"
       x1="72.421684"
       y1="124.75623"
       x2="72.421684"
       y2="51.244411" />
    <linearGradient
       id="linearGradient2490-3">
      <stop
         id="stop2492-3"
         style="stop-color:#365f0e;stop-opacity:1"
         offset="0" />
      <stop
         id="stop2494-8"
         style="stop-color:#84a718;stop-opacity:1"
         offset="1" />
    </linearGradient>
    <radialGradient
       r="31.000002"
       fy="51.694645"
       fx="69.447609"
       cy="51.694645"
       cx="69.447609"
       gradientTransform="matrix(0,0.35684158,-0.38820022,0,37.349285,-10.114114)"
       gradientUnits="userSpaceOnUse"
       id="radialGradient3054"
       xlink:href="#linearGradient3242-7"
       inkscape:collect="always" />
    <linearGradient
       y2="51.244411"
       x2="72.421684"
       y1="124.75623"
       x1="72.421684"
       gradientTransform="matrix(0.1482266,0,0,0.1494387,5.4435036,5.3566815)"
       gradientUnits="userSpaceOnUse"
       id="linearGradient3056"
       xlink:href="#linearGradient2490-3"
       inkscape:collect="always" />
    <linearGradient
       inkscape:collect="always"
       xlink:href="#linearGradient3943-5"
       id="linearGradient2867-5-6"
       gradientUnits="userSpaceOnUse"
       gradientTransform="matrix(0.2817955,0,0,0.2800956,-0.82125928,-0.97782141)"
       x1="24.138529"
       y1="7.0478544"
       x2="24.138529"
       y2="39.268391" />
    <linearGradient
       id="linearGradient3943-5">
      <stop
         id="stop3945-8"
         style="stop-color:#ffffff;stop-opacity:1"
         offset="0" />
      <stop
         id="stop3947-4"
         style="stop-color:#ffffff;stop-opacity:0"
         offset="1" />
    </linearGradient>
    <radialGradient
       r="31.000002"
       fy="51.694645"
       fx="69.447609"
       cy="51.694645"
       cx="69.447609"
       gradientTransform="matrix(0,0.35684158,-0.38820022,0,24.349285,-23.114114)"
       gradientUnits="userSpaceOnUse"
       id="radialGradient3054-1"
       xlink:href="#linearGradient3242-7-0"
       inkscape:collect="always" />
    <linearGradient
       id="linearGradient3242-7-0">
      <stop
         id="stop3244-5-0"
         style="stop-color:#eef87e;stop-opacity:1"
         offset="0" />
      <stop
         id="stop3246-9-1"
         style="stop-color:#cde34f;stop-opacity:1"
         offset="0.26238" />
      <stop
         id="stop3248-7-6"
         style="stop-color:#93b723;stop-opacity:1"
         offset="0.66093999" />
      <stop
         id="stop3250-8-3"
         style="stop-color:#5a7e0d;stop-opacity:1"
         offset="1" />
    </linearGradient>
    <linearGradient
       y2="51.244411"
       x2="72.421684"
       y1="124.75623"
       x1="72.421684"
       gradientTransform="matrix(0.1482266,0,0,0.1494387,-7.5564967,-7.6433189)"
       gradientUnits="userSpaceOnUse"
       id="linearGradient3056-3"
       xlink:href="#linearGradient2490-3-4"
       inkscape:collect="always" />
    <linearGradient
       id="linearGradient2490-3-4">
      <stop
         id="stop2492-3-3"
         style="stop-color:#365f0e;stop-opacity:1"
         offset="0" />
      <stop
         id="stop2494-8-0"
         style="stop-color:#84a718;stop-opacity:1"
         offset="1" />
    </linearGradient>
    <radialGradient
       inkscape:collect="always"
       xlink:href="#linearGradient3668-5-8"
       id="radialGradient3334-6"
       gradientUnits="userSpaceOnUse"
       gradientTransform="matrix(0.30175409,-0.04835969,0.00658636,0.27878538,15.25332,9.1962068)"
       cx="17.058823"
       cy="41.058823"
       fx="14.757765"
       fy="37.841019"
       r="5.7384715" />
    <linearGradient
       id="linearGradient3668-5-8">
      <stop
         id="stop3670-7-8"
         style="stop-color:white;stop-opacity:1"
         offset="0" />
      <stop
         id="stop3672-4-5"
         style="stop-color:white;stop-opacity:0"
         offset="1" />
    </linearGradient>
    <radialGradient
       r="5.7384715"
       fy="37.841019"
       fx="14.757765"
       cy="41.058823"
       cx="17.058823"
       gradientTransform="matrix(0.30175409,-0.04835969,0.00658636,0.27878538,2.2533196,-3.8037936)"
       gradientUnits="userSpaceOnUse"
       id="radialGradient3157"
       xlink:href="#linearGradient3668-5-8"
       inkscape:collect="always" />
    <radialGradient
       r="5.7384715"
       fy="39.027378"
       fx="15.544384"
       cy="41.058823"
       cx="17.058823"
       gradientTransform="matrix(0.28333276,0.05172217,-0.0986169,0.24890446,20.72643,8.8720394)"
       gradientUnits="userSpaceOnUse"
       id="radialGradient5500"
       xlink:href="#linearGradient7067-814-120-245-1"
       inkscape:collect="always" />
    <linearGradient
       id="linearGradient7067-814-120-245-1">
      <stop
         offset="0"
         style="stop-color:#aaaaaa;stop-opacity:1"
         id="stop3877-2" />
      <stop
         offset="1"
         style="stop-color:#4d4d4d;stop-opacity:1"
         id="stop3879-5" />
    </linearGradient>
    <radialGradient
       inkscape:collect="always"
       xlink:href="#linearGradient7067-814-120-245"
       id="radialGradient5481"
       gradientUnits="userSpaceOnUse"
       gradientTransform="matrix(0.28331064,0.05167803,-0.0986092,0.24869207,12.726609,10.881449)"
       cx="17.058823"
       cy="41.058823"
       fx="15.544384"
       fy="39.027378"
       r="5.7384715" />
    <linearGradient
       id="linearGradient7067-814-120-245">
      <stop
         offset="0"
         style="stop-color:#aaaaaa;stop-opacity:1"
         id="stop3877" />
      <stop
         offset="1"
         style="stop-color:#4d4d4d;stop-opacity:1"
         id="stop3879" />
    </linearGradient>
  </defs>
  <g
     id="layer1">
    <path
       id="path23417"
       style="opacity:.3;fill-rule:evenodd;fill:url(#radialGradient2888)"
       d="m23 19.5c0.001 1.933-4.924 3.5-11 3.5-6.0755 0-11.001-1.567-11-3.5-0.00057-1.933 4.9245-3.5 11-3.5s11.001 1.5671 11 3.5z" />
    <path
       id="path2781"
       style="stroke:url(#linearGradient2885);fill:url(#linearGradient2883)"
       d="m22.5 12c0-5.8201-4.68-10.5-10.5-10.5-5.8201 0-10.5 4.6799-10.5 10.5 0 5.82 4.6799 10.5 10.5 10.5 5.8201-0.000001 10.5-4.6799 10.5-10.5zm-7 0c0 1.9711-1.57 3.5-3.5 3.5-1.9713 0-3.5-1.655-3.5-3.5 0-1.8863 1.4638-3.5 3.5-3.5 2.0775 0 3.5 1.4877 3.5 3.5z" />
    <path
       id="path2474"
       style="opacity:.5;fill:#fff"
       d="m12 8.0851c-2.161 0-3.9149 1.7539-3.9149 3.9149s1.7539 3.9149 3.9149 3.9149 3.9149-1.7539 3.9149-3.9149-1.7539-3.9149-3.9149-3.9149zm0 1.9574c1.0805 0 1.9574 0.87694 1.9574 1.9574s-0.87694 1.9574-1.9574 1.9574-1.9574-0.87694-1.9574-1.9574 0.87694-1.9574 1.9574-1.9574z" />
    <path
       id="path3418"
       style="stroke-linejoin:round;stroke:url(#linearGradient2879);fill:none"
       d="m12 8.5c-1.932 0-3.5 1.568-3.5 3.5s1.568 3.5 3.5 3.5 3.5-1.568 3.5-3.5-1.568-3.5-3.5-3.5zm0 1.75c0.966 0 1.75 0.784 1.75 1.75s-0.784 1.75-1.75 1.75-1.75-0.784-1.75-1.75 0.784-1.75 1.75-1.75z" />
    <path
       id="path3281"
       style="opacity:.8;stroke:url(#linearGradient2876);fill:none"
       d="m12 7.5c-2.4943 0-4.5 2.0057-4.5 4.5s2.0057 4.5 4.5 4.5 4.5-2.0057 4.5-4.5-2.0057-4.5-4.5-4.5z" />
    <g
       id="g3527"
       transform="matrix(.48936 0 0 .48936 .2553 .2553)">
      <path
         id="path3296"
         style="opacity:.8;fill:url(#linearGradient2480)"
         d="m15.857 5.7308 4.768 10.613c1.035-0.459 2.17-0.719 3.375-0.719 0.03206 0 0.06178-0.00036 0.09375 0l0.01426-11.62c-2.9422-0.070687-5.543 0.65729-8.2511 1.726z"
         transform="matrix(.99960 .028243 -.028243 .99960 .69241 -.67083)" />
      <path
         id="path3308"
         style="opacity:.8;fill:url(#linearGradient2482)"
         d="m12.121 7.906 6.931 9.3601c0.91311-0.66976 1.9659-1.1671 3.1426-1.4252 0.03132-0.0069 0.06026-0.01359 0.09157-0.02009l-2.429-11.395c-2.889 0.56132-5.3195 1.8556-7.7357 3.4797z" />
      <path
         id="path3310"
         style="opacity:.8;fill:url(#linearGradient2484)"
         d="m8.2524 11.647 9.2137 7.1558c0.70865-0.88326 1.5969-1.6361 2.6667-2.19 0.02847-0.01474 0.05469-0.02872 0.08325-0.0431l-5.35-10.319c-2.645 1.2895-4.7 3.2014-6.6136 5.396z" />
      <path
         id="path3312"
         style="opacity:.8;fill:url(#linearGradient2486)"
         d="m5.6329 16.074c7.1748 2.2422 7.8503 7.0315 12.777 1.7541l-7.91-8.6959c-2.2213 1.9309-3.5867 4.3269-4.8671 6.9419z" />
      <path
         id="path3314"
         style="opacity:.8;fill:url(#linearGradient2488)"
         d="m7.1553 13.193c-1.1831 1.752-1.9077 3.637-2.5251 5.644l11.339 2.975c0.21551-0.763 0.51805-1.5148 0.96875-2.2188 0.01729-0.027 0.04496-0.06702 0.0625-0.09375l-9.8447-6.306z" />
    </g>
    <path
       id="path3272"
       style="opacity:.5;stroke:url(#linearGradient2867);fill:none"
       d="m12 2.4574c-5.2893 0-9.5426 4.2533-9.5426 9.5426s4.2533 9.5426 9.5426 9.5426 9.5426-4.2533 9.5426-9.5426-4.254-9.5426-9.543-9.5426z" />
    <g
       id="g3297"
       transform="matrix(-.48936 0 0 -.48936 23.745 23.74)">
      <path
         id="path3299"
         style="opacity:.8;fill:url(#linearGradient2480)"
         d="m15.857 5.7308 4.768 10.613c1.035-0.459 2.17-0.719 3.375-0.719 0.03206 0 0.06178-0.00036 0.09375 0l0.01426-11.62c-2.9422-0.070687-5.543 0.65729-8.2511 1.726z"
         transform="matrix(.99960 .028243 -.028243 .99960 .69241 -.67083)" />
      <path
         id="path3301"
         style="opacity:.8;fill:url(#linearGradient2482)"
         d="m12.121 7.906 6.931 9.3601c0.91311-0.66976 1.9659-1.1671 3.1426-1.4252 0.03132-0.0069 0.06026-0.01359 0.09157-0.02009l-2.429-11.395c-2.889 0.56132-5.3195 1.8556-7.7357 3.4797z" />
      <path
         id="path3303"
         style="opacity:.8;fill:url(#linearGradient2484)"
         d="m8.2524 11.647 9.2137 7.1558c0.70865-0.88326 1.5969-1.6361 2.6667-2.19 0.02847-0.01474 0.05469-0.02872 0.08325-0.0431l-5.35-10.319c-2.645 1.2895-4.7 3.2014-6.6136 5.396z" />
      <path
         id="path3305"
         style="opacity:.8;fill:url(#linearGradient2486)"
         d="m5.6329 16.074c7.1748 2.2422 7.8503 7.0315 12.777 1.7541l-7.91-8.6959c-2.2213 1.9309-3.5867 4.3269-4.8671 6.9419z" />
      <path
         id="path3307"
         style="opacity:.8;fill:url(#linearGradient2488)"
         d="m7.1553 13.193c-1.1831 1.752-1.9077 3.637-2.5251 5.644l11.339 2.975c0.21551-0.763 0.51805-1.5148 0.96875-2.2188 0.01729-0.027 0.04496-0.06702 0.0625-0.09375l-9.8447-6.306z" />
    </g>
    <path
       sodipodi:type="inkscape:offset"
       inkscape:radius="-0.4825258"
       inkscape:original="M 183.375 222 L 176 223.90625 C 175.446 224.05469 175 224.64521 175 225.21875 L 175 234.3125 C 174.43823 234.01834 173.71674 233.8994 172.96875 234.09375 C 171.61899 234.44446 170.77317 235.5779 171.0625 236.625 C 171.35183 237.6721 172.68149 238.25696 174.03125 237.90625 C 175.10808 237.62645 175.85037 236.8348 175.96875 236 L 176 227.40625 L 183 225.53125 L 183 232.3125 C 182.43823 232.01834 181.71674 231.8994 180.96875 232.09375 C 179.61899 232.44446 178.77317 233.5779 179.0625 234.625 C 179.35183 235.6721 180.68149 236.25696 182.03125 235.90625 C 183.10808 235.62645 183.85037 234.8348 183.96875 234 L 184 222.8125 C 184 222.38234 183.73416 222.06051 183.375 222 z "
       style="color:#000000;fill:#666666;fill-opacity:1;fill-rule:nonzero;stroke:#333333;stroke-width:1;stroke-miterlimit:4;stroke-opacity:1;stroke-dasharray:none;marker:none;visibility:visible;display:inline;overflow:visible;enable-background:accumulate"
       id="path5541"
       d="m 183.3125,222.53125 -7.1875,1.84375 c -0.30752,0.0824 -0.65625,0.52036 -0.65625,0.84375 l 0,9.09375 a 0.48257405,0.48257405 0 0 1 -0.6875,0.4375 c -0.45871,-0.2402 -1.05898,-0.35081 -1.6875,-0.1875 -0.57617,0.14971 -1.04136,0.45145 -1.3125,0.8125 -0.27114,0.36105 -0.35061,0.76088 -0.25,1.125 0.20054,0.72575 1.22627,1.23598 2.375,0.9375 0.91465,-0.23766 1.50878,-0.90083 1.59375,-1.5 l 0.0313,-8.53125 a 0.48257405,0.48257405 0 0 1 0.34375,-0.46875 l 7,-1.875 a 0.48257405,0.48257405 0 0 1 0.59375,0.46875 l 0,6.78125 a 0.48257405,0.48257405 0 0 1 -0.6875,0.4375 c -0.45871,-0.2402 -1.05898,-0.35081 -1.6875,-0.1875 -0.57617,0.14971 -1.04136,0.45145 -1.3125,0.8125 -0.27114,0.36105 -0.35061,0.76088 -0.25,1.125 0.20054,0.72575 1.22627,1.23598 2.375,0.9375 0.91465,-0.23766 1.50878,-0.90083 1.59375,-1.5 l 0.0313,-11.125 c 0,-0.19384 -0.12436,-0.24481 -0.21875,-0.28125 z"
       transform="translate(-159.98934,-214.02429)" />
    <path
       d="m 23.010652,20.247909 a 1.2482536,1.5902755 78.30539 0 1 -3.000002,-0.54764 1.2482536,1.5902755 78.30539 0 1 3.000002,0.54764 z"
       inkscape:connector-curvature="0"
       id="path2937-7"
       style="fill:url(#radialGradient5500);fill-opacity:1;stroke:none" />
    <path
       d="m 15.010649,22.247619 a 1.2472282,1.590101 78.342418 1 1 -2.99977,-0.54718 1.2472282,1.590101 78.342418 0 1 2.99977,0.54718 z"
       inkscape:connector-curvature="0"
       id="path2937"
       style="fill:url(#radialGradient5481);fill-opacity:1;stroke:none" />
    <rect
       style="opacity:0.1;color:#000000;fill:none;stroke:#ffffff;stroke-width:1;stroke-linecap:butt;stroke-linejoin:round;stroke-miterlimit:4;stroke-opacity:1;stroke-dasharray:none;stroke-dashoffset:0;marker:none;visibility:visible;display:inline;overflow:visible;enable-background:accumulate"
       id="rect5543"
       width="7.0147758"
       height="0.032473594"
       x="12.773088"
       y="15.182337"
       transform="matrix(0.96592583,-0.25881905,0.25881905,0.96592583,0,0)" />
  </g>
  <path
     inkscape:connector-curvature="0"
     d="m 9.4029247,6.5265246 c 0,0.87032 -0.775268,1.706288 -1.731608,1.867187 -0.95634,0.160899 -1.731608,-0.414203 -1.731608,-1.284521 0,-0.870319 0.775268,-1.706288 1.731608,-1.867188 0.95634,-0.160897 1.731608,0.414203 1.731608,1.284522 z"
     id="path2716-1"
     style="opacity:0.6;fill:url(#radialGradient3157);fill-opacity:1;stroke:none" />
</svg>
