<?xml version="1.0" encoding="UTF-8" standalone="no"?>
<!-- Created with Inkscape (http://www.inkscape.org/) -->

<svg
   xmlns:dc="http://purl.org/dc/elements/1.1/"
   xmlns:cc="http://creativecommons.org/ns#"
   xmlns:rdf="http://www.w3.org/1999/02/22-rdf-syntax-ns#"
   xmlns:svg="http://www.w3.org/2000/svg"
   xmlns="http://www.w3.org/2000/svg"
   xmlns:xlink="http://www.w3.org/1999/xlink"
   xmlns:sodipodi="http://sodipodi.sourceforge.net/DTD/sodipodi-0.dtd"
   xmlns:inkscape="http://www.inkscape.org/namespaces/inkscape"
   version="1.0"
   width="24"
   height="24"
   id="svg2526"
   inkscape:version="0.48.4 r9939"
   sodipodi:docname="calibrate.svg">
  <sodipodi:namedview
     pagecolor="#ffffff"
     bordercolor="#666666"
     borderopacity="1"
     objecttolerance="10"
     gridtolerance="10"
     guidetolerance="10"
     inkscape:pageopacity="0"
     inkscape:pageshadow="2"
     inkscape:window-width="1855"
     inkscape:window-height="1056"
     id="namedview121"
     showgrid="false"
     inkscape:zoom="38.5"
     inkscape:cx="12"
     inkscape:cy="12"
     inkscape:window-x="65"
     inkscape:window-y="24"
     inkscape:window-maximized="1"
     inkscape:current-layer="svg2526">
    <inkscape:grid
       type="xygrid"
       id="grid3136"
       empspacing="5"
       visible="true"
       enabled="true"
       snapvisiblegridlinesonly="true" />
  </sodipodi:namedview>
  <metadata
     id="metadata58">
    <rdf:RDF>
      <cc:Work
         rdf:about="">
        <dc:format>image/svg+xml</dc:format>
        <dc:type
           rdf:resource="http://purl.org/dc/dcmitype/StillImage" />
        <dc:title></dc:title>
      </cc:Work>
    </rdf:RDF>
  </metadata>
  <defs
     id="defs2528">
    <linearGradient
       id="linearGradient5060">
      <stop
         id="stop5062"
         style="stop-color:#000000;stop-opacity:1"
         offset="0" />
      <stop
         id="stop5064"
         style="stop-color:#000000;stop-opacity:0"
         offset="1" />
    </linearGradient>
    <linearGradient
       id="linearGradient5048">
      <stop
         id="stop5050"
         style="stop-color:#000000;stop-opacity:0"
         offset="0" />
      <stop
         id="stop5056"
         style="stop-color:#000000;stop-opacity:1"
         offset="0.5" />
      <stop
         id="stop5052"
         style="stop-color:#000000;stop-opacity:0"
         offset="1" />
    </linearGradient>
    <linearGradient
       id="linearGradient2867-449-88-871-390-598-476-591-434-148-57-177-8-3-3-6-4-8-8-8-5-7">
      <stop
         id="stop3750-1-0-7-6-6-1-3-9-3-9"
         style="stop-color:#505050;stop-opacity:1"
         offset="0" />
      <stop
         id="stop3752-3-7-4-0-32-8-923-0-7-0"
         style="stop-color:#2b2b2b;stop-opacity:1"
         offset="0.26238" />
      <stop
         id="stop3754-1-8-5-2-7-6-7-1-9-1"
         style="stop-color:#0a0a0a;stop-opacity:1"
         offset="0.704952" />
      <stop
         id="stop3756-1-6-2-6-6-1-96-6-0-1"
         style="stop-color:#000000;stop-opacity:1"
         offset="1" />
    </linearGradient>
    <linearGradient
       id="linearGradient3462">
      <stop
         id="stop3464"
         style="stop-color:#ffffff;stop-opacity:1"
         offset="0" />
      <stop
         id="stop3466"
         style="stop-color:#ffffff;stop-opacity:0.23529412"
         offset="0.03457849" />
      <stop
         id="stop3468"
         style="stop-color:#ffffff;stop-opacity:0.15686275"
         offset="0.96375686" />
      <stop
         id="stop3470"
         style="stop-color:#ffffff;stop-opacity:0.39215687"
         offset="1" />
    </linearGradient>
    <linearGradient
       id="linearGradient3680-6-6-6-3-7-1-8-8-6-4">
      <stop
         id="stop3682-4-6-1-3-7-7-4-0-3-2"
         style="stop-color:#dcdcdc;stop-opacity:1"
         offset="0" />
      <stop
         id="stop3684-8-5-8-0-2-6-8-4-3-2"
         style="stop-color:#ffffff;stop-opacity:1"
         offset="1" />
    </linearGradient>
    <linearGradient
       inkscape:collect="always"
       xlink:href="#linearGradient3680-6-6-6-3-7-1-8-8-6-4"
       id="linearGradient3118"
       gradientUnits="userSpaceOnUse"
       gradientTransform="matrix(0.94777285,0,0,0.9730468,-33.586838,-7.6485)"
       x1="20"
       y1="26.000008"
       x2="20"
       y2="13.000008" />
    <radialGradient
       inkscape:collect="always"
       xlink:href="#linearGradient5060"
       id="radialGradient3127"
       gradientUnits="userSpaceOnUse"
       gradientTransform="matrix(0.01927752,0,0,0.01647059,9.982045,13.961131)"
       cx="605.71429"
       cy="486.64789"
       fx="605.71429"
       fy="486.64789"
       r="117.14286" />
    <radialGradient
       inkscape:collect="always"
       xlink:href="#linearGradient5060"
       id="radialGradient3130"
       gradientUnits="userSpaceOnUse"
       gradientTransform="matrix(-0.01927752,0,0,0.01647059,14.017952,13.961131)"
       cx="605.71429"
       cy="486.64789"
       fx="605.71429"
       fy="486.64789"
       r="117.14286" />
    <linearGradient
       inkscape:collect="always"
       xlink:href="#linearGradient5048"
       id="linearGradient3134"
       gradientUnits="userSpaceOnUse"
       gradientTransform="matrix(0.05633073,0,0,0.01647059,-4.3595357,13.961096)"
       x1="302.85715"
       y1="366.64789"
       x2="302.85715"
       y2="609.50507" />
    <radialGradient
       inkscape:collect="always"
       xlink:href="#linearGradient2867-449-88-871-390-598-476-591-434-148-57-177-8-3-3-6-4-8-8-8-5-7"
       id="radialGradient3138"
       gradientUnits="userSpaceOnUse"
       gradientTransform="matrix(0,5.8591313,-8.919496,0,105.47297,-55.953548)"
       cx="9.5498028"
       cy="10.479625"
       fx="9.5498028"
       fy="10.479625"
       r="12.671875" />
    <linearGradient
       inkscape:collect="always"
       xlink:href="#linearGradient3462"
       id="linearGradient3140"
       gradientUnits="userSpaceOnUse"
       gradientTransform="matrix(0.78378379,0,0,0.62162162,-2.8108146,-4.9189177)"
       x1="40.290417"
       y1="5.4143372"
       x2="40.290417"
       y2="42.437775" />
    <linearGradient
       inkscape:collect="always"
       xlink:href="#linearGradient3924-64"
       id="linearGradient3101"
       gradientUnits="userSpaceOnUse"
       gradientTransform="matrix(0.45945947,0,0,0.45945947,0.9742189,0.9717506)"
       x1="23.99999"
       y1="4.999989"
       x2="23.99999"
       y2="43" />
    <linearGradient
       id="linearGradient3924-64">
      <stop
         offset="0"
         style="stop-color:#ffffff;stop-opacity:1"
         id="stop3926-3-6" />
      <stop
         offset="0.06316455"
         style="stop-color:#ffffff;stop-opacity:0.23529412"
         id="stop3928-0" />
      <stop
         offset="0.95056331"
         style="stop-color:#ffffff;stop-opacity:0.15686275"
         id="stop3930-3-59" />
      <stop
         offset="1"
         style="stop-color:#ffffff;stop-opacity:0.39215687"
         id="stop3932-0" />
    </linearGradient>
    <linearGradient
       y2="43"
       x2="23.99999"
       y1="4.999989"
       x1="23.99999"
       gradientTransform="matrix(0.62162164,0,0,0.62162164,27.298203,-6.3512651)"
       gradientUnits="userSpaceOnUse"
       id="linearGradient3203"
       xlink:href="#linearGradient3924-0"
       inkscape:collect="always" />
    <radialGradient
       inkscape:collect="always"
       xlink:href="#linearGradient2867-449-88-871-390-598-476-591-434-148-57-177-8-3-3-6-4-8-8-8-5-6-7"
       id="radialGradient3173"
       gradientUnits="userSpaceOnUse"
       gradientTransform="matrix(0,4.4529398,-5.4667877,0,66.838269,-38.124667)"
       cx="7.1183534"
       cy="9.9571075"
       fx="7.1183534"
       fy="9.9571075"
       r="12.671875" />
    <linearGradient
       id="linearGradient2867-449-88-871-390-598-476-591-434-148-57-177-8-3-3-6-4-8-8-8-5-6-7">
      <stop
         id="stop3750-1-0-7-6-6-1-3-9-3-0-9"
         style="stop-color:#505050;stop-opacity:1"
         offset="0" />
      <stop
         id="stop3752-3-7-4-0-32-8-923-0-7-7-5"
         style="stop-color:#2b2b2b;stop-opacity:1"
         offset="0.26238" />
      <stop
         id="stop3754-1-8-5-2-7-6-7-1-9-1-6"
         style="stop-color:#0a0a0a;stop-opacity:1"
         offset="0.704952" />
      <stop
         id="stop3756-1-6-2-6-6-1-96-6-0-6-5"
         style="stop-color:#000000;stop-opacity:1"
         offset="1" />
    </linearGradient>
    <linearGradient
       id="linearGradient3924-0">
      <stop
         id="stop3926-6"
         style="stop-color:#ffffff;stop-opacity:1"
         offset="0" />
      <stop
         id="stop3928-3"
         style="stop-color:#ffffff;stop-opacity:0.23529412"
         offset="0.06316455" />
      <stop
         id="stop3930-2"
         style="stop-color:#ffffff;stop-opacity:0.15686275"
         offset="0.95056331" />
      <stop
         id="stop3932-62"
         style="stop-color:#ffffff;stop-opacity:0.39215687"
         offset="1" />
    </linearGradient>
    <linearGradient
       y2="13.000008"
       x2="20"
       y1="26.000008"
       x1="20"
       gradientTransform="matrix(0.66257291,0,0,0.66257291,-2.4539575,-4.5672473)"
       gradientUnits="userSpaceOnUse"
       id="linearGradient3880"
       xlink:href="#linearGradient3680-6-6-6-3-7-4"
       inkscape:collect="always" />
    <linearGradient
       y2="13.000008"
       x2="20"
       y1="26.000008"
       x1="20"
       gradientTransform="matrix(0.46525496,0,0,0.46525496,0.2208768,-0.3282085)"
       gradientUnits="userSpaceOnUse"
       id="linearGradient3875"
       xlink:href="#linearGradient3680-6-6-6-3-7-4"
       inkscape:collect="always" />
    <linearGradient
       id="linearGradient3680-6-6-6-3-7-4">
      <stop
         offset="0"
         style="stop-color:#dcdcdc;stop-opacity:1"
         id="stop3682-4-6-1-3-7-5" />
      <stop
         offset="1"
         style="stop-color:#ffffff;stop-opacity:1"
         id="stop3684-8-5-8-0-2-3" />
    </linearGradient>
    <linearGradient
       id="linearGradient3702-501-757">
      <stop
         offset="0"
         style="stop-color:#181818;stop-opacity:0"
         id="stop2895" />
      <stop
         offset="0.5"
         style="stop-color:#181818;stop-opacity:1"
         id="stop2897" />
      <stop
         offset="1"
         style="stop-color:#181818;stop-opacity:0"
         id="stop2899" />
    </linearGradient>
    <linearGradient
       gradientUnits="userSpaceOnUse"
       xlink:href="#linearGradient3702-501-757"
       id="linearGradient3156"
       y2="39.999443"
       x2="25.058096"
       y1="47.027729"
       x1="25.058096" />
    <linearGradient
       id="linearGradient3688-464-309">
      <stop
         offset="0"
         style="stop-color:#181818;stop-opacity:1"
         id="stop2889" />
      <stop
         offset="1"
         style="stop-color:#181818;stop-opacity:0"
         id="stop2891" />
    </linearGradient>
    <radialGradient
       gradientTransform="matrix(2.003784,0,0,1.4,-20.01187,-104.4)"
       gradientUnits="userSpaceOnUse"
       xlink:href="#linearGradient3688-464-309"
       id="radialGradient3154"
       fy="43.5"
       fx="4.9929786"
       r="2.5"
       cy="43.5"
       cx="4.9929786" />
    <linearGradient
       id="linearGradient3688-166-749">
      <stop
         offset="0"
         style="stop-color:#181818;stop-opacity:1"
         id="stop2883" />
      <stop
         offset="1"
         style="stop-color:#181818;stop-opacity:0"
         id="stop2885" />
    </linearGradient>
    <radialGradient
       gradientTransform="matrix(2.003784,0,0,1.4,27.98813,-17.4)"
       gradientUnits="userSpaceOnUse"
       xlink:href="#linearGradient3688-166-749"
       id="radialGradient3152"
       fy="43.5"
       fx="4.9929786"
       r="2.5"
       cy="43.5"
       cx="4.9929786" />
    <linearGradient
       inkscape:collect="always"
       xlink:href="#linearGradient3924-64"
       id="linearGradient3315"
       gradientUnits="userSpaceOnUse"
       gradientTransform="matrix(0.56756761,0,0,0.43243246,-1.6216276,3.1216249)"
       x1="23.99999"
       y1="4.999989"
       x2="23.99999"
       y2="43" />
    <linearGradient
       inkscape:collect="always"
       xlink:href="#linearGradient3924-0"
       id="linearGradient3318"
       gradientUnits="userSpaceOnUse"
       gradientTransform="matrix(0.62162164,0,0,0.62162164,61.689641,-7.1350751)"
       x1="23.99999"
       y1="4.999989"
       x2="23.99999"
       y2="43" />
    <linearGradient
       inkscape:collect="always"
       xlink:href="#linearGradient3680-6-6-6-3-7-4"
       id="linearGradient3321"
       gradientUnits="userSpaceOnUse"
       gradientTransform="matrix(0.66257291,0,0,0.66257291,31.93748,-5.3510573)"
       x1="20"
       y1="26.000008"
       x2="20"
       y2="13.000008" />
    <linearGradient
       inkscape:collect="always"
       xlink:href="#linearGradient3680-6-6-6-3-7-4"
       id="linearGradient3326"
       gradientUnits="userSpaceOnUse"
       gradientTransform="matrix(0.46525496,0,0,0.46525496,34.612315,-1.1120185)"
       x1="20"
       y1="26.000008"
       x2="20"
       y2="13.000008" />
    <radialGradient
       inkscape:collect="always"
       xlink:href="#linearGradient2867-449-88-871-390-598-476-591-434-148-57-177-8-3-3-6-4-8-8-8-5-6-7"
       id="radialGradient3331"
       gradientUnits="userSpaceOnUse"
       gradientTransform="matrix(0,4.2185745,-6.6176904,0,78.383172,-33.986552)"
       cx="7.1183534"
       cy="9.9571075"
       fx="7.1183534"
       fy="9.9571075"
       r="12.671875" />
  </defs>
  <path
     inkscape:connector-curvature="0"
     id="rect2879"
     d="m 2.4001523,20 19.1996947,0 0,4 -19.1996947,0 z"
     style="opacity:0.4;fill:url(#linearGradient3134);fill-opacity:1;fill-rule:nonzero;stroke:none;stroke-width:1;marker:none;visibility:visible;display:inline;overflow:visible"
     sodipodi:nodetypes="ccccc" />
  <path
     inkscape:connector-curvature="0"
     style="opacity:0.4;fill:url(#radialGradient3130);fill-opacity:1;fill-rule:nonzero;stroke:none;stroke-width:1;marker:none;visibility:visible;display:inline;overflow:visible"
     id="path2881"
     d="m 2.4001523,20.000173 0,3.99978 c -0.9927447,0.0075 -2.3999731,-0.896148 -2.3999731,-2.000148 0,-1.103997 1.1078281,-1.99963 2.3999731,-1.999632 z"
     sodipodi:nodetypes="ccsc" />
  <path
     inkscape:connector-curvature="0"
     style="opacity:0.4;fill:url(#radialGradient3127);fill-opacity:1;fill-rule:nonzero;stroke:none;stroke-width:1;marker:none;visibility:visible;display:inline;overflow:visible"
     id="path2883"
     d="m 21.599848,20.000173 0,3.99978 c 0.992744,0.0075 2.399973,-0.896148 2.399973,-2.000148 0,-1.103997 -1.107828,-1.99963 -2.399973,-1.999632 z"
     sodipodi:nodetypes="ccsc" />
  <rect
     style="opacity:0.9;color:#000000;fill:url(#radialGradient3331);fill-opacity:1;fill-rule:nonzero;stroke:none;stroke-width:0.99999994;marker:none;visibility:visible;display:inline;overflow:visible;enable-background:accumulate"
     id="rect5505-21-6"
     y="4.5"
     x="0.5"
     ry="1"
     rx="1"
     height="18"
     width="23" />
  <path
     style="opacity:0.7;color:#000000;fill:none;stroke:#000000;stroke-width:0.99999994;stroke-linecap:round;stroke-linejoin:round;stroke-miterlimit:4;stroke-opacity:1;stroke-dashoffset:0;marker:none;visibility:visible;display:inline;overflow:visible;enable-background:accumulate"
     d="m 1.5508443,4.499999 20.8983047,0 c 0.58217,0 1.050848,0.4744681 1.050848,1.0638297 l 0,15.8723383 c 0,0.589362 -0.468678,1.06383 -1.050848,1.06383 l -20.8983047,0 c -0.58216948,0 -1.05084743,-0.474468 -1.05084743,-1.06383 l 0,-15.8723383 c 0,-0.5893616 0.46867795,-1.0638297 1.05084743,-1.0638297 z"
     id="rect5505-21-3-8-9-1-1"
     inkscape:connector-curvature="0"
     sodipodi:nodetypes="sssssssss" />
  <rect
     width="21"
     height="16"
     x="1.5"
     y="5.5"
     id="rect6741-9-5"
     style="opacity:0.3;fill:none;stroke:url(#linearGradient3315);stroke-width:0.99999994;stroke-linecap:round;stroke-linejoin:round;stroke-miterlimit:4;stroke-opacity:1;stroke-dasharray:none;stroke-dashoffset:0" />
  <g
     transform="matrix(0.75,0,0,0.75,0,3.75)"
     id="g4024">
    <path
       d="M 15.5625,3 C 14.174163,3 13,4.1741631 13,5.5625 L 13,5.78125 12.84375,5.625 C 12.411845,5.1930967 11.634842,4.875 11.0625,4.875 10.490161,4.875 9.8160252,5.0589748 9.25,5.625 L 8.625,6.25 c -0.9511267,0.9511267 -0.9511267,2.6426233 0,3.59375 L 8.78125,10 8.5625,10 C 7.1741631,10 6,11.174163 6,12.5625 l 0,0.875 C 6,14.825837 7.1741631,16 8.5625,16 L 8.78125,16 8.625,16.15625 c -0.9511285,0.951128 -0.9511285,2.642622 0,3.59375 l 0.625,0.625 c 0.951128,0.951128 2.642622,0.951128 3.59375,0 L 13,20.21875 13,20.4375 C 13,21.825837 14.174163,23 15.5625,23 l 0.875,0 C 17.825837,23 19,21.825837 19,20.4375 l 0,-0.21875 0.15625,0.15625 c 0.951128,0.951128 2.642622,0.951128 3.59375,0 l 0.625,-0.625 c 0.951128,-0.951128 0.951128,-2.642622 0,-3.59375 L 23.21875,16 23.4375,16 C 24.825837,16 26,14.825837 26,13.4375 l 0,-0.875 C 26,11.174163 24.825837,10 23.4375,10 L 23.21875,10 23.375,9.84375 c 0.951126,-0.951127 0.951126,-2.642623 0,-3.59375 L 22.75,5.625 c -0.566024,-0.5660215 -1.240158,-0.75 -1.8125,-0.75 -0.572339,0 -1.349343,0.3180932 -1.78125,0.75 L 19,5.78125 19,5.5625 C 19,4.1741631 17.825837,3 16.4375,3 l -0.875,0 z m 0.46875,9.90625 c -0.01459,0 0.0625,0.08416 0.0625,0.03125 C 16.09375,12.88458 15.978323,13 16.03125,13 16.084209,13 16,12.922861 16,12.9375 c 0,0.01461 0.04586,-0.03125 0.03125,-0.03125 z"
       inkscape:connector-curvature="0"
       id="path4004-5"
       style="opacity:0.02999998;color:#bebebe;fill:#ffffff;enable-background:new" />
    <path
       d="m 15.5625,3.96875 c -0.865641,0 -1.59375,0.7281093 -1.59375,1.59375 l 0,1.90625 c 0,0.3235482 0.170975,0.5892899 0.34375,0.84375 C 14.156612,8.370641 14.023175,8.4582969 13.875,8.53125 13.827291,8.205923 13.738547,7.8947974 13.5,7.65625 L 12.15625,6.3125 C 11.88053,6.0367808 11.426797,5.84375 11.0625,5.84375 c -0.364295,0 -0.780269,0.124019 -1.125,0.46875 l -0.625,0.625 c -0.5963684,0.5963684 -0.5963684,1.6223816 0,2.21875 L 10.65625,10.5 c 0.245745,0.245745 0.570262,0.331783 0.90625,0.375 -0.07525,0.162234 -0.129861,0.329044 -0.1875,0.5 -0.274915,-0.223407 -0.595688,-0.40625 -0.96875,-0.40625 l -1.84375,0 c -0.8656407,0 -1.59375,0.728109 -1.59375,1.59375 l 0,0.875 c 0,0.865641 0.7281093,1.59375 1.59375,1.59375 l 1.84375,0 c 0.373062,0 0.693835,-0.182843 0.96875,-0.40625 0.06277,0.172853 0.138044,0.336328 0.21875,0.5 -0.326564,0.02902 -0.67161,0.109102 -0.96875,0.40625 l -1.3125,1.3125 c -0.5963693,0.596369 -0.5963693,1.622381 0,2.21875 l 0.625,0.625 c 0.596369,0.596369 1.622381,0.596369 2.21875,0 l 1.3125,-1.3125 c 0.264073,-0.264073 0.376041,-0.637169 0.40625,-1 0.166073,0.08265 0.324188,0.154925 0.5,0.21875 -0.23447,0.27832 -0.40625,0.616694 -0.40625,1 l 0,1.84375 c 0,0.865641 0.728109,1.59375 1.59375,1.59375 l 0.875,0 c 0.865641,0 1.59375,-0.728109 1.59375,-1.59375 l 0,-1.84375 c 0,-0.383306 -0.17178,-0.72168 -0.40625,-1 0.173038,-0.05997 0.335911,-0.109521 0.5,-0.1875 0.03549,0.352552 0.149235,0.711735 0.40625,0.96875 l 1.3125,1.3125 c 0.596369,0.596369 1.622381,0.596369 2.21875,0 l 0.625,-0.625 c 0.596369,-0.596369 0.596369,-1.622381 0,-2.21875 l -1.3125,-1.3125 c -0.285576,-0.285576 -0.621393,-0.339775 -0.9375,-0.375 0.08459,-0.16582 0.15281,-0.324439 0.21875,-0.5 0.261121,0.187107 0.536939,0.375 0.875,0.375 l 1.90625,0 c 0.865641,0 1.59375,-0.728109 1.59375,-1.59375 l 0,-0.875 c 0,-0.865641 -0.728109,-1.59375 -1.59375,-1.59375 l -1.90625,0 c -0.323548,0 -0.58929,0.170975 -0.84375,0.34375 -0.05612,-0.157611 -0.08497,-0.318814 -0.15625,-0.46875 0.299236,-0.05717 0.591432,-0.122682 0.8125,-0.34375 L 22.6875,9.15625 c 0.596368,-0.5963686 0.596368,-1.6223814 0,-2.21875 l -0.625,-0.625 c -0.34473,-0.3447289 -0.760703,-0.46875 -1.125,-0.46875 -0.364295,0 -0.818029,0.1930289 -1.09375,0.46875 L 18.5,7.65625 C 18.278933,7.8773177 18.213423,8.1695138 18.15625,8.46875 18.003161,8.395873 17.848402,8.3385713 17.6875,8.28125 17.850426,8.0318098 18.03125,7.7820539 18.03125,7.46875 l 0,-1.90625 c 0,-0.8656407 -0.728109,-1.59375 -1.59375,-1.59375 l -0.875,0 z m 0.46875,8.0625 c 0.556833,0 0.9375,0.369139 0.9375,0.90625 0,0.537099 -0.40041,0.9375 -0.9375,0.9375 -0.537083,0 -0.90625,-0.380703 -0.90625,-0.9375 0,-0.556804 0.349438,-0.90625 0.90625,-0.90625 z"
       inkscape:connector-curvature="0"
       id="path4004"
       style="opacity:0.1;color:#bebebe;fill:#ffffff;enable-background:new" />
    <g
       transform="translate(-73.000251,-312)"
       id="layer9"
       style="fill:#ffffff">
      <g
         transform="translate(0,40)"
         id="g4927-4-0"
         style="fill:#ffffff">
        <rect
           width="2.9723001"
           height="2"
           rx="0.5625"
           ry="0.5625"
           x="81"
           y="284"
           id="rect4906-43-6"
           style="color:#bebebe;fill:#ffffff;enable-background:new" />
        <rect
           width="3.0165"
           height="2"
           rx="0.5625"
           ry="0.5625"
           x="93.984001"
           y="284"
           id="rect4906-4-6-6"
           style="color:#bebebe;fill:#ffffff;enable-background:new" />
      </g>
      <g
         transform="matrix(0.70711,-0.70711,0.70711,0.70711,-175.46,186.41)"
         id="g33239"
         style="fill:#ffffff">
        <rect
           width="2.9723001"
           height="2"
           rx="0.5625"
           ry="0.5625"
           x="81"
           y="284"
           id="rect33241"
           style="color:#bebebe;fill:#ffffff;enable-background:new" />
        <rect
           width="3.0165"
           height="2"
           rx="0.5625"
           ry="0.5625"
           x="93.984001"
           y="284"
           id="rect33243"
           style="color:#bebebe;fill:#ffffff;enable-background:new" />
      </g>
      <g
         transform="matrix(0,-1,1,0,-196,414)"
         id="g33245"
         style="fill:#ffffff">
        <rect
           width="2.9723001"
           height="2"
           rx="0.5625"
           ry="0.5625"
           x="81"
           y="284"
           id="rect33247"
           style="color:#bebebe;fill:#ffffff;enable-background:new" />
        <rect
           width="3.0165"
           height="2"
           rx="0.5625"
           ry="0.5625"
           x="93.984001"
           y="284"
           id="rect33249"
           style="color:#bebebe;fill:#ffffff;enable-background:new" />
      </g>
      <g
         transform="matrix(-0.70711,-0.70711,0.70711,-0.70711,-49.593,589.46)"
         id="g33251"
         style="fill:#ffffff">
        <rect
           width="2.9723001"
           height="2"
           rx="0.5625"
           ry="0.5625"
           x="81"
           y="284"
           id="rect33253"
           style="color:#bebebe;fill:#ffffff;enable-background:new" />
        <rect
           width="3.0165"
           height="2"
           rx="0.5625"
           ry="0.5625"
           x="93.984001"
           y="284"
           id="rect33255"
           style="color:#bebebe;fill:#ffffff;enable-background:new" />
      </g>
      <path
         d="m 89.035,320.99 c -2.1718,0 -3.9469,1.7751 -3.9469,3.9469 0,2.1718 1.7751,3.9757 3.9469,3.9757 2.1718,0 3.9757,-1.8039 3.9757,-3.9757 0,-2.1718 -1.8039,-3.9469 -3.9757,-3.9469 z m 0,2.0166 c 1.0909,0 1.959,0.83931 1.959,1.9302 0,1.09089 -0.86812,1.959 -1.959,1.959 -1.09088,0 -1.9302,-0.86812 -1.9302,-1.959 0,-1.09088 0.83931,-1.9302 1.9302,-1.9302 z"
         inkscape:connector-curvature="0"
         id="path32729"
         style="text-indent:0;text-transform:none;block-progression:tb;color:#000000;fill:#ffffff" />
    </g>
  </g>
</svg>
