<?xml version="1.0" encoding="UTF-8" standalone="no"?>
<!-- Created with Inkscape (http://www.inkscape.org/) -->

<svg
   xmlns:dc="http://purl.org/dc/elements/1.1/"
   xmlns:cc="http://creativecommons.org/ns#"
   xmlns:rdf="http://www.w3.org/1999/02/22-rdf-syntax-ns#"
   xmlns:svg="http://www.w3.org/2000/svg"
   xmlns="http://www.w3.org/2000/svg"
   xmlns:xlink="http://www.w3.org/1999/xlink"
   xmlns:sodipodi="http://sodipodi.sourceforge.net/DTD/sodipodi-0.dtd"
   xmlns:inkscape="http://www.inkscape.org/namespaces/inkscape"
   id="svg2890"
   height="24"
   width="24"
   version="1.0"
   inkscape:version="0.48.3.1 r9886"
   sodipodi:docname="audio-cd-duplicate.svg">
  <metadata
     id="metadata63">
    <rdf:RDF>
      <cc:Work
         rdf:about="">
        <dc:format>image/svg+xml</dc:format>
        <dc:type
           rdf:resource="http://purl.org/dc/dcmitype/StillImage" />
        <dc:title />
      </cc:Work>
    </rdf:RDF>
  </metadata>
  <sodipodi:namedview
     pagecolor="#ffffff"
     bordercolor="#666666"
     borderopacity="1"
     objecttolerance="10"
     gridtolerance="10"
     guidetolerance="10"
     inkscape:pageopacity="0"
     inkscape:pageshadow="2"
     inkscape:window-width="746"
     inkscape:window-height="548"
     id="namedview61"
     showgrid="false"
     inkscape:zoom="9.8333333"
     inkscape:cx="12"
     inkscape:cy="12"
     inkscape:window-x="586"
     inkscape:window-y="288"
     inkscape:window-maximized="0"
     inkscape:current-layer="svg2890" />
  <defs
     id="defs2892">
    <radialGradient
       id="radialGradient2888"
       gradientUnits="userSpaceOnUse"
       cy="41.636"
       cx="23.335"
       gradientTransform="matrix(.48614 0 0 .15467 .65625 13.06)"
       r="22.627">
      <stop
         id="stop23421"
         offset="0" />
      <stop
         id="stop23423"
         style="stop-opacity:0"
         offset="1" />
    </radialGradient>
    <linearGradient
       id="linearGradient2885"
       y2="45.033"
       gradientUnits="userSpaceOnUse"
       x2="-21.916"
       gradientTransform="matrix(.51220 0 0 .51220 25.453 -.29268)"
       y1="3"
       x1="-21.916">
      <stop
         id="stop3774"
         style="stop-color:#b4b4b4"
         offset="0" />
      <stop
         id="stop3776"
         style="stop-color:#969696"
         offset="1" />
    </linearGradient>
    <linearGradient
       id="linearGradient2883"
       y2="14.203"
       gradientUnits="userSpaceOnUse"
       x2="35.391"
       gradientTransform="matrix(0 .60001 -.60001 0 25.86 -2.4001)"
       y1="32.416"
       x1="12.274">
      <stop
         id="stop3265"
         style="stop-color:#dedbde"
         offset="0" />
      <stop
         id="stop3267"
         style="stop-color:#e6e6e6"
         offset=".5" />
      <stop
         id="stop3269"
         style="stop-color:#d2d2d2"
         offset="1" />
    </linearGradient>
    <linearGradient
       id="linearGradient2879"
       y2="32.509"
       gradientUnits="userSpaceOnUse"
       x2="21.448"
       gradientTransform="matrix(.43750 0 0 .43750 1.5 1.5)"
       y1="15.5"
       x1="21.448">
      <stop
         id="stop3430"
         style="stop-color:#aaa"
         offset="0" />
      <stop
         id="stop3432"
         style="stop-color:#d4d4d4"
         offset="1" />
    </linearGradient>
    <linearGradient
       id="linearGradient2876"
       y2="45.962"
       xlink:href="#linearGradient6036"
       gradientUnits="userSpaceOnUse"
       x2="18.203"
       gradientTransform="matrix(.22730 0 0 .22730 6.4659 6.3175)"
       y1="4.0378"
       x1="18.776" />
    <linearGradient
       id="linearGradient2488"
       y2="20.613"
       xlink:href="#linearGradient3519"
       spreadMethod="reflect"
       gradientUnits="userSpaceOnUse"
       x2="9.7298"
       y1="17.886"
       x1="10.609" />
    <linearGradient
       id="linearGradient2486"
       y2="13.462"
       xlink:href="#linearGradient3511"
       spreadMethod="reflect"
       gradientUnits="userSpaceOnUse"
       x2="14.609"
       y1="16.188"
       x1="12.372" />
    <linearGradient
       id="linearGradient2484"
       y2="10.732"
       xlink:href="#linearGradient3503"
       spreadMethod="reflect"
       gradientUnits="userSpaceOnUse"
       x2="16.994"
       y1="13.046"
       x1="14.085" />
    <linearGradient
       id="linearGradient2482"
       y2="9.7956"
       xlink:href="#linearGradient3495"
       spreadMethod="reflect"
       gradientUnits="userSpaceOnUse"
       x2="21.047"
       y1="11.2"
       x1="17.495" />
    <linearGradient
       id="linearGradient2480"
       y2="9.8622"
       xlink:href="#linearGradient3487"
       spreadMethod="reflect"
       gradientUnits="userSpaceOnUse"
       x2="24.274"
       y1="10.775"
       x1="20.58" />
    <linearGradient
       id="linearGradient6036">
      <stop
         id="stop6038"
         style="stop-color:#fff"
         offset="0" />
      <stop
         id="stop6040"
         style="stop-color:#fff;stop-opacity:0"
         offset="1" />
    </linearGradient>
    <linearGradient
       id="linearGradient2867"
       y2="54.698"
       xlink:href="#linearGradient6036"
       gradientUnits="userSpaceOnUse"
       x2="48.799"
       gradientTransform="matrix(.48201 0 0 .48201 .26461 -.050137)"
       y1="3.61"
       x1="10.502" />
    <linearGradient
       id="linearGradient3519">
      <stop
         id="stop3521"
         style="stop-color:#fcd9cd"
         offset="0" />
      <stop
         id="stop3523"
         style="stop-color:#fcd9cd;stop-opacity:0"
         offset="1" />
    </linearGradient>
    <linearGradient
       id="linearGradient3511">
      <stop
         id="stop3513"
         style="stop-color:#ebeec7"
         offset="0" />
      <stop
         id="stop3515"
         style="stop-color:#ebeec7;stop-opacity:0"
         offset="1" />
    </linearGradient>
    <linearGradient
       id="linearGradient3503">
      <stop
         id="stop3505"
         style="stop-color:#c4ebdd"
         offset="0" />
      <stop
         id="stop3507"
         style="stop-color:#c4ebdd;stop-opacity:0"
         offset="1" />
    </linearGradient>
    <linearGradient
       id="linearGradient3495">
      <stop
         id="stop3497"
         style="stop-color:#c1cbe4"
         offset="0" />
      <stop
         id="stop3499"
         style="stop-color:#c1cbe4;stop-opacity:0"
         offset="1" />
    </linearGradient>
    <linearGradient
       id="linearGradient3487">
      <stop
         id="stop3489"
         style="stop-color:#e6cde2"
         offset="0" />
      <stop
         id="stop3491"
         style="stop-color:#e6cde2;stop-opacity:0"
         offset="1" />
    </linearGradient>
    <radialGradient
       cx="24.837126"
       cy="36.421127"
       r="15.644737"
       fx="24.837126"
       fy="36.421127"
       id="radialGradient4123"
       xlink:href="#linearGradient8662"
       gradientUnits="userSpaceOnUse"
       gradientTransform="matrix(1,0,0,0.536723,0,16.87306)" />
    <linearGradient
       id="linearGradient8662">
      <stop
         id="stop8664"
         style="stop-color:#000000;stop-opacity:1"
         offset="0" />
      <stop
         id="stop8666"
         style="stop-color:#000000;stop-opacity:0"
         offset="1" />
    </linearGradient>
    <linearGradient
       x1="25.46862"
       y1="32.841259"
       x2="25.46862"
       y2="2.7235911"
       id="linearGradient4125"
       xlink:href="#linearGradient3242-7"
       gradientUnits="userSpaceOnUse"
       gradientTransform="matrix(0.27961814,0,0,-0.26116043,-25.742503,15.954055)" />
    <linearGradient
       id="linearGradient3242-7">
      <stop
         id="stop3244-5"
         style="stop-color:#eef87e;stop-opacity:1"
         offset="0" />
      <stop
         id="stop3246-9"
         style="stop-color:#cde34f;stop-opacity:1"
         offset="0.26238" />
      <stop
         id="stop3248-7"
         style="stop-color:#93b723;stop-opacity:1"
         offset="0.66093999" />
      <stop
         id="stop3250-8"
         style="stop-color:#5a7e0d;stop-opacity:1"
         offset="1" />
    </linearGradient>
    <linearGradient
       x1="36.246174"
       y1="2.9291136"
       x2="36.246174"
       y2="42.788223"
       id="linearGradient4128"
       xlink:href="#linearGradient4121"
       gradientUnits="userSpaceOnUse"
       gradientTransform="matrix(0.27961814,0,0,-0.26116043,-25.742503,15.954055)" />
    <linearGradient
       id="linearGradient4121">
      <stop
         id="stop4123"
         style="stop-color:#3f7010;stop-opacity:1"
         offset="0" />
      <stop
         id="stop4125"
         style="stop-color:#84a718;stop-opacity:1"
         offset="1" />
    </linearGradient>
    <linearGradient
       x1="20.796995"
       y1="20.64884"
       x2="37.473785"
       y2="20.64884"
       id="linearGradient4130"
       xlink:href="#linearGradient4087"
       gradientUnits="userSpaceOnUse"
       gradientTransform="matrix(0,0.3060607,0.32769183,0,-25.243999,1.8249842)" />
    <linearGradient
       id="linearGradient4087">
      <stop
         id="stop4089"
         style="stop-color:#ffffff;stop-opacity:1"
         offset="0" />
      <stop
         id="stop4091"
         style="stop-color:#ffffff;stop-opacity:0.23529412"
         offset="0.51153916" />
      <stop
         id="stop4093"
         style="stop-color:#ffffff;stop-opacity:0.15686275"
         offset="0.58522105" />
      <stop
         id="stop4095"
         style="stop-color:#ffffff;stop-opacity:0.39215687"
         offset="1" />
    </linearGradient>
    <linearGradient
       y2="20.64884"
       x2="37.473785"
       y1="20.64884"
       x1="20.796995"
       gradientTransform="matrix(0,0.3060607,0.32769183,0,-25.243999,1.8249842)"
       gradientUnits="userSpaceOnUse"
       id="linearGradient3104"
       xlink:href="#linearGradient4087"
       inkscape:collect="always" />
    <linearGradient
       inkscape:collect="always"
       xlink:href="#linearGradient2187"
       id="linearGradient2499"
       gradientUnits="userSpaceOnUse"
       gradientTransform="matrix(0,0.5624393,0.6082835,0,-2.0190724,-1.5103495)"
       x1="19.502533"
       y1="12.95892"
       x2="15.047561"
       y2="12.95892" />
    <linearGradient
       id="linearGradient2187">
      <stop
         style="stop-color:#ffffff;stop-opacity:0.64341086;"
         offset="0"
         id="stop2189" />
      <stop
         style="stop-color:#ffffff;stop-opacity:0;"
         offset="1"
         id="stop2191" />
    </linearGradient>
    <linearGradient
       inkscape:collect="always"
       xlink:href="#linearGradient3709"
       id="linearGradient2544"
       gradientUnits="userSpaceOnUse"
       gradientTransform="matrix(0.5116892,0,0,-0.4776364,0.9537836,25.009333)"
       x1="31.270321"
       y1="10.819631"
       x2="31.270321"
       y2="36.353996" />
    <linearGradient
       id="linearGradient3709">
      <stop
         style="stop-color:#95b331;stop-opacity:1"
         offset="0"
         id="stop3711" />
      <stop
         id="stop3713"
         offset="0.68190742"
         style="stop-color:#d7e866;stop-opacity:1" />
      <stop
         style="stop-color:#ebf3b2;stop-opacity:1;"
         offset="0.95274329"
         id="stop3717" />
      <stop
         style="stop-color:#ffffff;stop-opacity:0;"
         offset="1"
         id="stop3715" />
    </linearGradient>
    <linearGradient
       inkscape:collect="always"
       xlink:href="#linearGradient3703"
       id="linearGradient2546"
       gradientUnits="userSpaceOnUse"
       gradientTransform="matrix(0.5116892,0,0,-0.4776364,0.9537836,25.009333)"
       x1="35.998066"
       y1="31.247124"
       x2="35.998066"
       y2="36.353996" />
    <linearGradient
       id="linearGradient3703">
      <stop
         style="stop-color:#548820;stop-opacity:1"
         offset="0"
         id="stop3705" />
      <stop
         style="stop-color:#e5f09c;stop-opacity:0"
         offset="1"
         id="stop3707" />
    </linearGradient>
    <linearGradient
       y2="36.353996"
       x2="31.270321"
       y1="10.819631"
       x1="31.270321"
       gradientTransform="matrix(0.5116892,0,0,-0.4776364,-3.1318366,24.933103)"
       gradientUnits="userSpaceOnUse"
       id="linearGradient3092"
       xlink:href="#linearGradient3709"
       inkscape:collect="always" />
    <linearGradient
       y2="36.353996"
       x2="35.998066"
       y1="31.247124"
       x1="35.998066"
       gradientTransform="matrix(0.5116892,0,0,-0.4776364,-3.1318366,24.933103)"
       gradientUnits="userSpaceOnUse"
       id="linearGradient3094"
       xlink:href="#linearGradient3703"
       inkscape:collect="always" />
  </defs>
  <g
     id="layer1">
    <path
       id="path23417"
       style="opacity:.3;fill-rule:evenodd;fill:url(#radialGradient2888)"
       d="m23 19.5c0.001 1.933-4.924 3.5-11 3.5-6.0755 0-11.001-1.567-11-3.5-0.00057-1.933 4.9245-3.5 11-3.5s11.001 1.5671 11 3.5z" />
    <path
       id="path2781"
       style="stroke:url(#linearGradient2885);fill:url(#linearGradient2883)"
       d="m22.5 12c0-5.8201-4.68-10.5-10.5-10.5-5.8201 0-10.5 4.6799-10.5 10.5 0 5.82 4.6799 10.5 10.5 10.5 5.8201-0.000001 10.5-4.6799 10.5-10.5zm-7 0c0 1.9711-1.57 3.5-3.5 3.5-1.9713 0-3.5-1.655-3.5-3.5 0-1.8863 1.4638-3.5 3.5-3.5 2.0775 0 3.5 1.4877 3.5 3.5z" />
    <path
       id="path2474"
       style="opacity:.5;fill:#fff"
       d="m12 8.0851c-2.161 0-3.9149 1.7539-3.9149 3.9149s1.7539 3.9149 3.9149 3.9149 3.9149-1.7539 3.9149-3.9149-1.7539-3.9149-3.9149-3.9149zm0 1.9574c1.0805 0 1.9574 0.87694 1.9574 1.9574s-0.87694 1.9574-1.9574 1.9574-1.9574-0.87694-1.9574-1.9574 0.87694-1.9574 1.9574-1.9574z" />
    <path
       id="path3418"
       style="stroke-linejoin:round;stroke:url(#linearGradient2879);fill:none"
       d="m12 8.5c-1.932 0-3.5 1.568-3.5 3.5s1.568 3.5 3.5 3.5 3.5-1.568 3.5-3.5-1.568-3.5-3.5-3.5zm0 1.75c0.966 0 1.75 0.784 1.75 1.75s-0.784 1.75-1.75 1.75-1.75-0.784-1.75-1.75 0.784-1.75 1.75-1.75z" />
    <path
       id="path3281"
       style="opacity:.8;stroke:url(#linearGradient2876);fill:none"
       d="m12 7.5c-2.4943 0-4.5 2.0057-4.5 4.5s2.0057 4.5 4.5 4.5 4.5-2.0057 4.5-4.5-2.0057-4.5-4.5-4.5z" />
    <g
       id="g3527"
       transform="matrix(.48936 0 0 .48936 .2553 .2553)">
      <path
         id="path3296"
         style="opacity:.8;fill:url(#linearGradient2480)"
         d="m15.857 5.7308 4.768 10.613c1.035-0.459 2.17-0.719 3.375-0.719 0.03206 0 0.06178-0.00036 0.09375 0l0.01426-11.62c-2.9422-0.070687-5.543 0.65729-8.2511 1.726z"
         transform="matrix(.99960 .028243 -.028243 .99960 .69241 -.67083)" />
      <path
         id="path3308"
         style="opacity:.8;fill:url(#linearGradient2482)"
         d="m12.121 7.906 6.931 9.3601c0.91311-0.66976 1.9659-1.1671 3.1426-1.4252 0.03132-0.0069 0.06026-0.01359 0.09157-0.02009l-2.429-11.395c-2.889 0.56132-5.3195 1.8556-7.7357 3.4797z" />
      <path
         id="path3310"
         style="opacity:.8;fill:url(#linearGradient2484)"
         d="m8.2524 11.647 9.2137 7.1558c0.70865-0.88326 1.5969-1.6361 2.6667-2.19 0.02847-0.01474 0.05469-0.02872 0.08325-0.0431l-5.35-10.319c-2.645 1.2895-4.7 3.2014-6.6136 5.396z" />
      <path
         id="path3312"
         style="opacity:.8;fill:url(#linearGradient2486)"
         d="m5.6329 16.074c7.1748 2.2422 7.8503 7.0315 12.777 1.7541l-7.91-8.6959c-2.2213 1.9309-3.5867 4.3269-4.8671 6.9419z" />
      <path
         id="path3314"
         style="opacity:.8;fill:url(#linearGradient2488)"
         d="m7.1553 13.193c-1.1831 1.752-1.9077 3.637-2.5251 5.644l11.339 2.975c0.21551-0.763 0.51805-1.5148 0.96875-2.2188 0.01729-0.027 0.04496-0.06702 0.0625-0.09375l-9.8447-6.306z" />
    </g>
    <path
       id="path3272"
       style="opacity:.5;stroke:url(#linearGradient2867);fill:none"
       d="m12 2.4574c-5.2893 0-9.5426 4.2533-9.5426 9.5426s4.2533 9.5426 9.5426 9.5426 9.5426-4.2533 9.5426-9.5426-4.254-9.5426-9.543-9.5426z" />
    <g
       id="g3297"
       transform="matrix(-.48936 0 0 -.48936 23.745 23.74)">
      <path
         id="path3299"
         style="opacity:.8;fill:url(#linearGradient2480)"
         d="m15.857 5.7308 4.768 10.613c1.035-0.459 2.17-0.719 3.375-0.719 0.03206 0 0.06178-0.00036 0.09375 0l0.01426-11.62c-2.9422-0.070687-5.543 0.65729-8.2511 1.726z"
         transform="matrix(.99960 .028243 -.028243 .99960 .69241 -.67083)" />
      <path
         id="path3301"
         style="opacity:.8;fill:url(#linearGradient2482)"
         d="m12.121 7.906 6.931 9.3601c0.91311-0.66976 1.9659-1.1671 3.1426-1.4252 0.03132-0.0069 0.06026-0.01359 0.09157-0.02009l-2.429-11.395c-2.889 0.56132-5.3195 1.8556-7.7357 3.4797z" />
      <path
         id="path3303"
         style="opacity:.8;fill:url(#linearGradient2484)"
         d="m8.2524 11.647 9.2137 7.1558c0.70865-0.88326 1.5969-1.6361 2.6667-2.19 0.02847-0.01474 0.05469-0.02872 0.08325-0.0431l-5.35-10.319c-2.645 1.2895-4.7 3.2014-6.6136 5.396z" />
      <path
         id="path3305"
         style="opacity:.8;fill:url(#linearGradient2486)"
         d="m5.6329 16.074c7.1748 2.2422 7.8503 7.0315 12.777 1.7541l-7.91-8.6959c-2.2213 1.9309-3.5867 4.3269-4.8671 6.9419z" />
      <path
         id="path3307"
         style="opacity:.8;fill:url(#linearGradient2488)"
         d="m7.1553 13.193c-1.1831 1.752-1.9077 3.637-2.5251 5.644l11.339 2.975c0.21551-0.763 0.51805-1.5148 0.96875-2.2188 0.01729-0.027 0.04496-0.06702 0.0625-0.09375l-9.8447-6.306z" />
    </g>
  </g>
  <path
     inkscape:connector-curvature="0"
     style="fill:url(#linearGradient3092);fill-opacity:1;fill-rule:nonzero;stroke:url(#linearGradient3094);stroke-width:0.96392483;stroke-linecap:butt;stroke-linejoin:round;stroke-miterlimit:7;stroke-opacity:1;stroke-dasharray:none;stroke-dashoffset:0;marker:none;visibility:visible;display:block;overflow:visible"
     d="M 16.504112,3.4230484 C -3.9766591,2.7920239 -0.73898463,19.536342 9.91438,19.438856 l 0,4.002951 8.518038,-6.96708 L 9.91438,9.1680683 c 0,0 0,4.0112667 0,4.0112667 -7.1959406,0.279882 -9.30205253,-9.630276 6.589732,-9.7562866 z"
     id="path1432"
     sodipodi:nodetypes="ccccccc" />
  <path
     inkscape:connector-curvature="0"
     sodipodi:nodetypes="ccccccc"
     id="path2177"
     d="M 5.3867759,6.5341133 C 0.58029867,9.5756033 1.6902219,18.748287 10.91438,18.526335 l 0,2.820115 c 0,0 5.995867,-4.854766 5.995867,-4.854766 L 10.91438,11.266116 c 0,0 0,2.899106 0,2.899106 -8.5289441,0 -8.7689097,-6.5336977 -5.5276041,-7.6311087 z"
     style="opacity:0.69886361;fill:none;stroke:url(#linearGradient2499);stroke-width:0.96399999;stroke-linecap:butt;stroke-linejoin:miter;stroke-miterlimit:7;stroke-opacity:1;stroke-dasharray:none;stroke-dashoffset:0;marker:none;visibility:visible;display:block;overflow:visible" />
</svg>
