<?xml version="1.0" encoding="UTF-8" standalone="no"?>
<!-- Created with Inkscape (http://www.inkscape.org/) -->

<svg
   xmlns:dc="http://purl.org/dc/elements/1.1/"
   xmlns:cc="http://creativecommons.org/ns#"
   xmlns:rdf="http://www.w3.org/1999/02/22-rdf-syntax-ns#"
   xmlns:svg="http://www.w3.org/2000/svg"
   xmlns="http://www.w3.org/2000/svg"
   xmlns:xlink="http://www.w3.org/1999/xlink"
   xmlns:sodipodi="http://sodipodi.sourceforge.net/DTD/sodipodi-0.dtd"
   xmlns:inkscape="http://www.inkscape.org/namespaces/inkscape"
   version="1.1"
   width="48"
   height="48"
   id="svg4461"
   inkscape:version="0.48.4 r9939"
   sodipodi:docname="kxkb.svg">
  <metadata
     id="metadata44">
    <rdf:RDF>
      <cc:Work
         rdf:about="">
        <dc:format>image/svg+xml</dc:format>
        <dc:type
           rdf:resource="http://purl.org/dc/dcmitype/StillImage" />
        <dc:title />
      </cc:Work>
    </rdf:RDF>
  </metadata>
  <sodipodi:namedview
     pagecolor="#ffffff"
     bordercolor="#666666"
     borderopacity="1"
     objecttolerance="10"
     gridtolerance="10"
     guidetolerance="10"
     inkscape:pageopacity="0"
     inkscape:pageshadow="2"
     inkscape:window-width="1855"
     inkscape:window-height="1056"
     id="namedview42"
     showgrid="true"
     inkscape:zoom="19.25"
     inkscape:cx="15.480519"
     inkscape:cy="24"
     inkscape:window-x="65"
     inkscape:window-y="24"
     inkscape:window-maximized="1"
     inkscape:current-layer="svg4461">
    <inkscape:grid
       type="xygrid"
       id="grid3027" />
  </sodipodi:namedview>
  <defs
     id="defs4463">
    <radialGradient
       cx="13.892615"
       cy="24.270937"
       r="4.5000043"
       fx="13.892615"
       fy="24.270937"
       id="radialGradient2970-0-0-5"
       xlink:href="#linearGradient4529-4-3-6"
       gradientUnits="userSpaceOnUse"
       gradientTransform="matrix(5.4892299,0,0,2.8374165,-59.228546,-51.59895)" />
    <linearGradient
       id="linearGradient4529-4-3-6">
      <stop
         id="stop4531-8-6-6"
         style="stop-color:#ffffff;stop-opacity:1"
         offset="0" />
      <stop
         id="stop4533-5-7-7"
         style="stop-color:#ffffff;stop-opacity:0"
         offset="1" />
    </linearGradient>
    <linearGradient
       x1="37.520855"
       y1="11.523975"
       x2="37.520855"
       y2="4.0999546"
       id="linearGradient2972-1-3-3"
       xlink:href="#linearGradient2821-2-2-4"
       gradientUnits="userSpaceOnUse"
       gradientTransform="matrix(2.4999942,0,0,1.999993,-86.249757,-7.499925)" />
    <linearGradient
       id="linearGradient2821-2-2-4">
      <stop
         id="stop2823-9-2-0"
         style="stop-color:#ffffff;stop-opacity:1"
         offset="0" />
      <stop
         id="stop2825-7-1-8"
         style="stop-color:#ffffff;stop-opacity:0"
         offset="1" />
    </linearGradient>
    <linearGradient
       x1="38.244816"
       y1="7.2332683"
       x2="40.93327"
       y2="11.500001"
       id="linearGradient2975-3-5-0"
       xlink:href="#linearGradient2813-8-3-8"
       gradientUnits="userSpaceOnUse"
       gradientTransform="matrix(2.2499624,0,0,1.8749628,-76.623475,-6.562074)" />
    <linearGradient
       id="linearGradient2813-8-3-8">
      <stop
         id="stop2815-0-3-1"
         style="stop-color:#ffffff;stop-opacity:1"
         offset="0" />
      <stop
         id="stop2817-9-8-5"
         style="stop-color:#ffffff;stop-opacity:0"
         offset="1" />
    </linearGradient>
    <radialGradient
       cx="15.080146"
       cy="24.270937"
       r="4.5000043"
       fx="15.080146"
       fy="24.270937"
       id="radialGradient2980-2-2-3"
       xlink:href="#linearGradient4529-4-3-6"
       gradientUnits="userSpaceOnUse"
       gradientTransform="matrix(10.163239,0,0,2.3851683,-134.75753,-21.436484)" />
    <linearGradient
       x1="37.520855"
       y1="11.523975"
       x2="37.520855"
       y2="4.0999546"
       id="linearGradient2982-3-8-5"
       xlink:href="#linearGradient2821-2-2-4"
       gradientUnits="userSpaceOnUse"
       gradientTransform="matrix(1.7142801,0,0,1.8333206,-56.785464,13.750134)" />
    <linearGradient
       x1="5.9419909"
       y1="7.9213729"
       x2="10.656054"
       y2="14.624064"
       id="linearGradient2985-1-5-1"
       xlink:href="#linearGradient2867-8-8-1"
       gradientUnits="userSpaceOnUse"
       gradientTransform="matrix(1.6874939,0,0,1.749988,-2.0936761,14.375129)" />
    <linearGradient
       id="linearGradient2867-8-8-1">
      <stop
         id="stop2869-7-0-4"
         style="stop-color:#ffffff;stop-opacity:1"
         offset="0" />
      <stop
         id="stop2871-4-8-0"
         style="stop-color:#ffffff;stop-opacity:0"
         offset="1" />
    </linearGradient>
    <radialGradient
       cx="13.892615"
       cy="24.270937"
       r="4.5000043"
       fx="13.892615"
       fy="24.270937"
       id="radialGradient2988-1-6-1"
       xlink:href="#linearGradient4529-4-3-6"
       gradientUnits="userSpaceOnUse"
       gradientTransform="matrix(4.3912411,0,0,2.837326,-21.880907,-51.596876)" />
    <linearGradient
       x1="37.520855"
       y1="11.523975"
       x2="37.520855"
       y2="4.0999546"
       id="linearGradient2990-6-9-1"
       xlink:href="#linearGradient2821-2-2-4"
       gradientUnits="userSpaceOnUse"
       gradientTransform="matrix(1.9999304,0,0,1.9999294,-43.497173,-7.499255)" />
    <linearGradient
       x1="38.244816"
       y1="7.2332683"
       x2="40.93327"
       y2="11.500001"
       id="linearGradient2993-3-3-8"
       xlink:href="#linearGradient2813-8-3-8"
       gradientUnits="userSpaceOnUse"
       gradientTransform="matrix(1.874971,0,0,1.8749711,-38.93632,-6.562169)" />
    <radialGradient
       inkscape:collect="always"
       xlink:href="#linearGradient4529-4-3-6"
       id="radialGradient3625"
       gradientUnits="userSpaceOnUse"
       gradientTransform="matrix(5.4892299,0,0,2.8374165,-59.228546,-51.59895)"
       cx="13.892615"
       cy="24.270937"
       fx="13.892615"
       fy="24.270937"
       r="4.5000043" />
    <linearGradient
       inkscape:collect="always"
       xlink:href="#linearGradient2821-2-2-4"
       id="linearGradient3627"
       gradientUnits="userSpaceOnUse"
       gradientTransform="matrix(2.4999942,0,0,1.999993,-86.249757,-7.499925)"
       x1="37.520855"
       y1="11.523975"
       x2="37.520855"
       y2="4.0999546" />
    <linearGradient
       inkscape:collect="always"
       xlink:href="#linearGradient2813-8-3-8"
       id="linearGradient3630"
       gradientUnits="userSpaceOnUse"
       gradientTransform="matrix(2.2499624,0,0,1.8749628,-76.623475,-6.562074)"
       x1="38.244816"
       y1="7.2332683"
       x2="40.93327"
       y2="11.500001" />
    <radialGradient
       inkscape:collect="always"
       xlink:href="#linearGradient4529-4-3-6"
       id="radialGradient3635"
       gradientUnits="userSpaceOnUse"
       gradientTransform="matrix(10.163239,0,0,2.3851683,-134.75753,-21.436484)"
       cx="15.080146"
       cy="24.270937"
       fx="15.080146"
       fy="24.270937"
       r="4.5000043" />
    <linearGradient
       inkscape:collect="always"
       xlink:href="#linearGradient2821-2-2-4"
       id="linearGradient3637"
       gradientUnits="userSpaceOnUse"
       gradientTransform="matrix(1.7142801,0,0,1.8333206,-56.785464,13.750134)"
       x1="37.520855"
       y1="11.523975"
       x2="37.520855"
       y2="4.0999546" />
    <linearGradient
       inkscape:collect="always"
       xlink:href="#linearGradient2867-8-8-1"
       id="linearGradient3640"
       gradientUnits="userSpaceOnUse"
       gradientTransform="matrix(1.6874939,0,0,1.749988,-2.0936761,14.375129)"
       x1="5.9419909"
       y1="7.9213729"
       x2="10.656054"
       y2="14.624064" />
    <radialGradient
       inkscape:collect="always"
       xlink:href="#linearGradient4529-4-3-6"
       id="radialGradient3643"
       gradientUnits="userSpaceOnUse"
       gradientTransform="matrix(4.8791554,0,0,3.1525848,-52.407562,-61.326235)"
       cx="13.892615"
       cy="24.270937"
       fx="13.892615"
       fy="24.270937"
       r="4.5000043" />
    <linearGradient
       inkscape:collect="always"
       xlink:href="#linearGradient2821-2-2-4"
       id="linearGradient3645"
       gradientUnits="userSpaceOnUse"
       gradientTransform="matrix(2.2221442,0,0,2.2221439,-76.425628,-12.328876)"
       x1="37.520855"
       y1="11.523975"
       x2="37.520855"
       y2="4.0999546" />
    <linearGradient
       inkscape:collect="always"
       xlink:href="#linearGradient2813-8-3-8"
       id="linearGradient3648"
       gradientUnits="userSpaceOnUse"
       gradientTransform="matrix(2.0833006,0,0,2.0833014,-71.358014,-11.28767)"
       x1="38.244816"
       y1="7.2332683"
       x2="40.93327"
       y2="11.500001" />
    <linearGradient
       inkscape:collect="always"
       xlink:href="#linearGradient2813-8-3-8"
       id="linearGradient3805"
       gradientUnits="userSpaceOnUse"
       gradientTransform="matrix(2.0833006,0,0,2.0833014,-71.358014,10.71233)"
       x1="38.244816"
       y1="7.2332683"
       x2="40.93327"
       y2="11.500001" />
    <radialGradient
       inkscape:collect="always"
       xlink:href="#linearGradient4529-4-3-6"
       id="radialGradient3807"
       gradientUnits="userSpaceOnUse"
       gradientTransform="matrix(4.8791554,0,0,3.1525848,-52.407562,-39.326235)"
       cx="13.892615"
       cy="24.270937"
       fx="13.892615"
       fy="24.270937"
       r="4.5000043" />
    <linearGradient
       inkscape:collect="always"
       xlink:href="#linearGradient2821-2-2-4"
       id="linearGradient3809"
       gradientUnits="userSpaceOnUse"
       gradientTransform="matrix(2.2221442,0,0,2.2221439,-76.425628,9.6711242)"
       x1="37.520855"
       y1="11.523975"
       x2="37.520855"
       y2="4.0999546" />
    <linearGradient
       inkscape:collect="always"
       xlink:href="#linearGradient2813-8-3-8"
       id="linearGradient3827"
       gradientUnits="userSpaceOnUse"
       gradientTransform="matrix(2.0833006,0,0,2.0833014,-49.358014,-11.28767)"
       x1="38.244816"
       y1="7.2332683"
       x2="40.93327"
       y2="11.500001" />
    <radialGradient
       inkscape:collect="always"
       xlink:href="#linearGradient4529-4-3-6"
       id="radialGradient3829"
       gradientUnits="userSpaceOnUse"
       gradientTransform="matrix(4.8791554,0,0,3.1525848,-30.407562,-61.326235)"
       cx="13.892615"
       cy="24.270937"
       fx="13.892615"
       fy="24.270937"
       r="4.5000043" />
    <linearGradient
       inkscape:collect="always"
       xlink:href="#linearGradient2821-2-2-4"
       id="linearGradient3831"
       gradientUnits="userSpaceOnUse"
       gradientTransform="matrix(2.2221442,0,0,2.2221439,-54.425628,-12.328876)"
       x1="37.520855"
       y1="11.523975"
       x2="37.520855"
       y2="4.0999546" />
    <linearGradient
       inkscape:collect="always"
       xlink:href="#linearGradient2813-8-3-8"
       id="linearGradient3833"
       gradientUnits="userSpaceOnUse"
       gradientTransform="matrix(2.0833006,0,0,2.0833014,-49.358014,10.71233)"
       x1="38.244816"
       y1="7.2332683"
       x2="40.93327"
       y2="11.500001" />
    <radialGradient
       inkscape:collect="always"
       xlink:href="#linearGradient4529-4-3-6"
       id="radialGradient3835"
       gradientUnits="userSpaceOnUse"
       gradientTransform="matrix(4.8791554,0,0,3.1525848,-30.407562,-39.326235)"
       cx="13.892615"
       cy="24.270937"
       fx="13.892615"
       fy="24.270937"
       r="4.5000043" />
    <linearGradient
       inkscape:collect="always"
       xlink:href="#linearGradient2821-2-2-4"
       id="linearGradient3837"
       gradientUnits="userSpaceOnUse"
       gradientTransform="matrix(2.2221442,0,0,2.2221439,-54.425628,9.6711242)"
       x1="37.520855"
       y1="11.523975"
       x2="37.520855"
       y2="4.0999546" />
  </defs>
  <rect
     style="opacity:0.1;fill:#000000;fill-opacity:1;fill-rule:nonzero;stroke:none;stroke-width:1.62657523;marker:none;visibility:visible;display:inline;overflow:visible"
     id="rect2985"
     y="6.999999"
     x="3"
     ry="3.1875"
     rx="3.3333333"
     height="17"
     width="20" />
  <rect
     style="fill:#3c3c3c;fill-opacity:1;fill-rule:nonzero;stroke:#323232;stroke-width:1;stroke-linecap:square;stroke-linejoin:round;stroke-miterlimit:4;stroke-opacity:1;stroke-dasharray:none;stroke-dashoffset:1.20000057;marker:none;visibility:visible;display:inline;overflow:visible"
     id="rect5557"
     y="3.2259114"
     x="3.5712738"
     ry="2.2222226"
     rx="2.2222219"
     height="18.888767"
     width="18.88876" />
  <rect
     style="opacity:0.2;fill:none;stroke:url(#linearGradient3648);stroke-width:1;stroke-linecap:square;stroke-linejoin:round;stroke-miterlimit:4;stroke-opacity:1;stroke-dasharray:none;stroke-dashoffset:1.20000057;marker:none;visibility:visible;display:inline;overflow:visible"
     id="rect5559"
     y="4.3370914"
     x="4.6824512"
     ry="1.1111113"
     rx="1.1111109"
     height="16.666412"
     width="16.666405" />
  <rect
     style="opacity:0.3;fill:url(#radialGradient3643);fill-opacity:1;fill-rule:nonzero;stroke:url(#linearGradient3645);stroke-width:1;stroke-linecap:square;stroke-linejoin:round;stroke-miterlimit:4;stroke-opacity:1;stroke-dasharray:none;stroke-dashoffset:1.20000057;marker:none;visibility:visible;display:inline;overflow:visible"
     id="rect5561"
     y="4.3371978"
     x="6.9047766"
     ry="1.0212184"
     rx="1.1914217"
     height="13.33287"
     width="13.332864" />
  <rect
     width="20"
     height="17"
     rx="3.3333333"
     ry="3.1875"
     x="3"
     y="29"
     id="rect3797"
     style="opacity:0.1;fill:#000000;fill-opacity:1;fill-rule:nonzero;stroke:none;stroke-width:1.62657523;marker:none;visibility:visible;display:inline;overflow:visible" />
  <rect
     width="18.88876"
     height="18.888767"
     rx="2.2222219"
     ry="2.2222226"
     x="3.5712738"
     y="25.225912"
     id="rect3799"
     style="fill:#3c3c3c;fill-opacity:1;fill-rule:nonzero;stroke:#323232;stroke-width:1;stroke-linecap:square;stroke-linejoin:round;stroke-miterlimit:4;stroke-opacity:1;stroke-dasharray:none;stroke-dashoffset:1.20000057;marker:none;visibility:visible;display:inline;overflow:visible" />
  <rect
     width="16.666405"
     height="16.666412"
     rx="1.1111109"
     ry="1.1111113"
     x="4.6824512"
     y="26.337093"
     id="rect3801"
     style="opacity:0.2;fill:none;stroke:url(#linearGradient3805);stroke-width:1;stroke-linecap:square;stroke-linejoin:round;stroke-miterlimit:4;stroke-opacity:1;stroke-dasharray:none;stroke-dashoffset:1.20000057;marker:none;visibility:visible;display:inline;overflow:visible" />
  <rect
     width="13.332864"
     height="13.33287"
     rx="1.1914217"
     ry="1.0212184"
     x="6.9047766"
     y="26.337198"
     id="rect3803"
     style="opacity:0.3;fill:url(#radialGradient3807);fill-opacity:1;fill-rule:nonzero;stroke:url(#linearGradient3809);stroke-width:1;stroke-linecap:square;stroke-linejoin:round;stroke-miterlimit:4;stroke-opacity:1;stroke-dasharray:none;stroke-dashoffset:1.20000057;marker:none;visibility:visible;display:inline;overflow:visible" />
  <rect
     width="20"
     height="17"
     rx="3.3333333"
     ry="3.1875"
     x="25"
     y="6.999999"
     id="rect3811"
     style="opacity:0.1;fill:#000000;fill-opacity:1;fill-rule:nonzero;stroke:none;stroke-width:1.62657523;marker:none;visibility:visible;display:inline;overflow:visible" />
  <rect
     width="18.88876"
     height="18.888767"
     rx="2.2222219"
     ry="2.2222226"
     x="25.571274"
     y="3.2259114"
     id="rect3813"
     style="fill:#3c3c3c;fill-opacity:1;fill-rule:nonzero;stroke:#323232;stroke-width:1;stroke-linecap:square;stroke-linejoin:round;stroke-miterlimit:4;stroke-opacity:1;stroke-dasharray:none;stroke-dashoffset:1.20000057;marker:none;visibility:visible;display:inline;overflow:visible" />
  <rect
     width="16.666405"
     height="16.666412"
     rx="1.1111109"
     ry="1.1111113"
     x="26.682449"
     y="4.3370914"
     id="rect3815"
     style="opacity:0.2;fill:none;stroke:url(#linearGradient3827);stroke-width:1;stroke-linecap:square;stroke-linejoin:round;stroke-miterlimit:4;stroke-opacity:1;stroke-dasharray:none;stroke-dashoffset:1.20000057;marker:none;visibility:visible;display:inline;overflow:visible" />
  <rect
     width="13.332864"
     height="13.33287"
     rx="1.1914217"
     ry="1.0212184"
     x="28.904778"
     y="4.3371978"
     id="rect3817"
     style="opacity:0.3;fill:url(#radialGradient3829);fill-opacity:1;fill-rule:nonzero;stroke:url(#linearGradient3831);stroke-width:1;stroke-linecap:square;stroke-linejoin:round;stroke-miterlimit:4;stroke-opacity:1;stroke-dasharray:none;stroke-dashoffset:1.20000057;marker:none;visibility:visible;display:inline;overflow:visible" />
  <rect
     style="opacity:0.1;fill:#000000;fill-opacity:1;fill-rule:nonzero;stroke:none;stroke-width:1.62657523;marker:none;visibility:visible;display:inline;overflow:visible"
     id="rect3819"
     y="29"
     x="25"
     ry="3.1875"
     rx="3.3333333"
     height="17"
     width="20" />
  <rect
     style="fill:#3c3c3c;fill-opacity:1;fill-rule:nonzero;stroke:#323232;stroke-width:1;stroke-linecap:square;stroke-linejoin:round;stroke-miterlimit:4;stroke-opacity:1;stroke-dasharray:none;stroke-dashoffset:1.20000057;marker:none;visibility:visible;display:inline;overflow:visible"
     id="rect3821"
     y="25.225912"
     x="25.571274"
     ry="2.2222226"
     rx="2.2222219"
     height="18.888767"
     width="18.88876" />
  <rect
     style="opacity:0.2;fill:none;stroke:url(#linearGradient3833);stroke-width:1;stroke-linecap:square;stroke-linejoin:round;stroke-miterlimit:4;stroke-opacity:1;stroke-dasharray:none;stroke-dashoffset:1.20000057;marker:none;visibility:visible;display:inline;overflow:visible"
     id="rect3823"
     y="26.337093"
     x="26.682449"
     ry="1.1111113"
     rx="1.1111109"
     height="16.666412"
     width="16.666405" />
  <rect
     style="opacity:0.3;fill:url(#radialGradient3835);fill-opacity:1;fill-rule:nonzero;stroke:url(#linearGradient3837);stroke-width:1;stroke-linecap:square;stroke-linejoin:round;stroke-miterlimit:4;stroke-opacity:1;stroke-dasharray:none;stroke-dashoffset:1.20000057;marker:none;visibility:visible;display:inline;overflow:visible"
     id="rect3825"
     y="26.337198"
     x="28.904778"
     ry="1.0212184"
     rx="1.1914217"
     height="13.33287"
     width="13.332864" />
  <path
     style="color:#000000;fill:#000000;fill-opacity:1;fill-rule:nonzero;stroke:none;stroke-width:1;marker:none;visibility:visible;display:inline;overflow:visible;enable-background:accumulate;opacity:0.25"
     id="path3821"
     d="m 13.46875,5.9999996 c -1.391147,9e-6 -2.486866,0.357998 -3.28125,1.15625 C 9.396988,7.9545186 9,9.1246136 9,10.53125 9,11.934021 9.396988,13.014241 10.1875,13.8125 10.981884,14.61076 12.077603,15 13.46875,15 c 1.39501,0 2.521982,-0.38924 3.3125,-1.1875 0.790501,-0.798259 1.156241,-1.878479 1.15625,-3.28125 -9e-6,-1.4066364 -0.365749,-2.5767314 -1.15625,-3.3750004 -0.790518,-0.798252 -1.91749,-1.156241 -3.3125,-1.15625 z m 0,1.625 c 0.685878,6e-6 1.186613,0.215001 1.5625,0.71875 0.375872,0.503764 0.562493,1.2729954 0.5625,2.1875004 -7e-6,0.910641 -0.186628,1.558748 -0.5625,2.0625 -0.375887,0.503759 -0.876622,0.781251 -1.5625,0.78125 -0.682013,10e-7 -1.249125,-0.277491 -1.625,-0.78125 -0.375883,-0.503752 -0.562503,-1.151859 -0.5625,-2.0625 -3e-6,-0.914505 0.186617,-1.6837364 0.5625,-2.1875004 0.375875,-0.503749 0.942987,-0.718744 1.625,-0.71875 z"
     inkscape:connector-curvature="0" />
  <path
     inkscape:connector-curvature="0"
     d="m 13.46875,6.4999996 c -1.391147,9e-6 -2.486866,0.357998 -3.28125,1.15625 C 9.396988,8.4545186 9,9.6246136 9,11.03125 c 0,1.402771 0.396988,2.482991 1.1875,3.28125 0.794384,0.79826 1.890103,1.1875 3.28125,1.1875 1.39501,0 2.521982,-0.38924 3.3125,-1.1875 0.790501,-0.798259 1.156241,-1.878479 1.15625,-3.28125 -9e-6,-1.4066364 -0.365749,-2.5767314 -1.15625,-3.3750004 -0.790518,-0.798252 -1.91749,-1.156241 -3.3125,-1.15625 z m 0,1.625 c 0.685878,6e-6 1.186613,0.215001 1.5625,0.71875 0.375872,0.503764 0.562493,1.2729954 0.5625,2.1875004 -7e-6,0.910641 -0.186628,1.558748 -0.5625,2.0625 -0.375887,0.503759 -0.876622,0.781251 -1.5625,0.78125 -0.682013,10e-7 -1.249125,-0.277491 -1.625,-0.78125 -0.375883,-0.503752 -0.562503,-1.151859 -0.5625,-2.0625 -3e-6,-0.914505 0.186617,-1.6837364 0.5625,-2.1875004 0.375875,-0.503749 0.942987,-0.718744 1.625,-0.71875 z"
     id="path3129-9"
     style="color:#000000;fill:#e6c61b;fill-opacity:1;fill-rule:nonzero;stroke:none;stroke-width:1;marker:none;visibility:visible;display:inline;overflow:visible;enable-background:accumulate" />
  <path
     style="color:#000000;fill:#000000;fill-opacity:1;fill-rule:nonzero;stroke:none;stroke-width:1;marker:none;visibility:visible;display:inline;overflow:visible;enable-background:accumulate;opacity:0.25"
     id="path3819"
     d="m 32.5,27.96875 0,9.03125 3.65625,0 c 1.130361,0 1.977438,-0.228771 2.53125,-0.65625 0.553795,-0.427477 0.812492,-1.097662 0.8125,-1.96875 -8e-6,-0.568623 -0.117075,-1.015065 -0.375,-1.40625 -0.257943,-0.391178 -0.623405,-0.667313 -1.09375,-0.8125 0.36793,-0.14921 0.619042,-0.380999 0.8125,-0.6875 0.193445,-0.310521 0.312493,-0.654166 0.3125,-1.09375 -7e-6,-0.834785 -0.281463,-1.433407 -0.8125,-1.8125 -0.527257,-0.379076 -1.382827,-0.593741 -2.5625,-0.59375 l -3.28125,0 z m 1.96875,1.5625 1.375,0 c 0.391532,6e-6 0.73527,0.08468 0.9375,0.25 0.202217,0.161313 0.249994,0.376981 0.25,0.6875 -6e-6,0.314566 -0.04778,0.588695 -0.25,0.75 -0.20223,0.161311 -0.545968,0.250005 -0.9375,0.25 l -1.375,0 0,-1.9375 z m 0,3.5 1.5,0 c 0.5034,4e-6 0.875443,0.08366 1.125,0.28125 0.249546,0.193579 0.374995,0.48382 0.375,0.875 -5e-6,0.39925 -0.12115,0.739894 -0.375,0.9375 -0.249557,0.197609 -0.625905,0.281252 -1.125,0.28125 l -1.5,0 0,-2.375 z"
     inkscape:connector-curvature="0" />
  <path
     inkscape:connector-curvature="0"
     d="m 32.5,28.46875 0,9.03125 3.65625,0 c 1.130361,0 1.977438,-0.228771 2.53125,-0.65625 0.553795,-0.427477 0.812492,-1.097662 0.8125,-1.96875 -8e-6,-0.568623 -0.117075,-1.015065 -0.375,-1.40625 -0.257943,-0.391178 -0.623405,-0.667313 -1.09375,-0.8125 0.36793,-0.14921 0.619042,-0.380999 0.8125,-0.6875 0.193445,-0.310521 0.312493,-0.654166 0.3125,-1.09375 -7e-6,-0.834785 -0.281463,-1.433407 -0.8125,-1.8125 -0.527257,-0.379076 -1.382827,-0.593741 -2.5625,-0.59375 l -3.28125,0 z m 1.96875,1.5625 1.375,0 c 0.391532,6e-6 0.73527,0.08468 0.9375,0.25 0.202217,0.161313 0.249994,0.376981 0.25,0.6875 -6e-6,0.314566 -0.04778,0.588695 -0.25,0.75 -0.20223,0.161311 -0.545968,0.250005 -0.9375,0.25 l -1.375,0 0,-1.9375 z m 0,3.5 1.5,0 c 0.5034,4e-6 0.875443,0.08366 1.125,0.28125 0.249546,0.193579 0.374995,0.48382 0.375,0.875 -5e-6,0.39925 -0.12115,0.739894 -0.375,0.9375 -0.249557,0.197609 -0.625905,0.281252 -1.125,0.28125 l -1.5,0 0,-2.375 z"
     id="path3125-4"
     style="color:#000000;fill:#47b3ff;fill-opacity:1;fill-rule:nonzero;stroke:none;stroke-width:1;marker:none;visibility:visible;display:inline;overflow:visible;enable-background:accumulate" />
</svg>
