<?xml version="1.0" encoding="UTF-8" standalone="no"?>
<!-- Created with Inkscape (http://www.inkscape.org/) -->

<svg
   xmlns:dc="http://purl.org/dc/elements/1.1/"
   xmlns:cc="http://creativecommons.org/ns#"
   xmlns:rdf="http://www.w3.org/1999/02/22-rdf-syntax-ns#"
   xmlns:svg="http://www.w3.org/2000/svg"
   xmlns="http://www.w3.org/2000/svg"
   xmlns:xlink="http://www.w3.org/1999/xlink"
   xmlns:sodipodi="http://sodipodi.sourceforge.net/DTD/sodipodi-0.dtd"
   xmlns:inkscape="http://www.inkscape.org/namespaces/inkscape"
   id="svg11300"
   height="48"
   width="48"
   version="1.0"
   inkscape:version="0.48.4 r9939"
   sodipodi:docname="winusbgui-icon.svg">
  <metadata
     id="metadata49">
    <rdf:RDF>
      <cc:Work
         rdf:about="">
        <dc:format>image/svg+xml</dc:format>
        <dc:type
           rdf:resource="http://purl.org/dc/dcmitype/StillImage" />
        <dc:title />
      </cc:Work>
    </rdf:RDF>
  </metadata>
  <sodipodi:namedview
     pagecolor="#ffffff"
     bordercolor="#666666"
     borderopacity="1"
     objecttolerance="10"
     gridtolerance="10"
     guidetolerance="10"
     inkscape:pageopacity="0"
     inkscape:pageshadow="2"
     inkscape:window-width="1266"
     inkscape:window-height="939"
     id="namedview47"
     showgrid="true"
     inkscape:zoom="38.562522"
     inkscape:cx="22.12089"
     inkscape:cy="37.995651"
     inkscape:window-x="65"
     inkscape:window-y="24"
     inkscape:window-maximized="0"
     inkscape:current-layer="svg11300">
    <inkscape:grid
       type="xygrid"
       id="grid3796" />
  </sodipodi:namedview>
  <defs
     id="defs3">
    <linearGradient
       id="linearGradient3506">
      <stop
         id="stop3508"
         style="stop-color:#3c3c3c"
         offset="0" />
      <stop
         id="stop3510"
         style="stop-color:#3c3c3c;stop-opacity:.22745"
         offset="1" />
    </linearGradient>
    <linearGradient
       id="linearGradient3494">
      <stop
         id="stop3496"
         style="stop-color:#282828;stop-opacity:.82353"
         offset="0" />
      <stop
         id="stop3498"
         style="stop-color:#282828;stop-opacity:0"
         offset="1" />
    </linearGradient>
    <radialGradient
       id="radialGradient7374"
       gradientUnits="userSpaceOnUse"
       cy="41.636"
       cx="23.335"
       gradientTransform="matrix(0.57452,0,0,0.15462,18.062005,37.182452)"
       r="22.627">
      <stop
         id="stop23421"
         offset="0" />
      <stop
         id="stop23423"
         style="stop-opacity:0"
         offset="1" />
    </radialGradient>
    <linearGradient
       id="linearGradient7469"
       y2="9.1187"
       xlink:href="#linearGradient3494"
       gradientUnits="userSpaceOnUse"
       x2="20.405"
       gradientTransform="matrix(1.3252,0,0,1.3105,7.4627629,-51.082452)"
       y1="6.9878"
       x1="20.405" />
    <linearGradient
       id="linearGradient7471"
       y2="10.01"
       xlink:href="#linearGradient3506"
       gradientUnits="userSpaceOnUse"
       x2="21.718"
       gradientTransform="matrix(1.3252,0,0,1.3105,7.4627629,-51.082452)"
       y1="6.1797"
       x1="21.718" />
    <linearGradient
       id="linearGradient7475"
       y2="9.1187"
       xlink:href="#linearGradient3494"
       gradientUnits="userSpaceOnUse"
       x2="20.405"
       gradientTransform="matrix(1.3252,0,0,1.3105,1.462805,-51.082452)"
       y1="6.9878"
       x1="20.405" />
    <linearGradient
       id="linearGradient7477"
       y2="10.01"
       xlink:href="#linearGradient3506"
       gradientUnits="userSpaceOnUse"
       x2="21.718"
       gradientTransform="matrix(1.3252,0,0,1.3105,1.462805,-51.082452)"
       y1="6.1797"
       x1="21.718" />
    <linearGradient
       id="linearGradient8579"
       y2="1.25"
       gradientUnits="userSpaceOnUse"
       x2="15"
       y1="36"
       x1="15"
       gradientTransform="translate(7.468005,0.12045169)">
      <stop
         id="stop3823"
         style="stop-color:gray"
         offset="0" />
      <stop
         id="stop3825"
         style="stop-color:#999"
         offset="1" />
    </linearGradient>
    <linearGradient
       id="linearGradient8838"
       y2="35.875"
       gradientUnits="userSpaceOnUse"
       x2="25"
       y1="1.125"
       x1="25"
       gradientTransform="translate(7.468005,0.12045169)">
      <stop
         id="stop3145"
         style="stop-color:#e6e6e6"
         offset="0" />
      <stop
         id="stop3147"
         style="stop-color:#afafaf"
         offset="1" />
    </linearGradient>
    <radialGradient
       id="radialGradient9547"
       gradientUnits="userSpaceOnUse"
       cy="-36.857"
       cx="21.333"
       gradientTransform="matrix(1.625,-2.2661e-7,1.9175e-7,1.375,-5.198995,13.558548)"
       r="8">
      <stop
         id="stop9129"
         style="stop-color:#f0f0f0"
         offset="0" />
      <stop
         id="stop9131"
         style="stop-color:#a9a9a9"
         offset="1" />
    </radialGradient>
    <linearGradient
       id="linearGradient9563"
       y2="-44"
       gradientUnits="userSpaceOnUse"
       x2="24"
       y1="-35"
       x1="24"
       gradientTransform="translate(7.468005,-0.12045169)">
      <stop
         id="stop9559"
         style="stop-color:#eeeeec"
         offset="0" />
      <stop
         id="stop9561"
         style="stop-color:#eeeeec;stop-opacity:0"
         offset="1" />
    </linearGradient>
    <linearGradient
       id="linearGradient9571"
       y2="-40"
       gradientUnits="userSpaceOnUse"
       x2="32"
       y1="-40"
       x1="16"
       gradientTransform="translate(7.468005,-0.12045169)">
      <stop
         id="stop9575"
         style="stop-color:#8f8f8f"
         offset="0" />
      <stop
         id="stop9577"
         style="stop-color:#5f5f5f"
         offset=".12709" />
      <stop
         id="stop9579"
         style="stop-color:#616161"
         offset=".87578" />
      <stop
         id="stop9581"
         style="stop-color:#9e9e9e"
         offset="1" />
    </linearGradient>
    <filter
       id="filter10041"
       color-interpolation-filters="sRGB">
      <feGaussianBlur
         id="feGaussianBlur10043"
         stdDeviation="0.51" />
    </filter>
  </defs>
  <path
     id="path23417"
     style="opacity:0.4;fill:url(#radialGradient7374);fill-rule:evenodd"
     d="m 44.468005,43.620452 a 13,3.4986 0 0 1 -26,0 13,3.4986 0 1 1 26,0 z"
     inkscape:connector-curvature="0" />
  <rect
     id="rect4383"
     style="fill:#ffffff"
     rx="0.625"
     ry="0.625"
     height="9.5716"
     width="12.167"
     y="33.192451"
     x="25.495005" />
  <rect
     id="rect3448"
     style="fill:url(#radialGradient9547);stroke:url(#linearGradient9571)"
     transform="scale(1,-1)"
     rx="0.56471002"
     ry="0.56471002"
     height="15"
     width="15"
     y="-44.620453"
     x="23.968004" />
  <rect
     id="rect3450"
     style="opacity:0.88172003;fill:url(#linearGradient7475);stroke:url(#linearGradient7477);stroke-width:0.92000002"
     transform="scale(1,-1)"
     height="3.0799999"
     width="3.0799999"
     y="-41.660454"
     x="26.928003" />
  <rect
     id="rect3458"
     style="opacity:0.71504995;fill:none;stroke:url(#linearGradient9563)"
     transform="scale(1,-1)"
     height="13"
     width="13"
     y="-43.620453"
     x="24.968004" />
  <rect
     id="rect2874"
     style="opacity:0.88172003;fill:url(#linearGradient7469);stroke:url(#linearGradient7471);stroke-width:0.92000002"
     transform="scale(1,-1)"
     height="3.0799999"
     width="3.0799999"
     y="-41.660454"
     x="32.928005" />
  <rect
     id="rect5391"
     style="fill:url(#linearGradient8838);stroke:url(#linearGradient8579);stroke-linecap:round;stroke-linejoin:round"
     rx="1.625"
     ry="1.6208"
     height="34"
     width="21"
     y="1.6204517"
     x="20.968004" />
  <rect
     id="rect8840"
     style="opacity:0.3;fill:#ffffff;filter:url(#filter10041)"
     rx="1.625"
     ry="1.6208"
     height="33"
     width="18"
     y="2.1204517"
     x="22.468004" />
  <path
     id="path8593"
     style="opacity:0.95;fill:#ffffff"
     d="m 30.146005,28.440452 c 0,-1.2774 0.42456,-1.6088 0.94461,-2.0548 0.4175,-0.20154 0.48421,-0.33913 0.47872,-0.9873 -0.006,-0.71628 -0.07462,-0.63446 -1.4022,-1.7869 -2.027,-1.7595 -2.2996,-2.1838 -2.5376,-3.9494 -0.17556,-1.3022 -0.05242,-1.0157 -0.55638,-1.5166 -0.92759,-0.92193 -0.76867,-2.274 0.33557,-2.8551 0.99478,-0.52348 2.1732,0.03328 2.5366,1.1985 0.17911,0.57427 -0.25029,1.566 -0.82688,1.9097 -0.52764,0.31455 -0.74654,-0.20987 -0.62588,0.94961 0.06678,0.64174 0.22952,1.3798 0.36164,1.6401 0.22691,0.44704 2.4489,2.5515 2.6906,2.5515 v -12.432 h -1.2317 c 0.57,-0.9882 1.125,-1.9924003 1.677,-2.9870003 l 1.7577,2.9874003 h -1.1972 v 8.42 c 0.16651,0 1.799,-1.6568 2.3483,-2.4027 0.23734,-0.32228 0.38137,-0.77989 0.38137,-1.2117 0,-0.65124 0.21476,-0.78818 -0.28196,-0.78818 h -0.5292 v -3.0516 h 2.9988 v 3.0516 h -0.4851 c -0.43284,0.05068 -0.74221,0.2713 -0.82392,0.99341 -0.12186,1.0769 -0.58309,1.7837 -2.2805,3.4947 l -1.3278,1.4319 v 5.1064 l 0.39238,0.23418 c 0.26681,0.1288 0.63426,0.54499 0.81656,0.92487 0.649,1.355 -0.254,2.811 -1.743,2.811 -1.079,-0.04 -1.871,-0.594 -1.871,-1.68 z"
     inkscape:connector-curvature="0" />
  <path
     id="path8591"
     style="opacity:0.95;fill:#464646"
     d="m 30.146005,29.440452 c 0,-1.2774 0.42456,-1.6088 0.94461,-2.0548 0.4175,-0.20154 0.48421,-0.33913 0.47872,-0.9873 -0.006,-0.71628 -0.07462,-0.63446 -1.4022,-1.7869 -2.027,-1.7595 -2.2996,-2.1838 -2.5376,-3.9494 -0.17556,-1.3022 -0.05242,-1.0157 -0.55638,-1.5166 -0.92759,-0.92193 -0.76867,-2.274 0.33557,-2.8551 0.99478,-0.52348 2.1732,0.03328 2.5366,1.1985 0.17911,0.57427 -0.25029,1.566 -0.82688,1.9097 -0.52764,0.31455 -0.74654,-0.20987 -0.62588,0.94961 0.06678,0.64174 0.22952,1.3798 0.36164,1.6401 0.22691,0.44704 2.4489,2.5515 2.6906,2.5515 v -12.432 h -1.2317 c 0.57,-0.988 1.125,-1.9924 1.677,-2.9870003 l 1.7577,2.9874003 h -1.1972 v 8.42 c 0.16651,0 1.799,-1.6568 2.3483,-2.4027 0.23734,-0.32228 0.38137,-0.77989 0.38137,-1.2117 0,-0.65124 0.21476,-0.78818 -0.28196,-0.78818 h -0.5292 v -3.0516 h 2.9988 v 3.0516 h -0.4851 c -0.43284,0.05068 -0.74221,0.2713 -0.82392,0.99341 -0.12186,1.0769 -0.58309,1.7837 -2.2805,3.4947 l -1.3278,1.4319 v 5.1064 l 0.39238,0.23418 c 0.26681,0.1288 0.63426,0.54499 0.81656,0.92487 0.649,1.355 -0.254,2.811 -1.743,2.811 -1.079,-0.04 -1.871,-0.594 -1.871,-1.68 z"
     inkscape:connector-curvature="0" />
  <path
     id="path3690"
     style="opacity:0.95;fill:#aaaaaa"
     d="m 30.146005,28.940452 c 0,-1.2774 0.42456,-1.6088 0.94461,-2.0548 0.4175,-0.20154 0.48421,-0.33913 0.47872,-0.9873 -0.006,-0.71628 -0.07462,-0.63446 -1.4022,-1.7869 -2.027,-1.7595 -2.2996,-2.1838 -2.5376,-3.9494 -0.17556,-1.3022 -0.05242,-1.0157 -0.55638,-1.5166 -0.92759,-0.92193 -0.76867,-2.274 0.33557,-2.8551 0.99478,-0.52348 2.1732,0.03328 2.5366,1.1985 0.17911,0.57427 -0.25029,1.566 -0.82688,1.9097 -0.52764,0.31455 -0.74654,-0.20987 -0.62588,0.94961 0.06678,0.64174 0.22952,1.3798 0.36164,1.6401 0.22691,0.44704 2.4489,2.5515 2.6906,2.5515 v -12.432 h -1.2317 c 0.57,-0.988 1.125,-1.9924003 1.677,-2.9870003 l 1.7577,2.9874003 h -1.1972 v 8.42 c 0.16651,0 1.799,-1.6568 2.3483,-2.4027 0.23734,-0.32228 0.38137,-0.77989 0.38137,-1.2117 0,-0.65124 0.21476,-0.78818 -0.28196,-0.78818 h -0.5292 v -3.0516 h 2.9988 v 3.0516 h -0.4851 c -0.43284,0.05068 -0.74221,0.2713 -0.82392,0.99341 -0.12186,1.0769 -0.58309,1.7837 -2.2805,3.4947 l -1.3278,1.4319 v 5.1064 l 0.39238,0.23418 c 0.26681,0.1288 0.63426,0.54499 0.81656,0.92487 0.649,1.355 -0.254,2.811 -1.743,2.811 -1.079,-0.04 -1.871,-0.594 -1.871,-1.68 z"
     inkscape:connector-curvature="0" />
  <rect
     style="fill:#f8682c;stroke:#9d3a10;stroke-opacity:1"
     x="1.3402463"
     y="2.9419127"
     width="11.196989"
     height="11.196989"
     id="rect6" />
  <rect
     style="fill:#91c300;stroke:#4f6900;stroke-opacity:1"
     x="13.518415"
     y="2.9419127"
     width="11.196989"
     height="11.196989"
     id="rect8" />
  <rect
     style="fill:#00b4f1;stroke:#005774;stroke-opacity:1"
     x="1.3402463"
     y="15.12009"
     width="11.196989"
     height="11.196989"
     id="rect10" />
  <rect
     style="fill:#ffc300;stroke:#775c06;stroke-opacity:1"
     x="13.518415"
     y="15.12009"
     width="11.196989"
     height="11.196989"
     id="rect12" />
  <rect
     style="opacity:0.29999999999999999;fill:none;fill-opacity:1;stroke:#ffffff;stroke-width:0.944;stroke-linecap:butt;stroke-linejoin:miter;stroke-opacity:1;stroke-miterlimit:4;stroke-dasharray:none"
     id="rect3798"
     width="9.0563326"
     height="9.0563335"
     x="2.4126761"
     y="3.9718332" />
  <rect
     y="16.185764"
     x="2.3867443"
     height="9.0563335"
     width="9.0563326"
     id="rect3800"
     style="opacity:0.3;fill:none;stroke:#ffffff;stroke-width:0.94400001;stroke-linecap:butt;stroke-linejoin:miter;stroke-miterlimit:4;stroke-opacity:1;stroke-dasharray:none" />
  <rect
     style="opacity:0.3;fill:none;stroke:#ffffff;stroke-width:0.94400001;stroke-linecap:butt;stroke-linejoin:miter;stroke-miterlimit:4;stroke-opacity:1;stroke-dasharray:none"
     id="rect3802"
     width="9.0563326"
     height="9.0563335"
     x="14.600676"
     y="16.185764" />
  <rect
     y="3.9977648"
     x="14.574743"
     height="9.0563335"
     width="9.0563326"
     id="rect3804"
     style="opacity:0.3;fill:none;stroke:#ffffff;stroke-width:0.94400001;stroke-linecap:butt;stroke-linejoin:miter;stroke-miterlimit:4;stroke-opacity:1;stroke-dasharray:none" />
</svg>
