<?xml version="1.0" encoding="UTF-8" standalone="no"?>
<!-- Created with Inkscape (http://www.inkscape.org/) -->

<svg
   xmlns:dc="http://purl.org/dc/elements/1.1/"
   xmlns:cc="http://creativecommons.org/ns#"
   xmlns:rdf="http://www.w3.org/1999/02/22-rdf-syntax-ns#"
   xmlns:svg="http://www.w3.org/2000/svg"
   xmlns="http://www.w3.org/2000/svg"
   xmlns:xlink="http://www.w3.org/1999/xlink"
   xmlns:sodipodi="http://sodipodi.sourceforge.net/DTD/sodipodi-0.dtd"
   xmlns:inkscape="http://www.inkscape.org/namespaces/inkscape"
   version="1.1"
   width="16"
   height="16"
   id="svg3323"
   inkscape:version="0.48.4 r9939"
   sodipodi:docname="application-x-cd-image.svg">
  <sodipodi:namedview
     pagecolor="#ffffff"
     bordercolor="#666666"
     borderopacity="1"
     objecttolerance="10"
     gridtolerance="10"
     guidetolerance="10"
     inkscape:pageopacity="0"
     inkscape:pageshadow="2"
     inkscape:window-width="1381"
     inkscape:window-height="963"
     id="namedview39"
     showgrid="false"
     showguides="true"
     inkscape:guide-bbox="true"
     inkscape:zoom="51.9375"
     inkscape:cx="8"
     inkscape:cy="8"
     inkscape:window-x="75"
     inkscape:window-y="34"
     inkscape:window-maximized="0"
     inkscape:current-layer="svg3323" />
  <defs
     id="defs3325">
    <linearGradient
       x1="71.204407"
       y1="6.2375584"
       x2="71.204407"
       y2="44.340794"
       id="linearGradient3252"
       xlink:href="#linearGradient4011"
       gradientUnits="userSpaceOnUse"
       gradientTransform="matrix(0.13513513,0,0,0.13513514,-1.6937177,4.5733459)" />
    <linearGradient
       id="linearGradient4011">
      <stop
         id="stop4013"
         style="stop-color:#ffffff;stop-opacity:1"
         offset="0" />
      <stop
         id="stop4015"
         style="stop-color:#ffffff;stop-opacity:0.23529412"
         offset="0.507761" />
      <stop
         id="stop4017"
         style="stop-color:#ffffff;stop-opacity:0.15686275"
         offset="0.83456558" />
      <stop
         id="stop4019"
         style="stop-color:#ffffff;stop-opacity:0.39215687"
         offset="1" />
    </linearGradient>
    <linearGradient
       x1="12.2744"
       y1="32.4165"
       x2="35.391201"
       y2="14.2033"
       id="linearGradient3270"
       xlink:href="#linearGradient3263"
       gradientUnits="userSpaceOnUse"
       gradientTransform="matrix(0,0.20000175,-0.20000175,0,12.62004,3.1999575)" />
    <linearGradient
       x1="12.2744"
       y1="32.4165"
       x2="35.391201"
       y2="14.2033"
       id="linearGradient3263"
       gradientUnits="userSpaceOnUse">
      <stop
         id="stop3265"
         style="stop-color:#dedbde;stop-opacity:1"
         offset="0" />
      <stop
         id="stop3267"
         style="stop-color:#e6e6e6;stop-opacity:1"
         offset="0.5" />
      <stop
         id="stop3269"
         style="stop-color:#d2d2d2;stop-opacity:1"
         offset="1" />
    </linearGradient>
    <linearGradient
       x1="-21.915663"
       y1="3"
       x2="-21.915663"
       y2="45.032898"
       id="linearGradient3272"
       xlink:href="#linearGradient3772"
       gradientUnits="userSpaceOnUse"
       gradientTransform="matrix(0.17073167,0,0,0.17073167,12.484278,3.9024399)" />
    <linearGradient
       id="linearGradient3772">
      <stop
         id="stop3774"
         style="stop-color:#b4b4b4;stop-opacity:1"
         offset="0" />
      <stop
         id="stop3776"
         style="stop-color:#969696;stop-opacity:1"
         offset="1" />
    </linearGradient>
    <linearGradient
       x1="23.99999"
       y1="5.5641499"
       x2="23.99999"
       y2="43"
       id="linearGradient3988"
       xlink:href="#linearGradient3977"
       gradientUnits="userSpaceOnUse"
       gradientTransform="matrix(0.24324324,0,0,0.35135133,2.1621636,-0.43242804)" />
    <linearGradient
       id="linearGradient3977">
      <stop
         id="stop3979"
         style="stop-color:#ffffff;stop-opacity:1"
         offset="0" />
      <stop
         id="stop3981"
         style="stop-color:#ffffff;stop-opacity:0.23529412"
         offset="0.03626217" />
      <stop
         id="stop3983"
         style="stop-color:#ffffff;stop-opacity:0.15686275"
         offset="0.95056331" />
      <stop
         id="stop3985"
         style="stop-color:#ffffff;stop-opacity:0.39215687"
         offset="1" />
    </linearGradient>
    <linearGradient
       id="linearGradient3600">
      <stop
         id="stop3602"
         style="stop-color:#f4f4f4;stop-opacity:1"
         offset="0" />
      <stop
         id="stop3604"
         style="stop-color:#dbdbdb;stop-opacity:1"
         offset="1" />
    </linearGradient>
    <linearGradient
       id="linearGradient3104">
      <stop
         id="stop3106"
         style="stop-color:#a0a0a0;stop-opacity:1"
         offset="0" />
      <stop
         id="stop3108"
         style="stop-color:#bebebe;stop-opacity:1"
         offset="1" />
    </linearGradient>
    <linearGradient
       x1="25.132275"
       y1="0.98520643"
       x2="25.132275"
       y2="47.013336"
       id="linearGradient3319"
       xlink:href="#linearGradient3600"
       gradientUnits="userSpaceOnUse"
       gradientTransform="matrix(0.31428714,0,0,0.3259265,0.457108,-0.32223804)" />
    <linearGradient
       x1="-51.786404"
       y1="50.786446"
       x2="-51.786404"
       y2="2.9062471"
       id="linearGradient3321"
       xlink:href="#linearGradient3104"
       gradientUnits="userSpaceOnUse"
       gradientTransform="matrix(0.25378586,0,0,0.30501865,19.128979,-0.68547704)" />
  </defs>
  <metadata
     id="metadata3328">
    <rdf:RDF>
      <cc:Work
         rdf:about="">
        <dc:format>image/svg+xml</dc:format>
        <dc:type
           rdf:resource="http://purl.org/dc/dcmitype/StillImage" />
        <dc:title></dc:title>
      </cc:Work>
    </rdf:RDF>
  </metadata>
  <g
     id="layer1">
    <path
       d="m 2.4999621,0.49997396 c 2.5206756,0 11.0000629,9.54e-4 11.0000629,9.54e-4 l 1.3e-5,14.99909804 c 0,0 -7.3333841,0 -11.0000759,0 0,-5.000017 0,-10.000035 0,-15.00005204 z"
       inkscape:connector-curvature="0"
       id="path4160"
       style="fill:url(#linearGradient3319);fill-opacity:1;stroke:url(#linearGradient3321);stroke-width:0.99992192;stroke-linecap:butt;stroke-linejoin:round;stroke-miterlimit:4;stroke-opacity:1;stroke-dasharray:none;stroke-dashoffset:0;display:inline" />
    <path
       d="m 12.5,14.5 -9.0000001,0 0,-13 L 12.5,1.5 z"
       inkscape:connector-curvature="0"
       id="rect6741-1"
       style="fill:none;stroke:url(#linearGradient3988);stroke-width:1;stroke-linecap:round;stroke-linejoin:miter;stroke-miterlimit:4;stroke-opacity:1;stroke-dasharray:none;stroke-dashoffset:0" />
  </g>
  <path
     id="path3043"
     d="M 4.7927024,11.71606 C 4.6462381,11.49398 3.7907864,9.9286911 3.6150287,9.6618197 3.4389324,9.3954609 3.493771,9.0146543 3.5891501,8.8496267 L 4.1974876,7.8214824 3.7540086,7.5769224 5.6910795,7.3151611 6.4504762,9.0955487 6.0150028,8.8342988 4.8555523,10.845452 C 4.7130054,11.092909 4.6256389,11.48206 4.7927103,11.71606 z"
     style="opacity:1;fill:#ffffff;fill-opacity:1;stroke:none;overflow:visible"
     inkscape:connector-curvature="0" />
  <path
     id="path3045"
     d="m 5.4754614,10.165077 -0.500361,0.867715 c -0.1193844,0.206921 -0.1978955,0.51211 -0.1233019,0.743556 0.1519138,0.212885 0.3968151,0.46443 0.7467953,0.471582 H 7.8662309 V 10.165077 H 5.4754614 z"
     style="opacity:1;fill:#ffffff;fill-opacity:1;stroke:none;overflow:visible"
     inkscape:connector-curvature="0" />
  <path
     id="path3047"
     d="m 12.341723,9.7854623 c -0.119044,0.2379187 -1.047217,1.7613157 -1.190104,2.0467477 -0.142716,0.285778 -0.499849,0.428664 -0.690253,0.428664 L 9.3225248,12.249054 V 12.8 L 8.0809876,11.207523 9.3225248,9.6151532 v 0.5509408 h 2.2334022 c 0.285946,0 0.666752,-0.118874 0.785796,-0.3806353 z"
     style="opacity:1;fill:#ffffff;fill-opacity:1;stroke:none;overflow:visible"
     inkscape:connector-curvature="0" />
  <path
     id="path3049"
     d="m 6.8953108,4.2128513 c 0.2656786,-0.015837 2.0489612,0.026563 2.3676055,0.00732 0.3188149,-0.019074 0.620939,0.2186738 0.7161419,0.3837015 L 10.580581,5.6441134 11.034618,5.3774139 10.257168,7.1915215 8.3095381,6.9527499 8.7627259,6.6996727 7.617753,4.702825 C 7.4750343,4.4555405 7.1815964,4.1850943 6.8953108,4.2128536 z"
     style="opacity:1;fill:#ffffff;fill-opacity:1;stroke:none;overflow:visible"
     inkscape:connector-curvature="0" />
  <path
     id="path3051"
     d="M 6.8113496,4.2601966 C 6.5490766,4.2828451 6.1973942,4.3661271 6.0117577,4.6726788 L 4.8977815,6.6088985 6.701332,7.6503241 7.8953525,5.5751363 7.4195155,4.7452295 C 7.2955325,4.5311548 7.0588054,4.300218 6.8113496,4.2601966 z"
     style="opacity:1;fill:#ffffff;fill-opacity:1;stroke:none;overflow:visible"
     inkscape:connector-curvature="0" />
  <path
     id="path3053"
     d="m 11.743435,9.9850615 c 0.196194,0 0.418445,-0.091618 0.588751,-0.2113491 l 0.0097,-0.016703 c 0.11907,-0.2379186 0.251229,-0.6132749 0.06629,-0.9492908 L 11.265537,6.8573649 9.4619865,7.8986203 10.68002,9.9850498 h 1.063398 z"
     style="opacity:1;fill:#ffffff;fill-opacity:1;stroke:none;overflow:visible"
     inkscape:connector-curvature="0" />
  <path
     inkscape:connector-curvature="0"
     style="fill:#000000;fill-opacity:0.71428576;stroke:none;overflow:visible"
     d="M 4.7927024,11.41606 C 4.6462381,11.19398 3.7907864,9.6286911 3.6150287,9.3618197 3.4389324,9.0954609 3.493771,8.7146543 3.5891501,8.5496267 L 4.1974876,7.5214824 3.7540086,7.2769224 5.6910795,7.0151611 6.4504762,8.7955487 6.0150028,8.5342988 4.8555523,10.545452 C 4.7130054,10.792909 4.6256389,11.18206 4.7927103,11.41606 z"
     id="path3843" />
  <path
     inkscape:connector-curvature="0"
     style="fill:#000000;fill-opacity:0.71428576;stroke:none;overflow:visible"
     d="m 5.4754614,9.865077 -0.500361,0.867715 c -0.1193844,0.206921 -0.1978955,0.51211 -0.1233019,0.743556 0.1519138,0.212885 0.3968151,0.46443 0.7467953,0.471582 H 7.8662309 V 9.865077 H 5.4754614 z"
     id="path3845" />
  <path
     inkscape:connector-curvature="0"
     style="fill:#000000;fill-opacity:0.71428576;stroke:none;overflow:visible"
     d="M 12.341723,9.4854623 C 12.222679,9.723381 11.294506,11.246778 11.151619,11.53221 11.008903,11.817988 10.65177,11.960874 10.461366,11.960874 L 9.3225248,11.949054 V 12.5 L 8.0809876,10.907523 9.3225248,9.3151532 V 9.866094 h 2.2334022 c 0.285946,0 0.666752,-0.118874 0.785796,-0.3806353 z"
     id="path3847" />
  <path
     inkscape:connector-curvature="0"
     style="fill:#000000;fill-opacity:0.71428576;stroke:none;overflow:visible"
     d="m 6.8953108,3.9128513 c 0.2656786,-0.015837 2.0489612,0.026563 2.3676055,0.00732 0.3188149,-0.019074 0.620939,0.2186738 0.7161419,0.3837015 L 10.580581,5.3441134 11.034618,5.0774139 10.257168,6.8915215 8.3095381,6.6527499 8.7627259,6.3996727 7.617753,4.402825 C 7.4750343,4.1555405 7.1815964,3.8850943 6.8953108,3.9128536 z"
     id="path3849" />
  <path
     inkscape:connector-curvature="0"
     style="fill:#000000;fill-opacity:0.71428576;stroke:none;overflow:visible"
     d="M 6.8113496,3.9601966 C 6.5490766,3.9828451 6.1973942,4.0661271 6.0117577,4.3726788 L 4.8977815,6.3088985 6.701332,7.3503241 7.8953525,5.2751363 7.4195155,4.4452295 C 7.2955325,4.2311548 7.0588054,4.000218 6.8113496,3.9601966 z"
     id="path3851" />
  <path
     inkscape:connector-curvature="0"
     style="fill:#000000;fill-opacity:0.71428576;stroke:none;overflow:visible"
     d="m 11.743435,9.6850615 c 0.196194,0 0.418445,-0.091618 0.588751,-0.2113491 l 0.0097,-0.016703 c 0.11907,-0.2379186 0.251229,-0.6132749 0.06629,-0.9492908 L 11.265537,6.5573649 9.4619865,7.5986203 10.68002,9.6850498 h 1.063398 z"
     id="path3853" />
</svg>
