<?xml version="1.0" encoding="UTF-8" standalone="no"?>
<!-- Created with Inkscape (http://www.inkscape.org/) -->

<svg
   xmlns:dc="http://purl.org/dc/elements/1.1/"
   xmlns:cc="http://creativecommons.org/ns#"
   xmlns:rdf="http://www.w3.org/1999/02/22-rdf-syntax-ns#"
   xmlns:svg="http://www.w3.org/2000/svg"
   xmlns="http://www.w3.org/2000/svg"
   xmlns:xlink="http://www.w3.org/1999/xlink"
   xmlns:sodipodi="http://sodipodi.sourceforge.net/DTD/sodipodi-0.dtd"
   xmlns:inkscape="http://www.inkscape.org/namespaces/inkscape"
   version="1.1"
   width="16"
   height="16"
   id="svg3810"
   inkscape:version="0.48.4 r9939"
   sodipodi:docname="2.svg">
  <sodipodi:namedview
     pagecolor="#ffffff"
     bordercolor="#666666"
     borderopacity="1"
     objecttolerance="10"
     gridtolerance="10"
     guidetolerance="10"
     inkscape:pageopacity="0"
     inkscape:pageshadow="2"
     inkscape:window-width="1855"
     inkscape:window-height="1056"
     id="namedview34"
     showgrid="true"
     inkscape:zoom="57.75"
     inkscape:cx="5.1601732"
     inkscape:cy="8"
     inkscape:window-x="65"
     inkscape:window-y="24"
     inkscape:window-maximized="1"
     inkscape:current-layer="layer1">
    <inkscape:grid
       type="xygrid"
       id="grid3007" />
  </sodipodi:namedview>
  <defs
     id="defs3812">
    <linearGradient
       x1="23.99999"
       y1="5.5641499"
       x2="23.99999"
       y2="43"
       id="linearGradient3988"
       xlink:href="#linearGradient3977"
       gradientUnits="userSpaceOnUse"
       gradientTransform="matrix(0.24324324,0,0,0.35135133,2.1621636,-0.43242804)" />
    <linearGradient
       id="linearGradient3977">
      <stop
         id="stop3979"
         style="stop-color:#ffffff;stop-opacity:1"
         offset="0" />
      <stop
         id="stop3981"
         style="stop-color:#ffffff;stop-opacity:0.23529412"
         offset="0.03626217" />
      <stop
         id="stop3983"
         style="stop-color:#ffffff;stop-opacity:0.15686275"
         offset="0.95056331" />
      <stop
         id="stop3985"
         style="stop-color:#ffffff;stop-opacity:0.39215687"
         offset="1" />
    </linearGradient>
    <linearGradient
       id="linearGradient4246-9">
      <stop
         id="stop4248-6"
         style="stop-color:#ffffff;stop-opacity:1"
         offset="0" />
      <stop
         id="stop4250-1"
         style="stop-color:#dcdcdc;stop-opacity:1"
         offset="1" />
    </linearGradient>
    <linearGradient
       id="linearGradient3242-7-5-0-3">
      <stop
         id="stop3244-6-7-3-3"
         style="stop-color:#f89b7e;stop-opacity:1"
         offset="0" />
      <stop
         id="stop3246-5-0-7-8"
         style="stop-color:#e35d4f;stop-opacity:1"
         offset="0.26238" />
      <stop
         id="stop3248-6-8-8-3"
         style="stop-color:#c6262e;stop-opacity:1"
         offset="0.66093999" />
      <stop
         id="stop3250-9-1-8-7"
         style="stop-color:#690b2c;stop-opacity:1"
         offset="1" />
    </linearGradient>
    <linearGradient
       id="linearGradient2490-3-9-0-3">
      <stop
         id="stop2492-7-7-4-7"
         style="stop-color:#791235;stop-opacity:1"
         offset="0" />
      <stop
         id="stop2494-4-8-6-8"
         style="stop-color:#dd3b27;stop-opacity:1"
         offset="1" />
    </linearGradient>
    <linearGradient
       x1="23.969797"
       y1="3.9810441"
       x2="23.969797"
       y2="44.024017"
       id="linearGradient3835"
       xlink:href="#linearGradient4246-9"
       gradientUnits="userSpaceOnUse"
       gradientTransform="matrix(0.26598368,0,0,0.36786179,1.670757,-0.83930922)" />
    <radialGradient
       cx="7.4956832"
       cy="8.4497671"
       r="19.99999"
       fx="7.4956832"
       fy="8.4497671"
       id="radialGradient3841"
       xlink:href="#linearGradient2867-449-88-871-390-598-476-591-434-148-57-177-8-3"
       gradientUnits="userSpaceOnUse"
       gradientTransform="matrix(0,0.97757094,-1.0784279,-5.5549338e-8,17.112496,-6.6025822)" />
    <linearGradient
       x1="24"
       y1="44"
       x2="24"
       y2="3.8990016"
       id="linearGradient3843"
       xlink:href="#linearGradient2490-3-9-0-3"
       gradientUnits="userSpaceOnUse"
       gradientTransform="matrix(0.28205063,0,0,0.38456639,1.230784,-1.2295936)" />
    <radialGradient
       cx="7.8060555"
       cy="9.9571075"
       r="12.671875"
       fx="7.2758255"
       fy="9.9571075"
       id="radialGradient3077"
       xlink:href="#linearGradient2867-449-88-871-390-598-476-591-434-148-57-177-8-3"
       gradientUnits="userSpaceOnUse"
       gradientTransform="matrix(-5.0811427e-8,2.2503492,-2.5432605,-6.7549429e-8,33.320146,-20.146257)" />
    <linearGradient
       id="linearGradient2867-449-88-871-390-598-476-591-434-148-57-177-8-3">
      <stop
         id="stop3750-1-0"
         style="stop-color:#90dbec;stop-opacity:1"
         offset="0" />
      <stop
         id="stop3752-3-7"
         style="stop-color:#55c1ec;stop-opacity:1"
         offset="0.26238" />
      <stop
         id="stop3754-1-8"
         style="stop-color:#3689e6;stop-opacity:1"
         offset="0.704952" />
      <stop
         id="stop3756-1-6"
         style="stop-color:#2b63a0;stop-opacity:1"
         offset="1" />
    </linearGradient>
  </defs>
  <metadata
     id="metadata3815">
    <rdf:RDF>
      <cc:Work
         rdf:about="">
        <dc:format>image/svg+xml</dc:format>
        <dc:type
           rdf:resource="http://purl.org/dc/dcmitype/StillImage" />
        <dc:title></dc:title>
      </cc:Work>
    </rdf:RDF>
  </metadata>
  <g
     id="layer1">
    <path
       d="m 2.5,0.5000003 c 2.520658,0 10.999987,9.544e-4 10.999987,9.544e-4 L 13.5,15.5 c 0,0 -7.333333,0 -11,0 0,-5.000001 0,-10.0000003 0,-15 z"
       inkscape:connector-curvature="0"
       id="path4160-4"
       style="color:#000000;fill:url(#radialGradient3841);fill-opacity:1;fill-rule:nonzero;stroke:#2b63a0;stroke-width:1;stroke-linecap:round;stroke-linejoin:round;stroke-miterlimit:4;stroke-opacity:1;stroke-dasharray:none;stroke-dashoffset:0;marker:none;visibility:visible;display:inline;overflow:visible;enable-background:accumulate" />
    <path
       d="m 12.5,14.5 -9.0000001,0 0,-13 L 12.5,1.5 z"
       inkscape:connector-curvature="0"
       id="rect6741-1"
       style="opacity:0.5;fill:none;stroke:url(#linearGradient3988);stroke-width:1;stroke-linecap:round;stroke-linejoin:miter;stroke-miterlimit:4;stroke-opacity:1;stroke-dasharray:none;stroke-dashoffset:0" />
    <path
       inkscape:connector-curvature="0"
       d="m 8.461847,4.4978719 -4.2583083,0.751467 a 0.24303801,0.24303801 0 0 0 -0.203522,0.24266 l 0,5.5107621 a 0.24303801,0.24303801 0 0 0 0.203522,0.24266 l 4.2583083,0.751466 a 0.24303801,0.24303801 0 0 0 0.2818,-0.24266 l 0,-0.508806 a 0.24303801,0.24303801 0 0 0 0.0078,0 l 3.005864,0 A 0.24303801,0.24303801 0 0 0 12,11.002761 l 0,-5.5107621 a 0.24303801,0.24303801 0 0 0 -0.242661,-0.24266 l -3.005864,0 a 0.24303801,0.24303801 0 0 0 -0.0078,0 l 0,-0.508806 a 0.24303801,0.24303801 0 0 0 -0.2818,-0.242661 z M 6.3483476,7.2767305 c 0.01857,-0.0038 0.0141,9.2e-4 0.03914,0 0.0096,0.0434 0.01826,0.09375 0.03131,0.156556 0.0187,0.09001 0.03994,0.220096 0.06262,0.336594 -0.01395,-0.02829 -0.01818,-0.0652 -0.133073,-0.08611 -0.03946,-0.0072 -0.07542,0.01617 -0.117417,0.03131 0.02445,-0.105607 0.05681,-0.225902 0.07828,-0.305283 0.01578,-0.05833 0.02727,-0.0963 0.03914,-0.133072 z m 0.454011,1.667316 c 0.01786,0.02406 0.0278,0.04683 0.09393,0.07045 0.05878,0.021 0.125381,-0.01762 0.187867,-0.04697 l -0.07828,0.367905 -0.06262,0 c -0.02494,0 -0.0401,5.2e-4 -0.06262,0 -0.0059,-0.02791 -0.0086,-0.04456 -0.01566,-0.07828 -0.01688,-0.08073 -0.04051,-0.206598 -0.06262,-0.31311 z m -1.150682,0.03131 c 0.01776,0.01 0.03911,0.02348 0.03914,0.02348 7.3e-5,1.7e-5 0.132988,-0.0078 0.133072,-0.0078 10e-6,-3e-6 0.006,-0.0068 0.0078,-0.0078 l -0.05479,0.289628 -0.02348,0 -0.04697,0 -0.05479,-0.297456 z"
       id="path4138"
       style="opacity:0.15;color:#000000;fill:#0974ae;fill-opacity:1;fill-rule:nonzero;stroke:none;stroke-width:1;marker:none;visibility:visible;display:inline;overflow:visible;enable-background:accumulate" />
    <path
       inkscape:connector-curvature="0"
       d="m 8.500986,4.7405329 -4.2583083,0.751466 0,5.5107621 4.2583083,0.751466 0,-7.0136941 z m 0.250488,0.751466 0,0.7514666 2.254398,0 0,0.250488 -2.254398,0 0,0.500978 2.254398,0 0,0.250488 -2.254398,0 0,0.500977 2.254398,0 0,0.250489 -2.254398,0 0,0.500978 2.254398,0 0,0.250488 -2.254398,0 0,0.500978 2.254398,0 0,0.250488 -2.254398,0 0,0.5009785 2.254398,0 0,0.25049 -2.254398,0 0,0.751475 3.005865,0 0,-5.5107621 -3.005865,0 z m -1.4716214,1.4794486 0.2426614,0 c 0.222564,0 0.236654,0.01488 0.21135,0.125245 -0.01506,0.06571 -0.142528,0.649653 -0.2818,1.29941 l -0.2504894,1.181993 -0.258316,0 c -0.140855,0 -0.255617,-0.0084 -0.258316,-0.01566 -0.0027,-0.0073 -0.08361,-0.393814 -0.180039,-0.861055 -0.09643,-0.467241 -0.187891,-0.818753 -0.203522,-0.774949 -0.01563,0.0438 -0.09786,0.427954 -0.180039,0.845399 l -0.148728,0.759294 -0.234833,-0.01566 -0.242661,-0.01566 -0.195694,-1.041094 c -0.109186,-0.569449 -0.212247,-1.096897 -0.227005,-1.174165 -0.02442,-0.127839 -0.0077,-0.144295 0.164383,-0.164384 0.239749,-0.02799 0.250013,-0.0032 0.391388,0.91585 0.0604,0.392643 0.109224,0.71979 0.117417,0.727982 0.0082,0.0082 0.09427,-0.364136 0.187867,-0.821916 0.0936,-0.457779 0.198752,-0.845965 0.234833,-0.868882 0.103841,-0.06596 0.395537,-0.0496 0.422699,0.02348 0.01357,0.0365 0.09775,0.431371 0.180039,0.87671 0.137678,0.745081 0.234416,1.016452 0.234833,0.657533 1.6e-4,-0.143349 0.1101,-0.827794 0.219178,-1.377688 l 0.05479,-0.2818 z"
       id="rect3139-6"
       style="opacity:0.3;color:#000000;fill:#0935ae;fill-opacity:1;fill-rule:nonzero;stroke:none;stroke-width:1;marker:none;visibility:visible;display:inline;overflow:visible;enable-background:accumulate" />
    <path
       inkscape:connector-curvature="0"
       d="m 8.500986,4.4900449 -4.2583083,0.751466 0,5.5107571 4.2583083,0.75147 0,-7.0136931 z m 0.250488,0.751466 0,0.7514646 2.254398,0 0,0.25049 -2.254398,0 0,0.500977 2.254398,0 0,0.250489 -2.254398,0 0,0.500977 2.254398,0 0,0.250488 -2.254398,0 0,0.500978 2.254398,0 0,0.250489 -2.254398,0 0,0.500977 2.254398,0 0,0.250489 -2.254398,0 0,0.500977 2.254398,0 0,0.2504895 -2.254398,0 0,0.751472 3.005865,0 0,-5.5107571 -3.005865,0 z m -1.4716214,1.4794486 0.2426614,0 c 0.222564,0 0.236654,0.01488 0.21135,0.125244 -0.01506,0.06571 -0.142528,0.649653 -0.2818,1.29941 l -0.2504894,1.181993 -0.258316,0 c -0.140855,0 -0.255617,-0.0084 -0.258316,-0.01566 -0.0027,-0.0073 -0.08361,-0.393814 -0.180039,-0.861055 -0.09643,-0.46724 -0.187891,-0.818753 -0.203522,-0.774949 -0.01563,0.0438 -0.09786,0.427954 -0.180039,0.845399 l -0.148728,0.759294 -0.234833,-0.01566 -0.242661,-0.01566 -0.195694,-1.041093 c -0.109186,-0.56945 -0.212247,-1.096898 -0.227005,-1.174166 -0.02442,-0.127839 -0.0077,-0.144295 0.164383,-0.164383 0.239749,-0.02799 0.250013,-0.0032 0.391388,0.915849 0.0604,0.392644 0.109224,0.71979 0.117417,0.727983 0.0082,0.0082 0.09427,-0.364137 0.187867,-0.821916 0.0936,-0.45778 0.198752,-0.845966 0.234833,-0.868883 0.103841,-0.06596 0.395537,-0.0496 0.422699,0.02348 0.01357,0.0365 0.09775,0.431372 0.180039,0.876711 0.137678,0.74508 0.234416,1.016451 0.234833,0.657533 1.6e-4,-0.143349 0.1101,-0.827795 0.219178,-1.377688 l 0.05479,-0.2818 z"
       id="rect3139"
       style="color:#000000;fill:#ffffff;fill-opacity:1;fill-rule:nonzero;stroke:none;stroke-width:0.99999994;marker:none;visibility:visible;display:inline;overflow:visible;enable-background:accumulate" />
  </g>
</svg>
