<?xml version="1.0" encoding="UTF-8" standalone="no"?>
<!-- Created with Inkscape (http://www.inkscape.org/) -->

<svg
   xmlns:dc="http://purl.org/dc/elements/1.1/"
   xmlns:cc="http://creativecommons.org/ns#"
   xmlns:rdf="http://www.w3.org/1999/02/22-rdf-syntax-ns#"
   xmlns:svg="http://www.w3.org/2000/svg"
   xmlns="http://www.w3.org/2000/svg"
   xmlns:xlink="http://www.w3.org/1999/xlink"
   xmlns:sodipodi="http://sodipodi.sourceforge.net/DTD/sodipodi-0.dtd"
   xmlns:inkscape="http://www.inkscape.org/namespaces/inkscape"
   version="1.1"
   width="16"
   height="16"
   id="svg3810"
   inkscape:version="0.48.4 r9939"
   sodipodi:docname="1.svg">
  <sodipodi:namedview
     pagecolor="#ffffff"
     bordercolor="#666666"
     borderopacity="1"
     objecttolerance="10"
     gridtolerance="10"
     guidetolerance="10"
     inkscape:pageopacity="0"
     inkscape:pageshadow="2"
     inkscape:window-width="1855"
     inkscape:window-height="1056"
     id="namedview34"
     showgrid="true"
     inkscape:zoom="57.75"
     inkscape:cx="5.1601732"
     inkscape:cy="8"
     inkscape:window-x="65"
     inkscape:window-y="24"
     inkscape:window-maximized="1"
     inkscape:current-layer="layer1">
    <inkscape:grid
       type="xygrid"
       id="grid3007" />
  </sodipodi:namedview>
  <defs
     id="defs3812">
    <linearGradient
       x1="23.99999"
       y1="5.5641499"
       x2="23.99999"
       y2="43"
       id="linearGradient3988"
       xlink:href="#linearGradient3977"
       gradientUnits="userSpaceOnUse"
       gradientTransform="matrix(0.24324324,0,0,0.35135133,2.1621636,-0.43242804)" />
    <linearGradient
       id="linearGradient3977">
      <stop
         id="stop3979"
         style="stop-color:#ffffff;stop-opacity:1"
         offset="0" />
      <stop
         id="stop3981"
         style="stop-color:#ffffff;stop-opacity:0.23529412"
         offset="0.03626217" />
      <stop
         id="stop3983"
         style="stop-color:#ffffff;stop-opacity:0.15686275"
         offset="0.95056331" />
      <stop
         id="stop3985"
         style="stop-color:#ffffff;stop-opacity:0.39215687"
         offset="1" />
    </linearGradient>
    <linearGradient
       id="linearGradient4246-9">
      <stop
         id="stop4248-6"
         style="stop-color:#ffffff;stop-opacity:1"
         offset="0" />
      <stop
         id="stop4250-1"
         style="stop-color:#dcdcdc;stop-opacity:1"
         offset="1" />
    </linearGradient>
    <linearGradient
       id="linearGradient3242-7-5-0-3">
      <stop
         id="stop3244-6-7-3-3"
         style="stop-color:#f89b7e;stop-opacity:1"
         offset="0" />
      <stop
         id="stop3246-5-0-7-8"
         style="stop-color:#e35d4f;stop-opacity:1"
         offset="0.26238" />
      <stop
         id="stop3248-6-8-8-3"
         style="stop-color:#c6262e;stop-opacity:1"
         offset="0.66093999" />
      <stop
         id="stop3250-9-1-8-7"
         style="stop-color:#690b2c;stop-opacity:1"
         offset="1" />
    </linearGradient>
    <linearGradient
       id="linearGradient2490-3-9-0-3">
      <stop
         id="stop2492-7-7-4-7"
         style="stop-color:#791235;stop-opacity:1"
         offset="0" />
      <stop
         id="stop2494-4-8-6-8"
         style="stop-color:#dd3b27;stop-opacity:1"
         offset="1" />
    </linearGradient>
    <linearGradient
       x1="23.969797"
       y1="3.9810441"
       x2="23.969797"
       y2="44.024017"
       id="linearGradient3835"
       xlink:href="#linearGradient4246-9"
       gradientUnits="userSpaceOnUse"
       gradientTransform="matrix(0.26598368,0,0,0.36786179,1.670757,-0.83930922)" />
    <radialGradient
       cx="7.4956832"
       cy="8.4497671"
       r="19.99999"
       fx="7.4956832"
       fy="8.4497671"
       id="radialGradient3841"
       xlink:href="#linearGradient2867-449-88-871-390-598-476-591-434-148-57-177-8-3"
       gradientUnits="userSpaceOnUse"
       gradientTransform="matrix(0,0.97757094,-1.0784279,-5.5549338e-8,17.112496,-6.6025822)" />
    <linearGradient
       x1="24"
       y1="44"
       x2="24"
       y2="3.8990016"
       id="linearGradient3843"
       xlink:href="#linearGradient2490-3-9-0-3"
       gradientUnits="userSpaceOnUse"
       gradientTransform="matrix(0.28205063,0,0,0.38456639,1.230784,-1.2295936)" />
    <radialGradient
       cx="7.8060555"
       cy="9.9571075"
       r="12.671875"
       fx="7.2758255"
       fy="9.9571075"
       id="radialGradient3077"
       xlink:href="#linearGradient2867-449-88-871-390-598-476-591-434-148-57-177-8-3"
       gradientUnits="userSpaceOnUse"
       gradientTransform="matrix(-5.0811427e-8,2.2503492,-2.5432605,-6.7549429e-8,33.320146,-20.146257)" />
    <linearGradient
       id="linearGradient2867-449-88-871-390-598-476-591-434-148-57-177-8-3">
      <stop
         id="stop3750-1-0"
         style="stop-color:#90dbec;stop-opacity:1"
         offset="0" />
      <stop
         id="stop3752-3-7"
         style="stop-color:#55c1ec;stop-opacity:1"
         offset="0.26238" />
      <stop
         id="stop3754-1-8"
         style="stop-color:#3689e6;stop-opacity:1"
         offset="0.704952" />
      <stop
         id="stop3756-1-6"
         style="stop-color:#2b63a0;stop-opacity:1"
         offset="1" />
    </linearGradient>
  </defs>
  <metadata
     id="metadata3815">
    <rdf:RDF>
      <cc:Work
         rdf:about="">
        <dc:format>image/svg+xml</dc:format>
        <dc:type
           rdf:resource="http://purl.org/dc/dcmitype/StillImage" />
        <dc:title></dc:title>
      </cc:Work>
    </rdf:RDF>
  </metadata>
  <g
     id="layer1">
    <path
       d="m 2.5,0.5000003 c 2.520658,0 10.999987,9.544e-4 10.999987,9.544e-4 L 13.5,15.5 c 0,0 -7.333333,0 -11,0 0,-5.000001 0,-10.0000003 0,-15 z"
       inkscape:connector-curvature="0"
       id="path4160-4"
       style="color:#000000;fill:url(#radialGradient3841);fill-opacity:1;fill-rule:nonzero;stroke:#2b63a0;stroke-width:1;stroke-linecap:round;stroke-linejoin:round;stroke-miterlimit:4;stroke-opacity:1;stroke-dasharray:none;stroke-dashoffset:0;marker:none;visibility:visible;display:inline;overflow:visible;enable-background:accumulate" />
    <path
       d="m 12.5,14.5 -9.0000001,0 0,-13 L 12.5,1.5 z"
       inkscape:connector-curvature="0"
       id="rect6741-1"
       style="opacity:0.5;fill:none;stroke:url(#linearGradient3988);stroke-width:1;stroke-linecap:round;stroke-linejoin:miter;stroke-miterlimit:4;stroke-opacity:1;stroke-dasharray:none;stroke-dashoffset:0" />
    <path
       inkscape:connector-curvature="0"
       d="m 11.816897,4.8324392 c -0.03673,0.017998 -0.06933,0.076385 -0.101056,0.1712859 C 11.63123,5.2567935 11.035897,7.0050266 7.6634791,7.0893827 6.0542128,7.1292827 5.0413744,5.7190957 5.0413744,5.7190957 5.00987,6.5934896 5.0351934,7.4985816 5.0205617,8.480007 5.0018217,8.450808 4.8773364,8.2966722 4.8567524,8.2682332 4.7326627,8.0967788 4.5871949,7.9525087 4.432316,7.8450557 4.2543598,7.7215918 4.0692558,7.6400753 3.8866116,7.613316 3.6760418,7.582465 3.4723729,7.62793 3.3105902,7.7442993 3.1487583,7.8607031 3.0545483,8.0390394 3.0175267,8.2480813 c -0.032094,0.1812208 -0.020959,0.3771243 0.040423,0.584387 0.053428,0.180405 0.1387116,0.3625493 0.2627466,0.5340092 0.1310343,0.1811353 0.2942803,0.3415343 0.4648593,0.4534033 0.1923777,0.126165 0.3963299,0.2000732 0.5962326,0.2115892 0.06186,0.0036 0.1250625,-0.01156 0.1819015,-0.02015 1.2947602,1.023391 3.9997465,2.045644 5.7032253,1.034363 0.03685,0.0125 0.07412,0.02754 0.111162,0.0403 9.12e-4,0.01748 -0.0046,0.03481 0,0.05038 l 0.08085,-0.03023 c 0.252475,0.133145 0.568146,0.222984 0.848874,0.32242 -0.03151,0.265891 0.100394,0.489028 0.434544,0.616502 C 12.344111,12.274623 13.019472,12.5 13.019472,12.5 12.732424,11.528506 12.7375,10.685255 11.993232,10.630881 c -0.126391,-0.0092 -0.283694,0.116932 -0.323381,0.151135 l -0.677078,-0.433253 -0.03032,0 -0.01011,-0.01008 C 11.864119,9.4440278 12.281595,7.9490147 11.958374,5.0238706 11.939664,4.8776916 11.878114,4.802436 11.816897,4.8324372 z"
       id="path4323-6"
       style="opacity:0.3;color:#000000;fill:#10283f;fill-opacity:0.63137255;fill-rule:nonzero;stroke:none;stroke-width:0.99999994;marker:none;visibility:visible;display:inline;overflow:visible;enable-background:accumulate" />
    <path
       inkscape:connector-curvature="0"
       d="m 11.816897,3.9819802 c -0.03673,0.017998 -0.06933,0.076385 -0.101056,0.1712859 C 11.63123,4.4063345 11.035897,6.1545676 7.6634791,6.2389237 6.0542128,6.2788237 5.0413744,4.8686367 5.0413744,4.8686367 5.00987,5.7430306 5.0351934,6.6481226 5.0205617,7.629548 5.0018217,7.600349 4.8773364,7.4462132 4.8567524,7.4177742 4.7326627,7.2463198 4.5871949,7.1020497 4.432316,6.9945967 4.2543598,6.8711328 4.0692558,6.7896163 3.8866116,6.762857 3.6760418,6.732006 3.4723729,6.777471 3.3105902,6.8938403 3.1487583,7.0102441 3.0545483,7.1885804 3.0175267,7.3976223 c -0.032094,0.1812208 -0.020959,0.3771243 0.040423,0.584387 0.053428,0.180405 0.1387116,0.3625493 0.2627466,0.5340092 0.1310343,0.181135 0.2942803,0.3415348 0.4648593,0.4534037 0.1923777,0.1261649 0.3963299,0.2000727 0.5962326,0.2115885 0.06186,0.00356 0.1250625,-0.011563 0.1819015,-0.020152 1.2947602,1.0233913 3.9997465,2.0456443 5.7032253,1.0343633 0.03685,0.0125 0.07412,0.02754 0.111162,0.0403 9.12e-4,0.01748 -0.0046,0.03481 0,0.05038 l 0.08085,-0.03023 c 0.252475,0.133145 0.568146,0.222984 0.848874,0.32242 -0.03151,0.265891 0.100394,0.489028 0.434544,0.616502 0.601766,0.229568 1.277127,0.454945 1.277127,0.454945 -0.287048,-0.971494 -0.281972,-1.8147454 -1.02624,-1.8691194 -0.126391,-0.0092 -0.283694,0.116932 -0.323381,0.151135 l -0.677078,-0.4332528 -0.03032,0 -0.01011,-0.010076 c 0.911776,-0.894655 1.329252,-2.3896681 1.006031,-5.3148122 -0.01871,-0.146179 -0.08026,-0.2214346 -0.141477,-0.1914334 z"
       id="path4323"
       style="color:#000000;fill:#ffffff;fill-opacity:1;fill-rule:nonzero;stroke:none;stroke-width:0.99999994;marker:none;visibility:visible;display:inline;overflow:visible;enable-background:accumulate" />
  </g>
</svg>
