<?xml version="1.0" encoding="UTF-8" standalone="no"?>
<!-- Generator: Adobe Illustrator 15.0.0, SVG Export Plug-In . SVG Version: 6.00 Build 0)  -->

<svg
   xmlns:dc="http://purl.org/dc/elements/1.1/"
   xmlns:cc="http://creativecommons.org/ns#"
   xmlns:rdf="http://www.w3.org/1999/02/22-rdf-syntax-ns#"
   xmlns:svg="http://www.w3.org/2000/svg"
   xmlns="http://www.w3.org/2000/svg"
   xmlns:sodipodi="http://sodipodi.sourceforge.net/DTD/sodipodi-0.dtd"
   xmlns:inkscape="http://www.inkscape.org/namespaces/inkscape"
   version="1.1"
   id="Layer_1"
   x="0px"
   y="0px"
   width="16"
   height="16"
   viewBox="0 0 16 16"
   enable-background="new 0 0 512 512"
   xml:space="preserve"
   inkscape:version="0.48.4 r9939"
   sodipodi:docname="lastfm-audioscrobbler.svg"><metadata
     id="metadata9"><rdf:RDF><cc:Work
         rdf:about=""><dc:format>image/svg+xml</dc:format><dc:type
           rdf:resource="http://purl.org/dc/dcmitype/StillImage" /><dc:title /></cc:Work></rdf:RDF></metadata><defs
     id="defs7" /><sodipodi:namedview
     pagecolor="#ffffff"
     bordercolor="#666666"
     borderopacity="1"
     objecttolerance="10"
     gridtolerance="10"
     guidetolerance="10"
     inkscape:pageopacity="0"
     inkscape:pageshadow="2"
     inkscape:window-width="1855"
     inkscape:window-height="1056"
     id="namedview5"
     showgrid="true"
     inkscape:zoom="29.8125"
     inkscape:cx="-3.0020964"
     inkscape:cy="8"
     inkscape:window-x="65"
     inkscape:window-y="24"
     inkscape:window-maximized="1"
     inkscape:current-layer="Layer_1"><inkscape:grid
       type="xygrid"
       id="grid4888" /></sodipodi:namedview><path
     d="m 12.597097,12.600048 c -1.594201,-0.0067 -2.443614,-0.785884 -3.0339228,-2.159701 L 9.3943138,10.065468 7.93902,6.7474543 C 7.456383,5.5729358 6.2587582,4.7795134 4.9074584,4.7795134 c -1.8284066,0 -3.3117694,1.4833952 -3.3117694,3.3130874 0,1.8296247 1.483333,3.3130242 3.3117694,3.3130242 1.2754639,0 2.3845184,-0.721147 2.9380892,-1.7785784 l 0.5885145,1.3575754 c -0.8356619,1.018842 -2.1055357,1.667712 -3.5265736,1.667712 -2.5185244,0 -4.55982239,-2.040133 -4.55982239,-4.559762 0,-2.5184403 2.04129799,-4.5610777 4.55976259,-4.5610777 1.9005961,0 3.4351339,1.015101 4.2147787,2.8135813 0.059123,0.1395402 0.8244221,1.9292967 1.4920306,3.4525323 0.413497,0.9428271 0.766104,1.5681111 1.909385,1.6067641 1.123462,0.03854 1.894498,-0.645188 1.894498,-1.5096748 0,-0.8444452 -0.587918,-1.0474425 -1.580541,-1.3774876 -1.784256,-0.5878809 -2.705291,-1.178249 -2.705291,-2.5931271 0,-1.3800602 0.939089,-2.3004638 2.464779,-2.3004638 0.99388,0 1.711408,0.4421901 2.208425,1.3240067 L 13.830174,5.4458021 C 13.462682,4.9314504 13.057346,4.7283958 12.542246,4.7283958 c -0.716063,0 -1.227427,0.4982433 -1.227427,1.1608015 0,0.9404049 0.841342,1.0823844 2.017774,1.4684732 1.58365,0.5156049 2.319741,1.1047483 2.319741,2.5757368 5.9e-5,1.5444357 -1.325263,2.6691287 -3.055237,2.6666407 z"
     id="path3"
     inkscape:connector-curvature="0"
     style="fill:#3b3b3b;fill-opacity:1;stroke:#3b3b3b;stroke-width:0.69533223;stroke-miterlimit:4;stroke-opacity:1;stroke-dasharray:none" /></svg>