<?xml version="1.0" encoding="UTF-8" standalone="no"?>
<!-- Created with Inkscape (http://www.inkscape.org/) -->

<svg
   xmlns:dc="http://purl.org/dc/elements/1.1/"
   xmlns:cc="http://creativecommons.org/ns#"
   xmlns:rdf="http://www.w3.org/1999/02/22-rdf-syntax-ns#"
   xmlns:svg="http://www.w3.org/2000/svg"
   xmlns="http://www.w3.org/2000/svg"
   xmlns:xlink="http://www.w3.org/1999/xlink"
   xmlns:sodipodi="http://sodipodi.sourceforge.net/DTD/sodipodi-0.dtd"
   xmlns:inkscape="http://www.inkscape.org/namespaces/inkscape"
   version="1.1"
   width="24"
   height="24"
   id="svg4247"
   inkscape:version="0.48.4 r9939"
   sodipodi:docname="text-x-generic-template.svg">
  <sodipodi:namedview
     pagecolor="#ffffff"
     bordercolor="#666666"
     borderopacity="1"
     objecttolerance="10"
     gridtolerance="10"
     guidetolerance="10"
     inkscape:pageopacity="0"
     inkscape:pageshadow="2"
     inkscape:window-width="1855"
     inkscape:window-height="1056"
     id="namedview50563"
     showgrid="true"
     inkscape:zoom="38.5"
     inkscape:cx="12"
     inkscape:cy="12"
     inkscape:window-x="65"
     inkscape:window-y="24"
     inkscape:window-maximized="1"
     inkscape:current-layer="layer1"
     showguides="false">
    <inkscape:grid
       type="xygrid"
       id="grid4160" />
  </sodipodi:namedview>
  <defs
     id="defs4249">
    <linearGradient
       id="linearGradient3812">
      <stop
         offset="0"
         style="stop-color:#90dbec;stop-opacity:1"
         id="stop3814" />
      <stop
         offset="0.38095239"
         style="stop-color:#55c1ec;stop-opacity:1"
         id="stop3816" />
      <stop
         offset="0.6825397"
         style="stop-color:#3689e6;stop-opacity:1"
         id="stop3818" />
      <stop
         offset="1"
         style="stop-color:#2b63a0;stop-opacity:1"
         id="stop3820" />
    </linearGradient>
    <linearGradient
       x1="23.99999"
       y1="5.5641499"
       x2="23.99999"
       y2="43"
       id="linearGradient3988"
       xlink:href="#linearGradient3977"
       gradientUnits="userSpaceOnUse"
       gradientTransform="matrix(0.82740382,0,0,1.0799048,3.8707519,-3.4337666)" />
    <linearGradient
       id="linearGradient3977">
      <stop
         id="stop3979"
         style="stop-color:#ffffff;stop-opacity:1"
         offset="0" />
      <stop
         id="stop3981"
         style="stop-color:#ffffff;stop-opacity:0.23529412"
         offset="0.03626217" />
      <stop
         id="stop3983"
         style="stop-color:#ffffff;stop-opacity:0.15686275"
         offset="0.95056331" />
      <stop
         id="stop3985"
         style="stop-color:#ffffff;stop-opacity:0.39215687"
         offset="1" />
    </linearGradient>
    <radialGradient
       cx="0.20001084"
       cy="8.6016188"
       r="18.000002"
       fx="0.20001084"
       fy="8.6016188"
       id="radialGradient3350-4"
       xlink:href="#linearGradient3812"
       gradientUnits="userSpaceOnUse"
       gradientTransform="matrix(-5.2305974e-8,6.9959287,-4.6456753,0,63.688767,-33.883341)" />
    <linearGradient
       id="linearGradient2867-449-88-871-390-598-476-591-434-148-57-177-7">
      <stop
         id="stop3750-6"
         style="stop-color:#90dbec;stop-opacity:1"
         offset="0" />
      <stop
         id="stop3752-3"
         style="stop-color:#55c1ec;stop-opacity:1"
         offset="0.26238" />
      <stop
         id="stop3754-1"
         style="stop-color:#3689e6;stop-opacity:1"
         offset="0.704952" />
      <stop
         id="stop3756-7"
         style="stop-color:#2b63a0;stop-opacity:1"
         offset="1" />
    </linearGradient>
    <linearGradient
       x1="-51.786404"
       y1="53.623615"
       x2="-51.786404"
       y2="2.9062471"
       id="linearGradient3352-5"
       xlink:href="#linearGradient3707-319-631-407-324-9"
       gradientUnits="userSpaceOnUse"
       gradientTransform="matrix(0.80043978,0,0,0.89390144,58.829691,-2.9728727)" />
    <linearGradient
       id="linearGradient3707-319-631-407-324-9">
      <stop
         id="stop3760-6"
         style="stop-color:#185f9a;stop-opacity:1"
         offset="0" />
      <stop
         id="stop3762-2"
         style="stop-color:#599ec9;stop-opacity:1"
         offset="1" />
    </linearGradient>
    <linearGradient
       x1="302.85715"
       y1="366.64789"
       x2="302.85715"
       y2="609.50507"
       id="linearGradient3826"
       xlink:href="#linearGradient5048-1"
       gradientUnits="userSpaceOnUse"
       gradientTransform="matrix(0.0352071,0,0,0.0082353,-0.724852,18.980547)" />
    <linearGradient
       id="linearGradient5048-1">
      <stop
         id="stop5050-9"
         style="stop-color:#000000;stop-opacity:0"
         offset="0" />
      <stop
         id="stop5056-6"
         style="stop-color:#000000;stop-opacity:1"
         offset="0.5" />
      <stop
         id="stop5052-82"
         style="stop-color:#000000;stop-opacity:0"
         offset="1" />
    </linearGradient>
    <radialGradient
       cx="605.71429"
       cy="486.64789"
       r="117.14286"
       fx="605.71429"
       fy="486.64789"
       id="radialGradient3048"
       xlink:href="#linearGradient5060-7"
       gradientUnits="userSpaceOnUse"
       gradientTransform="matrix(-0.01204859,0,0,0.0082353,10.761206,18.980564)" />
    <linearGradient
       id="linearGradient5060-7">
      <stop
         id="stop5062-3"
         style="stop-color:#000000;stop-opacity:1"
         offset="0" />
      <stop
         id="stop5064-6"
         style="stop-color:#000000;stop-opacity:0"
         offset="1" />
    </linearGradient>
    <radialGradient
       cx="605.71429"
       cy="486.64789"
       r="117.14286"
       fx="605.71429"
       fy="486.64789"
       id="radialGradient3045"
       xlink:href="#linearGradient5060-7"
       gradientUnits="userSpaceOnUse"
       gradientTransform="matrix(0.01204859,0,0,0.0082353,13.238793,18.980564)" />
    <radialGradient
       cx="7.8060555"
       cy="9.9571075"
       r="12.671875"
       fx="7.2758255"
       fy="9.9571075"
       id="radialGradient3037"
       xlink:href="#linearGradient2867-449-88-871-390-598-476-591-434-148-57-177-8-3"
       gradientUnits="userSpaceOnUse"
       gradientTransform="matrix(-1.6167311e-7,6.6018651,-8.0922115,-1.9817022e-7,104.56429,-60.072946)" />
    <linearGradient
       id="linearGradient2867-449-88-871-390-598-476-591-434-148-57-177-8-3">
      <stop
         id="stop3750-1-0"
         style="stop-color:#90dbec;stop-opacity:1"
         offset="0" />
      <stop
         id="stop3752-3-7"
         style="stop-color:#55c1ec;stop-opacity:1"
         offset="0.26238" />
      <stop
         id="stop3754-1-8"
         style="stop-color:#3689e6;stop-opacity:1"
         offset="0.704952" />
      <stop
         id="stop3756-1-6"
         style="stop-color:#2b63a0;stop-opacity:1"
         offset="1" />
    </linearGradient>
    <radialGradient
       r="12.671875"
       fy="9.9571075"
       fx="7.2758255"
       cy="9.9571075"
       cx="7.8060555"
       gradientTransform="matrix(-3.2974282e-7,13.196052,-16.504591,-3.9610997e-7,116.65977,-136.56941)"
       gradientUnits="userSpaceOnUse"
       id="radialGradient3030"
       xlink:href="#linearGradient2867-449-88-871-390-598-476-591-434-148-57-177-8-3"
       inkscape:collect="always" />
  </defs>
  <metadata
     id="metadata4252">
    <rdf:RDF>
      <cc:Work
         rdf:about="">
        <dc:format>image/svg+xml</dc:format>
        <dc:type
           rdf:resource="http://purl.org/dc/dcmitype/StillImage" />
        <dc:title></dc:title>
      </cc:Work>
    </rdf:RDF>
  </metadata>
  <g
     id="g4139">
    <rect
       width="16.999998"
       height="2"
       x="3.5000007"
       y="22"
       id="rect2879"
       style="opacity:0.15;fill:url(#linearGradient3826);fill-opacity:1;fill-rule:nonzero;stroke:none;stroke-width:1;marker:none;visibility:visible;display:inline;overflow:visible" />
    <path
       d="m 3.4999999,22.000085 c 0,0 0,1.999891 0,1.999891 C 2.8795275,24.003776 2,23.551901 2,22.999901 2,22.447902 2.6924,22.000085 3.4999999,22.000085 Z"
       id="path2881"
       style="opacity:0.15;fill:url(#radialGradient3048);fill-opacity:1;fill-rule:nonzero;stroke:none;stroke-width:1;marker:none;visibility:visible;display:inline;overflow:visible"
       inkscape:connector-curvature="0" />
    <path
       d="m 20.5,22.000085 c 0,0 0,1.999891 0,1.999891 0.620472,0.0038 1.5,-0.448075 1.5,-1.000075 0,-0.551999 -0.692402,-0.999816 -1.5,-0.999816 z"
       id="path2883"
       style="opacity:0.15;fill:url(#radialGradient3045);fill-opacity:1;fill-rule:nonzero;stroke:none;stroke-width:1;marker:none;visibility:visible;display:inline;overflow:visible"
       inkscape:connector-curvature="0" />
  </g>
  <g
     id="layer1"
     transform="matrix(0.49030063,0,0,0.50029092,0.36593156,0.25149005)">
    <path
       d="m 6.3818236,0.50678226 c 7.9502034,0 34.6941604,0.002798 34.6941604,0.002798 l 4.2e-5,43.95151274 c 0,0 -23.129468,0 -34.6942024,0 0,-14.651437 0,-29.302875 0,-43.95431054 z"
       id="path4160"
       style="color:#000000;fill:url(#radialGradient3350-4);fill-opacity:1;fill-rule:nonzero;stroke:url(#linearGradient3352-5);stroke-width:2.01893973000000004;stroke-linecap:butt;stroke-linejoin:round;stroke-miterlimit:4;stroke-opacity:1;stroke-dasharray:none;stroke-dashoffset:0;marker:none;visibility:visible;display:inline;overflow:visible;enable-background:accumulate"
       inkscape:connector-curvature="0" />
    <path
       d="m 39.035409,42.462177 -30.613941,0 0,-39.9564783 30.613941,0 z"
       id="rect6741-1"
       style="opacity:0.5;fill:none;stroke:url(#linearGradient3988);stroke-width:2.01909852;stroke-linecap:round;stroke-linejoin:round;stroke-miterlimit:4;stroke-opacity:1;stroke-dasharray:none;stroke-dashoffset:0"
       inkscape:connector-curvature="0" />
    <path
       inkscape:connector-curvature="0"
       d="M 25.14139,10.984269 12.113746,13.237358 A 0.74353784,0.72869018 0 0 0 11.4911,13.964916 l 0,16.522644 a 0.74353784,0.72869018 0 0 0 0.622646,0.727558 l 13.027644,2.253088 a 0.74353784,0.72869018 0 0 0 0.862124,-0.727558 l 0,-1.52553 a 0.74353784,0.72869018 0 0 0 0.02394,0 l 9.195986,0 a 0.74353784,0.72869018 0 0 0 0.742385,-0.727558 l 0,-16.522644 a 0.74353784,0.72869018 0 0 0 -0.742383,-0.727558 l -9.195985,0 a 0.74353784,0.72869018 0 0 0 -0.02394,0 l 0,-1.52553 A 0.74353784,0.72869018 0 0 0 25.14139,10.984269 z m -6.465927,8.33173 c 0.05682,-0.01127 0.04315,0.0028 0.119743,0 0.0293,0.130118 0.05586,0.281094 0.09579,0.469394 0.05722,0.269865 0.122178,0.659906 0.191583,1.009195 -0.04267,-0.08482 -0.05561,-0.195482 -0.407114,-0.258167 -0.120735,-0.02153 -0.230736,0.04847 -0.359219,0.09388 0.07479,-0.316637 0.173796,-0.677313 0.23948,-0.915318 0.04826,-0.174899 0.08342,-0.288724 0.119743,-0.398984 z m 1.388978,4.99904 c 0.05463,0.07214 0.08505,0.1404 0.287374,0.211226 0.179838,0.06295 0.383583,-0.05282 0.574748,-0.140819 l -0.239477,1.103075 -0.191583,0 c -0.0763,0 -0.122671,0.0016 -0.191584,0 -0.01795,-0.08369 -0.02632,-0.133614 -0.0479,-0.234698 -0.05166,-0.242045 -0.123946,-0.619434 -0.191582,-0.938784 z m -3.520339,0.09387 c 0.05432,0.02984 0.119658,0.0704 0.119743,0.07041 2.24e-4,5.3e-5 0.406859,-0.02338 0.407114,-0.02347 3.1e-5,-9e-6 0.01821,-0.02038 0.02394,-0.02347 l -0.167636,0.868379 -0.07185,0 -0.143687,0 -0.167636,-0.891848 z"
       id="path4138"
       style="opacity:0.15;color:#000000;fill:#0974ae;fill-opacity:1;fill-rule:nonzero;stroke:none;stroke-width:1;marker:none;visibility:visible;display:inline;overflow:visible;enable-background:accumulate" />
    <path
       inkscape:connector-curvature="0"
       d="m 25.261131,11.711828 -13.027647,2.253088 0,16.522644 13.027647,2.253088 0,-21.02882 z m 0.76633,2.253088 0,2.253088 6.896989,0 0,0.751029 -6.896989,0 0,1.502059 6.896989,0 0,0.751029 -6.896989,0 0,1.502058 6.896989,0 0,0.751029 -6.896989,0 0,1.502059 6.896989,0 0,0.751028 -6.896989,0 0,1.50206 6.896989,0 0,0.751028 -6.896989,0 0,1.50206 6.896989,0 0,0.751028 -6.896989,0 0,2.253089 9.195985,0 0,-16.522644 -9.195985,0 z m -4.5022,4.435766 0.742385,0 c 0.680898,0 0.724004,0.04463 0.646591,0.375516 -0.04609,0.197002 -0.436042,1.947827 -0.862122,3.895963 l -0.766334,3.54392 -0.790278,0 c -0.430925,0 -0.782023,-0.02506 -0.79028,-0.04694 -0.0083,-0.0219 -0.255786,-1.180758 -0.550802,-2.581663 -0.295015,-1.400909 -0.574825,-2.454832 -0.622645,-2.323497 -0.04782,0.131336 -0.299401,1.283115 -0.550801,2.534724 l -0.455009,2.276555 -0.718437,-0.04694 -0.742384,-0.04694 -0.598697,-3.121465 c -0.334039,-1.70736 -0.649339,-3.288784 -0.694489,-3.520454 -0.07471,-0.383294 -0.02352,-0.432633 0.502906,-0.492864 0.733476,-0.08391 0.764877,-0.0097 1.197394,2.745952 0.184776,1.177246 0.334152,2.158116 0.359219,2.182678 0.02506,0.02457 0.288409,-1.091773 0.574749,-2.464315 0.28634,-1.37254 0.608052,-2.536421 0.718436,-2.605132 0.317687,-0.197751 1.210087,-0.148718 1.293185,0.07041 0.04151,0.109448 0.299045,1.293362 0.550801,2.628602 0.421205,2.233943 0.71716,3.047581 0.718437,1.971452 4.88e-4,-0.429796 0.336833,-2.481939 0.67054,-4.130661 l 0.167635,-0.844909 z"
       id="rect3139-6"
       style="opacity:0.3;color:#000000;fill:#0935ae;fill-opacity:1;fill-rule:nonzero;stroke:none;stroke-width:1;marker:none;visibility:visible;display:inline;overflow:visible;enable-background:accumulate" />
    <path
       inkscape:connector-curvature="0"
       d="m 25.261131,10.9608 -13.027647,2.253087 0,16.522643 13.027647,2.253087 0,-21.028817 z m 0.76633,2.253087 0,2.253088 6.896989,0 0,0.751029 -6.896989,0 0,1.502059 6.896989,0 0,0.751029 -6.896989,0 0,1.502057 6.896989,0 0,0.75103 -6.896989,0 0,1.502059 6.896989,0 0,0.751029 -6.896989,0 0,1.502059 6.896989,0 0,0.751029 -6.896989,0 0,1.502058 6.896989,0 0,0.75103 -6.896989,0 0,2.253087 9.195985,0 0,-16.522643 -9.195985,0 z m -4.5022,4.435767 0.742385,0 c 0.680898,0 0.724004,0.04463 0.646591,0.375514 -0.04609,0.197003 -0.436042,1.947827 -0.862122,3.895964 l -0.766334,3.543919 -0.790278,0 c -0.430925,0 -0.782023,-0.02506 -0.79028,-0.04694 -0.0083,-0.02189 -0.255786,-1.180755 -0.550802,-2.581663 -0.295015,-1.400906 -0.574825,-2.454831 -0.622645,-2.323497 -0.04782,0.131336 -0.299401,1.283116 -0.550801,2.534723 l -0.455009,2.276558 -0.718437,-0.04694 -0.742384,-0.04694 -0.598697,-3.121464 c -0.334039,-1.707363 -0.649339,-3.288787 -0.694489,-3.520456 -0.07471,-0.383293 -0.02352,-0.432634 0.502906,-0.492864 0.733476,-0.08392 0.764877,-0.0097 1.197394,2.745952 0.184776,1.177246 0.334152,2.158115 0.359219,2.182678 0.02506,0.02457 0.288409,-1.091774 0.574749,-2.464314 0.28634,-1.37254 0.608052,-2.536422 0.718436,-2.605133 0.317687,-0.197751 1.210087,-0.148719 1.293185,0.07041 0.04151,0.109449 0.299045,1.293362 0.550801,2.628603 0.421205,2.233941 0.71716,3.047581 0.718437,1.971452 4.88e-4,-0.429796 0.336833,-2.481941 0.67054,-4.130662 l 0.167635,-0.844907 z"
       id="rect3139"
       style="color:#000000;fill:#ffffff;fill-opacity:1;fill-rule:nonzero;stroke:none;stroke-width:0.99999994;marker:none;visibility:visible;display:inline;overflow:visible;enable-background:accumulate" />
  </g>
</svg>
