<?xml version="1.0" encoding="UTF-8" standalone="no"?>
<!-- Created with Inkscape (http://www.inkscape.org/) -->

<svg
   xmlns:dc="http://purl.org/dc/elements/1.1/"
   xmlns:cc="http://creativecommons.org/ns#"
   xmlns:rdf="http://www.w3.org/1999/02/22-rdf-syntax-ns#"
   xmlns:svg="http://www.w3.org/2000/svg"
   xmlns="http://www.w3.org/2000/svg"
   xmlns:xlink="http://www.w3.org/1999/xlink"
   xmlns:sodipodi="http://sodipodi.sourceforge.net/DTD/sodipodi-0.dtd"
   xmlns:inkscape="http://www.inkscape.org/namespaces/inkscape"
   version="1.0"
   width="24"
   height="24"
   id="svg3620"
   sodipodi:version="0.32"
   inkscape:version="0.48.4 r9939"
   sodipodi:docname="gnome-mime-application-pdf.svg"
   inkscape:output_extension="org.inkscape.output.svg.inkscape">
  <metadata
     id="metadata52">
    <rdf:RDF>
      <cc:Work
         rdf:about="">
        <dc:format>image/svg+xml</dc:format>
        <dc:type
           rdf:resource="http://purl.org/dc/dcmitype/StillImage" />
        <dc:title></dc:title>
      </cc:Work>
    </rdf:RDF>
  </metadata>
  <sodipodi:namedview
     inkscape:window-height="794"
     inkscape:window-width="846"
     inkscape:pageshadow="2"
     inkscape:pageopacity="0.0"
     guidetolerance="10.0"
     gridtolerance="10.0"
     objecttolerance="10.0"
     borderopacity="1.0"
     bordercolor="#666666"
     pagecolor="#ffffff"
     id="base"
     showgrid="true"
     inkscape:zoom="27.583333"
     inkscape:cx="12"
     inkscape:cy="12"
     inkscape:window-x="399"
     inkscape:window-y="54"
     inkscape:current-layer="svg3620"
     inkscape:window-maximized="0">
    <inkscape:grid
       type="xygrid"
       id="grid3052" />
  </sodipodi:namedview>
  <defs
     id="defs3622">
    <linearGradient
       id="linearGradient5048">
      <stop
         id="stop5050"
         style="stop-color:#000000;stop-opacity:0"
         offset="0" />
      <stop
         id="stop5056"
         style="stop-color:#000000;stop-opacity:1"
         offset="0.5" />
      <stop
         id="stop5052"
         style="stop-color:#000000;stop-opacity:0"
         offset="1" />
    </linearGradient>
    <linearGradient
       id="linearGradient5060">
      <stop
         id="stop5062"
         style="stop-color:#000000;stop-opacity:1"
         offset="0" />
      <stop
         id="stop5064"
         style="stop-color:#000000;stop-opacity:0"
         offset="1" />
    </linearGradient>
    <linearGradient
       id="linearGradient3104">
      <stop
         id="stop3106"
         style="stop-color:#791235;stop-opacity:1"
         offset="0" />
      <stop
         id="stop3108"
         style="stop-color:#dd3b27;stop-opacity:1"
         offset="1" />
    </linearGradient>
    <linearGradient
       id="linearGradient3681">
      <stop
         id="stop3683"
         style="stop-color:#f89b7e;stop-opacity:1"
         offset="0" />
      <stop
         id="stop3685"
         style="stop-color:#e35d4f;stop-opacity:1"
         offset="0.25" />
      <stop
         id="stop3687"
         style="stop-color:#c6262e;stop-opacity:1"
         offset="0.75235957" />
      <stop
         id="stop3689"
         style="stop-color:#690b2c;stop-opacity:1"
         offset="1" />
    </linearGradient>
    <linearGradient
       id="linearGradient4246">
      <stop
         id="stop4248"
         style="stop-color:#ffffff;stop-opacity:1"
         offset="0" />
      <stop
         id="stop4250"
         style="stop-color:#dcdcdc;stop-opacity:1"
         offset="1" />
    </linearGradient>
    <linearGradient
       id="linearGradient3211">
      <stop
         id="stop3213"
         style="stop-color:#ffffff;stop-opacity:1"
         offset="0" />
      <stop
         id="stop3215"
         style="stop-color:#ffffff;stop-opacity:0"
         offset="1" />
    </linearGradient>
    <linearGradient
       id="linearGradient8589">
      <stop
         id="stop8591"
         style="stop-color:#fefefe;stop-opacity:1"
         offset="0" />
      <stop
         id="stop8593"
         style="stop-color:#cbcbcb;stop-opacity:1"
         offset="1" />
    </linearGradient>
    <linearGradient
       id="linearGradient4267">
      <stop
         id="stop4269"
         style="stop-color:#c4c4c4;stop-opacity:1"
         offset="0" />
      <stop
         id="stop4271"
         style="stop-color:#c4c4c4;stop-opacity:0"
         offset="1" />
    </linearGradient>
    <linearGradient
       inkscape:collect="always"
       xlink:href="#linearGradient4267"
       id="linearGradient2428"
       gradientUnits="userSpaceOnUse"
       gradientTransform="matrix(0.5155606,0,0,0.5130904,-0.8957459,0.1854491)"
       x1="35.349018"
       y1="5.3065128"
       x2="34.102982"
       y2="6.5436172" />
    <linearGradient
       inkscape:collect="always"
       xlink:href="#linearGradient8589"
       id="linearGradient2431"
       gradientUnits="userSpaceOnUse"
       gradientTransform="matrix(0.4778466,0,0,0.5524833,0.3722548,-7.61283e-2)"
       x1="32.892288"
       y1="8.0590115"
       x2="36.358372"
       y2="5.4565363" />
    <linearGradient
       inkscape:collect="always"
       xlink:href="#linearGradient3211"
       id="linearGradient2435"
       gradientUnits="userSpaceOnUse"
       gradientTransform="matrix(0.4545444,0,0,0.4651153,1.0909345,0.3372293)"
       x1="24"
       y1="1.9999999"
       x2="24"
       y2="46.01725" />
    <radialGradient
       inkscape:collect="always"
       xlink:href="#linearGradient3681"
       id="radialGradient2442"
       gradientUnits="userSpaceOnUse"
       gradientTransform="matrix(1.444031e-2,2.0653773,-3.052092,2.133905e-2,28.231755,-11.638481)"
       cx="8.1203003"
       cy="6.6278195"
       fx="8.1203003"
       fy="6.6278195"
       r="8.999999" />
    <linearGradient
       inkscape:collect="always"
       xlink:href="#linearGradient3104"
       id="linearGradient2444"
       gradientUnits="userSpaceOnUse"
       gradientTransform="matrix(0.3922135,0,0,0.4473607,29.199293,-1.2386997)"
       x1="-53.412315"
       y1="56.110264"
       x2="-51.786404"
       y2="2.9062471" />
    <radialGradient
       inkscape:collect="always"
       xlink:href="#linearGradient5060"
       id="radialGradient2447"
       gradientUnits="userSpaceOnUse"
       gradientTransform="matrix(1.204859e-2,0,0,8.23529e-3,13.238794,18.980568)"
       cx="605.71429"
       cy="486.64789"
       fx="605.71429"
       fy="486.64789"
       r="117.14286" />
    <radialGradient
       inkscape:collect="always"
       xlink:href="#linearGradient5060"
       id="radialGradient2450"
       gradientUnits="userSpaceOnUse"
       gradientTransform="matrix(-1.204859e-2,0,0,8.23529e-3,10.761206,18.980568)"
       cx="605.71429"
       cy="486.64789"
       fx="605.71429"
       fy="486.64789"
       r="117.14286" />
    <linearGradient
       inkscape:collect="always"
       xlink:href="#linearGradient5048"
       id="linearGradient2453"
       gradientUnits="userSpaceOnUse"
       gradientTransform="matrix(3.52071e-2,0,0,8.23529e-3,-0.724852,18.980551)"
       x1="302.85715"
       y1="366.64789"
       x2="302.85715"
       y2="609.50507" />
  </defs>
  <rect
     style="opacity:0.15;fill:url(#linearGradient2453);fill-opacity:1;fill-rule:nonzero;stroke:none;stroke-width:1;marker:none;visibility:visible;display:inline;overflow:visible"
     id="rect2879"
     y="21.999998"
     x="3.5000005"
     height="1.9999981"
     width="17" />
  <path
     style="opacity:0.15;fill:url(#radialGradient2450);fill-opacity:1;fill-rule:nonzero;stroke:none;stroke-width:1;marker:none;visibility:visible;display:inline;overflow:visible"
     id="path2881"
     d="M 3.5,22.000086 C 3.5,22.000086 3.5,23.999975 3.5,23.999975 C 2.8795275,24.00374 2,23.551901 2,22.999901 C 2,22.447902 2.6924,22.000086 3.5,22.000086 z" />
  <path
     style="opacity:0.15;fill:url(#radialGradient2447);fill-opacity:1;fill-rule:nonzero;stroke:none;stroke-width:1;marker:none;visibility:visible;display:inline;overflow:visible"
     id="path2883"
     d="M 20.5,22.000086 C 20.5,22.000086 20.5,23.999975 20.5,23.999975 C 21.120472,24.003775 22,23.551901 22,22.999901 C 22,22.447902 21.307599,22.000086 20.5,22.000086 L 20.5,22.000086 z" />
  <path
     style="fill:url(#radialGradient2442);fill-opacity:1;stroke:url(#linearGradient2444);stroke-width:0.99992162;stroke-linecap:butt;stroke-linejoin:round;stroke-miterlimit:4;stroke-opacity:1;stroke-dasharray:none;stroke-dashoffset:0;display:inline"
     id="path4160"
     d="m 3.4999617,0.49996097 c 3.8955799,0 7.6044553,0 11.5000383,0 0.836716,-0.001245 4.677635,0.0100847 5.482961,0.007695 0,5.72915697 0.01708,16.26322527 0.01708,21.99238327 -5.666693,0 -11.3333845,0 -17.0000773,0 0,-7.33336 0,-14.6667201 0,-22.00007803 z"
     inkscape:connector-curvature="0"
     sodipodi:nodetypes="ccccccc" />
  <path
     style="opacity:0.4;fill:none;stroke:url(#linearGradient2435);stroke-width:0.99999988;stroke-linecap:butt;stroke-linejoin:miter;stroke-miterlimit:4;stroke-opacity:1;stroke-dasharray:none;stroke-dashoffset:0;display:inline"
     id="path2435"
     d="m 19.482962,1.9455565 c 0,5.2083053 0.01704,14.3461365 0.01704,19.5544435 -5,0 -9.9999998,0 -15.000001,0 0,-6.66667 0,-13.3333343 0,-20.0000001 3.4372614,0 12.051076,0.017039 15.488338,0.017039"
     inkscape:connector-curvature="0"
     sodipodi:nodetypes="ccccc" />
  <path
     style="font-size:12px;opacity:0.5;fill:#450a1d;fill-opacity:1;fill-rule:evenodd"
     id="path6115"
     d="m 6,9.211928 0,1.182916 6.397188,0.05654 0,-1.2394584 -2.6622643,0 2.7022433,-1.8743185 -0.02341,-1.3059967 -3.2551381,2.2257368 -3.1586113,-2.2115261 0.00348,1.30489 2.5437323,1.8743493 -2.5471632,-0.0132 z"
     inkscape:connector-curvature="0" />
  <path
     style="font-size:12px;opacity:0.5;fill:#450a1d;fill-opacity:1;fill-rule:evenodd"
     id="path6117"
     d="m 6.023422,11.034562 0,6.437163 1.2394542,0 0,-6.437163 -1.2394542,0 z"
     inkscape:connector-curvature="0" />
  <path
     inkscape:connector-curvature="0"
     d="m 6,8.9510598 0,1.1829152 6.397188,0.05654 0,-1.2394592 -2.6622643,0 2.7022433,-1.874319 -0.02341,-1.3059985 -3.2551381,2.225737 -3.1586117,-2.2115257 0.00348,1.3048895 2.5437321,1.8743494 -2.547163,-0.0132 z"
     id="path590"
     style="font-size:12px;fill:#ffffff;fill-opacity:1;fill-rule:evenodd" />
  <path
     style="font-size:12px;opacity:0.5;fill:#450a1d;fill-opacity:1;fill-rule:evenodd"
     id="path6119"
     d="m 8.5588768,11.062836 0,6.437164 1.2394537,0 0,-6.437164 -1.2394537,0 z"
     inkscape:connector-curvature="0" />
  <path
     inkscape:connector-curvature="0"
     d="m 6.023422,10.773691 0,6.437165 1.2394542,0 0,-6.437165 -1.2394542,0 z"
     id="path597"
     style="font-size:12px;fill:#ffffff;fill-opacity:1;fill-rule:evenodd" />
  <path
     style="font-size:12px;opacity:0.5;fill:#450a1d;fill-opacity:1;fill-rule:evenodd"
     id="path6121"
     d="m 11.11775,11.051118 0,6.437168 1.239455,0 0,-6.437168 -1.239455,0 z"
     inkscape:connector-curvature="0" />
  <path
     inkscape:connector-curvature="0"
     d="m 8.5588768,10.801967 0,6.437164 1.2394537,0 0,-6.437164 -1.2394537,0 z"
     id="path598"
     style="font-size:12px;fill:#ffffff;fill-opacity:1;fill-rule:evenodd" />
  <path
     style="font-size:48px;font-weight:bold;opacity:0.5;fill:#450a1d;fill-opacity:1;font-family:Luxi Sans"
     id="path6123"
     d="m 13.608512,17.458006 -0.02828,-6.4029 2.255547,0.02828 c 1.089708,0 1.719377,0.982377 1.747649,1.476991 0.01656,0.381408 0.04206,0.620904 -0.124859,0.904965 -0.12403,0.17933 -0.204435,0.357074 -0.560519,0.496376 0.399089,0.120179 0.502216,0.233241 0.684911,0.442578 0.232422,0.293191 0.417029,0.671805 0.417029,1.198957 0,0.475244 -0.08922,0.95571 -0.409034,1.300015 -0.289163,0.256737 -0.790977,0.526471 -1.335829,0.526471 l -2.646626,0.02829 z m 1.350519,-3.935661 0.714191,0 c 0.310652,0 0.52853,-0.215992 0.597057,-0.351118 0.04969,-0.104138 0.06397,-0.24281 0.04982,-0.380705 -0.02829,-0.246623 -0.09322,-0.303288 -0.187711,-0.382028 -0.09878,-0.07213 -0.293262,-0.17536 -0.526888,-0.168292 l -0.646491,0.01407 0,1.268004 z m -0.02829,2.764285 0.717368,0.02829 c 0.435338,0 0.669543,-0.140801 0.843986,-0.252788 0.176847,-0.114732 0.236991,-0.403014 0.236991,-0.553918 0,-0.232025 -0.09001,-0.436326 -0.213511,-0.528097 -0.234186,-0.204841 -0.530505,-0.279008 -0.88897,-0.279008 l -0.667591,0 -0.02829,1.585542 z"
     inkscape:connector-curvature="0" />
  <path
     inkscape:connector-curvature="0"
     d="m 11.11775,10.79025 0,6.437166 1.239455,0 0,-6.437166 -1.239455,0 z"
     id="path599"
     style="font-size:12px;fill:#ffffff;fill-opacity:1;fill-rule:evenodd" />
  <path
     inkscape:connector-curvature="0"
     d="m 13.608512,17.197136 -0.02828,-6.4029 2.255547,0.02827 c 1.089708,0 1.719377,0.982381 1.747649,1.476997 0.01656,0.381405 0.04206,0.620902 -0.124859,0.904961 -0.12403,0.179331 -0.204435,0.357075 -0.560519,0.496377 0.399089,0.120179 0.502216,0.233241 0.684911,0.44258 0.232422,0.293189 0.417029,0.671803 0.417029,1.198955 0,0.475244 -0.08922,0.955707 -0.409034,1.300014 -0.289163,0.256738 -0.790977,0.526474 -1.335829,0.526474 l -2.646626,0.02829 z m 1.350519,-3.935663 0.714191,0 c 0.310652,0 0.52853,-0.215991 0.597057,-0.351115 0.04969,-0.104139 0.06397,-0.242808 0.04982,-0.380705 -0.02829,-0.246624 -0.09322,-0.303289 -0.187711,-0.382029 -0.09878,-0.07213 -0.293262,-0.175358 -0.526888,-0.168292 l -0.646491,0.01407 0,1.268003 z m -0.02829,2.764289 0.717368,0.02825 c 0.435338,0 0.669543,-0.140798 0.843986,-0.252786 0.176847,-0.11472 0.236991,-0.403014 0.236991,-0.553918 0,-0.232026 -0.09001,-0.436327 -0.213511,-0.528099 -0.234182,-0.204835 -0.530501,-0.279 -0.888966,-0.279 l -0.667591,0 -0.02829,1.58554 z"
     id="path591"
     style="font-size:48px;font-weight:bold;fill:#ffffff;fill-opacity:1;font-family:Luxi Sans" />
  <path
     inkscape:connector-curvature="0"
     id="path6127"
     d="m 13.565216,6.0217388 0,4.4347842 4.434784,0 0,-4.4347842 z"
     style="opacity:0.5;fill:#450a1d;fill-opacity:1;stroke:none" />
  <path
     style="fill:#ffffff;fill-opacity:1;stroke:none"
     d="m 13.565216,5.7608697 0,4.4347843 4.434784,0 0,-4.4347843 z"
     id="path6125"
     inkscape:connector-curvature="0" />
</svg>
