<?xml version="1.0" encoding="UTF-8" standalone="no"?>
<!-- Created with Inkscape (http://www.inkscape.org/) -->

<svg
   xmlns:dc="http://purl.org/dc/elements/1.1/"
   xmlns:cc="http://creativecommons.org/ns#"
   xmlns:rdf="http://www.w3.org/1999/02/22-rdf-syntax-ns#"
   xmlns:svg="http://www.w3.org/2000/svg"
   xmlns="http://www.w3.org/2000/svg"
   xmlns:xlink="http://www.w3.org/1999/xlink"
   xmlns:sodipodi="http://sodipodi.sourceforge.net/DTD/sodipodi-0.dtd"
   xmlns:inkscape="http://www.inkscape.org/namespaces/inkscape"
   version="1.1"
   width="24"
   height="24"
   id="svg4247"
   inkscape:version="0.48.4 r9939"
   sodipodi:docname="3.svg">
  <sodipodi:namedview
     pagecolor="#ffffff"
     bordercolor="#666666"
     borderopacity="1"
     objecttolerance="10"
     gridtolerance="10"
     guidetolerance="10"
     inkscape:pageopacity="0"
     inkscape:pageshadow="2"
     inkscape:window-width="1470"
     inkscape:window-height="805"
     id="namedview50563"
     showgrid="true"
     inkscape:zoom="28.041667"
     inkscape:cx="10.782468"
     inkscape:cy="12"
     inkscape:window-x="301"
     inkscape:window-y="173"
     inkscape:window-maximized="0"
     inkscape:current-layer="layer1"
     showguides="false">
    <inkscape:grid
       type="xygrid"
       id="grid4160" />
  </sodipodi:namedview>
  <defs
     id="defs4249">
    <linearGradient
       id="linearGradient3812">
      <stop
         offset="0"
         style="stop-color:#90dbec;stop-opacity:1"
         id="stop3814" />
      <stop
         offset="0.38095239"
         style="stop-color:#55c1ec;stop-opacity:1"
         id="stop3816" />
      <stop
         offset="0.6825397"
         style="stop-color:#3689e6;stop-opacity:1"
         id="stop3818" />
      <stop
         offset="1"
         style="stop-color:#2b63a0;stop-opacity:1"
         id="stop3820" />
    </linearGradient>
    <linearGradient
       x1="23.99999"
       y1="5.5641499"
       x2="23.99999"
       y2="43"
       id="linearGradient3988"
       xlink:href="#linearGradient3977"
       gradientUnits="userSpaceOnUse"
       gradientTransform="matrix(0.82740382,0,0,1.0799048,3.8707519,-3.4337666)" />
    <linearGradient
       id="linearGradient3977">
      <stop
         id="stop3979"
         style="stop-color:#ffffff;stop-opacity:1"
         offset="0" />
      <stop
         id="stop3981"
         style="stop-color:#ffffff;stop-opacity:0.23529412"
         offset="0.03626217" />
      <stop
         id="stop3983"
         style="stop-color:#ffffff;stop-opacity:0.15686275"
         offset="0.95056331" />
      <stop
         id="stop3985"
         style="stop-color:#ffffff;stop-opacity:0.39215687"
         offset="1" />
    </linearGradient>
    <radialGradient
       cx="0.20001084"
       cy="8.6016188"
       r="18.000002"
       fx="0.20001084"
       fy="8.6016188"
       id="radialGradient3350-4"
       xlink:href="#linearGradient2867-449-88-871-390-598-476-591-434-148-57-177-8-3-2"
       gradientUnits="userSpaceOnUse"
       gradientTransform="matrix(-5.2305974e-8,6.9959287,-4.6456753,0,63.688767,-33.883341)" />
    <linearGradient
       id="linearGradient2867-449-88-871-390-598-476-591-434-148-57-177-7">
      <stop
         id="stop3750-6"
         style="stop-color:#90dbec;stop-opacity:1"
         offset="0" />
      <stop
         id="stop3752-3"
         style="stop-color:#55c1ec;stop-opacity:1"
         offset="0.26238" />
      <stop
         id="stop3754-1"
         style="stop-color:#3689e6;stop-opacity:1"
         offset="0.704952" />
      <stop
         id="stop3756-7"
         style="stop-color:#2b63a0;stop-opacity:1"
         offset="1" />
    </linearGradient>
    <linearGradient
       x1="-51.786404"
       y1="53.623615"
       x2="-51.786404"
       y2="2.9062471"
       id="linearGradient3352-5"
       xlink:href="#linearGradient4039-4"
       gradientUnits="userSpaceOnUse"
       gradientTransform="matrix(0.80043978,0,0,0.89390144,58.829691,-2.9728727)" />
    <linearGradient
       id="linearGradient3707-319-631-407-324-9">
      <stop
         id="stop3760-6"
         style="stop-color:#185f9a;stop-opacity:1"
         offset="0" />
      <stop
         id="stop3762-2"
         style="stop-color:#599ec9;stop-opacity:1"
         offset="1" />
    </linearGradient>
    <linearGradient
       x1="302.85715"
       y1="366.64789"
       x2="302.85715"
       y2="609.50507"
       id="linearGradient3826"
       xlink:href="#linearGradient5048-1"
       gradientUnits="userSpaceOnUse"
       gradientTransform="matrix(0.0352071,0,0,0.0082353,-0.724852,18.980547)" />
    <linearGradient
       id="linearGradient5048-1">
      <stop
         id="stop5050-9"
         style="stop-color:#000000;stop-opacity:0"
         offset="0" />
      <stop
         id="stop5056-6"
         style="stop-color:#000000;stop-opacity:1"
         offset="0.5" />
      <stop
         id="stop5052-82"
         style="stop-color:#000000;stop-opacity:0"
         offset="1" />
    </linearGradient>
    <radialGradient
       cx="605.71429"
       cy="486.64789"
       r="117.14286"
       fx="605.71429"
       fy="486.64789"
       id="radialGradient3048"
       xlink:href="#linearGradient5060-7"
       gradientUnits="userSpaceOnUse"
       gradientTransform="matrix(-0.01204859,0,0,0.0082353,10.761206,18.980564)" />
    <linearGradient
       id="linearGradient5060-7">
      <stop
         id="stop5062-3"
         style="stop-color:#000000;stop-opacity:1"
         offset="0" />
      <stop
         id="stop5064-6"
         style="stop-color:#000000;stop-opacity:0"
         offset="1" />
    </linearGradient>
    <radialGradient
       cx="605.71429"
       cy="486.64789"
       r="117.14286"
       fx="605.71429"
       fy="486.64789"
       id="radialGradient3045"
       xlink:href="#linearGradient5060-7"
       gradientUnits="userSpaceOnUse"
       gradientTransform="matrix(0.01204859,0,0,0.0082353,13.238793,18.980564)" />
    <radialGradient
       cx="7.8060555"
       cy="9.9571075"
       r="12.671875"
       fx="7.2758255"
       fy="9.9571075"
       id="radialGradient3037"
       xlink:href="#linearGradient2867-449-88-871-390-598-476-591-434-148-57-177-8-3"
       gradientUnits="userSpaceOnUse"
       gradientTransform="matrix(-1.6167311e-7,6.6018651,-8.0922115,-1.9817022e-7,104.56429,-60.072946)" />
    <linearGradient
       id="linearGradient2867-449-88-871-390-598-476-591-434-148-57-177-8-3">
      <stop
         id="stop3750-1-0"
         style="stop-color:#90dbec;stop-opacity:1"
         offset="0" />
      <stop
         id="stop3752-3-7"
         style="stop-color:#55c1ec;stop-opacity:1"
         offset="0.26238" />
      <stop
         id="stop3754-1-8"
         style="stop-color:#3689e6;stop-opacity:1"
         offset="0.704952" />
      <stop
         id="stop3756-1-6"
         style="stop-color:#2b63a0;stop-opacity:1"
         offset="1" />
    </linearGradient>
    <radialGradient
       cx="7.4956832"
       cy="8.4497671"
       r="19.99999"
       fx="7.4956832"
       fy="8.4497671"
       id="radialGradient4023-5"
       xlink:href="#linearGradient3242-7-5-0-3"
       gradientUnits="userSpaceOnUse"
       gradientTransform="matrix(0,2.8679067,-3.4313694,-1.6296548e-7,52.994372,-20.339697)" />
    <linearGradient
       id="linearGradient3242-7-5-0-3">
      <stop
         id="stop3244-6-7-3-3"
         style="stop-color:#f89b7e;stop-opacity:1"
         offset="0" />
      <stop
         id="stop3246-5-0-7-8"
         style="stop-color:#e35d4f;stop-opacity:1"
         offset="0.26238" />
      <stop
         id="stop3248-6-8-8-3"
         style="stop-color:#c6262e;stop-opacity:1"
         offset="0.66093999" />
      <stop
         id="stop3250-9-1-8-7"
         style="stop-color:#690b2c;stop-opacity:1"
         offset="1" />
    </linearGradient>
    <linearGradient
       x1="24"
       y1="44"
       x2="24"
       y2="3.8990016"
       id="linearGradient4025-9"
       xlink:href="#linearGradient2490-3-9-0-3"
       gradientUnits="userSpaceOnUse"
       gradientTransform="matrix(0.8974359,0,0,1.1282051,2.461538,-4.5769228)" />
    <linearGradient
       id="linearGradient2490-3-9-0-3">
      <stop
         id="stop2492-7-7-4-7"
         style="stop-color:#791235;stop-opacity:1"
         offset="0" />
      <stop
         id="stop2494-4-8-6-8"
         style="stop-color:#dd3b27;stop-opacity:1"
         offset="1" />
    </linearGradient>
    <radialGradient
       cx="7.8060555"
       cy="9.9571075"
       r="12.671875"
       fx="7.2758255"
       fy="9.9571075"
       id="radialGradient4304"
       xlink:href="#linearGradient2867-449-88-871-390-598-476-591-434-148-57-177-8-3-7"
       gradientUnits="userSpaceOnUse"
       gradientTransform="matrix(-1.6167311e-7,6.6018651,-8.0922115,-1.9817022e-7,197.43864,-60.072946)" />
    <linearGradient
       id="linearGradient2867-449-88-871-390-598-476-591-434-148-57-177-8-3-7">
      <stop
         id="stop3750-1-0-6"
         style="stop-color:#bdff69;stop-opacity:1;"
         offset="0" />
      <stop
         id="stop3752-3-7-7"
         style="stop-color:#8ed451;stop-opacity:1;"
         offset="0.26238" />
      <stop
         id="stop3754-1-8-2"
         style="stop-color:#58aa30;stop-opacity:1;"
         offset="0.704952" />
      <stop
         id="stop3756-1-6-6"
         style="stop-color:#2a6c1f;stop-opacity:1;"
         offset="1" />
    </linearGradient>
    <linearGradient
       x1="25"
       y1="44.2915"
       x2="25"
       y2="0.57054341"
       id="linearGradient4306"
       xlink:href="#linearGradient4039"
       gradientUnits="userSpaceOnUse"
       gradientTransform="translate(92.874353,-4.6076e-4)" />
    <linearGradient
       id="linearGradient4039">
      <stop
         id="stop4041"
         style="stop-color:#126400;stop-opacity:1;"
         offset="0" />
      <stop
         id="stop4043"
         style="stop-color:#48bc2e;stop-opacity:1;"
         offset="1" />
    </linearGradient>
    <radialGradient
       cx="7.8060555"
       cy="9.9571075"
       r="12.671875"
       fx="7.2758255"
       fy="9.9571075"
       id="radialGradient4304-4"
       xlink:href="#linearGradient2867-449-88-871-390-598-476-591-434-148-57-177-8-3-2"
       gradientUnits="userSpaceOnUse"
       gradientTransform="matrix(-1.6167311e-7,6.6018651,-8.0922115,-1.9817022e-7,197.43864,-60.072946)" />
    <linearGradient
       id="linearGradient2867-449-88-871-390-598-476-591-434-148-57-177-8-3-2">
      <stop
         id="stop3750-1-0-69"
         style="stop-color:#ffcd7d;stop-opacity:1"
         offset="0" />
      <stop
         id="stop3752-3-7-2"
         style="stop-color:#fc8f36;stop-opacity:1"
         offset="0.26238" />
      <stop
         id="stop3754-1-8-8"
         style="stop-color:#e23a0e;stop-opacity:1"
         offset="0.704952" />
      <stop
         id="stop3756-1-6-4"
         style="stop-color:#ac441f;stop-opacity:1"
         offset="1" />
    </linearGradient>
    <linearGradient
       x1="25"
       y1="44.2915"
       x2="25"
       y2="0.57054341"
       id="linearGradient4306-4"
       xlink:href="#linearGradient4039-4"
       gradientUnits="userSpaceOnUse"
       gradientTransform="translate(92.874353,-4.6076e-4)" />
    <linearGradient
       id="linearGradient4039-4">
      <stop
         id="stop4041-8"
         style="stop-color:#ba3d12;stop-opacity:1"
         offset="0" />
      <stop
         id="stop4043-0"
         style="stop-color:#db6737;stop-opacity:1"
         offset="1" />
    </linearGradient>
    <radialGradient
       r="12.671875"
       fy="9.9571075"
       fx="7.2758255"
       cy="9.9571075"
       cx="7.8060555"
       gradientTransform="matrix(-3.2974282e-7,13.196052,-16.504591,-3.9610997e-7,114.91719,-144.66723)"
       gradientUnits="userSpaceOnUse"
       id="radialGradient3043"
       xlink:href="#linearGradient2867-449-88-871-390-598-476-591-434-148-57-177-8-3-2"
       inkscape:collect="always" />
    <linearGradient
       y2="0.57054341"
       x2="25"
       y1="44.2915"
       x1="25"
       gradientTransform="matrix(2.039565,0,0,1.998837,-98.348464,-24.592121)"
       gradientUnits="userSpaceOnUse"
       id="linearGradient3045"
       xlink:href="#linearGradient4039-4"
       inkscape:collect="always" />
    <linearGradient
       y2="39.150768"
       x2="27.096104"
       y1="10.880992"
       x1="27.096104"
       gradientTransform="matrix(0.52884377,0,0,0.52884377,-28.379951,-15.979572)"
       gradientUnits="userSpaceOnUse"
       id="linearGradient8917"
       xlink:href="#linearGradient3895-9-0-3-5-2-0-4-9-5"
       inkscape:collect="always" />
    <linearGradient
       id="linearGradient3895-9-0-3-5-2-0-4-9-5">
      <stop
         id="stop3897-0-5-7-89-6-6-7-0-4"
         style="stop-color:#dc5639;stop-opacity:1"
         offset="0" />
      <stop
         id="stop3899-8-7-06-3-8-3-8-0-6"
         style="stop-color:#9d0f0f;stop-opacity:1"
         offset="1" />
    </linearGradient>
    <linearGradient
       y2="39.150768"
       x2="27.096104"
       y1="10.880992"
       x1="27.096104"
       gradientTransform="matrix(1.0786112,0,0,1.0570725,51.161724,-18.485268)"
       gradientUnits="userSpaceOnUse"
       id="linearGradient3064"
       xlink:href="#linearGradient3895-9-0-3-5-2-0-4-9-5"
       inkscape:collect="always" />
  </defs>
  <metadata
     id="metadata4252">
    <rdf:RDF>
      <cc:Work
         rdf:about="">
        <dc:format>image/svg+xml</dc:format>
        <dc:type
           rdf:resource="http://purl.org/dc/dcmitype/StillImage" />
        <dc:title></dc:title>
      </cc:Work>
    </rdf:RDF>
  </metadata>
  <g
     id="g4139">
    <rect
       width="16.999998"
       height="2"
       x="3.5000007"
       y="22"
       id="rect2879"
       style="opacity:0.15;fill:url(#linearGradient3826);fill-opacity:1;fill-rule:nonzero;stroke:none;stroke-width:1;marker:none;visibility:visible;display:inline;overflow:visible" />
    <path
       d="m 3.4999999,22.000085 c 0,0 0,1.999891 0,1.999891 C 2.8795275,24.003776 2,23.551901 2,22.999901 2,22.447902 2.6924,22.000085 3.4999999,22.000085 Z"
       id="path2881"
       style="opacity:0.15;fill:url(#radialGradient3048);fill-opacity:1;fill-rule:nonzero;stroke:none;stroke-width:1;marker:none;visibility:visible;display:inline;overflow:visible"
       inkscape:connector-curvature="0" />
    <path
       d="m 20.5,22.000085 c 0,0 0,1.999891 0,1.999891 0.620472,0.0038 1.5,-0.448075 1.5,-1.000075 0,-0.551999 -0.692402,-0.999816 -1.5,-0.999816 z"
       id="path2883"
       style="opacity:0.15;fill:url(#radialGradient3045);fill-opacity:1;fill-rule:nonzero;stroke:none;stroke-width:1;marker:none;visibility:visible;display:inline;overflow:visible"
       inkscape:connector-curvature="0" />
  </g>
  <g
     id="layer1"
     transform="matrix(0.49030063,0,0,0.50029092,0.36593156,0.25149005)">
    <path
       d="m 6.3818236,0.50678226 c 7.9502034,0 34.6941604,0.002798 34.6941604,0.002798 l 4.2e-5,43.95151274 c 0,0 -23.129468,0 -34.6942024,0 0,-14.651437 0,-29.302875 0,-43.95431054 z"
       id="path4160"
       style="color:#000000;fill:url(#radialGradient3350-4);fill-opacity:1.0;fill-rule:nonzero;stroke:url(#linearGradient3352-5);stroke-width:2.01893973000000004;stroke-linecap:butt;stroke-linejoin:round;stroke-miterlimit:4;stroke-opacity:1;stroke-dasharray:none;stroke-dashoffset:0;marker:none;visibility:visible;display:inline;overflow:visible;enable-background:accumulate"
       inkscape:connector-curvature="0" />
    <path
       d="m 39.035409,42.462177 -30.613941,0 0,-39.9564783 30.613941,0 z"
       id="rect6741-1"
       style="opacity:0.5;fill:none;stroke:url(#linearGradient3988);stroke-width:2.01909852;stroke-linecap:round;stroke-linejoin:round;stroke-miterlimit:4;stroke-opacity:1;stroke-dasharray:none;stroke-dashoffset:0"
       inkscape:connector-curvature="0" />
    <path
       inkscape:connector-curvature="0"
       d="m 25.114754,10.977547 -13.002168,2.248681 a 0.76548974,0.7502037 0 0 0 -0.621427,0.749562 l 0,16.49033 a 0.76548974,0.7502037 0 0 0 0.621427,0.749562 l 13.002168,2.24868 a 0.76548974,0.7502037 0 0 0 0.908238,-0.749558 l 0,-2.248684 7.648336,0 a 0.76548974,0.7502037 0 0 0 0.764833,-0.74956 l 0,-3.747802 0.764833,0 a 0.76548974,0.7502037 0 0 0 0.764835,-0.749561 l 0,-9.744285 0,-0.749562 a 0.76548974,0.7502037 0 0 0 -0.764835,-0.74956 l -0.764833,0 -8.413169,0 0,-2.248681 a 0.76548974,0.7502037 0 0 0 -0.908238,-0.749562 z m 3.202741,7.050554 c 0.590185,0.226708 0.987625,0.616213 1.218952,1.194613 l -1.218952,0 0,-1.194613 z m -8.508774,1.592817 c 0.03573,0.02726 0.153049,0.01099 0.191209,0.04685 0.06533,0.06134 0.04903,0.258624 0.09562,0.327931 -0.08403,-0.134282 -0.164226,-0.268264 -0.286814,-0.37478 z m 6.214271,1.171187 a 0.76548974,0.7502037 0 0 0 0.764835,0.67929 l 1.983787,0 c -0.333762,0.834525 -1.007467,1.49912 -1.983787,1.49912 -0.155925,0 -0.346738,-0.03636 -0.573625,-0.09371 a 0.76548974,0.7502037 0 0 0 -0.19121,-0.02343 l 0,-2.06129 z m -6.070865,1.405426 c -0.01366,0.01539 -0.0098,0.05579 -0.0239,0.07026 -0.01081,0.01099 -0.03661,0.01279 -0.04781,0.02343 0.02668,-0.02858 0.04726,-0.06346 0.07169,-0.09369 z M 17.70543,22.68943 c 0.06814,0.06678 0.123149,0.0294 0.191209,0.07026 a 0.76548974,0.7502037 0 0 0 -0.191209,0.0937 l 0,-0.163965 z"
       id="path3444"
       style="opacity:0.15;color:#000000;fill:url(#linearGradient3064);fill-opacity:1;fill-rule:nonzero;stroke:none;stroke-width:0.98542738;marker:none;visibility:visible;display:inline;overflow:visible;enable-background:accumulate" />
    <path
       inkscape:connector-curvature="0"
       d="m 25.25816,11.727109 -13.002168,2.248681 0,16.49033 13.002168,2.248684 0,-20.987695 z m 0.764832,2.998241 0,0.749562 8.413169,0 0,9.744285 0.764833,0 0,-9.744285 0,-0.749562 -0.764833,0 -8.413169,0 z m 0,1.499122 0,1.61624 c 0.244875,-0.06188 0.50024,-0.117132 0.764835,-0.117132 l 0,2.998241 3.059333,0 c 0,1.655883 -1.36971,2.998242 -3.059333,2.998242 -0.264595,0 -0.51996,-0.05523 -0.764835,-0.117132 l 0,0.86668 5.353834,0 0,0.749562 -5.353834,0 0,1.499119 5.353834,0 0,0.74956 -5.353834,0 0,2.248682 7.648336,0 0,-13.492088 -7.648336,0 z m 1.529668,0.74956 c 1.689623,0 3.059333,1.342359 3.059333,2.998242 l -3.059333,0 0,-2.998242 z m -8.508772,1.686511 c 0.766393,0.01279 1.155532,0.162065 1.481865,0.468475 0.425675,0.399678 0.602595,0.92515 0.597527,1.850478 -0.0084,1.518796 -0.932248,2.459494 -2.390105,2.459494 l -0.549724,0 -0.04781,1.218038 -0.0239,1.241457 -0.573626,-0.04685 -0.597525,-0.02343 0,-3.536988 0,-3.536988 1.195051,-0.07026 c 0.353177,-0.01959 0.652771,-0.02768 0.90824,-0.02343 z m -0.884339,1.264884 0,1.077491 c 0,0.591478 0.05468,1.107667 0.09562,1.147766 0.11956,0.117172 0.45185,0.09704 0.860438,-0.07026 0.49581,-0.203027 0.720931,-0.83749 0.525822,-1.475696 -0.143851,-0.470575 -0.462755,-0.679291 -1.075546,-0.679291 l -0.406318,0 z"
       id="path3065-9"
       style="opacity:0.3;color:#000000;fill:#ae2109;fill-opacity:1;fill-rule:nonzero;stroke:none;stroke-width:0.99999994;marker:none;visibility:visible;display:inline;overflow:visible;enable-background:accumulate" />
    <path
       inkscape:connector-curvature="0"
       d="m 25.25816,10.977547 -13.002168,2.248681 0,16.490332 13.002168,2.248682 0,-20.987695 z m 0.764832,2.998243 0,0.74956 8.413169,0 0,9.744287 0.764833,0 0,-9.744287 0,-0.74956 -0.764833,0 -8.413169,0 z m 0,1.499122 0,1.61624 c 0.244875,-0.06188 0.50024,-0.117132 0.764835,-0.117132 l 0,2.99824 3.059333,0 c 0,1.655884 -1.36971,2.998243 -3.059333,2.998243 -0.264595,0 -0.51996,-0.05523 -0.764835,-0.117132 l 0,0.86668 5.353834,0 0,0.74956 -5.353834,0 0,1.499121 5.353834,0 0,0.74956 -5.353834,0 0,2.248682 7.648336,0 0,-13.492088 -7.648336,0 z m 1.529668,0.74956 c 1.689623,0 3.059333,1.342359 3.059333,2.998242 l -3.059333,0 0,-2.998242 z m -8.508772,1.686511 c 0.766393,0.01279 1.155532,0.162066 1.481865,0.468475 0.425675,0.399678 0.602595,0.92515 0.597527,1.850478 -0.0084,1.518796 -0.932248,2.459494 -2.390105,2.459494 l -0.549724,0 -0.04781,1.218036 -0.0239,1.241459 -0.573626,-0.04685 -0.597525,-0.02343 0,-3.53699 0,-3.536988 1.195051,-0.07026 c 0.353177,-0.01959 0.652771,-0.02768 0.90824,-0.02343 z m -0.884339,1.264882 0,1.077493 c 0,0.591478 0.05468,1.107666 0.09562,1.147764 0.11956,0.117172 0.45185,0.09704 0.860438,-0.07026 0.49581,-0.203026 0.720931,-0.837489 0.525822,-1.475697 -0.143851,-0.470572 -0.462755,-0.679289 -1.075546,-0.679289 l -0.406318,0 z"
       id="path3065"
       style="color:#000000;fill:#ffffff;fill-opacity:1;fill-rule:nonzero;stroke:none;stroke-width:0.99999994;marker:none;visibility:visible;display:inline;overflow:visible;enable-background:accumulate" />
  </g>
</svg>
