<?xml version="1.0" encoding="UTF-8" standalone="no"?>
<!-- Created with Inkscape (http://www.inkscape.org/) -->

<svg
   xmlns:dc="http://purl.org/dc/elements/1.1/"
   xmlns:cc="http://creativecommons.org/ns#"
   xmlns:rdf="http://www.w3.org/1999/02/22-rdf-syntax-ns#"
   xmlns:svg="http://www.w3.org/2000/svg"
   xmlns="http://www.w3.org/2000/svg"
   xmlns:xlink="http://www.w3.org/1999/xlink"
   xmlns:sodipodi="http://sodipodi.sourceforge.net/DTD/sodipodi-0.dtd"
   xmlns:inkscape="http://www.inkscape.org/namespaces/inkscape"
   version="1.1"
   width="24"
   height="24"
   id="svg3943"
   inkscape:version="0.48.4 r9939"
   sodipodi:docname="gnome-mime-application-javascript.svg">
  <sodipodi:namedview
     pagecolor="#ffffff"
     bordercolor="#666666"
     borderopacity="1"
     objecttolerance="10"
     gridtolerance="10"
     guidetolerance="10"
     inkscape:pageopacity="0"
     inkscape:pageshadow="2"
     inkscape:window-width="1228"
     inkscape:window-height="1028"
     id="namedview40"
     showgrid="false"
     inkscape:zoom="38.5"
     inkscape:cx="12"
     inkscape:cy="12"
     inkscape:window-x="692"
     inkscape:window-y="24"
     inkscape:window-maximized="0"
     inkscape:current-layer="svg3943" />
  <defs
     id="defs3945">
    <linearGradient
       x1="23.99999"
       y1="5.5641499"
       x2="23.99999"
       y2="43"
       id="linearGradient3013"
       xlink:href="#linearGradient3977"
       gradientUnits="userSpaceOnUse"
       gradientTransform="matrix(0.40540511,0,0,0.51351351,2.2696871,7.6756805)" />
    <linearGradient
       id="linearGradient3977">
      <stop
         id="stop3979"
         style="stop-color:#ffffff;stop-opacity:1"
         offset="0" />
      <stop
         id="stop3981"
         style="stop-color:#ffffff;stop-opacity:0.23529412"
         offset="0.03626217" />
      <stop
         id="stop3983"
         style="stop-color:#ffffff;stop-opacity:0.15686275"
         offset="0.95056331" />
      <stop
         id="stop3985"
         style="stop-color:#ffffff;stop-opacity:0.39215687"
         offset="1" />
    </linearGradient>
    <radialGradient
       cx="7.8060555"
       cy="9.9571075"
       r="12.671875"
       fx="7.2758255"
       fy="9.9571075"
       id="radialGradient3094"
       xlink:href="#linearGradient2867-449-88-871-390-598-476-591-434-148-57-177-8-3"
       gradientUnits="userSpaceOnUse"
       gradientTransform="matrix(-7.8526751e-8,3.1504889,-3.9304935,-9.4569199e-8,51.131135,-19.404765)" />
    <linearGradient
       id="linearGradient2867-449-88-871-390-598-476-591-434-148-57-177-8-3">
      <stop
         id="stop3750-1-0"
         style="stop-color:#90dbec;stop-opacity:1"
         offset="0" />
      <stop
         id="stop3752-3-7"
         style="stop-color:#55c1ec;stop-opacity:1"
         offset="0.26238" />
      <stop
         id="stop3754-1-8"
         style="stop-color:#3689e6;stop-opacity:1"
         offset="0.704952" />
      <stop
         id="stop3756-1-6"
         style="stop-color:#2b63a0;stop-opacity:1"
         offset="1" />
    </linearGradient>
    <radialGradient
       cx="605.71429"
       cy="486.64789"
       r="117.14286"
       fx="605.71429"
       fy="486.64789"
       id="radialGradient3021"
       xlink:href="#linearGradient5060"
       gradientUnits="userSpaceOnUse"
       gradientTransform="matrix(0.01204859,0,0,0.0082353,13.238793,26.980564)" />
    <linearGradient
       id="linearGradient5060">
      <stop
         id="stop5062"
         style="stop-color:#000000;stop-opacity:1"
         offset="0" />
      <stop
         id="stop5064"
         style="stop-color:#000000;stop-opacity:0"
         offset="1" />
    </linearGradient>
    <radialGradient
       cx="605.71429"
       cy="486.64789"
       r="117.14286"
       fx="605.71429"
       fy="486.64789"
       id="radialGradient3024"
       xlink:href="#linearGradient5060"
       gradientUnits="userSpaceOnUse"
       gradientTransform="matrix(-0.01204859,0,0,0.0082353,10.761206,26.980564)" />
    <linearGradient
       id="linearGradient5048">
      <stop
         id="stop5050"
         style="stop-color:#000000;stop-opacity:0"
         offset="0" />
      <stop
         id="stop5056"
         style="stop-color:#000000;stop-opacity:1"
         offset="0.5" />
      <stop
         id="stop5052"
         style="stop-color:#000000;stop-opacity:0"
         offset="1" />
    </linearGradient>
    <linearGradient
       x1="302.85715"
       y1="366.64789"
       x2="302.85715"
       y2="609.50507"
       id="linearGradient3941"
       xlink:href="#linearGradient5048"
       gradientUnits="userSpaceOnUse"
       gradientTransform="matrix(0.0352071,0,0,0.0082353,-0.724852,26.980547)" />
    <linearGradient
       x1="23.99999"
       y1="5.5641499"
       x2="23.99999"
       y2="43"
       id="linearGradient3019"
       xlink:href="#linearGradient3977"
       gradientUnits="userSpaceOnUse"
       gradientTransform="matrix(0.40540511,0,0,0.51351351,2.2696871,-0.3243195)" />
    <radialGradient
       cx="7.8060555"
       cy="9.9571075"
       r="12.671875"
       fx="7.2758255"
       fy="9.9571075"
       id="radialGradient3022"
       xlink:href="#linearGradient2867-449-88-871-390-598-476-591-434-148-57-177-8-3-9"
       gradientUnits="userSpaceOnUse"
       gradientTransform="matrix(-7.8526751e-8,3.1504889,-3.9304935,-9.4569199e-8,51.131135,-27.404765)" />
    <radialGradient
       cx="605.71429"
       cy="486.64789"
       r="117.14286"
       fx="605.71429"
       fy="486.64789"
       id="radialGradient3025"
       xlink:href="#linearGradient5060"
       gradientUnits="userSpaceOnUse"
       gradientTransform="matrix(0.01204859,0,0,0.0082353,13.238793,18.980564)" />
    <radialGradient
       cx="605.71429"
       cy="486.64789"
       r="117.14286"
       fx="605.71429"
       fy="486.64789"
       id="radialGradient3028"
       xlink:href="#linearGradient5060"
       gradientUnits="userSpaceOnUse"
       gradientTransform="matrix(-0.01204859,0,0,0.0082353,10.761206,18.980564)" />
    <linearGradient
       x1="302.85715"
       y1="366.64789"
       x2="302.85715"
       y2="609.50507"
       id="linearGradient3031"
       xlink:href="#linearGradient5048"
       gradientUnits="userSpaceOnUse"
       gradientTransform="matrix(0.0352071,0,0,0.0082353,-0.724852,18.980547)" />
    <radialGradient
       r="12.671875"
       fy="9.9571075"
       fx="7.2758255"
       cy="9.9571075"
       cx="7.8060555"
       gradientTransform="matrix(-1.6167311e-7,6.6018651,-8.0922115,-1.9817022e-7,197.43864,-60.072946)"
       gradientUnits="userSpaceOnUse"
       id="radialGradient3858"
       xlink:href="#linearGradient2867-449-88-871-390-598-476-591-434-148-57-177-8-3-9"
       inkscape:collect="always" />
    <linearGradient
       id="linearGradient2867-449-88-871-390-598-476-591-434-148-57-177-8-3-9">
      <stop
         id="stop3750-1-0-3"
         style="stop-color:#ffcd7d;stop-opacity:1;"
         offset="0" />
      <stop
         id="stop3752-3-7-6"
         style="stop-color:#fc8f36;stop-opacity:1;"
         offset="0.26238" />
      <stop
         id="stop3754-1-8-6"
         style="stop-color:#e23a0e;stop-opacity:1;"
         offset="0.704952" />
      <stop
         id="stop3756-1-6-7"
         style="stop-color:#ac441f;stop-opacity:1;"
         offset="1" />
    </linearGradient>
    <linearGradient
       y2="0.57054341"
       x2="25"
       y1="44.2915"
       x1="25"
       gradientTransform="translate(92.874353,-4.6076e-4)"
       gradientUnits="userSpaceOnUse"
       id="linearGradient3860"
       xlink:href="#linearGradient4039"
       inkscape:collect="always" />
    <linearGradient
       id="linearGradient4039">
      <stop
         id="stop4041"
         style="stop-color:#ba3d12;stop-opacity:1"
         offset="0" />
      <stop
         id="stop4043"
         style="stop-color:#db6737;stop-opacity:1"
         offset="1" />
    </linearGradient>
    <radialGradient
       r="12.671875"
       fy="9.9571075"
       fx="7.2758255"
       cy="9.9571075"
       cx="7.8060555"
       gradientTransform="matrix(-7.6218959e-8,3.3755259,-3.8149816,-1.013242e-7,72.455699,-22.490637)"
       gradientUnits="userSpaceOnUse"
       id="radialGradient3023"
       xlink:href="#linearGradient2867-449-88-871-390-598-476-591-434-148-57-177-8-3-9"
       inkscape:collect="always" />
    <linearGradient
       y2="0.57054341"
       x2="25"
       y1="44.2915"
       x1="25"
       gradientTransform="matrix(0.47143869,0,0,0.51129883,23.160049,8.2243538)"
       gradientUnits="userSpaceOnUse"
       id="linearGradient3025"
       xlink:href="#linearGradient4039"
       inkscape:collect="always" />
  </defs>
  <metadata
     id="metadata3948">
    <rdf:RDF>
      <cc:Work
         rdf:about="">
        <dc:format>image/svg+xml</dc:format>
        <dc:type
           rdf:resource="http://purl.org/dc/dcmitype/StillImage" />
        <dc:title></dc:title>
      </cc:Work>
    </rdf:RDF>
  </metadata>
  <rect
     width="16.999998"
     height="2"
     x="3.5000007"
     y="22"
     id="rect2879"
     style="opacity:0.15;fill:url(#linearGradient3031);fill-opacity:1;fill-rule:nonzero;stroke:none;stroke-width:1;marker:none;visibility:visible;display:inline;overflow:visible" />
  <path
     d="m 3.4999999,22.000085 c 0,0 0,1.999891 0,1.999891 C 2.8795275,24.003776 2,23.551901 2,22.999901 2,22.447902 2.6924,22.000085 3.4999999,22.000085 z"
     id="path2881"
     style="opacity:0.15;fill:url(#radialGradient3028);fill-opacity:1;fill-rule:nonzero;stroke:none;stroke-width:1;marker:none;visibility:visible;display:inline;overflow:visible" />
  <path
     d="m 20.5,22.000085 c 0,0 0,1.999891 0,1.999891 0.620472,0.0038 1.5,-0.448075 1.5,-1.000075 0,-0.551999 -0.692402,-0.999816 -1.5,-0.999816 z"
     id="path2883"
     style="opacity:0.15;fill:url(#radialGradient3025);fill-opacity:1;fill-rule:nonzero;stroke:none;stroke-width:1;marker:none;visibility:visible;display:inline;overflow:visible" />
  <path
     d="m 3.5000001,1.500032 c 3.895563,0 16.9999789,0.0013 16.9999789,0.0013 L 20.5,22.499995 c 0,0 -11.333333,0 -17,0 0,-7.000001 0,-14.000001 0,-20.9999998 z"
     id="path4160"
     style="color:#000000;fill:url(#radialGradient3022);fill-opacity:1.0;fill-rule:nonzero;stroke:none;stroke-width:1;marker:none;visibility:visible;display:inline;overflow:visible;enable-background:accumulate" />
  <path
     d="m 19.5,21.5 -15.0000004,0 0,-19 L 19.5,2.5 z"
     id="rect6741-1"
     style="opacity:0.5;fill:none;stroke:url(#linearGradient3019);stroke-width:1;stroke-linecap:round;stroke-linejoin:miter;stroke-miterlimit:4;stroke-opacity:1;stroke-dasharray:none;stroke-dashoffset:0" />
  <path
     d="m 3.4999601,1.4999569 c 3.8955809,0 17.0000589,0.00136 17.0000589,0.00136 l 2.1e-5,20.9987161 c 0,0 -11.3333862,0 -17.0000799,0 0,-7.000018 0,-14.000035 0,-21.0000538 z"
     id="path4160-3-1"
     style="opacity:0.6;fill:none;stroke:#3e1500;stroke-width:0.99992186000000005;stroke-linecap:butt;stroke-linejoin:round;stroke-miterlimit:4;stroke-opacity:1;stroke-dasharray:none;stroke-dashoffset:0;display:inline" />
  <path
     inkscape:connector-curvature="0"
     id="path3828"
     d="m 10.529512,14.2318 c 0,0 -0.384742,0.223742 0.273808,0.299449 0.797815,0.09102 1.20557,0.07797 2.084768,-0.08844 0,0 0.23115,0.144937 0.553967,0.270472 -1.97093,0.844706 -4.4606032,-0.04893 -2.912543,-0.481484"
     style="opacity:0.15;fill:#000000;fill-opacity:1;stroke:#000000;stroke-width:0.27615908;stroke-linecap:round;stroke-linejoin:round;stroke-miterlimit:4;stroke-opacity:1;stroke-dasharray:none" />
  <path
     inkscape:connector-curvature="0"
     id="path3830"
     d="m 10.288675,13.129511 c 0,0 -0.4315262,0.319426 0.227512,0.387592 0.852252,0.08792 1.525294,0.09511 2.689916,-0.129144 0,0 0.161082,0.163308 0.414375,0.252615 -2.382973,0.696813 -5.0371752,0.05495 -3.331803,-0.511063"
     style="opacity:0.15;fill:#000000;fill-opacity:1;stroke:#000000;stroke-width:0.27615908;stroke-linecap:round;stroke-linejoin:round;stroke-miterlimit:4;stroke-opacity:1;stroke-dasharray:none" />
  <path
     inkscape:connector-curvature="0"
     id="path3832"
     d="m 12.319007,11.259663 c 0.485637,0.559124 -0.127597,1.062263 -0.127597,1.062263 0,0 1.233114,-0.63657 0.666802,-1.433708 -0.52892,-0.743381 -0.93453,-1.1127357 1.261281,-2.3862301 0,0 -3.4467,0.8608272 -1.800486,2.7576751"
     style="opacity:0.15;fill:#000000;fill-opacity:1;stroke:#000000;stroke-width:0.27615908;stroke-linecap:round;stroke-linejoin:round;stroke-miterlimit:4;stroke-opacity:1;stroke-dasharray:none" />
  <path
     style="fill:#ffffff;fill-opacity:1;stroke:#ffffff;stroke-width:0.27615908;stroke-linecap:round;stroke-linejoin:round;stroke-miterlimit:4;stroke-opacity:1;stroke-dasharray:none"
     d="m 10.529512,13.734216 c 0,0 -0.384742,0.223742 0.273808,0.29945 0.797815,0.09102 1.20557,0.07797 2.084768,-0.08844 0,0 0.23115,0.144936 0.553967,0.270471 -1.97093,0.844706 -4.4606032,-0.04893 -2.912543,-0.481484"
     id="path5"
     inkscape:connector-curvature="0" />
  <path
     inkscape:connector-curvature="0"
     id="path3834"
     d="m 14.925722,15.047118 c 0,0 0.284716,0.234597 -0.313563,0.416085 -1.137649,0.344636 -4.7350092,0.448704 -5.7343422,0.01374 -0.359235,-0.156281 0.314432,-0.373155 0.526341,-0.418665 0.221001,-0.04792 0.347295,-0.039 0.347295,-0.039 -0.399506,-0.281432 -2.582237,0.552608 -1.108721,0.791464 4.0184952,0.651686 7.3253342,-0.293453 6.2829902,-0.763623"
     style="opacity:0.15;fill:#000000;fill-opacity:1;stroke:#000000;stroke-width:0.27615908;stroke-linecap:round;stroke-linejoin:round;stroke-miterlimit:4;stroke-opacity:1;stroke-dasharray:none" />
  <path
     inkscape:connector-curvature="0"
     id="path3836"
     d="m 10.714529,11.987413 c 0,0 -1.8298472,0.434619 -0.647994,0.592446 0.499015,0.06681 1.493788,0.05169 2.420394,-0.02594 0.757273,-0.06388 1.517668,-0.199698 1.517668,-0.199698 0,0 -0.267023,0.114353 -0.46021,0.246265 -1.858178,0.488702 -5.4478332,0.261352 -4.4144172,-0.238531 0.8739612,-0.422461 1.5845592,-0.37454 1.5845592,-0.37454"
     style="opacity:0.15;fill:#000000;fill-opacity:1;stroke:#000000;stroke-width:0.27615908;stroke-linecap:round;stroke-linejoin:round;stroke-miterlimit:4;stroke-opacity:1;stroke-dasharray:none" />
  <path
     style="fill:#ffffff;fill-opacity:1;stroke:#ffffff;stroke-width:0.27615908;stroke-linecap:round;stroke-linejoin:round;stroke-miterlimit:4;stroke-opacity:1;stroke-dasharray:none"
     d="m 10.288675,12.631927 c 0,0 -0.4315262,0.319426 0.227512,0.387592 0.852252,0.08792 1.525294,0.09511 2.689916,-0.129144 0,0 0.161082,0.163308 0.414375,0.252615 -2.382973,0.696813 -5.0371752,0.05495 -3.331803,-0.511063"
     id="path7"
     inkscape:connector-curvature="0" />
  <path
     inkscape:connector-curvature="0"
     id="path3840"
     d="m 12.858212,6.4456318 c 0,0 1.046115,1.0464687 -0.992196,2.6556412 -1.634518,1.290834 -0.372722,2.026832 -6.97e-4,2.867742 -0.954096,-0.860828 -1.654275,-1.618617 -1.18454,-2.3238962 0.689459,-1.035289 2.599495,-1.5372348 2.177412,-3.199487"
     style="opacity:0.15;fill:#000000;fill-opacity:1;stroke:#000000;stroke-width:0.27615908;stroke-linecap:round;stroke-linejoin:round;stroke-miterlimit:4;stroke-opacity:1;stroke-dasharray:none" />
  <path
     style="fill:#ffffff;fill-opacity:1;stroke:#ffffff;stroke-width:0.27615908;stroke-linecap:round;stroke-linejoin:round;stroke-miterlimit:4;stroke-opacity:1;stroke-dasharray:none"
     d="m 12.319007,10.762079 c 0.485637,0.559124 -0.127597,1.062263 -0.127597,1.062263 0,0 1.233114,-0.63657 0.666802,-1.433708 -0.52892,-0.7433811 -0.93453,-1.1127356 1.261281,-2.38623 0,0 -3.4467,0.8608271 -1.800486,2.757675"
     id="path9"
     inkscape:connector-curvature="0" />
  <path
     inkscape:connector-curvature="0"
     id="path3838"
     d="m 13.997052,13.822228 c 1.888924,-0.981558 1.01556,-1.924828 0.405964,-1.797747 -0.149414,0.0311 -0.216034,0.05805 -0.216034,0.05805 0,0 0.05547,-0.08689 0.161408,-0.124504 1.205977,-0.423981 2.133453,1.250482 -0.3893,1.913674 0,2.7e-5 0.02923,-0.02611 0.03796,-0.04947"
     style="opacity:0.15;fill:#000000;fill-opacity:1;stroke:#000000;stroke-width:0.27615908;stroke-linecap:round;stroke-linejoin:round;stroke-miterlimit:4;stroke-opacity:1;stroke-dasharray:none" />
  <path
     style="fill:#ffffff;fill-opacity:1;stroke:#ffffff;stroke-width:0.27615908;stroke-linecap:round;stroke-linejoin:round;stroke-miterlimit:4;stroke-opacity:1;stroke-dasharray:none"
     d="m 14.925722,14.549534 c 0,0 0.284716,0.234597 -0.313563,0.416085 -1.137649,0.344636 -4.7350092,0.448704 -5.7343422,0.01374 -0.359235,-0.156281 0.314432,-0.373155 0.526341,-0.418665 0.221001,-0.04792 0.347295,-0.039 0.347295,-0.039 -0.399506,-0.281432 -2.582237,0.552609 -1.108721,0.791464 4.0184952,0.651686 7.3253342,-0.293453 6.2829902,-0.763623"
     id="path11"
     inkscape:connector-curvature="0" />
  <path
     style="fill:#ffffff;fill-opacity:1;stroke:#ffffff;stroke-width:0.27615908;stroke-linecap:round;stroke-linejoin:round;stroke-miterlimit:4;stroke-opacity:1;stroke-dasharray:none"
     d="m 10.714529,11.48983 c 0,0 -1.8298472,0.434618 -0.647994,0.592445 0.499015,0.06681 1.493788,0.05169 2.420394,-0.02594 0.757273,-0.06388 1.517668,-0.199698 1.517668,-0.199698 0,0 -0.267023,0.114353 -0.46021,0.246265 -1.858178,0.488702 -5.4478332,0.261352 -4.4144172,-0.238531 0.8739612,-0.422461 1.5845592,-0.374539 1.5845592,-0.374539"
     id="path13"
     inkscape:connector-curvature="0" />
  <path
     inkscape:connector-curvature="0"
     id="path3842"
     d="m 10.900144,16.830271 c 1.81313,0.116064 4.5974,-0.0644 4.663341,-0.922317 0,0 -0.126754,0.325231 -1.498454,0.583519 -1.547546,0.291227 -3.456226,0.257225 -4.5882822,0.07058 2.7e-5,-2.7e-5 0.231747,0.191801 1.4233952,0.268217"
     style="opacity:0.15;fill:#000000;fill-opacity:1;stroke:#000000;stroke-width:0.27615908;stroke-linecap:round;stroke-linejoin:round;stroke-miterlimit:4;stroke-opacity:1;stroke-dasharray:none" />
  <path
     style="fill:#ffffff;fill-opacity:1;stroke:#ffffff;stroke-width:0.27615908;stroke-linecap:round;stroke-linejoin:round;stroke-miterlimit:4;stroke-opacity:1;stroke-dasharray:none"
     d="m 13.997052,13.324644 c 1.888924,-0.981558 1.01556,-1.924828 0.405964,-1.797747 -0.149414,0.0311 -0.216034,0.05805 -0.216034,0.05805 0,0 0.05547,-0.08689 0.161408,-0.124504 1.205977,-0.423981 2.133453,1.250482 -0.3893,1.913674 0,2.7e-5 0.02923,-0.02611 0.03796,-0.04947"
     id="path15"
     inkscape:connector-curvature="0" />
  <path
     style="fill:#ffffff;fill-opacity:1;stroke:#ffffff;stroke-width:0.27615908;stroke-linecap:round;stroke-linejoin:round;stroke-miterlimit:4;stroke-opacity:1;stroke-dasharray:none"
     d="m 12.858212,5.9480473 c 0,0 1.046115,1.0464693 -0.992196,2.6556418 -1.634518,1.2908342 -0.372722,2.0268329 -6.97e-4,2.8677419 -0.954096,-0.860828 -1.654275,-1.6186167 -1.18454,-2.3238961 0.689459,-1.035289 2.599495,-1.5372348 2.177412,-3.1994876"
     id="path17"
     inkscape:connector-curvature="0" />
  <path
     style="fill:#ffffff;fill-opacity:1;stroke:#ffffff;stroke-width:0.27615908;stroke-linecap:round;stroke-linejoin:round;stroke-miterlimit:4;stroke-opacity:1;stroke-dasharray:none"
     d="m 10.900144,16.332687 c 1.81313,0.116064 4.5974,-0.0644 4.663341,-0.922317 0,0 -0.126754,0.325231 -1.498454,0.583519 -1.547546,0.291227 -3.456226,0.257225 -4.5882822,0.07058 2.7e-5,-2.7e-5 0.231747,0.191801 1.4233952,0.268217"
     id="path19"
     inkscape:connector-curvature="0" />
</svg>
