<?xml version="1.0" encoding="UTF-8" standalone="no"?>
<!-- Created with Inkscape (http://www.inkscape.org/) -->

<svg
   xmlns:dc="http://purl.org/dc/elements/1.1/"
   xmlns:cc="http://creativecommons.org/ns#"
   xmlns:rdf="http://www.w3.org/1999/02/22-rdf-syntax-ns#"
   xmlns:svg="http://www.w3.org/2000/svg"
   xmlns="http://www.w3.org/2000/svg"
   xmlns:xlink="http://www.w3.org/1999/xlink"
   xmlns:sodipodi="http://sodipodi.sourceforge.net/DTD/sodipodi-0.dtd"
   xmlns:inkscape="http://www.inkscape.org/namespaces/inkscape"
   version="1.1"
   width="24"
   height="24"
   id="svg4247"
   inkscape:version="0.48.4 r9939"
   sodipodi:docname="image-x-xcf.svg">
  <sodipodi:namedview
     pagecolor="#ffffff"
     bordercolor="#666666"
     borderopacity="1"
     objecttolerance="10"
     gridtolerance="10"
     guidetolerance="10"
     inkscape:pageopacity="0"
     inkscape:pageshadow="2"
     inkscape:window-width="1855"
     inkscape:window-height="1056"
     id="namedview50563"
     showgrid="true"
     inkscape:zoom="38.5"
     inkscape:cx="7.7402597"
     inkscape:cy="12"
     inkscape:window-x="65"
     inkscape:window-y="24"
     inkscape:window-maximized="1"
     inkscape:current-layer="layer1"
     showguides="false">
    <inkscape:grid
       type="xygrid"
       id="grid4160" />
  </sodipodi:namedview>
  <defs
     id="defs4249">
    <linearGradient
       id="linearGradient3812">
      <stop
         offset="0"
         style="stop-color:#90dbec;stop-opacity:1"
         id="stop3814" />
      <stop
         offset="0.38095239"
         style="stop-color:#55c1ec;stop-opacity:1"
         id="stop3816" />
      <stop
         offset="0.6825397"
         style="stop-color:#3689e6;stop-opacity:1"
         id="stop3818" />
      <stop
         offset="1"
         style="stop-color:#2b63a0;stop-opacity:1"
         id="stop3820" />
    </linearGradient>
    <linearGradient
       x1="23.99999"
       y1="5.5641499"
       x2="23.99999"
       y2="43"
       id="linearGradient3988"
       xlink:href="#linearGradient3977"
       gradientUnits="userSpaceOnUse"
       gradientTransform="matrix(0.82740382,0,0,1.0799048,3.8707519,-3.4337666)" />
    <linearGradient
       id="linearGradient3977">
      <stop
         id="stop3979"
         style="stop-color:#ffffff;stop-opacity:1"
         offset="0" />
      <stop
         id="stop3981"
         style="stop-color:#ffffff;stop-opacity:0.23529412"
         offset="0.03626217" />
      <stop
         id="stop3983"
         style="stop-color:#ffffff;stop-opacity:0.15686275"
         offset="0.95056331" />
      <stop
         id="stop3985"
         style="stop-color:#ffffff;stop-opacity:0.39215687"
         offset="1" />
    </linearGradient>
    <radialGradient
       cx="0.20001084"
       cy="8.6016188"
       r="18.000002"
       fx="0.20001084"
       fy="8.6016188"
       id="radialGradient3350-4"
       xlink:href="#linearGradient3812"
       gradientUnits="userSpaceOnUse"
       gradientTransform="matrix(-5.2305974e-8,6.9959287,-4.6456753,0,63.688767,-33.883341)" />
    <linearGradient
       id="linearGradient2867-449-88-871-390-598-476-591-434-148-57-177-7">
      <stop
         id="stop3750-6"
         style="stop-color:#90dbec;stop-opacity:1"
         offset="0" />
      <stop
         id="stop3752-3"
         style="stop-color:#55c1ec;stop-opacity:1"
         offset="0.26238" />
      <stop
         id="stop3754-1"
         style="stop-color:#3689e6;stop-opacity:1"
         offset="0.704952" />
      <stop
         id="stop3756-7"
         style="stop-color:#2b63a0;stop-opacity:1"
         offset="1" />
    </linearGradient>
    <linearGradient
       x1="-51.786404"
       y1="53.623615"
       x2="-51.786404"
       y2="2.9062471"
       id="linearGradient3352-5"
       xlink:href="#linearGradient3707-319-631-407-324-9"
       gradientUnits="userSpaceOnUse"
       gradientTransform="matrix(0.80043978,0,0,0.89390144,58.829691,-2.9728727)" />
    <linearGradient
       id="linearGradient3707-319-631-407-324-9">
      <stop
         id="stop3760-6"
         style="stop-color:#185f9a;stop-opacity:1"
         offset="0" />
      <stop
         id="stop3762-2"
         style="stop-color:#599ec9;stop-opacity:1"
         offset="1" />
    </linearGradient>
    <linearGradient
       x1="302.85715"
       y1="366.64789"
       x2="302.85715"
       y2="609.50507"
       id="linearGradient3826"
       xlink:href="#linearGradient5048-1"
       gradientUnits="userSpaceOnUse"
       gradientTransform="matrix(0.0352071,0,0,0.0082353,-0.724852,18.980547)" />
    <linearGradient
       id="linearGradient5048-1">
      <stop
         id="stop5050-9"
         style="stop-color:#000000;stop-opacity:0"
         offset="0" />
      <stop
         id="stop5056-6"
         style="stop-color:#000000;stop-opacity:1"
         offset="0.5" />
      <stop
         id="stop5052-82"
         style="stop-color:#000000;stop-opacity:0"
         offset="1" />
    </linearGradient>
    <radialGradient
       cx="605.71429"
       cy="486.64789"
       r="117.14286"
       fx="605.71429"
       fy="486.64789"
       id="radialGradient3048"
       xlink:href="#linearGradient5060-7"
       gradientUnits="userSpaceOnUse"
       gradientTransform="matrix(-0.01204859,0,0,0.0082353,10.761206,18.980564)" />
    <linearGradient
       id="linearGradient5060-7">
      <stop
         id="stop5062-3"
         style="stop-color:#000000;stop-opacity:1"
         offset="0" />
      <stop
         id="stop5064-6"
         style="stop-color:#000000;stop-opacity:0"
         offset="1" />
    </linearGradient>
    <radialGradient
       cx="605.71429"
       cy="486.64789"
       r="117.14286"
       fx="605.71429"
       fy="486.64789"
       id="radialGradient3045"
       xlink:href="#linearGradient5060-7"
       gradientUnits="userSpaceOnUse"
       gradientTransform="matrix(0.01204859,0,0,0.0082353,13.238793,18.980564)" />
    <radialGradient
       cx="7.8060555"
       cy="9.9571075"
       r="12.671875"
       fx="7.2758255"
       fy="9.9571075"
       id="radialGradient3037"
       xlink:href="#linearGradient2867-449-88-871-390-598-476-591-434-148-57-177-8-3"
       gradientUnits="userSpaceOnUse"
       gradientTransform="matrix(-1.6167311e-7,6.6018651,-8.0922115,-1.9817022e-7,104.56429,-60.072946)" />
    <linearGradient
       id="linearGradient2867-449-88-871-390-598-476-591-434-148-57-177-8-3">
      <stop
         id="stop3750-1-0"
         style="stop-color:#90dbec;stop-opacity:1"
         offset="0" />
      <stop
         id="stop3752-3-7"
         style="stop-color:#55c1ec;stop-opacity:1"
         offset="0.26238" />
      <stop
         id="stop3754-1-8"
         style="stop-color:#3689e6;stop-opacity:1"
         offset="0.704952" />
      <stop
         id="stop3756-1-6"
         style="stop-color:#2b63a0;stop-opacity:1"
         offset="1" />
    </linearGradient>
    <radialGradient
       r="12.671875"
       fy="9.9571075"
       fx="7.2758255"
       cy="9.9571075"
       cx="7.8060555"
       gradientTransform="matrix(-3.2974282e-7,13.196052,-16.504591,-3.9610997e-7,116.65977,-136.56941)"
       gradientUnits="userSpaceOnUse"
       id="radialGradient3030"
       xlink:href="#linearGradient2867-449-88-871-390-598-476-591-434-148-57-177-8-3"
       inkscape:collect="always" />
  </defs>
  <metadata
     id="metadata4252">
    <rdf:RDF>
      <cc:Work
         rdf:about="">
        <dc:format>image/svg+xml</dc:format>
        <dc:type
           rdf:resource="http://purl.org/dc/dcmitype/StillImage" />
        <dc:title />
      </cc:Work>
    </rdf:RDF>
  </metadata>
  <g
     id="g4139">
    <rect
       width="16.999998"
       height="2"
       x="3.5000007"
       y="22"
       id="rect2879"
       style="opacity:0.15;fill:url(#linearGradient3826);fill-opacity:1;fill-rule:nonzero;stroke:none;stroke-width:1;marker:none;visibility:visible;display:inline;overflow:visible" />
    <path
       d="m 3.4999999,22.000085 c 0,0 0,1.999891 0,1.999891 C 2.8795275,24.003776 2,23.551901 2,22.999901 2,22.447902 2.6924,22.000085 3.4999999,22.000085 Z"
       id="path2881"
       style="opacity:0.15;fill:url(#radialGradient3048);fill-opacity:1;fill-rule:nonzero;stroke:none;stroke-width:1;marker:none;visibility:visible;display:inline;overflow:visible"
       inkscape:connector-curvature="0" />
    <path
       d="m 20.5,22.000085 c 0,0 0,1.999891 0,1.999891 0.620472,0.0038 1.5,-0.448075 1.5,-1.000075 0,-0.551999 -0.692402,-0.999816 -1.5,-0.999816 z"
       id="path2883"
       style="opacity:0.15;fill:url(#radialGradient3045);fill-opacity:1;fill-rule:nonzero;stroke:none;stroke-width:1;marker:none;visibility:visible;display:inline;overflow:visible"
       inkscape:connector-curvature="0" />
  </g>
  <g
     id="layer1"
     transform="matrix(0.49030063,0,0,0.50029092,0.36593156,0.25149005)">
    <path
       d="m 6.3818236,0.50678226 c 7.9502034,0 34.6941604,0.002798 34.6941604,0.002798 l 4.2e-5,43.95151274 c 0,0 -23.129468,0 -34.6942024,0 0,-14.651437 0,-29.302875 0,-43.95431054 z"
       id="path4160"
       style="color:#000000;fill:url(#radialGradient3350-4);fill-opacity:1;fill-rule:nonzero;stroke:none;stroke-width:2.01893973000000004;stroke-linecap:butt;stroke-linejoin:round;stroke-miterlimit:4;stroke-opacity:1;stroke-dasharray:none;stroke-dashoffset:0;marker:none;visibility:visible;display:inline;overflow:visible;enable-background:accumulate"
       inkscape:connector-curvature="0" />
    <path
       d="m 39.035409,42.462177 -30.613941,0 0,-39.9564783 30.613941,0 z"
       id="rect6741-1"
       style="opacity:0.5;fill:none;stroke:url(#linearGradient3988);stroke-width:2.01909852;stroke-linecap:round;stroke-linejoin:round;stroke-miterlimit:4;stroke-opacity:1;stroke-dasharray:none;stroke-dashoffset:0"
       inkscape:connector-curvature="0" />
    <path
       inkscape:connector-curvature="0"
       d="m 34.537977,13.471782 c -0.107546,0.05165 -0.203018,0.219213 -0.295924,0.491562 -0.247754,0.726264 -1.991081,5.743397 -11.866552,5.985486 -4.712426,0.114505 -6.717476,-3.932493 -6.717476,-3.932493 l -0.118371,5.204771 c 0,0 0.506531,1.159893 -0.50307,2.37106 -0.05488,-0.08379 -0.08769,-0.178616 -0.147963,-0.260238 -0.363373,-0.492044 -0.789347,-0.906075 -1.24288,-1.214446 -0.52111,-0.354322 -1.063151,-0.58826 -1.597989,-0.665055 -0.616613,-0.08853 -1.213018,0.04194 -1.686767,0.375901 -0.4738932,0.334058 -0.7497682,0.845854 -0.8581792,1.445769 -0.09398,0.520074 -0.06137,1.082282 0.11837,1.677092 0.156453,0.517731 0.4061892,1.040455 0.7694022,1.532517 0.383709,0.519825 0.861743,0.980145 1.36125,1.301191 0.563341,0.362073 1.160575,0.574176 1.745952,0.607222 0.181144,0.01019 0.366221,-0.03318 0.532663,-0.05783 3.791454,2.936957 10.980407,5.870652 15.968715,2.968445 0.107893,0.03588 0.217052,0.07903 0.325516,0.115652 0.0027,0.05017 -0.01346,0.09988 0,0.144576 l 0.236739,-0.08675 c 0.739326,0.382104 1.663708,0.639927 2.485765,0.925293 -0.09227,0.76306 0.293982,1.403426 1.272472,1.769257 1.762156,0.658821 3.739824,1.305614 3.739824,1.305614 -0.840568,-2.788023 -0.825704,-5.208011 -3.005148,-5.364055 -0.370112,-0.0265 -0.830744,0.335573 -0.946956,0.433732 l -1.982692,-1.243363 -0.08878,0 -0.02959,-0.02892 c 2.669954,-2.56751 3.892453,-6.857943 2.945964,-15.252615 -0.05476,-0.419493 -0.235033,-0.635464 -0.414289,-0.549377 z"
       id="path4323-5"
       style="opacity:0.3;color:#000000;fill:#10283f;fill-opacity:0.63137255;fill-rule:nonzero;stroke:none;stroke-width:0.99999994;marker:none;visibility:visible;display:inline;overflow:visible;enable-background:accumulate" />
    <path
       inkscape:connector-curvature="0"
       d="m 34.537977,11.473001 c -0.107546,0.05165 -0.203018,0.219213 -0.295924,0.491562 -0.247754,0.726263 -1.991081,5.743397 -11.866552,5.985486 -4.712426,0.114505 -6.717476,-3.932493 -6.717476,-3.932493 l -0.118371,5.204771 c 0,0 0.506531,1.159893 -0.50307,2.37106 -0.05488,-0.08379 -0.08769,-0.178616 -0.147963,-0.260239 -0.363373,-0.492043 -0.789347,-0.906074 -1.24288,-1.214445 -0.52111,-0.354322 -1.063151,-0.58826 -1.597989,-0.665055 -0.616613,-0.08853 -1.213018,0.04194 -1.686767,0.375901 -0.4738932,0.334058 -0.7497682,0.845854 -0.8581792,1.445769 -0.09398,0.520073 -0.06137,1.082282 0.11837,1.677092 0.156453,0.517731 0.4061892,1.040455 0.7694022,1.532517 0.383709,0.519825 0.861743,0.980145 1.36125,1.301191 0.563341,0.362073 1.160575,0.574175 1.745952,0.607222 0.181144,0.01019 0.366221,-0.03318 0.532663,-0.05783 3.791454,2.936957 10.980407,5.870652 15.968715,2.968445 0.107893,0.03588 0.217052,0.07903 0.325516,0.115652 0.0027,0.05017 -0.01346,0.09988 0,0.144576 l 0.236739,-0.08675 c 0.739326,0.382103 1.663708,0.639927 2.485765,0.925293 -0.09227,0.76306 0.293982,1.403426 1.272472,1.769257 1.762156,0.658821 3.739824,1.305614 3.739824,1.305614 -0.840568,-2.788023 -0.825704,-5.208011 -3.005148,-5.364055 -0.370112,-0.0265 -0.830744,0.335573 -0.946956,0.433732 l -1.982692,-1.243363 -0.08878,0 -0.02959,-0.02892 c 2.669954,-2.56751 3.892453,-6.857944 2.945964,-15.252615 -0.05476,-0.419493 -0.235033,-0.635464 -0.414289,-0.549377 z"
       id="path4323"
       style="color:#000000;fill:#ffffff;fill-opacity:1;fill-rule:nonzero;stroke:none;stroke-width:0.99999994;marker:none;visibility:visible;display:inline;overflow:visible;enable-background:accumulate" />
    <path
       inkscape:connector-curvature="0"
       style="color:#000000;fill:none;fill-opacity:1;fill-rule:nonzero;stroke:#002f56;stroke-width:2.01893973000000004;stroke-linecap:butt;stroke-linejoin:round;stroke-miterlimit:4;stroke-opacity:1;stroke-dasharray:none;stroke-dashoffset:0;marker:none;visibility:visible;display:inline;overflow:visible;enable-background:accumulate;opacity:0.6"
       id="path4367"
       d="m 6.3818236,0.50678226 c 7.9502034,0 34.6941604,0.002798 34.6941604,0.002798 l 4.2e-5,43.95151274 c 0,0 -23.129468,0 -34.6942024,0 0,-14.651437 0,-29.302875 0,-43.95431054 z" />
  </g>
</svg>
