<?xml version="1.0" encoding="UTF-8" standalone="no"?>
<!-- Created with Inkscape (http://www.inkscape.org/) -->

<svg
   xmlns:dc="http://purl.org/dc/elements/1.1/"
   xmlns:cc="http://creativecommons.org/ns#"
   xmlns:rdf="http://www.w3.org/1999/02/22-rdf-syntax-ns#"
   xmlns:svg="http://www.w3.org/2000/svg"
   xmlns="http://www.w3.org/2000/svg"
   xmlns:xlink="http://www.w3.org/1999/xlink"
   xmlns:sodipodi="http://sodipodi.sourceforge.net/DTD/sodipodi-0.dtd"
   xmlns:inkscape="http://www.inkscape.org/namespaces/inkscape"
   width="24"
   height="24"
   id="svg5043"
   version="1.1"
   inkscape:version="0.91 r"
   sodipodi:docname="color-picker.svg">
  <defs
     id="defs5045">
    <linearGradient
       id="linearGradient3958">
      <stop
         offset="0"
         style="stop-color:#9bb8ed;stop-opacity:1"
         id="stop3960" />
      <stop
         offset="0.26238"
         style="stop-color:#74a7de;stop-opacity:1"
         id="stop3962" />
      <stop
         offset="0.66093999"
         style="stop-color:#4094d6;stop-opacity:1"
         id="stop3964" />
      <stop
         offset="1"
         style="stop-color:#195f90;stop-opacity:1"
         id="stop3966" />
    </linearGradient>
    <linearGradient
       id="linearGradient3948">
      <stop
         offset="0"
         style="stop-color:#487ede;stop-opacity:1;"
         id="stop3950" />
      <stop
         offset="0.26238"
         style="stop-color:#366eaa;stop-opacity:1;"
         id="stop3952" />
      <stop
         offset="0.66093999"
         style="stop-color:#275273;stop-opacity:1;"
         id="stop3954" />
      <stop
         offset="1"
         style="stop-color:#0a1f2e;stop-opacity:1;"
         id="stop3956" />
    </linearGradient>
    <radialGradient
       inkscape:collect="always"
       xlink:href="#linearGradient3978"
       id="radialGradient4228"
       gradientUnits="userSpaceOnUse"
       cx="159.98289"
       cy="34.237293"
       fx="159.98289"
       fy="34.237293"
       r="9.7227173"
       gradientTransform="matrix(1.6640328,0,0,1.7821578,-108.49693,-26.398726)" />
    <linearGradient
       inkscape:collect="always"
       id="linearGradient3978">
      <stop
         style="stop-color:#ffffff;stop-opacity:1;"
         offset="0"
         id="stop3980" />
      <stop
         style="stop-color:#ffffff;stop-opacity:0;"
         offset="1"
         id="stop3982" />
    </linearGradient>
  </defs>
  <sodipodi:namedview
     id="base"
     pagecolor="#ffffff"
     bordercolor="#666666"
     borderopacity="1.0"
     inkscape:pageopacity="0.0"
     inkscape:pageshadow="2"
     inkscape:zoom="38.166667"
     inkscape:cx="2.9344978"
     inkscape:cy="12"
     inkscape:document-units="px"
     inkscape:current-layer="layer12"
     showgrid="true"
     fit-margin-top="0"
     fit-margin-left="0"
     fit-margin-right="0"
     fit-margin-bottom="0"
     inkscape:window-width="1855"
     inkscape:window-height="1056"
     inkscape:window-x="65"
     inkscape:window-y="24"
     inkscape:window-maximized="1">
    <inkscape:grid
       type="xygrid"
       id="grid4726" />
  </sodipodi:namedview>
  <metadata
     id="metadata5048">
    <rdf:RDF>
      <cc:Work
         rdf:about="">
        <dc:format>image/svg+xml</dc:format>
        <dc:type
           rdf:resource="http://purl.org/dc/dcmitype/StillImage" />
        <dc:title />
      </cc:Work>
    </rdf:RDF>
  </metadata>
  <g
     inkscape:label="Capa 1"
     inkscape:groupmode="layer"
     id="layer1"
     transform="translate(-157.71428,-264.9351)">
    <g
       style="display:inline;enable-background:new"
       transform="matrix(0.34883873,0,0,0.34883873,114.48787,267.51642)"
       id="g4208">
      <circle
         style="color:#000000;display:inline;overflow:visible;visibility:visible;opacity:0.5;fill:url(#radialGradient4228);fill-opacity:1;stroke:none;stroke-width:0.82709104;marker:none;enable-background:accumulate"
         id="path4218"
         cx="157.71996"
         cy="34.617561"
         r="0" />
      <g
         id="layer9"
         label="status"
         style="display:inline"
         transform="matrix(3.9416495,0,0,3.9416495,-1814.0454,42.766696)" />
      <g
         id="layer10"
         style="display:inline"
         transform="matrix(3.9416495,0,0,3.9416495,-1814.0454,42.766696)" />
      <g
         id="layer13"
         style="display:inline"
         transform="matrix(3.9416495,0,0,3.9416495,-1814.0454,42.766696)" />
      <g
         id="layer14"
         transform="matrix(3.9416495,0,0,3.9416495,-1814.0454,42.766696)" />
      <g
         id="layer15"
         style="display:inline"
         transform="matrix(3.9416495,0,0,3.9416495,-1814.0454,42.766696)" />
      <g
         id="g71291"
         style="display:inline"
         transform="matrix(3.9416495,0,0,3.9416495,-1814.0454,42.766696)" />
      <g
         id="layer12"
         style="display:inline;fill:#353945;fill-opacity:1"
         transform="matrix(3.9416495,0,0,3.9416495,-1814.0454,42.766696)">
        <path
           inkscape:connector-curvature="0"
           d="m 504.2504,-12 c -1.03398,0 -1.90534,0.59396 -2.375,1.4375 l -0.15625,-0.15625 -1.15625,-0.25 -0.96875,0.96875 0.6875,0.71875 1,1 L 497.0004,-4 l -1,2.4375 0.5,0.5625 2.5,-1 4.28125,-4.28125 1,1 0.71875,0.6875 1.125,-1.125 -0.40625,-1 -0.15625,-0.15625 c 0.84354,-0.46966 1.4375,-1.34102 1.4375,-2.375 0,-1.51878 -1.23122,-2.75 -2.75,-2.75 z m -2.46875,4.21875 1,1 L 500.0004,-4 l -2,0 3.78125,-3.78125 z m -6.125,6.875 c 0,0 -1.8125,2.4758 -1.8125,3.34375 0,0.86794 0.7258,1.5625 1.59375,1.5625 0.86795,0 1.5625,-0.69456 1.5625,-1.5625 0,-0.86795 -1.34375,-3.34375 -1.34375,-3.34375 z"
           id="path26492"
           style="color:#000000;display:inline;overflow:visible;visibility:visible;fill:#353945;fill-opacity:1;fill-rule:nonzero;stroke:none;stroke-width:2;marker:none;enable-background:new" />
        <path
           inkscape:connector-curvature="0"
           d="m 495.65665,-0.8998983 c 0,0 -1.8125,2.4758 -1.8125,3.3437503 0,0.86794 0.7258,1.5625 1.59375,1.5625 0.86795,0 1.5625,-0.69456 1.5625,-1.5625 0,-0.8679503 -1.34375,-3.3437503 -1.34375,-3.3437503 z"
           id="path26492-9"
           style="color:#000000;display:inline;overflow:visible;visibility:visible;fill:#ff6f00;fill-opacity:1;fill-rule:nonzero;stroke:none;stroke-width:2;marker:none;enable-background:new"
           sodipodi:nodetypes="csssc" />
      </g>
    </g>
  </g>
</svg>
