<?xml version="1.0" encoding="UTF-8" standalone="no"?>
<!-- Created with Inkscape (http://www.inkscape.org/) -->

<svg
   xmlns:dc="http://purl.org/dc/elements/1.1/"
   xmlns:cc="http://creativecommons.org/ns#"
   xmlns:rdf="http://www.w3.org/1999/02/22-rdf-syntax-ns#"
   xmlns:svg="http://www.w3.org/2000/svg"
   xmlns="http://www.w3.org/2000/svg"
   xmlns:sodipodi="http://sodipodi.sourceforge.net/DTD/sodipodi-0.dtd"
   xmlns:inkscape="http://www.inkscape.org/namespaces/inkscape"
   version="1.0"
   width="24"
   height="24"
   id="svg2"
   inkscape:version="0.91 r"
   sodipodi:docname="draw-spiral.svg">
  <sodipodi:namedview
     pagecolor="#ffffff"
     bordercolor="#666666"
     borderopacity="1"
     objecttolerance="10"
     gridtolerance="10"
     guidetolerance="10"
     inkscape:pageopacity="0"
     inkscape:pageshadow="2"
     inkscape:window-width="1855"
     inkscape:window-height="1056"
     id="namedview32"
     showgrid="true"
     inkscape:zoom="35.267606"
     inkscape:cx="4.4046615"
     inkscape:cy="12.925713"
     inkscape:window-x="65"
     inkscape:window-y="24"
     inkscape:window-maximized="1"
     inkscape:current-layer="svg2"
     inkscape:snap-bbox="true"
     inkscape:bbox-paths="true"
     inkscape:bbox-nodes="true"
     inkscape:snap-bbox-edge-midpoints="true"
     inkscape:snap-bbox-midpoints="true"
     inkscape:object-paths="true"
     inkscape:snap-intersection-paths="true"
     inkscape:object-nodes="true"
     inkscape:snap-smooth-nodes="true"
     inkscape:snap-midpoints="true"
     inkscape:snap-object-midpoints="true"
     inkscape:snap-center="true"
     fit-margin-top="0"
     fit-margin-left="0"
     fit-margin-right="0"
     fit-margin-bottom="0"
     inkscape:snap-global="false"
     showguides="true"
     inkscape:guide-bbox="true">
    <inkscape:grid
       type="xygrid"
       id="grid3218"
       empspacing="5"
       visible="true"
       enabled="true"
       snapvisiblegridlinesonly="true"
       originx="-11px"
       originy="18px" />
  </sodipodi:namedview>
  <metadata
     id="metadata11">
    <rdf:RDF>
      <cc:Work
         rdf:about="">
        <dc:format>image/svg+xml</dc:format>
        <dc:type
           rdf:resource="http://purl.org/dc/dcmitype/StillImage" />
        <dc:title />
      </cc:Work>
    </rdf:RDF>
  </metadata>
  <defs
     id="defs4" />
  <path
     style="color:#000000;font-style:normal;font-variant:normal;font-weight:normal;font-stretch:normal;font-size:medium;line-height:normal;font-family:Sans;-inkscape-font-specification:Sans;text-indent:0;text-align:start;text-decoration:none;text-decoration-line:none;letter-spacing:normal;word-spacing:normal;text-transform:none;direction:ltr;block-progression:tb;writing-mode:lr-tb;baseline-shift:baseline;text-anchor:start;display:inline;overflow:visible;visibility:visible;fill:#353945;fill-opacity:1;fill-rule:nonzero;stroke:none;stroke-width:2;marker:none;enable-background:accumulate"
     d="M 11.107898,2.0158735 C 8.6405004,2.1561282 6.2220782,3.2129717 4.5205429,5.2549596 1.6112707,8.746335 1.7831032,14.244699 5.4303985,17.192266 8.4723597,19.650631 13.205174,19.424126 15.693571,16.209622 17.687044,13.540016 17.507674,9.5764682 14.601744,7.5841901 12.480385,6.1186079 9.3394496,6.322374 7.7960232,8.6032284 l 0,0.036394 -0.036394,0 c -0.0015,0.01207 -0.0015,0.024324 0,0.036394 -0.5487318,0.8443507 -0.7786693,1.8566576 -0.6187019,2.8387506 0.1606764,0.986444 0.7402752,1.954274 1.7469225,2.474807 0.626238,0.323825 1.3732322,0.39967 2.0744712,0.218365 0.71134,-0.183916 1.40778,-0.729557 1.601346,-1.601346 0.127169,-0.572749 -0.03334,-1.006092 -0.327548,-1.419375 -0.145792,-0.204802 -0.359575,-0.496656 -0.764279,-0.582307 -0.421121,-0.08913 -0.890835,0.09016 -1.164615,0.363942 -0.5968382,0.578115 -0.09373,1.445818 0.400337,1.419375 0.0035,8.35e-4 -0.0035,0.03563 0,0.03639 -0.0052,0.008 0.0056,0.02923 0,0.03639 -0.04188,0.05374 -0.08209,0.08336 -0.181972,0.109183 -0.250161,0.06468 -0.6314142,-0.0028 -0.8370672,-0.109183 -0.501934,-0.259547 -0.783727,-0.6865 -0.873461,-1.237403 -0.089509,-0.54952 0.02185,-1.16735 0.327548,-1.6377409 C 10.107423,8.1012756 12.310913,7.9390073 13.728282,8.9671622 15.68181,10.384245 15.83926,13.30987 14.383378,15.190575 12.515557,17.603423 8.8599618,17.77131 6.5222255,15.882066 3.6538786,13.564015 3.4669188,9.1762863 5.7943408,6.3831806 8.5621653,3.0615544 13.684401,2.8873364 16.930974,5.6552961 c 3.773922,3.2175649 3.974053,9.0759539 0.764279,12.7743729 -0.670438,0.772502 -1.452873,1.475979 -2.329231,2.001683 -0.454965,0.262674 -0.629186,0.775222 -0.391237,1.187361 0.334886,0.453954 0.826894,0.463767 1.228305,0.232014 1.030247,-0.618017 1.977536,-1.384384 2.765961,-2.292837 C 22.77869,15.168283 22.58248,8.2015606 18.059195,4.345104 16.08948,2.6657661 13.575162,1.8756265 11.107898,2.0158735 Z"
     id="path3833"
     inkscape:connector-curvature="0"
     sodipodi:nodetypes="sssccccccssssssccccccsssssssscccsss" />
</svg>
