<?xml version="1.0" encoding="UTF-8" standalone="no"?>
<!-- Generator: Adobe Illustrator 15.0.0, SVG Export Plug-In . SVG Version: 6.00 Build 0)  -->

<svg
   xmlns:dc="http://purl.org/dc/elements/1.1/"
   xmlns:cc="http://creativecommons.org/ns#"
   xmlns:rdf="http://www.w3.org/1999/02/22-rdf-syntax-ns#"
   xmlns:svg="http://www.w3.org/2000/svg"
   xmlns="http://www.w3.org/2000/svg"
   xmlns:sodipodi="http://sodipodi.sourceforge.net/DTD/sodipodi-0.dtd"
   xmlns:inkscape="http://www.inkscape.org/namespaces/inkscape"
   id="Layer_1"
   xml:space="preserve"
   height="24"
   viewBox="0 0 24 24"
   width="24"
   version="1.1"
   y="0px"
   x="0px"
   enable-background="new 0 0 22 22"
   inkscape:version="0.91 r"
   sodipodi:docname="gtk-preferences.svg"><metadata
     id="metadata9"><rdf:RDF><cc:Work
         rdf:about=""><dc:format>image/svg+xml</dc:format><dc:type
           rdf:resource="http://purl.org/dc/dcmitype/StillImage" /><dc:title></dc:title></cc:Work></rdf:RDF></metadata><defs
     id="defs7" /><sodipodi:namedview
     pagecolor="#ffffff"
     bordercolor="#666666"
     borderopacity="1"
     objecttolerance="10"
     gridtolerance="10"
     guidetolerance="10"
     inkscape:pageopacity="0"
     inkscape:pageshadow="2"
     inkscape:window-width="1377"
     inkscape:window-height="1017"
     id="namedview5"
     showgrid="false"
     inkscape:zoom="10.727273"
     inkscape:cx="11"
     inkscape:cy="11"
     inkscape:window-x="75"
     inkscape:window-y="34"
     inkscape:window-maximized="0"
     inkscape:current-layer="Layer_1" /><path
     d="M 9.3577057,9.3579049 5.5621966,9.6479014 2.2755703,6.3634972 C 1.6211338,8.4823601 2.1311276,10.888997 3.811107,12.567866 c 1.9188654,1.923309 4.7877191,2.311082 7.097691,1.181096 l -0.01,0.0078 5.463266,7.277689 c 1.287762,1.287761 3.379959,1.287761 4.669943,0 1.289984,-1.288874 1.287762,-3.378848 0,-4.671054 l -7.275466,-5.464378 -0.01111,0.01222 C 14.876527,8.6012475 14.485421,5.7335049 12.565444,3.8124173 10.887687,2.1324379 8.483272,1.6213331 6.3632979,2.2757695 L 9.6499243,5.5646181 9.3577057,9.3579049 Z M 19.554247,17.80669 c 0.483328,0.481105 0.483328,1.26554 0,1.749979 -0.484438,0.482216 -1.269984,0.482216 -1.748867,0 -0.486661,-0.48555 -0.486661,-1.269985 0,-1.749979 0.478883,-0.48666 1.264429,-0.48666 1.748867,0 z"
     id="path3"
     inkscape:connector-curvature="0"
     style="fill:#353945;fill-opacity:1" /></svg>