<?xml version="1.0" encoding="UTF-8" standalone="no"?>
<!-- Generator: Adobe Illustrator 16.0.0, SVG Export Plug-In . SVG Version: 6.00 Build 0)  -->

<svg
   xmlns:dc="http://purl.org/dc/elements/1.1/"
   xmlns:cc="http://creativecommons.org/ns#"
   xmlns:rdf="http://www.w3.org/1999/02/22-rdf-syntax-ns#"
   xmlns:svg="http://www.w3.org/2000/svg"
   xmlns="http://www.w3.org/2000/svg"
   xmlns:sodipodi="http://sodipodi.sourceforge.net/DTD/sodipodi-0.dtd"
   xmlns:inkscape="http://www.inkscape.org/namespaces/inkscape"
   version="1.1"
   id="Capa_1"
   x="0px"
   y="0px"
   width="24"
   height="24"
   viewBox="0 0 24 24.000002"
   xml:space="preserve"
   inkscape:version="0.91 r"
   sodipodi:docname="zoom.svg"><metadata
     id="metadata45"><rdf:RDF><cc:Work
         rdf:about=""><dc:format>image/svg+xml</dc:format><dc:type
           rdf:resource="http://purl.org/dc/dcmitype/StillImage" /><dc:title /></cc:Work></rdf:RDF></metadata><defs
     id="defs43"><linearGradient
       id="linearGradient4117-0-5"><stop
         id="stop4119-2-8"
         style="stop-color:#ffffff;stop-opacity:1;"
         offset="0" /><stop
         offset="0.26923078"
         style="stop-color:#ffffff;stop-opacity:0.23529412;"
         id="stop4121-9-2" /><stop
         id="stop4123-4-6"
         style="stop-color:#ffffff;stop-opacity:0.15686275;"
         offset="0.76923078" /><stop
         id="stop4125-3-0"
         style="stop-color:#ffffff;stop-opacity:0.39215687;"
         offset="1" /></linearGradient><linearGradient
       id="linearGradient2867-449-88-871-390-598-476-591-434-148-57-177-641-289-620-227-114-444-680-744-4-1"><stop
         id="stop5430-5-0"
         style="stop-color:#737373;stop-opacity:1"
         offset="0" /><stop
         id="stop5432-2-0"
         style="stop-color:#636363;stop-opacity:1"
         offset="0.26238" /><stop
         id="stop5434-9-6"
         style="stop-color:#4b4b4b;stop-opacity:1"
         offset="0.704952" /><stop
         id="stop5436-2-7"
         style="stop-color:#3f3f3f;stop-opacity:1"
         offset="1" /></linearGradient></defs><sodipodi:namedview
     pagecolor="#ffffff"
     bordercolor="#666666"
     borderopacity="1"
     objecttolerance="10"
     gridtolerance="10"
     guidetolerance="10"
     inkscape:pageopacity="0"
     inkscape:pageshadow="2"
     inkscape:window-width="1855"
     inkscape:window-height="1056"
     id="namedview41"
     showgrid="true"
     inkscape:zoom="39.773304"
     inkscape:cx="1.21567"
     inkscape:cy="11.163615"
     inkscape:window-x="65"
     inkscape:window-y="24"
     inkscape:window-maximized="1"
     inkscape:current-layer="g5"><inkscape:grid
       type="xygrid"
       id="grid4716" /></sodipodi:namedview><g
     id="g3"
     transform="matrix(0.0306055,0,0,0.0306055,1.0810601e-4,8.0020499)"><g
       id="g5"
       style="fill:#3b3b3b;fill-opacity:1"><path
         d="m 706.22268,373.21721 -94.19124,-93.99999 c -8.98875,-8.9875 -21.22875,-13.19625 -33.08625,-12.6225 L 533.6177,221.26848 c 77.16874,-102.03123 69.32874,-247.956214 -23.61999,-340.9987 -101.64748,-101.64873 -266.59996,-101.64873 -368.24869,0.19125 -101.841233,101.839984 -101.841233,266.60246 -0.19125,368.25119 93.04373,93.04374 238.96746,100.78874 340.99869,23.62 l 45.32624,45.3275 c -0.57375,11.85624 3.63375,24.09624 12.6225,33.08624 l 93.99999,93.99873 c 16.82999,16.83 44.27374,16.83 61.10374,0 l 10.42375,-10.42375 c 17.02,-16.82999 17.02,-44.08249 0.19,-61.10373 z M 453.67647,192.38973 c -70.57124,70.57124 -185.22498,70.76249 -255.79621,0.19125 -70.57124,-70.57124 -70.57124,-185.03372 0.19125,-255.797459 70.57123,-70.571241 185.22622,-70.762491 255.79746,-0.19125 70.57124,70.571239 70.28374,185.034979 -0.1925,255.797459 z"
         id="path7"
         inkscape:connector-curvature="0"
         style="fill:#353945;fill-opacity:1;stroke:none;stroke-opacity:1" /><path
         style="fill:none;fill-opacity:1;stroke:none;stroke-opacity:1;stroke-width:32.67386776;stroke-miterlimit:4;stroke-dasharray:none"
         inkscape:connector-curvature="0"
         id="path5598"
         d="m 706.22268,373.21721 -94.19124,-93.99999 c -8.98875,-8.9875 -21.22875,-13.19625 -33.08625,-12.6225 L 533.6177,221.26848 c 77.16874,-102.03123 69.32874,-247.956214 -23.61999,-340.9987 -101.64748,-101.64873 -266.59996,-101.64873 -368.24869,0.19125 -101.841233,101.839984 -101.841233,266.60246 -0.19125,368.25119 93.04373,93.04374 238.96746,100.78874 340.99869,23.62 l 45.32624,45.3275 c -0.57375,11.85624 3.63375,24.09624 12.6225,33.08624 l 93.99999,93.99873 c 16.82999,16.83 44.27374,16.83 61.10374,0 l 10.42375,-10.42375 c 17.02,-16.82999 17.02,-44.08249 0.19,-61.10373 z M 453.67647,192.38973 c -70.57124,70.57124 -185.22498,70.76249 -255.79621,0.19125 -70.57124,-70.57124 -70.57124,-185.03372 0.19125,-255.797459 70.57123,-70.571241 185.22622,-70.762491 255.79746,-0.19125 70.57124,70.571239 70.28374,185.034979 -0.1925,255.797459 z" /></g></g><g
     id="g11"
     transform="matrix(0.02550458,0,0,0.02550458,1.9999963,8.6683735)" /><g
     id="g13"
     transform="matrix(0.02550458,0,0,0.02550458,1.9999963,8.6683735)" /><g
     id="g15"
     transform="matrix(0.02550458,0,0,0.02550458,1.9999963,8.6683735)" /><g
     id="g17"
     transform="matrix(0.02550458,0,0,0.02550458,1.9999963,8.6683735)" /><g
     id="g19"
     transform="matrix(0.02550458,0,0,0.02550458,1.9999963,8.6683735)" /><g
     id="g21"
     transform="matrix(0.02550458,0,0,0.02550458,1.9999963,8.6683735)" /><g
     id="g23"
     transform="matrix(0.02550458,0,0,0.02550458,1.9999963,8.6683735)" /><g
     id="g25"
     transform="matrix(0.02550458,0,0,0.02550458,1.9999963,8.6683735)" /><g
     id="g27"
     transform="matrix(0.02550458,0,0,0.02550458,1.9999963,8.6683735)" /><g
     id="g29"
     transform="matrix(0.02550458,0,0,0.02550458,1.9999963,8.6683735)" /><g
     id="g31"
     transform="matrix(0.02550458,0,0,0.02550458,1.9999963,8.6683735)" /><g
     id="g33"
     transform="matrix(0.02550458,0,0,0.02550458,1.9999963,8.6683735)" /><g
     id="g35"
     transform="matrix(0.02550458,0,0,0.02550458,1.9999963,8.6683735)" /><g
     id="g37"
     transform="matrix(0.02550458,0,0,0.02550458,1.9999963,8.6683735)" /><g
     id="g39"
     transform="matrix(0.02550458,0,0,0.02550458,1.9999963,8.6683735)" /></svg>