<?xml version="1.0" encoding="UTF-8" standalone="no"?>
<!-- Created with Inkscape (http://www.inkscape.org/) -->

<svg
   xmlns:dc="http://purl.org/dc/elements/1.1/"
   xmlns:cc="http://creativecommons.org/ns#"
   xmlns:rdf="http://www.w3.org/1999/02/22-rdf-syntax-ns#"
   xmlns:svg="http://www.w3.org/2000/svg"
   xmlns="http://www.w3.org/2000/svg"
   xmlns:xlink="http://www.w3.org/1999/xlink"
   xmlns:sodipodi="http://sodipodi.sourceforge.net/DTD/sodipodi-0.dtd"
   xmlns:inkscape="http://www.inkscape.org/namespaces/inkscape"
   version="1.0"
   width="16"
   height="16"
   id="svg3334"
   sodipodi:version="0.32"
   inkscape:version="0.48.3.1 r9886"
   sodipodi:docname="clean.svg"
   inkscape:output_extension="org.inkscape.output.svg.inkscape">
  <metadata
     id="metadata26">
    <rdf:RDF>
      <cc:Work
         rdf:about="">
        <dc:format>image/svg+xml</dc:format>
        <dc:type
           rdf:resource="http://purl.org/dc/dcmitype/StillImage" />
        <dc:title />
      </cc:Work>
    </rdf:RDF>
  </metadata>
  <sodipodi:namedview
     inkscape:window-height="779"
     inkscape:window-width="1438"
     inkscape:pageshadow="2"
     inkscape:pageopacity="0.0"
     guidetolerance="10.0"
     gridtolerance="10.0"
     objecttolerance="10.0"
     borderopacity="1.0"
     bordercolor="#666666"
     pagecolor="#ffffff"
     id="base"
     showgrid="true"
     inkscape:zoom="44.017397"
     inkscape:cx="7.6555756"
     inkscape:cy="3.1660955"
     inkscape:window-x="76"
     inkscape:window-y="24"
     inkscape:current-layer="svg3334"
     inkscape:window-maximized="0">
    <inkscape:grid
       type="xygrid"
       id="grid3018" />
  </sodipodi:namedview>
  <defs
     id="defs3336">
    <linearGradient
       id="linearGradient3104">
      <stop
         id="stop3106"
         style="stop-color:#aaaaaa;stop-opacity:1"
         offset="0" />
      <stop
         id="stop3108"
         style="stop-color:#c8c8c8;stop-opacity:1"
         offset="1" />
    </linearGradient>
    <linearGradient
       x1="-51.786404"
       y1="50.786446"
       x2="-51.786404"
       y2="2.9062471"
       id="linearGradient2519"
       xlink:href="#linearGradient3104"
       gradientUnits="userSpaceOnUse"
       gradientTransform="matrix(0.2537858,0,0,0.3050189,19.128982,-0.6854851)" />
    <linearGradient
       id="linearGradient3600">
      <stop
         id="stop3602"
         style="stop-color:#f4f4f4;stop-opacity:1"
         offset="0" />
      <stop
         id="stop3604"
         style="stop-color:#dbdbdb;stop-opacity:1"
         offset="1" />
    </linearGradient>
    <linearGradient
       x1="25.132275"
       y1="0.98520643"
       x2="25.132275"
       y2="47.013336"
       id="linearGradient2517"
       xlink:href="#linearGradient3600"
       gradientUnits="userSpaceOnUse"
       gradientTransform="matrix(0.3142872,0,0,0.3259268,0.4571068,-0.3222465)" />
    <linearGradient
       id="linearGradient3211">
      <stop
         id="stop3213"
         style="stop-color:#ffffff;stop-opacity:1"
         offset="0" />
      <stop
         id="stop3215"
         style="stop-color:#ffffff;stop-opacity:0"
         offset="1" />
    </linearGradient>
    <linearGradient
       x1="24"
       y1="1.9999999"
       x2="24"
       y2="46.01725"
       id="linearGradient2511"
       xlink:href="#linearGradient3211"
       gradientUnits="userSpaceOnUse"
       gradientTransform="matrix(0.2727267,0,0,0.302325,1.4545607,0.7441991)" />
    <linearGradient
       id="linearGradient8589">
      <stop
         id="stop8591"
         style="stop-color:#fefefe;stop-opacity:1"
         offset="0" />
      <stop
         id="stop8593"
         style="stop-color:#cbcbcb;stop-opacity:1"
         offset="1" />
    </linearGradient>
    <linearGradient
       x1="32.892288"
       y1="8.0590115"
       x2="36.358372"
       y2="5.4565363"
       id="linearGradient2507"
       xlink:href="#linearGradient8589"
       gradientUnits="userSpaceOnUse"
       gradientTransform="matrix(0.3091956,0,0,0.3766935,0.4761461,0.1071779)" />
    <linearGradient
       id="linearGradient3242-7">
      <stop
         offset="0"
         style="stop-color:#eef87e;stop-opacity:1"
         id="stop3244-5" />
      <stop
         offset="0.26238"
         style="stop-color:#cde34f;stop-opacity:1"
         id="stop3246-9" />
      <stop
         offset="0.66093999"
         style="stop-color:#93b723;stop-opacity:1"
         id="stop3248-7" />
      <stop
         offset="1"
         style="stop-color:#5a7e0d;stop-opacity:1"
         id="stop3250-8" />
    </linearGradient>
    <linearGradient
       id="linearGradient2490-3">
      <stop
         offset="0"
         style="stop-color:#365f0e;stop-opacity:1"
         id="stop2492-3" />
      <stop
         offset="1"
         style="stop-color:#84a718;stop-opacity:1"
         id="stop2494-8" />
    </linearGradient>
    <linearGradient
       inkscape:collect="always"
       xlink:href="#linearGradient3943"
       id="linearGradient5530"
       gradientUnits="userSpaceOnUse"
       gradientTransform="matrix(0.20131127,0,0,0.1999165,7.4133025,7.3088517)"
       x1="24.138529"
       y1="7.0478544"
       x2="24.138529"
       y2="39.268391" />
    <linearGradient
       id="linearGradient3943">
      <stop
         style="stop-color:#ffffff;stop-opacity:1;"
         offset="0"
         id="stop3945" />
      <stop
         style="stop-color:#ffffff;stop-opacity:0;"
         offset="1"
         id="stop3947" />
    </linearGradient>
    <radialGradient
       r="31.000002"
       fy="51.694645"
       fx="69.447609"
       cy="51.694645"
       cx="69.447609"
       gradientTransform="matrix(0,0.25030935,-0.27259303,0,25.244726,-8.076711)"
       gradientUnits="userSpaceOnUse"
       id="radialGradient3149"
       xlink:href="#linearGradient3242-7"
       inkscape:collect="always" />
    <linearGradient
       y2="51.244411"
       x2="72.421684"
       y1="124.75623"
       x1="72.421684"
       gradientTransform="matrix(0.10408428,0,0,0.10482496,2.8405826,2.7754018)"
       gradientUnits="userSpaceOnUse"
       id="linearGradient3151"
       xlink:href="#linearGradient2490-3"
       inkscape:collect="always" />
    <linearGradient
       inkscape:collect="always"
       xlink:href="#linearGradient2264"
       id="linearGradient2427"
       gradientUnits="userSpaceOnUse"
       gradientTransform="matrix(0.4210425,-0.1013922,0.1008047,0.4234963,44.055331,-5.0893565)"
       x1="-86.12886"
       y1="2.0690987"
       x2="-93.088425"
       y2="31.137911" />
    <linearGradient
       id="linearGradient2264">
      <stop
         id="stop2266"
         offset="0"
         style="stop-color:#d7e866;stop-opacity:1;" />
      <stop
         id="stop2268"
         offset="1"
         style="stop-color:#8cab2a;stop-opacity:1;" />
    </linearGradient>
    <linearGradient
       inkscape:collect="always"
       xlink:href="#linearGradient3400"
       id="linearGradient2431"
       gradientUnits="userSpaceOnUse"
       gradientTransform="matrix(0.4138818,0,0,0.416294,-1.7222411,-1.7775922)"
       x1="20.494444"
       y1="7.0440302"
       x2="20.494444"
       y2="39.780327" />
    <linearGradient
       inkscape:collect="always"
       id="linearGradient3400">
      <stop
         style="stop-color:#ffffff;stop-opacity:1;"
         offset="0"
         id="stop3402" />
      <stop
         style="stop-color:#ffffff;stop-opacity:0;"
         offset="1"
         id="stop3404" />
    </linearGradient>
    <linearGradient
       y2="31.137911"
       x2="-93.088425"
       y1="2.0690987"
       x1="-86.12886"
       gradientTransform="matrix(0.4210425,-0.1013922,0.1008047,0.4234963,43.555331,-5.0893562)"
       gradientUnits="userSpaceOnUse"
       id="linearGradient3126"
       xlink:href="#linearGradient2264"
       inkscape:collect="always" />
    <linearGradient
       inkscape:collect="always"
       xlink:href="#linearGradient2264"
       id="linearGradient3182"
       gradientUnits="userSpaceOnUse"
       gradientTransform="matrix(0.23867468,-0.05747579,0.05714276,0.24006566,31.838614,3.8318684)"
       x1="-86.12886"
       y1="2.0690987"
       x2="-93.088425"
       y2="31.137911" />
    <linearGradient
       inkscape:collect="always"
       xlink:href="#linearGradient3400"
       id="linearGradient3184"
       gradientUnits="userSpaceOnUse"
       gradientTransform="matrix(0.4138818,0,0,0.416294,-1.7222411,-1.7775922)"
       x1="20.494444"
       y1="7.0440302"
       x2="20.494444"
       y2="39.780327" />
  </defs>
  <g
     id="layer1">
    <path
       d="m 1.5,0.4999664 c 2.5206756,0 5.9205035,0 8.4411815,0 1.0588185,0.0254838 2.5068645,0.0200441 3.5588315,0.0240959 0,3.90624604 2.6e-5,11.06972274 2.6e-5,14.97597174 -3.6666935,0 -8.3333464,0 -12.000039,0 0,-5.000023 0,-10.0000465 0,-15.0000676 z"
       id="path4160"
       style="fill:url(#linearGradient2517);fill-opacity:1;stroke:url(#linearGradient2519);stroke-width:0.99992162;stroke-linecap:butt;stroke-linejoin:round;stroke-miterlimit:4;stroke-opacity:1;stroke-dasharray:none;stroke-dashoffset:0;display:inline"
       sodipodi:nodetypes="cccccc"
       inkscape:connector-curvature="0" />
    <path
       d="m 12.477282,1 c 0,3.3853981 0.02272,10.114602 0.02272,13.500001 -2.999999,0 -6.9999991,0 -10,0 0,-4.333337 0,-8.6666684 0,-13.000001 2.0623569,0 7.786503,0.022718 9.848861,0.022718"
       id="path2435"
       style="opacity:0.6;fill:none;stroke:url(#linearGradient2511);stroke-width:0.99999994;stroke-linecap:butt;stroke-linejoin:miter;stroke-miterlimit:4;stroke-opacity:1;stroke-dasharray:none;stroke-dashoffset:0;display:inline"
       sodipodi:nodetypes="ccccc"
       inkscape:connector-curvature="0" />
  </g>
  <path
     inkscape:connector-curvature="0"
     style="fill:url(#linearGradient3182);fill-opacity:1;fill-rule:nonzero;stroke:#699536;stroke-width:1;stroke-linecap:round;stroke-linejoin:round;stroke-miterlimit:4;stroke-opacity:1;stroke-dasharray:none;stroke-dashoffset:0;marker:none;visibility:visible;display:inline;overflow:visible"
     d="m 13.815859,7.0028125 c -0.131323,-0.013406 -0.261883,0.051287 -0.329357,0.175488 L 10.61168,12.46894 8.7633568,10.990727 C 8.598716,10.900237 8.393301,10.958447 8.3033364,11.12405 l -0.8288666,1.070359 c -0.089962,0.165598 -0.029442,0.372148 0.135198,0.462637 0,0 3.3748082,2.803543 3.3789722,2.805616 0.03859,0.02121 0.07894,0.03188 0.119958,0.03709 0.133995,0.01703 0.271121,-0.0463 0.339999,-0.173078 L 15.325675,8.1915906 C 15.415642,8.0259931 15.355115,7.819443 15.190477,7.7289553 L 13.94646,7.0423154 C 13.9053,7.0196924 13.85963,7.0072814 13.815859,7.0028124 z"
     id="path1542"
     sodipodi:nodetypes="cccccccssccccc" />
  <path
     transform="matrix(0.49763395,0,0,0.47517306,7.6254198,7.7879455)"
     sodipodi:type="inkscape:offset"
     inkscape:radius="0.27813643"
     inkscape:original="M 12.28125 1.4375 L 6.875 11.40625 L 3.09375 8.40625 C 2.6820225 8.9059211 2.404593 9.316202 1.9375 9.90625 C 1.9375 9.9062502 7.433729 14.461489 7.5 14.53125 C 7.7067149 14.194095 14.001667 2.5836147 14.09375 2.40625 C 13.95587 2.3101328 12.32883 1.4760941 12.28125 1.4375 z "
     style="opacity:0.4;fill:none;stroke:url(#linearGradient3184);stroke-width:1.76408541;stroke-linecap:round;stroke-linejoin:miter;stroke-miterlimit:4;stroke-opacity:1;stroke-dasharray:none;stroke-dashoffset:0;marker:none;visibility:visible;display:inline;overflow:visible"
     id="path2429"
     d="m 12.21875,1.15625 a 0.27816425,0.27816425 0 0 0 -0.0625,0.03125 0.27816425,0.27816425 0 0 0 -0.125,0.125 l -5.25,9.65625 -3.5,-2.78125 A 0.27816425,0.27816425 0 0 0 3.15625,8.125 0.27816425,0.27816425 0 0 0 2.96875,8.15625 0.27816425,0.27816425 0 0 0 2.875,8.21875 c -0.4202508,0.5100149 -0.6948354,0.9171252 -1.15625,1.5 A 0.27816425,0.27816425 0 0 0 1.65625,9.84375 0.27816425,0.27816425 0 0 0 1.75,10.125 c 0,0 1.3990215,1.133814 2.78125,2.28125 0.6911142,0.573718 1.3818783,1.157069 1.90625,1.59375 0.2621859,0.218341 0.4687852,0.400364 0.625,0.53125 0.078107,0.06544 0.1443518,0.119688 0.1875,0.15625 0.021574,0.01828 0.020138,0.02165 0.03125,0.03125 0.011112,0.0096 0.064328,0.03482 0.03125,0 A 0.27816425,0.27816425 0 0 0 7.375,14.78125 0.27816425,0.27816425 0 0 0 7.75,14.6875 c 0.047349,-0.07723 0.1514255,-0.274487 0.34375,-0.625 0.1923245,-0.350513 0.439604,-0.836796 0.75,-1.40625 0.6207919,-1.138909 1.444416,-2.641459 2.25,-4.125 0.805584,-1.4835414 1.612381,-2.9437366 2.21875,-4.0625 0.303185,-0.5593817 0.537357,-1.0398026 0.71875,-1.375 0.181393,-0.3351974 0.288321,-0.5159279 0.3125,-0.5625 A 0.27816425,0.27816425 0 0 0 14.375,2.46875 0.27816425,0.27816425 0 0 0 14.34375,2.28125 0.27816425,0.27816425 0 0 0 14.25,2.1875 C 14.159814,2.1246305 14.049114,2.0618337 13.875,1.96875 13.700886,1.8756663 13.496412,1.7690244 13.28125,1.65625 13.066088,1.5434756 12.848068,1.4284418 12.6875,1.34375 12.607216,1.3014041 12.547577,1.2757479 12.5,1.25 12.485727,1.2422756 12.479026,1.224428 12.46875,1.21875 a 0.27816425,0.27816425 0 0 0 -0.125,-0.0625 0.27816425,0.27816425 0 0 0 -0.125,0 z" />
</svg>
