<?xml version="1.0" encoding="UTF-8" standalone="no"?>
<!-- Created with Inkscape (http://www.inkscape.org/) -->

<svg
   xmlns:dc="http://purl.org/dc/elements/1.1/"
   xmlns:cc="http://creativecommons.org/ns#"
   xmlns:rdf="http://www.w3.org/1999/02/22-rdf-syntax-ns#"
   xmlns:svg="http://www.w3.org/2000/svg"
   xmlns="http://www.w3.org/2000/svg"
   xmlns:sodipodi="http://sodipodi.sourceforge.net/DTD/sodipodi-0.dtd"
   xmlns:inkscape="http://www.inkscape.org/namespaces/inkscape"
   id="svg2816"
   height="16"
   width="16"
   version="1.1"
   inkscape:version="0.48.2 r9819"
   sodipodi:docname="skype_dnd.svg">
  <metadata
     id="metadata3152">
    <rdf:RDF>
      <cc:Work
         rdf:about="">
        <dc:format>image/svg+xml</dc:format>
        <dc:type
           rdf:resource="http://purl.org/dc/dcmitype/StillImage" />
      </cc:Work>
    </rdf:RDF>
  </metadata>
  <sodipodi:namedview
     pagecolor="#ffffff"
     bordercolor="#666666"
     borderopacity="1"
     objecttolerance="10"
     gridtolerance="10"
     guidetolerance="10"
     inkscape:pageopacity="0"
     inkscape:pageshadow="2"
     inkscape:window-width="914"
     inkscape:window-height="639"
     id="namedview3150"
     showgrid="false"
     inkscape:zoom="9.8333333"
     inkscape:cx="12"
     inkscape:cy="12"
     inkscape:window-x="0"
     inkscape:window-y="24"
     inkscape:window-maximized="0"
     inkscape:current-layer="svg2816" />
  <defs
     id="defs2818">
    <radialGradient
       id="radialGradient3671"
       gradientUnits="userSpaceOnUse"
       cy="8"
       cx="8"
       gradientTransform="matrix(1.4154947,-0.00295512,0.00277011,1.3269053,-7.1357473,-7.2229046)"
       r="9.5">
      <stop
         id="stop3856"
         style="stop-color:#f8b17e"
         offset="0" />
      <stop
         id="stop3858"
         style="stop-color:#e35d4f"
         offset=".51330" />
      <stop
         id="stop3860"
         style="stop-color:#c6262e"
         offset=".80178" />
      <stop
         id="stop3862"
         style="stop-color:#690b54"
         offset="1" />
    </radialGradient>
    <linearGradient
       id="linearGradient3687"
       y2="22.993"
       gradientUnits="userSpaceOnUse"
       x2="11.285"
       gradientTransform="matrix(0.84210526,0,0,0.84210526,-1.7105263,-2.4999994)"
       y1="5.8685999"
       x1="9.0510998">
      <stop
         id="stop3683"
         style="stop-color:#fff"
         offset="0" />
      <stop
         id="stop3685"
         style="stop-color:#fff;stop-opacity:0"
         offset="1" />
    </linearGradient>
    <linearGradient
       id="linearGradient3852"
       y2="2"
       gradientUnits="userSpaceOnUse"
       x2="11"
       gradientTransform="matrix(0.84210526,0,0,0.84210526,-1.7105263,-2.4999994)"
       y1="22"
       x1="13">
      <stop
         id="stop2492"
         style="stop-color:#791235"
         offset="0" />
      <stop
         id="stop2494"
         style="stop-color:#dd3b27"
         offset="1" />
    </linearGradient>
  </defs>
  <path
     id="path2819"
     style="fill:url(#radialGradient3671);stroke:url(#linearGradient3852);stroke-width:0.84210527"
     d="M 4.463158,11.368421 C 2.9193264,11.336421 0.42105263,10.526316 0.42105263,7.4947374 V 4.4631585 c 0,-3.0315789 2.52631587,-3.95789471 4.04210537,-4.04210531 h 7.073684 c 1.51579,0.1157895 4.042105,1.01052641 4.042105,4.04210531 v 3.0315789 c 0,3.0315786 -1.529852,3.8736836 -3.031579,3.8736836 -2.421389,-0.01431 -0.521591,2.921432 0,4.210526 H 11.873684 L 7.4947369,11.368421 H 4.463158 z"
     inkscape:connector-curvature="0" />
  <path
     id="path3669"
     style="opacity:0.41999996;fill:none;stroke:url(#linearGradient3687);stroke-width:0.84210527"
     d="M 4.5263159,1.2894322 C 3.9200001,1.3232006 3.0357896,1.5408848 2.394779,2.0262743 1.7536843,2.511748 1.2894317,3.2005901 1.2894317,4.4736848 v 3.0263579 c 0,1.2757895 0.4545852,1.8973474 1.0789052,2.3420632 C 2.985659,10.281828 3.8451369,10.483284 4.4736001,10.5 h 0.026316 3 a 0.87006316,0.87006316 0 0 1 0.605473,0.237474 l 2.5000429,2.394779 c -0.133474,-0.52336 -0.233904,-1.115537 0.07895,-1.710484 0.327402,-0.622645 1.088,-0.925642 1.868463,-0.921095 0.58928,0 1.074863,-0.141128 1.447411,-0.5263156 C 14.3728,9.5891711 14.710779,8.8706111 14.710779,7.5006743 V 4.4743164 c 0,-1.2730947 -0.463739,-1.9383579 -1.105263,-2.4210526 C 12.963992,1.5705859 12.070611,1.3376933 11.447621,1.2901059 H 4.5265264 z"
     inkscape:connector-curvature="0" />
</svg>
