<?xml version="1.0" encoding="UTF-8" standalone="no"?>
<!-- Created with Inkscape (http://www.inkscape.org/) -->

<svg
   xmlns:dc="http://purl.org/dc/elements/1.1/"
   xmlns:cc="http://creativecommons.org/ns#"
   xmlns:rdf="http://www.w3.org/1999/02/22-rdf-syntax-ns#"
   xmlns:svg="http://www.w3.org/2000/svg"
   xmlns="http://www.w3.org/2000/svg"
   xmlns:sodipodi="http://sodipodi.sourceforge.net/DTD/sodipodi-0.dtd"
   xmlns:inkscape="http://www.inkscape.org/namespaces/inkscape"
   id="svg7384"
   height="16"
   width="16"
   version="1.1"
   inkscape:version="0.48.4 r9939"
   sodipodi:docname="gtk-sort-ascending.svg">
  <defs
     id="defs11" />
  <sodipodi:namedview
     pagecolor="#ffffff"
     bordercolor="#666666"
     borderopacity="1"
     objecttolerance="10"
     gridtolerance="10"
     guidetolerance="10"
     inkscape:pageopacity="0"
     inkscape:pageshadow="2"
     inkscape:window-width="905"
     inkscape:window-height="480"
     id="namedview9"
     showgrid="false"
     inkscape:zoom="14.75"
     inkscape:cx="-3.1186441"
     inkscape:cy="8"
     inkscape:window-x="75"
     inkscape:window-y="34"
     inkscape:window-maximized="0"
     inkscape:current-layer="svg7384" />
  <metadata
     id="metadata90">
    <rdf:RDF>
      <cc:Work
         rdf:about="">
        <dc:format>image/svg+xml</dc:format>
        <dc:type
           rdf:resource="http://purl.org/dc/dcmitype/StillImage" />
        <dc:title>Gnome Symbolic Icon Theme</dc:title>
      </cc:Work>
    </rdf:RDF>
  </metadata>
  <title
     id="title9167">Gnome Symbolic Icon Theme</title>
  <g
     id="layer12"
     transform="matrix(0,1,-1,0,878.995,-201.005)"
     style="fill:#4d4d4d;fill-opacity:1">
    <path
       id="path4955-1-2"
       style="fill:#4d4d4d;fill-opacity:1"
       d="m 29,209 a 1,1 0 1 1 -2,0 1,1 0 1 1 2,0 z"
       transform="matrix(2,0,0,2,148,456.99)"
       inkscape:connector-curvature="0" />
    <path
       id="path4957-2-4"
       style="fill:#4d4d4d;fill-opacity:1"
       d="m 29,209 a 1,1 0 1 1 -2,0 1,1 0 1 1 2,0 z"
       transform="matrix(2,0,0,2,153,457)"
       inkscape:connector-curvature="0" />
    <path
       id="path4959-4-6"
       style="fill:#4d4d4d;fill-opacity:1"
       d="m 29,209 a 1,1 0 1 1 -2,0 1,1 0 1 1 2,0 z"
       transform="matrix(2,0,0,2,158,457)"
       inkscape:connector-curvature="0" />
  </g>
  <g
     id="g4555"
     transform="matrix(1.0001563,0,0,0.99985558,-157.02444,-534.92215)"
     style="fill:#4d4d4d;fill-opacity:1">
    <path
       inkscape:connector-curvature="0"
       id="path3613"
       style="text-indent:0;text-transform:none;block-progression:tb;color:#000000;fill:#4d4d4d;fill-opacity:1"
       d="m 167,539 v 5.5625 l -1.2812,-1.2812 c -0.19,-0.19 -0.45,-0.28 -0.72,-0.28 h -1 v 1 c 1e-5,0.2653 0.0931,0.53058 0.28125,0.71875 l 3,3 0.28125,0.28125 h 0.875 l 0.28125,-0.28125 3,-3 c 0.19,-0.19 0.28,-0.45 0.28,-0.72 v -1 h -1 c -0.2653,10e-6 -0.53059,0.0931 -0.71875,0.28125 l -1.28,1.28 v -5.56 z" />
  </g>
</svg>
