<?xml version="1.0" encoding="UTF-8" standalone="no"?>
<!-- Created with Inkscape (http://www.inkscape.org/) -->

<svg
   xmlns:dc="http://purl.org/dc/elements/1.1/"
   xmlns:cc="http://creativecommons.org/ns#"
   xmlns:rdf="http://www.w3.org/1999/02/22-rdf-syntax-ns#"
   xmlns:svg="http://www.w3.org/2000/svg"
   xmlns="http://www.w3.org/2000/svg"
   xmlns:xlink="http://www.w3.org/1999/xlink"
   xmlns:sodipodi="http://sodipodi.sourceforge.net/DTD/sodipodi-0.dtd"
   xmlns:inkscape="http://www.inkscape.org/namespaces/inkscape"
   version="1.1"
   width="16"
   height="16"
   id="svg4060"
   inkscape:version="0.48.4 r9939"
   sodipodi:docname="tilda.svg">
  <sodipodi:namedview
     pagecolor="#ffffff"
     bordercolor="#666666"
     borderopacity="1"
     objecttolerance="10"
     gridtolerance="10"
     guidetolerance="10"
     inkscape:pageopacity="0"
     inkscape:pageshadow="2"
     inkscape:window-width="1855"
     inkscape:window-height="1056"
     id="namedview28"
     showgrid="false"
     inkscape:zoom="57.75"
     inkscape:cx="5.1601732"
     inkscape:cy="8"
     inkscape:window-x="65"
     inkscape:window-y="24"
     inkscape:window-maximized="1"
     inkscape:current-layer="layer1" />
  <defs
     id="defs4062">
    <linearGradient
       x1="20"
       y1="26.000008"
       x2="20"
       y2="13.000008"
       id="linearGradient3965"
       xlink:href="#linearGradient3680-6-6-6-3-7-4"
       gradientUnits="userSpaceOnUse"
       gradientTransform="matrix(0.34453791,0,0,0.34453791,-0.032751,-0.124165)" />
    <linearGradient
       id="linearGradient3680-6-6-6-3-7-4">
      <stop
         id="stop3682-4-6-1-3-7-5"
         style="stop-color:#dcdcdc;stop-opacity:1"
         offset="0" />
      <stop
         id="stop3684-8-5-8-0-2-3"
         style="stop-color:#ffffff;stop-opacity:1"
         offset="1" />
    </linearGradient>
    <linearGradient
       x1="23.99999"
       y1="4.999989"
       x2="23.99999"
       y2="43"
       id="linearGradient3896"
       xlink:href="#linearGradient3924-4-8"
       gradientUnits="userSpaceOnUse"
       gradientTransform="matrix(0.2972973,0,0,0.2972973,0.86486973,0.8648672)" />
    <linearGradient
       id="linearGradient3924-4-8">
      <stop
         id="stop3926-0-4"
         style="stop-color:#ffffff;stop-opacity:1"
         offset="0" />
      <stop
         id="stop3928-6-8"
         style="stop-color:#ffffff;stop-opacity:0.23529412"
         offset="0.06316455" />
      <stop
         id="stop3930-2-1"
         style="stop-color:#ffffff;stop-opacity:0.15686275"
         offset="0.95056331" />
      <stop
         id="stop3932-9-0"
         style="stop-color:#ffffff;stop-opacity:0.39215687"
         offset="1" />
    </linearGradient>
    <linearGradient
       id="linearGradient2867-449-88-871-390-598-476-591-434-148-57-177-8-3-3-6-4-8-8-8-5-7">
      <stop
         id="stop3750-1-0-7-6-6-1-3-9-3-0"
         style="stop-color:#505050;stop-opacity:1"
         offset="0" />
      <stop
         id="stop3752-3-7-4-0-32-8-923-0-7-8"
         style="stop-color:#2b2b2b;stop-opacity:1"
         offset="0.26238" />
      <stop
         id="stop3754-1-8-5-2-7-6-7-1-9-4"
         style="stop-color:#0a0a0a;stop-opacity:1"
         offset="0.704952" />
      <stop
         id="stop3756-1-6-2-6-6-1-96-6-0-0"
         style="stop-color:#000000;stop-opacity:1"
         offset="1" />
    </linearGradient>
    <radialGradient
       cx="7.1183534"
       cy="9.9571075"
       r="12.671875"
       fx="7.1183534"
       fy="9.9571075"
       id="radialGradient4058"
       xlink:href="#linearGradient2867-449-88-871-390-598-476-591-434-148-57-177-8-3-3-6-4-8-8-8-5-7"
       gradientUnits="userSpaceOnUse"
       gradientTransform="matrix(0,3.0467483,-3.7404337,0,45.520924,-26.295845)" />
  </defs>
  <metadata
     id="metadata4065">
    <rdf:RDF>
      <cc:Work
         rdf:about="">
        <dc:format>image/svg+xml</dc:format>
        <dc:type
           rdf:resource="http://purl.org/dc/dcmitype/StillImage" />
        <dc:title></dc:title>
      </cc:Work>
    </rdf:RDF>
  </metadata>
  <g
     id="layer1">
    <rect
       width="13"
       height="13"
       rx="1"
       ry="1"
       x="1.5000014"
       y="1.4999985"
       id="rect5505-21-7"
       style="opacity:0.9;color:#000000;fill:url(#radialGradient4058);fill-opacity:1;fill-rule:nonzero;stroke:none;stroke-width:0.99999994;marker:none;visibility:visible;display:inline;overflow:visible;enable-background:accumulate" />
    <rect
       width="11"
       height="11"
       x="2.5"
       y="2.4999969"
       id="rect6741-0-3"
       style="opacity:0.3;fill:none;stroke:url(#linearGradient3896);stroke-width:1;stroke-linecap:round;stroke-linejoin:round;stroke-miterlimit:4;stroke-opacity:1;stroke-dasharray:none;stroke-dashoffset:0" />
    <rect
       width="13.000003"
       height="13.000003"
       rx="1"
       ry="1"
       x="1.5"
       y="1.499997"
       id="rect5505-21-2-8"
       style="opacity:0.7;color:#000000;fill:none;stroke:#000000;stroke-width:1;stroke-linecap:round;stroke-linejoin:round;stroke-miterlimit:4;stroke-opacity:1;stroke-dasharray:none;stroke-dashoffset:0;marker:none;visibility:visible;display:inline;overflow:visible;enable-background:accumulate" />
    <path
       clip-rule="evenodd"
       d="M 7.0635686,4.1233838 8.7588105,3.9999954 c 0,1.0192918 0,2.0332181 0,3.0471433 C 9.434761,6.0278469 10.185818,5.0139217 11.033364,4.0321835 l 1.818631,0.4613631 c -0.815359,0.9066332 -1.646961,1.9151963 -2.312107,2.923755 0.638398,1.0729383 1.341172,2.0547518 2.279993,3.1705354 l -1.754178,0.52037 C 10.083964,10.00845 9.4938477,8.951603 8.7588105,7.8142882 l 0,3.0203228 -1.6952419,0.214661 0,-6.9258882 0,0 z"
       id="path1084"
       style="fill:#000000;fill-opacity:1;fill-rule:evenodd;opacity:0.3"
       inkscape:connector-curvature="0" />
    <path
       clip-rule="evenodd"
       d="m 8.7749797,12.503102 c 0.992467,-0.209298 0.7403271,-0.509645 1.5503213,-0.03754 l 0.525813,0.370093 c 0.09665,0.04829 0.187763,0.134187 0.278965,0.04292 0.198492,-0.187766 0.391621,-0.380822 0.590114,-0.568584 0.08583,-0.09128 0,-0.193279 -0.04292,-0.262946 l -0.0053,0 -0.380819,-0.541759 -0.252217,0.09128 c -0.0643,0.04292 -0.150209,0.02137 -0.225241,-0.08047 l -0.558008,-0.729679 c -0.5150113,0.713503 -1.3465384,1.174865 -2.290723,1.174865 -1.5556861,0 -2.8217534,-1.265916 -2.8217534,-2.8217488 0,-1.10513 0.6383983,-2.0654063 1.566415,-2.5267716 l 0,-0.6491256 c -0.03219,0.01608 -0.064303,0.026839 -0.091274,0.03754 C 6.2536281,6.151379 6.232095,6.2211208 5.6366147,5.8777796 L 5.1109056,5.502257 C 5.0142657,5.4593379 4.9230661,5.3681401 4.8319415,5.4593379 4.6334479,5.6524623 4.4403186,5.8455925 4.2418248,6.0387216 c -0.085834,0.085838 0.0054,0.193129 0.04292,0.2628721 l 0.4022039,0.5686572 0.2951312,0.4184464 c 0.04292,0.059011 0.058935,0.064379 0.037552,0.1072867 -0.026743,0.042919 -0.048282,0.08047 -0.075105,0.1233866 C 4.5529048,8.1953188 4.8265037,8.2489654 3.989612,8.4689194 L 3.3512146,8.5762172 c -0.096489,0.032207 -0.2252422,0.032207 -0.2306813,0.1663052 0,0.2735995 -0.00536,0.5471966 -0.00536,0.8207961 -0.00536,0.1233884 0.1341922,0.1341912 0.2146622,0.1555754 l 0.6813903,0.1233873 0.5096455,0.091276 c 0.069742,0.010778 0.085687,0 0.1018545,0.053562 0.2092972,0.9066308 0.4828222,0.6921198 0.026745,1.4807278 l -0.3700904,0.531034 c -0.04828,0.09128 -0.1341921,0.182474 -0.04292,0.273599 0.1931294,0.198496 0.380819,0.391771 0.5739469,0.590268 0.085836,0.08569 0.1931293,-0.0053 0.2629447,-0.04292 l 0.5685866,-0.40235 0.4238101,-0.289768 c 0.059084,-0.04829 0.064459,-0.0643 0.1073689,-0.03754 0.8475462,0.531179 0.8797341,0.150212 1.1265103,1.046187 l 0.1180226,0.638252 c 0.03219,0.09664 0.037558,0.220029 0.1663058,0.225391 0.2735995,0 0.552563,0 0.8261619,0 0.1233884,0 0.1341926,-0.139553 0.1502119,-0.220026 l 0.1180278,-0.686607 0.080469,-0.50443 c 0.00532,-0.04829 0.00532,-0.06989 0.016163,-0.08583 z m 1.024656,-0.429174 c -0.0053,0.0052 -0.0108,0.0052 -0.01617,0.0052 0.0053,0 0.0053,-0.0052 0.0108,-0.0052 l 0.0053,0 z M 8.8284766,12.48157 c -0.016021,0.0053 -0.037552,0.01078 -0.053567,0.02154 0.010656,-0.01078 0.026829,-0.01617 0.053567,-0.02154 z"
       id="path1086"
       style="fill:#000000;fill-opacity:1;fill-rule:evenodd;opacity:0.3"
       inkscape:connector-curvature="0" />
    <path
       clip-rule="evenodd"
       d="m 7.9863694,11.757412 c 0.890465,0 1.6737095,-0.450709 2.1458026,-1.137464 l -0.03219,-0.05357 C 9.5474173,11.177877 8.9305527,11.574865 7.9810024,11.596397 6.8007698,11.617767 5.6044455,10.561014 5.5990064,9.1768518 5.5883477,8.2863139 6.0013576,7.6854671 6.704131,7.2562934 l 0,-0.3755306 C 5.9155221,7.3260341 5.3791277,8.1790184 5.3791277,9.1501021 c 0,1.4322959 1.1694283,2.6073129 2.6072404,2.6073129 z"
       id="path1088"
       style="fill:#000000;fill-opacity:1;fill-rule:evenodd;opacity:0.3"
       inkscape:connector-curvature="0" />
    <path
       inkscape:connector-curvature="0"
       style="opacity:1;fill:#ffffff;fill-opacity:1;fill-rule:evenodd"
       id="path3790"
       d="M 7.0635686,3.1233838 8.7588105,2.9999954 c 0,1.0192918 0,2.0332181 0,3.0471433 C 9.434761,5.0278469 10.185818,4.0139217 11.033364,3.0321835 l 1.818631,0.4613631 c -0.815359,0.9066332 -1.646961,1.9151963 -2.312107,2.923755 0.638398,1.0729383 1.341172,2.0547518 2.279993,3.1705354 l -1.754178,0.52037 C 10.083964,9.00845 9.4938477,7.951603 8.7588105,6.8142882 l 0,3.0203228 -1.6952419,0.214661 0,-6.9258882 0,0 z"
       clip-rule="evenodd" />
    <path
       inkscape:connector-curvature="0"
       style="opacity:1;fill:#ffffff;fill-opacity:1;fill-rule:evenodd"
       id="path3792"
       d="m 8.7749797,11.503102 c 0.992467,-0.209298 0.7403271,-0.509645 1.5503213,-0.03754 l 0.525813,0.370093 c 0.09665,0.04829 0.187763,0.134187 0.278965,0.04292 0.198492,-0.187766 0.391621,-0.380822 0.590114,-0.568584 0.08583,-0.09128 0,-0.193279 -0.04292,-0.262946 l -0.0053,0 -0.380819,-0.541759 -0.252217,0.09128 c -0.0643,0.04292 -0.150209,0.02137 -0.225241,-0.08047 L 10.255688,9.786417 c -0.5150113,0.713503 -1.3465384,1.174865 -2.290723,1.174865 -1.5556861,0 -2.8217534,-1.265916 -2.8217534,-2.8217488 0,-1.10513 0.6383983,-2.0654063 1.566415,-2.5267716 l 0,-0.6491256 c -0.03219,0.01608 -0.064303,0.026839 -0.091274,0.03754 C 6.2536281,5.151379 6.232095,5.2211208 5.6366147,4.8777796 L 5.1109056,4.502257 C 5.0142657,4.4593379 4.9230661,4.3681401 4.8319415,4.4593379 4.6334479,4.6524623 4.4403186,4.8455925 4.2418248,5.0387216 c -0.085834,0.085838 0.0054,0.193129 0.04292,0.2628721 l 0.4022039,0.5686572 0.2951312,0.4184464 c 0.04292,0.059011 0.058935,0.064379 0.037552,0.1072867 -0.026743,0.042919 -0.048282,0.08047 -0.075105,0.1233866 C 4.5529048,7.1953188 4.8265037,7.2489654 3.989612,7.4689194 L 3.3512146,7.5762172 c -0.096489,0.032207 -0.2252422,0.032207 -0.2306813,0.1663052 0,0.2735995 -0.00536,0.5471966 -0.00536,0.8207961 -0.00536,0.1233884 0.1341922,0.1341912 0.2146622,0.1555754 l 0.6813903,0.1233873 0.5096455,0.091276 c 0.069742,0.010778 0.085687,0 0.1018545,0.053562 C 4.832023,9.89375 5.105548,9.679239 4.6494708,10.467847 l -0.3700904,0.531034 c -0.04828,0.09128 -0.1341921,0.182474 -0.04292,0.273599 0.1931294,0.198496 0.380819,0.391771 0.5739469,0.590268 0.085836,0.08569 0.1931293,-0.0053 0.2629447,-0.04292 l 0.5685866,-0.40235 0.4238101,-0.289768 c 0.059084,-0.04829 0.064459,-0.0643 0.1073689,-0.03754 0.8475462,0.531179 0.8797341,0.150212 1.1265103,1.046187 l 0.1180226,0.638252 c 0.03219,0.09664 0.037558,0.220029 0.1663058,0.225391 0.2735995,0 0.552563,0 0.8261619,0 0.1233884,0 0.1341926,-0.139553 0.1502119,-0.220026 l 0.1180278,-0.686607 0.080469,-0.50443 c 0.00532,-0.04829 0.00532,-0.06989 0.016163,-0.08583 z m 1.024656,-0.429174 c -0.0053,0.0052 -0.0108,0.0052 -0.01617,0.0052 0.0053,0 0.0053,-0.0052 0.0108,-0.0052 l 0.0053,0 z M 8.8284766,11.48157 c -0.016021,0.0053 -0.037552,0.01078 -0.053567,0.02154 0.010656,-0.01078 0.026829,-0.01617 0.053567,-0.02154 z"
       clip-rule="evenodd" />
    <path
       inkscape:connector-curvature="0"
       style="opacity:1;fill:#ffffff;fill-opacity:1;fill-rule:evenodd"
       id="path3794"
       d="m 7.9863694,10.757412 c 0.890465,0 1.6737095,-0.450709 2.1458026,-1.137464 l -0.03219,-0.05357 C 9.5474173,10.177877 8.9305527,10.574865 7.9810024,10.596397 6.8007698,10.617767 5.6044455,9.561014 5.5990064,8.1768518 5.5883477,7.2863139 6.0013576,6.6854671 6.704131,6.2562934 l 0,-0.3755306 C 5.9155221,6.3260341 5.3791277,7.1790184 5.3791277,8.1501021 c 0,1.4322959 1.1694283,2.6073129 2.6072404,2.6073129 z"
       clip-rule="evenodd" />
  </g>
</svg>
