<?xml version="1.0" encoding="UTF-8" standalone="no"?>
<!-- Created with Inkscape (http://www.inkscape.org/) -->

<svg
   xmlns:dc="http://purl.org/dc/elements/1.1/"
   xmlns:cc="http://creativecommons.org/ns#"
   xmlns:rdf="http://www.w3.org/1999/02/22-rdf-syntax-ns#"
   xmlns:svg="http://www.w3.org/2000/svg"
   xmlns="http://www.w3.org/2000/svg"
   xmlns:xlink="http://www.w3.org/1999/xlink"
   xmlns:sodipodi="http://sodipodi.sourceforge.net/DTD/sodipodi-0.dtd"
   xmlns:inkscape="http://www.inkscape.org/namespaces/inkscape"
   width="16px"
   height="16px"
   id="svg3963"
   version="1.1"
   inkscape:version="0.48.3.1 r9886"
   sodipodi:docname="stock_print-setup.svg">
  <defs
     id="defs3965">
    <linearGradient
       inkscape:collect="always"
       xlink:href="#linearGradient3985-6-635-120-628-965"
       id="linearGradient3138"
       gradientUnits="userSpaceOnUse"
       gradientTransform="matrix(0.57418708,0,0,0.57270135,-100.42477,-7.1792409)"
       x1="182"
       y1="33"
       x2="182"
       y2="24.519934" />
    <linearGradient
       id="linearGradient3985-6-635-120-628-965"
       inkscape:collect="always">
      <stop
         id="stop7116"
         offset="0"
         style="stop-color:#ffffff;stop-opacity:1;" />
      <stop
         id="stop7118"
         offset="1"
         style="stop-color:#ffffff;stop-opacity:0;" />
    </linearGradient>
    <linearGradient
       inkscape:collect="always"
       xlink:href="#linearGradient3985-746-156-539-972"
       id="linearGradient3168"
       gradientUnits="userSpaceOnUse"
       gradientTransform="matrix(0.44035822,0,0,0.44035823,-76.20947,-3.1464798)"
       x1="188"
       y1="17"
       x2="188"
       y2="36.026299" />
    <linearGradient
       id="linearGradient3985-746-156-539-972"
       inkscape:collect="always">
      <stop
         id="stop7110"
         offset="0"
         style="stop-color:#ffffff;stop-opacity:1;" />
      <stop
         id="stop7112"
         offset="1"
         style="stop-color:#ffffff;stop-opacity:0;" />
    </linearGradient>
    <linearGradient
       x1="25.132275"
       y1="0.98520643"
       x2="25.132275"
       y2="47.013336"
       id="linearGradient3143"
       xlink:href="#linearGradient3600"
       gradientUnits="userSpaceOnUse"
       gradientTransform="matrix(0.31428714,0,0,0.3259265,0.457108,-0.32223804)" />
    <linearGradient
       id="linearGradient3600">
      <stop
         id="stop3602"
         style="stop-color:#f4f4f4;stop-opacity:1"
         offset="0" />
      <stop
         id="stop3604"
         style="stop-color:#dbdbdb;stop-opacity:1"
         offset="1" />
    </linearGradient>
    <linearGradient
       x1="-51.786404"
       y1="50.786446"
       x2="-51.786404"
       y2="2.9062471"
       id="linearGradient3145"
       xlink:href="#linearGradient3104"
       gradientUnits="userSpaceOnUse"
       gradientTransform="matrix(0.25378586,0,0,0.30501865,19.128979,-0.68547704)" />
    <linearGradient
       id="linearGradient3104">
      <stop
         id="stop3106"
         style="stop-color:#a0a0a0;stop-opacity:1"
         offset="0" />
      <stop
         id="stop3108"
         style="stop-color:#bebebe;stop-opacity:1"
         offset="1" />
    </linearGradient>
    <linearGradient
       x1="23.99999"
       y1="5.5641499"
       x2="23.99999"
       y2="43"
       id="linearGradient3988"
       xlink:href="#linearGradient3977"
       gradientUnits="userSpaceOnUse"
       gradientTransform="matrix(0.24324324,0,0,0.35135133,2.1621636,-0.43242804)" />
    <linearGradient
       id="linearGradient3977">
      <stop
         id="stop3979"
         style="stop-color:#ffffff;stop-opacity:1"
         offset="0" />
      <stop
         id="stop3981"
         style="stop-color:#ffffff;stop-opacity:0.23529412"
         offset="0.03626217" />
      <stop
         id="stop3983"
         style="stop-color:#ffffff;stop-opacity:0.15686275"
         offset="0.95056331" />
      <stop
         id="stop3985"
         style="stop-color:#ffffff;stop-opacity:0.39215687"
         offset="1" />
    </linearGradient>
    <linearGradient
       id="linearGradient3104-5">
      <stop
         id="stop3106-2"
         style="stop-color:#aaaaaa;stop-opacity:1"
         offset="0" />
      <stop
         id="stop3108-5"
         style="stop-color:#c8c8c8;stop-opacity:1"
         offset="1" />
    </linearGradient>
    <linearGradient
       y2="3.3638515"
       x2="22.004084"
       y1="47.813133"
       x1="22.004084"
       gradientTransform="matrix(0.32160807,0,0,0.3333374,-0.1751469,-0.34907707)"
       gradientUnits="userSpaceOnUse"
       id="linearGradient3961"
       xlink:href="#linearGradient3104-5"
       inkscape:collect="always" />
    <linearGradient
       inkscape:collect="always"
       xlink:href="#linearGradient4111"
       id="linearGradient4109"
       gradientUnits="userSpaceOnUse"
       gradientTransform="matrix(0.20131127,0,0,0.1999165,7.4133027,7.3088515)"
       x1="24.138529"
       y1="7.0478544"
       x2="24.138529"
       y2="39.268391" />
    <linearGradient
       id="linearGradient4111">
      <stop
         id="stop4113"
         style="stop-color:#ffffff;stop-opacity:1;"
         offset="0" />
      <stop
         offset="0.34280834"
         style="stop-color:#ffffff;stop-opacity:0.23529412;"
         id="stop4115" />
      <stop
         id="stop4117"
         style="stop-color:#ffffff;stop-opacity:0.15686275;"
         offset="0.68008143" />
      <stop
         id="stop4119"
         style="stop-color:#ffffff;stop-opacity:0.39215687;"
         offset="1" />
    </linearGradient>
    <radialGradient
       r="31.000002"
       fy="48.605404"
       fx="64.575233"
       cy="48.605404"
       cx="64.575233"
       gradientTransform="matrix(0,0.38528829,-0.41958841,0,32.3217,-16.9286)"
       gradientUnits="userSpaceOnUse"
       id="radialGradient3079"
       xlink:href="#linearGradient3242-7"
       inkscape:collect="always" />
    <linearGradient
       id="linearGradient3242-7">
      <stop
         offset="0"
         style="stop-color:#eef87e;stop-opacity:1"
         id="stop3244-5" />
      <stop
         offset="0.26238"
         style="stop-color:#cde34f;stop-opacity:1"
         id="stop3246-9" />
      <stop
         offset="0.66093999"
         style="stop-color:#93b723;stop-opacity:1"
         id="stop3248-7" />
      <stop
         offset="1"
         style="stop-color:#5a7e0d;stop-opacity:1"
         id="stop3250-8" />
    </linearGradient>
    <linearGradient
       y2="51.244411"
       x2="72.421684"
       y1="124.75623"
       x1="72.421684"
       gradientTransform="matrix(0.10408428,0,0,0.10482496,2.7727861,2.6398087)"
       gradientUnits="userSpaceOnUse"
       id="linearGradient3081"
       xlink:href="#linearGradient4121"
       inkscape:collect="always" />
    <linearGradient
       id="linearGradient4121">
      <stop
         id="stop4123"
         style="stop-color:#3f7010;stop-opacity:1;"
         offset="0" />
      <stop
         id="stop4125"
         style="stop-color:#84a718;stop-opacity:1"
         offset="1" />
    </linearGradient>
    <radialGradient
       r="31.000002"
       fy="48.605404"
       fx="64.575233"
       cy="48.605404"
       cx="64.575233"
       gradientTransform="matrix(0,0.38528829,-0.41958841,0,32.389497,-16.793007)"
       gradientUnits="userSpaceOnUse"
       id="radialGradient3051"
       xlink:href="#linearGradient3242-7"
       inkscape:collect="always" />
    <linearGradient
       y2="51.244411"
       x2="72.421684"
       y1="124.75623"
       x1="72.421684"
       gradientTransform="matrix(0.10408428,0,0,0.10482496,2.8405829,2.7754016)"
       gradientUnits="userSpaceOnUse"
       id="linearGradient3053"
       xlink:href="#linearGradient4121"
       inkscape:collect="always" />
  </defs>
  <sodipodi:namedview
     id="base"
     pagecolor="#ffffff"
     bordercolor="#666666"
     borderopacity="1.0"
     inkscape:pageopacity="0.0"
     inkscape:pageshadow="2"
     inkscape:zoom="22.197802"
     inkscape:cx="8"
     inkscape:cy="8"
     inkscape:current-layer="layer1"
     showgrid="true"
     inkscape:grid-bbox="true"
     inkscape:document-units="px"
     inkscape:window-width="758"
     inkscape:window-height="734"
     inkscape:window-x="992"
     inkscape:window-y="195"
     inkscape:window-maximized="0" />
  <metadata
     id="metadata3968">
    <rdf:RDF>
      <cc:Work
         rdf:about="">
        <dc:format>image/svg+xml</dc:format>
        <dc:type
           rdf:resource="http://purl.org/dc/dcmitype/StillImage" />
        <dc:title></dc:title>
      </cc:Work>
    </rdf:RDF>
  </metadata>
  <g
     id="layer1"
     inkscape:label="Layer 1"
     inkscape:groupmode="layer">
    <g
       id="layer1-0">
      <path
         inkscape:connector-curvature="0"
         d="m 2.4999621,0.49997396 c 2.5206756,0 11.0000629,9.54e-4 11.0000629,9.54e-4 l 1.3e-5,14.99909804 c 0,0 -7.3333841,0 -11.0000759,0 0,-5.000017 0,-10.000035 0,-15.00005204 z"
         id="path4160"
         style="fill:url(#linearGradient3143);fill-opacity:1;stroke:url(#linearGradient3145);stroke-width:0.99992192;stroke-linecap:butt;stroke-linejoin:round;stroke-miterlimit:4;stroke-opacity:1;stroke-dasharray:none;stroke-dashoffset:0;display:inline" />
      <path
         inkscape:connector-curvature="0"
         d="m 12.5,14.5 -9.0000001,0 0,-13 L 12.5,1.5 z"
         id="rect6741-1"
         style="fill:none;stroke:url(#linearGradient3988);stroke-width:1;stroke-linecap:round;stroke-linejoin:miter;stroke-miterlimit:4;stroke-opacity:1;stroke-dasharray:none;stroke-dashoffset:0" />
      <path
         inkscape:connector-curvature="0"
         d="m 4.0000001,3.499995 0.7537691,0 z m 0.8643219,0 0.703517,0 z m 0.8140698,0 0.6231156,0 z m 0.7236186,0 0.2713566,0 z m 0.3819095,0 0.603015,0 z m 0.7236186,0 1.5879395,0 z m 1.6884415,0 1.216081,0 z m 1.316584,0 0.371858,0 z m -6.5125639,0.994817 0.9949753,0 z m 1.0954773,0 1.6281406,0 z m 1.7286437,0 0.7939702,0 z m 0.8944722,0 0.7437182,0 z m 0.8442213,0 0.6331654,0 z m 0.7336684,0 0.994975,0.010376 z m 1.085427,0.010376 1.61809,0 z M 4.0000001,5.5 l 0.5125628,0 z m 0.6733666,0 1.8994984,0 z m -0.6733666,1.9947954 0.9949753,0 z m 1.0954773,0 1.6281406,0 z m 1.7286437,0 0.7939702,0 z m 0.8944722,0 0.7437182,0 z m 0.8442213,0 0.6331654,0 z m 0.7336684,0 0.994975,0.010376 z m 1.085427,0.010376 1.61809,0 z M 4.0000001,8.5 l 0.7537691,0 z m 0.8643219,0 0.6934672,0 z m 0.8140698,0 0.6231156,0 z m 0.7236186,0 0.2713566,0 z m 0.3819095,0 0.603015,0 z m 0.7236186,0 1.5778887,0 z m 1.6884415,0 1.206031,0 z m 1.306533,0 0.381909,0 z m 0.482412,0 0.904523,0 z m -6.9849249,1 1.1758797,0 z m 1.3065331,0 0.5628138,0 z m 0.6633158,0 0.2814074,0 z m 0.3919602,0 0.5125629,0 z m 0.6231157,0 0.5226136,0 z m 0.6231156,0 0.8341715,0 z m 0.9447243,0 1.0854264,0 z m 1.1859294,0 0.7236178,0 z m 0.8241208,0 0.180904,0 z m -6.5628149,1.994804 0.9949753,0 z m 1.0954773,0 1.6281406,0 z m 1.7286437,0 0.7939702,0 z m 0.8944722,0 0.7437182,0 z m 0.8442213,0 0.6331654,0 z m 0.7336684,0 0.994975,0.01038 z m 1.085427,0.01038 1.61809,0 z M 4.0000001,12.5 l 1.2462313,0 z m 1.3567841,0 0.3919602,0 z m 0.4924622,0 0.8944722,0 z m 0.9949753,0 1.3165828,0 z m 1.4271356,0 0.8944723,0 z m 0.9849245,0 0.1909552,0 z m 0.2914572,0 1.135678,0 z m 1.256282,0 0.592964,0 z m -6.8040209,1 1.2462313,0 z m 1.3567841,0 0.5628138,0 z m 0.6633168,0 0.8844215,0 z m 0.9849245,0 0.954774,0 z m 1.0653268,0 0.3819094,0 z m 0.4824125,0 0.2110548,0 z m 0.3216076,0 0.5929652,0 z"
         id="path3475"
         style="fill:none;stroke:url(#linearGradient3961);stroke-width:1px;stroke-linecap:butt;stroke-linejoin:miter;stroke-opacity:1" />
    </g>
    <path
       inkscape:connector-curvature="0"
       style="color:#000000;fill:url(#radialGradient3051);fill-opacity:1;fill-rule:nonzero;stroke:url(#linearGradient3053);stroke-width:0.98542738;stroke-linecap:round;stroke-linejoin:round;stroke-miterlimit:4;stroke-opacity:1;stroke-dasharray:none;stroke-dashoffset:0;marker:none;visibility:visible;display:inline;overflow:visible;enable-background:accumulate"
       d="m 10.5,10.5 0,-2.0072864 3.000001,0 0,2.0072864 2.007286,0 0,3 -2.007286,0 0,2.007286 -3.000001,0 0,-2.007286 -2.0072863,0 0,-3 2.0072863,0 z"
       id="path2262"
       sodipodi:nodetypes="ccccccccccccc" />
    <path
       inkscape:connector-curvature="0"
       style="opacity:0.5;fill:none;stroke:url(#linearGradient4109);stroke-width:1;stroke-linecap:butt;stroke-linejoin:miter;stroke-miterlimit:4;stroke-opacity:1;stroke-dasharray:none;display:inline"
       d="m 11.5,11.5 0,-1.9999994 1.000001,0 0,1.9999994 2,0 0,1 -2,0 0,2.292538 -1.000001,0 0,-2.292538 -1.9999993,0 0,-1 1.9999993,0 z"
       id="path2272"
       sodipodi:nodetypes="ccccccccccccc" />
  </g>
</svg>
