<?xml version="1.0" encoding="UTF-8" standalone="no"?>
<!-- Created with Inkscape (http://www.inkscape.org/) -->

<svg
   xmlns:dc="http://purl.org/dc/elements/1.1/"
   xmlns:cc="http://creativecommons.org/ns#"
   xmlns:rdf="http://www.w3.org/1999/02/22-rdf-syntax-ns#"
   xmlns:svg="http://www.w3.org/2000/svg"
   xmlns="http://www.w3.org/2000/svg"
   xmlns:xlink="http://www.w3.org/1999/xlink"
   xmlns:sodipodi="http://sodipodi.sourceforge.net/DTD/sodipodi-0.dtd"
   xmlns:inkscape="http://www.inkscape.org/namespaces/inkscape"
   width="16"
   height="16"
   id="svg1306"
   sodipodi:version="0.32"
   inkscape:version="0.48.2 r9819"
   sodipodi:docname="22.svg"
   inkscape:export-filename="/home/lapo/Desktop/insert-link-16.png"
   inkscape:export-xdpi="90.000031"
   inkscape:export-ydpi="90.000031"
   version="1.0"
   inkscape:output_extension="org.inkscape.output.svg.inkscape">
  <defs
     id="defs1308">
    <linearGradient
       inkscape:collect="always"
       id="linearGradient6373">
      <stop
         style="stop-color:#ffffff;stop-opacity:1;"
         offset="0"
         id="stop6375" />
      <stop
         style="stop-color:#ffffff;stop-opacity:0;"
         offset="1"
         id="stop6377" />
    </linearGradient>
    <linearGradient
       id="linearGradient5348">
      <stop
         style="stop-color:#555753;stop-opacity:1;"
         offset="0"
         id="stop5350" />
      <stop
         style="stop-color:#888a85;stop-opacity:1"
         offset="1"
         id="stop5352" />
    </linearGradient>
    <linearGradient
       id="linearGradient5048">
      <stop
         id="stop5050"
         offset="0"
         style="stop-color:black;stop-opacity:0;" />
      <stop
         style="stop-color:black;stop-opacity:1;"
         offset="0.5"
         id="stop5056" />
      <stop
         id="stop5052"
         offset="1"
         style="stop-color:black;stop-opacity:0;" />
    </linearGradient>
    <linearGradient
       id="linearGradient5060"
       inkscape:collect="always">
      <stop
         id="stop5062"
         offset="0"
         style="stop-color:black;stop-opacity:1;" />
      <stop
         id="stop5064"
         offset="1"
         style="stop-color:black;stop-opacity:0;" />
    </linearGradient>
    <linearGradient
       inkscape:collect="always"
       xlink:href="#linearGradient5048"
       id="linearGradient6889"
       gradientUnits="userSpaceOnUse"
       gradientTransform="matrix(2.77439,0,0,1.96971,-1892.18,-872.885)"
       x1="302.85715"
       y1="366.64789"
       x2="302.85715"
       y2="609.50507" />
    <radialGradient
       inkscape:collect="always"
       xlink:href="#linearGradient5060"
       id="radialGradient6891"
       gradientUnits="userSpaceOnUse"
       gradientTransform="matrix(2.77439,0,0,1.96971,-1891.63,-872.885)"
       cx="605.71429"
       cy="486.64789"
       fx="605.71429"
       fy="486.64789"
       r="117.14286" />
    <radialGradient
       inkscape:collect="always"
       xlink:href="#linearGradient5060"
       id="radialGradient6893"
       gradientUnits="userSpaceOnUse"
       gradientTransform="matrix(-2.77439,0,0,1.96971,112.762,-872.885)"
       cx="605.71429"
       cy="486.64789"
       fx="605.71429"
       fy="486.64789"
       r="117.14286" />
    <linearGradient
       inkscape:collect="always"
       xlink:href="#linearGradient5348"
       id="linearGradient5380"
       gradientUnits="userSpaceOnUse"
       gradientTransform="matrix(0.49809322,0,0,-0.51360459,-0.66817411,52.188156)"
       x1="17.856678"
       y1="29.360811"
       x2="17.856678"
       y2="19.586843" />
    <linearGradient
       inkscape:collect="always"
       xlink:href="#linearGradient6373"
       id="linearGradient6379"
       x1="16.882174"
       y1="23.103367"
       x2="16.882174"
       y2="14.433153"
       gradientUnits="userSpaceOnUse"
       gradientTransform="matrix(0.51360459,0,0,0.51360459,-1.3123835,27.535135)" />
    <linearGradient
       inkscape:collect="always"
       xlink:href="#linearGradient5048-0"
       id="linearGradient6875-2"
       gradientUnits="userSpaceOnUse"
       gradientTransform="matrix(2.77439,0,0,1.96971,-1892.18,-872.885)"
       x1="302.85715"
       y1="366.64789"
       x2="302.85715"
       y2="609.50507" />
    <linearGradient
       id="linearGradient5048-0">
      <stop
         id="stop5050-5"
         offset="0"
         style="stop-color:black;stop-opacity:0;" />
      <stop
         style="stop-color:black;stop-opacity:1;"
         offset="0.5"
         id="stop5056-5" />
      <stop
         id="stop5052-2"
         offset="1"
         style="stop-color:black;stop-opacity:0;" />
    </linearGradient>
    <radialGradient
       inkscape:collect="always"
       xlink:href="#linearGradient5060-0"
       id="radialGradient6877-9"
       gradientUnits="userSpaceOnUse"
       gradientTransform="matrix(2.77439,0,0,1.96971,-1891.63,-872.885)"
       cx="605.71429"
       cy="486.64789"
       fx="605.71429"
       fy="486.64789"
       r="117.14286" />
    <linearGradient
       id="linearGradient5060-0"
       inkscape:collect="always">
      <stop
         id="stop5062-2"
         offset="0"
         style="stop-color:black;stop-opacity:1;" />
      <stop
         id="stop5064-8"
         offset="1"
         style="stop-color:black;stop-opacity:0;" />
    </linearGradient>
    <radialGradient
       inkscape:collect="always"
       xlink:href="#linearGradient5060-0"
       id="radialGradient6879-3"
       gradientUnits="userSpaceOnUse"
       gradientTransform="matrix(-2.77439,0,0,1.96971,112.762,-872.885)"
       cx="605.71429"
       cy="486.64789"
       fx="605.71429"
       fy="486.64789"
       r="117.14286" />
    <radialGradient
       r="117.14286"
       fy="486.64789"
       fx="605.71429"
       cy="486.64789"
       cx="605.71429"
       gradientTransform="matrix(-2.77439,0,0,1.96971,112.762,-872.885)"
       gradientUnits="userSpaceOnUse"
       id="radialGradient3245"
       xlink:href="#linearGradient5060-0"
       inkscape:collect="always" />
  </defs>
  <sodipodi:namedview
     id="base"
     pagecolor="#ffffff"
     bordercolor="#868686"
     borderopacity="1"
     inkscape:pageopacity="0"
     inkscape:pageshadow="2"
     inkscape:zoom="12.541667"
     inkscape:cx="24"
     inkscape:cy="24"
     inkscape:current-layer="layer1"
     showgrid="false"
     inkscape:grid-bbox="true"
     inkscape:document-units="px"
     fill="#fcaf3e"
     stroke="#555753"
     showguides="true"
     inkscape:guide-bbox="true"
     inkscape:window-width="1085"
     inkscape:window-height="760"
     inkscape:window-x="526"
     inkscape:window-y="89"
     inkscape:showpageshadow="false"
     showborder="true"
     inkscape:grid-points="true"
     width="48px"
     height="48px"
     inkscape:window-maximized="0">
    <inkscape:grid
       id="GridFromPre046Settings"
       type="xygrid"
       originx="0px"
       originy="0px"
       spacingx="0.5px"
       spacingy="0.5px"
       color="#0000ff"
       empcolor="#0000ff"
       opacity="0.2"
       empopacity="0.4"
       empspacing="2"
       visible="true"
       enabled="true"
       snapvisiblegridlinesonly="true" />
  </sodipodi:namedview>
  <metadata
     id="metadata1311">
    <rdf:RDF>
      <cc:Work
         rdf:about="">
        <dc:format>image/svg+xml</dc:format>
        <dc:type
           rdf:resource="http://purl.org/dc/dcmitype/StillImage" />
        <dc:title></dc:title>
        <dc:creator>
          <cc:Agent>
            <dc:title>Lapo Calamandrei</dc:title>
          </cc:Agent>
        </dc:creator>
        <dc:source>http://www.gnome.org</dc:source>
        <dc:contributor>
          <cc:Agent>
            <dc:title />
          </cc:Agent>
        </dc:contributor>
        <cc:license
           rdf:resource="http://creativecommons.org/licenses/GPL/2.0/" />
        <dc:subject>
          <rdf:Bag>
            <rdf:li>insert</rdf:li>
            <rdf:li>text</rdf:li>
            <rdf:li>generic</rdf:li>
          </rdf:Bag>
        </dc:subject>
      </cc:Work>
      <cc:License
         rdf:about="http://creativecommons.org/licenses/GPL/2.0/">
        <cc:permits
           rdf:resource="http://web.resource.org/cc/Reproduction" />
        <cc:permits
           rdf:resource="http://web.resource.org/cc/Distribution" />
        <cc:requires
           rdf:resource="http://web.resource.org/cc/Notice" />
        <cc:permits
           rdf:resource="http://web.resource.org/cc/DerivativeWorks" />
        <cc:requires
           rdf:resource="http://web.resource.org/cc/ShareAlike" />
        <cc:requires
           rdf:resource="http://web.resource.org/cc/SourceCode" />
      </cc:License>
    </rdf:RDF>
  </metadata>
  <g
     id="layer1"
     inkscape:label="Layer 1"
     inkscape:groupmode="layer"
     transform="translate(0,-32)">
    <g
       style="opacity:0.27155175;display:inline"
       id="g6881"
       transform="matrix(0.00788009,0,0,0.00832003,15.108831,39.338127)">
      <rect
         y="-150.69685"
         x="-1559.2523"
         height="478.35718"
         width="1339.6335"
         id="rect6883"
         style="opacity:0.39195981;color:#000000;fill:url(#linearGradient6889);fill-opacity:1;fill-rule:nonzero;stroke:none;stroke-width:1;marker:none;visibility:visible;display:inline;overflow:visible" />
      <path
         sodipodi:nodetypes="cccc"
         id="path6885"
         d="m -219.61876,-150.68038 c 0,0 0,478.33079 0,478.33079 142.874166,0.90045 345.40022,-107.16966 345.40014,-239.196175 0,-132.026537 -159.436816,-239.134595 -345.40014,-239.134615 z"
         style="opacity:0.40206185;color:#000000;fill:url(#radialGradient6891);fill-opacity:1;fill-rule:nonzero;stroke:none;stroke-width:1;marker:none;visibility:visible;display:inline;overflow:visible"
         inkscape:connector-curvature="0" />
      <path
         style="opacity:0.40206185;color:#000000;fill:url(#radialGradient6893);fill-opacity:1;fill-rule:nonzero;stroke:none;stroke-width:1;marker:none;visibility:visible;display:inline;overflow:visible"
         d="m -1559.2523,-150.68038 c 0,0 0,478.33079 0,478.33079 -142.8742,0.90045 -345.4002,-107.16966 -345.4002,-239.196175 0,-132.026537 159.4368,-239.134595 345.4002,-239.134615 z"
         id="path6887"
         sodipodi:nodetypes="cccc"
         inkscape:connector-curvature="0" />
    </g>
    <path
       style="font-size:17.50059891px;font-style:normal;font-weight:bold;fill:url(#linearGradient5380);fill-opacity:1;stroke:#2e3436;stroke-width:0.51360452px;stroke-linecap:butt;stroke-linejoin:miter;stroke-opacity:1;font-family:Bitstream Vera Sans"
       d="m 4.3854151,33.441587 c -0.096135,0.01727 -0.1757107,0.0846 -0.2086518,0.176551 l -2.3593686,6.660809 c -0.031697,0.08407 -0.01921,0.183047 0.032102,0.256803 0.051312,0.07376 0.1348564,0.112835 0.2247019,0.112351 l 1.653162,0 c 0.1183034,-0.0017 0.2220085,-0.07952 0.2568019,-0.192602 l 0.2728528,-0.834608 2.3433206,0 0.2728532,0.834608 c 0.034785,0.113083 0.1384989,0.190862 0.2568022,0.192602 l 1.6531629,0 c 0.089846,4.84e-4 0.1733949,-0.0386 0.2247026,-0.112351 0.051316,-0.07376 0.063796,-0.172734 0.032102,-0.256803 L 6.648487,33.618138 C 6.6082106,33.511389 6.5057771,33.440964 6.3916855,33.441587 l -1.958118,0 c -0.01602,-0.0015 -0.032132,-0.0015 -0.048153,0 z m 5.055795,0 c -0.1283469,0.02359 -0.2106844,0.139125 -0.2086524,0.272852 l -0.016051,6.660809 c 1.45e-5,0.150686 0.1259411,0.272838 0.2728524,0.272853 l 1.5087129,0 c 0.146912,-1.5e-5 0.272838,-0.122167 0.272853,-0.272853 l 0,-0.0963 c 0.13706,0.100126 0.235779,0.19107 0.353104,0.256803 0.290865,0.1595 0.631147,0.240753 0.995108,0.240752 0.651496,0 1.209167,-0.30576 1.621065,-0.850658 0.410081,-0.545823 0.625949,-1.233069 0.625956,-2.054418 -7e-6,-0.821344 -0.213218,-1.524434 -0.625956,-2.070469 -0.412157,-0.548561 -0.970467,-0.850651 -1.621065,-0.850657 -0.362373,6e-6 -0.701857,0.07645 -0.995108,0.240752 -0.11919,0.06536 -0.219903,0.156315 -0.353104,0.256802 l 0.01605,-1.733415 c -1.5e-5,-0.150686 -0.125941,-0.272838 -0.272853,-0.272852 l -1.5247631,0 c -0.015615,-0.0015 -0.032531,-0.0015 -0.048153,0 z m -4.0125363,2.648274 0.4815046,1.444513 -0.9630085,0 z m 6.6608092,0.433353 c 0.25571,3e-6 0.39399,0.07876 0.513605,0.272852 0.120628,0.192545 0.208647,0.546647 0.208652,1.02721 -5e-6,0.480567 -0.08502,0.797772 -0.208652,0.995109 -0.119616,0.194097 -0.257897,0.272852 -0.513605,0.272852 -0.255708,0 -0.508521,-0.113635 -0.609905,-0.272852 -0.129256,-0.208755 -0.208657,-0.524557 -0.208652,-0.995109 -5e-6,-0.470547 0.08124,-0.807799 0.208652,-1.01116 0.104389,-0.165883 0.361191,-0.288899 0.609905,-0.288902 z"
       id="path6355"
       sodipodi:nodetypes="cccsccccccccsccccccccccccsssssssccccccccccsssssscc"
       inkscape:connector-curvature="0" />
    <path
       style="font-size:17.50059891px;font-style:normal;font-weight:bold;opacity:0.15;fill:none;stroke:url(#linearGradient6379);stroke-width:0.51360452px;stroke-linecap:butt;stroke-linejoin:miter;stroke-opacity:1;font-family:Bitstream Vera Sans"
       d="m 4.610117,33.971241 -2.1828167,6.147205 1.1235089,0 0.2086511,-0.658057 c 0.069095,-0.217322 0.2695311,-0.36603 0.4975538,-0.369152 l 2.3433209,0 c 0.2280233,0.0031 0.4284561,0.15183 0.497555,0.369152 l 0.208652,0.658057 1.1074584,0 -2.1988692,-6.147205 z m 5.1520947,0 -0.016051,6.147205 1.0111593,0 c 0.05017,-0.163785 0.176457,-0.293195 0.338965,-0.347366 0.162509,-0.05417 0.341181,-0.02641 0.479592,0.07452 0.162599,0.118782 0.258841,0.198867 0.304953,0.224702 0.204653,0.112225 0.453174,0.176552 0.738307,0.176552 0.485777,0 0.873065,-0.20453 1.20376,-0.642006 0.335452,-0.446491 0.513599,-1.004867 0.513605,-1.733415 -6e-6,-0.729684 -0.17984,-1.30791 -0.513605,-1.749466 -0.330271,-0.439573 -0.717116,-0.642002 -1.20376,-0.642005 -0.287886,4e-6 -0.536003,0.0632 -0.738307,0.176551 -0.04784,0.02623 -0.135504,0.09293 -0.288902,0.208652 -0.15959,0.121557 -0.374157,0.142528 -0.554263,0.05417 -0.180107,-0.08835 -0.294847,-0.270872 -0.296395,-0.471478 l 0.01605,-1.476613 z m -4.4137881,1.588965 c 0.2570066,-0.03501 0.5015609,0.121232 0.5778049,0.369153 l 0.4815042,1.444513 c 0.050807,0.159811 0.022953,0.334242 -0.075117,0.470272 -0.098068,0.136028 -0.2547549,0.217588 -0.4224334,0.219884 l -0.9630086,0 C 4.779496,38.061728 4.6228089,37.980168 4.524741,37.844144 4.426673,37.708114 4.3988092,37.533683 4.449616,37.373872 l 0.4815039,-1.444513 c 0.057929,-0.192175 0.2194966,-0.335103 0.4173037,-0.369153 z m 6.7410594,0.433354 c 0.36446,4e-6 0.781314,0.234827 0.963008,0.529654 0.214198,0.341898 0.288898,0.754829 0.288904,1.300062 -6e-6,0.54303 -0.08769,0.962846 -0.288904,1.284011 -0.181694,0.294834 -0.598546,0.513606 -0.963008,0.513604 -0.412629,2e-6 -0.804984,-0.114203 -1.059309,-0.513604 -8.1e-5,-0.0053 -8.1e-5,-0.0107 0,-0.01605 -0.20401,-0.329487 -0.288908,-0.737825 -0.288902,-1.267961 -6e-6,-0.531516 0.07539,-0.959282 0.288902,-1.300061 0.250074,-0.39739 0.635952,-0.52965 1.059309,-0.529655 z"
       id="path5386"
       sodipodi:nodetypes="ccccccccccccccssssssssssscccccsccsccccccssssssscc"
       inkscape:connector-curvature="0" />
    <path
       style="font-size:17.50059891px;font-style:normal;font-weight:bold;fill:#babdb6;fill-opacity:1;stroke:none;font-family:Bitstream Vera Sans"
       d="m 4.4335652,33.714439 -2.3593677,6.660809 0.1765518,0 2.1828159,-6.147204 1.9581181,0 2.2149194,6.147204 0.1765505,0 -2.3914699,-6.660809 z m 5.0718449,0 0,0.513605 1.5087129,0 0,-0.513605 z m 3.1137279,1.508714 c -0.324001,4e-6 -0.620308,0.0706 -0.866708,0.208651 -0.08243,0.04521 -0.177397,0.132416 -0.321003,0.240753 -0.08359,0.06079 -0.197143,0.06363 -0.288902,0.01605 -0.0869,-0.04506 -0.140087,-0.127732 -0.144452,-0.224701 l 0,0.497554 c -0.0015,0.10335 0.05269,0.193173 0.144452,0.240752 0.09176,0.04758 0.205312,0.04475 0.288902,-0.01605 0.143606,-0.108336 0.23857,-0.195548 0.321003,-0.240752 0.2464,-0.138049 0.542707,-0.208646 0.866708,-0.208651 0.566138,5e-6 1.02639,0.24589 1.396363,0.738306 0.329521,0.435943 0.520543,0.994206 0.561755,1.653165 0.0057,-0.08696 0.01605,-0.165778 0.01605,-0.256802 -5e-6,-0.774126 -0.20575,-1.417755 -0.577805,-1.909967 -0.369972,-0.492416 -0.830225,-0.738302 -1.396362,-0.738306 z m 2.519873,2.648273 c -10.8989719,9.54449 -5.4494874,4.772246 0,0 z M 4.7706181,37.726975 4.690368,37.967727 c -0.025263,0.08209 -0.018417,0.171288 0.032102,0.240752 0.050519,0.06946 0.1388192,0.111089 0.2247019,0.112351 l 0.9630086,0 c 0.085883,-0.0013 0.1741832,-0.04289 0.2247025,-0.112351 0.050516,-0.06946 0.05736,-0.158659 0.032102,-0.240752 L 6.086734,37.726975 c -0.048465,0.04317 -0.1103796,0.07928 -0.1765519,0.08025 l -0.9630085,0 c -0.066172,-0.001 -0.1280828,-0.03708 -0.1765519,-0.08025 z m 6.2435049,0.353103 c -0.0057,0.08333 -0.01605,0.165468 -0.01605,0.256802 -4e-6,0.501248 0.08904,0.868611 0.256803,1.13956 0.180172,0.282948 0.498061,0.401255 0.834608,0.401254 0.311732,1e-6 0.58671,-0.155262 0.738306,-0.401254 0.163598,-0.261127 0.256797,-0.626814 0.256802,-1.13956 -1e-6,-0.08944 -0.01076,-0.174932 -0.01605,-0.256802 -0.02713,0.376819 -0.106922,0.669145 -0.240752,0.882758 -0.151596,0.245991 -0.426574,0.401255 -0.738306,0.401253 -0.336546,2e-6 -0.654436,-0.118306 -0.834607,-0.401253 -0.137239,-0.221648 -0.214527,-0.511559 -0.240753,-0.882758 z"
       id="path6363"
       sodipodi:nodetypes="cccccccccccccccsssccssssscsscccccsccsccccccssssscsssc"
       inkscape:connector-curvature="0" />
    <g
       style="opacity:0.32758622;display:inline"
       id="g6055"
       transform="matrix(0.00770683,0,0,0.00966213,14.779846,44.118103)">
      <rect
         y="-150.69685"
         x="-1559.2523"
         height="478.35718"
         width="1339.6335"
         id="rect6057"
         style="opacity:0.39195981;color:#000000;fill:url(#linearGradient6875-2);fill-opacity:1;fill-rule:nonzero;stroke:none;stroke-width:1;marker:none;visibility:visible;display:inline;overflow:visible" />
      <path
         sodipodi:nodetypes="cccc"
         id="path6059"
         d="m -219.61876,-150.68038 c 0,0 0,478.33079 0,478.33079 142.874166,0.90045 345.40022,-107.16966 345.40014,-239.196175 0,-132.026537 -159.436816,-239.134595 -345.40014,-239.134615 z"
         style="opacity:0.40206185;color:#000000;fill:url(#radialGradient6877-9);fill-opacity:1;fill-rule:nonzero;stroke:none;stroke-width:1;marker:none;visibility:visible;display:inline;overflow:visible"
         inkscape:connector-curvature="0" />
      <path
         style="opacity:0.40206185;color:#000000;fill:url(#radialGradient3245);fill-opacity:1;fill-rule:nonzero;stroke:none;stroke-width:1;marker:none;visibility:visible;display:inline;overflow:visible"
         d="m -1559.2523,-150.68038 c 0,0 0,478.33079 0,478.33079 -142.8742,0.90045 -345.4002,-107.16966 -345.4002,-239.196175 0,-132.026537 159.4368,-239.134595 345.4002,-239.134615 z"
         id="path6061"
         sodipodi:nodetypes="cccc"
         inkscape:connector-curvature="0" />
    </g>
    <path
       style="fill:none;stroke:#4e9a06;stroke-width:1.5408138;stroke-linecap:square;stroke-linejoin:miter;stroke-miterlimit:4;stroke-opacity:1;stroke-dasharray:none"
       d="m 1.7171097,44.764935 2.0544188,-2.054417 2.0544149,2.054417 2.0544176,-2.054417 2.0544187,2.054417 2.0544183,-2.054417 2.054418,2.054417"
       id="path6341"
       sodipodi:nodetypes="ccccccc"
       inkscape:connector-curvature="0" />
    <path
       style="fill:none;stroke:#8ae234;stroke-width:0.51360458px;stroke-linecap:square;stroke-linejoin:miter;stroke-opacity:1"
       d="m 1.7171097,44.764935 2.0544188,-2.054417 2.0544149,2.054417 2.0544176,-2.054417 2.0544187,2.054417 2.0544183,-2.054417 2.054418,2.054417"
       id="path6339"
       sodipodi:nodetypes="ccccccc"
       inkscape:connector-curvature="0" />
  </g>
</svg>
