<?xml version="1.0" encoding="UTF-8" standalone="no"?>
<!-- Created with Inkscape (http://www.inkscape.org/) -->

<svg
   xmlns:dc="http://purl.org/dc/elements/1.1/"
   xmlns:cc="http://creativecommons.org/ns#"
   xmlns:rdf="http://www.w3.org/1999/02/22-rdf-syntax-ns#"
   xmlns:svg="http://www.w3.org/2000/svg"
   xmlns="http://www.w3.org/2000/svg"
   xmlns:xlink="http://www.w3.org/1999/xlink"
   xmlns:sodipodi="http://sodipodi.sourceforge.net/DTD/sodipodi-0.dtd"
   xmlns:inkscape="http://www.inkscape.org/namespaces/inkscape"
   version="1.1"
   width="16"
   height="16"
   id="svg4102"
   inkscape:version="0.48.3.1 r9886"
   sodipodi:docname="system-shutdown.svg">
  <sodipodi:namedview
     pagecolor="#ffffff"
     bordercolor="#666666"
     borderopacity="1"
     objecttolerance="10"
     gridtolerance="10"
     guidetolerance="10"
     inkscape:pageopacity="0"
     inkscape:pageshadow="2"
     inkscape:window-width="1390"
     inkscape:window-height="744"
     id="namedview35"
     showgrid="false"
     inkscape:zoom="38.261458"
     inkscape:cx="8.0000001"
     inkscape:cy="8.0578363"
     inkscape:window-x="245"
     inkscape:window-y="72"
     inkscape:window-maximized="0"
     inkscape:current-layer="layer1" />
  <defs
     id="defs4104">
    <linearGradient
       x1="71.204407"
       y1="6.2375584"
       x2="71.204407"
       y2="44.340794"
       id="linearGradient3178"
       xlink:href="#linearGradient4011"
       gradientUnits="userSpaceOnUse"
       gradientTransform="matrix(1.054054,0,0,1.054054,-51.611006,-1.1529644)" />
    <linearGradient
       id="linearGradient4011">
      <stop
         id="stop4013"
         style="stop-color:#ffffff;stop-opacity:1"
         offset="0" />
      <stop
         id="stop4015"
         style="stop-color:#ffffff;stop-opacity:0.23529412"
         offset="0.507761" />
      <stop
         id="stop4017"
         style="stop-color:#ffffff;stop-opacity:0.15686275"
         offset="0.83456558" />
      <stop
         id="stop4019"
         style="stop-color:#ffffff;stop-opacity:0.39215687"
         offset="1" />
    </linearGradient>
    <linearGradient
       x1="38.976662"
       y1="59.967686"
       x2="38.976662"
       y2="8.0928917"
       id="linearGradient3187"
       xlink:href="#linearGradient4215"
       gradientUnits="userSpaceOnUse"
       gradientTransform="matrix(0.80392158,0,0,0.80392158,-1.72549,-1.7909599)" />
    <linearGradient
       id="linearGradient4215">
      <stop
         id="stop4217"
         style="stop-color:#dcdcdc;stop-opacity:1"
         offset="0" />
      <stop
         id="stop4219"
         style="stop-color:#f0f0f0;stop-opacity:1"
         offset="1" />
    </linearGradient>
    <linearGradient
       x1="21.346498"
       y1="59.968513"
       x2="21.346498"
       y2="7.8025136"
       id="linearGradient3189"
       xlink:href="#linearGradient4223"
       gradientUnits="userSpaceOnUse"
       gradientTransform="matrix(0.80392158,0,0,0.80392158,-1.72549,-1.7909599)" />
    <linearGradient
       id="linearGradient4223">
      <stop
         id="stop4225"
         style="stop-color:#505050;stop-opacity:1"
         offset="0" />
      <stop
         id="stop4227"
         style="stop-color:#838383;stop-opacity:1"
         offset="1" />
    </linearGradient>
    <linearGradient
       id="linearGradient8838">
      <stop
         id="stop8840"
         style="stop-color:#000000;stop-opacity:1"
         offset="0" />
      <stop
         id="stop8842"
         style="stop-color:#000000;stop-opacity:0"
         offset="1" />
    </linearGradient>
    <radialGradient
       cx="62.625"
       cy="4.625"
       r="10.625"
       fx="62.625"
       fy="4.625"
       id="radialGradient4100"
       xlink:href="#linearGradient8838"
       gradientUnits="userSpaceOnUse"
       gradientTransform="matrix(2.1647059,0,0,0.7529402,-111.56471,36.517647)" />
  </defs>
  <metadata
     id="metadata4107">
    <rdf:RDF>
      <cc:Work
         rdf:about="">
        <dc:format>image/svg+xml</dc:format>
        <dc:type
           rdf:resource="http://purl.org/dc/dcmitype/StillImage" />
        <dc:title></dc:title>
      </cc:Work>
    </rdf:RDF>
  </metadata>
  <g
     id="layer1"
     transform="matrix(0.34782609,0,0,0.34782609,-0.34782496,-1.0956519)">
    <path
       d="M 24.000002,5.0423736 C 12.688809,5.0423736 3.5,14.231179 3.5,25.542373 3.5,36.853566 12.688809,46.042377 24.000002,46.042374 35.311191,46.042374 44.50001,36.853566 44.5,25.542373 44.5,14.231179 35.311191,5.0423736 24.000002,5.0423736 z"
       id="path2555-7"
       style="color:#000000;fill:url(#linearGradient3187);fill-opacity:1;fill-rule:nonzero;stroke:url(#linearGradient3189);stroke-width:1;stroke-linecap:round;stroke-linejoin:round;stroke-miterlimit:4;stroke-opacity:1;stroke-dasharray:none;stroke-dashoffset:0;marker:none;visibility:visible;display:inline;overflow:visible;enable-background:accumulate"
       inkscape:connector-curvature="0" />
    <path
       d="m 24,5.4443343 c -3.118895,0 -6.08194,0.7136138 -8.717524,1.9846814 L 22.819241,23.406957 9.655025,11.448624 c -3.564495,3.627839 -5.753064,8.613134 -5.753064,14.09375 0,1.449125 0.159996,2.857988 0.452206,4.220588 l 19.846814,-5.125 -0.326593,-0.276347 12.8125,-14.3952218 C 33.225997,7.1447458 28.807422,5.4443343 24,5.4443343 z m 19.369486,14.7218147 -19.746324,4.723039 0.07537,0.05025 -17.158702,10.55147 c 3.463127,6.061591 9.987434,10.149513 17.460172,10.14951 0.566364,0 1.128626,-0.02929 1.683211,-0.07537 C 24.960804,37.288543 23.899145,25.342093 23.87439,25.065047 L 39.827209,37.90267 c 2.67004,-3.411917 4.270835,-7.697849 4.270831,-12.360296 0,-1.860266 -0.254241,-3.665773 -0.728554,-5.376226 z"
       id="path4004"
       style="fill:#000000;fill-opacity:0.04255317;stroke:none"
       inkscape:connector-curvature="0" />
    <path
       d="m 24,5.4443343 c -2.41747,0 -4.73565,0.4465389 -6.883578,1.2310049 l 5.702819,16.7316178 -14.646447,-10.25 c -2.677277,3.414377 -4.270833,7.71598 -4.270833,12.385417 0,0.961792 0.06997,1.91288 0.20098,2.838848 L 24.200981,24.637962 23.874388,24.361615 35.053922,8.7856334 C 31.879612,6.6864261 28.085669,5.4443343 24,5.4443343 z m 19.721202,16.2542897 -20.09804,3.190564 0.07537,0.05025 -15.802084,12.61152 c 3.667088,4.901652 9.51922,8.089463 16.103554,8.089461 0.160499,0 0.317724,0.0038 0.477329,0 -0.239413,-8.345725 -0.57829,-20.299487 -0.602941,-20.575367 l 16.681373,11.83272 c 2.224278,-3.234158 3.542282,-7.138588 3.542279,-11.355392 0,-1.315764 -0.134764,-2.598145 -0.376838,-3.84375 z"
       id="path4004-0"
       style="fill:#000000;fill-opacity:0.04787233;stroke:none"
       inkscape:connector-curvature="0" />
    <path
       d="m 24,5.4443343 c -1.824171,0 -3.595008,0.2467356 -5.275735,0.7034314 L 23.79902,24.587717 33.270221,7.7304863 C 30.494231,6.2816082 27.344616,5.4443343 24,5.4443343 z M 6.891544,14.990904 c -1.895076,3.066037 -2.989583,6.686737 -2.989583,10.55147 0,0.464861 0.01909,0.924702 0.05024,1.381741 L 23.899505,24.713329 6.891539,14.990903 z m 37.080883,8.265318 -20.047794,1.205882 17.309436,11.43076 c 1.819042,-3.022095 2.863974,-6.570489 2.863971,-10.35049 0,-0.770927 -0.04086,-1.537665 -0.125613,-2.286152 z M 24.025123,24.612839 9.80576,39.786859 c 3.502913,3.490595 8.300067,5.671102 13.591299,5.828432 l 0.628064,-21.002452 z"
       id="path3893-7"
       style="fill:#000000;fill-opacity:0.05851063;stroke:none"
       inkscape:connector-curvature="0" />
    <path
       d="m 24,5.4443343 c -1.101435,0 -2.187215,0.080272 -3.240808,0.2512255 L 23.79902,24.587717 31.28554,6.8260745 C 29.024748,5.9441277 26.570742,5.4443343 24,5.4443343 z M 5.96201,16.674115 C 4.689841,19.255742 3.951158,22.157883 3.901961,25.21578 L 23.89951,24.713329 5.96201,16.674114 z m 17.962623,7.78799 17.987745,10.199754 c 1.39696,-2.736659 2.185664,-5.839494 2.185662,-9.119485 0,-0.278966 -0.01383,-0.552823 -0.02512,-0.829045 L 23.924633,24.462105 z m 0.10049,0.150735 -11.63174,17.309436 c 2.827281,2.009263 6.177341,3.321867 9.822916,3.64277 l 1.808824,-20.952207 z"
       id="path3893-7-5"
       style="fill:#000000;fill-opacity:0.06382979;stroke:none"
       inkscape:connector-curvature="0" />
    <path
       d="m 24,5.4443343 c -0.506897,0 -1.009812,0.013262 -1.507353,0.050245 L 23.79902,24.587717 28.873775,6.0472754 C 27.313245,5.6577797 25.680154,5.4443343 24,5.4443343 z M 5.183211,18.508061 c -0.593003,1.58397 -1.005516,3.255672 -1.18076,4.999387 L 23.89951,24.713329 5.183211,18.50806 z m 18.741422,5.954044 18.615809,8.843136 c 0.889902,-2.118501 1.421901,-4.420743 1.532475,-6.833332 L 23.924633,24.462105 z m 0.10049,0.150735 -8.76777,19.017769 c 1.7353,0.84055 3.608643,1.446741 5.577206,1.758579 l 3.190564,-20.776349 z"
       id="path3893"
       style="fill:#000000;fill-opacity:0.10106381;stroke:none"
       inkscape:connector-curvature="0" />
    <path
       d="M 24.125613,5.4443343 23.79902,24.587717 26.838848,5.6453147 C 25.953543,5.5200577 25.043847,5.4500162 24.125613,5.4443343 z M 4.705882,19.914923 c -0.226683,0.777668 -0.420723,1.573293 -0.552696,2.386643 l 19.746324,2.411763 z m 19.218751,4.547182 19.143382,7.386029 c 0.364611,-1.102113 0.659543,-2.239713 0.829045,-3.416667 z m 0.10049,0.150735 -7.436275,19.595588 c 0.450412,0.179905 0.916081,0.354653 1.381741,0.502451 0.41196,0.129565 0.833252,0.248478 1.256127,0.351717 0.109083,0.02683 0.216822,0.05036 0.326593,0.07537 z"
       id="path3893-9"
       style="fill:#000000;fill-opacity:0.0851064;stroke:none"
       inkscape:connector-curvature="0" />
    <path
       d="m 43.5,25.574245 c 0,10.7699 -8.73109,19.50069 -19.499753,19.50069 C 13.230597,45.074935 4.5,36.344047 4.5,25.574246 4.5,14.804843 13.230597,6.0749367 24.000247,6.0749367 34.76891,6.0749367 43.5,14.804843 43.5,25.574246 l 0,0 z"
       id="path8655-6"
       style="opacity:0.8;color:#000000;fill:none;stroke:url(#linearGradient3178);stroke-width:1;stroke-linecap:round;stroke-linejoin:round;stroke-miterlimit:4;stroke-opacity:1;stroke-dasharray:none;stroke-dashoffset:0;marker:none;visibility:visible;display:inline;overflow:visible;enable-background:accumulate"
       inkscape:connector-curvature="0" />
    <path
       d="m 17.625,15.449935 c -0.31487,0 -0.608048,0.12382 -0.875,0.25 l -0.625,0.375 c -3.067692,2.02341 -5.22986,5.15026 -5.875,8.8125 -6.88e-4,0.004 -0.06182,-0.0038 -0.0625,0 -0.017,0.10086 0.0148,0.210824 0,0.3125 -0.0926,0.617666 -0.1875,1.229142 -0.1875,1.875 0,7.455844 6.268014,13.5 14,13.5 7.731986,0 14,-6.044156 14,-13.5 0,-0.573518 -0.05176,-1.132366 -0.125,-1.6875 -0.02312,-0.17264 -0.095,-0.329736 -0.125,-0.5 -0.64514,-3.66224 -2.807308,-6.78909 -5.875,-8.8125 l -0.625,-0.375 c -0.266952,-0.12618 -0.56013,-0.25 -0.875,-0.25 -1.138892,0 -2.0625,0.923608 -2.0625,2.0625 0,0.648164 0.344864,1.246962 0.8125,1.625 0.14862,0.12016 0.321496,0.237 0.5,0.3125 1.932542,1.285956 3.364682,3.208196 4,5.4375 0.012,0.04254 0.0509,0.08236 0.0625,0.125 0.207862,0.763616 0.3125,1.546374 0.3125,2.375 0,5.325604 -4.477152,9.625 -10,9.625 -5.522848,0 -10,-4.299396 -10,-9.625 0,-0.828626 0.10464,-1.611384 0.3125,-2.375 0.012,-0.04446 0.0499,-0.0808 0.0625,-0.125 0.635318,-2.229304 2.067458,-4.151544 4,-5.4375 0.1785,-0.0755 0.35137,-0.19234 0.5,-0.3125 0.467636,-0.378038 0.8125,-0.976836 0.8125,-1.625 0,-1.138892 -0.923608,-2.0625 -2.0625,-2.0625 z m 6.375,-4.875 c 1.108,0 2,0.892 2,2 l 0,12 c 0,1.108 -0.892,2 -2,2 -1.108,0 -2,-0.892 -2,-2 l 0,-12 c 0,-1.108 0.892,-2 2,-2 z"
       id="path3782-2"
       style="opacity:0.5;color:#000000;fill:#ffffff;fill-opacity:1;fill-rule:nonzero;stroke:none;stroke-width:1;marker:none;visibility:visible;display:inline;overflow:visible;enable-background:accumulate"
       inkscape:connector-curvature="0" />
    <path
       d="m 17.625,14.449935 c -0.31487,0 -0.608048,0.12382 -0.875,0.25 l -0.625,0.375 c -3.067692,2.02341 -5.22986,5.15026 -5.875,8.8125 -6.88e-4,0.004 -0.06182,-0.0038 -0.0625,0 -0.017,0.10086 0.0148,0.210824 0,0.3125 -0.0926,0.617666 -0.1875,1.229142 -0.1875,1.875 0,7.455844 6.268014,13.5 14,13.5 7.731986,0 14,-6.044156 14,-13.5 0,-0.573518 -0.05176,-1.132366 -0.125,-1.6875 -0.02312,-0.17264 -0.095,-0.329736 -0.125,-0.5 -0.64514,-3.66224 -2.807308,-6.78909 -5.875,-8.8125 l -0.625,-0.375 c -0.266952,-0.12618 -0.56013,-0.25 -0.875,-0.25 -1.138892,0 -2.0625,0.923608 -2.0625,2.0625 0,0.648164 0.344864,1.246962 0.8125,1.625 0.14862,0.12016 0.321496,0.237 0.5,0.3125 1.932542,1.285956 3.364682,3.208196 4,5.4375 0.012,0.04254 0.0509,0.08236 0.0625,0.125 0.207862,0.763616 0.3125,1.546374 0.3125,2.375 0,5.325604 -4.477152,9.625 -10,9.625 -5.522848,0 -10,-4.299396 -10,-9.625 0,-0.828626 0.10464,-1.611384 0.3125,-2.375 0.012,-0.04446 0.0499,-0.0808 0.0625,-0.125 0.635318,-2.229304 2.067458,-4.151544 4,-5.4375 0.1785,-0.0755 0.35137,-0.19234 0.5,-0.3125 0.467636,-0.378038 0.8125,-0.976836 0.8125,-1.625 0,-1.138892 -0.923608,-2.0625 -2.0625,-2.0625 z M 24,9.5749348 c 1.108,0 2,0.8920002 2,2.0000002 l 0,12 c 0,1.108 -0.892,2 -2,2 -1.108,0 -2,-0.892 -2,-2 l 0,-12 c 0,-1.108 0.892,-2.0000002 2,-2.0000002 z"
       id="path3782"
       style="opacity:0.65;color:#000000;fill:#000000;fill-opacity:1;fill-rule:nonzero;stroke:none;stroke-width:1px;marker:none;visibility:visible;display:inline;overflow:visible;enable-background:accumulate"
       inkscape:connector-curvature="0" />
  </g>
</svg>
