<?xml version="1.0" encoding="UTF-8" standalone="no"?>
<!-- Created with Inkscape (http://www.inkscape.org/) -->

<svg
   xmlns:dc="http://purl.org/dc/elements/1.1/"
   xmlns:cc="http://creativecommons.org/ns#"
   xmlns:rdf="http://www.w3.org/1999/02/22-rdf-syntax-ns#"
   xmlns:svg="http://www.w3.org/2000/svg"
   xmlns="http://www.w3.org/2000/svg"
   xmlns:xlink="http://www.w3.org/1999/xlink"
   xmlns:sodipodi="http://sodipodi.sourceforge.net/DTD/sodipodi-0.dtd"
   xmlns:inkscape="http://www.inkscape.org/namespaces/inkscape"
   version="1.2"
   width="16"
   height="16"
   id="svg2"
   inkscape:version="0.91 r"
   sodipodi:docname="distributor-logo.svg">
  <sodipodi:namedview
     pagecolor="#ffffff"
     bordercolor="#666666"
     borderopacity="1"
     objecttolerance="10"
     gridtolerance="10"
     guidetolerance="10"
     inkscape:pageopacity="0"
     inkscape:pageshadow="2"
     inkscape:window-width="1674"
     inkscape:window-height="860"
     id="namedview20"
     showgrid="false"
     inkscape:zoom="18.547431"
     inkscape:cx="-13.643304"
     inkscape:cy="8"
     inkscape:window-x="75"
     inkscape:window-y="34"
     inkscape:window-maximized="0"
     inkscape:current-layer="svg2" />
  <defs
     id="defs4">
    <linearGradient
       x1="2035.1652"
       y1="3208.0737"
       x2="2035.1652"
       y2="3241.9966"
       id="linearGradient11527-6"
       xlink:href="#linearGradient27416-1-5"
       gradientUnits="userSpaceOnUse"
       gradientTransform="matrix(0.57484957,0,0,0.42975531,-1164.0142,-1377.7717)" />
    <linearGradient
       id="linearGradient27416-1-5">
      <stop
         id="stop27420-2-2"
         style="stop-color:#55c1ec;stop-opacity:1"
         offset="0" />
      <stop
         id="stop27422-3-2"
         style="stop-color:#3689e6;stop-opacity:1"
         offset="1" />
    </linearGradient>
    <linearGradient
       id="linearGradient4011-0-8-3">
      <stop
         id="stop4013-2-3-6"
         style="stop-color:#ffffff;stop-opacity:1"
         offset="0" />
      <stop
         id="stop4015-7-1-68"
         style="stop-color:#ffffff;stop-opacity:0.23529412"
         offset="0.507761" />
      <stop
         id="stop4017-13-5-6"
         style="stop-color:#ffffff;stop-opacity:0.15686275"
         offset="0.83456558" />
      <stop
         id="stop4019-92-5-3"
         style="stop-color:#ffffff;stop-opacity:0.39215687"
         offset="1" />
    </linearGradient>
    <linearGradient
       x1="71.204407"
       y1="6.2375584"
       x2="71.204407"
       y2="44.340794"
       id="linearGradient12398"
       xlink:href="#linearGradient4011-0-8-3"
       gradientUnits="userSpaceOnUse"
       gradientTransform="matrix(0.35135153,0,0,0.35135153,-17.203685,-0.9093047)" />
  </defs>
  <metadata
     id="metadata7">
    <rdf:RDF>
      <cc:Work
         rdf:about="">
        <dc:format>image/svg+xml</dc:format>
        <dc:type
           rdf:resource="http://purl.org/dc/dcmitype/StillImage" />
        <dc:title />
      </cc:Work>
    </rdf:RDF>
  </metadata>
  <path
     d="M 8,0.50000007 C 3.8617571,0.50000007 0.49999994,3.8617572 0.49999994,8 c 0,4.138243 3.36175716,7.5 7.50000006,7.5 4.138243,0 7.500007,-3.361757 7.5,-7.5 C 15.5,3.8617572 12.138243,0.50000007 8,0.50000007 z"
     id="path2555-7-8-5-0"
     style="opacity:1;color:#000000;fill:#353945;fill-opacity:1;fill-rule:nonzero;stroke:none;stroke-width:0.99999982;marker:none;visibility:visible;display:inline;overflow:visible;enable-background:accumulate" />
  <g
     id="g2830"
     transform="matrix(0.12216229,0,0,0.12216229,0.15406667,0.13972301)"
     style="stroke-width:1.63716643;stroke-miterlimit:4;stroke-dasharray:none">
    <path
       id="path2828"
       d="M 85.66375,62.38375 C 84.67,51.097125 75.2,42.247125 63.6575,42.247125 c -3.325,0 -6.48,0.73975 -9.30625,2.055625 l -5.25625,-9.419 c 4.38875,-2.17275 9.3325,-3.400875 14.5625,-3.400875 3.04125,0 5.98375,0.422375 8.77875,1.193875 0.49375,3.0395 2.2975,5.839875 5.17375,7.5 2.87125,1.65525 6.19375,1.82125 9.07,0.734875 5.5925,5.5005 9.23375,12.981 9.7625,21.3135 L 85.66375,62.38375 Z"
       style="fill:#ffffff;fill-opacity:1;fill-rule:nonzero;stroke:#ffffff;stroke-width:1.63716643;stroke-miterlimit:4;stroke-dasharray:none;stroke-opacity:1"
       inkscape:connector-curvature="0" />
    <path
       id="path2826"
       d="M 86.68,87.774875 C 83.80375,86.6885 80.48375,86.852 77.61,88.50975 c -2.87625,1.662625 -4.68,4.4605 -5.17375,7.5 -2.795,0.774 -5.7375,1.19625 -8.77875,1.19625 -5.23,0 -10.17375,-1.228 -14.5625,-3.40325 l 5.25625,-9.419 c 2.82625,1.316 5.98125,2.05575 9.30625,2.05575 11.5425,0 21.0125,-8.84775 22.00375,-20.13675 l 10.78125,0.158625 c -0.52875,8.332625 -4.17,15.813 -9.7625,21.3135 z"
       style="fill:#ffffff;fill-opacity:1;fill-rule:nonzero;stroke:#ffffff;stroke-width:1.63716643;stroke-miterlimit:4;stroke-dasharray:none;stroke-opacity:1"
       inkscape:connector-curvature="0" />
    <path
       id="path2824"
       d="m 86.7012,104.25688 c -3.6175,2.08975 -8.24125,0.84962 -10.32875,-2.76863 -2.09,-3.61575 -0.85,-8.23975 2.76875,-10.3295 3.615,-2.0875 8.24125,-0.84725 10.32875,2.7685 2.09,3.61813 0.85,8.24213 -2.76875,10.32963 z"
       style="fill:#ffffff;fill-opacity:1;fill-rule:nonzero;stroke:#ffffff;stroke-width:1.63716643;stroke-miterlimit:4;stroke-dasharray:none;stroke-opacity:1"
       inkscape:connector-curvature="0" />
    <path
       id="path2822"
       d="m 31.83875,72.582 c 2.3875,-1.94825 3.91625,-4.9145 3.91625,-8.23775 0,-3.32525 -1.52875,-6.2915 -3.91625,-8.23975 2.04625,-7.9175 6.97,-14.67775 13.58875,-19.101625 l 5.53,9.26275 c -5.68125,3.999 -9.395,10.603 -9.395,18.078625 0,7.476 3.71375,14.080125 9.395,18.076625 L 45.4275,91.686 C 38.80625,87.26225 33.8825,80.502 31.83875,72.582 Z"
       style="fill:#ffffff;fill-opacity:1;fill-rule:nonzero;stroke:#ffffff;stroke-width:1.63716643;stroke-miterlimit:4;stroke-dasharray:none;stroke-opacity:1"
       inkscape:connector-curvature="0" />
    <path
       id="path2820"
       d="m 25.1325,71.90825 c -4.18,0 -7.56625,-3.38625 -7.56625,-7.564 0,-4.17975 3.38625,-7.565875 7.56625,-7.565875 4.17625,0 7.5625,3.386125 7.5625,7.565875 0,4.17775 -3.38625,7.564 -7.5625,7.564 z"
       style="fill:#ffffff;fill-opacity:1;fill-rule:nonzero;stroke:#ffffff;stroke-width:1.63716643;stroke-miterlimit:4;stroke-dasharray:none;stroke-opacity:1"
       inkscape:connector-curvature="0" />
    <path
       id="path2818"
       d="m 76.37,27.19825 c 2.09,-3.618125 6.71375,-4.858375 10.33125,-2.771 3.61875,2.089875 4.85625,6.713875 2.76625,10.332 -2.0875,3.61825 -6.71125,4.856 -10.32875,2.766125 C 75.5225,35.438 74.2825,30.814 76.37,27.19825 Z"
       style="fill:#ffffff;fill-opacity:1;fill-rule:nonzero;stroke:#ffffff;stroke-width:1.63716643;stroke-miterlimit:4;stroke-dasharray:none;stroke-opacity:1"
       inkscape:connector-curvature="0" />
  </g>
</svg>
