<?xml version="1.0" encoding="UTF-8" standalone="no"?>
<!-- Created with Inkscape (http://www.inkscape.org/) -->

<svg
   xmlns:dc="http://purl.org/dc/elements/1.1/"
   xmlns:cc="http://creativecommons.org/ns#"
   xmlns:rdf="http://www.w3.org/1999/02/22-rdf-syntax-ns#"
   xmlns:svg="http://www.w3.org/2000/svg"
   xmlns="http://www.w3.org/2000/svg"
   xmlns:sodipodi="http://sodipodi.sourceforge.net/DTD/sodipodi-0.dtd"
   xmlns:inkscape="http://www.inkscape.org/namespaces/inkscape"
   id="svg3187"
   height="16"
   width="16"
   version="1.0"
   inkscape:version="0.48.3.1 r9886"
   sodipodi:docname="1.svg">
  <defs
     id="defs10" />
  <sodipodi:namedview
     pagecolor="#ffffff"
     bordercolor="#666666"
     borderopacity="1"
     objecttolerance="10"
     gridtolerance="10"
     guidetolerance="10"
     inkscape:pageopacity="0"
     inkscape:pageshadow="2"
     inkscape:window-width="1855"
     inkscape:window-height="1056"
     id="namedview8"
     showgrid="false"
     inkscape:zoom="55.375"
     inkscape:cx="5.1106095"
     inkscape:cy="6.5553047"
     inkscape:window-x="65"
     inkscape:window-y="24"
     inkscape:window-maximized="1"
     inkscape:current-layer="svg3187" />
  <metadata
     id="metadata10">
    <rdf:RDF>
      <cc:Work
         rdf:about="">
        <dc:format>image/svg+xml</dc:format>
        <dc:type
           rdf:resource="http://purl.org/dc/dcmitype/StillImage" />
        <dc:title></dc:title>
      </cc:Work>
    </rdf:RDF>
  </metadata>
  <path
     id="path2496-2"
     style="opacity:0.3;fill:none;stroke:#000000;stroke-width:1.85833633;stroke-linecap:round"
     d="M 12.532728,12.961896 12.00719,12.436266 M 12.07288,4.2235339 12.532818,3.7638744 M 3.8598721,4.2895049 3.3343346,3.7638744 M 1.4292611,8.3630711 h 0.9291682 m 11.1500177,0 h 0.929169 M 7.9334383,2.788062 V 1.8588938"
     inkscape:connector-curvature="0" />
  <path
     id="path2496"
     style="fill:#a96f6f;fill-opacity:1;stroke:#ffffff;stroke-width:1.85833633;stroke-linecap:round;stroke-opacity:1"
     d="M 12.532728,12.032728 12.006819,11.506819 M 12.07279,3.294087 12.532728,2.8341488 M 3.8597792,3.3597792 3.3342417,2.8341488 M 1.4291682,7.4333454 h 0.9291681 m 11.1500177,0 h 0.929169 M 7.9333454,1.8583363 V 0.92916817"
     inkscape:connector-curvature="0" />
  <path
     id="path2876-6-6-4-0"
     style="fill:#dfdbd2"
     d="m 7.9333454,3.7166727 c -2.0526254,0 -3.7166727,1.6640473 -3.7166727,3.7166727 0,0.2663925 0.033822,0.5334354 0.087156,0.7839392 0.5398467,-0.4901362 1.2090336,-0.8420122 2.0034724,-0.8420122 1.5006995,0 2.717724,1.1030155 2.9617235,2.5262224 0.2862114,0.1637752 0.5258164,0.3818322 0.7549494,0.6097662 0.0048,0.0048 0.02419,-0.0049 0.02904,0 0.978413,-0.6690007 1.597239,-1.8027717 1.597239,-3.0774046 0,-2.0526254 -1.66414,-3.7166727 -3.7166723,-3.7166727 z"
     inkscape:connector-curvature="0"
     sodipodi:nodetypes="cscscccscc" />
  <path
     transform="matrix(1.0527405,0,0,0.9990813,-0.95435101,0.15335791)"
     d="m 11.972912,8.2167044 a 3.5304739,3.7200904 0 1 1 -7.0609478,0 3.5304739,3.7200904 0 1 1 7.0609478,0 z"
     sodipodi:ry="3.7200904"
     sodipodi:rx="3.5304739"
     sodipodi:cy="8.2167044"
     sodipodi:cx="8.4424381"
     id="path3757"
     style="opacity:0.3;fill:#000000;fill-opacity:1;stroke:none"
     sodipodi:type="arc" />
  <path
     sodipodi:type="arc"
     style="fill:#ffffff;fill-opacity:1;stroke:none"
     id="path2987"
     sodipodi:cx="8.4424381"
     sodipodi:cy="8.2167044"
     sodipodi:rx="3.5304739"
     sodipodi:ry="3.7200904"
     d="m 11.972912,8.2167044 a 3.5304739,3.7200904 0 1 1 -7.0609478,0 3.5304739,3.7200904 0 1 1 7.0609478,0 z"
     transform="matrix(1.0527405,0,0,0.9990813,-0.95435101,-0.77581027)" />
  <path
     id="path2496-2-4"
     style="opacity:0.3;fill:none;stroke:#000000;stroke-width:1.85833633;stroke-linecap:round"
     d="m 3.8619574,12.706192 -0.4599383,0.459659 m 4.5993825,0.975813 0,0.929168"
     inkscape:connector-curvature="0"
     sodipodi:nodetypes="cccc" />
  <path
     id="path2496-0"
     style="fill:#ffffff;fill-opacity:1;stroke:#a8966f;stroke-width:1.85833633;stroke-linecap:round;stroke-opacity:1"
     d="m 3.8618644,11.776466 -0.4599382,0.459938 m 4.5993825,0.975813 0,0.929168"
     inkscape:connector-curvature="0"
     sodipodi:nodetypes="cccc" />
  <path
     sodipodi:nodetypes="cccc"
     inkscape:connector-curvature="0"
     d="m 3.8618644,11.776466 -0.4599382,0.459938 m 4.5993825,0.975813 0,0.929168"
     style="fill:#ffffff;fill-opacity:1;stroke:#ffffff;stroke-width:1.85833633;stroke-linecap:round;stroke-opacity:1"
     id="path3778" />
</svg>
