<?xml version="1.0" encoding="UTF-8" standalone="no"?>
<!-- Created with Inkscape (http://www.inkscape.org/) -->

<svg
   xmlns:dc="http://purl.org/dc/elements/1.1/"
   xmlns:cc="http://creativecommons.org/ns#"
   xmlns:rdf="http://www.w3.org/1999/02/22-rdf-syntax-ns#"
   xmlns:svg="http://www.w3.org/2000/svg"
   xmlns="http://www.w3.org/2000/svg"
   xmlns:xlink="http://www.w3.org/1999/xlink"
   xmlns:sodipodi="http://sodipodi.sourceforge.net/DTD/sodipodi-0.dtd"
   xmlns:inkscape="http://www.inkscape.org/namespaces/inkscape"
   version="1.0"
   width="20"
   height="16"
   id="svg3184"
   inkscape:version="0.48.3.1 r9886"
   sodipodi:docname="user-available-panel.svg">
  <metadata
     id="metadata12">
    <rdf:RDF>
      <cc:Work
         rdf:about="">
        <dc:format>image/svg+xml</dc:format>
        <dc:type
           rdf:resource="http://purl.org/dc/dcmitype/StillImage" />
        <dc:title></dc:title>
      </cc:Work>
    </rdf:RDF>
  </metadata>
  <sodipodi:namedview
     pagecolor="#ffffff"
     bordercolor="#666666"
     borderopacity="1"
     objecttolerance="10"
     gridtolerance="10"
     guidetolerance="10"
     inkscape:pageopacity="0"
     inkscape:pageshadow="2"
     inkscape:window-width="1153"
     inkscape:window-height="722"
     id="namedview10"
     showgrid="true"
     inkscape:zoom="13.227273"
     inkscape:cx="11"
     inkscape:cy="12.587628"
     inkscape:window-x="345"
     inkscape:window-y="24"
     inkscape:window-maximized="0"
     inkscape:current-layer="svg3184"
     showguides="true"
     inkscape:guide-bbox="true" />
  <defs
     id="defs3186">
    <linearGradient
       id="linearGradient3587-6-5-3">
      <stop
         id="stop3589-9-2-2"
         style="stop-color:#ffffff;stop-opacity:1"
         offset="0" />
      <stop
         id="stop3591-7-4-73"
         style="stop-color:#e6e6e6;stop-opacity:1"
         offset="1" />
    </linearGradient>
    <linearGradient
       x1="159.68553"
       y1="14.403693"
       x2="159.68553"
       y2="38.279892"
       id="linearGradient2388"
       xlink:href="#linearGradient3587-6-5-3"
       gradientUnits="userSpaceOnUse"
       gradientTransform="matrix(-0.4100229,0,0,0.5447147,76.029995,-6.8459034)" />
  </defs>
  <path
     d="m 8.5,2 c 4.692,0 8.5,2.9120003 8.5,6.5 0,0.550338 -0.112625,1.083288 -0.28125,1.59375 L 20,12.90625 14.625,13 C 13.077862,14.23217 10.908496,15 8.5,15 3.808,15 -9.999998e-7,12.088 0,8.5 0,4.9120001 3.808,1.9999999 8.5,2 z"
     id="path2410"
     style="opacity:0.5;fill:#000000;fill-opacity:1;fill-rule:nonzero;stroke:none;stroke-width:1;marker:none;visibility:visible;display:inline;overflow:visible;enable-background:accumulate"
     inkscape:connector-curvature="0" />
  <path
     d="M 8.5,1 C 13.192,1 17,3.9120003 17,7.5 17,8.050338 16.887375,8.583288 16.71875,9.09375 L 20,11.90625 14.625,12 C 13.077862,13.23217 10.908496,14 8.5,14 3.808,14 -9.999998e-7,11.088 0,7.5 0,3.9120001 3.808,0.9999999 8.5,1 z"
     id="path2396"
     style="opacity:1;fill:url(#linearGradient2388);fill-opacity:1;fill-rule:nonzero;stroke:none;stroke-width:1;marker:none;visibility:visible;display:inline;overflow:visible;enable-background:accumulate"
     inkscape:connector-curvature="0" />
  <path
     sodipodi:type="arc"
     style="opacity:0.5;fill:#000000;fill-opacity:1;stroke:none"
     id="path2989"
     sodipodi:cx="-16.972507"
     sodipodi:cy="14.33677"
     sodipodi:rx="1.927835"
     sodipodi:ry="2.1924398"
     d="m -15.044672,14.33677 a 1.927835,2.1924398 0 1 1 -3.85567,0 1.927835,2.1924398 0 1 1 3.85567,0 z"
     transform="matrix(0.77807489,0,0,0.6841693,17.503476,-1.8104958)" />
  <path
     transform="matrix(0.77807489,0,0,0.6841693,21.503476,-1.8104958)"
     d="m -15.044672,14.33677 a 1.927835,2.1924398 0 1 1 -3.85567,0 1.927835,2.1924398 0 1 1 3.85567,0 z"
     sodipodi:ry="2.1924398"
     sodipodi:rx="1.927835"
     sodipodi:cy="14.33677"
     sodipodi:cx="-16.972507"
     id="path3759"
     style="opacity:0.5;fill:#000000;fill-opacity:1;stroke:none"
     sodipodi:type="arc" />
  <path
     sodipodi:type="arc"
     style="opacity:0.5;fill:#000000;fill-opacity:1;stroke:none"
     id="path3761"
     sodipodi:cx="-16.972507"
     sodipodi:cy="14.33677"
     sodipodi:rx="1.927835"
     sodipodi:ry="2.1924398"
     d="m -15.044672,14.33677 a 1.927835,2.1924398 0 1 1 -3.85567,0 1.927835,2.1924398 0 1 1 3.85567,0 z"
     transform="matrix(0.77807489,0,0,0.6841693,25.503476,-1.8104958)" />
</svg>
