<?xml version="1.0" encoding="UTF-8" standalone="no"?>
<!-- Created with Inkscape (http://www.inkscape.org/) -->

<svg
   xmlns:dc="http://purl.org/dc/elements/1.1/"
   xmlns:cc="http://creativecommons.org/ns#"
   xmlns:rdf="http://www.w3.org/1999/02/22-rdf-syntax-ns#"
   xmlns:svg="http://www.w3.org/2000/svg"
   xmlns="http://www.w3.org/2000/svg"
   xmlns:sodipodi="http://sodipodi.sourceforge.net/DTD/sodipodi-0.dtd"
   xmlns:inkscape="http://www.inkscape.org/namespaces/inkscape"
   width="16"
   height="16"
   id="svg2"
   sodipodi:version="0.32"
   inkscape:version="0.48.2 r9819"
   sodipodi:docname="weather-snow.svg"
   version="1.0"
   inkscape:export-filename="/home/andrew/Desktop/logo_lights_mod.png"
   inkscape:export-xdpi="90"
   inkscape:export-ydpi="90"
   inkscape:output_extension="org.inkscape.output.svg.inkscape">
  <defs
     id="defs4" />
  <sodipodi:namedview
     id="base"
     pagecolor="#ffffff"
     bordercolor="#666666"
     borderopacity="1.0"
     gridtolerance="10000"
     guidetolerance="10"
     objecttolerance="10"
     inkscape:pageopacity="0.0"
     inkscape:pageshadow="2"
     inkscape:zoom="34.5"
     inkscape:cx="8"
     inkscape:cy="8"
     inkscape:document-units="px"
     inkscape:current-layer="layer1"
     inkscape:window-width="1278"
     inkscape:window-height="710"
     inkscape:window-x="368"
     inkscape:window-y="24"
     width="48px"
     height="48px"
     showguides="true"
     inkscape:guide-bbox="true"
     showgrid="false"
     inkscape:window-maximized="0" />
  <metadata
     id="metadata7">
    <rdf:RDF>
      <cc:Work
         rdf:about="">
        <dc:format>image/svg+xml</dc:format>
        <dc:type
           rdf:resource="http://purl.org/dc/dcmitype/StillImage" />
      </cc:Work>
    </rdf:RDF>
  </metadata>
  <g
     inkscape:label="Layer 1"
     inkscape:groupmode="layer"
     id="layer1"
     transform="translate(-9.618716,-166.6052)">
    <path
       style="opacity:0.3;fill:#000000;fill-opacity:1;stroke:#000000;stroke-width:0.29411623;stroke-miterlimit:4;stroke-opacity:1;stroke-dasharray:none"
       d="m 17.398331,181.8297 c 0.217302,-0.47134 -0.257468,-1.04512 -0.519043,-0.36069 -0.565405,0.49642 -0.870133,-0.59584 -0.152154,-0.64487 0.472712,-0.19198 1.072273,-1.30266 0.428736,-1.36377 -0.599736,0.33204 -1.17173,1.4759 -1.817197,1.26301 0.08243,-0.83134 1.195231,-1.07763 1.646468,-1.7278 0.541158,-0.213 0.692611,-1.75463 -0.06973,-1.10168 -0.20508,0.38076 -1.180877,1.11596 -1.208599,0.38709 0.447637,-0.67201 1.414496,-0.91677 1.677771,-1.71108 0.08492,-0.45562 0.153193,-1.54569 -0.558648,-1.00356 -0.921858,0.23493 -1.159725,1.19022 -1.302808,1.99641 0.110532,0.64023 -0.970273,0.93979 -0.730908,0.14322 0.207462,-0.36946 0.689643,-1.70816 -0.173482,-1.12882 -0.71373,0.57886 -0.750914,1.57572 -1.000975,2.39231 0.12863,0.45909 -0.720717,1.04239 -0.596924,0.31992 0.05058,-0.60172 0.590638,-1.36185 0.349911,-1.85798 -0.938755,-0.006 -0.889396,1.21939 -1.291977,1.75928 -0.790525,0.0866 0.143333,-1.35726 -0.671629,-0.78933 -0.590846,0.40865 -0.614237,-0.57618 -0.02664,-0.56478 0.603991,-0.41405 -1.18624,-0.10074 -0.62623,-0.83638 0.687142,0.0283 1.497813,0.62039 2.166878,0.10351 0.450826,-0.6455 -0.861094,-0.47655 -1.256169,-0.68501 -0.496245,0.0854 -1.363815,-0.55145 -0.401912,-0.59302 0.87658,0.28951 1.808947,0.46559 2.715153,0.68769 0.5667,-0.10311 1.186947,-0.84847 0.198166,-0.81174 -0.389886,0.023 -1.468142,-0.24393 -0.866113,-0.67659 0.985765,0.1077 2.000384,0.75777 2.981752,0.27884 0.536923,-0.10386 0.963211,-0.72208 0.178366,-0.8568 -0.754887,-0.5436 -1.677359,-0.19293 -2.458765,0.0733 -0.389489,0.33461 -1.367275,0.0243 -0.676849,-0.42023 0.377901,-0.1961 1.579654,-0.0363 1.344371,-0.61678 -0.787127,-0.62735 -1.768697,-0.0358 -2.615184,0.0907 -0.376882,0.12971 -1.194858,0.52448 -1.243717,-0.1528 0.755951,-0.26895 1.648053,-0.17215 2.319721,-0.64919 -0.630263,-0.71373 -1.579512,-0.15255 -2.321225,-0.0738 -0.70372,-0.58613 1.322301,-0.53076 0.335713,-1.02099 -0.659771,-0.18796 0.312005,-0.88228 0.518563,-0.27472 0.351489,-0.16545 -0.213761,-1.38315 0.518759,-0.85335 0.229807,0.66709 0.338526,1.58605 1.148584,1.79752 0.434713,-0.49597 -0.422478,-1.39699 -0.310887,-2.0847 0.24464,-0.69525 0.763209,0.54045 0.710283,0.90074 0.185374,0.73137 0.285815,1.75165 1.150527,2.0041 0.830818,-0.16915 -0.825078,-1.58769 0.292506,-1.76417 0.607398,0.77755 0.294725,2.0734 1.27896,2.58952 0.315607,0.3236 1.204773,0.5048 0.941142,-0.22096 0.278125,-0.91147 -0.648002,-1.47728 -1.249053,-1.96605 -0.511286,-0.14128 -0.751035,-1.01142 0.0097,-0.70019 0.39096,0.16885 1.000152,1.32313 1.264831,0.70683 0.164537,-0.84627 -0.648967,-1.3054 -1.175004,-1.79313 -0.287515,-0.37301 -1.052956,-0.7422 -1.027994,-1.12446 0.67778,-0.23089 1.072106,0.732 1.591767,1.04132 0.661775,0.73108 0.815238,-0.46119 0.297922,-0.78555 -0.354442,-0.21247 -1.408708,-1.12779 -0.412312,-1.01043 0.383668,0.0957 0.779903,0.72172 0.642862,0.0326 0.154927,-0.52691 0.688484,-0.30196 0.540774,0.19798 0.320173,0.41037 0.929528,-0.91536 1.133077,-0.0472 -0.379709,0.55166 -1.654015,1.14027 -1.00724,1.8938 0.640913,-0.28491 0.963028,-1.03639 1.635007,-1.30757 0.83324,-0.0413 -0.43389,0.8879 -0.672721,1.1203 -0.477029,0.51607 -1.338846,0.91268 -1.120431,1.75823 0.452337,0.80951 0.961707,-1.17507 1.67825,-0.66624 -0.07874,0.9062 -1.240731,1.03118 -1.628034,1.75373 -0.04829,0.46357 -0.291117,1.79089 0.557291,1.22507 1.001723,-0.26205 1.197821,-1.22085 1.324129,-2.08687 -0.0518,-0.53818 0.851194,-0.78578 0.670927,-0.12638 -0.240025,0.39692 -0.613428,1.59014 0.287414,1.08925 0.779585,-0.49334 0.718708,-1.52883 0.987445,-2.31079 -0.04466,-0.38094 0.600073,-1.04301 0.609738,-0.35288 -0.103107,0.61987 -0.691849,1.4185 -0.475227,1.92849 0.862962,0.0472 1.099562,-0.9547 1.15062,-1.59641 0.423031,-0.45421 0.889504,0.18897 0.405622,0.52357 0.05045,0.68626 0.870167,-0.47713 0.884857,0.31184 -0.02509,0.36478 -0.857189,0.45263 -0.152742,0.61695 0.543493,-0.095 0.800238,0.59467 0.121156,0.56078 -0.672465,-0.13999 -1.798419,-0.58283 -2.130834,0.23919 0.708293,0.31161 1.610545,0.18199 2.287771,0.61769 -0.169927,0.68625 -1.269172,-0.0941 -1.810796,-0.10955 -0.599177,-0.27272 -2.08481,-0.39875 -2.046451,0.41741 0.470736,0.22748 1.721037,-0.0283 1.473229,0.81253 -0.970003,-0.0666 -1.930105,-0.7763 -2.902132,-0.32722 -0.420872,0.0583 -1.108249,0.69043 -0.332758,0.82911 0.726854,0.6486 1.782765,0.2873 2.557149,-0.0552 0.614461,-0.23014 1.029884,0.54501 0.194445,0.5372 -0.405043,-0.0244 -1.427586,0.32499 -0.638748,0.68232 0.663623,0.40954 1.406827,-0.10168 2.094974,-0.17741 0.443743,0.0234 1.534436,-0.68684 1.436456,0.0242 -0.624496,0.42566 -1.505409,0.25454 -2.201129,0.57918 -0.349675,0.3783 0.853474,0.67458 1.164446,0.45006 0.341751,-0.30933 1.74998,-0.18512 1.043981,0.33398 -0.321131,-0.0135 -1.026869,0.20029 -0.356973,0.40163 0.626823,0.30543 -0.393031,0.79579 -0.556678,0.26737 -0.19802,0.2913 0.343725,1.31668 -0.407687,0.94088 -0.2695,-0.66598 -0.371926,-1.78982 -1.334597,-1.7528 -0.08423,0.80097 0.591833,1.48227 0.542036,2.26266 -0.893794,0.017 -0.593411,-1.23153 -0.899905,-1.80439 -0.02664,-0.57712 -0.884803,-1.80289 -1.359452,-1.16608 0.07117,0.49117 0.883266,1.47611 -0.01308,1.58729 -0.561055,-0.75816 -0.249522,-1.98854 -1.157791,-2.5208 -0.285288,-0.32928 -1.179406,-0.61959 -0.950692,0.13084 -0.262309,0.89359 0.594334,1.51165 1.209651,1.98911 0.527553,0.17929 0.496515,1.12722 -0.124042,0.69428 -0.308782,-0.45105 -1.318863,-1.31847 -1.098707,-0.19506 0.261615,0.72532 1.0112,1.10191 1.497941,1.66473 0.308296,0.22955 0.968263,0.89089 0.182183,0.77138 -0.613874,-0.36409 -0.977854,-1.24441 -1.723891,-1.28624 -0.374009,0.62026 0.39707,1.15354 0.82816,1.50151 0.739063,0.42593 -0.253709,0.86812 -0.49018,0.269 -0.778756,-0.66528 0.0048,1.02268 -0.853023,0.56296 z"
       id="path30942"
       inkscape:connector-curvature="0" />
    <path
       inkscape:connector-curvature="0"
       id="path3751"
       d="m 17.398331,181.16375 c 0.217302,-0.47134 -0.257468,-1.04513 -0.519043,-0.3607 -0.565405,0.49641 -0.870133,-0.59585 -0.152154,-0.64487 0.472712,-0.19198 1.072273,-1.30266 0.428736,-1.36377 -0.599736,0.33203 -1.17173,1.4759 -1.817197,1.263 0.08243,-0.83134 1.195231,-1.07761 1.646468,-1.7278 0.541158,-0.213 0.692611,-1.75462 -0.06973,-1.10168 -0.20508,0.38076 -1.180877,1.11598 -1.208599,0.3871 0.447637,-0.67202 1.414496,-0.91677 1.677771,-1.71108 0.08492,-0.45562 0.153193,-1.54569 -0.558648,-1.00356 -0.921858,0.23493 -1.159725,1.19022 -1.302808,1.99641 0.110532,0.64022 -0.970273,0.93979 -0.730908,0.14322 0.207462,-0.36947 0.689643,-1.70816 -0.173482,-1.12882 -0.71373,0.57886 -0.750914,1.57572 -1.000975,2.39231 0.12863,0.45909 -0.720717,1.04238 -0.596924,0.31992 0.05058,-0.60172 0.590638,-1.36185 0.349911,-1.85799 -0.938755,-0.006 -0.889396,1.2194 -1.291977,1.75929 -0.790525,0.0866 0.143333,-1.35726 -0.671629,-0.78933 -0.590846,0.40865 -0.614237,-0.57618 -0.02664,-0.56478 0.603991,-0.41405 -1.18624,-0.10074 -0.62623,-0.83638 0.687142,0.0283 1.497813,0.62038 2.166878,0.10351 0.450826,-0.6455 -0.861094,-0.47655 -1.256169,-0.68501 -0.496245,0.0854 -1.363815,-0.55146 -0.401912,-0.59302 0.87658,0.28951 1.808947,0.46558 2.715153,0.68768 0.5667,-0.1031 1.186947,-0.84847 0.198166,-0.81173 -0.389886,0.023 -1.468142,-0.24393 -0.866113,-0.6766 0.985765,0.10771 2.000384,0.75778 2.981752,0.27885 0.536923,-0.10386 0.963211,-0.72208 0.178366,-0.8568 -0.754887,-0.5436 -1.677359,-0.19293 -2.458765,0.0733 -0.389489,0.33461 -1.367275,0.0243 -0.676849,-0.42023 0.377901,-0.1961 1.579654,-0.0363 1.344371,-0.61679 -0.787127,-0.62735 -1.768697,-0.0358 -2.615184,0.0907 -0.376882,0.12971 -1.194858,0.5245 -1.243717,-0.15278 0.755951,-0.26896 1.648053,-0.17217 2.319721,-0.6492 -0.630263,-0.71374 -1.579512,-0.15256 -2.321225,-0.0738 -0.70372,-0.58611 1.322301,-0.53075 0.335713,-1.02099 -0.659771,-0.18795 0.312005,-0.88227 0.518563,-0.27472 0.351489,-0.16544 -0.213761,-1.38314 0.518759,-0.85334 0.229807,0.6671 0.338526,1.58605 1.148584,1.79752 0.434713,-0.49597 -0.422478,-1.39699 -0.310887,-2.08469 0.24464,-0.69526 0.763209,0.54044 0.710283,0.90074 0.185374,0.73137 0.285815,1.75165 1.150527,2.00409 0.830818,-0.16916 -0.825078,-1.58768 0.292506,-1.76416 0.607398,0.77754 0.294725,2.07339 1.27896,2.58951 0.315607,0.3236 1.204773,0.5048 0.941142,-0.22097 0.278125,-0.91146 -0.648002,-1.47728 -1.249053,-1.96603 -0.511286,-0.14129 -0.751035,-1.01143 0.0097,-0.70021 0.39096,0.16885 1.000152,1.32313 1.264831,0.70684 0.164537,-0.84627 -0.648967,-1.3054 -1.175004,-1.79313 -0.287515,-0.373 -1.052956,-0.7422 -1.027994,-1.12446 0.67778,-0.23089 1.072106,0.732 1.591767,1.04132 0.661775,0.73108 0.815238,-0.4612 0.297922,-0.78555 -0.354442,-0.21247 -1.408708,-1.1278 -0.412312,-1.01042 0.383668,0.0957 0.779903,0.7217 0.642862,0.0326 0.154927,-0.52692 0.688484,-0.30197 0.540774,0.19798 0.320173,0.41036 0.929528,-0.91536 1.133077,-0.0472 -0.379709,0.55166 -1.654015,1.14027 -1.00724,1.8938 0.640913,-0.28491 0.963028,-1.0364 1.635007,-1.30757 0.83324,-0.0413 -0.43389,0.8879 -0.672721,1.12031 -0.477029,0.51606 -1.338846,0.91267 -1.120431,1.75822 0.452337,0.8095 0.961707,-1.17507 1.67825,-0.66625 -0.07874,0.90621 -1.240731,1.03119 -1.628034,1.75374 -0.04829,0.46356 -0.291117,1.79088 0.557291,1.22507 1.001723,-0.26205 1.197821,-1.22085 1.324129,-2.08688 -0.0518,-0.53817 0.851194,-0.78578 0.670927,-0.12636 -0.240025,0.39692 -0.613428,1.59013 0.287414,1.08925 0.779585,-0.49336 0.718708,-1.52885 0.987445,-2.31081 -0.04466,-0.38093 0.600073,-1.04301 0.609738,-0.35287 -0.103107,0.61987 -0.691849,1.41851 -0.475227,1.92849 0.862962,0.0472 1.099562,-0.95471 1.15062,-1.59641 0.423031,-0.45421 0.889504,0.18897 0.405622,0.52357 0.05045,0.68627 0.870167,-0.47713 0.884857,0.31185 -0.02509,0.36477 -0.857189,0.45261 -0.152742,0.61693 0.543493,-0.095 0.800238,0.59467 0.121156,0.56079 -0.672465,-0.13999 -1.798419,-0.58282 -2.130834,0.23918 0.708293,0.31162 1.610545,0.18199 2.287771,0.61769 -0.169927,0.68627 -1.269172,-0.0941 -1.810796,-0.10953 -0.599177,-0.27273 -2.08481,-0.39877 -2.046451,0.4174 0.470736,0.22748 1.721037,-0.0283 1.473229,0.81252 -0.970003,-0.0666 -1.930105,-0.77629 -2.902132,-0.32721 -0.420872,0.0583 -1.108249,0.69043 -0.332758,0.82911 0.726854,0.6486 1.782765,0.2873 2.557149,-0.0552 0.614461,-0.23015 1.029884,0.545 0.194445,0.53719 -0.405043,-0.0243 -1.427586,0.325 -0.638748,0.68233 0.663623,0.40955 1.406827,-0.10168 2.094974,-0.17741 0.443743,0.0234 1.534436,-0.68685 1.436456,0.0242 -0.624496,0.42566 -1.505409,0.25454 -2.201129,0.57918 -0.349675,0.3783 0.853474,0.67458 1.164446,0.45006 0.341751,-0.30933 1.74998,-0.18511 1.043981,0.33398 -0.321131,-0.0135 -1.026869,0.2003 -0.356973,0.40163 0.626823,0.30543 -0.393031,0.79579 -0.556678,0.26737 -0.19802,0.2913 0.343725,1.31667 -0.407687,0.94089 -0.2695,-0.66599 -0.371926,-1.78984 -1.334597,-1.75281 -0.08423,0.80096 0.591833,1.48226 0.542036,2.26267 -0.893794,0.017 -0.593411,-1.23155 -0.899905,-1.80441 -0.02664,-0.57711 -0.884803,-1.80289 -1.359452,-1.16607 0.07117,0.49118 0.883266,1.47611 -0.01308,1.58728 -0.561055,-0.75815 -0.249522,-1.98854 -1.157791,-2.52078 -0.285288,-0.32929 -1.179406,-0.6196 -0.950692,0.13083 -0.262309,0.89359 0.594334,1.51165 1.209651,1.98911 0.527553,0.17929 0.496515,1.12722 -0.124042,0.69428 -0.308782,-0.45105 -1.318863,-1.31847 -1.098707,-0.19507 0.261615,0.72533 1.0112,1.10193 1.497941,1.66475 0.308296,0.22953 0.968263,0.89088 0.182183,0.77137 -0.613874,-0.36409 -0.977854,-1.24441 -1.723891,-1.28623 -0.374009,0.62025 0.39707,1.15353 0.82816,1.50149 0.739063,0.42593 -0.253709,0.86812 -0.49018,0.26901 -0.778756,-0.66528 0.0048,1.02268 -0.853023,0.56296 z"
       style="fill:#ffffff;fill-opacity:1;stroke:#ffffff;stroke-width:0.29411623;stroke-miterlimit:4;stroke-opacity:1;stroke-dasharray:none" />
  </g>
</svg>
