<?xml version="1.0" encoding="UTF-8" standalone="no"?>
<!-- Created with Inkscape (http://www.inkscape.org/) -->

<svg
   xmlns:dc="http://purl.org/dc/elements/1.1/"
   xmlns:cc="http://creativecommons.org/ns#"
   xmlns:rdf="http://www.w3.org/1999/02/22-rdf-syntax-ns#"
   xmlns:svg="http://www.w3.org/2000/svg"
   xmlns="http://www.w3.org/2000/svg"
   xmlns:xlink="http://www.w3.org/1999/xlink"
   xmlns:sodipodi="http://sodipodi.sourceforge.net/DTD/sodipodi-0.dtd"
   xmlns:inkscape="http://www.inkscape.org/namespaces/inkscape"
   version="1.1"
   width="64"
   height="64"
   id="svg2679"
   inkscape:version="0.48.4 r9939"
   sodipodi:docname="48.svg">
  <metadata
     id="metadata51">
    <rdf:RDF>
      <cc:Work
         rdf:about="">
        <dc:format>image/svg+xml</dc:format>
        <dc:type
           rdf:resource="http://purl.org/dc/dcmitype/StillImage" />
        <dc:title></dc:title>
      </cc:Work>
    </rdf:RDF>
  </metadata>
  <sodipodi:namedview
     pagecolor="#ffffff"
     bordercolor="#666666"
     borderopacity="1"
     objecttolerance="10"
     gridtolerance="10"
     guidetolerance="10"
     inkscape:pageopacity="0"
     inkscape:pageshadow="2"
     inkscape:window-width="1524"
     inkscape:window-height="960"
     id="namedview49"
     showgrid="false"
     inkscape:zoom="4.9166667"
     inkscape:cx="24"
     inkscape:cy="24"
     inkscape:window-x="65"
     inkscape:window-y="24"
     inkscape:window-maximized="0"
     inkscape:current-layer="svg2679" />
  <defs
     id="defs2681">
    <linearGradient
       id="linearGradient3787">
      <stop
         id="stop3789"
         style="stop-color:#3c3c3c;stop-opacity:1"
         offset="0" />
      <stop
         id="stop3791"
         style="stop-color:#1e1e1e;stop-opacity:1"
         offset="1" />
    </linearGradient>
    <linearGradient
       id="linearGradient3449">
      <stop
         id="stop3451"
         style="stop-color:white;stop-opacity:1"
         offset="0" />
      <stop
         id="stop3453"
         style="stop-color:#9b9b9b;stop-opacity:0"
         offset="1" />
    </linearGradient>
    <linearGradient
       id="linearGradient3179">
      <stop
         id="stop3181"
         style="stop-color:white;stop-opacity:1"
         offset="0" />
      <stop
         id="stop3183"
         style="stop-color:white;stop-opacity:0"
         offset="1" />
    </linearGradient>
    <linearGradient
       id="linearGradient3165">
      <stop
         id="stop3167"
         style="stop-color:#1e1e1e;stop-opacity:1"
         offset="0" />
      <stop
         id="stop3173"
         style="stop-color:#8d8d8d;stop-opacity:1"
         offset="0.26635548" />
      <stop
         id="stop3169"
         style="stop-color:#eee;stop-opacity:1"
         offset="1" />
    </linearGradient>
    <linearGradient
       id="linearGradient3685">
      <stop
         id="stop3687"
         style="stop-color:white;stop-opacity:0"
         offset="0" />
      <stop
         id="stop3689"
         style="stop-color:black;stop-opacity:0.49803922"
         offset="0.77083331" />
      <stop
         id="stop3691"
         style="stop-color:black;stop-opacity:1"
         offset="1" />
    </linearGradient>
    <linearGradient
       id="linearGradient3155">
      <stop
         id="stop3157"
         style="stop-color:white;stop-opacity:1"
         offset="0" />
      <stop
         id="stop3159"
         style="stop-color:#9b9b9b;stop-opacity:1"
         offset="1" />
    </linearGradient>
    <linearGradient
       id="linearGradient3324">
      <stop
         id="stop3830"
         style="stop-color:white;stop-opacity:0.74901962"
         offset="0" />
      <stop
         id="stop3328"
         style="stop-color:white;stop-opacity:0"
         offset="1" />
    </linearGradient>
    <linearGradient
       id="linearGradient6672">
      <stop
         id="stop6674"
         style="stop-color:black;stop-opacity:1"
         offset="0" />
      <stop
         id="stop6676"
         style="stop-color:black;stop-opacity:0"
         offset="1" />
    </linearGradient>
    <radialGradient
       cx="25"
       cy="45"
       r="20"
       fx="25"
       fy="45"
       id="radialGradient4192"
       xlink:href="#linearGradient6672"
       gradientUnits="userSpaceOnUse"
       gradientTransform="matrix(0.69768743,0,0,0.17442185,-1.4884371,50.662579)" />
    <linearGradient
       x1="26.545988"
       y1="25.604839"
       x2="28.415308"
       y2="23.37669"
       id="linearGradient4195"
       xlink:href="#linearGradient3165"
       gradientUnits="userSpaceOnUse"
       gradientTransform="matrix(1.4966959,0,0,1.5342179,-2.5404226,-12.819455)" />
    <linearGradient
       x1="17.676191"
       y1="28.647619"
       x2="14.221087"
       y2="25.907072"
       id="linearGradient4285"
       xlink:href="#linearGradient3324"
       gradientUnits="userSpaceOnUse"
       gradientTransform="matrix(1.4966959,0,0,1.5342179,-5.6193396,-3.117354)" />
    <radialGradient
       cx="22.679699"
       cy="15.930861"
       r="17.406969"
       fx="22.679699"
       fy="15.930861"
       id="radialGradient4288"
       xlink:href="#linearGradient3787"
       gradientUnits="userSpaceOnUse"
       gradientTransform="matrix(-0.87131396,2.0847078,-0.78528491,-0.36173682,63.434369,-19.523061)" />
    <radialGradient
       cx="37.97171"
       cy="11.217601"
       r="10.024096"
       fx="37.97171"
       fy="11.217601"
       id="radialGradient4463"
       xlink:href="#linearGradient3449"
       gradientUnits="userSpaceOnUse"
       gradientTransform="matrix(1.5086596,0.02875046,-0.02717463,1.5464817,-4.499415,-11.601351)" />
    <linearGradient
       x1="34.204147"
       y1="17.333593"
       x2="39.000122"
       y2="23.11928"
       id="linearGradient4466"
       xlink:href="#linearGradient3179"
       gradientUnits="userSpaceOnUse"
       gradientTransform="matrix(1.3643531,0.02600041,-0.02457531,1.3985574,1.0758752,-9.7835983)"
       spreadMethod="reflect" />
    <linearGradient
       x1="32.302921"
       y1="18.646013"
       x2="34.589996"
       y2="16.08078"
       id="linearGradient4469"
       xlink:href="#linearGradient3165"
       gradientUnits="userSpaceOnUse"
       gradientTransform="matrix(1.3643531,0.02600041,-0.02457531,1.3985574,1.0758752,-9.7835983)" />
    <radialGradient
       cx="31.00248"
       cy="20.938292"
       r="0.91428572"
       fx="31.00248"
       fy="20.938292"
       id="radialGradient4472"
       xlink:href="#linearGradient3685"
       gradientUnits="userSpaceOnUse"
       gradientTransform="matrix(25.056544,0.47750135,-0.45851908,26.093871,-710.33714,-554.18739)" />
    <radialGradient
       cx="37.97171"
       cy="11.217601"
       r="10.024096"
       fx="37.97171"
       fy="11.217601"
       id="radialGradient4718"
       xlink:href="#linearGradient3155"
       gradientUnits="userSpaceOnUse"
       gradientTransform="matrix(1.5086596,0.02875046,-0.02717463,1.5464817,-4.499415,-11.601351)" />
  </defs>
  <path
     d="m 29.907498,58.511563 a 13.953749,3.4884371 0 0 1 -27.907498,0 13.953749,3.4884371 0 1 1 27.907498,0 z"
     id="path3412"
     style="opacity:0.4;fill:url(#radialGradient4192);fill-opacity:1;stroke:none"
     inkscape:connector-curvature="0" />
  <path
     d="M 31.58873,19.341472 4.7907498,52.422129 c 1.3684073,7.831816 9.1227172,8.182496 9.1227172,8.182496 L 45.272804,31.498321 31.58873,19.341472 z"
     id="path3320"
     style="fill:url(#radialGradient4288);fill-opacity:1;fill-rule:evenodd;stroke:none"
     inkscape:connector-curvature="0" />
  <path
     d="M 34.129454,24.548827 C 7.7840464,55.304788 6.6322367,55.925333 6.6322367,55.925333 c 0,0 -1.5647264,-1.644547 -1.6787604,-3.397935 L 30.953218,20.498771 c 0,0 0.902128,1.896269 3.176236,4.050056 z"
     id="path3322"
     style="opacity:0.23999999;fill:url(#linearGradient4285);fill-opacity:1;fill-rule:evenodd;stroke:none"
     inkscape:connector-curvature="0" />
  <path
     d="m 60.603447,16.2973 a 14.021742,13.678577 89.331447 1 1 -27.35281,-0.52126 14.021742,13.678577 89.331447 1 1 27.35281,0.52126 z"
     id="path2383"
     style="fill:url(#radialGradient4718);fill-opacity:1;stroke:none"
     inkscape:connector-curvature="0" />
  <path
     d="m 45.474648,2.2605141 c -2.079034,0.2868808 -0.106425,3.7547682 1.081136,1.842753 0.474191,-0.7506196 -0.10729,-2.0257508 -1.081136,-1.842753 z m 2.354695,0.043606 C 45.750309,2.5910005 47.722918,6.0588879 48.910479,4.1468727 49.38467,3.3962531 48.803189,2.121122 47.829343,2.3041198 z m -4.622179,1.0029257 c -2.005044,0.320032 -0.09393,3.6434926 1.087293,1.9073448 0.560181,-0.7528507 -0.07307,-2.1368156 -1.087293,-1.9073448 z m 7.020479,0.1308164 C 48.14861,3.7247426 50.121218,7.19263 51.30878,5.2806148 51.782971,4.5299952 51.20149,3.254864 50.227643,3.4378619 z m 2.354695,0.043606 c -2.079033,0.2868807 -0.106424,3.7547681 1.081137,1.842753 0.474191,-0.7506196 -0.10729,-2.0257508 -1.081137,-1.842753 z m -11.81708,0.8721089 c -2.079034,0.2868807 -0.106425,3.7547681 1.081136,1.8427529 0.474191,-0.7506195 -0.10729,-2.0257507 -1.081136,-1.8427529 z m 6.889663,0.2616328 c -2.005044,0.320032 -0.09393,3.6434926 1.087293,1.9073449 0.560181,-0.7528508 -0.07307,-2.1368157 -1.087293,-1.9073449 z m -2.223879,0.087211 c -2.079033,0.2868807 -0.106425,3.7547682 1.081137,1.842753 0.474192,-0.7506196 -0.107291,-2.0257508 -1.081137,-1.842753 z m -7.107691,0.9593199 c -2.079033,0.2868807 -0.106425,3.7547682 1.081137,1.842753 0.474192,-0.7506196 -0.10729,-2.0257508 -1.081137,-1.842753 z m 4.840207,0.087211 c -2.005044,0.320032 -0.09393,3.6434925 1.087293,1.9073448 0.560181,-0.7528507 -0.07307,-2.1368156 -1.087293,-1.9073448 z m 9.157148,0.1744215 C 50.241672,6.2102538 52.214281,9.6781416 53.401842,7.766126 53.876033,7.0155065 53.294552,5.7403753 52.320706,5.9233731 z m 2.354695,0.043606 c -2.079034,0.2868807 -0.106425,3.7547677 1.081136,1.842753 0.474191,-0.7506196 -0.10729,-2.0257509 -1.081136,-1.842753 z m -4.578574,0.043606 C 48.017793,6.2974648 49.990402,9.7653519 51.177963,7.853337 51.652155,7.1027174 51.070673,5.8275862 50.096827,6.0105841 z m -4.622179,1.0029257 c -2.005043,0.320032 -0.09394,3.6434919 1.087292,1.9073448 0.560182,-0.7528508 -0.07307,-2.1368157 -1.087292,-1.9073448 z m -4.883812,0.043606 C 38.6653,7.5078845 40.682208,10.656509 41.779739,8.9199341 42.343213,8.1333865 41.617711,6.7344603 40.590836,7.0571157 z m 7.238507,0 C 45.750309,7.3439964 47.722918,10.811884 48.910479,8.8998686 49.38467,8.1492491 48.803189,6.8741178 47.829343,7.0571157 z M 36.012262,8.0600409 C 34.019966,8.5400777 36.2108,11.739093 37.242941,9.8747186 37.736048,9.0795101 37.011618,7.7454564 36.012262,8.0600409 z m 2.354695,0.043606 c -1.992296,0.4800369 0.198538,3.6790525 1.230679,1.8146779 0.493107,-0.7952086 -0.231323,-2.1292623 -1.230679,-1.8146779 z m 4.447757,0.087211 C 40.822418,8.6708946 43.013252,11.869911 44.045393,10.005536 44.5385,9.2103269 43.81407,7.8762733 42.814714,8.1908578 z m 7.325718,0.1308164 C 48.061399,8.6085548 50.034007,12.076442 51.221569,10.164427 51.695761,9.4138076 51.114278,8.1386763 50.140432,8.3216742 z m 2.354695,0.043606 C 50.416094,8.6521605 52.388702,12.120048 53.576264,10.208033 54.050456,9.4574132 53.468973,8.182282 52.495127,8.3652798 z m 2.093062,0.1744218 c -1.992296,0.480037 0.198539,3.6790524 1.230679,1.8146774 0.493108,-0.7952076 -0.231321,-2.1292618 -1.230679,-1.8146774 z m 2.354695,0.043606 C 54.950588,9.0633441 57.141423,12.26236 58.173563,10.397985 58.666671,9.6027761 57.942242,8.2687227 56.942884,8.5833073 z m -11.81708,0.8721084 c -1.925538,0.450769 0.09137,3.5993913 1.188903,1.8628153 0.563474,-0.786546 -0.16203,-2.1854706 -1.188903,-1.8628153 z m 2.659933,0.1308165 C 45.756332,9.6706832 47.30947,13.18788 48.660189,11.58949 49.296952,10.90096 48.805779,9.4828 47.785737,9.5862322 z M 35.968656,10.589158 c -2.005043,0.320032 -0.09393,3.643494 1.087295,1.907344 0.560182,-0.75285 -0.07308,-2.136816 -1.087295,-1.907344 z m 2.354695,0.0436 c -2.079034,0.286884 -0.106425,3.75477 1.081141,1.842753 0.474192,-0.75062 -0.107291,-2.025751 -1.081141,-1.842753 z m 12.863612,0.261633 c -2.079034,0.286883 -0.106425,3.75477 1.081141,1.842753 0.474192,-0.750621 -0.107291,-2.025751 -1.081141,-1.842753 z m 6.889664,0 c -2.079034,0.286883 -0.106425,3.75477 1.081141,1.842753 0.474192,-0.750621 -0.107292,-2.025751 -1.081141,-1.842753 z m -4.578573,0.0436 c -2.079036,0.286883 -0.106426,3.754769 1.081139,1.842752 0.474193,-0.75062 -0.10729,-2.025752 -1.081139,-1.842752 z m 2.354695,0.0436 c -2.079036,0.286884 -0.106426,3.75477 1.081139,1.842753 0.474193,-0.750621 -0.10729,-2.025753 -1.081139,-1.842753 z M 40.765258,11.63568 c -2.045393,0.02637 -0.595113,3.640958 0.831843,1.998985 0.612165,-0.689339 0.177628,-2.051322 -0.831843,-1.998985 z m 3.488437,0.218027 c -1.950805,0.260667 -0.0917,3.348933 1.057468,1.66179 0.798039,0.278416 2.014496,0.947201 2.284675,-0.456249 0.05647,-1.199092 -1.573338,-1.437748 -2.172591,-0.598634 -0.469269,-0.06895 -0.579436,-1.027058 -1.169552,-0.606907 z m 4.447757,0.08722 c -2.018207,0.311117 -0.174832,3.735487 1.061602,1.985364 0.536833,-0.758265 -0.03059,-2.160858 -1.061602,-1.985364 z m -13.953749,0.95932 c -1.992295,0.480037 0.198538,3.679053 1.230679,1.81468 0.493109,-0.795209 -0.23132,-2.129265 -1.230679,-1.81468 z m 2.267484,0.174423 c -1.999459,0.422596 0.08181,3.672704 1.181097,1.782777 0.473966,-0.776217 -0.206904,-2.052378 -1.181097,-1.782777 z m 13.997355,0.130815 c -2.005045,0.320033 -0.09394,3.643493 1.087293,1.907345 0.560184,-0.75285 -0.07307,-2.136816 -1.087293,-1.907345 z m 2.354695,0.0436 c -2.045371,0.269649 -0.169152,3.717117 1.054863,1.883176 0.502376,-0.751655 -0.0493,-2.071676 -1.054863,-1.883176 z m 4.883811,0.08721 c -2.079034,0.286884 -0.106425,3.75477 1.081141,1.842753 0.474193,-0.750621 -0.107291,-2.02575 -1.081141,-1.842753 z m -2.572722,0.08721 c -1.992295,0.480037 0.198537,3.679053 1.230679,1.814679 0.493109,-0.795209 -0.231321,-2.129265 -1.230679,-1.814679 z m -13.910143,0.828504 c -1.965448,0.518013 0.0177,3.780831 1.18996,1.904394 0.4837,-0.809891 -0.145441,-2.155077 -1.18996,-1.904394 z m -2.223878,0.0436 c -1.899163,0.02953 -0.745687,3.504832 0.737428,2.196945 0.78744,-0.639237 0.342533,-2.238176 -0.737428,-2.196945 z m 9.113542,0.218027 c -1.976536,0.484655 0.205103,3.67479 1.232537,1.754215 0.460596,-0.809081 -0.240939,-2.051865 -1.232537,-1.754215 z m -13.822932,0.915716 c -2.029406,0.08445 -0.476268,3.601647 0.874452,2.003258 0.636762,-0.68853 0.145588,-2.106691 -0.874452,-2.003258 z m 2.354695,0.0436 c -1.899163,0.02953 -0.745687,3.504833 0.737428,2.196946 0.78744,-0.639238 0.342533,-2.238176 -0.737428,-2.196946 z m 13.997353,0.261633 c -2.029404,0.08445 -0.476267,3.601649 0.874452,2.003259 0.636763,-0.68853 0.14559,-2.106691 -0.874452,-2.003259 z m 2.354695,0.0436 c -2.045392,0.02637 -0.595112,3.640957 0.831844,1.998986 0.612166,-0.689341 0.177629,-2.051324 -0.831844,-1.998986 z m 4.534969,0 c -1.992295,0.480037 0.198537,3.679053 1.230679,1.814679 0.493109,-0.795209 -0.231323,-2.129264 -1.230679,-1.814679 z m -2.223878,0.0436 c -2.110256,0.124356 -0.341945,3.744698 0.955474,1.902459 0.49971,-0.71826 0.01977,-2.007842 -0.955474,-1.902459 z m -11.773477,0.87211 c -2.046821,0.0259 -0.592573,3.643315 0.831338,1.997282 0.61276,-0.693193 0.18096,-2.045851 -0.831338,-1.997282 z m -4.70939,0.0436 c -2.005044,0.320032 -0.09393,3.643492 1.087295,1.907345 0.560182,-0.752851 -0.07308,-2.136816 -1.087295,-1.907345 z m 7.020481,0 c -2.029406,0.08445 -0.476268,3.601648 0.874452,2.003259 0.636762,-0.68853 0.145589,-2.106691 -0.874452,-2.003259 z m -4.665786,0.0436 c -2.04537,0.269649 -0.169151,3.717116 1.054864,1.883176 0.502377,-0.751656 -0.0493,-2.071676 -1.054864,-1.883176 z m -5.755921,1.002925 c -2.045371,0.26965 -0.169151,3.717117 1.054863,1.883176 0.502378,-0.751656 -0.0493,-2.071676 -1.054863,-1.883176 z m 12.732796,0.348843 c -2.045372,0.26965 -0.169151,3.717118 1.054864,1.883176 0.502376,-0.751655 -0.0493,-2.071675 -1.054864,-1.883176 z m 9.549596,0.0436 c -2.029404,0.08445 -0.476267,3.601648 0.874452,2.003259 0.63834,-0.687457 0.143266,-2.107819 -0.874452,-2.003259 z m -4.883811,0.0436 c -2.018208,0.311117 -0.174832,3.735487 1.061601,1.985364 0.536834,-0.758266 -0.03059,-2.160859 -1.061601,-1.985364 z m 2.441906,0.0436 c -2.029406,0.08445 -0.476268,3.601648 0.874452,2.003259 0.63834,-0.687457 0.143264,-2.10782 -0.874452,-2.003259 z m -17.834635,0.784899 c -1.967984,0.517343 0.0227,3.78464 1.188336,1.901117 0.486109,-0.813948 -0.140205,-2.148742 -1.188336,-1.901117 z m 2.441905,0.174421 c -1.999458,0.422596 0.08181,3.672706 1.181097,1.782779 0.473966,-0.776218 -0.206904,-2.052379 -1.181097,-1.782779 z m 2.311091,0.0436 c -1.925536,0.450768 0.09137,3.599392 1.188902,1.862816 0.563475,-0.786548 -0.162029,-2.18547 -1.188902,-1.862816 z m 2.354695,0.0436 c -1.932479,0.479017 -0.0012,3.732193 1.188902,1.924349 0.49216,-0.797136 -0.146732,-2.192526 -1.188902,-1.924349 z m 6.017554,1.177347 c -2.079035,0.286884 -0.106426,3.75477 1.08114,1.842753 0.474194,-0.75062 -0.107292,-2.02575 -1.08114,-1.842753 z m -3.488438,0.0436 c -2.029405,0.08445 -0.476268,3.601648 0.874453,2.003259 0.636762,-0.688529 0.145589,-2.106691 -0.874453,-2.003259 z m 7.936195,0.0436 c -2.005045,0.320032 -0.09393,3.643493 1.087294,1.907344 0.560184,-0.75285 -0.07307,-2.136817 -1.087294,-1.907344 z m 2.659934,0.0436 c -2.029406,0.08445 -0.476268,3.601648 0.874452,2.003258 0.636762,-0.688528 0.145588,-2.10669 -0.874452,-2.003258 z m -15.39273,0.915765 c -2.029405,0.08445 -0.476267,3.601649 0.874452,2.003259 0.636763,-0.68853 0.14559,-2.106691 -0.874452,-2.003259 z m -2.223878,0.08722 c -2.045392,0.02637 -0.595112,3.640957 0.831842,1.998986 0.612167,-0.68934 0.177631,-2.051323 -0.831842,-1.998986 z m 4.665784,0.08722 c -1.899162,0.02953 -0.745687,3.504832 0.737428,2.196944 0.78744,-0.639238 0.342531,-2.238172 -0.737428,-2.196944 z m 5.712316,1.090136 c -2.045371,0.269649 -0.169151,3.717116 1.054863,1.883176 0.502377,-0.751656 -0.0493,-2.071676 -1.054863,-1.883176 z m 2.441906,0.174422 c -2.04537,0.269649 -0.169151,3.717117 1.054864,1.883175 0.502376,-0.751654 -0.0493,-2.071675 -1.054864,-1.883175 z m 2.31109,0.0436 c -2.079034,0.286884 -0.106425,3.75477 1.081141,1.842753 0.474193,-0.750621 -0.107292,-2.02575 -1.081141,-1.842753 z m -11.991503,1.002926 c -1.967983,0.517343 0.0227,3.78464 1.188336,1.901117 0.486109,-0.813947 -0.140204,-2.148742 -1.188336,-1.901117 z m 4.752996,0.08721 c -2.005045,0.320031 -0.09393,3.643492 1.087294,1.907345 0.560181,-0.752851 -0.07307,-2.136816 -1.087294,-1.907345 z m -2.31109,0.08722 c -1.960571,0.380163 -0.0241,3.629396 1.127037,1.90091 0.579295,-0.768931 -0.09407,-2.178003 -1.127037,-1.90091 z m 8.37225,1.090137 c -2.045393,0.02637 -0.595112,3.640957 0.831842,1.998986 0.612167,-0.68934 0.17763,-2.051323 -0.831842,-1.998986 z m -2.572723,0.08722 c -2.018208,0.311117 -0.174833,3.735486 1.061601,1.985364 0.536835,-0.758267 -0.03059,-2.160859 -1.061601,-1.985364 z m -4.491363,1.002925 c -2.110256,0.124356 -0.341944,3.744698 0.955475,1.902458 0.49971,-0.718259 0.01977,-2.007841 -0.955475,-1.902458 z m -2.31109,0.08722 c -2.045371,0.269649 -0.169151,3.717116 1.054863,1.883176 0.502378,-0.751656 -0.0493,-2.071676 -1.054863,-1.883176 z m 4.534969,0.218028 c -2.005045,0.320032 -0.09394,3.643492 1.087294,1.907344 0.560183,-0.752851 -0.07307,-2.136817 -1.087294,-1.907344 z"
     id="path2561"
     style="opacity:0.1;fill:#000000;fill-opacity:1;stroke:none"
     inkscape:connector-curvature="0" />
  <path
     d="M 60.020027,16.254724 A 13.43402,13.990181 0 1 1 33.156489,15.742788 13.43402,13.990181 0 1 1 60.020027,16.254724 z"
     id="path3681"
     style="opacity:0.19069764;fill:url(#radialGradient4472);fill-opacity:1;stroke:none"
     inkscape:connector-curvature="0" />
  <path
     d="m 38.176642,4.9473977 c 0,0 5.414524,7.5242223 20.190099,18.8586433 0.603717,0.463115 -1.14364,2.398539 -1.742714,1.854631 0,0 -9.148493,-4.596085 -20.328709,-18.4567467 -0.553886,-0.6866793 0.41583,-1.2056875 1.881324,-2.2565276 z"
     id="path3163"
     style="fill:url(#linearGradient4469);fill-opacity:1;fill-rule:evenodd;stroke:none"
     inkscape:connector-curvature="0" />
  <path
     d="m 38.176642,4.9473977 c 0,0 5.414524,7.5242223 20.190099,18.8586433 0.603717,0.463115 -1.14364,2.398539 -1.742714,1.854631 0,0 -9.148493,-4.596085 -20.328709,-18.4567467 -0.553886,-0.6866793 0.41583,-1.2056875 1.881324,-2.2565276 z"
     id="path3177"
     style="opacity:0.67441861;fill:url(#linearGradient4466);fill-opacity:1;fill-rule:evenodd;stroke:none"
     inkscape:connector-curvature="0" />
  <path
     d="m 60.603447,16.2973 a 14.021742,13.678577 89.331447 1 1 -27.35281,-0.52126 14.021742,13.678577 89.331447 1 1 27.35281,0.52126 z"
     id="path2677"
     style="opacity:0.47906979;fill:url(#radialGradient4463);fill-opacity:1;stroke:none"
     inkscape:connector-curvature="0" />
  <path
     d="m 44.760138,31.800932 c 1.088932,-0.139524 3.675151,-1.744115 3.675151,-1.744115 -3.74321,-1.95341 -15.108956,-13.673858 -15.108956,-13.673858 0,0 -1.973691,2.651056 -1.769517,3.418465 0,0 6.533601,7.953162 13.203322,11.999508 z"
     id="path3302"
     style="fill:url(#linearGradient4195);fill-opacity:1;fill-rule:evenodd;stroke:none"
     inkscape:connector-curvature="0" />
</svg>
