<?xml version="1.0" encoding="UTF-8" standalone="no"?>
<!-- Created with Inkscape (http://www.inkscape.org/) -->

<svg
   xmlns:osb="http://www.openswatchbook.org/uri/2009/osb"
   xmlns:dc="http://purl.org/dc/elements/1.1/"
   xmlns:cc="http://creativecommons.org/ns#"
   xmlns:rdf="http://www.w3.org/1999/02/22-rdf-syntax-ns#"
   xmlns:svg="http://www.w3.org/2000/svg"
   xmlns="http://www.w3.org/2000/svg"
   xmlns:xlink="http://www.w3.org/1999/xlink"
   xmlns:sodipodi="http://sodipodi.sourceforge.net/DTD/sodipodi-0.dtd"
   xmlns:inkscape="http://www.inkscape.org/namespaces/inkscape"
   version="1.0"
   width="64"
   height="64"
   id="svg3367"
   inkscape:version="0.48.4 r9939"
   sodipodi:docname="dvdrip.svg">
  <metadata
     id="metadata71">
    <rdf:RDF>
      <cc:Work
         rdf:about="">
        <dc:format>image/svg+xml</dc:format>
        <dc:type
           rdf:resource="http://purl.org/dc/dcmitype/StillImage" />
        <dc:title></dc:title>
      </cc:Work>
    </rdf:RDF>
  </metadata>
  <sodipodi:namedview
     pagecolor="#ffffff"
     bordercolor="#666666"
     borderopacity="1"
     objecttolerance="10"
     gridtolerance="10"
     guidetolerance="10"
     inkscape:pageopacity="0"
     inkscape:pageshadow="2"
     inkscape:window-width="1855"
     inkscape:window-height="1056"
     id="namedview69"
     showgrid="true"
     inkscape:zoom="14.4375"
     inkscape:cx="20.640693"
     inkscape:cy="15.376624"
     inkscape:window-x="65"
     inkscape:window-y="24"
     inkscape:window-maximized="1"
     inkscape:current-layer="svg3367"
     inkscape:snap-global="true">
    <inkscape:grid
       type="xygrid"
       id="grid3094" />
  </sodipodi:namedview>
  <defs
     id="defs3369">
    <linearGradient
       id="linearGradient3932">
      <stop
         id="stop3934"
         style="stop-color:#eea651;stop-opacity:1;"
         offset="0" />
      <stop
         id="stop3936"
         style="stop-color:#d28449;stop-opacity:1;"
         offset="0.26238" />
      <stop
         id="stop3938"
         style="stop-color:#b46d34;stop-opacity:1;"
         offset="0.51428568" />
      <stop
         id="stop3940"
         style="stop-color:#99501b;stop-opacity:1;"
         offset="1" />
    </linearGradient>
    <linearGradient
       id="linearGradient4155"
       osb:paint="solid">
      <stop
         style="stop-color:#314253;stop-opacity:1;"
         offset="0"
         id="stop4157" />
    </linearGradient>
    <linearGradient
       id="linearGradient23419">
      <stop
         id="stop23421"
         style="stop-color:#000000;stop-opacity:1"
         offset="0" />
      <stop
         id="stop23423"
         style="stop-color:#000000;stop-opacity:0"
         offset="1" />
    </linearGradient>
    <linearGradient
       id="linearGradient3772">
      <stop
         id="stop3774"
         style="stop-color:#b4b4b4;stop-opacity:1"
         offset="0" />
      <stop
         id="stop3776"
         style="stop-color:#969696;stop-opacity:1"
         offset="1" />
    </linearGradient>
    <linearGradient
       x1="12.2744"
       y1="32.4165"
       x2="35.391201"
       y2="14.2033"
       id="linearGradient3263"
       gradientUnits="userSpaceOnUse">
      <stop
         id="stop3265"
         style="stop-color:#dedbde;stop-opacity:1"
         offset="0" />
      <stop
         id="stop3267"
         style="stop-color:#e6e6e6;stop-opacity:1"
         offset="0.5" />
      <stop
         id="stop3269"
         style="stop-color:#d2d2d2;stop-opacity:1"
         offset="1" />
    </linearGradient>
    <linearGradient
       id="linearGradient3428">
      <stop
         id="stop3430"
         style="stop-color:#aaaaaa;stop-opacity:1"
         offset="0" />
      <stop
         id="stop3432"
         style="stop-color:#d4d4d4;stop-opacity:1"
         offset="1" />
    </linearGradient>
    <linearGradient
       id="linearGradient6036">
      <stop
         id="stop6038"
         style="stop-color:#ffffff;stop-opacity:1"
         offset="0" />
      <stop
         id="stop6040"
         style="stop-color:#ffffff;stop-opacity:0;"
         offset="1" />
    </linearGradient>
    <linearGradient
       id="linearGradient3519">
      <stop
         id="stop3521"
         style="stop-color:#fcd9cd;stop-opacity:1"
         offset="0" />
      <stop
         id="stop3523"
         style="stop-color:#fcd9cd;stop-opacity:0"
         offset="1" />
    </linearGradient>
    <linearGradient
       id="linearGradient3511">
      <stop
         id="stop3513"
         style="stop-color:#ebeec7;stop-opacity:1"
         offset="0" />
      <stop
         id="stop3515"
         style="stop-color:#ebeec7;stop-opacity:0"
         offset="1" />
    </linearGradient>
    <linearGradient
       id="linearGradient3503">
      <stop
         id="stop3505"
         style="stop-color:#c4ebdd;stop-opacity:1"
         offset="0" />
      <stop
         id="stop3507"
         style="stop-color:#c4ebdd;stop-opacity:0"
         offset="1" />
    </linearGradient>
    <linearGradient
       id="linearGradient3495">
      <stop
         id="stop3497"
         style="stop-color:#c1cbe4;stop-opacity:1"
         offset="0" />
      <stop
         id="stop3499"
         style="stop-color:#c1cbe4;stop-opacity:0"
         offset="1" />
    </linearGradient>
    <linearGradient
       id="linearGradient3487">
      <stop
         id="stop3489"
         style="stop-color:#e6cde2;stop-opacity:1"
         offset="0" />
      <stop
         id="stop3491"
         style="stop-color:#e6cde2;stop-opacity:0"
         offset="1" />
    </linearGradient>
    <radialGradient
       cx="23.334524"
       cy="41.63604"
       r="22.627417"
       fx="23.334524"
       fy="41.63604"
       id="radialGradient2584"
       xlink:href="#linearGradient23419"
       gradientUnits="userSpaceOnUse"
       gradientTransform="matrix(1.28153,0,0,0.38442322,3.0938181,36.642833)" />
    <linearGradient
       x1="10.50172"
       y1="3.6100161"
       x2="48.798885"
       y2="54.698483"
       id="linearGradient2642"
       xlink:href="#linearGradient6036"
       gradientUnits="userSpaceOnUse"
       gradientTransform="matrix(1.3530981,0,0,1.353098,-1.3764953,-1.9924369)" />
    <linearGradient
       x1="18.775953"
       y1="4.0378027"
       x2="18.203465"
       y2="45.962208"
       id="linearGradient2651"
       xlink:href="#linearGradient6036"
       gradientUnits="userSpaceOnUse"
       gradientTransform="matrix(0.53379112,0,0,0.53379088,18.571167,18.490238)" />
    <linearGradient
       x1="21.448364"
       y1="15.5"
       x2="21.448364"
       y2="32.509201"
       id="linearGradient2654"
       xlink:href="#linearGradient3428"
       gradientUnits="userSpaceOnUse"
       gradientTransform="matrix(1.2475453,0,0,1.2475453,1.6262945,1.8939264)" />
    <linearGradient
       x1="12.2744"
       y1="32.4165"
       x2="35.391201"
       y2="14.2033"
       id="linearGradient2658"
       xlink:href="#linearGradient3263"
       gradientUnits="userSpaceOnUse"
       gradientTransform="matrix(0,1.5588512,-1.5588512,0,67.576855,-5.5774259)" />
    <linearGradient
       x1="-21.915663"
       y1="3"
       x2="-21.915663"
       y2="45.032898"
       id="linearGradient2660"
       xlink:href="#linearGradient3772"
       gradientUnits="userSpaceOnUse"
       gradientTransform="matrix(1.3307149,0,0,1.3307149,66.51869,-0.10214608)" />
    <linearGradient
       x1="20.580074"
       y1="10.774516"
       x2="24.27351"
       y2="9.8622112"
       id="linearGradient2672"
       xlink:href="#linearGradient3487"
       gradientUnits="userSpaceOnUse"
       spreadMethod="reflect" />
    <linearGradient
       x1="17.494959"
       y1="11.200086"
       x2="21.047453"
       y2="9.7956104"
       id="linearGradient2674"
       xlink:href="#linearGradient3495"
       gradientUnits="userSpaceOnUse"
       spreadMethod="reflect" />
    <linearGradient
       x1="14.084608"
       y1="13.045606"
       x2="16.994024"
       y2="10.732353"
       id="linearGradient2676"
       xlink:href="#linearGradient3503"
       gradientUnits="userSpaceOnUse"
       spreadMethod="reflect" />
    <linearGradient
       x1="12.371647"
       y1="16.188046"
       x2="14.609327"
       y2="13.461712"
       id="linearGradient2678"
       xlink:href="#linearGradient3511"
       gradientUnits="userSpaceOnUse"
       spreadMethod="reflect" />
    <linearGradient
       x1="10.609375"
       y1="17.886322"
       x2="9.7297754"
       y2="20.612656"
       id="linearGradient2680"
       xlink:href="#linearGradient3519"
       gradientUnits="userSpaceOnUse"
       spreadMethod="reflect" />
    <linearGradient
       x1="20.580074"
       y1="10.774516"
       x2="24.27351"
       y2="9.8622112"
       id="linearGradient2682"
       xlink:href="#linearGradient3487"
       gradientUnits="userSpaceOnUse"
       spreadMethod="reflect" />
    <linearGradient
       x1="17.494959"
       y1="11.200086"
       x2="21.047453"
       y2="9.7956104"
       id="linearGradient2684"
       xlink:href="#linearGradient3495"
       gradientUnits="userSpaceOnUse"
       spreadMethod="reflect" />
    <linearGradient
       x1="14.084608"
       y1="13.045606"
       x2="16.994024"
       y2="10.732353"
       id="linearGradient2686"
       xlink:href="#linearGradient3503"
       gradientUnits="userSpaceOnUse"
       spreadMethod="reflect" />
    <linearGradient
       x1="12.371647"
       y1="16.188046"
       x2="14.609327"
       y2="13.461712"
       id="linearGradient2688"
       xlink:href="#linearGradient3511"
       gradientUnits="userSpaceOnUse"
       spreadMethod="reflect" />
    <linearGradient
       x1="10.609375"
       y1="17.886322"
       x2="9.7297754"
       y2="20.612656"
       id="linearGradient2690"
       xlink:href="#linearGradient3519"
       gradientUnits="userSpaceOnUse"
       spreadMethod="reflect" />
    <radialGradient
       cx="4.9929786"
       cy="43.5"
       r="2.5"
       fx="4.9929786"
       fy="43.5"
       id="radialGradient2455"
       xlink:href="#linearGradient3688-166-749"
       gradientUnits="userSpaceOnUse"
       gradientTransform="matrix(2.003784,0,0,3.1044587,27.663048,-100.8976)" />
    <linearGradient
       id="linearGradient3688-166-749">
      <stop
         id="stop2883"
         style="stop-color:#181818;stop-opacity:1"
         offset="0" />
      <stop
         id="stop2885"
         style="stop-color:#181818;stop-opacity:0"
         offset="1" />
    </linearGradient>
    <radialGradient
       cx="4.9929786"
       cy="43.5"
       r="2.5"
       fx="4.9929786"
       fy="43.5"
       id="radialGradient2457"
       xlink:href="#linearGradient3688-464-309"
       gradientUnits="userSpaceOnUse"
       gradientTransform="matrix(2.003784,0,0,3.1044587,-19.686788,-169.19031)" />
    <linearGradient
       id="linearGradient3688-464-309">
      <stop
         id="stop2889"
         style="stop-color:#181818;stop-opacity:1"
         offset="0" />
      <stop
         id="stop2891"
         style="stop-color:#181818;stop-opacity:0"
         offset="1" />
    </linearGradient>
    <linearGradient
       x1="25.058096"
       y1="47.027729"
       x2="25.058096"
       y2="39.999443"
       id="linearGradient2459"
       xlink:href="#linearGradient3702-501-757"
       gradientUnits="userSpaceOnUse"
       gradientTransform="matrix(1,0,0,2.2174705,-0.32508164,-62.31362)" />
    <linearGradient
       id="linearGradient3702-501-757">
      <stop
         id="stop2895"
         style="stop-color:#181818;stop-opacity:0"
         offset="0" />
      <stop
         id="stop2897"
         style="stop-color:#181818;stop-opacity:1"
         offset="0.5" />
      <stop
         id="stop2899"
         style="stop-color:#181818;stop-opacity:0"
         offset="1" />
    </linearGradient>
    <linearGradient
       id="linearGradient2867-449-88-871-390-598-476-591-434-148-9-7">
      <stop
         offset="0"
         style="stop-color:#eea651;stop-opacity:1;"
         id="stop4627-2-7" />
      <stop
         offset="0.26238"
         style="stop-color:#d28449;stop-opacity:1;"
         id="stop4629-8-6" />
      <stop
         offset="0.704952"
         style="stop-color:#b46d34;stop-opacity:1;"
         id="stop4631-3-4" />
      <stop
         offset="1"
         style="stop-color:#99501b;stop-opacity:1;"
         id="stop4633-0-3" />
    </linearGradient>
    <linearGradient
       id="linearGradient3332-412-419-652-471-761-410-156-661-505-7-3">
      <stop
         offset="0"
         style="stop-color:#865420;stop-opacity:1;"
         id="stop8032-8-0" />
      <stop
         offset="1"
         style="stop-color:#be8054;stop-opacity:1;"
         id="stop8034-9-9" />
    </linearGradient>
    <linearGradient
       x1="23.99999"
       y1="4.999989"
       x2="23.99999"
       y2="43"
       id="linearGradient2470"
       xlink:href="#linearGradient3308-4-6-931-761"
       gradientUnits="userSpaceOnUse"
       gradientTransform="matrix(1.501806,0,0,1.4888266,-4.5277598,-5.5689419)" />
    <linearGradient
       id="linearGradient3308-4-6-931-761">
      <stop
         id="stop2919"
         style="stop-color:#ffffff;stop-opacity:1"
         offset="0" />
      <stop
         id="stop2921"
         style="stop-color:#ffffff;stop-opacity:0"
         offset="1" />
    </linearGradient>
    <linearGradient
       inkscape:collect="always"
       xlink:href="#linearGradient4155"
       id="linearGradient3095"
       gradientUnits="userSpaceOnUse"
       gradientTransform="scale(0.94745564,1.0554585)"
       x1="18.056339"
       y1="99.237595"
       x2="121.1496"
       y2="99.237595" />
    <radialGradient
       inkscape:collect="always"
       xlink:href="#linearGradient2867-449-88-871-390-598-476-591-434-148-9-7-7"
       id="radialGradient3262-5"
       gradientUnits="userSpaceOnUse"
       gradientTransform="matrix(0,2.9853985,-3.9959149,-1.2597197e-7,65.332088,-13.625371)"
       cx="7.4956832"
       cy="8.4497671"
       fx="7.4956832"
       fy="8.4497671"
       r="19.99999" />
    <linearGradient
       id="linearGradient2867-449-88-871-390-598-476-591-434-148-9-7-7">
      <stop
         offset="0"
         style="stop-color:#eea651;stop-opacity:1;"
         id="stop4627-2-7-0" />
      <stop
         offset="0.26238"
         style="stop-color:#d28449;stop-opacity:1;"
         id="stop4629-8-6-8" />
      <stop
         offset="0.704952"
         style="stop-color:#b46d34;stop-opacity:1;"
         id="stop4631-3-4-6" />
      <stop
         offset="1"
         style="stop-color:#99501b;stop-opacity:1;"
         id="stop4633-0-3-4" />
    </linearGradient>
    <linearGradient
       inkscape:collect="always"
       xlink:href="#linearGradient3332-412-419-652-471-761-410-156-661-505-7-3-4"
       id="linearGradient3264-1"
       gradientUnits="userSpaceOnUse"
       gradientTransform="matrix(1.2981314,0,0,1.2981313,0.4122348,2.1544305)"
       x1="24"
       y1="44"
       x2="24"
       y2="3.8990016" />
    <linearGradient
       id="linearGradient3332-412-419-652-471-761-410-156-661-505-7-3-4">
      <stop
         offset="0"
         style="stop-color:#865420;stop-opacity:1;"
         id="stop8032-8-0-4" />
      <stop
         offset="1"
         style="stop-color:#be8054;stop-opacity:1;"
         id="stop8034-9-9-3" />
    </linearGradient>
    <radialGradient
       inkscape:collect="always"
       xlink:href="#linearGradient3242-7-3-8-0-4-58-06"
       id="radialGradient3930"
       cx="12.984319"
       cy="42.991318"
       fx="12.984319"
       fy="42.991318"
       r="25.999998"
       gradientTransform="matrix(9.4773102e-8,3.0769233,-4.081922,8.1081524e-7,207.4872,-22.951786)"
       gradientUnits="userSpaceOnUse" />
    <radialGradient
       cx="4.9929786"
       cy="43.5"
       r="2.5"
       fx="4.9929786"
       fy="43.5"
       id="radialGradient2455-0"
       xlink:href="#linearGradient3688-166-749-6"
       gradientUnits="userSpaceOnUse"
       gradientTransform="matrix(2.003784,0,0,3.1044587,27.663048,-100.8976)" />
    <linearGradient
       id="linearGradient3688-166-749-6">
      <stop
         id="stop2883-7"
         style="stop-color:#181818;stop-opacity:1"
         offset="0" />
      <stop
         id="stop2885-8"
         style="stop-color:#181818;stop-opacity:0"
         offset="1" />
    </linearGradient>
    <radialGradient
       cx="4.9929786"
       cy="43.5"
       r="2.5"
       fx="4.9929786"
       fy="43.5"
       id="radialGradient2457-6"
       xlink:href="#linearGradient3688-464-309-2"
       gradientUnits="userSpaceOnUse"
       gradientTransform="matrix(2.003784,0,0,3.1044587,-19.686788,-169.19031)" />
    <linearGradient
       id="linearGradient3688-464-309-2">
      <stop
         id="stop2889-3"
         style="stop-color:#181818;stop-opacity:1"
         offset="0" />
      <stop
         id="stop2891-3"
         style="stop-color:#181818;stop-opacity:0"
         offset="1" />
    </linearGradient>
    <linearGradient
       x1="25.058096"
       y1="47.027729"
       x2="25.058096"
       y2="39.999443"
       id="linearGradient2459-9"
       xlink:href="#linearGradient3702-501-757-5"
       gradientUnits="userSpaceOnUse"
       gradientTransform="matrix(1,0,0,2.2174705,-0.32508164,-62.31362)" />
    <linearGradient
       id="linearGradient3702-501-757-5">
      <stop
         id="stop2895-0"
         style="stop-color:#181818;stop-opacity:0"
         offset="0" />
      <stop
         id="stop2897-7"
         style="stop-color:#181818;stop-opacity:1"
         offset="0.5" />
      <stop
         id="stop2899-5"
         style="stop-color:#181818;stop-opacity:0"
         offset="1" />
    </linearGradient>
    <linearGradient
       inkscape:collect="always"
       xlink:href="#linearGradient6036"
       id="linearGradient4068"
       x1="30"
       y1="3"
       x2="30"
       y2="74"
       gradientUnits="userSpaceOnUse"
       gradientTransform="matrix(1.1193039,0,0,1.1096313,-3.8179273,-6.7984589)" />
    <linearGradient
       id="linearGradient3924-1-7">
      <stop
         id="stop3926-3-0"
         style="stop-color:#ffffff;stop-opacity:1"
         offset="0" />
      <stop
         id="stop3928-91-3"
         style="stop-color:#ffffff;stop-opacity:0.23529412"
         offset="0.06316455" />
      <stop
         id="stop3930-6-8"
         style="stop-color:#ffffff;stop-opacity:0.15686275"
         offset="0.95056331" />
      <stop
         id="stop3932-6-1"
         style="stop-color:#ffffff;stop-opacity:0.39215687"
         offset="1" />
    </linearGradient>
    <radialGradient
       r="12.671875"
       fy="9.9571075"
       fx="6.2001843"
       cy="9.9571075"
       cx="6.7304144"
       gradientTransform="matrix(0,9.4975523,-11.65996,0,158.10534,-81.421797)"
       gradientUnits="userSpaceOnUse"
       id="radialGradient3149"
       xlink:href="#linearGradient2867-449-88-871-390-598-476-591-434-148-57-177-1"
       inkscape:collect="always" />
    <linearGradient
       id="linearGradient2867-449-88-871-390-598-476-591-434-148-57-177-1">
      <stop
         id="stop3750-4"
         style="stop-color:#90dbec;stop-opacity:1"
         offset="0" />
      <stop
         id="stop3752-1"
         style="stop-color:#55c1ec;stop-opacity:1"
         offset="0.26238" />
      <stop
         id="stop3754-4"
         style="stop-color:#3689e6;stop-opacity:1"
         offset="0.704952" />
      <stop
         id="stop3756-7"
         style="stop-color:#2b63a0;stop-opacity:1"
         offset="1" />
    </linearGradient>
    <linearGradient
       inkscape:collect="always"
       xlink:href="#linearGradient3924-2-2-5-8-0-2"
       id="linearGradient3681-6"
       gradientUnits="userSpaceOnUse"
       gradientTransform="matrix(1.4324324,0,0,1.4324324,-15.378376,63.621626)"
       x1="23.99999"
       y1="4.999989"
       x2="23.99999"
       y2="43" />
    <linearGradient
       id="linearGradient3924-2-2-5-8-0-2">
      <stop
         offset="0"
         style="stop-color:#ffffff;stop-opacity:1"
         id="stop3926-9-4-9-6-6-5" />
      <stop
         offset="0.06316455"
         style="stop-color:#ffffff;stop-opacity:0.23529412"
         id="stop3928-9-8-6-5-1-5" />
      <stop
         offset="0.95056331"
         style="stop-color:#ffffff;stop-opacity:0.15686275"
         id="stop3930-3-5-1-7-98-0" />
      <stop
         offset="1"
         style="stop-color:#ffffff;stop-opacity:0.39215687"
         id="stop3932-8-0-4-8-60-3" />
    </linearGradient>
    <linearGradient
       gradientTransform="translate(-13,66)"
       inkscape:collect="always"
       xlink:href="#linearGradient3242-7-3-8-0-4-58-06"
       id="linearGradient4654"
       x1="24.169817"
       y1="-12.24244"
       x2="24.169817"
       y2="48.933952"
       gradientUnits="userSpaceOnUse" />
    <linearGradient
       id="linearGradient3242-7-3-8-0-4-58-06">
      <stop
         id="stop3244-5-8-5-6-4-3-8"
         style="stop-color:#cdf87e;stop-opacity:1"
         offset="0" />
      <stop
         id="stop3246-9-5-1-5-3-0-7"
         style="stop-color:#a2e34f;stop-opacity:1"
         offset="0.26238" />
      <stop
         id="stop3248-7-2-0-7-5-35-9"
         style="stop-color:#68b723;stop-opacity:1"
         offset="0.66093999" />
      <stop
         id="stop3250-8-2-8-5-6-40-4"
         style="stop-color:#1d7e0d;stop-opacity:1"
         offset="1" />
    </linearGradient>
    <linearGradient
       inkscape:collect="always"
       xlink:href="#linearGradient3510-2"
       id="linearGradient4656"
       gradientUnits="userSpaceOnUse"
       gradientTransform="matrix(1.4,0,0,0.5,-1.5999986,10.000001)"
       x1="23.954144"
       y1="15.999304"
       x2="23.954144"
       y2="19.963179" />
    <linearGradient
       id="linearGradient3510-2">
      <stop
         offset="0"
         style="stop-color:#000000;stop-opacity:1"
         id="stop3512-7" />
      <stop
         offset="1"
         style="stop-color:#000000;stop-opacity:0"
         id="stop3514-6" />
    </linearGradient>
    <linearGradient
       y2="19.963179"
       x2="23.954144"
       y1="15.999304"
       x1="23.954144"
       gradientTransform="matrix(1.4,0,0,0.5,-14.599999,76.000001)"
       gradientUnits="userSpaceOnUse"
       id="linearGradient3132"
       xlink:href="#linearGradient3510-2"
       inkscape:collect="always" />
  </defs>
  <path
     d="m 58.847037,31.835013 c 0,-15.120862 -12.158798,-27.2796564 -27.279657,-27.2796564 -15.120863,0 -27.2796556,12.1587954 -27.2796556,27.2796564 -2.7e-6,15.120861 12.1587936,27.279657 27.2796556,27.279657 15.120857,-4e-6 27.279657,-12.158795 27.279657,-27.279657 z m -17.299295,0 c 0,5.493364 -4.377081,9.980361 -9.980362,9.980361 -5.713199,0 -9.980363,-4.598035 -9.980363,-9.980361 0,-5.492263 4.047327,-9.980363 9.980363,-9.980363 5.933036,0 9.980362,4.596915 9.980362,9.980363 z"
     id="path2781"
     style="fill:url(#linearGradient2658);fill-rule:nonzero;stroke:url(#linearGradient2660);stroke-width:0.49152544;stroke-miterlimit:4;stroke-opacity:1"
     inkscape:connector-curvature="0" />
  <path
     d="m 31.56738,21.512978 c -5.697763,0 -10.322034,4.624272 -10.322034,10.322035 0,5.697763 4.624271,10.322034 10.322034,10.322034 5.697762,0 10.322034,-4.624271 10.322034,-10.322034 0,-5.697763 -4.624272,-10.322035 -10.322034,-10.322035 z m 0,5.161019 c 2.848881,0 5.161017,2.312135 5.161017,5.161016 0,2.848881 -2.312136,5.161016 -5.161017,5.161016 -2.848882,0 -5.161018,-2.312135 -5.161018,-5.161016 0,-2.848881 2.312136,-5.161016 5.161018,-5.161016 z"
     id="path2474"
     style="opacity:0.5;fill:#ffffff;fill-opacity:1;fill-rule:nonzero;stroke:none;stroke-width:1;marker:none;visibility:visible;display:inline;overflow:visible;enable-background:accumulate"
     inkscape:connector-curvature="0" />
  <path
     d="m 31.56738,21.85465 c -5.50916,0 -9.980363,4.471203 -9.980363,9.980363 0,5.509159 4.471203,9.980361 9.980363,9.980361 5.50916,0 9.980362,-4.471202 9.980362,-9.980361 0,-5.50916 -4.471202,-9.980363 -9.980362,-9.980363 z m 0,4.990181 c 2.75458,0 4.990181,2.235603 4.990181,4.990182 0,2.754579 -2.235601,4.990181 -4.990181,4.990181 -2.754581,0 -4.990182,-2.235602 -4.990182,-4.990181 0,-2.754579 2.235601,-4.990182 4.990182,-4.990182 z"
     id="path3418"
     style="fill:none;stroke:url(#linearGradient2654);stroke-width:0.49152544;stroke-linecap:butt;stroke-linejoin:round;stroke-miterlimit:4;stroke-opacity:1;stroke-dasharray:none;stroke-dashoffset:0;marker:none;visibility:visible;display:inline;overflow:visible;enable-background:accumulate"
     inkscape:connector-curvature="0" />
  <g
     transform="matrix(1.3428673,0,0,1.3428673,-0.426046,-0.15064357)"
     id="g3527">
    <path
       d="M 15.856928,5.7307748 20.625,16.34375 C 21.660403,15.885186 22.795334,15.625 24,15.625 c 0.03206,0 0.06178,-3.6e-4 0.09375,0 L 24.10801,4.0047512 c -2.94215,-0.070687 -5.543041,0.6572865 -8.251083,1.7260236 z"
       transform="matrix(0.9996011,0.02824295,-0.02824295,0.9996011,0.6924114,-0.6708346)"
       id="path3296"
       style="opacity:0.8;fill:url(#linearGradient2672);fill-opacity:1;fill-rule:nonzero;stroke:none"
       inkscape:connector-curvature="0" />
    <path
       d="m 12.121471,7.9060109 6.931026,9.3601041 c 0.913109,-0.669755 1.965938,-1.167064 3.142629,-1.425169 0.03132,-0.0069 0.06026,-0.01359 0.09157,-0.02009 L 19.857174,4.426276 c -2.888973,0.5613244 -5.31953,1.8556038 -7.735703,3.4797349 z"
       id="path3308"
       style="opacity:0.8;fill:url(#linearGradient2674);fill-opacity:1;fill-rule:nonzero;stroke:none"
       inkscape:connector-curvature="0" />
    <path
       d="m 8.2523933,11.646535 9.2137237,7.155818 c 0.70865,-0.883264 1.596891,-1.636119 2.666685,-2.18998 0.02847,-0.01474 0.05469,-0.02872 0.08325,-0.0431 L 14.86585,6.2506132 C 12.220599,7.5405321 10.165881,9.452393 8.2523933,11.646535 z"
       id="path3310"
       style="opacity:0.8;fill:url(#linearGradient2676);fill-opacity:1;fill-rule:nonzero;stroke:none"
       inkscape:connector-curvature="0" />
    <path
       d="m 5.6328855,16.073974 c 7.1748065,2.242248 7.8502625,7.031463 12.7767855,1.754127 L 10.499985,9.1321388 C 8.2787249,11.062747 6.9132871,13.459349 5.6328855,16.073974 z"
       id="path3312"
       style="opacity:0.8;fill:url(#linearGradient2678);fill-opacity:1;fill-rule:nonzero;stroke:none"
       inkscape:connector-curvature="0" />
    <path
       d="M 7.155289,13.193173 C 5.9722117,14.945185 5.2475768,16.829547 4.6301929,18.837116 L 15.96875,21.8125 C 16.184264,21.049497 16.486796,20.297733 16.9375,19.59375 16.95479,19.56675 16.98246,19.52673 17,19.5 L 7.155289,13.193173 z"
       id="path3314"
       style="opacity:0.8;fill:url(#linearGradient2680);fill-opacity:1;fill-rule:nonzero;stroke:none"
       inkscape:connector-curvature="0" />
  </g>
  <path
     d="m 31.567389,5.0468731 c -14.848282,0 -26.7881392,11.9398569 -26.7881392,26.7881369 0,14.84828 11.9398572,26.788135 26.7881392,26.788135 14.848281,0 26.788133,-11.939855 26.788133,-26.788135 0,-14.84828 -11.939852,-26.7881369 -26.788133,-26.7881369 l 0,0 0,0 z"
     id="path3272"
     style="opacity:0.5;fill:none;stroke:url(#linearGradient2642);stroke-width:0.49152541;stroke-miterlimit:4;stroke-opacity:1"
     inkscape:connector-curvature="0" />
  <g
     transform="matrix(-1.3307149,0,0,-1.3307149,63.504535,63.75997)"
     id="g3297">
    <path
       d="M 15.856928,5.7307748 20.625,16.34375 C 21.660403,15.885186 22.795334,15.625 24,15.625 c 0.03206,0 0.06178,-3.6e-4 0.09375,0 L 24.10801,4.0047512 c -2.94215,-0.070687 -5.543041,0.6572865 -8.251083,1.7260236 z"
       transform="matrix(0.9996011,0.02824295,-0.02824295,0.9996011,0.6924114,-0.6708346)"
       id="path3299"
       style="opacity:0.8;fill:url(#linearGradient2682);fill-opacity:1;fill-rule:nonzero;stroke:none"
       inkscape:connector-curvature="0" />
    <path
       d="m 12.121471,7.9060109 6.931026,9.3601041 c 0.913109,-0.669755 1.965938,-1.167064 3.142629,-1.425169 0.03132,-0.0069 0.06026,-0.01359 0.09157,-0.02009 L 19.857174,4.426276 c -2.888973,0.5613244 -5.31953,1.8556038 -7.735703,3.4797349 z"
       id="path3301"
       style="opacity:0.8;fill:url(#linearGradient2684);fill-opacity:1;fill-rule:nonzero;stroke:none"
       inkscape:connector-curvature="0" />
    <path
       d="m 8.2523933,11.646535 9.2137237,7.155818 c 0.70865,-0.883264 1.596891,-1.636119 2.666685,-2.18998 0.02847,-0.01474 0.05469,-0.02872 0.08325,-0.0431 L 14.86585,6.2506132 C 12.220599,7.5405321 10.165881,9.452393 8.2523933,11.646535 z"
       id="path3303"
       style="opacity:0.8;fill:url(#linearGradient2686);fill-opacity:1;fill-rule:nonzero;stroke:none"
       inkscape:connector-curvature="0" />
    <path
       d="m 5.6328855,16.073974 c 7.1748065,2.242248 7.8502625,7.031463 12.7767855,1.754127 L 10.499985,9.1321388 C 8.2787249,11.062747 6.9132871,13.459349 5.6328855,16.073974 z"
       id="path3305"
       style="opacity:0.8;fill:url(#linearGradient2688);fill-opacity:1;fill-rule:nonzero;stroke:none"
       inkscape:connector-curvature="0" />
    <path
       d="M 7.155289,13.193173 C 5.9722117,14.945185 5.2475768,16.829547 4.6301929,18.837116 L 15.96875,21.8125 C 16.184264,21.049497 16.486796,20.297733 16.9375,19.59375 16.95479,19.56675 16.98246,19.52673 17,19.5 L 7.155289,13.193173 z"
       id="path3307"
       style="opacity:0.8;fill:url(#linearGradient2690);fill-opacity:1;fill-rule:nonzero;stroke:none"
       inkscape:connector-curvature="0" />
  </g>
  <path
     d="m 31.567381,21.267216 c -5.857581,0 -10.567799,4.710216 -10.567799,10.567797 0,5.85758 4.710218,10.567796 10.567799,10.567796 5.857579,0 10.567796,-4.710216 10.567796,-10.567796 0,-5.857581 -4.710217,-10.567797 -10.567796,-10.567797 l 0,0 0,0 z"
     id="path3281"
     style="opacity:0.8;fill:none;stroke:url(#linearGradient2651);stroke-width:0.49152544;stroke-miterlimit:4;stroke-opacity:1"
     inkscape:connector-curvature="0" />
  <rect
     width="56.40638"
     height="20.99251"
     rx="2.7923954"
     ry="1.0392327"
     x="3.4479456"
     y="40.328979"
     id="rect6741"
     style="opacity:0.4;fill:none;stroke:url(#linearGradient2470);stroke-width:0.54778391;stroke-linecap:round;stroke-linejoin:round;stroke-miterlimit:4;stroke-opacity:1;stroke-dasharray:none;stroke-dashoffset:0" />
  <g
     transform="matrix(0.49152543,0,0,0.49152543,8.2449514,-25.793237)"
     id="layer5"
     style="display:inline" />
  <g
     transform="matrix(0.49152543,0,0,0.49152543,8.4898624,-20.362648)"
     id="layer3">
    <path
       d="m 44.751956,65 -4.76434,0.01045 -3.583985,0 -0.364836,1.477808 2.714814,0.01045 0.627734,0 c 1.742722,0 2.807566,0.684922 2.510936,1.885116 -0.320137,1.315271 -1.848745,1.89034 -3.460585,1.89034 l -0.600907,0 0.77796,-3.232377 -2.69872,0 -1.153528,4.720627 3.841517,0 c 2.880431,0 5.631325,-1.474953 6.105654,-3.37859 0.09462,-0.346388 0.08602,-1.214727 -0.139497,-1.733683 0,-0.02317 -0.01508,-0.03217 -0.02682,-0.07834 -0.0122,-0.01147 -0.02059,-0.09319 0.02682,-0.104435 0.02391,-0.01161 0.06873,0.03536 0.08049,0.047 0.02351,0.05768 0.03755,0.09922 0.03755,0.09922 l 2.441188,6.715414 6.223687,-6.830288 2.628972,0 0.633099,0 c 1.742721,0 2.806542,0.684921 2.521665,1.885115 -0.331888,1.315272 -1.859276,1.890341 -3.471313,1.890341 l -0.606274,0 0.783326,-3.232378 -2.704085,0 -1.148163,4.720628 3.841517,0 c 2.880831,0 5.643477,-1.474953 6.105651,-3.378591 0.47413,-1.892292 -1.565933,-3.373367 -4.458519,-3.373367 l -5.724719,0 c 0,0 -1.518048,1.743671 -1.802723,2.07833 -1.50526,1.765003 -1.781741,2.238536 -1.829549,2.365535 0.01192,-0.127004 -0.04668,-0.597959 -0.686753,-2.386422 -0.1775,-0.484636 -0.718944,-2.057443 -0.718944,-2.057443 l -1.958314,0 0,-0.01045 z m 2.468013,8.355092 C 39.917389,73.355092 34,74.173959 34,75.177547 34,76.192958 39.917389,77 47.219969,77 c 7.302381,0 13.225336,-0.807042 13.225336,-1.822453 0,-1.003588 -5.922955,-1.822455 -13.225336,-1.822455 z m -0.477506,1.258486 c 1.671599,0 3.026001,0.266249 3.026001,0.600521 0,0.33466 -1.354402,0.610966 -3.026001,0.610966 -1.671803,0 -3.020635,-0.276306 -3.020635,-0.610966 0,-0.334272 1.348832,-0.600521 3.020635,-0.600521 z"
       inkscape:connector-curvature="0"
       id="path3745"
       style="opacity:0.6;fill-rule:evenodd;display:inline" />
  </g>
  <rect
     style="fill:url(#radialGradient3930);fill-opacity:1.0;stroke:none"
     id="rect3152"
     width="56.993774"
     height="20.993069"
     x="3.5029023"
     y="40.405827"
     ry="2.6241336"
     rx="2.2125137" />
  <rect
     rx="2.2125137"
     ry="2.6241336"
     y="40.405827"
     x="3.5029023"
     height="20.993069"
     width="56.993774"
     id="rect3942"
     style="opacity:0.59999999999999998;fill:none;stroke:#126400;stroke-width:1.00622702000000008;stroke-linecap:round;stroke-linejoin:round;stroke-miterlimit:4;stroke-opacity:1;stroke-dasharray:none" />
  <rect
     style="opacity:0.6;fill:none;stroke:url(#linearGradient4068);stroke-width:1.00622702;stroke-linecap:round;stroke-linejoin:round;stroke-miterlimit:4;stroke-opacity:1;stroke-dasharray:none"
     id="rect4060"
     width="54.731113"
     height="18.655357"
     x="4.6197009"
     y="41.559525"
     ry="1.5754117"
     rx="1.0392909" />
  <path
     inkscape:connector-curvature="0"
     id="path4267"
     d="m 18.646436,55.912262 c -1.120493,-0.255791 -1.998611,-1.011941 -2.299734,-1.980316 -0.20858,-0.670767 -0.228808,-1.76905 -0.04427,-2.403825 0.272591,-0.937684 1.030635,-1.701017 1.998385,-2.012325 0.659752,-0.212234 1.95433,-0.2367 2.542173,-0.048 1.320258,0.423708 2.056169,1.46545 2.151705,3.045925 l 0.04546,0.752033 -2.415797,0 -2.415799,0 0.05518,0.182925 c 0.102883,0.341108 0.29191,0.696067 0.443965,0.833675 0.58203,0.526725 2.153016,0.473925 3.4543,-0.116108 l 0.529065,-0.239892 0,0.7644 c 0,0.892575 0.04332,0.844508 -0.990433,1.099083 -0.89001,0.219175 -2.370497,0.278542 -3.054187,0.122467 z m 2.254666,-4.130291 c -0.0022,-0.2965 -0.342585,-0.804734 -0.647801,-0.96715 -0.37753,-0.200884 -0.783979,-0.190159 -1.219119,0.03217 -0.409791,0.209392 -0.627648,0.474334 -0.701942,0.853659 l -0.05175,0.264225 1.310975,0 c 1.305727,0 1.31097,-7.34e-4 1.309638,-0.182925 z m 14.097984,4.132575 c -1.406587,-0.321867 -2.319458,-1.330392 -2.45835,-2.715942 -0.240445,-2.398617 1.062775,-3.858167 3.443004,-3.856017 0.925358,8.34e-4 1.384298,0.118609 1.998778,0.512925 0.835499,0.536134 1.277874,1.404842 1.353637,2.658167 l 0.04546,0.752033 -2.415797,0 -2.415799,0 0.05517,0.182925 c 0.252733,0.83795 0.654534,1.133067 1.608316,1.181275 0.778426,0.03933 1.504608,-0.107616 2.288932,-0.46325 l 0.530083,-0.24035 0,0.7644 c 0,0.892575 0.04332,0.844509 -0.990433,1.099084 -0.883274,0.217516 -2.371057,0.278508 -3.043002,0.12475 z m 2.21979,-4.234975 c -0.09368,-0.57725 -0.615795,-1.015484 -1.209871,-1.015484 -0.344135,0 -0.944181,0.300217 -1.137453,0.5691 -0.08035,0.111792 -0.169386,0.322159 -0.197849,0.467484 l -0.05175,0.264225 1.321613,0 1.321613,0 -0.0463,-0.285325 z m 15.422485,4.234975 c -1.019222,-0.233234 -1.798642,-0.8348 -2.195872,-1.694825 -0.220005,-0.476325 -0.234107,-0.570625 -0.234107,-1.565475 0,-1.030692 0.007,-1.072825 0.265014,-1.596942 0.464884,-0.944308 1.347367,-1.527875 2.566765,-1.697342 C 55.361476,49.037787 57,50.426554 57,52.713687 l 0,0.552025 -2.389729,0 -2.38973,0 0.08499,0.334825 c 0.105488,0.415592 0.52516,0.848092 0.932772,0.961284 0.746165,0.207216 1.93454,0.0455 2.90743,-0.395617 l 0.529065,-0.239892 0,0.7644 c 0,0.892575 0.04332,0.844509 -0.990433,1.099084 -0.883274,0.217516 -2.371056,0.278508 -3.043002,0.12475 z m 2.21979,-4.234975 c -0.09367,-0.57725 -0.615795,-1.015484 -1.20987,-1.015484 -0.344135,0 -0.94418,0.300217 -1.137453,0.5691 -0.08035,0.111792 -0.169385,0.322159 -0.197848,0.467484 l -0.05175,0.264225 1.321613,0 1.321613,0 -0.0463,-0.285325 z M 7,51.598901 7,47.31026 9.1341467,47.35418 c 2.3641233,0.04867 2.9264883,0.13085 3.7870403,0.553442 0.641584,0.315066 1.318531,0.981808 1.63664,1.611983 0.82693,1.638133 0.527017,3.906858 -0.670631,5.07305 -0.538899,0.524742 -1.082795,0.822817 -1.901463,1.042067 -0.545486,0.146083 -0.946061,0.176241 -2.8109363,0.211591 L 7,55.887563 7,51.598913 z m 4.140907,2.433225 c 0.869097,-0.2581 1.39221,-0.885608 1.561565,-1.873208 0.18785,-1.095456 -0.142912,-2.130039 -0.843164,-2.637297 -0.473888,-0.343284 -1.027017,-0.483575 -1.9065851,-0.483575 l -0.7576012,0 0,2.547425 c 0,1.401083 0.027442,2.5755 0.060975,2.609808 0.086888,0.0889 1.4265483,-0.02708 1.8848093,-0.16315 z m 14.086298,-2.381272 c -0.858296,-2.319058 -1.560538,-4.239791 -1.560538,-4.268291 0,-0.0285 0.48856,-0.05183 1.085691,-0.05183 l 1.085692,0 1.126227,3.130608 c 0.619426,1.721834 1.150377,3.084642 1.179891,3.02845 0.02952,-0.05617 0.540062,-1.464958 1.13455,-3.130608 l 1.080887,-3.02845 1.084425,0 c 0.596434,0 1.084425,0.026 1.084425,0.05775 0,0.03175 -0.700774,1.9525 -1.557274,4.268292 l -1.557275,4.210533 -1.313082,0 -1.313081,0 -1.560538,-4.216458 z m 15.756535,-0.0525 0,-4.289158 2.174796,0.04292 c 2.388812,0.04717 3.00916,0.144583 3.863564,0.606883 1.438541,0.778375 2.203904,2.490141 1.942112,4.343616 -0.242548,1.717242 -1.281541,2.873267 -2.994739,3.332084 -0.545487,0.146083 -0.946062,0.176241 -2.810937,0.211591 l -2.174796,0.04125 0,-4.289166 z m 4.150623,2.43085 c 0.580789,-0.172475 1.050876,-0.568975 1.336337,-1.12715 0.224581,-0.439133 0.244747,-0.5465 0.244747,-1.303067 0,-0.756566 -0.02017,-0.863941 -0.244747,-1.303075 -0.454964,-0.889608 -1.196947,-1.2579 -2.534237,-1.2579 l -0.757602,0 0,2.547425 c 0,1.401084 0.02744,2.5755 0.06097,2.609809 0.08779,0.08983 1.428658,-0.02767 1.894526,-0.166042 z"
     style="fill:#126400;fill-opacity:1;opacity:0.25" />
  <path
     style="fill:#ffffff;fill-opacity:1"
     d="m 18.646436,54.912262 c -1.120493,-0.255791 -1.998611,-1.011941 -2.299734,-1.980316 -0.20858,-0.670767 -0.228808,-1.76905 -0.04427,-2.403825 0.272591,-0.937684 1.030635,-1.701017 1.998385,-2.012325 0.659752,-0.212234 1.95433,-0.2367 2.542173,-0.048 1.320258,0.423708 2.056169,1.46545 2.151705,3.045925 l 0.04546,0.752033 -2.415797,0 -2.415799,0 0.05518,0.182925 c 0.102883,0.341108 0.29191,0.696067 0.443965,0.833675 0.58203,0.526725 2.153016,0.473925 3.4543,-0.116108 l 0.529065,-0.239892 0,0.7644 c 0,0.892575 0.04332,0.844508 -0.990433,1.099083 -0.89001,0.219175 -2.370497,0.278542 -3.054187,0.122467 z m 2.254666,-4.130291 c -0.0022,-0.2965 -0.342585,-0.804734 -0.647801,-0.96715 -0.37753,-0.200884 -0.783979,-0.190159 -1.219119,0.03217 -0.409791,0.209392 -0.627648,0.474334 -0.701942,0.853659 l -0.05175,0.264225 1.310975,0 c 1.305727,0 1.31097,-7.34e-4 1.309638,-0.182925 z m 14.097984,4.132575 c -1.406587,-0.321867 -2.319458,-1.330392 -2.45835,-2.715942 -0.240445,-2.398617 1.062775,-3.858167 3.443004,-3.856017 0.925358,8.34e-4 1.384298,0.118609 1.998778,0.512925 0.835499,0.536134 1.277874,1.404842 1.353637,2.658167 l 0.04546,0.752033 -2.415797,0 -2.415799,0 0.05517,0.182925 c 0.252733,0.83795 0.654534,1.133067 1.608316,1.181275 0.778426,0.03933 1.504608,-0.107616 2.288932,-0.46325 l 0.530083,-0.24035 0,0.7644 c 0,0.892575 0.04332,0.844509 -0.990433,1.099084 -0.883274,0.217516 -2.371057,0.278508 -3.043002,0.12475 z m 2.21979,-4.234975 c -0.09368,-0.57725 -0.615795,-1.015484 -1.209871,-1.015484 -0.344135,0 -0.944181,0.300217 -1.137453,0.5691 -0.08035,0.111792 -0.169386,0.322159 -0.197849,0.467484 l -0.05175,0.264225 1.321613,0 1.321613,0 -0.0463,-0.285325 z m 15.422485,4.234975 c -1.019222,-0.233234 -1.798642,-0.8348 -2.195872,-1.694825 -0.220005,-0.476325 -0.234107,-0.570625 -0.234107,-1.565475 0,-1.030692 0.007,-1.072825 0.265014,-1.596942 0.464884,-0.944308 1.347367,-1.527875 2.566765,-1.697342 C 55.361476,48.037787 57,49.426554 57,51.713687 l 0,0.552025 -2.389729,0 -2.38973,0 0.08499,0.334825 c 0.105488,0.415592 0.52516,0.848092 0.932772,0.961284 0.746165,0.207216 1.93454,0.0455 2.90743,-0.395617 l 0.529065,-0.239892 0,0.7644 c 0,0.892575 0.04332,0.844509 -0.990433,1.099084 -0.883274,0.217516 -2.371056,0.278508 -3.043002,0.12475 z m 2.21979,-4.234975 c -0.09367,-0.57725 -0.615795,-1.015484 -1.20987,-1.015484 -0.344135,0 -0.94418,0.300217 -1.137453,0.5691 -0.08035,0.111792 -0.169385,0.322159 -0.197848,0.467484 l -0.05175,0.264225 1.321613,0 1.321613,0 -0.0463,-0.285325 z M 7,50.598901 7,46.31026 9.1341467,46.35418 c 2.3641233,0.04867 2.9264883,0.13085 3.7870403,0.553442 0.641584,0.315066 1.318531,0.981808 1.63664,1.611983 0.82693,1.638133 0.527017,3.906858 -0.670631,5.07305 -0.538899,0.524742 -1.082795,0.822817 -1.901463,1.042067 -0.545486,0.146083 -0.946061,0.176241 -2.8109363,0.211591 L 7,54.887563 7,50.598913 z m 4.140907,2.433225 c 0.869097,-0.2581 1.39221,-0.885608 1.561565,-1.873208 0.18785,-1.095456 -0.142912,-2.130039 -0.843164,-2.637297 -0.473888,-0.343284 -1.027017,-0.483575 -1.9065851,-0.483575 l -0.7576012,0 0,2.547425 c 0,1.401083 0.027442,2.5755 0.060975,2.609808 0.086888,0.0889 1.4265483,-0.02708 1.8848093,-0.16315 z m 14.086298,-2.381272 c -0.858296,-2.319058 -1.560538,-4.239791 -1.560538,-4.268291 0,-0.0285 0.48856,-0.05183 1.085691,-0.05183 l 1.085692,0 1.126227,3.130608 c 0.619426,1.721834 1.150377,3.084642 1.179891,3.02845 0.02952,-0.05617 0.540062,-1.464958 1.13455,-3.130608 l 1.080887,-3.02845 1.084425,0 c 0.596434,0 1.084425,0.026 1.084425,0.05775 0,0.03175 -0.700774,1.9525 -1.557274,4.268292 l -1.557275,4.210533 -1.313082,0 -1.313081,0 -1.560538,-4.216458 z m 15.756535,-0.0525 0,-4.289158 2.174796,0.04292 c 2.388812,0.04717 3.00916,0.144583 3.863564,0.606883 1.438541,0.778375 2.203904,2.490141 1.942112,4.343616 -0.242548,1.717242 -1.281541,2.873267 -2.994739,3.332084 -0.545487,0.146083 -0.946062,0.176241 -2.810937,0.211591 l -2.174796,0.04125 0,-4.289166 z m 4.150623,2.43085 c 0.580789,-0.172475 1.050876,-0.568975 1.336337,-1.12715 0.224581,-0.439133 0.244747,-0.5465 0.244747,-1.303067 0,-0.756566 -0.02017,-0.863941 -0.244747,-1.303075 -0.454964,-0.889608 -1.196947,-1.2579 -2.534237,-1.2579 l -0.757602,0 0,2.547425 c 0,1.401084 0.02744,2.5755 0.06097,2.609809 0.08779,0.08983 1.428658,-0.02767 1.894526,-0.166042 z"
     id="path4163"
     inkscape:connector-curvature="0" />
</svg>
