<?xml version="1.0" encoding="UTF-8" standalone="no"?>
<!-- Created with Inkscape (http://www.inkscape.org/) -->

<svg
   xmlns:dc="http://purl.org/dc/elements/1.1/"
   xmlns:cc="http://creativecommons.org/ns#"
   xmlns:rdf="http://www.w3.org/1999/02/22-rdf-syntax-ns#"
   xmlns:svg="http://www.w3.org/2000/svg"
   xmlns="http://www.w3.org/2000/svg"
   xmlns:xlink="http://www.w3.org/1999/xlink"
   xmlns:sodipodi="http://sodipodi.sourceforge.net/DTD/sodipodi-0.dtd"
   xmlns:inkscape="http://www.inkscape.org/namespaces/inkscape"
   width="64px"
   height="64px"
   id="svg3398"
   version="1.1"
   inkscape:version="0.48.4 r9939"
   sodipodi:docname="gbrainy.svg">
  <defs
     id="defs3400">
    <linearGradient
       inkscape:collect="always"
       xlink:href="#linearGradient3707-319-631-407-1-846-4-7"
       id="linearGradient3206-4"
       gradientUnits="userSpaceOnUse"
       gradientTransform="matrix(1.4102565,0,0,1.4102565,-1.8461554,-3.2564101)"
       x1="19.874987"
       y1="44.520065"
       x2="19.874987"
       y2="5.2502403" />
    <linearGradient
       id="linearGradient3707-319-631-407-1-846-4-7">
      <stop
         id="stop3788-5-4"
         style="stop-color:#365a7c;stop-opacity:1"
         offset="0" />
      <stop
         id="stop3790-9-4"
         style="stop-color:#5ea1ca;stop-opacity:1;"
         offset="1" />
    </linearGradient>
    <linearGradient
       inkscape:collect="always"
       xlink:href="#linearGradient3707-319-631-407-1-846-4-8-0"
       id="linearGradient3209-3"
       gradientUnits="userSpaceOnUse"
       gradientTransform="matrix(1.4102565,0,0,1.4102565,-1.8461554,-3.2564101)"
       x1="19.874987"
       y1="44.520065"
       x2="19.874987"
       y2="5.2502403" />
    <linearGradient
       id="linearGradient3707-319-631-407-1-846-4-8-0">
      <stop
         id="stop3788-5-5-7"
         style="stop-color:#365a7c;stop-opacity:1"
         offset="0" />
      <stop
         id="stop3790-9-0-8"
         style="stop-color:#5ea1ca;stop-opacity:1;"
         offset="1" />
    </linearGradient>
    <linearGradient
       inkscape:collect="always"
       xlink:href="#linearGradient3707-319-631-407-1-846-4-9-8"
       id="linearGradient3212-6"
       gradientUnits="userSpaceOnUse"
       gradientTransform="matrix(1.4102565,0,0,1.4102565,-1.8461554,-3.2564101)"
       x1="19.874987"
       y1="44.520065"
       x2="19.874987"
       y2="5.2502403" />
    <linearGradient
       id="linearGradient3707-319-631-407-1-846-4-9-8">
      <stop
         id="stop3788-5-1-8"
         style="stop-color:#365a7c;stop-opacity:1"
         offset="0" />
      <stop
         id="stop3790-9-8-4"
         style="stop-color:#5ea1ca;stop-opacity:1;"
         offset="1" />
    </linearGradient>
    <linearGradient
       inkscape:collect="always"
       xlink:href="#linearGradient8265-821-176-38-919-66-249-7-7"
       id="linearGradient3215"
       gradientUnits="userSpaceOnUse"
       gradientTransform="matrix(1.1723404,0,0,1.8434143,3.8089875,-5.5299719)"
       x1="16.626165"
       y1="15.298182"
       x2="20.054544"
       y2="24.627615" />
    <linearGradient
       id="linearGradient8265-821-176-38-919-66-249-7-7">
      <stop
         id="stop2687-1-9"
         style="stop-color:#ffffff;stop-opacity:1"
         offset="0" />
      <stop
         id="stop2689-5-4"
         style="stop-color:#ffffff;stop-opacity:0"
         offset="1" />
    </linearGradient>
    <linearGradient
       inkscape:collect="always"
       xlink:href="#linearGradient3924"
       id="linearGradient3218"
       gradientUnits="userSpaceOnUse"
       gradientTransform="matrix(1.4324324,0,0,1.4362832,-2.3783747,-2.4707827)"
       x1="23.99999"
       y1="4.999989"
       x2="23.99999"
       y2="43" />
    <linearGradient
       id="linearGradient3924">
      <stop
         id="stop3926"
         style="stop-color:#ffffff;stop-opacity:1"
         offset="0" />
      <stop
         id="stop3928"
         style="stop-color:#ffffff;stop-opacity:0.23529412"
         offset="0.06316455" />
      <stop
         id="stop3930"
         style="stop-color:#ffffff;stop-opacity:0.15686275"
         offset="0.95056331" />
      <stop
         id="stop3932"
         style="stop-color:#ffffff;stop-opacity:0.39215687"
         offset="1" />
    </linearGradient>
    <radialGradient
       inkscape:collect="always"
       xlink:href="#linearGradient2867-449-88-871-390-598-476-591-434-148-57-177"
       id="radialGradient3221"
       gradientUnits="userSpaceOnUse"
       gradientTransform="matrix(2.7399122e-8,3.2957553,-3.4865161,-6.0720391e-8,61.460404,-19.38241)"
       cx="7.4956832"
       cy="8.4497671"
       fx="7.4956832"
       fy="8.4497671"
       r="19.99999" />
    <linearGradient
       id="linearGradient2867-449-88-871-390-598-476-591-434-148-57-177">
      <stop
         offset="0"
         style="stop-color:#90dbec;stop-opacity:1;"
         id="stop3750" />
      <stop
         offset="0.26238"
         style="stop-color:#55c1ec;stop-opacity:1;"
         id="stop3752" />
      <stop
         offset="0.704952"
         style="stop-color:#3689e6;stop-opacity:1;"
         id="stop3754" />
      <stop
         offset="1"
         style="stop-color:#2b63a0;stop-opacity:1;"
         id="stop3756" />
    </linearGradient>
    <linearGradient
       id="linearGradient3707-319-631-407-324">
      <stop
         offset="0"
         style="stop-color:#185f9a;stop-opacity:1;"
         id="stop3760" />
      <stop
         offset="1"
         style="stop-color:#599ec9;stop-opacity:1;"
         id="stop3762" />
    </linearGradient>
    <radialGradient
       inkscape:collect="always"
       xlink:href="#linearGradient3688-166-749"
       id="radialGradient3184"
       gradientUnits="userSpaceOnUse"
       gradientTransform="matrix(2.003784,0,0,1.4,27.98813,-17.4)"
       cx="4.9929786"
       cy="43.5"
       fx="4.9929786"
       fy="43.5"
       r="2.5" />
    <linearGradient
       id="linearGradient3688-166-749">
      <stop
         id="stop2883"
         style="stop-color:#181818;stop-opacity:1"
         offset="0" />
      <stop
         id="stop2885"
         style="stop-color:#181818;stop-opacity:0"
         offset="1" />
    </linearGradient>
    <radialGradient
       inkscape:collect="always"
       xlink:href="#linearGradient3688-464-309"
       id="radialGradient3186"
       gradientUnits="userSpaceOnUse"
       gradientTransform="matrix(2.003784,0,0,1.4,-20.01187,-104.4)"
       cx="4.9929786"
       cy="43.5"
       fx="4.9929786"
       fy="43.5"
       r="2.5" />
    <linearGradient
       id="linearGradient3688-464-309">
      <stop
         id="stop2889"
         style="stop-color:#181818;stop-opacity:1"
         offset="0" />
      <stop
         id="stop2891"
         style="stop-color:#181818;stop-opacity:0"
         offset="1" />
    </linearGradient>
    <linearGradient
       inkscape:collect="always"
       xlink:href="#linearGradient3702-501-757"
       id="linearGradient3188"
       gradientUnits="userSpaceOnUse"
       x1="25.058096"
       y1="47.027729"
       x2="25.058096"
       y2="39.999443" />
    <linearGradient
       id="linearGradient3702-501-757">
      <stop
         id="stop2895"
         style="stop-color:#181818;stop-opacity:0"
         offset="0" />
      <stop
         id="stop2897"
         style="stop-color:#181818;stop-opacity:1"
         offset="0.5" />
      <stop
         id="stop2899"
         style="stop-color:#181818;stop-opacity:0"
         offset="1" />
    </linearGradient>
    <radialGradient
       r="19.99999"
       fy="8.4497671"
       fx="10.90426"
       cy="8.4497671"
       cx="10.90426"
       gradientTransform="matrix(0,2.2235886,-1.9203805,0,49.050172,-7.655704)"
       gradientUnits="userSpaceOnUse"
       id="radialGradient3064"
       xlink:href="#linearGradient2867-449-88-871-390-598-476-591-434-148-57-177-641-289-620-227-114-444-680-744-8-7-9"
       inkscape:collect="always" />
    <linearGradient
       id="linearGradient2867-449-88-871-390-598-476-591-434-148-57-177-641-289-620-227-114-444-680-744-8-7-9">
      <stop
         id="stop5430-8-6-3"
         style="stop-color:#5f5f5f;stop-opacity:1"
         offset="0" />
      <stop
         id="stop5432-3-5-7"
         style="stop-color:#4f4f4f;stop-opacity:1"
         offset="0.26238" />
      <stop
         id="stop5434-1-6-8"
         style="stop-color:#3b3b3b;stop-opacity:1"
         offset="0.704952" />
      <stop
         id="stop5436-8-9-7"
         style="stop-color:#2b2b2b;stop-opacity:1"
         offset="1" />
    </linearGradient>
    <linearGradient
       y2="3.8990016"
       x2="24"
       y1="44"
       x1="24"
       gradientTransform="matrix(1.5190523,0,0,1.5814347,-3.6340516,-4.0442306)"
       gradientUnits="userSpaceOnUse"
       id="linearGradient3066"
       xlink:href="#linearGradient3707-319-631-407-324-616-674-812-821-107-178-392-400-6-7-4"
       inkscape:collect="always" />
    <linearGradient
       id="linearGradient3707-319-631-407-324-616-674-812-821-107-178-392-400-6-7-4">
      <stop
         id="stop5440-4-4-1"
         style="stop-color:#272727;stop-opacity:1"
         offset="0" />
      <stop
         id="stop5442-3-5-9"
         style="stop-color:#454545;stop-opacity:1"
         offset="1" />
    </linearGradient>
    <linearGradient
       x1="23.849546"
       y1="13.629043"
       x2="23.849546"
       y2="32.141293"
       id="linearGradient3788-7"
       xlink:href="#linearGradient3139-0"
       gradientUnits="userSpaceOnUse"
       gradientTransform="matrix(1.2657677,0,0,1.5408519,-2.9241492,-2.2937048)" />
    <linearGradient
       id="linearGradient3139-0">
      <stop
         id="stop3141-7"
         style="stop-color:#ffffff;stop-opacity:1"
         offset="0" />
      <stop
         id="stop3143-5"
         style="stop-color:#ffffff;stop-opacity:0.23529412"
         offset="0.12291458" />
      <stop
         id="stop3145-2"
         style="stop-color:#ffffff;stop-opacity:0.15686275"
         offset="0.98286366" />
      <stop
         id="stop3147-3"
         style="stop-color:#ffffff;stop-opacity:0.39215687"
         offset="1" />
    </linearGradient>
  </defs>
  <sodipodi:namedview
     id="base"
     pagecolor="#ffffff"
     bordercolor="#666666"
     borderopacity="1.0"
     inkscape:pageopacity="0.0"
     inkscape:pageshadow="2"
     inkscape:zoom="5.5"
     inkscape:cx="68.181818"
     inkscape:cy="7.6363636"
     inkscape:current-layer="layer1"
     showgrid="true"
     inkscape:document-units="px"
     inkscape:grid-bbox="true"
     inkscape:window-width="1119"
     inkscape:window-height="1028"
     inkscape:window-x="75"
     inkscape:window-y="24"
     inkscape:window-maximized="0" />
  <metadata
     id="metadata3403">
    <rdf:RDF>
      <cc:Work
         rdf:about="">
        <dc:format>image/svg+xml</dc:format>
        <dc:type
           rdf:resource="http://purl.org/dc/dcmitype/StillImage" />
        <dc:title />
      </cc:Work>
    </rdf:RDF>
  </metadata>
  <g
     id="layer1"
     inkscape:label="Layer 1"
     inkscape:groupmode="layer">
    <g
       style="display:inline"
       id="g2036"
       transform="matrix(1.5000021,0,0,0.5555561,-4.0000114,35.888881)">
      <g
         style="opacity:0.4"
         id="g3712"
         transform="matrix(1.052632,0,0,1.285713,-1.263158,-13.42854)">
        <rect
           style="fill:url(#radialGradient3184);fill-opacity:1;stroke:none"
           id="rect2801"
           y="40"
           x="38"
           height="7"
           width="5" />
        <rect
           style="fill:url(#radialGradient3186);fill-opacity:1;stroke:none"
           id="rect3696"
           transform="scale(-1,-1)"
           y="-47"
           x="-10"
           height="7"
           width="5" />
        <rect
           style="fill:url(#linearGradient3188);fill-opacity:1;stroke:none"
           id="rect3700"
           y="40"
           x="10"
           height="7.0000005"
           width="28" />
      </g>
    </g>
    <rect
       style="color:#000000;fill:url(#radialGradient3221);fill-opacity:1;fill-rule:nonzero;stroke:none;stroke-width:0.99999994000000003;stroke-linecap:round;stroke-linejoin:round;stroke-miterlimit:4;stroke-opacity:1;stroke-dasharray:none;stroke-dashoffset:0;marker:none;visibility:visible;display:inline;overflow:visible;enable-background:accumulate"
       id="rect5505-21"
       y="4.5"
       x="4.5"
       ry="3"
       rx="3"
       height="55"
       width="55" />
    <rect
       style="opacity:0.5;fill:none;stroke:url(#linearGradient3218);stroke-width:1;stroke-linecap:round;stroke-linejoin:round;stroke-miterlimit:4;stroke-opacity:1;stroke-dasharray:none;stroke-dashoffset:0"
       id="rect6741"
       y="5.428761"
       x="5.5"
       ry="2"
       rx="2"
       height="53.142479"
       width="53" />
    <path
       inkscape:connector-curvature="0"
       id="path6"
       style="fill:#ffffff"
       d="m 53.019893,32.008156 v 1.313184 l 0.07724,0.772461 v 0.695215 l -0.07724,0.61797 -0.07725,0.463477 -0.07725,0.231738 -0.07725,0.154493 -0.154495,0.07725 h -0.154486 -0.308988 l -0.617967,-0.07725 -2.085649,-0.07725 -1.235939,-0.07725 h -1.390427 l -1.313183,0.07725 h -0.617971 l -0.540723,0.07725 0.154492,-0.617969 0.154491,-0.540723 0.154494,-0.617969 v -0.617969 -0.61797 L 44.754552,32.626125 44.600062,32.008156 44.368323,31.467433 44.136585,30.92671 43.904847,30.385987 43.595862,29.92251 43.132384,29.53628 42.823401,29.227295 42.514416,28.918311 42.205431,28.686572 41.896447,28.53208 41.123985,28.223095 40.42877,27.991357 39.965293,27.682372 39.501816,27.373388 39.115586,27.064403 38.729355,26.755419 V 26.52368 26.214696 l 0.07725,-0.231738 0.07725,-0.23174 0.07725,-0.231738 0.154493,-0.154491 0.231738,-0.154493 0.154492,-0.154493 0.231739,-0.07725 0.231738,-0.07725 h 0.463477 l 0.308984,0.07725 0.231739,0.154493 0.308984,0.154492 0.308985,0.154493 0.463476,0.38623 0.231739,0.07725 0.231739,0.07725 0.308985,0.07725 0.38623,-0.07725 0.231739,-0.07725 0.308983,-0.231739 0.23174,-0.231737 0.231738,-0.231739 0.463476,-0.386231 0.231739,-0.154491 0.154494,-0.07725 h 0.154489 0.154494 0.154494 l 0.308984,0.154492 0.231738,0.154492 0.231739,0.154492 0.463478,0.463477 0.386228,0.386231 0.308983,0.308985 0.386233,0.231738 0.308983,0.154493 0.308983,0.07725 h 0.308988 0.308984 l 0.231738,-0.07725 0.308985,-0.07725 0.231739,-0.154492 0.231739,-0.154492 0.231738,-0.231738 0.386228,-0.386232 0.386233,-0.38623 0.154494,-0.07725 0.231739,0.07725 0.07724,0.07725 0.07725,0.07725 0.07725,0.154491 0.07725,0.154492 0.15449,0.308986 0.154494,0.463476 0.231738,1.0042 0.231739,1.158692 0.231739,1.235938 0.154494,1.158692 0.07725,1.0042 z" />
    <path
       inkscape:connector-curvature="0"
       id="path8"
       style="fill:#ffffff"
       d="m 44.136585,36.72017 2.394632,-0.231738 2.162889,-0.07725 0.926955,0.07725 h 0.695216 l 0.540722,0.07725 h 0.154494 l 0.07725,0.07725 0.154495,0.07725 0.07725,0.07725 0.07725,0.154493 v 0.07725 l -0.07725,0.231738 -0.07725,0.231738 -0.463478,0.463477 -0.154494,0.308985 -0.15449,0.231738 0.231734,0.849707 0.07725,0.463477 v 0.463478 0.617969 l -0.07725,0.38623 v 0.308985 l -0.154489,0.617969 -0.154494,0.308985 -0.07725,0.308984 -0.308983,0.540723 -0.154494,0.308985 -0.231739,0.231738 -0.154494,0.231738 -0.231735,0.308985 -0.463477,0.463477 -0.463477,0.38623 -0.540723,0.386231 -0.617971,0.308984 -0.617967,0.308985 -0.695216,0.231738 -0.695216,0.154492 -0.695215,0.154493 h -0.772463 l -1.699413,0.07725 -0.61797,-0.07725 -0.617969,-0.07725 -0.61797,-0.154503 -0.617969,-0.154493 -0.540722,-0.231739 -0.463477,-0.231738 -0.540723,-0.308985 -0.463477,-0.308984 -0.38623,-0.308985 -0.386231,-0.38623 -0.308985,-0.386231 -0.231738,-0.386231 -0.231739,-0.38623 -0.154493,-0.463477 -0.154491,-0.463477 V 42.127404 41.81842 41.586681 l 0.540723,-0.308985 0.463476,-0.154491 1.081447,-0.386232 1.158691,-0.308984 0.540723,-0.231738 0.463477,-0.154493 0.849708,-0.386231 0.463476,-0.154491 0.308985,-0.231739 0.231738,-0.154493 0.308985,-0.154492 0.463477,-0.308984 0.38623,-0.386231 0.386232,-0.386231 0.617969,-0.772461 0.231738,-0.386231 z" />
    <path
       inkscape:connector-curvature="0"
       id="path10"
       style="fill:#ffffff"
       d="m 29.768803,29.53628 -0.308984,0.07725 -0.308985,0.07725 h -0.308985 -0.308984 l -0.386231,-0.386237 -0.38623,-0.463476 -0.231739,-0.463477 -0.154492,-0.463477 -0.154493,-0.463477 -0.07725,-0.463478 -0.07725,-0.540722 0.07725,-0.540723 0.07725,-0.463476 0.07725,-0.308986 0.231739,-0.308984 0.154492,-0.308985 0.308984,-0.231738 0.231739,-0.231738 0.231739,-0.154493 0.463476,-0.38623 1.004201,-0.695215 0.38623,-0.231739 0.308985,-0.308984 0.617969,-0.772462 0.308984,-0.463476 0.231739,-0.463477 0.231738,-0.463478 0.231738,-0.463476 0.231739,-0.463476 0.154492,-0.386232 0.07725,-0.38623 v -0.386231 -0.308985 l -0.07725,-0.38623 -0.07725,-0.231739 L 32.395172,16.790669 32.24068,16.636176 32.16343,16.481684 31.854446,16.1727 31.699954,16.018207 31.545461,15.863715 31.159231,15.631977 30.309523,15.1685 29.38257,14.705023 27.837647,14.087054 27.37417,13.855316 27.219677,13.778066 v -0.07725 l 0.07725,-0.07725 0.07725,-0.07725 0.308985,-0.07725 0.463477,-0.07725 h 0.617969 1.235939 l 1.235938,0.07725 1.622168,0.07725 1.622169,0.231738 1.62217,0.386231 0.772461,0.154492 0.849707,0.231738 0.772462,0.308985 0.772461,0.231738 1.544923,0.617969 0.695215,0.386231 0.772461,0.308984 0.695215,0.386231 0.695215,0.386231 0.695216,0.386231 0.617967,0.38623 0.617972,0.463478 0.617967,0.386229 1.081449,0.926955 1.0042,0.926953 0.463477,0.463477 0.386227,0.463477 0.386235,0.463477 0.386228,0.540723 0.154494,0.231738 0.07725,0.231738 0.308988,0.463477 0.15449,0.463477 0.231738,0.463477 -0.07724,0.231739 v 0.154491 l -0.154495,0.231739 -0.154489,0.231738 -0.154494,0.154493 -0.231739,0.231738 -0.308983,0.154492 -0.308988,0.154493 -0.308985,0.07725 H 48.8486 48.462366 48.153384 l -0.386229,-0.154492 -0.386233,-0.231738 -0.386232,-0.231738 -0.386228,-0.386231 -0.463478,-0.463477 -0.386227,-0.308985 -0.23174,-0.07725 -0.154494,-0.07725 -0.154494,-0.07725 h -0.154488 l -0.308989,0.07725 -0.231736,0.154492 -0.231739,0.231739 -0.231738,0.231738 -0.540723,0.463477 -0.231738,0.154493 -0.308986,0.154491 h -0.154491 -0.154492 -0.308986 l -0.231738,-0.07725 -0.231738,-0.154493 -0.231739,-0.154492 -0.231738,-0.154492 -0.308985,-0.231739 -0.308984,-0.154492 -0.231739,-0.07725 -0.308984,-0.07725 h -0.308985 l -0.231738,0.07725 -0.231739,0.07725 -0.231738,0.154492 -0.231738,0.154493 -0.154493,0.154492 -0.154492,0.231738 -0.154492,0.231739 -0.154492,0.231738 v 0.308985 l -0.07725,0.231738 v 0.308985 l -0.617969,-0.463476 -0.386232,-0.308986 -0.38623,-0.231738 -0.231738,-0.07725 h -0.07725 -0.154491 l -0.07725,0.07725 -0.154493,0.231738 -0.308985,0.617969 -0.154492,0.386232 -0.154492,0.154491 -0.154492,0.154492 -0.231739,0.07725 -0.231739,0.154494 -0.308984,0.07725 -0.386231,0.07725 -0.926953,0.07725 -0.772462,0.07725 -0.617969,0.154492 -0.617969,0.231739 -0.231738,0.07725 -0.231738,0.154493 -0.231739,0.154491 -0.231738,0.154493 -0.154492,0.231739 -0.231739,0.231738 -0.308984,0.463477 z" />
    <path
       inkscape:connector-curvature="0"
       id="path12"
       style="fill:#ffffff"
       d="m 10.843499,24.978757 0.231739,-0.540723 0.231738,-0.540723 0.231738,-0.540723 0.231739,-0.463476 0.617969,-1.0042 0.695215,-1.0042 0.695216,-0.926953 0.386231,-0.386231 0.463476,-0.463477 0.849708,-0.772461 0.926953,-0.772461 1.0042,-0.695216 1.081446,-0.617969 1.081446,-0.540723 1.158693,-0.540723 1.235938,-0.463477 1.313184,-0.308984 1.313184,-0.308985 1.39043,-0.231738 h 0.308985 l 0.308984,0.07725 0.540724,0.07725 0.463476,0.231738 0.463477,0.154493 1.081446,0.540722 1.0042,0.463477 0.463477,0.308985 0.463477,0.308984 0.308984,0.386231 0.154492,0.154492 0.154493,0.231738 0.154492,0.308985 0.07725,0.308985 v 0.231738 l 0.07725,0.308984 -0.07725,0.540723 -0.154492,0.540724 -0.154493,0.617969 -0.38623,0.695215 -0.386231,0.617969 -0.154492,0.231739 -0.154492,0.231738 -0.231739,0.308985 -0.154492,0.154492 -0.463477,0.463477 -0.463477,0.463476 -0.540722,0.386231 -0.695217,0.463477 -0.154491,0.154492 -0.231739,0.07725 -0.308985,0.308985 -0.231737,0.308984 -0.231739,0.231739 -0.154493,0.308984 -0.154492,0.386232 -0.154492,0.540723 v 0.231738 0.231737 0.540723 l 0.154492,0.540724 0.07725,0.308984 0.07725,0.231739 0.308985,0.540723 0.38623,0.540723 0.386232,0.540723 H 27.45143 l -0.308983,-0.07725 -0.386232,-0.07725 h -0.308993 l -0.308985,0.07725 -0.231738,0.07725 -0.154492,0.07725 -0.154492,0.07725 -0.07725,0.154492 -0.07725,0.07725 -0.154492,0.308985 -0.07725,0.38623 -0.231738,0.386231 -0.308985,0.38623 -0.231738,0.231739 -0.386231,0.154492 -0.38623,0.154492 -0.308985,0.231739 -0.617969,0.463476 -0.540723,0.463477 -0.463478,0.540724 -0.849706,1.158691 -0.849707,1.158693 0.07725,-0.231738 -0.617969,0.154492 -0.695215,0.154492 -0.61797,0.07725 h -0.695217 l -0.695215,-0.07725 -0.695215,-0.07725 -0.695216,-0.154492 -0.617968,-0.308985 -0.617969,-0.231738 -0.617969,-0.386231 -0.540723,-0.38623 -0.540724,-0.463478 -0.463476,-0.463476 -0.386231,-0.540724 -0.386231,-0.540723 -0.386231,-0.617969 -0.308984,-0.617969 -0.07725,-0.308984 -0.154493,-0.386231 -0.07725,-0.308984 -0.07725,-0.308985 -0.1544922,-0.695215 0.07725,-1.158692 0.231738,-1.081447 0.231739,-1.081445 0.308984,-1.081446 z" />
    <path
       inkscape:connector-curvature="0"
       id="path14"
       style="fill:#ffffff"
       d="m 25.983742,30.231495 0.308985,-0.07725 h 0.38623 0.463478 l 0.695215,0.07725 0.308984,0.07725 0.386231,-0.07725 0.231738,-0.07725 0.308985,-0.07725 0.540722,-0.231739 0.463478,-0.231738 0.926953,-0.695215 0.540723,-0.231739 0.308985,-0.154492 0.308984,-0.154492 0.695216,-0.154492 0.38623,-0.07725 0.463477,-0.07725 0.617969,-0.07725 0.540724,-0.154494 0.463476,-0.231737 0.386231,-0.231738 0.308984,-0.308986 0.308985,-0.308984 0.540723,-0.695215 0.308985,0.231738 0.308984,0.154492 0.695215,0.540723 0.386231,0.308985 0.308984,0.308985 0.308985,0.231737 0.463477,0.154494 0.540723,0.231738 0.617969,0.308984 0.617969,0.308985 0.463477,0.308984 0.463476,0.386231 0.386232,0.540723 0.308983,0.463477 0.308986,0.463477 0.231738,0.463476 0.154491,0.617969 0.07725,0.540723 0.07725,0.617969 v 0.61797 l -0.07725,0.617969 -0.07725,0.617969 -0.154491,0.617969 -0.154492,0.617969 -0.154492,0.308985 -0.07725,0.308984 -0.386231,0.540723 -0.154492,0.308985 -0.23174,0.231738 -0.463475,0.463477 -0.463478,0.38623 -0.386231,0.231739 -0.38623,0.154492 -0.849708,0.463477 -1.081446,0.386232 -1.081445,0.386229 -1.931155,0.695215 -1.081445,0.308986 -1.235938,0.308984 -1.158692,0.308985 -1.235938,0.154492 -1.158692,0.154492 H 28.841848 27.760403 27.219679 L 26.678956,42.359115 25.674757,42.204623 24.747803,41.972884 24.284326,41.818392 23.82085,41.6639 23.434619,41.509408 23.048388,41.354915 22.275927,40.968685 21.657958,40.505207 21.117234,39.964484 20.653758,39.346515 20.499265,39.037531 20.344773,38.728546 20.190281,38.26507 20.113031,37.724347 20.035781,37.26087 v -0.540723 l 0.849707,-1.158693 0.463477,-0.617969 0.386229,-0.540722 0.463478,-0.540723 0.540723,-0.540724 0.308985,-0.231737 0.308984,-0.154493 0.386231,-0.231739 0.308984,-0.231738 0.386231,-0.154492 0.231738,-0.231739 0.231739,-0.154492 0.154492,-0.231738 0.154492,-0.386231 0.308985,-0.617969 0.231738,-0.231738 0.07725,-0.154493 0.154492,-0.07725 z" />
    <path
       inkscape:connector-curvature="0"
       id="path16"
       style="fill:#ffffff"
       d="m 34.789803,42.436385 1.467676,3.321583 0.308984,0.07725 0.849708,0.308985 0.463477,0.231738 0.463477,0.308985 0.308984,0.308984 0.154492,0.154493 0.154493,0.154493 0.617969,1.467676 0.695215,1.235938 0.695215,1.390431 -4.094045,1.467676 -1.467677,-3.862307 -2.317384,-1.699414 -2.085646,-4.094046 3.785062,-0.772461 z" />
    <rect
       width="55"
       height="55"
       rx="3"
       ry="3"
       x="4.5"
       y="4.5"
       id="rect3825"
       style="color:#000000;fill:none;fill-opacity:1;fill-rule:nonzero;stroke:#001538;stroke-width:0.99999994000000003;stroke-linecap:round;stroke-linejoin:round;stroke-miterlimit:4;stroke-opacity:1;stroke-dasharray:none;stroke-dashoffset:0;marker:none;visibility:visible;display:inline;overflow:visible;enable-background:accumulate;opacity:0.6" />
  </g>
</svg>
