<?xml version="1.0" encoding="UTF-8" standalone="no"?>
<!-- Created with Inkscape (http://www.inkscape.org/) -->

<svg
   xmlns:dc="http://purl.org/dc/elements/1.1/"
   xmlns:cc="http://creativecommons.org/ns#"
   xmlns:rdf="http://www.w3.org/1999/02/22-rdf-syntax-ns#"
   xmlns:svg="http://www.w3.org/2000/svg"
   xmlns="http://www.w3.org/2000/svg"
   xmlns:xlink="http://www.w3.org/1999/xlink"
   xmlns:sodipodi="http://sodipodi.sourceforge.net/DTD/sodipodi-0.dtd"
   xmlns:inkscape="http://www.inkscape.org/namespaces/inkscape"
   id="svg11300"
   height="64"
   width="64"
   version="1.0"
   inkscape:version="0.48.4 r9939"
   sodipodi:docname="gnome-aisleriot.svg">
  <metadata
     id="metadata63">
    <rdf:RDF>
      <cc:Work
         rdf:about="">
        <dc:format>image/svg+xml</dc:format>
        <dc:type
           rdf:resource="http://purl.org/dc/dcmitype/StillImage" />
        <dc:title />
      </cc:Work>
    </rdf:RDF>
  </metadata>
  <sodipodi:namedview
     pagecolor="#ffffff"
     bordercolor="#666666"
     borderopacity="1"
     objecttolerance="10"
     gridtolerance="10"
     guidetolerance="10"
     inkscape:pageopacity="0"
     inkscape:pageshadow="2"
     inkscape:window-width="1855"
     inkscape:window-height="1056"
     id="namedview61"
     showgrid="false"
     inkscape:zoom="13.65625"
     inkscape:cx="32"
     inkscape:cy="32"
     inkscape:window-x="65"
     inkscape:window-y="24"
     inkscape:window-maximized="1"
     inkscape:current-layer="g6506" />
  <defs
     id="defs3">
    <linearGradient
       id="linearGradient5460">
      <stop
         id="stop5462"
         style="stop-color:#e5e5e5"
         offset="0" />
      <stop
         id="stop5464"
         style="stop-color:#c8c8c8"
         offset="1" />
    </linearGradient>
    <linearGradient
       id="linearGradient2296">
      <stop
         id="stop2298"
         style="stop-color:#fff"
         offset="0" />
      <stop
         id="stop2300"
         style="stop-color:#fff;stop-opacity:0"
         offset="1" />
    </linearGradient>
    <linearGradient
       id="linearGradient3116">
      <stop
         id="stop3118"
         style="stop-color:#e5e5e5"
         offset="0" />
      <stop
         id="stop3120"
         style="stop-color:#dfdfdf"
         offset="1" />
    </linearGradient>
    <linearGradient
       id="linearGradient3702">
      <stop
         id="stop3704"
         style="stop-opacity:0"
         offset="0" />
      <stop
         id="stop3710"
         offset=".5" />
      <stop
         id="stop3706"
         style="stop-opacity:0"
         offset="1" />
    </linearGradient>
    <linearGradient
       id="linearGradient3688">
      <stop
         id="stop3690"
         offset="0" />
      <stop
         id="stop3692"
         style="stop-opacity:0"
         offset="1" />
    </linearGradient>
    <linearGradient
       id="linearGradient6424"
       y2="18.534"
       xlink:href="#linearGradient2296"
       gradientUnits="userSpaceOnUse"
       x2="78"
       gradientTransform="matrix(0.96932,0.30347,-0.31303,0.99988,-26.514,-28.878)"
       y1="18.534"
       x1="48" />
    <linearGradient
       id="linearGradient6436"
       y2="38.118"
       xlink:href="#linearGradient2296"
       gradientUnits="userSpaceOnUse"
       x2="68.843002"
       gradientTransform="matrix(0.9534095,-0.01302221,0.01469262,0.89908638,-41.771012,2.0989964)"
       y1="9.1135998"
       x1="54.286999" />
    <linearGradient
       id="linearGradient6441"
       y2="44.77"
       xlink:href="#linearGradient3116"
       gradientUnits="userSpaceOnUse"
       x2="50.808998"
       gradientTransform="matrix(0.79284854,0,0,1.0339348,-11.511222,0.33992013)"
       y1="17.249001"
       x1="34.562" />
    <radialGradient
       id="radialGradient6443"
       xlink:href="#linearGradient2296"
       gradientUnits="userSpaceOnUse"
       cy="20.632"
       cx="10.185"
       gradientTransform="matrix(1.043991,0,0,1.3575769,-5.8373399,-17.294058)"
       r="12.977" />
    <linearGradient
       id="linearGradient6446"
       y2="41.369999"
       xlink:href="#linearGradient5460"
       gradientUnits="userSpaceOnUse"
       x2="51.861"
       gradientTransform="matrix(0.77826,0,0,1.003,-10.791,0.79003)"
       y1="24.983999"
       x1="35.320999" />
    <linearGradient
       id="linearGradient6475"
       y2="38.118"
       xlink:href="#linearGradient2296"
       gradientUnits="userSpaceOnUse"
       x2="68.843002"
       gradientTransform="matrix(0.86992,-0.01269,0.013406,0.87615,-22.672,-3.4828)"
       y1="9.1135998"
       x1="54.286999" />
    <linearGradient
       id="linearGradient6479"
       y2="44.77"
       xlink:href="#linearGradient3116"
       gradientUnits="userSpaceOnUse"
       x2="50.808998"
       gradientTransform="matrix(0.79349358,0,0,1.0320976,2.2566856,-5.7412116)"
       y1="17.249001"
       x1="34.562" />
    <radialGradient
       id="radialGradient6481"
       xlink:href="#linearGradient2296"
       gradientUnits="userSpaceOnUse"
       cy="14.133"
       cx="24.26"
       gradientTransform="matrix(1.0448405,0,0,1.3551647,-6.6796251,-15.177659)"
       r="12.977" />
    <linearGradient
       id="linearGradient6484"
       y2="41.369999"
       xlink:href="#linearGradient5460"
       gradientUnits="userSpaceOnUse"
       x2="51.861"
       gradientTransform="matrix(0.77826,0,0,1.003,3.1969,-5.2365)"
       y1="24.983999"
       x1="35.320999" />
    <radialGradient
       id="radialGradient6494"
       xlink:href="#linearGradient3688"
       gradientUnits="userSpaceOnUse"
       cy="43.5"
       cx="4.993"
       gradientTransform="matrix(2.0038,0,0,1.4,27.988,-17.4)"
       r="2.5" />
    <radialGradient
       id="radialGradient6496"
       xlink:href="#linearGradient3688"
       gradientUnits="userSpaceOnUse"
       cy="43.5"
       cx="4.993"
       gradientTransform="matrix(2.0038,0,0,1.4,-20.012,-104.4)"
       r="2.5" />
    <linearGradient
       id="linearGradient6498"
       y2="39.999001"
       xlink:href="#linearGradient3702"
       gradientUnits="userSpaceOnUse"
       x2="25.058001"
       y1="47.028"
       x1="25.058001" />
    <radialGradient
       inkscape:collect="always"
       xlink:href="#linearGradient3688"
       id="radialGradient3040"
       gradientUnits="userSpaceOnUse"
       gradientTransform="matrix(2.0038,0,0,1.4,27.988,-17.4)"
       cx="4.993"
       cy="43.5"
       r="2.5" />
    <radialGradient
       inkscape:collect="always"
       xlink:href="#linearGradient3688"
       id="radialGradient3042"
       gradientUnits="userSpaceOnUse"
       gradientTransform="matrix(2.0038,0,0,1.4,-20.012,-104.4)"
       cx="4.993"
       cy="43.5"
       r="2.5" />
    <linearGradient
       inkscape:collect="always"
       xlink:href="#linearGradient3702"
       id="linearGradient3044"
       gradientUnits="userSpaceOnUse"
       x1="25.058001"
       y1="47.028"
       x2="25.058001"
       y2="39.999001" />
    <linearGradient
       inkscape:collect="always"
       xlink:href="#linearGradient2296"
       id="linearGradient3046"
       gradientUnits="userSpaceOnUse"
       gradientTransform="matrix(0.96932,0.30347,-0.31303,0.99988,-26.514,-28.878)"
       x1="48"
       y1="18.534"
       x2="78"
       y2="18.534" />
    <linearGradient
       id="linearGradient6436-0"
       y2="38.118"
       xlink:href="#linearGradient2296-5"
       gradientUnits="userSpaceOnUse"
       x2="68.843002"
       gradientTransform="matrix(0.9534095,-0.01302221,0.01469262,0.89908638,-41.771012,2.0989964)"
       y1="9.1135998"
       x1="54.286999" />
    <linearGradient
       id="linearGradient2296-5">
      <stop
         id="stop2298-2"
         style="stop-color:#fff"
         offset="0" />
      <stop
         id="stop2300-6"
         style="stop-color:#fff;stop-opacity:0"
         offset="1" />
    </linearGradient>
    <linearGradient
       y2="38.118"
       x2="68.843002"
       y1="9.1135998"
       x1="54.286999"
       gradientTransform="matrix(0.95340947,-0.01302221,0.01469262,0.89908641,-27.897158,-3.8660119)"
       gradientUnits="userSpaceOnUse"
       id="linearGradient3831"
       xlink:href="#linearGradient2296-5"
       inkscape:collect="always" />
  </defs>
  <g
     id="g6506"
     transform="matrix(1.3635497,0,0,1.3635497,-0.72704428,-0.723004)">
    <g
       id="g7130"
       style="enable-background:new"
       transform="matrix(0.75,0,0,0.77778,13,3.4444)">
      <g
         id="g7132"
         transform="translate(-2e-6,2.838692e-5)">
        <g
           id="g7134"
           style="opacity:0.4"
           transform="matrix(1.0526,0,0,1.2857,-1.2632,-13.429)">
          <rect
             id="rect7136"
             style="fill:url(#radialGradient3040)"
             height="7"
             width="5"
             y="40"
             x="38" />
          <rect
             id="rect7138"
             style="fill:url(#radialGradient3042)"
             transform="scale(-1,-1)"
             height="7"
             width="5"
             y="-47"
             x="-10" />
          <rect
             id="rect7140"
             style="fill:url(#linearGradient3044)"
             height="7"
             width="28"
             y="40"
             x="10" />
        </g>
      </g>
    </g>
    <g
       id="g6536"
       style="stroke-width:1.25170004;enable-background:new"
       transform="matrix(0.80089,-0.1966,0.21133,0.74504,5.4956,12.055)">
      <path
         id="path6538"
         style="opacity:0.51648003;fill:url(#linearGradient3046);fill-rule:evenodd"
         d="m 11.249,13.686 c 11.018,7.8164 20.074,0.26802 29.08,9.104 l 5.176,-18.012 -1.194,-2.5246 -24.804,-7.853 -2.717,1.3052 -5.541,17.98 z"
         inkscape:connector-curvature="0" />
    </g>
    <rect
       id="rect6540"
       style="fill:url(#linearGradient6484);stroke:#888a85;stroke-linecap:round;enable-background:new;stroke-width:0.5133652;stroke-miterlimit:4;stroke-dasharray:none"
       transform="matrix(1,0.0017694,-0.0016745,1,0,0)"
       rx="2.6408"
       ry="2.5337"
       height="34.965"
       width="26.954"
       y="2.4607"
       x="17.555" />
    <rect
       id="rect6542"
       style="fill:url(#linearGradient6479);stroke:url(#radialGradient6481);stroke-width:0.53398299;stroke-linecap:round;stroke-miterlimit:4;stroke-dasharray:none;enable-background:new"
       transform="matrix(0.99999851,0.00172624,-0.00171482,0.99999853,0,0)"
       rx="2.0096462"
       ry="1.7867628"
       height="33.98632"
       width="26.023666"
       y="3.0518472"
       x="17.992575" />
    <path
       id="path6605"
       style="fill-rule:evenodd;enable-background:new"
       d="m 21.951,5 c -1.3945,1.2524 -1.9591,1.6008 -1.9511,2.2917 0.0078,0.67164 0.94497,1.2433 1.7435,0.80814 0.09197,0.30078 0.11776,0.63792 -0.31445,0.90234 0.03536,-5.88e-4 1.1426,0 1.1426,0 -0.393,-0.2709 -0.415,-0.62 -0.304,-0.9568 0.895,0.4959 1.742,-0.0728 1.732,-0.8546 -0.01,-0.8197 -0.536,-1.0724 -2.049,-2.1907 z"
       inkscape:connector-curvature="0" />
    <path
       id="path3059"
       style="fill-rule:evenodd"
       d="m 30.831,14 c -4.8819,4.3816 -6.8582,5.6006 -6.8302,8.0179 0.02715,2.3498 3.3081,4.35 6.1035,2.8274 0.32197,1.0523 0.41224,2.2319 -1.1008,3.1569 0.12379,-0.0021 4,0 4,0 -1.3733,-0.94837 -1.4522,-2.1695 -1.0645,-3.348 3.1332,1.7349 6.0989,-0.25458 6.0642,-2.9898 -0.03542,-2.868 -1.877,-3.752 -7.1722,-7.6645 z"
       inkscape:connector-curvature="0" />
    <path
       id="path6607"
       style="fill-rule:evenodd;enable-background:new"
       d="m 39.951,35 c -1.3945,-1.2524 -1.9591,-1.6008 -1.9511,-2.2917 0.0078,-0.67164 0.94497,-1.2433 1.7435,-0.80814 0.09197,-0.30078 0.11776,-0.63792 -0.31445,-0.90234 0.03536,5.88e-4 1.1426,0 1.1426,0 -0.39229,0.27107 -0.41484,0.6201 -0.30408,0.95694 0.89501,-0.49589 1.7422,0.07277 1.7323,0.85456 -0.01012,0.81974 -0.53618,1.0724 -2.0488,2.1907 z"
       inkscape:connector-curvature="0" />
    <g
       id="g7056"
       transform="matrix(0.75,0,0,0.77778,-1,9.4444)">
      <g
         id="g2033"
         transform="translate(-2e-6,2.838692e-5)">
        <g
           id="g3712"
           style="opacity:0.4"
           transform="matrix(1.0526,0,0,1.2857,-1.2632,-13.429)">
          <rect
             id="rect2801"
             style="fill:url(#radialGradient6494)"
             height="7"
             width="5"
             y="40"
             x="38" />
          <rect
             id="rect3696"
             style="fill:url(#radialGradient6496)"
             transform="scale(-1,-1)"
             height="7"
             width="5"
             y="-47"
             x="-10" />
          <rect
             id="rect3700"
             style="fill:url(#linearGradient6498)"
             height="7"
             width="28"
             y="40"
             x="10" />
        </g>
      </g>
    </g>
    <g
       id="g3042"
       style="stroke-width:1.25170004"
       transform="matrix(0.80089,-0.1966,0.21133,0.74504,-8.5026,18.057)">
      <path
         id="path3055"
         style="opacity:0.51648003;fill:url(#linearGradient6424);fill-rule:evenodd"
         d="m 11.249,13.686 c 11.018,7.8164 20.074,0.26802 29.08,9.104 l 5.176,-18.012 -1.194,-2.5246 -24.804,-7.853 -2.717,1.3052 -5.541,17.98 z"
         inkscape:connector-curvature="0" />
    </g>
    <rect
       id="rect7756"
       style="fill:url(#linearGradient6446);stroke:#888a85;stroke-linecap:round;stroke-width:0.5133652;stroke-miterlimit:4;stroke-dasharray:none"
       transform="matrix(1,0.0017694,-0.0016745,1,0,0)"
       rx="2.6408"
       ry="2.5337"
       height="34.965"
       width="26.954"
       y="8.4871998"
       x="3.5667" />
    <rect
       id="rect7758"
       style="fill:url(#linearGradient6441);stroke:url(#radialGradient6443);stroke-width:0.53424072;stroke-linecap:round;stroke-miterlimit:4;stroke-dasharray:none"
       transform="matrix(0.9999985,0.00173072,-0.00171038,0.99999854,0,0)"
       rx="2.0080121"
       ry="1.7899436"
       height="34.197201"
       width="26.052794"
       y="8.9982471"
       x="4.1609621" />
    <path
       id="path920"
       style="fill:#cc0000;fill-rule:evenodd"
       d="m 16.919,22.374 c 3.0094,-3.1351 7.1183,-0.21836 7.0802,2.7659 -0.034,2.728 -2.02,4.027 -7.014,8.86 -5.192,-4.535 -7.0234,-5.583 -6.984,-8.82 0.03943,-3.3507 3.5754,-5.8516 6.9189,-2.8059 z"
       inkscape:connector-curvature="0" />
    <path
       id="path6639"
       style="fill:#cc0000;fill-rule:evenodd;enable-background:new"
       d="m 7.977,11.423 c 0.85982,-0.96464 2.0338,-0.06719 2.0229,0.85106 -0.0099,0.839 -0.5772,1.239 -2.0042,2.726 -1.4834,-1.395 -2.0067,-1.718 -1.9955,-2.714 0.0112,-1.031 1.0215,-1.8 1.9768,-0.863 z"
       inkscape:connector-curvature="0" />
    <path
       id="path6641"
       style="fill:#cc0000;fill-rule:evenodd;enable-background:new"
       d="m 25.977,40.577 c 0.85982,0.96464 2.0338,0.06719 2.0229,-0.85106 -0.01,-0.839 -0.577,-1.239 -2.004,-2.726 -1.4835,1.3954 -2.0067,1.7179 -1.9956,2.7139 0.01127,1.031 1.0216,1.8005 1.9768,0.86336 z"
       inkscape:connector-curvature="0" />
  </g>
</svg>
