<?xml version="1.0" encoding="UTF-8" standalone="no"?>
<!-- Created with Inkscape (http://www.inkscape.org/) -->

<svg
   xmlns:dc="http://purl.org/dc/elements/1.1/"
   xmlns:cc="http://creativecommons.org/ns#"
   xmlns:rdf="http://www.w3.org/1999/02/22-rdf-syntax-ns#"
   xmlns:svg="http://www.w3.org/2000/svg"
   xmlns="http://www.w3.org/2000/svg"
   xmlns:xlink="http://www.w3.org/1999/xlink"
   xmlns:sodipodi="http://sodipodi.sourceforge.net/DTD/sodipodi-0.dtd"
   xmlns:inkscape="http://www.inkscape.org/namespaces/inkscape"
   version="1.0"
   width="64"
   height="64"
   id="svg3508"
   inkscape:version="0.48.4 r9939"
   sodipodi:docname="48.svg">
  <metadata
     id="metadata70">
    <rdf:RDF>
      <cc:Work
         rdf:about="">
        <dc:format>image/svg+xml</dc:format>
        <dc:type
           rdf:resource="http://purl.org/dc/dcmitype/StillImage" />
        <dc:title></dc:title>
      </cc:Work>
    </rdf:RDF>
  </metadata>
  <sodipodi:namedview
     pagecolor="#ffffff"
     bordercolor="#666666"
     borderopacity="1"
     objecttolerance="10"
     gridtolerance="10"
     guidetolerance="10"
     inkscape:pageopacity="0"
     inkscape:pageshadow="2"
     inkscape:window-width="1108"
     inkscape:window-height="703"
     id="namedview68"
     showgrid="false"
     inkscape:zoom="4.9166667"
     inkscape:cx="57.559322"
     inkscape:cy="24"
     inkscape:window-x="487"
     inkscape:window-y="63"
     inkscape:window-maximized="0"
     inkscape:current-layer="svg3508" />
  <defs
     id="defs3510">
    <linearGradient
       id="linearGradient3914">
      <stop
         id="stop3916"
         style="stop-color:#c02cbb;stop-opacity:1"
         offset="0" />
      <stop
         id="stop3918"
         style="stop-color:#b329ae;stop-opacity:0.49803922"
         offset="0.79722267" />
      <stop
         id="stop3920"
         style="stop-color:#982394;stop-opacity:0"
         offset="1" />
    </linearGradient>
    <linearGradient
       x1="36.5"
       y1="36"
       x2="-0.097514458"
       y2="36"
       id="linearGradient3156"
       xlink:href="#linearGradient3914"
       gradientUnits="userSpaceOnUse"
       gradientTransform="matrix(0.7241542,0,0,0.7359927,16.978684,11.204435)" />
    <linearGradient
       id="linearGradient3698">
      <stop
         id="stop3700"
         style="stop-color:#ce7ecc;stop-opacity:1"
         offset="0" />
      <stop
         id="stop3702"
         style="stop-color:#c056bc;stop-opacity:0.81568629"
         offset="0.76278943" />
      <stop
         id="stop3704"
         style="stop-color:#f8c9f7;stop-opacity:0"
         offset="1" />
    </linearGradient>
    <linearGradient
       x1="23.996828"
       y1="15.5"
       x2="-0.073089309"
       y2="15.5"
       id="linearGradient3154"
       xlink:href="#linearGradient3698"
       gradientUnits="userSpaceOnUse"
       gradientTransform="matrix(0.7241542,0,0,0.7359927,16.978684,11.204435)" />
    <linearGradient
       id="linearGradient2187">
      <stop
         id="stop2189"
         style="stop-color:#ffffff;stop-opacity:0.64341086"
         offset="0" />
      <stop
         id="stop2191"
         style="stop-color:#ffffff;stop-opacity:0"
         offset="1" />
    </linearGradient>
    <linearGradient
       x1="20.483631"
       y1="12.820101"
       x2="20.483631"
       y2="-0.43754432"
       id="linearGradient3151"
       xlink:href="#linearGradient2187"
       gradientUnits="userSpaceOnUse"
       gradientTransform="matrix(0,-0.8625289,0.8486552,0,18.269706,51.022455)" />
    <linearGradient
       id="linearGradient5048">
      <stop
         id="stop5050"
         style="stop-color:#000000;stop-opacity:0"
         offset="0" />
      <stop
         id="stop5056"
         style="stop-color:#000000;stop-opacity:1"
         offset="0.5" />
      <stop
         id="stop5052"
         style="stop-color:#000000;stop-opacity:0"
         offset="1" />
    </linearGradient>
    <linearGradient
       id="linearGradient5060">
      <stop
         id="stop5062"
         style="stop-color:#000000;stop-opacity:1"
         offset="0" />
      <stop
         id="stop5064"
         style="stop-color:#000000;stop-opacity:0"
         offset="1" />
    </linearGradient>
    <linearGradient
       id="linearGradient3600">
      <stop
         id="stop3602"
         style="stop-color:#f4f4f4;stop-opacity:1"
         offset="0" />
      <stop
         id="stop3604"
         style="stop-color:#dbdbdb;stop-opacity:1"
         offset="1" />
    </linearGradient>
    <radialGradient
       cx="102"
       cy="112.3047"
       r="139.55859"
       id="XMLID_8_"
       gradientUnits="userSpaceOnUse">
      <stop
         id="stop41"
         style="stop-color:#b7b8b9;stop-opacity:1"
         offset="0" />
      <stop
         id="stop47"
         style="stop-color:#ececec;stop-opacity:1"
         offset="0.18851049" />
      <stop
         id="stop49"
         style="stop-color:#fafafa;stop-opacity:0"
         offset="0.25718147" />
      <stop
         id="stop51"
         style="stop-color:#ffffff;stop-opacity:0"
         offset="0.30111277" />
      <stop
         id="stop53"
         style="stop-color:#fafafa;stop-opacity:0"
         offset="0.53130001" />
      <stop
         id="stop55"
         style="stop-color:#ebecec;stop-opacity:0"
         offset="0.84490001" />
      <stop
         id="stop57"
         style="stop-color:#e1e2e3;stop-opacity:0"
         offset="1" />
    </radialGradient>
    <linearGradient
       id="linearGradient3211">
      <stop
         id="stop3213"
         style="stop-color:#ffffff;stop-opacity:1"
         offset="0" />
      <stop
         id="stop3215"
         style="stop-color:#ffffff;stop-opacity:0"
         offset="1" />
    </linearGradient>
    <linearGradient
       id="linearGradient3104">
      <stop
         id="stop3106"
         style="stop-color:#aaaaaa;stop-opacity:1"
         offset="0" />
      <stop
         id="stop3108"
         style="stop-color:#c8c8c8;stop-opacity:1"
         offset="1" />
    </linearGradient>
    <filter
       id="filter3248"
       x="-0.14846256"
       width="1.2969251"
       y="-0.16434373"
       height="1.3286875"
       color-interpolation-filters="sRGB">
      <feGaussianBlur
         inkscape:collect="always"
         stdDeviation="0.77391625"
         id="feGaussianBlur3250" />
    </filter>
    <linearGradient
       id="linearGradient8589">
      <stop
         id="stop8591"
         style="stop-color:#fefefe;stop-opacity:1"
         offset="0" />
      <stop
         id="stop8593"
         style="stop-color:#cbcbcb;stop-opacity:1"
         offset="1" />
    </linearGradient>
    <linearGradient
       x1="32.892288"
       y1="8.0590115"
       x2="36.358372"
       y2="5.4565363"
       id="linearGradient2432"
       xlink:href="#linearGradient8589"
       gradientUnits="userSpaceOnUse"
       gradientTransform="matrix(1.0886043,0,0,1.1355093,17.135797,6.1021228)" />
    <linearGradient
       x1="22.004084"
       y1="47.813133"
       x2="22.004084"
       y2="3.3638515"
       id="linearGradient2439"
       xlink:href="#linearGradient3104"
       gradientUnits="userSpaceOnUse"
       gradientTransform="matrix(1.0911155,0,0,1.0911155,14.794373,3.9839614)" />
    <linearGradient
       x1="24"
       y1="1.9999999"
       x2="24"
       y2="46.01725"
       id="linearGradient2442"
       xlink:href="#linearGradient3211"
       gradientUnits="userSpaceOnUse"
       gradientTransform="matrix(1.0911155,0,0,1.0668685,16.957069,6.2539235)" />
    <radialGradient
       cx="102"
       cy="112.3047"
       r="139.55859"
       id="radialGradient2445"
       xlink:href="#XMLID_8_"
       gradientUnits="userSpaceOnUse"
       gradientTransform="matrix(0.39465889,0,0,-0.4263844,17.885678,59.155217)" />
    <linearGradient
       x1="25.132275"
       y1="0.98520643"
       x2="25.132275"
       y2="47.013336"
       id="linearGradient2448"
       xlink:href="#linearGradient3600"
       gradientUnits="userSpaceOnUse"
       gradientTransform="matrix(1.0911155,0,0,1.0432914,16.957069,5.2192701)" />
    <linearGradient
       x1="-51.786404"
       y1="50.786446"
       x2="-51.786404"
       y2="2.9062471"
       id="linearGradient2450"
       xlink:href="#linearGradient3104"
       gradientUnits="userSpaceOnUse"
       gradientTransform="matrix(0.88107227,0,0,0.97636528,81.780494,4.0565435)" />
    <radialGradient
       cx="605.71429"
       cy="486.64789"
       r="117.14286"
       fx="605.71429"
       fy="486.64789"
       id="radialGradient2453"
       xlink:href="#linearGradient5060"
       gradientUnits="userSpaceOnUse"
       gradientTransform="matrix(0.02513925,0,0,0.01603964,45.719837,47.723787)" />
    <radialGradient
       cx="605.71429"
       cy="486.64789"
       r="117.14286"
       fx="605.71429"
       fy="486.64789"
       id="radialGradient2456"
       xlink:href="#linearGradient5060"
       gradientUnits="userSpaceOnUse"
       gradientTransform="matrix(-0.02513924,0,0,0.01603964,40.55038,47.723787)" />
    <linearGradient
       x1="302.85715"
       y1="366.64789"
       x2="302.85715"
       y2="609.50507"
       id="linearGradient2459"
       xlink:href="#linearGradient5048"
       gradientUnits="userSpaceOnUse"
       gradientTransform="matrix(0.07345922,0,0,0.01603964,16.584847,47.723754)" />
    <linearGradient
       gradientTransform="matrix(-0.55272493,1.3418009,-1.3418006,-0.55272492,79.324817,4.2819054)"
       x1="29.26738"
       y1="31.804976"
       x2="35.088547"
       y2="44.022942"
       id="linearGradient3658"
       xlink:href="#linearGradient3650"
       gradientUnits="userSpaceOnUse" />
    <linearGradient
       id="linearGradient3650">
      <stop
         id="stop3652"
         style="stop-color:#ffffff;stop-opacity:1"
         offset="0" />
      <stop
         id="stop3654"
         style="stop-color:#ffffff;stop-opacity:0"
         offset="1" />
    </linearGradient>
    <linearGradient
       gradientTransform="matrix(-0.55272493,1.3418009,-1.3418006,-0.55272492,79.324817,4.2819054)"
       x1="40.127796"
       y1="26.630606"
       x2="45.948959"
       y2="38.848572"
       id="linearGradient3656"
       xlink:href="#linearGradient3650"
       gradientUnits="userSpaceOnUse" />
    <linearGradient
       id="linearGradient3132">
      <stop
         id="stop3134"
         style="stop-color:#ffffff;stop-opacity:1"
         offset="0" />
      <stop
         id="stop3136"
         style="stop-color:#ffffff;stop-opacity:0"
         offset="1" />
    </linearGradient>
    <linearGradient
       x1="22.225399"
       y1="23.843431"
       x2="24.190449"
       y2="22.860907"
       id="linearGradient8582"
       xlink:href="#XMLID_45_"
       gradientUnits="userSpaceOnUse"
       gradientTransform="matrix(0.04049836,0.86094392,-1.0841983,0.04792059,49.873753,11.700544)" />
    <linearGradient
       x1="68.175293"
       y1="21.424805"
       x2="74.587158"
       y2="27.836672"
       id="XMLID_45_"
       gradientUnits="userSpaceOnUse">
      <stop
         id="stop695"
         style="stop-color:#babdb6;stop-opacity:1"
         offset="0" />
      <stop
         id="stop697"
         style="stop-color:#eeeeec;stop-opacity:1"
         offset="1" />
    </linearGradient>
    <linearGradient
       x1="19.222296"
       y1="18.03648"
       x2="24.32597"
       y2="23.942537"
       id="linearGradient8566"
       xlink:href="#linearGradient2229"
       gradientUnits="userSpaceOnUse"
       gradientTransform="matrix(0.04132932,0.87861,-1.0841983,0.04792059,50.88597,11.631161)" />
    <linearGradient
       id="linearGradient2229">
      <stop
         id="stop2231"
         style="stop-color:#e2e2e2;stop-opacity:1"
         offset="0" />
      <stop
         id="stop2233"
         style="stop-color:#d8d8d8;stop-opacity:1"
         offset="1" />
    </linearGradient>
    <linearGradient
       x1="293.00772"
       y1="3.0185187"
       x2="296.64139"
       y2="10.289103"
       id="linearGradient8569"
       xlink:href="#XMLID_897_"
       gradientUnits="userSpaceOnUse"
       gradientTransform="matrix(0.27602353,3.5546195,-4.4767698,0.33486714,-16.942593,-1020.9611)" />
    <linearGradient
       x1="292.97168"
       y1="4.7592773"
       x2="296.93979"
       y2="10.711433"
       id="XMLID_897_"
       gradientUnits="userSpaceOnUse">
      <stop
         id="stop45093"
         style="stop-color:#e8e8e5;stop-opacity:1"
         offset="0" />
      <stop
         id="stop45095"
         style="stop-color:#f0f0f0;stop-opacity:1"
         offset="1" />
    </linearGradient>
  </defs>
  <rect
     width="35.47031"
     height="3.8953409"
     x="25.399954"
     y="53.60466"
     id="rect2879"
     style="opacity:0.3;fill:url(#linearGradient2459);fill-opacity:1;fill-rule:nonzero;stroke:none;stroke-width:1;marker:none;visibility:visible;display:inline;overflow:visible" />
  <path
     d="m 25.399955,53.604819 c 0,0 0,3.895125 0,3.895125 -1.294609,0.0073 -3.129734,-0.872699 -3.129734,-1.947813 0,-1.075113 1.444686,-1.947311 3.129734,-1.947312 z"
     id="path2881"
     style="opacity:0.3;fill:url(#radialGradient2456);fill-opacity:1;fill-rule:nonzero;stroke:none;stroke-width:1;marker:none;visibility:visible;display:inline;overflow:visible"
     inkscape:connector-curvature="0" />
  <path
     d="m 60.870266,53.604819 c 0,0 0,3.895125 0,3.895125 C 62.164875,57.507244 64,56.627245 64,55.552131 64,54.477018 62.555314,53.60482 60.870266,53.604819 z"
     id="path2883"
     style="opacity:0.3;fill:url(#radialGradient2453);fill-opacity:1;fill-rule:nonzero;stroke:none;stroke-width:1;marker:none;visibility:visible;display:inline;overflow:visible"
     inkscape:connector-curvature="0" />
  <path
     d="m 24.049277,7.8511749 c 8.751069,0 17.502137,0 26.253207,0 1.535126,0.5179017 9.782346,6.4181661 11.935926,10.5035231 0,12.503893 0,25.007784 0,37.511677 -12.729712,0 -25.459421,0 -38.189133,0 0,-16.005066 0,-32.010136 0,-48.0152001 z"
     id="path4160"
     style="fill:url(#linearGradient2448);fill-opacity:1;stroke:url(#linearGradient2450);stroke-width:1.09103024;stroke-linecap:butt;stroke-linejoin:round;stroke-miterlimit:4;stroke-opacity:1;stroke-dasharray:none;stroke-dashoffset:0;display:inline"
     inkscape:connector-curvature="0" />
  <path
     d="m 24.989536,55.317759 c -0.217456,0 -0.394659,-0.191446 -0.394659,-0.426386 l 0,-46.0494956 c 0,-0.235363 0.177203,-0.4263833 0.394659,-0.4263833 8.164917,0.1178562 17.213093,-0.1762975 25.36809,0.02934 l 11.219545,9.6738639 0.115635,36.772674 c 0,0.23494 -0.176808,0.426386 -0.39466,0.426386 l -36.30861,0 z"
     id="path4191"
     style="fill:url(#radialGradient2445);fill-opacity:1"
     inkscape:connector-curvature="0" />
  <path
     d="m 61.147291,18.502224 c 0,11.946664 0,24.347599 0,36.294263 -12.0023,0 -24.004599,0 -36.006898,0 0,-15.29181 0,-30.583623 0,-45.8754302 8.251008,0 16.698797,0 24.949806,0"
     id="path2435"
     style="opacity:0.6;fill:none;stroke:url(#linearGradient2442);stroke-width:1.09103024;stroke-linecap:butt;stroke-linejoin:round;stroke-miterlimit:4;stroke-opacity:1;stroke-dasharray:none;stroke-dashoffset:0;display:inline"
     inkscape:connector-curvature="0" />
  <path
     d="m 28.95934,16.583158 2.557302,0 -2.557302,0 z m 2.932373,0 2.386815,0 -2.386815,0 z m 2.761886,0 2.114036,0 -2.114036,0 z m 2.45501,0 0.920629,0 -0.920629,0 z m 1.2957,0 2.045841,0 -2.045841,0 z m 2.45501,0 5.387383,0 -5.387383,0 z m 5.728356,0 4.125781,0 -4.125781,0 z m 4.466754,0 1.261603,0 -1.261603,0 z m -22.095089,2.182231 3.989391,0 -3.989391,0 z m 4.432657,0 1.909452,0 -1.909452,0 z m 2.250426,0 0.954726,0 -0.954726,0 z m 1.329797,0 1.738965,0 -1.738965,0 z m 2.114036,0 1.773063,0 -1.773063,0 z m 2.114036,0 2.830081,0 -2.830081,0 z m 3.205152,0 3.682515,0 -3.682515,0 z m 4.023489,0 2.45501,0 -2.45501,0 z m 2.795983,0 0.613753,0 -0.613753,0 z m -22.265576,2.148133 3.375639,0 -3.375639,0 z m 3.716612,0 5.523773,0 -5.523773,0 z m 5.864746,0 2.693692,0 -2.693692,0 z m 3.034665,0 2.523205,0 -2.523205,0 z m 2.864179,0 2.148133,0 -2.148133,0 z m 2.489107,0 3.375639,0.0341 -3.375639,-0.0341 z m 3.682515,0.0341 5.489675,0 -5.489675,0 z m -21.651824,2.182231 4.671338,0 -4.671338,0 z m 5.046409,0 5.04641,0 -5.04641,0 z m 5.387383,0 2.011744,0 -2.011744,0 z m 2.352718,0 4.739533,0 -4.739533,0 z m 5.046409,0 3.23925,0 -3.23925,0 z m 3.614321,0 1.295699,0 -1.295699,0 z m 1.636673,0 0.716044,0 -0.716044,0 z m 1.091115,0 2.011745,0 -2.011745,0 z m -24.175028,2.182228 1.738965,0 -1.738965,0 z m 2.284523,0 6.444401,0 -6.444401,0 z m -2.284523,4.330365 3.375639,0 -3.375639,0 z m 3.716612,0 5.523773,0 -5.523773,0 z m 5.864746,0 2.693692,0 -2.693692,0 z m 3.034665,0 2.523205,0 -2.523205,0 z m 2.864179,0 2.148133,0 -2.148133,0 z m 2.489107,0 3.375639,0.0341 -3.375639,-0.0341 z m 3.682515,0.0341 5.489675,0 -5.489675,0 z m -21.651824,2.182234 2.557302,0 -2.557302,0 z m 2.932373,0 2.352718,0 -2.352718,0 z m 2.761886,0 2.114036,0 -2.114036,0 z m 2.45501,0 0.920629,0 -0.920629,0 z m 1.2957,0 2.045841,0 -2.045841,0 z m 2.45501,0 5.353285,0 -5.353285,0 z m 5.728356,0 4.091684,0 -4.091684,0 z m 4.432657,0 1.2957,0 -1.2957,0 z m 1.636673,0 3.068763,0 -3.068763,0 z m -23.697665,2.182231 4.296267,0 -4.296267,0 z m 4.637241,0 4.603144,0 -4.603144,0 z m 4.944117,0 1.773063,0 -1.773063,0 z m 2.114037,0 4.330364,0 -4.330364,0 z m 4.671338,0 5.455578,0 -5.455578,0 z m 5.830649,0 2.011744,0 -2.011744,0 z m -22.197382,2.182231 4.671338,0 -4.671338,0 z m 5.046409,0 5.04641,0 -5.04641,0 z m 5.387383,0 2.011744,0 -2.011744,0 z m 2.352718,0 4.739533,0 -4.739533,0 z m 5.046409,0 3.23925,0 -3.23925,0 z m 3.614321,0 1.295699,0 -1.295699,0 z m 1.636673,0 0.716044,0 -0.716044,0 z m 1.091115,0 2.011745,0 -2.011745,0 z m -24.175028,2.182231 3.989391,0 -3.989391,0 z m 4.432657,0 1.909452,0 -1.909452,0 z m 2.250426,0 0.954726,0 -0.954726,0 z m 1.329797,0 1.738965,0 -1.738965,0 z m 2.114036,0 1.773063,0 -1.773063,0 z m 2.114036,0 2.830081,0 -2.830081,0 z m 3.205152,0 3.682515,0 -3.682515,0 z m 4.023489,0 2.45501,0 -2.45501,0 z m 2.795983,0 0.613753,0 -0.613753,0 z m -22.265576,4.330365 3.375639,0 -3.375639,0 z m 3.716612,0 5.523773,0 -5.523773,0 z m 5.864746,0 2.693692,0 -2.693692,0 z m 3.034665,0 2.523205,0 -2.523205,0 z m 2.864179,0 2.148133,0 -2.148133,0 z m 2.489107,0 3.375639,0.0341 -3.375639,-0.0341 z m 3.682515,0.0341 5.489675,0 -5.489675,0 z m -21.651824,2.182231 3.989391,0 -3.989391,0 z m 4.432657,0 1.909452,0 -1.909452,0 z m 2.250426,0 0.954726,0 -0.954726,0 z m 1.329797,0 1.738965,0 -1.738965,0 z m 2.114036,0 1.773063,0 -1.773063,0 z m 2.114036,0 2.830081,0 -2.830081,0 z m 3.205152,0 3.682515,0 -3.682515,0 z m 4.023489,0 2.45501,0 -2.45501,0 z m 2.795983,0 0.613753,0 -0.613753,0 z M 28.95934,47.1344 l 4.228073,0 -4.228073,0 z m 4.603144,0 1.329797,0 -1.329797,0 z m 1.67077,0 3.034665,0 -3.034665,0 z m 3.375639,0 4.466754,0 -4.466754,0 z m 4.841825,0 3.034665,0 -3.034665,0 z m 3.341541,0 0.64785,0 -0.64785,0 z m 0.988824,0 3.853002,0 -3.853002,0 z m 4.26217,0 2.011744,0 -2.011744,0 z m -23.083913,2.182232 4.228073,0 -4.228073,0 z m 4.603144,0 1.909452,0 -1.909452,0 z m 2.250425,0 3.000568,0 -3.000568,0 z m 3.341542,0 3.239249,0 -3.239249,0 z m 3.61432,0 1.2957,0 -1.2957,0 z m 1.636673,0 0.716045,0 -0.716045,0 z m 1.091116,0 2.011744,0 -2.011744,0 z"
     id="path3475"
     style="fill:none;stroke:url(#linearGradient2439);stroke-width:1.09111547px;stroke-linecap:butt;stroke-linejoin:miter;stroke-opacity:1"
     inkscape:connector-curvature="0" />
  <path
     d="m 27.868224,14.946484 0,32.733466 0,1.091116 0,2.182231 20.731196,0 0,-2.182231 8.728924,0 0,-33.824582 -29.46012,0 z"
     id="rect2878"
     style="opacity:0.3;fill:#7298cf;fill-opacity:1;stroke:none;display:inline"
     inkscape:connector-curvature="0" />
  <path
     d="m 28.617256,16.921258 c 4.282522,0 2.15325,8.483172 2.15325,8.483172 0,0 10.357642,-1.802347 10.357642,2.818744 0,-2.609723 -11.302304,-10.728596 -12.510892,-11.301916 z"
     id="path12038"
     style="opacity:0.4;fill:#000000;fill-opacity:1;fill-rule:evenodd;stroke:none;display:inline;filter:url(#filter3248)"
     inkscape:connector-curvature="0"
     transform="matrix(1.0911155,0,0,1.0911155,16.957069,-10.149176)" />
  <path
     d="m 48.181802,8.3138726 c 3.476832,0 2.548584,8.3599974 2.548584,8.3599974 0,0 11.102244,-1.070444 11.102244,3.9717 0,-1.228529 0.09374,-2.108302 -0.145966,-2.491663 -1.722122,-2.754171 -9.160478,-8.9344907 -11.846569,-9.7445229 -0.201007,-0.060621 -0.646708,-0.0955 -1.658293,-0.0955 z"
     id="path4474"
     style="fill:url(#linearGradient2432);fill-opacity:1;fill-rule:evenodd;stroke:none;display:inline"
     inkscape:connector-curvature="0" />
  <polygon
     points="297.04443,12.300293 296.39941,13.384766 295.13281,14.71875 294.73242,13.672852 295.74658,11.960449 297.04443,12.300293 "
     transform="matrix(0.15035198,3.1962896,-3.7625764,0.16630247,24.592294,-917.05021)"
     id="polygon45129"
     style="fill:#d1524c;fill-opacity:1;stroke:#973137;stroke-width:0.31430697;stroke-linecap:round;stroke-linejoin:round;stroke-miterlimit:4;stroke-opacity:1;stroke-dasharray:none;display:inline;enable-background:new" />
  <path
     d="m 49.346948,22.375202 c -0.08835,-0.176971 -0.184447,-0.347613 -0.277108,-0.519739 -2.421225,-0.383107 -5.0276,-2.803984 -7.318629,-1.637902 -6.649249,3.811127 -13.391941,7.605551 -20.097532,11.396141 -0.109111,0.654095 -0.145401,1.308396 -0.11424,1.958911 0.06256,1.369382 0.425475,2.752798 1.110106,4.005689 8.916719,-5.041799 17.853722,-10.086962 26.697403,-15.2031 z"
     id="polygon45097"
     style="fill:url(#linearGradient8569);fill-opacity:1;stroke:#888a85;stroke-width:1.09111547;stroke-linecap:round;stroke-linejoin:round;stroke-miterlimit:4;stroke-opacity:1;stroke-dasharray:none;display:inline;enable-background:new"
     inkscape:connector-curvature="0" />
  <path
     d="m 46.803821,23.010452 c -1.237381,-0.282551 -2.180563,-1.179955 -3.492876,-1.355411 -6.779212,3.56476 -13.535504,7.175956 -20.307253,10.738127 -0.230513,1.065274 -6.37e-4,2.138117 0.318752,3.16724 0.794987,-0.201339 1.412485,-0.71237 2.157861,-1.002208 6.962808,-3.736697 13.916342,-7.503365 20.898253,-11.205431 0.163766,-0.02013 0.515932,-0.2136 0.425263,-0.342316 l 0,-10e-7 z"
     id="path16635"
     style="fill:url(#linearGradient8566);fill-opacity:1;stroke:none;display:inline;enable-background:new"
     inkscape:connector-curvature="0" />
  <path
     d="m 25.00242,33.669754 c -0.588593,0.02634 -1.083785,-0.331382 -1.105773,-0.798784 -0.02199,-0.467403 0.437568,-0.867319 1.026192,-0.893014 0.588591,-0.02634 1.083785,0.331383 1.105773,0.798784 0.02199,0.467403 -0.437568,0.867318 -1.026192,0.893014 z"
     id="path16731"
     style="fill:url(#linearGradient8582);fill-opacity:1;fill-rule:nonzero;stroke:none;stroke-width:1.49975467;marker:none;visibility:visible;display:inline;overflow:visible;enable-background:new"
     inkscape:connector-curvature="0" />
  <polygon
     points="296.95605,12.300293 297.6001,13.384766 298.86719,14.71875 299.26807,13.672852 298.25391,11.960449 296.95605,12.300293 "
     transform="matrix(0.14979591,3.184468,-3.929611,0.17368528,25.624377,-914.50999)"
     id="polygon45101"
     style="fill:#d1524c;fill-opacity:1;stroke:#973137;stroke-width:0.30812469;stroke-linecap:round;stroke-linejoin:round;stroke-miterlimit:4;stroke-opacity:1;stroke-dasharray:none;display:inline;enable-background:new" />
  <path
     d="m 19.048767,38.921624 c -2.116353,-2.706112 -7.513193,-2.849773 -12.0545023,-0.316958 -4.5440788,2.53283 -6.5143298,6.778805 -4.4062438,9.486273 2.11645,2.707378 7.5104031,2.849818 12.0516951,0.317 4.541404,-2.531535 6.511554,-6.778766 4.409051,-9.486315 z m -2.895406,1.610423 c 0.936365,1.201715 -0.294929,3.816788 -3.350057,5.517241 -3.0548465,1.703867 -6.3890054,1.632982 -7.3227531,0.432374 -0.941326,-1.200481 0.2948359,-3.817907 3.3499674,-5.51837 3.0547567,-1.704997 6.3864737,-1.632938 7.3228427,-0.431245 z"
     id="path11967"
     style="fill:#d1524c;fill-opacity:1;stroke:#973137;stroke-width:1.09111547;stroke-miterlimit:4;stroke-opacity:1;stroke-dasharray:none;display:inline;enable-background:new"
     inkscape:connector-curvature="0" />
  <path
     d="m 18.49522,28.65753 c -1.813039,2.918032 -7.163125,3.641283 -11.9504959,1.611573 -4.7901222,-2.029438 -7.2055992,-6.038882 -5.4009252,-8.957365 1.813,-2.919297 7.1603468,-3.641023 11.9477001,-1.611308 4.787327,2.028424 7.202833,6.039134 5.403721,8.9571 z m -3.051814,-1.289678 c 0.801691,-1.29545 -0.70371,-3.762929 -3.924001,-5.124944 -3.2203745,-1.365438 -6.5275721,-0.936377 -7.3267801,0.357687 -0.806756,1.294756 0.703737,3.764053 3.9240311,5.126077 3.220413,1.366567 6.525053,0.93661 7.32675,-0.35882 z"
     id="path3634"
     style="fill:#d1524c;fill-opacity:1;stroke:#973137;stroke-width:1.09111547;stroke-miterlimit:4;stroke-opacity:1;stroke-dasharray:none;display:inline;enable-background:new"
     inkscape:connector-curvature="0" />
  <path
     d="m 19.048767,38.921624 c -2.116353,-2.706112 -7.513193,-2.849773 -12.0545023,-0.316958 -4.5440788,2.53283 -6.5143298,6.778805 -4.4062438,9.486273 2.11645,2.707378 7.5104031,2.849818 12.0516951,0.317 4.541404,-2.531535 6.511554,-6.778766 4.409051,-9.486315 z m -2.895406,1.610423 c 0.936365,1.201715 -0.294929,3.816788 -3.350057,5.517241 -3.0548465,1.703867 -6.3890054,1.632982 -7.3227531,0.432374 -0.941326,-1.200481 0.2948359,-3.817907 3.3499674,-5.51837 3.0547567,-1.704997 6.3864737,-1.632938 7.3228427,-0.431245 z"
     id="path3636"
     style="opacity:0.23999999;fill:url(#linearGradient3656);fill-opacity:1;stroke:none;display:inline;enable-background:new"
     inkscape:connector-curvature="0" />
  <path
     d="m 18.49522,28.65753 c -1.813039,2.918032 -7.163125,3.641283 -11.9504959,1.611573 -4.7901222,-2.029438 -7.2055992,-6.038882 -5.4009252,-8.957365 1.813,-2.919297 7.1603468,-3.641023 11.9477001,-1.611308 4.787327,2.028424 7.202833,6.039134 5.403721,8.9571 z m -3.051814,-1.289678 c 0.801691,-1.29545 -0.70371,-3.762929 -3.924001,-5.124944 -3.2203745,-1.365438 -6.5275721,-0.936377 -7.3267801,0.357687 -0.806756,1.294756 0.703737,3.764053 3.9240311,5.126077 3.220413,1.366567 6.525053,0.93661 7.32675,-0.35882 z"
     id="path3638"
     style="opacity:0.23999999;fill:url(#linearGradient3658);fill-opacity:1;stroke:none;display:inline;enable-background:new"
     inkscape:connector-curvature="0" />
</svg>
