<?xml version="1.0" encoding="UTF-8" standalone="no"?>
<!-- Created with Inkscape (http://www.inkscape.org/) -->

<svg
   xmlns:dc="http://purl.org/dc/elements/1.1/"
   xmlns:cc="http://creativecommons.org/ns#"
   xmlns:rdf="http://www.w3.org/1999/02/22-rdf-syntax-ns#"
   xmlns:svg="http://www.w3.org/2000/svg"
   xmlns="http://www.w3.org/2000/svg"
   xmlns:xlink="http://www.w3.org/1999/xlink"
   xmlns:sodipodi="http://sodipodi.sourceforge.net/DTD/sodipodi-0.dtd"
   xmlns:inkscape="http://www.inkscape.org/namespaces/inkscape"
   version="1.1"
   width="64"
   height="64"
   id="svg4161"
   inkscape:version="0.48.4 r9939"
   sodipodi:docname="libreoffice-calc.svg">
  <sodipodi:namedview
     pagecolor="#ffffff"
     bordercolor="#666666"
     borderopacity="1"
     objecttolerance="10"
     gridtolerance="10"
     guidetolerance="10"
     inkscape:pageopacity="0"
     inkscape:pageshadow="2"
     inkscape:window-width="1855"
     inkscape:window-height="1056"
     id="namedview45"
     showgrid="true"
     inkscape:zoom="14.4375"
     inkscape:cx="32"
     inkscape:cy="32"
     inkscape:window-x="65"
     inkscape:window-y="24"
     inkscape:window-maximized="1"
     inkscape:current-layer="layer1"
     showguides="false"
     inkscape:snap-global="false">
    <inkscape:grid
       type="xygrid"
       id="grid3488" />
  </sodipodi:namedview>
  <defs
     id="defs4163">
    <linearGradient
       x1="20"
       y1="26.000008"
       x2="20"
       y2="13.000008"
       id="linearGradient4069"
       xlink:href="#linearGradient3680-6-6-6-3-7-1"
       gradientUnits="userSpaceOnUse"
       gradientTransform="matrix(1.326882,0,0,1.326882,-0.399219,-0.2324859)" />
    <linearGradient
       id="linearGradient3680-6-6-6-3-7-1">
      <stop
         id="stop3682-4-6-1-3-7-7"
         style="stop-color:#dcdcdc;stop-opacity:1"
         offset="0" />
      <stop
         id="stop3684-8-5-8-0-2-6"
         style="stop-color:#ffffff;stop-opacity:1"
         offset="1" />
    </linearGradient>
    <linearGradient
       x1="23.99999"
       y1="4.999989"
       x2="23.99999"
       y2="43"
       id="linearGradient3180"
       xlink:href="#linearGradient3924-2-2-5-8"
       gradientUnits="userSpaceOnUse"
       gradientTransform="matrix(1.4324324,0,0,1.4362832,-2.378381,-2.4707781)" />
    <linearGradient
       id="linearGradient3924-2-2-5-8">
      <stop
         id="stop3926-9-4-9-6"
         style="stop-color:#ffffff;stop-opacity:1"
         offset="0" />
      <stop
         id="stop3928-9-8-6-5"
         style="stop-color:#ffffff;stop-opacity:0.23529412"
         offset="0.06316455" />
      <stop
         id="stop3930-3-5-1-7"
         style="stop-color:#ffffff;stop-opacity:0.15686275"
         offset="0.95056331" />
      <stop
         id="stop3932-8-0-4-8"
         style="stop-color:#ffffff;stop-opacity:0.39215687"
         offset="1" />
    </linearGradient>
    <radialGradient
       cx="7.1183534"
       cy="9.9571075"
       r="12.671875"
       fx="7.1183534"
       fy="9.9571075"
       id="radialGradient3988-3"
       xlink:href="#linearGradient2867-449-88-871-390-598-476-591-434-148-57-177-8-3-3-6-4-8-8-8-5-7"
       gradientUnits="userSpaceOnUse"
       gradientTransform="matrix(0,12.890089,-15.824912,0,190.74237,-113.0978)" />
    <linearGradient
       id="linearGradient2867-449-88-871-390-598-476-591-434-148-57-177-8-3-3-6-4-8-8-8-5-7">
      <stop
         id="stop3750-1-0-7-6-6-1-3-9-3-9"
         style="stop-color:#505050;stop-opacity:1"
         offset="0" />
      <stop
         id="stop3752-3-7-4-0-32-8-923-0-7-0"
         style="stop-color:#2b2b2b;stop-opacity:1"
         offset="0.26238" />
      <stop
         id="stop3754-1-8-5-2-7-6-7-1-9-1"
         style="stop-color:#0a0a0a;stop-opacity:1"
         offset="0.704952" />
      <stop
         id="stop3756-1-6-2-6-6-1-96-6-0-1"
         style="stop-color:#000000;stop-opacity:1"
         offset="1" />
    </linearGradient>
    <radialGradient
       cx="4.9929786"
       cy="43.5"
       r="2.5"
       fx="4.9929786"
       fy="43.5"
       id="radialGradient3337-2-2"
       xlink:href="#linearGradient3688-166-749-4-0-3-8"
       gradientUnits="userSpaceOnUse"
       gradientTransform="matrix(2.003784,0,0,1.4,27.98813,-17.4)" />
    <linearGradient
       id="linearGradient3688-166-749-4-0-3-8">
      <stop
         id="stop2883-4-0-1-8"
         style="stop-color:#181818;stop-opacity:1"
         offset="0" />
      <stop
         id="stop2885-9-2-9-6"
         style="stop-color:#181818;stop-opacity:0"
         offset="1" />
    </linearGradient>
    <radialGradient
       cx="4.9929786"
       cy="43.5"
       r="2.5"
       fx="4.9929786"
       fy="43.5"
       id="radialGradient3339-1-4"
       xlink:href="#linearGradient3688-464-309-9-2-4-2"
       gradientUnits="userSpaceOnUse"
       gradientTransform="matrix(2.003784,0,0,1.4,-20.01187,-104.4)" />
    <linearGradient
       id="linearGradient3688-464-309-9-2-4-2">
      <stop
         id="stop2889-7-9-6-9"
         style="stop-color:#181818;stop-opacity:1"
         offset="0" />
      <stop
         id="stop2891-6-6-1-7"
         style="stop-color:#181818;stop-opacity:0"
         offset="1" />
    </linearGradient>
    <linearGradient
       id="linearGradient3702-501-757-8-4-1-1">
      <stop
         id="stop2895-8-9-9-1"
         style="stop-color:#181818;stop-opacity:0"
         offset="0" />
      <stop
         id="stop2897-7-8-7-7"
         style="stop-color:#181818;stop-opacity:1"
         offset="0.5" />
      <stop
         id="stop2899-4-5-1-5"
         style="stop-color:#181818;stop-opacity:0"
         offset="1" />
    </linearGradient>
    <linearGradient
       x1="25.058096"
       y1="47.027729"
       x2="25.058096"
       y2="39.999443"
       id="linearGradient4159"
       xlink:href="#linearGradient3702-501-757-8-4-1-1"
       gradientUnits="userSpaceOnUse" />
    <radialGradient
       inkscape:collect="always"
       xlink:href="#linearGradient2867-449-88-871-390-598-476-591-434-148-57-177-8-3-3-6-4-8-8-8-5-7"
       id="radialGradient3043"
       gradientUnits="userSpaceOnUse"
       gradientTransform="matrix(0,12.890089,-15.824912,0,190.74237,-113.0978)"
       cx="7.1183534"
       cy="9.9571075"
       fx="7.1183534"
       fy="9.9571075"
       r="12.671875" />
    <radialGradient
       inkscape:collect="always"
       xlink:href="#linearGradient2867-449-88-871-390-598-476-591-434-148-57-177-8-3-3"
       id="radialGradient3046"
       gradientUnits="userSpaceOnUse"
       gradientTransform="matrix(0,12.890089,-15.824912,0,190.74237,-113.0978)"
       cx="7.1183534"
       cy="9.9571075"
       fx="7.1183534"
       fy="9.9571075"
       r="12.671875" />
    <radialGradient
       inkscape:collect="always"
       xlink:href="#linearGradient2867-449-88-871-390-598-476-591-434-148-57-177-8-3-7"
       id="radialGradient4367"
       gradientUnits="userSpaceOnUse"
       gradientTransform="matrix(9.7706036e-8,6.0761069,-6.0352037,7.0585561e-8,3.51222,-129.91288)"
       cx="19.556362"
       cy="-3.8301377"
       fx="19.556362"
       fy="-3.8301377"
       r="18.246725" />
    <linearGradient
       id="linearGradient2867-449-88-871-390-598-476-591-434-148-57-177-8-3-7">
      <stop
         id="stop3750-1-0-5"
         style="stop-color:#bfbfbf;stop-opacity:1;"
         offset="0" />
      <stop
         id="stop3752-3-7-3"
         style="stop-color:#9e9e9e;stop-opacity:1;"
         offset="0.26238" />
      <stop
         id="stop3754-1-8-9"
         style="stop-color:#565656;stop-opacity:1;"
         offset="0.704952" />
      <stop
         id="stop3756-1-6-2"
         style="stop-color:#313131;stop-opacity:1;"
         offset="1" />
    </linearGradient>
    <radialGradient
       r="18.246725"
       fy="-3.8301377"
       fx="19.556362"
       cy="-3.8301377"
       cx="19.556362"
       gradientTransform="matrix(9.7706036e-8,6.0761069,-6.0352037,7.0585561e-8,-4.4877875,-129.89861)"
       gradientUnits="userSpaceOnUse"
       id="radialGradient3415"
       xlink:href="#linearGradient2867-449-88-871-390-598-476-591-434-148-57-177-8-3-7"
       inkscape:collect="always" />
    <radialGradient
       inkscape:collect="always"
       xlink:href="#linearGradient2867-449-88-871-390-598-476-591-434-148-57-177-8-3-7"
       id="radialGradient3467"
       gradientUnits="userSpaceOnUse"
       gradientTransform="matrix(9.7706036e-8,6.0761069,-6.0352037,7.0585561e-8,7.5348649,-125.92875)"
       cx="19.556362"
       cy="-3.8301377"
       fx="19.556362"
       fy="-3.8301377"
       r="18.246725" />
    <linearGradient
       inkscape:collect="always"
       xlink:href="#linearGradient3924-2-2-5-8"
       id="linearGradient3491"
       gradientUnits="userSpaceOnUse"
       gradientTransform="matrix(1.4324324,0,0,1.4362832,-2.378381,-2.4707781)"
       x1="23.99999"
       y1="4.999989"
       x2="23.99999"
       y2="43" />
    <linearGradient
       x1="302.85715"
       y1="366.64789"
       x2="302.85715"
       y2="609.50507"
       id="linearGradient3116"
       xlink:href="#linearGradient5048"
       gradientUnits="userSpaceOnUse"
       gradientTransform="matrix(0.09153846,0,0,0.02058823,-1.084616,49.45142)" />
    <linearGradient
       id="linearGradient5048">
      <stop
         id="stop5050"
         style="stop-color:#000000;stop-opacity:0"
         offset="0" />
      <stop
         id="stop5056"
         style="stop-color:#000000;stop-opacity:1"
         offset="0.5" />
      <stop
         id="stop5052"
         style="stop-color:#000000;stop-opacity:0"
         offset="1" />
    </linearGradient>
    <radialGradient
       cx="605.71429"
       cy="486.64789"
       r="117.14286"
       fx="605.71429"
       fy="486.64789"
       id="radialGradient3113"
       xlink:href="#linearGradient5060"
       gradientUnits="userSpaceOnUse"
       gradientTransform="matrix(-0.03132632,0,0,0.02058823,-30.095323,53.991019)" />
    <linearGradient
       id="linearGradient5060">
      <stop
         id="stop5062"
         style="stop-color:#000000;stop-opacity:1"
         offset="0" />
      <stop
         id="stop5064"
         style="stop-color:#000000;stop-opacity:0"
         offset="1" />
    </linearGradient>
    <radialGradient
       cx="605.71429"
       cy="486.64789"
       r="117.14286"
       fx="605.71429"
       fy="486.64789"
       id="radialGradient3110"
       xlink:href="#linearGradient5060"
       gradientUnits="userSpaceOnUse"
       gradientTransform="matrix(0.03132633,0,0,0.02058823,-23.6536,53.991019)" />
    <linearGradient
       id="linearGradient3159">
      <stop
         id="stop3161"
         style="stop-color:#000000;stop-opacity:1"
         offset="0" />
      <stop
         id="stop3163"
         style="stop-color:#000000;stop-opacity:0"
         offset="1" />
    </linearGradient>
    <radialGradient
       inkscape:collect="always"
       xlink:href="#linearGradient3242-4"
       id="radialGradient4367-4"
       gradientUnits="userSpaceOnUse"
       gradientTransform="matrix(9.7706036e-8,6.0761069,-6.0352037,7.0585561e-8,-55.362239,-125.37328)"
       cx="19.556362"
       cy="-3.8301377"
       fx="19.556362"
       fy="-3.8301377"
       r="18.246725" />
    <linearGradient
       id="linearGradient3242-4">
      <stop
         id="stop3244-7"
         style="stop-color:#f89b7e;stop-opacity:1"
         offset="0" />
      <stop
         id="stop3246-1"
         style="stop-color:#e35d4f;stop-opacity:1"
         offset="0.26238" />
      <stop
         id="stop3248-5"
         style="stop-color:#c6262e;stop-opacity:1"
         offset="0.66093999" />
      <stop
         id="stop3250-7"
         style="stop-color:#690b2c;stop-opacity:1"
         offset="1" />
    </linearGradient>
    <linearGradient
       y2="43"
       x2="23.99999"
       y1="5.5641499"
       x1="23.99999"
       gradientTransform="matrix(1.2064959,0,0,1.5310875,-55.827205,-2.2105156)"
       gradientUnits="userSpaceOnUse"
       id="linearGradient4386-8"
       xlink:href="#linearGradient3977-6"
       inkscape:collect="always" />
    <linearGradient
       id="linearGradient3977-6">
      <stop
         id="stop3979-5"
         style="stop-color:#ffffff;stop-opacity:1"
         offset="0" />
      <stop
         id="stop3981-1"
         style="stop-color:#ffffff;stop-opacity:0.23529412"
         offset="0.03626217" />
      <stop
         id="stop3983-0"
         style="stop-color:#ffffff;stop-opacity:0.15686275"
         offset="0.95056331" />
      <stop
         id="stop3985-8"
         style="stop-color:#ffffff;stop-opacity:0.39215687"
         offset="1" />
    </linearGradient>
    <linearGradient
       y2="609.50507"
       x2="302.85715"
       y1="366.64789"
       x1="302.85715"
       gradientTransform="matrix(0.09153846,0,0,0.02058823,-59.959075,53.991019)"
       gradientUnits="userSpaceOnUse"
       id="linearGradient3187"
       xlink:href="#linearGradient5048"
       inkscape:collect="always" />
    <linearGradient
       x1="302.85715"
       y1="366.64789"
       x2="302.85715"
       y2="609.50507"
       id="linearGradient3116-4"
       xlink:href="#linearGradient5048-5"
       gradientUnits="userSpaceOnUse"
       gradientTransform="matrix(0.09153846,0,0,0.02058823,-1.084616,49.45142)" />
    <linearGradient
       id="linearGradient5048-5">
      <stop
         id="stop5050-5"
         style="stop-color:#000000;stop-opacity:0"
         offset="0" />
      <stop
         id="stop5056-8"
         style="stop-color:#000000;stop-opacity:1"
         offset="0.5" />
      <stop
         id="stop5052-7"
         style="stop-color:#000000;stop-opacity:0"
         offset="1" />
    </linearGradient>
    <radialGradient
       cx="605.71429"
       cy="486.64789"
       r="117.14286"
       fx="605.71429"
       fy="486.64789"
       id="radialGradient3113-9"
       xlink:href="#linearGradient5060-3"
       gradientUnits="userSpaceOnUse"
       gradientTransform="matrix(-0.03132632,0,0,0.02058823,-34.168265,7.7929814)" />
    <linearGradient
       id="linearGradient5060-3">
      <stop
         id="stop5062-9"
         style="stop-color:#000000;stop-opacity:1"
         offset="0" />
      <stop
         id="stop5064-2"
         style="stop-color:#000000;stop-opacity:0"
         offset="1" />
    </linearGradient>
    <radialGradient
       cx="605.71429"
       cy="486.64789"
       r="117.14286"
       fx="605.71429"
       fy="486.64789"
       id="radialGradient3110-7"
       xlink:href="#linearGradient5060-3"
       gradientUnits="userSpaceOnUse"
       gradientTransform="matrix(0.03132633,0,0,0.02058823,-27.726542,7.7929814)" />
    <linearGradient
       id="linearGradient3213">
      <stop
         id="stop3215"
         style="stop-color:#000000;stop-opacity:1"
         offset="0" />
      <stop
         id="stop3217"
         style="stop-color:#000000;stop-opacity:0"
         offset="1" />
    </linearGradient>
    <linearGradient
       id="linearGradient3242-7-3-8-0-4-58">
      <stop
         offset="0"
         style="stop-color:#bdff69;stop-opacity:1;"
         id="stop3244-5-8-5-6-4-3" />
      <stop
         offset="0.26238"
         style="stop-color:#8ed451;stop-opacity:1;"
         id="stop3246-9-5-1-5-3-0" />
      <stop
         offset="0.66093999"
         style="stop-color:#58aa30;stop-opacity:1;"
         id="stop3248-7-2-0-7-5-35" />
      <stop
         offset="1"
         style="stop-color:#2a6c1f;stop-opacity:1;"
         id="stop3250-8-2-8-5-6-40" />
    </linearGradient>
    <linearGradient
       id="linearGradient3977-6-9">
      <stop
         id="stop3979-5-1"
         style="stop-color:#ffffff;stop-opacity:1"
         offset="0" />
      <stop
         id="stop3981-1-3"
         style="stop-color:#ffffff;stop-opacity:0.23529412"
         offset="0.03626217" />
      <stop
         id="stop3983-0-1"
         style="stop-color:#ffffff;stop-opacity:0.15686275"
         offset="0.95056331" />
      <stop
         id="stop3985-8-7"
         style="stop-color:#ffffff;stop-opacity:0.39215687"
         offset="1" />
    </linearGradient>
    <linearGradient
       id="linearGradient3232">
      <stop
         offset="0"
         style="stop-color:#bdff69;stop-opacity:1;"
         id="stop3234" />
      <stop
         offset="0.26238"
         style="stop-color:#8ed451;stop-opacity:1;"
         id="stop3236" />
      <stop
         offset="0.66093999"
         style="stop-color:#58aa30;stop-opacity:1;"
         id="stop3238" />
      <stop
         offset="1"
         style="stop-color:#2a6c1f;stop-opacity:1;"
         id="stop3240" />
    </linearGradient>
    <linearGradient
       x1="302.85715"
       y1="366.64789"
       x2="302.85715"
       y2="609.50507"
       id="linearGradient3116-1"
       xlink:href="#linearGradient5048-3"
       gradientUnits="userSpaceOnUse"
       gradientTransform="matrix(0.09153846,0,0,0.02058823,-1.084616,49.45142)" />
    <linearGradient
       id="linearGradient5048-3">
      <stop
         id="stop5050-8"
         style="stop-color:#000000;stop-opacity:0"
         offset="0" />
      <stop
         id="stop5056-2"
         style="stop-color:#000000;stop-opacity:1"
         offset="0.5" />
      <stop
         id="stop5052-3"
         style="stop-color:#000000;stop-opacity:0"
         offset="1" />
    </linearGradient>
    <radialGradient
       cx="605.71429"
       cy="486.64789"
       r="117.14286"
       fx="605.71429"
       fy="486.64789"
       id="radialGradient3113-0"
       xlink:href="#linearGradient5060-0"
       gradientUnits="userSpaceOnUse"
       gradientTransform="matrix(-0.03132632,0,0,0.02058823,-85.953399,-4.3595402)" />
    <linearGradient
       id="linearGradient5060-0">
      <stop
         id="stop5062-4"
         style="stop-color:#000000;stop-opacity:1"
         offset="0" />
      <stop
         id="stop5064-27"
         style="stop-color:#000000;stop-opacity:0"
         offset="1" />
    </linearGradient>
    <radialGradient
       cx="605.71429"
       cy="486.64789"
       r="117.14286"
       fx="605.71429"
       fy="486.64789"
       id="radialGradient3110-8"
       xlink:href="#linearGradient5060-0"
       gradientUnits="userSpaceOnUse"
       gradientTransform="matrix(0.03132633,0,0,0.02058823,-79.511676,-4.3595402)" />
    <linearGradient
       id="linearGradient3117">
      <stop
         id="stop3119"
         style="stop-color:#000000;stop-opacity:1"
         offset="0" />
      <stop
         id="stop3121"
         style="stop-color:#000000;stop-opacity:0"
         offset="1" />
    </linearGradient>
    <radialGradient
       inkscape:collect="always"
       xlink:href="#linearGradient2867-449-88-871-390-598-476-591-434-148-57-177-8-3-3"
       id="radialGradient4367-1"
       gradientUnits="userSpaceOnUse"
       gradientTransform="matrix(9.7706036e-8,6.0761069,-6.0352037,7.0585561e-8,-50.082864,-195.39686)"
       cx="19.556362"
       cy="-3.8301377"
       fx="19.556362"
       fy="-3.8301377"
       r="18.246725" />
    <linearGradient
       id="linearGradient2867-449-88-871-390-598-476-591-434-148-57-177-8-3-3">
      <stop
         id="stop3750-1-0-7"
         style="stop-color:#ffee7d;stop-opacity:1;"
         offset="0" />
      <stop
         id="stop3752-3-7-4"
         style="stop-color:#fcd936;stop-opacity:1;"
         offset="0.26238" />
      <stop
         id="stop3754-1-8-5"
         style="stop-color:#e2880e;stop-opacity:1;"
         offset="0.704952" />
      <stop
         id="stop3756-1-6-2-5"
         style="stop-color:#ac871f;stop-opacity:1;"
         offset="1" />
    </linearGradient>
    <linearGradient
       y2="43"
       x2="23.99999"
       y1="5.5641499"
       x1="23.99999"
       gradientTransform="matrix(1.2064959,0,0,1.5310875,-111.68528,-60.561075)"
       gradientUnits="userSpaceOnUse"
       id="linearGradient4386-8-7"
       xlink:href="#linearGradient3977-6-3"
       inkscape:collect="always" />
    <linearGradient
       id="linearGradient3977-6-3">
      <stop
         id="stop3979-5-8"
         style="stop-color:#ffffff;stop-opacity:1"
         offset="0" />
      <stop
         id="stop3981-1-4"
         style="stop-color:#ffffff;stop-opacity:0.23529412"
         offset="0.03626217" />
      <stop
         id="stop3983-0-3"
         style="stop-color:#ffffff;stop-opacity:0.15686275"
         offset="0.95056331" />
      <stop
         id="stop3985-8-6"
         style="stop-color:#ffffff;stop-opacity:0.39215687"
         offset="1" />
    </linearGradient>
    <linearGradient
       y2="609.50507"
       x2="302.85715"
       y1="366.64789"
       x1="302.85715"
       gradientTransform="matrix(0.09153846,0,0,0.02058823,-115.81715,-4.3595402)"
       gradientUnits="userSpaceOnUse"
       id="linearGradient3145"
       xlink:href="#linearGradient5048-3"
       inkscape:collect="always" />
  </defs>
  <metadata
     id="metadata4166">
    <rdf:RDF>
      <cc:Work
         rdf:about="">
        <dc:format>image/svg+xml</dc:format>
        <dc:type
           rdf:resource="http://purl.org/dc/dcmitype/StillImage" />
        <dc:title></dc:title>
      </cc:Work>
    </rdf:RDF>
  </metadata>
  <g
     id="layer1">
    <path
       inkscape:connector-curvature="0"
       style="opacity:0.05;fill:#705300;fill-opacity:1"
       d="m 37.24556,22.249049 -2.325826,0.363623 C 28.621669,23.526957 22.301065,24.42252 16.003,25.323314 c -0.004,7.870961 -0.004,15.731459 0,23.602421 6.26522,0.904167 12.539333,1.776088 18.800442,2.710643 L 37.24556,52 c 0,-1.123458 0.07753,-2.611939 0.07753,-3.735397 2.878057,-0.0067 5.766265,0.0067 8.644324,0 0.833446,-0.02025 1.976847,0.02916 2.325828,-0.760302 0.2915,-1.524936 0.05472,-3.089494 0.116291,-4.627926 -0.08018,-5.113715 0.193869,-8.679145 0,-14.082117 -1.942279,0.01384 -6.435517,-0.03569 -8.179159,-0.09916 l -2.907284,0 c 0,-2.024251 -0.07753,-4.421787 -0.07753,-6.446039 z m 0.271347,7.239398 9.92353,0 0,17.784459 -9.92353,0 0,-0.826417 7.752759,0 0,-3.404831 -7.752759,-0.03307 0,-1.090867 7.752759,0 -4.070199,-4.330418 -3.68256,3.404832 0,-6.280757 c 0.645171,1.153531 2.038322,1.950341 3.68256,1.950341 2.252192,0 4.070199,-1.48531 4.070199,-3.338719 0,-1.85341 -1.818007,-3.371774 -4.070199,-3.371774 -1.640272,0 -3.035234,0.801296 -3.68256,1.950341 l 0,-2.413133 z m -14.962821,2.049509 c 2.237576,0.05735 4.850383,-0.322052 6.706134,1.057813 1.700712,1.895741 1.630429,5.938063 0.31011,8.264153 -1.380658,1.886231 -3.115645,1.575655 -4.535361,1.652831 -0.829341,-0.06747 -1.655649,-0.12412 -2.480883,-0.198341 0.04105,-3.589672 -0.01644,-7.186782 0,-10.776456 z m 3.101102,1.785058 c -0.21824,0.0065 -0.416989,0.02378 -0.620219,0.03305 -0.0081,1.130206 -0.04335,6.013395 0.03876,7.140227 0.821127,-0.0776 1.9271,-0.03562 2.403354,-0.727244 0.381827,-0.678124 0.374094,-5.255879 -0.07753,-5.917133 -0.406461,-0.483291 -1.089648,-0.548518 -1.744371,-0.528907 z"
       id="path4319" />
    <path
       sodipodi:nodetypes="ccccccc"
       id="path4572-6"
       d="m 45.8,4.9846705 9.552273,9.6840165 3.68056,3.731313 0,-2.981177 -0.0208,-7.4944685 c -0.0119,-2.692028 0.002,-2.956739 0.002,-2.956739 z"
       style="color:#000000;fill:#826000;fill-opacity:1;stroke:#826000;stroke-width:2;stroke-linecap:round;stroke-linejoin:round;stroke-miterlimit:4;stroke-opacity:1;stroke-dasharray:none;stroke-dashoffset:0;marker:none;visibility:visible;display:inline;overflow:visible;enable-background:accumulate"
       inkscape:connector-curvature="0" />
    <g
       transform="matrix(1.5789502,0,0,0.7142857,-5.894751,27.928572)"
       id="g3712-8-2-4-4"
       style="opacity:0.6">
      <rect
         width="5"
         height="7"
         x="38"
         y="40"
         id="rect2801-5-5-7-9"
         style="fill:url(#radialGradient3337-2-2);fill-opacity:1;stroke:none" />
      <rect
         width="5"
         height="7"
         x="-10"
         y="-47"
         transform="scale(-1,-1)"
         id="rect3696-3-0-3-7"
         style="fill:url(#radialGradient3339-1-4);fill-opacity:1;stroke:none" />
      <rect
         width="28"
         height="7.0000005"
         x="10"
         y="40"
         id="rect3700-5-6-8-4"
         style="fill:url(#linearGradient4159);fill-opacity:1;stroke:none" />
    </g>
    <path
       style="opacity:0.90000000000000002;color:#000000;fill:url(#radialGradient3046);fill-opacity:1.0;fill-rule:nonzero;stroke:none;stroke-width:1;marker:none;visibility:visible;display:inline;overflow:visible;enable-background:accumulate;stroke-miterlimit:4;stroke-dasharray:none"
       d="M 7.5,4.5 C 23.986789,4.5134 20.972818,4.4731873 37.458874,4.5201288 39,6 57.612214,24.728176 59.440794,26.500807 c 0.06007,15.684215 0.06153,14.727537 0.03908,30.459998 C 59.142917,59.454947 56.168196,59.716832 54.165746,59.5 38.457041,59.486602 22.747167,59.52681 7.0391946,59.479871 4.5450533,59.142918 4.2831683,56.168196 4.5,54.165746 4.5,38.610497 4.5,23.055249 4.5,7.5 4.4497887,5.9012625 5.9014692,4.4499624 7.5,4.5 z"
       id="rect5505-21-3-8-5-2"
       inkscape:connector-curvature="0"
       sodipodi:nodetypes="ccccccccc" />
    <path
       style="opacity:0.5;fill:none;stroke:url(#linearGradient3491);stroke-width:1;stroke-linecap:round;stroke-linejoin:round;stroke-miterlimit:4;stroke-opacity:1;stroke-dasharray:none;stroke-dashoffset:0"
       d="m 7.4999986,5.4287739 c 16.3333334,0 29.4835734,-0.038834 29.4835734,-0.038834 7.534099,7.7154691 15.579187,15.6769781 21.514797,21.6345491 0,0 0.0016,20.11411 0.0016,29.546764 0.0091,2.011274 -2.189295,2.121941 -3.682304,2 -15.772566,0 -31.545131,0 -47.3176964,0 -2.011274,0.0091 -2.1219409,-2.189294 -2,-3.682304 0,-15.820058 0,-31.640117 0,-47.4601751 -0.025961,-1.0750518 0.9245837,-2.0258724 2.000004,-2 z"
       id="rect6741-5-0-2-3"
       inkscape:connector-curvature="0"
       sodipodi:nodetypes="ccccccccc" />
    <path
       style="opacity:0.7;color:#000000;fill:none;stroke:#000000;stroke-width:1;stroke-linecap:round;stroke-linejoin:round;stroke-miterlimit:4;stroke-opacity:1;stroke-dasharray:none;stroke-dashoffset:0;marker:none;visibility:visible;display:inline;overflow:visible;enable-background:accumulate"
       d="m 7.4999986,4.5000019 c 9.9906214,0 29.7632254,-8.475e-4 29.7632254,-8.475e-4 2.213441,2.116295 18.864556,18.6909036 22.254091,22.1284376 0,15.752563 -6e-6,29.35794 -0.01732,30.409204 -0.256889,2.471767 -2.44832,2.550647 -4.742312,2.463204 -15.752563,0 -31.505125,0 -47.2576884,0 -2.5787122,0.07204 -3.0009314,-2.007463 -3,-4.742311 0,-15.752563 0,-31.505126 0,-47.2576891 -0.038941,-1.6125777 1.3868755,-3.0388086 3.000002,-2.999998 z"
       id="rect5505-21-3-8-9-1-1"
       inkscape:connector-curvature="0"
       sodipodi:nodetypes="ccccccccc" />
    <path
       id="path4248"
       d="m 37.228084,22.686787 -2.148204,0.342222 c -5.817085,0.860477 -11.654989,1.703333 -17.472069,2.551111 -0.0038,7.407726 -0.0038,14.805605 0,22.213332 5.786744,0.850953 11.581706,1.671559 17.364658,2.551112 l 2.255615,0.342221 c 0,-1.057339 0.07161,-2.458217 0.07161,-3.515555 2.658261,-0.0063 5.325898,0.0063 7.984161,0 0.769797,-0.01906 1.825877,0.02744 2.148206,-0.715555 0.269239,-1.435188 0.05054,-2.907667 0.10741,-4.355556 -0.07406,-4.812754 0.179063,-8.168346 0,-13.253333 -1.793948,0.01303 -5.94404,-0.03359 -7.554521,-0.09333 l -2.685256,0 c 0,-1.905117 -0.07161,-4.161549 -0.07161,-6.066666 z m 0.250624,6.813333 9.165676,0 0,16.737777 -9.165676,0 0,-0.777778 7.160685,0 0,-3.204445 -7.160685,-0.03111 0,-1.026667 7.160685,0 -3.75936,-4.075556 -3.401325,3.204445 0,-5.911111 c 0.5959,1.085641 1.882656,1.835556 3.401325,1.835556 2.080193,0 3.75936,-1.397894 3.75936,-3.142223 0,-1.74433 -1.679167,-3.173333 -3.75936,-3.173333 -1.515005,0 -2.803435,0.754137 -3.401325,1.835556 l 0,-2.271111 z m -13.820119,1.928888 c 2.066693,0.05398 4.479962,-0.303098 6.193991,0.995556 1.570829,1.78417 1.505914,5.588586 0.286427,7.777777 -1.275218,1.775219 -2.877705,1.482922 -4.188999,1.555556 -0.766005,-0.0635 -1.529207,-0.116814 -2.291419,-0.186667 0.03792,-3.378407 -0.01519,-6.763814 0,-10.142222 z m 2.864273,1.68 c -0.201573,0.0061 -0.385144,0.02238 -0.572854,0.03111 -0.0075,1.06369 -0.04004,5.659485 0.0358,6.719999 0.758419,-0.07304 1.779929,-0.03353 2.219812,-0.684444 0.352667,-0.638214 0.345524,-4.946551 -0.07161,-5.568888 -0.37542,-0.454847 -1.006433,-0.516235 -1.611155,-0.497779 z"
       style="opacity:0.15;fill:#705300;fill-opacity:1"
       inkscape:connector-curvature="0" />
    <path
       inkscape:connector-curvature="0"
       style="fill:#ffffff;fill-opacity:1"
       d="m 36.526185,21.727049 -2.148205,0.342222 c -5.817084,0.860477 -11.654988,1.703333 -17.472068,2.551111 -0.0038,7.407726 -0.0038,14.805605 0,22.21333 5.786744,0.850953 11.581705,1.671559 17.364658,2.551112 l 2.255615,0.342222 c 0,-1.05734 0.07161,-2.458216 0.07161,-3.515555 2.658263,-0.0063 5.325899,0.0063 7.984163,0 0.769796,-0.01906 1.825875,0.02744 2.148205,-0.715556 0.26924,-1.435188 0.05054,-2.907666 0.10741,-4.355555 -0.07406,-4.812754 0.179063,-8.168345 0,-13.253332 -1.793948,0.01304 -5.94404,-0.03359 -7.554521,-0.09334 l -2.685257,0 c 0,-1.905117 -0.07161,-4.161549 -0.07161,-6.066666 z m 0.250624,6.813332 9.165675,0 0,16.737776 -9.165675,0 0,-0.777778 7.160683,0 0,-3.204443 -7.160683,-0.03111 0,-1.026666 7.160683,0 -3.759358,-4.075555 -3.401325,3.204443 0,-5.91111 c 0.5959,1.085642 1.882654,1.835556 3.401325,1.835556 2.080191,0 3.759358,-1.397893 3.759358,-3.142222 0,-1.744329 -1.679167,-3.173333 -3.759358,-3.173333 -1.515005,0 -2.803436,0.754136 -3.401325,1.835555 l 0,-2.271111 z m -13.82012,1.92889 c 2.066694,0.05398 4.479963,-0.3031 6.193992,0.995554 1.570828,1.78417 1.505913,5.588586 0.286427,7.777777 -1.275219,1.775219 -2.877706,1.482923 -4.188999,1.555556 -0.766005,-0.06351 -1.529207,-0.116814 -2.29142,-0.186667 0.03792,-3.378406 -0.01519,-6.763814 0,-10.14222 z m 2.864274,1.679999 c -0.201574,0.0061 -0.385146,0.02238 -0.572854,0.03111 -0.0075,1.06369 -0.04004,5.659485 0.0358,6.72 0.758419,-0.07303 1.779928,-0.03353 2.219812,-0.684445 0.352666,-0.638213 0.345522,-4.94655 -0.07161,-5.568888 -0.375418,-0.454847 -1.006432,-0.516235 -1.611153,-0.497778 z"
       id="path30-3-4" />
  </g>
</svg>
