<?xml version="1.0" encoding="UTF-8" standalone="no"?>
<!-- Created with Inkscape (http://www.inkscape.org/) -->

<svg
   xmlns:dc="http://purl.org/dc/elements/1.1/"
   xmlns:cc="http://creativecommons.org/ns#"
   xmlns:rdf="http://www.w3.org/1999/02/22-rdf-syntax-ns#"
   xmlns:svg="http://www.w3.org/2000/svg"
   xmlns="http://www.w3.org/2000/svg"
   xmlns:xlink="http://www.w3.org/1999/xlink"
   xmlns:sodipodi="http://sodipodi.sourceforge.net/DTD/sodipodi-0.dtd"
   xmlns:inkscape="http://www.inkscape.org/namespaces/inkscape"
   version="1.1"
   width="64"
   height="64"
   id="svg4161"
   inkscape:version="0.48.4 r9939"
   sodipodi:docname="libreoffice-math.svg">
  <sodipodi:namedview
     pagecolor="#ffffff"
     bordercolor="#666666"
     borderopacity="1"
     objecttolerance="10"
     gridtolerance="10"
     guidetolerance="10"
     inkscape:pageopacity="0"
     inkscape:pageshadow="2"
     inkscape:window-width="1855"
     inkscape:window-height="1056"
     id="namedview45"
     showgrid="true"
     inkscape:zoom="14.766991"
     inkscape:cx="4.5628243"
     inkscape:cy="28.74639"
     inkscape:window-x="65"
     inkscape:window-y="24"
     inkscape:window-maximized="1"
     inkscape:current-layer="layer1"
     showguides="false"
     inkscape:snap-global="false">
    <inkscape:grid
       type="xygrid"
       id="grid3488" />
  </sodipodi:namedview>
  <defs
     id="defs4163">
    <linearGradient
       x1="20"
       y1="26.000008"
       x2="20"
       y2="13.000008"
       id="linearGradient4069"
       xlink:href="#linearGradient3680-6-6-6-3-7-1"
       gradientUnits="userSpaceOnUse"
       gradientTransform="matrix(1.326882,0,0,1.326882,-0.399219,-0.2324859)" />
    <linearGradient
       id="linearGradient3680-6-6-6-3-7-1">
      <stop
         id="stop3682-4-6-1-3-7-7"
         style="stop-color:#dcdcdc;stop-opacity:1"
         offset="0" />
      <stop
         id="stop3684-8-5-8-0-2-6"
         style="stop-color:#ffffff;stop-opacity:1"
         offset="1" />
    </linearGradient>
    <linearGradient
       x1="23.99999"
       y1="4.999989"
       x2="23.99999"
       y2="43"
       id="linearGradient3180"
       xlink:href="#linearGradient3924-2-2-5-8"
       gradientUnits="userSpaceOnUse"
       gradientTransform="matrix(1.4324324,0,0,1.4362832,-2.378381,-2.4707781)" />
    <linearGradient
       id="linearGradient3924-2-2-5-8">
      <stop
         id="stop3926-9-4-9-6"
         style="stop-color:#ffffff;stop-opacity:1"
         offset="0" />
      <stop
         id="stop3928-9-8-6-5"
         style="stop-color:#ffffff;stop-opacity:0.23529412"
         offset="0.06316455" />
      <stop
         id="stop3930-3-5-1-7"
         style="stop-color:#ffffff;stop-opacity:0.15686275"
         offset="0.95056331" />
      <stop
         id="stop3932-8-0-4-8"
         style="stop-color:#ffffff;stop-opacity:0.39215687"
         offset="1" />
    </linearGradient>
    <radialGradient
       cx="7.1183534"
       cy="9.9571075"
       r="12.671875"
       fx="7.1183534"
       fy="9.9571075"
       id="radialGradient3988-3"
       xlink:href="#linearGradient2867-449-88-871-390-598-476-591-434-148-57-177-8-3-3-6-4-8-8-8-5-7"
       gradientUnits="userSpaceOnUse"
       gradientTransform="matrix(0,12.890089,-15.824912,0,190.74237,-113.0978)" />
    <linearGradient
       id="linearGradient2867-449-88-871-390-598-476-591-434-148-57-177-8-3-3-6-4-8-8-8-5-7">
      <stop
         id="stop3750-1-0-7-6-6-1-3-9-3-9"
         style="stop-color:#505050;stop-opacity:1"
         offset="0" />
      <stop
         id="stop3752-3-7-4-0-32-8-923-0-7-0"
         style="stop-color:#2b2b2b;stop-opacity:1"
         offset="0.26238" />
      <stop
         id="stop3754-1-8-5-2-7-6-7-1-9-1"
         style="stop-color:#0a0a0a;stop-opacity:1"
         offset="0.704952" />
      <stop
         id="stop3756-1-6-2-6-6-1-96-6-0-1"
         style="stop-color:#000000;stop-opacity:1"
         offset="1" />
    </linearGradient>
    <radialGradient
       cx="4.9929786"
       cy="43.5"
       r="2.5"
       fx="4.9929786"
       fy="43.5"
       id="radialGradient3337-2-2"
       xlink:href="#linearGradient3688-166-749-4-0-3-8"
       gradientUnits="userSpaceOnUse"
       gradientTransform="matrix(2.003784,0,0,1.4,27.98813,-17.4)" />
    <linearGradient
       id="linearGradient3688-166-749-4-0-3-8">
      <stop
         id="stop2883-4-0-1-8"
         style="stop-color:#181818;stop-opacity:1"
         offset="0" />
      <stop
         id="stop2885-9-2-9-6"
         style="stop-color:#181818;stop-opacity:0"
         offset="1" />
    </linearGradient>
    <radialGradient
       cx="4.9929786"
       cy="43.5"
       r="2.5"
       fx="4.9929786"
       fy="43.5"
       id="radialGradient3339-1-4"
       xlink:href="#linearGradient3688-464-309-9-2-4-2"
       gradientUnits="userSpaceOnUse"
       gradientTransform="matrix(2.003784,0,0,1.4,-20.01187,-104.4)" />
    <linearGradient
       id="linearGradient3688-464-309-9-2-4-2">
      <stop
         id="stop2889-7-9-6-9"
         style="stop-color:#181818;stop-opacity:1"
         offset="0" />
      <stop
         id="stop2891-6-6-1-7"
         style="stop-color:#181818;stop-opacity:0"
         offset="1" />
    </linearGradient>
    <linearGradient
       id="linearGradient3702-501-757-8-4-1-1">
      <stop
         id="stop2895-8-9-9-1"
         style="stop-color:#181818;stop-opacity:0"
         offset="0" />
      <stop
         id="stop2897-7-8-7-7"
         style="stop-color:#181818;stop-opacity:1"
         offset="0.5" />
      <stop
         id="stop2899-4-5-1-5"
         style="stop-color:#181818;stop-opacity:0"
         offset="1" />
    </linearGradient>
    <linearGradient
       x1="25.058096"
       y1="47.027729"
       x2="25.058096"
       y2="39.999443"
       id="linearGradient4159"
       xlink:href="#linearGradient3702-501-757-8-4-1-1"
       gradientUnits="userSpaceOnUse" />
    <radialGradient
       inkscape:collect="always"
       xlink:href="#linearGradient2867-449-88-871-390-598-476-591-434-148-57-177-8-3-3-6-4-8-8-8-5-7"
       id="radialGradient3043"
       gradientUnits="userSpaceOnUse"
       gradientTransform="matrix(0,12.890089,-15.824912,0,190.74237,-113.0978)"
       cx="7.1183534"
       cy="9.9571075"
       fx="7.1183534"
       fy="9.9571075"
       r="12.671875" />
    <radialGradient
       inkscape:collect="always"
       xlink:href="#linearGradient2867-449-88-871-390-598-476-591-434-148-57-177-8-3-3-6-4-8-8-8-5-7-3"
       id="radialGradient3046"
       gradientUnits="userSpaceOnUse"
       gradientTransform="matrix(0,12.890089,-15.824912,0,190.74237,-113.0978)"
       cx="7.1183534"
       cy="9.9571075"
       fx="7.1183534"
       fy="9.9571075"
       r="12.671875" />
    <radialGradient
       inkscape:collect="always"
       xlink:href="#linearGradient2867-449-88-871-390-598-476-591-434-148-57-177-8-3-7"
       id="radialGradient4367"
       gradientUnits="userSpaceOnUse"
       gradientTransform="matrix(9.7706036e-8,6.0761069,-6.0352037,7.0585561e-8,3.51222,-129.91288)"
       cx="19.556362"
       cy="-3.8301377"
       fx="19.556362"
       fy="-3.8301377"
       r="18.246725" />
    <linearGradient
       id="linearGradient2867-449-88-871-390-598-476-591-434-148-57-177-8-3-7">
      <stop
         id="stop3750-1-0-5"
         style="stop-color:#bfbfbf;stop-opacity:1;"
         offset="0" />
      <stop
         id="stop3752-3-7-3"
         style="stop-color:#9e9e9e;stop-opacity:1;"
         offset="0.26238" />
      <stop
         id="stop3754-1-8-9"
         style="stop-color:#565656;stop-opacity:1;"
         offset="0.704952" />
      <stop
         id="stop3756-1-6-2"
         style="stop-color:#313131;stop-opacity:1;"
         offset="1" />
    </linearGradient>
    <radialGradient
       r="18.246725"
       fy="-3.8301377"
       fx="19.556362"
       cy="-3.8301377"
       cx="19.556362"
       gradientTransform="matrix(9.7706036e-8,6.0761069,-6.0352037,7.0585561e-8,-4.4877875,-129.89861)"
       gradientUnits="userSpaceOnUse"
       id="radialGradient3415"
       xlink:href="#linearGradient2867-449-88-871-390-598-476-591-434-148-57-177-8-3-7"
       inkscape:collect="always" />
    <radialGradient
       inkscape:collect="always"
       xlink:href="#linearGradient2867-449-88-871-390-598-476-591-434-148-57-177-8-3-7"
       id="radialGradient3467"
       gradientUnits="userSpaceOnUse"
       gradientTransform="matrix(9.7706036e-8,6.0761069,-6.0352037,7.0585561e-8,7.5348649,-125.92875)"
       cx="19.556362"
       cy="-3.8301377"
       fx="19.556362"
       fy="-3.8301377"
       r="18.246725" />
    <linearGradient
       inkscape:collect="always"
       xlink:href="#linearGradient3924-2-2-5-8"
       id="linearGradient3491"
       gradientUnits="userSpaceOnUse"
       gradientTransform="matrix(1.4324324,0,0,1.4362832,-2.378381,-2.4707781)"
       x1="23.99999"
       y1="4.999989"
       x2="23.99999"
       y2="43" />
    <linearGradient
       x1="302.85715"
       y1="366.64789"
       x2="302.85715"
       y2="609.50507"
       id="linearGradient3116"
       xlink:href="#linearGradient5048"
       gradientUnits="userSpaceOnUse"
       gradientTransform="matrix(0.09153846,0,0,0.02058823,-1.084616,49.45142)" />
    <linearGradient
       id="linearGradient5048">
      <stop
         id="stop5050"
         style="stop-color:#000000;stop-opacity:0"
         offset="0" />
      <stop
         id="stop5056"
         style="stop-color:#000000;stop-opacity:1"
         offset="0.5" />
      <stop
         id="stop5052"
         style="stop-color:#000000;stop-opacity:0"
         offset="1" />
    </linearGradient>
    <radialGradient
       cx="605.71429"
       cy="486.64789"
       r="117.14286"
       fx="605.71429"
       fy="486.64789"
       id="radialGradient3113"
       xlink:href="#linearGradient5060"
       gradientUnits="userSpaceOnUse"
       gradientTransform="matrix(-0.03132632,0,0,0.02058823,-30.095323,53.991019)" />
    <linearGradient
       id="linearGradient5060">
      <stop
         id="stop5062"
         style="stop-color:#000000;stop-opacity:1"
         offset="0" />
      <stop
         id="stop5064"
         style="stop-color:#000000;stop-opacity:0"
         offset="1" />
    </linearGradient>
    <radialGradient
       cx="605.71429"
       cy="486.64789"
       r="117.14286"
       fx="605.71429"
       fy="486.64789"
       id="radialGradient3110"
       xlink:href="#linearGradient5060"
       gradientUnits="userSpaceOnUse"
       gradientTransform="matrix(0.03132633,0,0,0.02058823,-23.6536,53.991019)" />
    <linearGradient
       id="linearGradient3159">
      <stop
         id="stop3161"
         style="stop-color:#000000;stop-opacity:1"
         offset="0" />
      <stop
         id="stop3163"
         style="stop-color:#000000;stop-opacity:0"
         offset="1" />
    </linearGradient>
    <radialGradient
       inkscape:collect="always"
       xlink:href="#linearGradient3242-4"
       id="radialGradient4367-4"
       gradientUnits="userSpaceOnUse"
       gradientTransform="matrix(9.7706036e-8,6.0761069,-6.0352037,7.0585561e-8,-55.362239,-125.37328)"
       cx="19.556362"
       cy="-3.8301377"
       fx="19.556362"
       fy="-3.8301377"
       r="18.246725" />
    <linearGradient
       id="linearGradient3242-4">
      <stop
         id="stop3244-7"
         style="stop-color:#f89b7e;stop-opacity:1"
         offset="0" />
      <stop
         id="stop3246-1"
         style="stop-color:#e35d4f;stop-opacity:1"
         offset="0.26238" />
      <stop
         id="stop3248-5"
         style="stop-color:#c6262e;stop-opacity:1"
         offset="0.66093999" />
      <stop
         id="stop3250-7"
         style="stop-color:#690b2c;stop-opacity:1"
         offset="1" />
    </linearGradient>
    <linearGradient
       y2="43"
       x2="23.99999"
       y1="5.5641499"
       x1="23.99999"
       gradientTransform="matrix(1.2064959,0,0,1.5310875,-55.827205,-2.2105156)"
       gradientUnits="userSpaceOnUse"
       id="linearGradient4386-8"
       xlink:href="#linearGradient3977-6"
       inkscape:collect="always" />
    <linearGradient
       id="linearGradient3977-6">
      <stop
         id="stop3979-5"
         style="stop-color:#ffffff;stop-opacity:1"
         offset="0" />
      <stop
         id="stop3981-1"
         style="stop-color:#ffffff;stop-opacity:0.23529412"
         offset="0.03626217" />
      <stop
         id="stop3983-0"
         style="stop-color:#ffffff;stop-opacity:0.15686275"
         offset="0.95056331" />
      <stop
         id="stop3985-8"
         style="stop-color:#ffffff;stop-opacity:0.39215687"
         offset="1" />
    </linearGradient>
    <linearGradient
       y2="609.50507"
       x2="302.85715"
       y1="366.64789"
       x1="302.85715"
       gradientTransform="matrix(0.09153846,0,0,0.02058823,-59.959075,53.991019)"
       gradientUnits="userSpaceOnUse"
       id="linearGradient3187"
       xlink:href="#linearGradient5048"
       inkscape:collect="always" />
    <radialGradient
       inkscape:collect="always"
       xlink:href="#linearGradient2867-449-88-871-390-598-476-591-434-148-57-177-8-3-3-6-4-8-8-8-5-7-3"
       id="radialGradient3046-1"
       gradientUnits="userSpaceOnUse"
       gradientTransform="matrix(0,12.890089,-15.824912,0,190.74237,-113.0978)"
       cx="7.1183534"
       cy="9.9571075"
       fx="7.1183534"
       fy="9.9571075"
       r="12.671875" />
    <linearGradient
       id="linearGradient2867-449-88-871-390-598-476-591-434-148-57-177-8-3-3-6-4-8-8-8-5-7-3">
      <stop
         id="stop3750-1-0-7-6-6-1-3-9-3-9-0"
         style="stop-color:#505050;stop-opacity:1"
         offset="0" />
      <stop
         id="stop3752-3-7-4-0-32-8-923-0-7-0-9"
         style="stop-color:#2b2b2b;stop-opacity:1"
         offset="0.26238" />
      <stop
         id="stop3754-1-8-5-2-7-6-7-1-9-1-4"
         style="stop-color:#0a0a0a;stop-opacity:1"
         offset="0.704952" />
      <stop
         id="stop3756-1-6-2-6-6-1-96-6-0-1-9"
         style="stop-color:#000000;stop-opacity:1"
         offset="1" />
    </linearGradient>
  </defs>
  <metadata
     id="metadata4166">
    <rdf:RDF>
      <cc:Work
         rdf:about="">
        <dc:format>image/svg+xml</dc:format>
        <dc:type
           rdf:resource="http://purl.org/dc/dcmitype/StillImage" />
        <dc:title></dc:title>
      </cc:Work>
    </rdf:RDF>
  </metadata>
  <g
     id="layer1">
    <path
       sodipodi:nodetypes="ccccccc"
       id="path4572-6"
       d="m 45.8,4.9846705 9.552273,9.6840165 3.68056,3.731313 0,-2.981177 -0.0208,-7.4944685 c -0.0119,-2.692028 0.002,-2.956739 0.002,-2.956739 z"
       style="color:#000000;fill:#000000;fill-opacity:1;stroke:#000000;stroke-width:2;stroke-linecap:round;stroke-linejoin:round;stroke-miterlimit:4;stroke-opacity:1;stroke-dasharray:none;stroke-dashoffset:0;marker:none;visibility:visible;display:inline;overflow:visible;enable-background:accumulate"
       inkscape:connector-curvature="0" />
    <g
       transform="matrix(1.5789502,0,0,0.7142857,-5.894751,27.928572)"
       id="g3712-8-2-4-4"
       style="opacity:0.6">
      <rect
         width="5"
         height="7"
         x="38"
         y="40"
         id="rect2801-5-5-7-9"
         style="fill:url(#radialGradient3337-2-2);fill-opacity:1;stroke:none" />
      <rect
         width="5"
         height="7"
         x="-10"
         y="-47"
         transform="scale(-1,-1)"
         id="rect3696-3-0-3-7"
         style="fill:url(#radialGradient3339-1-4);fill-opacity:1;stroke:none" />
      <rect
         width="28"
         height="7.0000005"
         x="10"
         y="40"
         id="rect3700-5-6-8-4"
         style="fill:url(#linearGradient4159);fill-opacity:1;stroke:none" />
    </g>
    <path
       style="opacity:0.90000000000000002;color:#000000;fill:url(#radialGradient3046);fill-opacity:1.0;fill-rule:nonzero;stroke:none;stroke-width:1;marker:none;visibility:visible;display:inline;overflow:visible;enable-background:accumulate;stroke-miterlimit:4;stroke-dasharray:none"
       d="M 7.5,4.5 C 23.986789,4.5134 20.972818,4.4731873 37.458874,4.5201288 39,6 57.612214,24.728176 59.440794,26.500807 c 0.06007,15.684215 0.06153,14.727537 0.03908,30.459998 C 59.142917,59.454947 56.168196,59.716832 54.165746,59.5 38.457041,59.486602 22.747167,59.52681 7.0391946,59.479871 4.5450533,59.142918 4.2831683,56.168196 4.5,54.165746 4.5,38.610497 4.5,23.055249 4.5,7.5 4.4497887,5.9012625 5.9014692,4.4499624 7.5,4.5 z"
       id="rect5505-21-3-8-5-2"
       inkscape:connector-curvature="0"
       sodipodi:nodetypes="ccccccccc" />
    <path
       style="opacity:0.3;fill:none;stroke:url(#linearGradient3491);stroke-width:1;stroke-linecap:round;stroke-linejoin:round;stroke-miterlimit:4;stroke-opacity:1;stroke-dasharray:none;stroke-dashoffset:0"
       d="m 7.4999986,5.4287739 c 16.3333334,0 29.4835734,-0.038834 29.4835734,-0.038834 7.534099,7.7154691 15.579187,15.6769781 21.514797,21.6345491 0,0 0.0016,20.11411 0.0016,29.546764 0.0091,2.011274 -2.189295,2.121941 -3.682304,2 -15.772566,0 -31.545131,0 -47.3176964,0 -2.011274,0.0091 -2.1219409,-2.189294 -2,-3.682304 0,-15.820058 0,-31.640117 0,-47.4601751 -0.025961,-1.0750518 0.9245837,-2.0258724 2.000004,-2 z"
       id="rect6741-5-0-2-3"
       inkscape:connector-curvature="0"
       sodipodi:nodetypes="ccccccccc" />
    <path
       style="opacity:0.7;color:#000000;fill:none;stroke:#000000;stroke-width:1;stroke-linecap:round;stroke-linejoin:round;stroke-miterlimit:4;stroke-opacity:1;stroke-dasharray:none;stroke-dashoffset:0;marker:none;visibility:visible;display:inline;overflow:visible;enable-background:accumulate"
       d="m 7.4999986,4.5000019 c 9.9906214,0 29.7632254,-8.475e-4 29.7632254,-8.475e-4 2.213441,2.116295 18.864556,18.6909036 22.254091,22.1284376 0,15.752563 -6e-6,29.35794 -0.01732,30.409204 -0.256889,2.471767 -2.44832,2.550647 -4.742312,2.463204 -15.752563,0 -31.505125,0 -47.2576884,0 -2.5787122,0.07204 -3.0009314,-2.007463 -3,-4.742311 0,-15.752563 0,-31.505126 0,-47.2576891 -0.038941,-1.6125777 1.3868755,-3.0388086 3.000002,-2.999998 z"
       id="rect5505-21-3-8-9-1-1"
       inkscape:connector-curvature="0"
       sodipodi:nodetypes="ccccccccc" />
    <path
       style="opacity:0.3;fill:#000000;fill-opacity:1"
       d="m 32.499184,21.463713 c -5.224402,0.86245 -10.449757,1.690864 -15.674166,2.537519 0,7.367174 -0.0036,14.737352 0,22.107696 5.197145,0.843484 10.393498,1.641892 15.58042,2.520139 l 2.137387,0.455261 0,-2.9754 c 3.411366,0 6.825588,-0.01557 10.236956,0 0.579351,-0.02526 1.2086,0.01568 1.706151,-0.312845 0.39874,-0.565513 0.30341,-1.273683 0.337491,-1.911829 -0.04769,-6.223525 0.0205,-12.442823 -0.03751,-18.666404 0.07159,-0.720294 -0.535419,-1.289309 -1.31243,-1.216618 -3.643119,-0.05395 -7.28415,0.0014 -10.930669,-0.01738 l 0,-2.899524 z m 1.968645,3.337011 11.249404,0 0,20.213247 -11.249404,0 0,-10.793145 0.01875,0.729971 0.93745,3.841039 1.631162,-0.03477 1.706162,-7.560416 6.4684,-0.0869 0,-1.842308 -8.174562,-0.01738 -0.9187,6.448079 -0.693714,-2.242056 -0.974946,0.01738 c 0,0.828358 0.0014,0.827913 -0.01875,0 l 0.01875,0 z m -7.930828,7.403993 c 0.132825,0.0095 0.264107,0.03335 0.374981,0.0869 0.655935,2.370669 1.180994,4.775207 1.781155,7.160668 -0.528443,-0.02937 -1.062559,-0.05172 -1.593665,-0.06951 -0.32133,-1.706045 -0.656142,-3.401302 -0.9562,-5.109796 -0.382434,1.654379 -0.734228,3.309035 -1.087441,4.970754 -0.504553,-0.02465 -1.014117,-0.04228 -1.51867,-0.06951 -0.371774,-1.609996 -0.750501,-3.221716 -1.124941,-4.831712 -0.238997,1.570563 -0.551407,3.124499 -0.824955,4.692671 -0.454107,-0.01447 -0.914572,-0.03268 -1.368678,-0.05214 0.411608,-2.171228 0.927849,-4.316452 1.368678,-6.482839 0.512546,-0.03226 1.02749,-0.06187 1.537418,-0.0869 0.355833,1.580465 0.757977,3.154505 1.068693,4.744813 0.315999,-1.637028 0.734274,-3.25417 1.087443,-4.883855 0.394367,0.02628 0.857704,-0.09846 1.256182,-0.06951 z m 17.005341,0.364985 -1.23743,1.720646 -1.25619,-1.703267 -1.10619,0.03477 1.16244,2.207293 -1.23743,1.651123 1.23743,0.01738 1.19994,-1.129717 1.21868,1.164477 1.19994,-0.05213 -1.25618,-1.651124 1.312429,-2.242054 z"
       id="path6-1"
       inkscape:connector-curvature="0"
       sodipodi:nodetypes="ccccccccccccccccccccccccccccccccscccccccccccccsccccccccccccc" />
    <path
       sodipodi:nodetypes="ccccccccccccccccccccccccccccccccscccccccccccccsccccccccccccc"
       inkscape:connector-curvature="0"
       id="path3091"
       d="m 31.428062,22.597439 c -5.224404,0.862451 -10.449762,1.690864 -15.674173,2.537517 0,7.367173 -0.0036,14.737348 0,22.107693 5.197148,0.843484 10.393504,1.64189 15.580428,2.520136 l 2.137387,0.455262 0,-2.975398 c 3.411368,0 6.825589,-0.01557 10.236961,0 0.579351,-0.02525 1.2086,0.01568 1.70615,-0.312846 0.39874,-0.565512 0.303411,-1.273683 0.337491,-1.911829 -0.0477,-6.223522 0.0205,-12.44282 -0.0375,-18.666399 0.0716,-0.720292 -0.535419,-1.289307 -1.31243,-1.216619 -3.643121,-0.05394 -7.284154,0.0015 -10.930673,-0.01739 l 0,-2.899522 z m 1.968645,3.33701 11.249408,0 0,20.213242 -11.249408,0 0,-10.793141 0.01875,0.729971 0.937451,3.841037 1.631163,-0.03476 1.706162,-7.560413 6.468403,-0.0869 0,-1.842308 -8.174565,-0.01739 -0.918701,6.448076 -0.693713,-2.242055 -0.974947,0.01739 c 0,0.828355 0.0013,0.827911 -0.01875,0 l 0.01875,0 z m -7.93083,7.403991 c 0.132826,0.0097 0.264107,0.03336 0.374979,0.0869 0.655936,2.370666 1.180996,4.775203 1.781156,7.160665 -0.528442,-0.02936 -1.062558,-0.05172 -1.593665,-0.06952 -0.321331,-1.706046 -0.656142,-3.401303 -0.9562,-5.109796 -0.382433,1.654379 -0.734227,3.309035 -1.087443,4.970754 -0.504551,-0.02463 -1.014116,-0.04227 -1.518669,-0.06953 -0.371774,-1.609996 -0.750501,-3.221717 -1.124941,-4.831711 -0.238997,1.570564 -0.551408,3.124498 -0.824956,4.692669 -0.454107,-0.01447 -0.914572,-0.03267 -1.368678,-0.05213 0.411608,-2.171224 0.927849,-4.31645 1.368678,-6.482835 0.512547,-0.03227 1.02749,-0.06188 1.537419,-0.0869 0.355832,1.580464 0.757976,3.154505 1.068695,4.744812 0.315997,-1.637027 0.734273,-3.254169 1.08744,-4.883854 0.39437,0.02629 0.857707,-0.09847 1.256185,-0.06952 z m 17.005348,0.364986 -1.237431,1.720644 -1.256191,-1.703265 -1.10619,0.03476 1.16244,2.207293 -1.237431,1.651125 1.237431,0.01738 1.199941,-1.129717 1.218681,1.164476 1.19994,-0.05213 -1.256182,-1.651125 1.312432,-2.242054 z"
       style="opacity:0.05;fill:#000000;fill-opacity:1" />
    <path
       sodipodi:nodetypes="ccccccccccccccccccccccccccccccccscccccccccccccsccccccccccccc"
       inkscape:connector-curvature="0"
       id="path3853"
       d="m 32.568442,20.607101 c -5.2244,0.86245 -10.449754,1.690863 -15.674161,2.537518 0,7.367175 -0.0036,14.737351 0,22.107697 5.197143,0.843485 10.393495,1.641892 15.580414,2.520138 l 2.137386,0.455262 0,-2.9754 c 3.411366,0 6.825586,-0.01557 10.236953,0 0.579351,-0.02526 1.2086,0.01568 1.70615,-0.312845 0.398741,-0.565513 0.303411,-1.273683 0.337491,-1.911829 -0.04769,-6.223526 0.0205,-12.442822 -0.03751,-18.666405 0.0716,-0.720293 -0.53542,-1.289307 -1.312431,-1.216618 -3.643117,-0.05395 -7.284147,0.0015 -10.930663,-0.01738 l 0,-2.899523 z m 1.968644,3.337011 11.249399,0 0,20.213246 -11.249399,0 0,-10.793143 0.01875,0.72997 0.93745,3.841039 1.631162,-0.03477 1.706161,-7.560415 6.468397,-0.0869 0,-1.842308 -8.174558,-0.01738 -0.9187,6.448079 -0.693714,-2.242056 -0.974947,0.01738 c 0,0.828358 0.0013,0.827913 -0.01875,0 l 0.01875,0 z m -7.930824,7.403992 c 0.132824,0.0095 0.264106,0.03335 0.374979,0.0869 0.655935,2.370669 1.180995,4.775206 1.781154,7.160667 -0.528442,-0.02937 -1.062558,-0.05172 -1.593664,-0.06951 -0.321329,-1.706045 -0.656142,-3.401303 -0.956199,-5.109796 -0.382433,1.654379 -0.734227,3.309035 -1.087441,4.970755 -0.504553,-0.02464 -1.014117,-0.04227 -1.518669,-0.06951 -0.371774,-1.609996 -0.750501,-3.221718 -1.124941,-4.831714 -0.238997,1.570564 -0.551406,3.124499 -0.824954,4.692672 -0.454107,-0.01447 -0.914572,-0.03268 -1.368677,-0.05214 0.411607,-2.171227 0.927848,-4.316452 1.368677,-6.482839 0.512545,-0.03226 1.027489,-0.06187 1.537417,-0.0869 0.355833,1.580463 0.757976,3.154503 1.068693,4.744811 0.315999,-1.637026 0.734274,-3.254169 1.087442,-4.883853 0.394367,0.02627 0.857705,-0.09847 1.256183,-0.06951 z m 17.005333,0.364986 -1.237428,1.720645 -1.256191,-1.703265 -1.106189,0.03477 1.16244,2.207293 -1.23743,1.651124 1.23743,0.01738 1.19994,-1.129717 1.218678,1.164477 1.19994,-0.05215 -1.25618,-1.651124 1.312429,-2.242054 z"
       style="fill:#ffffff;fill-opacity:1" />
  </g>
</svg>
