<?xml version="1.0" encoding="UTF-8" standalone="no"?>
<!-- Created with Inkscape (http://www.inkscape.org/) -->

<svg
   xmlns:dc="http://purl.org/dc/elements/1.1/"
   xmlns:cc="http://creativecommons.org/ns#"
   xmlns:rdf="http://www.w3.org/1999/02/22-rdf-syntax-ns#"
   xmlns:svg="http://www.w3.org/2000/svg"
   xmlns="http://www.w3.org/2000/svg"
   xmlns:xlink="http://www.w3.org/1999/xlink"
   xmlns:sodipodi="http://sodipodi.sourceforge.net/DTD/sodipodi-0.dtd"
   xmlns:inkscape="http://www.inkscape.org/namespaces/inkscape"
   version="1.0"
   width="64"
   height="64"
   id="svg11300"
   style="display:inline;enable-background:new"
   inkscape:version="0.48.4 r9939"
   sodipodi:docname="logviewer.svg">
  <metadata
     id="metadata77">
    <rdf:RDF>
      <cc:Work
         rdf:about="">
        <dc:format>image/svg+xml</dc:format>
        <dc:type
           rdf:resource="http://purl.org/dc/dcmitype/StillImage" />
        <dc:title></dc:title>
      </cc:Work>
    </rdf:RDF>
  </metadata>
  <sodipodi:namedview
     pagecolor="#ffffff"
     bordercolor="#666666"
     borderopacity="1"
     objecttolerance="10"
     gridtolerance="10"
     guidetolerance="10"
     inkscape:pageopacity="0"
     inkscape:pageshadow="2"
     inkscape:window-width="1346"
     inkscape:window-height="914"
     id="namedview75"
     showgrid="false"
     inkscape:zoom="4.9166667"
     inkscape:cx="24"
     inkscape:cy="32.135593"
     inkscape:window-x="444"
     inkscape:window-y="107"
     inkscape:window-maximized="0"
     inkscape:current-layer="svg11300" />
  <defs
     id="defs3">
    <linearGradient
       id="linearGradient11114-516">
      <stop
         id="stop3372"
         style="stop-color:#242424;stop-opacity:0.99215686"
         offset="0" />
      <stop
         id="stop3374"
         style="stop-color:#656565;stop-opacity:1"
         offset="1" />
    </linearGradient>
    <linearGradient
       id="linearGradient3277-442">
      <stop
         id="stop3378"
         style="stop-color:#575757;stop-opacity:1"
         offset="0" />
      <stop
         id="stop3380"
         style="stop-color:#333;stop-opacity:1"
         offset="1" />
    </linearGradient>
    <linearGradient
       id="linearGradient12093-170">
      <stop
         id="stop3384"
         style="stop-color:white;stop-opacity:1"
         offset="0" />
      <stop
         id="stop3386"
         style="stop-color:white;stop-opacity:0"
         offset="1" />
    </linearGradient>
    <linearGradient
       id="linearGradient4454-600">
      <stop
         id="stop3408"
         style="stop-color:#a1a1a1;stop-opacity:0.20784314"
         offset="0" />
      <stop
         id="stop3410"
         style="stop-color:#a1a1a1;stop-opacity:0.67843139"
         offset="1" />
    </linearGradient>
    <linearGradient
       id="linearGradient4467-402">
      <stop
         id="stop3390"
         style="stop-color:white;stop-opacity:1"
         offset="0" />
      <stop
         id="stop3392"
         style="stop-color:white;stop-opacity:0.24761905"
         offset="1" />
    </linearGradient>
    <linearGradient
       id="linearGradient2300-465">
      <stop
         id="stop3396"
         style="stop-color:#343434;stop-opacity:0.97647059"
         offset="0" />
      <stop
         id="stop3398"
         style="stop-color:#929292;stop-opacity:1"
         offset="1" />
    </linearGradient>
    <linearGradient
       id="linearGradient11104-770">
      <stop
         id="stop3402"
         style="stop-color:#333;stop-opacity:1"
         offset="0" />
      <stop
         id="stop3404"
         style="stop-color:#333;stop-opacity:0.6122449"
         offset="1" />
    </linearGradient>
    <linearGradient
       id="linearGradient6209-717">
      <stop
         id="stop3366"
         style="stop-color:#979797;stop-opacity:1"
         offset="0" />
      <stop
         id="stop3368"
         style="stop-color:black;stop-opacity:0.34117648"
         offset="1" />
    </linearGradient>
    <linearGradient
       id="linearGradient3600">
      <stop
         id="stop3602"
         style="stop-color:#f4f4f4;stop-opacity:1"
         offset="0" />
      <stop
         id="stop3604"
         style="stop-color:#dbdbdb;stop-opacity:1"
         offset="1" />
    </linearGradient>
    <linearGradient
       id="linearGradient3931">
      <stop
         id="stop3933"
         style="stop-color:#8d8f8a;stop-opacity:1"
         offset="0" />
      <stop
         id="stop3935"
         style="stop-color:#cbcbcb;stop-opacity:1"
         offset="1" />
    </linearGradient>
    <linearGradient
       id="linearGradient5048">
      <stop
         id="stop5050"
         style="stop-color:black;stop-opacity:0"
         offset="0" />
      <stop
         id="stop5056"
         style="stop-color:black;stop-opacity:1"
         offset="0.5" />
      <stop
         id="stop5052"
         style="stop-color:black;stop-opacity:0"
         offset="1" />
    </linearGradient>
    <linearGradient
       id="linearGradient5060">
      <stop
         id="stop5062"
         style="stop-color:black;stop-opacity:1"
         offset="0" />
      <stop
         id="stop5064"
         style="stop-color:black;stop-opacity:0"
         offset="1" />
    </linearGradient>
    <linearGradient
       x1="302.85715"
       y1="366.64789"
       x2="302.85715"
       y2="609.50507"
       id="linearGradient5239"
       xlink:href="#linearGradient5048"
       gradientUnits="userSpaceOnUse"
       gradientTransform="matrix(0.0704142,0,0,0.01537476,-1.4497047,38.629007)" />
    <radialGradient
       cx="605.71429"
       cy="486.64789"
       r="117.14286"
       fx="605.71429"
       fy="486.64789"
       id="radialGradient5241"
       xlink:href="#linearGradient5060"
       gradientUnits="userSpaceOnUse"
       gradientTransform="matrix(-0.02409717,0,0,0.01537476,21.522412,38.629039)" />
    <radialGradient
       cx="605.71429"
       cy="486.64789"
       r="117.14286"
       fx="605.71429"
       fy="486.64789"
       id="radialGradient5243"
       xlink:href="#linearGradient5060"
       gradientUnits="userSpaceOnUse"
       gradientTransform="matrix(0.02409717,0,0,0.01537476,26.477584,38.629039)" />
    <linearGradient
       x1="-172.65306"
       y1="99.667191"
       x2="-164.71831"
       y2="91.972626"
       id="linearGradient5257"
       xlink:href="#linearGradient11114-516"
       gradientUnits="userSpaceOnUse"
       gradientTransform="matrix(0.3936567,0,0,0.38976,148.37527,-5.4329178)" />
    <linearGradient
       x1="32.892574"
       y1="27.988184"
       x2="31.364458"
       y2="29.484051"
       id="linearGradient5259"
       xlink:href="#linearGradient3277-442"
       gradientUnits="userSpaceOnUse"
       gradientTransform="matrix(1.0113456,0,0,1.0013346,46.849579,0.6207219)" />
    <linearGradient
       x1="277.573"
       y1="146.1507"
       x2="201.87128"
       y2="67.350082"
       id="linearGradient5261"
       xlink:href="#linearGradient12093-170"
       gradientUnits="userSpaceOnUse"
       gradientTransform="matrix(0.3936567,0,0,0.38976,-3.211595,-1.6662606)" />
    <radialGradient
       cx="18.240929"
       cy="21.817987"
       r="8.3085051"
       fx="18.240929"
       fy="21.817987"
       id="radialGradient5263"
       xlink:href="#linearGradient4454-600"
       gradientUnits="userSpaceOnUse" />
    <radialGradient
       cx="15.414371"
       cy="13.078408"
       r="6.65625"
       fx="15.414371"
       fy="13.078408"
       id="radialGradient5265"
       xlink:href="#linearGradient4467-402"
       gradientUnits="userSpaceOnUse"
       gradientTransform="matrix(3.0710057,0,0,2.3628614,13.986567,-22.539066)" />
    <linearGradient
       x1="173.09576"
       y1="75.31868"
       x2="173.09576"
       y2="11.949074"
       id="linearGradient5267"
       xlink:href="#linearGradient2300-465"
       gradientUnits="userSpaceOnUse"
       gradientTransform="matrix(0.4037708,0,0,0.399774,-4.836512,-1.5263508)" />
    <linearGradient
       x1="41.541653"
       y1="68.291702"
       x2="41.485142"
       y2="4.5362983"
       id="linearGradient5269"
       xlink:href="#linearGradient11104-770"
       gradientUnits="userSpaceOnUse"
       gradientTransform="matrix(0.4037708,0,0,0.399774,47.537071,1.4823095)" />
    <linearGradient
       x1="173.09576"
       y1="75.31868"
       x2="173.09576"
       y2="11.949074"
       id="linearGradient5271"
       xlink:href="#linearGradient6209-717"
       gradientUnits="userSpaceOnUse"
       gradientTransform="matrix(0.3845313,0,0,0.3807249,-1.399825,-0.9351299)" />
    <linearGradient
       x1="13.682637"
       y1="38"
       x2="13.682637"
       y2="40.500179"
       id="linearGradient5283"
       xlink:href="#linearGradient12093-170"
       gradientUnits="userSpaceOnUse"
       gradientTransform="matrix(1.4358487,0,0,1.4285715,-3.8961951,-2.7142834)" />
    <linearGradient
       x1="16.550699"
       y1="37"
       x2="16.550699"
       y2="41.436737"
       id="linearGradient5286"
       xlink:href="#linearGradient3600"
       gradientUnits="userSpaceOnUse"
       gradientTransform="matrix(1.4285715,0,0,1.4285715,-3.7142852,-2.7142834)" />
    <linearGradient
       x1="19.291185"
       y1="45"
       x2="18.986097"
       y2="38"
       id="linearGradient5288"
       xlink:href="#linearGradient3931"
       gradientUnits="userSpaceOnUse"
       gradientTransform="matrix(1.4285715,0,0,1.4285715,-2.2857142,-4.1428535)" />
    <linearGradient
       x1="20.625"
       y1="5"
       x2="21"
       y2="34.33094"
       id="linearGradient5291"
       xlink:href="#linearGradient12093-170"
       gradientUnits="userSpaceOnUse"
       gradientTransform="matrix(1.4285715,0,0,1.4285715,-3.7142852,-2.7142834)" />
    <linearGradient
       x1="17.5"
       y1="3.9999998"
       x2="17.411612"
       y2="44"
       id="linearGradient5295"
       xlink:href="#linearGradient3600"
       gradientUnits="userSpaceOnUse"
       gradientTransform="matrix(1.4285715,0,0,1.4285715,-3.7142852,-2.7142834)" />
    <linearGradient
       x1="23.05895"
       y1="45"
       x2="24"
       y2="2.2841947"
       id="linearGradient5297"
       xlink:href="#linearGradient3931"
       gradientUnits="userSpaceOnUse"
       gradientTransform="matrix(1.4285715,0,0,1.4285715,-2.2857142,-4.1428535)" />
    <radialGradient
       cx="62.625"
       cy="4.625"
       r="10.625"
       fx="62.625"
       fy="4.625"
       id="radialGradient2759"
       xlink:href="#linearGradient8838"
       gradientUnits="userSpaceOnUse"
       gradientTransform="matrix(1,0,0,0.341176,0,3.047059)" />
    <linearGradient
       id="linearGradient8838">
      <stop
         id="stop8840"
         style="stop-color:#7f7f7f;stop-opacity:1"
         offset="0" />
      <stop
         id="stop8842"
         style="stop-color:gray;stop-opacity:0"
         offset="1" />
    </linearGradient>
    <linearGradient
       x1="-172.65306"
       y1="99.667191"
       x2="-164.71831"
       y2="91.972626"
       id="linearGradient2780"
       xlink:href="#linearGradient11114-516-1"
       gradientUnits="userSpaceOnUse"
       gradientTransform="matrix(0.3936567,0,0,0.38976,101.37812,-4.2393119)" />
    <linearGradient
       id="linearGradient11114-516-1">
      <stop
         id="stop3372-4"
         style="stop-color:#242424;stop-opacity:0.99215686"
         offset="0" />
      <stop
         id="stop3374-7"
         style="stop-color:#656565;stop-opacity:1"
         offset="1" />
    </linearGradient>
    <linearGradient
       x1="32.892574"
       y1="27.988184"
       x2="31.364458"
       y2="29.484051"
       id="linearGradient2782"
       xlink:href="#linearGradient3277-442-6"
       gradientUnits="userSpaceOnUse"
       gradientTransform="matrix(1.0113456,0,0,1.0013346,-0.1475723,1.8143278)" />
    <linearGradient
       id="linearGradient3277-442-6">
      <stop
         id="stop3378-4"
         style="stop-color:#575757;stop-opacity:1"
         offset="0" />
      <stop
         id="stop3380-7"
         style="stop-color:#333;stop-opacity:1"
         offset="1" />
    </linearGradient>
    <linearGradient
       x1="277.573"
       y1="146.1507"
       x2="201.87128"
       y2="67.350082"
       id="linearGradient2778"
       xlink:href="#linearGradient12093-170-8"
       gradientUnits="userSpaceOnUse"
       gradientTransform="matrix(0.3936567,0,0,0.38976,-50.208746,-0.4726547)" />
    <linearGradient
       id="linearGradient12093-170-8">
      <stop
         id="stop3384-6"
         style="stop-color:white;stop-opacity:1"
         offset="0" />
      <stop
         id="stop3386-0"
         style="stop-color:white;stop-opacity:0"
         offset="1" />
    </linearGradient>
    <radialGradient
       cx="18.240929"
       cy="21.817987"
       r="8.3085051"
       fx="18.240929"
       fy="21.817987"
       id="radialGradient2776"
       xlink:href="#linearGradient4454-600-7"
       gradientUnits="userSpaceOnUse" />
    <linearGradient
       id="linearGradient4454-600-7">
      <stop
         id="stop3408-3"
         style="stop-color:#a1a1a1;stop-opacity:0.20784314"
         offset="0" />
      <stop
         id="stop3410-4"
         style="stop-color:#a1a1a1;stop-opacity:0.67843139"
         offset="1" />
    </linearGradient>
    <radialGradient
       cx="15.414371"
       cy="13.078408"
       r="6.65625"
       fx="15.414371"
       fy="13.078408"
       id="radialGradient2774"
       xlink:href="#linearGradient4467-402-8"
       gradientUnits="userSpaceOnUse"
       gradientTransform="matrix(3.0710057,0,0,2.3628614,-33.010584,-21.34546)" />
    <linearGradient
       id="linearGradient4467-402-8">
      <stop
         id="stop3390-9"
         style="stop-color:white;stop-opacity:1"
         offset="0" />
      <stop
         id="stop3392-5"
         style="stop-color:white;stop-opacity:0.24761905"
         offset="1" />
    </linearGradient>
    <linearGradient
       x1="173.09576"
       y1="75.31868"
       x2="173.09576"
       y2="11.949074"
       id="linearGradient2770"
       xlink:href="#linearGradient2300-465-9"
       gradientUnits="userSpaceOnUse"
       gradientTransform="matrix(0.4037708,0,0,0.399774,-51.833663,-0.3327449)" />
    <linearGradient
       id="linearGradient2300-465-9">
      <stop
         id="stop3396-0"
         style="stop-color:#343434;stop-opacity:0.97647059"
         offset="0" />
      <stop
         id="stop3398-3"
         style="stop-color:#929292;stop-opacity:1"
         offset="1" />
    </linearGradient>
    <linearGradient
       x1="41.541653"
       y1="68.291702"
       x2="41.485142"
       y2="4.5362983"
       id="linearGradient2772"
       xlink:href="#linearGradient11104-770-8"
       gradientUnits="userSpaceOnUse"
       gradientTransform="matrix(0.4037708,0,0,0.399774,0.5399201,2.6759154)" />
    <linearGradient
       id="linearGradient11104-770-8">
      <stop
         id="stop3402-6"
         style="stop-color:#333;stop-opacity:1"
         offset="0" />
      <stop
         id="stop3404-3"
         style="stop-color:#333;stop-opacity:0.6122449"
         offset="1" />
    </linearGradient>
    <linearGradient
       x1="173.09576"
       y1="75.31868"
       x2="173.09576"
       y2="11.949074"
       id="linearGradient2768"
       xlink:href="#linearGradient6209-717-4"
       gradientUnits="userSpaceOnUse"
       gradientTransform="matrix(0.3845313,0,0,0.3807249,-48.396976,0.258476)" />
    <linearGradient
       id="linearGradient6209-717-4">
      <stop
         id="stop3366-7"
         style="stop-color:#979797;stop-opacity:1"
         offset="0" />
      <stop
         id="stop3368-0"
         style="stop-color:black;stop-opacity:0.34117648"
         offset="1" />
    </linearGradient>
    <linearGradient
       y2="11.949074"
       x2="173.09576"
       y1="75.31868"
       x1="173.09576"
       gradientTransform="matrix(0.3845313,0,0,0.3807249,-48.396976,0.258476)"
       gradientUnits="userSpaceOnUse"
       id="linearGradient4017"
       xlink:href="#linearGradient6209-717-4"
       inkscape:collect="always" />
  </defs>
  <g
     transform="matrix(1.5,0,0,2.2955879,-4,-47.188218)"
     id="g2877"
     style="display:inline">
    <rect
       width="34"
       height="3.7338707"
       x="7"
       y="44.266129"
       id="rect2879"
       style="opacity:0.40206185;fill:url(#linearGradient5239);fill-opacity:1;fill-rule:nonzero;stroke:none;stroke-width:1;marker:none;visibility:visible;display:inline;overflow:visible" />
    <path
       d="m 7,44.266291 c 0,0 0,3.733665 0,3.733665 -1.2409448,0.007 -3,-0.836525 -3,-1.867073 0,-1.030547 1.3848007,-1.866591 3,-1.866592 z"
       id="path2881"
       style="opacity:0.40206185;fill:url(#radialGradient5241);fill-opacity:1;fill-rule:nonzero;stroke:none;stroke-width:1;marker:none;visibility:visible;display:inline;overflow:visible"
       inkscape:connector-curvature="0" />
    <path
       d="m 41,44.266291 c 0,0 0,3.733665 0,3.733665 1.240944,0.007 3,-0.836525 3,-1.867073 0,-1.030547 -1.384801,-1.866591 -3,-1.866592 z"
       id="path2883"
       style="opacity:0.40206185;fill:url(#radialGradient5243);fill-opacity:1;fill-rule:nonzero;stroke:none;stroke-width:1;marker:none;visibility:visible;display:inline;overflow:visible"
       inkscape:connector-curvature="0" />
  </g>
  <path
     d="m 9.1428581,3.7142873 c -1.1933759,0 -2.1428573,5.104367 -2.1428573,11.4285727 l 0,44.285715 50.0000012,0 0,-44.285715 c 0,-6.3242036 -0.94948,-11.4285727 -2.142857,-11.4285727 l -2.410714,0 0.624999,1.4285715 -2.857142,0 -0.625,-1.4285715 -35.223215,0 -0.625,1.4285715 -2.857143,0 0.625,-1.4285715 -2.3660719,0 z m 1.0714289,4.2857144 2.857143,0 -0.267857,2.8571433 -2.8571429,0 0.2678569,-2.8571433 z m 40.625001,0 2.857143,0 0.3125,2.8571433 -2.857143,0 -0.3125,-2.8571433 z m -40.9821439,5.7142863 2.8571439,0 0,2.857144 -2.8571439,0 0,-2.857144 z m 41.4285729,0 2.857142,0 0,2.857144 -2.857142,0 0,-2.857144 z m -41.4285729,5.714286 2.8571439,0 0,2.857143 -2.8571439,0 0,-2.857143 z m 41.4285729,0 2.857142,0 0,2.857143 -2.857142,0 0,-2.857143 z m -41.4285729,5.714286 2.8571439,0 0,2.857143 -2.8571439,0 0,-2.857143 z m 41.4285729,0 2.857142,0 0,2.857143 -2.857142,0 0,-2.857143 z m -41.4285729,5.714285 2.8571439,0 0,2.857144 -2.8571439,0 0,-2.857144 z m 41.4285729,0 2.857142,0 0,2.857144 -2.857142,0 0,-2.857144 z m -41.4285729,5.714287 2.8571439,0 0,2.857143 -2.8571439,0 0,-2.857143 z m 41.4285729,0 2.857142,0 0,2.857143 -2.857142,0 0,-2.857143 z m -41.4285729,5.714285 2.8571439,0 0,2.857143 -2.8571439,0 0,-2.857143 z m 41.4285729,0 2.857142,0 0,2.857143 -2.857142,0 0,-2.857143 z m -41.4285729,5.714286 2.8571439,0 0,2.857143 -2.8571439,0 0,-2.857143 z m 41.4285729,0 2.857142,0 0,2.857143 -2.857142,0 0,-2.857143 z"
     id="rect1869"
     style="fill:url(#linearGradient5295);fill-opacity:1;stroke:url(#linearGradient5297);stroke-width:1;stroke-linecap:round;stroke-linejoin:round;stroke-miterlimit:4;stroke-opacity:1;stroke-dashoffset:0;stroke-dasharray:none"
     inkscape:connector-curvature="0" />
  <path
     d="m 9.2321441,4.428573 c -0.05777,0.062614 -0.159196,0.2468058 -0.2678576,0.4910715 -0.1086614,0.2442657 -0.2068143,0.5544714 -0.3125001,0.9375 l 2.2321436,0 c -0.238817,0.00243 -0.445816,-0.1151714 -0.580357,-0.3125 C 10.16903,5.3473174 10.124745,5.0964116 10.214287,4.8750016 l 0.178571,-0.4464286 -1.1607139,0 z m 5.6250009,0 -0.446429,0.9821429 c -0.110171,0.2723542 -0.375865,0.44948 -0.669643,0.4464286 l 36.473215,0 c -0.293778,0.003 -0.559468,-0.1740744 -0.669643,-0.4464286 l -0.446429,-0.9821429 -34.241071,0 z m 38.705357,0 0.178572,0.4464286 c 0.08954,0.22141 0.04525,0.4723158 -0.08929,0.6696429 -0.134537,0.1973286 -0.341535,0.3149714 -0.580353,0.3125 l 2.276786,0 c -0.105686,-0.3830286 -0.20384,-0.6932343 -0.3125,-0.9375 C 54.92706,4.6753788 54.825627,4.4911845 54.76786,4.428573 l -1.205357,0 z M 8.0714294,8.7142888 C 7.957898,9.5733735 7.9146951,10.550307 7.8482151,11.571431 l 2.098215,0 c -0.197429,3.65e-4 -0.400405,-0.07945 -0.535715,-0.223214 -0.13531,-0.143769 -0.19089,-0.338671 -0.178571,-0.535714 l 0.178571,-2.0982142 -1.3392857,0 z m 5.6696436,0 -0.223215,2.1875002 c -0.02364,0.376938 -0.336607,0.670345 -0.714285,0.669642 l 38.348215,0 c -0.362085,0.0028 -0.669003,-0.265745 -0.714286,-0.625 l -0.223214,-2.2321422 -36.473215,0 z m 40.758929,0 0.223215,2.0535712 c 0.02573,0.204359 -0.04173,0.426409 -0.178572,0.580357 -0.136843,0.153947 -0.329746,0.224807 -0.535714,0.223214 l 2.142857,0 C 56.085306,10.550307 56.042102,9.5733735 55.928573,8.7142888 l -1.428571,0 z M 7.7142864,14.428573 c -0.00302,0.241081 0,0.469176 0,0.714287 l 0,2.142857 2.1428577,0 c -0.394473,-4e-5 -0.714246,-0.319813 -0.714286,-0.714285 l 0,-2.142859 -1.4285717,0 z m 5.7142866,0 0,2.142859 c -4e-5,0.394472 -0.319813,0.714245 -0.714285,0.714285 l 38.571429,0 c -0.394473,-4e-5 -0.714247,-0.319813 -0.714286,-0.714285 l 0,-2.142859 -37.142858,0 z m 41.428572,0 0,2.142859 c -4e-5,0.394472 -0.319812,0.714245 -0.714286,0.714285 l 2.142858,0 0,-2.142857 c 0,-0.245111 0.003,-0.473206 0,-0.714287 l -1.428572,0 z m -47.1428586,5.714287 0,2.857143 2.1428577,0 c -0.394473,-4.1e-5 -0.714246,-0.319813 -0.714286,-0.714286 l 0,-2.142857 -1.4285717,0 z m 5.7142866,0 0,2.142857 c -4e-5,0.394473 -0.319813,0.714245 -0.714285,0.714286 l 38.571429,0 c -0.394473,-4.1e-5 -0.714247,-0.319813 -0.714286,-0.714286 l 0,-2.142857 -37.142858,0 z m 41.428572,0 0,2.142857 c -4e-5,0.394473 -0.319812,0.714245 -0.714286,0.714286 l 2.142858,0 0,-2.857143 -1.428572,0 z m -47.1428586,5.714285 0,2.857143 2.1428577,0 c -0.394473,-3.9e-5 -0.714246,-0.319812 -0.714286,-0.714285 l 0,-2.142858 -1.4285717,0 z m 5.7142866,0 0,2.142858 c -4e-5,0.394473 -0.319813,0.714246 -0.714285,0.714285 l 38.571429,0 c -0.394473,-3.9e-5 -0.714247,-0.319812 -0.714286,-0.714285 l 0,-2.142858 -37.142858,0 z m 41.428572,0 0,2.142858 c -4e-5,0.394473 -0.319812,0.714246 -0.714286,0.714285 l 2.142858,0 0,-2.857143 -1.428572,0 z m -47.1428586,5.714286 0,2.857144 2.1428577,0 c -0.394473,-4.1e-5 -0.714246,-0.319814 -0.714286,-0.714286 l 0,-2.142858 -1.4285717,0 z m 5.7142866,0 0,2.142858 c -4e-5,0.394472 -0.319813,0.714245 -0.714285,0.714286 l 38.571429,0 c -0.394473,-4.1e-5 -0.714247,-0.319814 -0.714286,-0.714286 l 0,-2.142858 -37.142858,0 z m 41.428572,0 0,2.142858 c -4e-5,0.394472 -0.319812,0.714245 -0.714286,0.714286 l 2.142858,0 0,-2.857144 -1.428572,0 z m -47.1428586,5.714286 0,2.857143 2.1428577,0 c -0.394473,-4e-5 -0.714246,-0.319812 -0.714286,-0.714285 l 0,-2.142858 -1.4285717,0 z m 5.7142866,0 0,2.142858 c -4e-5,0.394473 -0.319813,0.714245 -0.714285,0.714285 l 38.571429,0 c -0.394473,-4e-5 -0.714247,-0.319812 -0.714286,-0.714285 l 0,-2.142858 -37.142858,0 z m 41.428572,0 0,2.142858 c -4e-5,0.394473 -0.319812,0.714245 -0.714286,0.714285 l 2.142858,0 0,-2.857143 -1.428572,0 z m -47.1428586,5.714286 0,2.857143 2.1428577,0 c -0.394473,-4e-5 -0.714246,-0.319813 -0.714286,-0.714286 l 0,-2.142857 -1.4285717,0 z m 5.7142866,0 0,2.142857 c -4e-5,0.394473 -0.319813,0.714246 -0.714285,0.714286 l 38.571429,0 c -0.394473,-4e-5 -0.714247,-0.319813 -0.714286,-0.714286 l 0,-2.142857 -37.142858,0 z m 41.428572,0 0,2.142857 c -4e-5,0.394473 -0.319812,0.714246 -0.714286,0.714286 l 2.142858,0 0,-2.857143 -1.428572,0 z m -47.1428586,5.714285 0,2.857143 2.1428577,0 c -0.394473,-3.9e-5 -0.714246,-0.319812 -0.714286,-0.714285 l 0,-2.142858 -1.4285717,0 z m 5.7142866,0 0,2.142858 c -4e-5,0.394473 -0.319813,0.714246 -0.714285,0.714285 l 38.571429,0 c -0.394473,-3.9e-5 -0.714247,-0.319812 -0.714286,-0.714285 l 0,-2.142858 -37.142858,0 z m 41.428572,0 0,2.142858 c -4e-5,0.394473 -0.319812,0.714246 -0.714286,0.714285 l 2.142858,0 0,-2.857143 -1.428572,0 z"
     id="rect2981"
     style="opacity:0.02999998;fill:#000000;fill-opacity:1;stroke:none"
     inkscape:connector-curvature="0" />
  <path
     d="M 15.303573,5.1428588 C 15.06157,6.1941273 14.054711,6.7860359 13.012641,6.5714302 11.826094,6.4547016 10.000271,7.0506516 9.5000011,5.5446445 7.9578781,10.828044 8.5516105,16.406631 8.4285722,21.844428 c 0,12.051859 0,24.103717 0,36.155575 15.7142868,0 31.4285728,0 47.1428588,0 -0.02501,-15.036316 0.05097,-30.073811 -0.03974,-45.109362 -0.135628,-2.212595 -0.242131,-6.0264065 -1.15752,-7.2064565 -0.65645,1.4002557 -2.425833,0.7322299 -3.633717,0.8872457 -0.991971,0.2008958 -1.85183,-0.4874414 -2.088663,-1.4285714 -11.116071,0 -22.232144,0 -33.348215,0 z"
     id="path3026"
     style="opacity:0.50000000000000000;fill:none;stroke:url(#linearGradient5291);stroke-width:1;stroke-linecap:round;stroke-linejoin:round;stroke-miterlimit:4;stroke-opacity:1;stroke-dasharray:none;stroke-dashoffset:0"
     inkscape:connector-curvature="0" />
  <path
     d="m 4.1428578,50.857146 c 0,4.748589 0.7142858,8.57143 2.857143,8.571429 l 50.0000012,0 c 2.142857,0 2.857143,-3.822838 2.857143,-8.571429 l -55.7142872,0 z m 2.857143,2.857143 2.8571433,0 c -0.03924,1.4726 0.1215,2.285976 0.3571429,2.857143 l -2.8571434,0 C 7.0981167,56.038986 7.0509073,55.161275 7.0000008,53.714289 z m 47.1428582,0 2.857143,0 c -0.0509,1.446986 -0.09811,2.324695 -0.357143,2.857143 l -2.857143,0 c 0.235647,-0.571167 0.396392,-1.384545 0.357143,-2.857143 z"
     id="rect1871"
     style="fill:url(#linearGradient5286);fill-opacity:1;stroke:url(#linearGradient5288);stroke-width:1;stroke-linecap:round;stroke-linejoin:round;stroke-miterlimit:4;stroke-opacity:1;stroke-dashoffset:0;stroke-dasharray:none"
     inkscape:connector-curvature="0" />
  <path
     d="m 5.5714314,52.285718 c 0.1803652,1.908867 -0.05505,4.099641 1.1873642,5.699157 16.7875234,0.0353 33.5793834,0.005 50.3685754,0.01513 1.261782,-1.14886 1.07492,-3.210183 1.257331,-4.810095 0.522728,-1.340881 -0.932561,-0.799821 -1.708213,-0.90419 -17.03502,0 -34.070039,0 -51.1050576,0 z"
     id="path3030"
     style="opacity:0.50000000000000000;fill:none;stroke:url(#linearGradient5283);stroke-width:1;stroke-linecap:round;stroke-linejoin:miter;stroke-miterlimit:4;stroke-opacity:1;stroke-dasharray:none;stroke-dashoffset:0"
     inkscape:connector-curvature="0" />
  <g
     transform="translate(15.783951,4.8492727)"
     id="layer1">
    <path
       inkscape:connector-curvature="0"
       d="m 73.25,4.625 a 10.625,3.625 0 1 1 -21.25,0 10.625,3.625 0 1 1 21.25,0 z"
       transform="matrix(2.149872,0,0,1.6619216,-110.63573,34.289147)"
       id="path8836"
       style="opacity:0.3;fill:url(#radialGradient2759);fill-opacity:1;fill-rule:evenodd;stroke:none;stroke-width:0.99999988;marker:none;visibility:visible;display:inline;overflow:visible" />
    <path
       inkscape:connector-curvature="0"
       d="m 28.183928,24.771802 17.601461,16.2194 -2.439808,3.278384 -17.537714,-17.545053 2.376061,-1.952731 z"
       id="path11112"
       style="fill:url(#linearGradient2780);fill-opacity:1;fill-rule:evenodd;stroke:url(#linearGradient2782);stroke-width:1.25790954;stroke-linecap:round;stroke-linejoin:round;stroke-miterlimit:4;stroke-opacity:1;stroke-dasharray:none;display:inline" />
    <path
       inkscape:connector-curvature="0"
       d="M 43.375247,43.204937 29.259227,25.777711 46.337872,40.616736 43.375247,43.204937 z"
       id="path11122"
       style="fill:url(#linearGradient2778);fill-opacity:1;fill-rule:evenodd;stroke:none;display:inline" />
    <path
       inkscape:connector-curvature="0"
       d="m 247.90924,110.29199 a 4.86685,2.6562012 0 1 1 -9.7337,0 4.86685,2.6562012 0 1 1 9.7337,0 z"
       transform="matrix(0.3701926,-0.4150383,0.4745098,0.3092893,-97.502604,109.5756)"
       id="path13082"
       style="fill:#3e3e3e;fill-opacity:1;stroke:none;display:inline" />
    <path
       inkscape:connector-curvature="0"
       d="m 25.897786,18.478292 a 8.3085051,8.3085051 0 1 1 -16.61701,0 8.3085051,8.3085051 0 1 1 16.61701,0 z"
       transform="matrix(1.4889549,0,0,1.4383688,-7.506469,-10.003202)"
       id="path4452"
       style="fill:url(#radialGradient2776);fill-opacity:1;fill-rule:evenodd;stroke:none;stroke-width:0.88163906;marker:none;visibility:visible;display:inline" />
    <path
       inkscape:connector-curvature="0"
       d="m 18.173574,6.2875092 c -6.167668,0 -11.1620724,4.4243448 -11.1620724,9.8880428 0,1.577938 0.1382919,3.207765 0.8807217,4.531967 1.4832709,0.484315 3.4184287,0.635856 5.0907577,0.635856 7.308643,0 13.594949,-5.367693 14.045982,-11.7419735 C 24.978875,7.4552716 21.59337,6.2875092 18.173574,6.2875092 z"
       id="path4462"
       style="opacity:0.83422457;fill:url(#radialGradient2774);fill-opacity:1;fill-rule:evenodd;stroke:none;stroke-width:1;marker:none;visibility:visible;display:inline;overflow:visible" />
    <path
       inkscape:connector-curvature="0"
       d="m 18.411216,4.6414839 c -7.597567,0 -13.7660654,5.6316951 -13.7660613,12.5678951 0,6.9362 6.1684943,12.567893 13.7660613,12.567894 7.59756,0 13.766059,-5.631694 13.766059,-12.567894 0,-6.9362 -6.168495,-12.5678951 -13.766059,-12.5678951 z m 0.16403,0.824534 c 6.799869,0 12.327628,5.0356991 12.327628,11.2436431 0,6.207944 -5.527759,11.243643 -12.327628,11.243643 -6.799871,1e-6 -12.3150081,-5.035698 -12.3150081,-11.243643 0,-6.207944 5.5151371,-11.2436431 12.3150081,-11.2436431 z"
       id="path2298"
       style="fill:url(#linearGradient2770);fill-opacity:1;stroke:url(#linearGradient2772);stroke-width:1.29022872;stroke-linecap:round;stroke-linejoin:round;stroke-miterlimit:4;stroke-opacity:1;stroke-dasharray:none;display:inline" />
    <path
       inkscape:connector-curvature="0"
       d="m 18.49954,5.0037791 c -7.235544,0 -13.0973151,5.3625389 -13.0973151,11.9682339 0,6.605694 5.8617671,11.968234 13.0973151,11.968233 7.235544,0 13.109932,-5.36254 13.109932,-11.968233 0,-6.605695 -5.874392,-11.9682339 -13.109932,-11.9682339 z m 0.07571,0.4622387 c 6.799867,0 11.788366,5.0356992 11.788366,11.2436432 0,6.207944 -4.988499,10.70972 -11.788366,10.70972 -6.799872,10e-7 -11.8656244,-4.501775 -11.8656244,-10.70972 0,-6.207944 5.0657524,-11.2436432 11.8656244,-11.2436432 z"
       id="path4267"
       style="fill:url(#linearGradient4017);fill-opacity:1;stroke:none;display:inline" />
  </g>
</svg>
