<?xml version="1.0" encoding="UTF-8" standalone="no"?>
<!-- Created with Inkscape (http://www.inkscape.org/) -->

<svg
   xmlns:dc="http://purl.org/dc/elements/1.1/"
   xmlns:cc="http://creativecommons.org/ns#"
   xmlns:rdf="http://www.w3.org/1999/02/22-rdf-syntax-ns#"
   xmlns:svg="http://www.w3.org/2000/svg"
   xmlns="http://www.w3.org/2000/svg"
   xmlns:xlink="http://www.w3.org/1999/xlink"
   xmlns:sodipodi="http://sodipodi.sourceforge.net/DTD/sodipodi-0.dtd"
   xmlns:inkscape="http://www.inkscape.org/namespaces/inkscape"
   width="64"
   height="64"
   id="svg2"
   sodipodi:version="0.32"
   inkscape:version="0.48.4 r9939"
   sodipodi:docname="64.svg"
   inkscape:output_extension="org.inkscape.output.svg.inkscape"
   version="1.0">
  <defs
     id="defs4">
    <filter
       inkscape:collect="always"
       id="filter8076"
       x="-0.091751985"
       width="1.183504"
       y="-0.7741574"
       height="2.5483148"
       color-interpolation-filters="sRGB">
      <feGaussianBlur
         inkscape:collect="always"
         stdDeviation="1.8247065"
         id="feGaussianBlur8078" />
    </filter>
    <linearGradient
       inkscape:collect="always"
       id="linearGradient7801">
      <stop
         style="stop-color:#204a87;stop-opacity:1"
         offset="0"
         id="stop7803" />
      <stop
         style="stop-color:#4079c3;stop-opacity:1"
         offset="1"
         id="stop7805" />
    </linearGradient>
    <linearGradient
       inkscape:collect="always"
       xlink:href="#linearGradient7801"
       id="linearGradient7807"
       x1="8.0433397"
       y1="40.486992"
       x2="0.99999994"
       y2="16.180195"
       gradientUnits="userSpaceOnUse"
       gradientTransform="matrix(1.1750001,0,0,1.2017046,3.7999978,-16.131661)" />
    <linearGradient
       inkscape:collect="always"
       xlink:href="#linearGradient7139"
       id="linearGradient7122"
       gradientUnits="userSpaceOnUse"
       gradientTransform="matrix(1.2100969,0,0,0.99176546,-0.07339728,-3.712935)"
       x1="40.864613"
       y1="-2.3898818"
       x2="42.106377"
       y2="59.884781" />
    <filter
       inkscape:collect="always"
       id="filter59048"
       color-interpolation-filters="sRGB">
      <feGaussianBlur
         inkscape:collect="always"
         stdDeviation="0.20414057"
         id="feGaussianBlur59050" />
    </filter>
    <filter
       inkscape:collect="always"
       id="filter59040"
       color-interpolation-filters="sRGB">
      <feGaussianBlur
         inkscape:collect="always"
         stdDeviation="0.22201328"
         id="feGaussianBlur59042" />
    </filter>
    <linearGradient
       inkscape:collect="always"
       xlink:href="#linearGradient7139"
       id="linearGradient8637"
       gradientUnits="userSpaceOnUse"
       gradientTransform="matrix(1.0137271,0,0,1.0224186,3.7751143,1.2663668)"
       x1="11.629127"
       y1="17.074039"
       x2="23.540737"
       y2="32.051517" />
    <linearGradient
       inkscape:collect="always"
       id="linearGradient7930">
      <stop
         style="stop-color:#9fa39a;stop-opacity:1"
         offset="0"
         id="stop7932" />
      <stop
         style="stop-color:#787a75;stop-opacity:1"
         offset="1"
         id="stop7934" />
    </linearGradient>
    <linearGradient
       inkscape:collect="always"
       xlink:href="#linearGradient7930"
       id="linearGradient8635"
       gradientUnits="userSpaceOnUse"
       gradientTransform="matrix(0.9803922,0,0,1.0084034,-19.034315,4.0399155)"
       x1="26.571877"
       y1="15.218148"
       x2="37.942501"
       y2="35.510418" />
    <linearGradient
       inkscape:collect="always"
       id="linearGradient6418">
      <stop
         style="stop-color:#ffffff;stop-opacity:1"
         offset="0"
         id="stop6420" />
      <stop
         style="stop-color:#e6e6e3;stop-opacity:1"
         offset="1"
         id="stop6422" />
    </linearGradient>
    <linearGradient
       inkscape:collect="always"
       xlink:href="#linearGradient6418"
       id="linearGradient8633"
       gradientUnits="userSpaceOnUse"
       gradientTransform="matrix(0.9803922,0,0,1.0084034,-19.034315,4.0399155)"
       x1="34"
       y1="34.332294"
       x2="25.940298"
       y2="19.874184" />
    <linearGradient
       id="linearGradient15-paper-sheet-orig"
       inkscape:collect="always">
      <stop
         id="stop22-paper-sheet-orig"
         offset="0"
         style="stop-color: rgb(0, 0, 0); stop-opacity: 0.412955;" />
      <stop
         id="stop23-paper-sheet-orig"
         offset="1"
         style="stop-color: rgb(0, 0, 0); stop-opacity: 0;" />
    </linearGradient>
    <linearGradient
       inkscape:collect="always"
       xlink:href="#linearGradient15-paper-sheet-orig"
       id="linearGradient8658"
       gradientUnits="userSpaceOnUse"
       gradientTransform="matrix(0.594683,0,0,0.592781,350.673,127.274)"
       x1="-25.510078"
       y1="11.275285"
       x2="-30.558546"
       y2="12.189651" />
    <linearGradient
       id="linearGradient13-paper-sheet-orig">
      <stop
         id="stop19-paper-sheet-orig"
         offset="0"
         style="stop-color: rgb(255, 255, 255); stop-opacity: 1;" />
      <stop
         style="stop-color: rgb(255, 255, 255); stop-opacity: 1;"
         offset="0.47533694"
         id="stop20-paper-sheet-orig" />
      <stop
         id="stop21-paper-sheet-orig"
         offset="1"
         style="stop-color: rgb(255, 255, 255); stop-opacity: 0;" />
    </linearGradient>
    <radialGradient
       inkscape:collect="always"
       xlink:href="#linearGradient13-paper-sheet-orig"
       id="radialGradient8655"
       gradientUnits="userSpaceOnUse"
       gradientTransform="matrix(0.262642,-0.18058,0.484247,0.705503,336.012,120.974)"
       cx="-26.305403"
       cy="10.108011"
       fx="-26.305403"
       fy="10.108011"
       r="7.0421038" />
    <linearGradient
       inkscape:collect="always"
       xlink:href="#linearGradient3707-319-631-407-324-3-8"
       id="linearGradient8653"
       gradientUnits="userSpaceOnUse"
       gradientTransform="matrix(1.1666666,0,0,1,96.458333,31.046859)"
       x1="28.901785"
       y1="12.25"
       x2="29.267857"
       y2="15.96875" />
    <linearGradient
       id="linearGradient6633"
       inkscape:collect="always">
      <stop
         id="stop6635"
         offset="0"
         style="stop-color:#fffbd6;stop-opacity:1" />
      <stop
         id="stop6637"
         offset="1"
         style="stop-color:#fef188;stop-opacity:0;" />
    </linearGradient>
    <radialGradient
       inkscape:collect="always"
       xlink:href="#linearGradient6633"
       id="radialGradient8651"
       gradientUnits="userSpaceOnUse"
       gradientTransform="matrix(0,-1.0000537,1,-5.0577615e-7,14.532227,41.22123)"
       cx="27.875977"
       cy="13.343749"
       fx="27.875977"
       fy="13.343749"
       r="2.90625" />
    <linearGradient
       id="linearGradient5911">
      <stop
         style="stop-color:#f6f6f5;stop-opacity:1;"
         offset="0"
         id="stop5913" />
      <stop
         id="stop5921"
         offset="0.38095239"
         style="stop-color:#ecece9;stop-opacity:1;" />
      <stop
         id="stop5919"
         offset="0.76190478"
         style="stop-color:#c5c5be;stop-opacity:1;" />
      <stop
         style="stop-color:#ffffff;stop-opacity:1;"
         offset="1"
         id="stop5915" />
    </linearGradient>
    <radialGradient
       inkscape:collect="always"
       xlink:href="#linearGradient5911"
       id="radialGradient8649"
       gradientUnits="userSpaceOnUse"
       gradientTransform="matrix(1.7004739,0,0,1.5841724,-16.907714,-7.7022218)"
       cx="24.137535"
       cy="14.213541"
       fx="24.137535"
       fy="14.213541"
       r="19.18985" />
    <linearGradient
       inkscape:collect="always"
       xlink:href="#linearGradient2867-449-88-871-390-598-476-591-434-148-57-177-3-8"
       id="linearGradient8647"
       gradientUnits="userSpaceOnUse"
       gradientTransform="translate(101.125,30.046859)"
       x1="27.53297"
       y1="7.1645832"
       x2="27.444582"
       y2="14.147263" />
    <linearGradient
       inkscape:collect="always"
       id="linearGradient7139">
      <stop
         style="stop-color:#ffffff;stop-opacity:1;"
         offset="0"
         id="stop7141" />
      <stop
         style="stop-color:#ffffff;stop-opacity:0;"
         offset="1"
         id="stop7143" />
    </linearGradient>
    <linearGradient
       inkscape:collect="always"
       xlink:href="#linearGradient7139"
       id="linearGradient8645"
       gradientUnits="userSpaceOnUse"
       gradientTransform="translate(116.125,29.046859)"
       x1="120.125"
       y1="12.046859"
       x2="147.125"
       y2="12.046859" />
    <linearGradient
       id="linearGradient7848">
      <stop
         style="stop-color:#808080;stop-opacity:1;"
         offset="0"
         id="stop7850" />
      <stop
         style="stop-color:#a5a5a5;stop-opacity:1;"
         offset="1"
         id="stop7852" />
    </linearGradient>
    <linearGradient
       inkscape:collect="always"
       xlink:href="#linearGradient7848"
       id="linearGradient8642"
       gradientUnits="userSpaceOnUse"
       gradientTransform="translate(92.125,30.015609)"
       x1="33.875"
       y1="5.703125"
       x2="45"
       y2="18.78125" />
    <linearGradient
       id="linearGradient58973"
       inkscape:collect="always">
      <stop
         id="stop58975"
         offset="0"
         style="stop-color:#fdfdfc;stop-opacity:1" />
      <stop
         style="stop-color:#f0f0ef;stop-opacity:1;"
         offset="0.57471311"
         id="stop58987" />
      <stop
         id="stop58977"
         offset="1"
         style="stop-color:#ffffff;stop-opacity:1" />
    </linearGradient>
    <linearGradient
       inkscape:collect="always"
       xlink:href="#linearGradient58973"
       id="linearGradient8640"
       gradientUnits="userSpaceOnUse"
       gradientTransform="translate(92.125,30.015609)"
       x1="37.5625"
       y1="20.644794"
       x2="28.10952"
       y2="4.4367924" />
    <inkscape:perspective
       sodipodi:type="inkscape:persp3d"
       inkscape:vp_x="0 : 526.18109 : 1"
       inkscape:vp_y="0 : 1000 : 0"
       inkscape:vp_z="744.09448 : 526.18109 : 1"
       inkscape:persp3d-origin="372.04724 : 350.78739 : 1"
       id="perspective10" />
    <linearGradient
       gradientTransform="translate(-75.999997,-14.625904)"
       inkscape:collect="always"
       xlink:href="#linearGradient4661"
       id="linearGradient4680"
       gradientUnits="userSpaceOnUse"
       x1="24.693371"
       y1="34.39452"
       x2="24.693371"
       y2="39.173557" />
    <linearGradient
       inkscape:collect="always"
       id="linearGradient4661">
      <stop
         style="stop-color:#000000;stop-opacity:1;"
         offset="0"
         id="stop4663" />
      <stop
         style="stop-color:#000000;stop-opacity:0;"
         offset="1"
         id="stop4665" />
    </linearGradient>
    <linearGradient
       gradientTransform="translate(-75.999997,-14.625904)"
       inkscape:collect="always"
       xlink:href="#linearGradient4661"
       id="linearGradient4674"
       gradientUnits="userSpaceOnUse"
       x1="24.693371"
       y1="12.651934"
       x2="24.693371"
       y2="31.394552" />
    <linearGradient
       inkscape:collect="always"
       xlink:href="#linearGradient3707-319-631-407-324"
       id="linearGradient4023"
       gradientUnits="userSpaceOnUse"
       x1="24.132597"
       y1="44.47514"
       x2="32"
       y2="26"
       gradientTransform="translate(-75.999997,-15.625904)" />
    <linearGradient
       id="linearGradient3707-319-631-407-324">
      <stop
         offset="0"
         style="stop-color:#185f9a;stop-opacity:1;"
         id="stop3760" />
      <stop
         offset="1"
         style="stop-color:#599ec9;stop-opacity:1;"
         id="stop3762" />
    </linearGradient>
    <linearGradient
       inkscape:collect="always"
       xlink:href="#linearGradient4011"
       id="linearGradient3906-0"
       gradientUnits="userSpaceOnUse"
       gradientTransform="translate(-119.85851,-5.983144)"
       x1="71.204407"
       y1="6.2375584"
       x2="71.204407"
       y2="44.340794" />
    <linearGradient
       id="linearGradient4011">
      <stop
         offset="0"
         style="stop-color:#ffffff;stop-opacity:1;"
         id="stop4013" />
      <stop
         id="stop4015"
         style="stop-color:#ffffff;stop-opacity:0.23529412;"
         offset="0.507761" />
      <stop
         offset="0.83456558"
         style="stop-color:#ffffff;stop-opacity:0.15686275;"
         id="stop4017" />
      <stop
         offset="1"
         style="stop-color:#ffffff;stop-opacity:0.39215687;"
         id="stop4019" />
    </linearGradient>
    <radialGradient
       inkscape:collect="always"
       xlink:href="#linearGradient2867-449-88-871-390-598-476-591-434-148-57-177-3-8"
       id="radialGradient3909-0"
       gradientUnits="userSpaceOnUse"
       gradientTransform="matrix(0,2.3767198,-2.5142859,-6.4690655e-8,-30.754755,-24.038277)"
       cx="3.9722471"
       cy="8.4497671"
       fx="3.9722471"
       fy="8.4497671"
       r="19.99999" />
    <linearGradient
       id="linearGradient2867-449-88-871-390-598-476-591-434-148-57-177-3-8">
      <stop
         offset="0"
         style="stop-color:#90dbec;stop-opacity:1;"
         id="stop3750-8-9" />
      <stop
         offset="0.26238"
         style="stop-color:#42baea;stop-opacity:1;"
         id="stop3752-3-2" />
      <stop
         offset="0.704952"
         style="stop-color:#3689e6;stop-opacity:1;"
         id="stop3754-7-2" />
      <stop
         offset="1"
         style="stop-color:#2b63a0;stop-opacity:1;"
         id="stop3756-9-3" />
    </linearGradient>
    <linearGradient
       inkscape:collect="always"
       xlink:href="#linearGradient3707-319-631-407-324-3-8"
       id="linearGradient3911-1"
       gradientUnits="userSpaceOnUse"
       gradientTransform="translate(-75.999994,-13.625904)"
       x1="24"
       y1="44"
       x2="24"
       y2="3.8990016" />
    <linearGradient
       id="linearGradient3707-319-631-407-324-3-8">
      <stop
         offset="0"
         style="stop-color:#185f9a;stop-opacity:1;"
         id="stop3760-7-3" />
      <stop
         offset="1"
         style="stop-color:#599ec9;stop-opacity:1;"
         id="stop3762-8-4" />
    </linearGradient>
    <radialGradient
       r="10.625"
       fy="4.625"
       fx="62.625"
       cy="4.625"
       cx="62.625"
       gradientTransform="matrix(2.1647059,0,0,0.7529402,-111.56471,36.517647)"
       gradientUnits="userSpaceOnUse"
       id="radialGradient4060"
       xlink:href="#linearGradient8838"
       inkscape:collect="always" />
    <linearGradient
       id="linearGradient8838">
      <stop
         id="stop8840"
         style="stop-color:#000000;stop-opacity:1"
         offset="0" />
      <stop
         id="stop8842"
         style="stop-color:#000000;stop-opacity:0"
         offset="1" />
    </linearGradient>
    <radialGradient
       r="10.625"
       fy="4.625"
       fx="62.625"
       cy="4.625"
       cx="62.625"
       gradientTransform="matrix(2.1647059,0,0,0.7529402,-187.56471,21.891743)"
       gradientUnits="userSpaceOnUse"
       id="radialGradient3070"
       xlink:href="#linearGradient8838"
       inkscape:collect="always" />
    <radialGradient
       inkscape:collect="always"
       xlink:href="#linearGradient2867-449-88-871-390-598-476-591-434-148-57-177-3-8"
       id="radialGradient4000"
       cx="22.520235"
       cy="-8.2394753"
       fx="22.520235"
       fy="-8.2394753"
       r="22.5"
       gradientTransform="matrix(-0.02186392,3.6855497,-2.2831408,-0.01354438,11.126878,-104.50016)"
       gradientUnits="userSpaceOnUse" />
    <linearGradient
       x1="294.20959"
       y1="6.3851075"
       x2="296.40414"
       y2="9.8281822"
       id="linearGradient8576"
       xlink:href="#XMLID_897_"
       gradientUnits="userSpaceOnUse"
       gradientTransform="matrix(-2.1726626,1.0941354,1.2977992,2.7879222,663.95775,-321.12004)" />
    <linearGradient
       x1="292.97168"
       y1="4.7592773"
       x2="296.93979"
       y2="10.711433"
       id="XMLID_897_"
       gradientUnits="userSpaceOnUse">
      <stop
         id="stop45093"
         style="stop-color:#e8e8e5;stop-opacity:1"
         offset="0" />
      <stop
         id="stop45095"
         style="stop-color:#f0f0f0;stop-opacity:1"
         offset="1" />
    </linearGradient>
    <linearGradient
       x1="20.288025"
       y1="6.4603648"
       x2="24.32597"
       y2="23.942537"
       id="linearGradient8573"
       xlink:href="#linearGradient2229"
       gradientUnits="userSpaceOnUse"
       gradientTransform="matrix(0.5489611,-0.2569337,0.3150922,0.6782222,12.146674,16.190988)" />
    <linearGradient
       id="linearGradient2229">
      <stop
         id="stop2231"
         style="stop-color:#e2e2e2;stop-opacity:1"
         offset="0" />
      <stop
         id="stop2233"
         style="stop-color:#d8d8d8;stop-opacity:1"
         offset="1" />
    </linearGradient>
    <linearGradient
       x1="293.00772"
       y1="3.0185187"
       x2="296.64139"
       y2="10.289103"
       id="linearGradient8569"
       xlink:href="#XMLID_897_"
       gradientUnits="userSpaceOnUse"
       gradientTransform="matrix(2.1923888,-1.1088171,1.3883377,2.7644949,-627.96956,330.42304)" />
    <linearGradient
       x1="292.97168"
       y1="4.7592773"
       x2="296.93979"
       y2="10.711433"
       id="linearGradient3034"
       gradientUnits="userSpaceOnUse">
      <stop
         id="stop3036"
         style="stop-color:#e8e8e5;stop-opacity:1"
         offset="0" />
      <stop
         id="stop3038"
         style="stop-color:#f0f0f0;stop-opacity:1"
         offset="1" />
    </linearGradient>
    <linearGradient
       x1="19.222296"
       y1="18.03648"
       x2="24.32597"
       y2="23.942537"
       id="linearGradient8566"
       xlink:href="#linearGradient2229"
       gradientUnits="userSpaceOnUse"
       gradientTransform="matrix(0.5489611,-0.2569337,0.3150922,0.6782222,12.146674,16.190988)" />
    <linearGradient
       id="linearGradient3041">
      <stop
         id="stop3043"
         style="stop-color:#e2e2e2;stop-opacity:1"
         offset="0" />
      <stop
         id="stop3045"
         style="stop-color:#d8d8d8;stop-opacity:1"
         offset="1" />
    </linearGradient>
    <linearGradient
       x1="22.225399"
       y1="23.843431"
       x2="24.190449"
       y2="22.860907"
       id="linearGradient8582"
       xlink:href="#XMLID_45_"
       gradientUnits="userSpaceOnUse"
       gradientTransform="matrix(0.5379232,-0.2517676,0.3150922,0.6782222,12.456548,16.817714)" />
    <linearGradient
       x1="68.175293"
       y1="21.424805"
       x2="74.587158"
       y2="27.836672"
       id="XMLID_45_"
       gradientUnits="userSpaceOnUse">
      <stop
         id="stop695"
         style="stop-color:#babdb6;stop-opacity:1"
         offset="0" />
      <stop
         id="stop697"
         style="stop-color:#eeeeec;stop-opacity:1"
         offset="1" />
    </linearGradient>
    <linearGradient
       x1="40.127796"
       y1="26.630606"
       x2="45.948959"
       y2="38.848572"
       id="linearGradient3656"
       xlink:href="#linearGradient3650"
       gradientUnits="userSpaceOnUse" />
    <linearGradient
       id="linearGradient3650">
      <stop
         id="stop3652"
         style="stop-color:#ffffff;stop-opacity:1"
         offset="0" />
      <stop
         id="stop3654"
         style="stop-color:#ffffff;stop-opacity:0"
         offset="1" />
    </linearGradient>
    <linearGradient
       x1="29.26738"
       y1="31.804976"
       x2="35.088547"
       y2="44.022942"
       id="linearGradient3658"
       xlink:href="#linearGradient3650"
       gradientUnits="userSpaceOnUse" />
    <linearGradient
       id="linearGradient3056">
      <stop
         id="stop3058"
         style="stop-color:#ffffff;stop-opacity:1"
         offset="0" />
      <stop
         id="stop3060"
         style="stop-color:#ffffff;stop-opacity:0"
         offset="1" />
    </linearGradient>
  </defs>
  <sodipodi:namedview
     id="base"
     pagecolor="#ffffff"
     bordercolor="#666666"
     borderopacity="1.0"
     gridtolerance="10000"
     guidetolerance="10"
     objecttolerance="10"
     inkscape:pageopacity="0.0"
     inkscape:pageshadow="2"
     inkscape:zoom="17.156183"
     inkscape:cx="32.000001"
     inkscape:cy="39.255151"
     inkscape:document-units="px"
     inkscape:current-layer="g58989"
     showgrid="false"
     inkscape:snap-bbox="true"
     inkscape:snap-nodes="false"
     inkscape:window-width="1855"
     inkscape:window-height="1056"
     inkscape:window-x="65"
     inkscape:window-y="24"
     showborder="true"
     inkscape:window-maximized="1">
    <inkscape:grid
       type="xygrid"
       id="grid8997"
       visible="true"
       enabled="true"
       empspacing="5"
       snapvisiblegridlinesonly="true" />
  </sodipodi:namedview>
  <metadata
     id="metadata7">
    <rdf:RDF>
      <cc:Work
         rdf:about="">
        <dc:format>image/svg+xml</dc:format>
        <dc:type
           rdf:resource="http://purl.org/dc/dcmitype/StillImage" />
        <dc:title></dc:title>
      </cc:Work>
    </rdf:RDF>
  </metadata>
  <g
     inkscape:label="Layer 1"
     inkscape:groupmode="layer"
     id="layer1"
     transform="translate(0,16)">
    <rect
       style="opacity:0.45488724;fill:#000000;fill-opacity:1;fill-rule:evenodd;stroke:none;stroke-width:1px;marker:none;visibility:visible;display:inline;overflow:visible;filter:url(#filter8076);enable-background:accumulate"
       id="rect7966"
       width="47.72971"
       height="5.6568542"
       x="0.17677669"
       y="41.105709"
       rx="1.9755803"
       ry="2.1072853"
       transform="matrix(1.132978,0,0,1.0621669,4.7613616,-9.3211898)" />
    <rect
       ry="2.2382891"
       rx="2.2382889"
       y="-2.312058"
       x="5.5625014"
       height="40.857964"
       width="52.875004"
       id="rect7116"
       style="fill:url(#radialGradient4000);fill-opacity:1;fill-rule:evenodd;stroke:url(#linearGradient7807);stroke-width:1;stroke-linecap:butt;stroke-linejoin:miter;stroke-miterlimit:4;stroke-opacity:1;stroke-dasharray:none;stroke-dashoffset:0;marker:none;visibility:visible;display:inline;overflow:visible;enable-background:accumulate" />
    <path
       sodipodi:nodetypes="ccccccccc"
       id="path7118"
       d="m 7.6409671,-1.2807483 c -0.5843713,0 -1.0588419,0.3888667 -1.0588419,0.86779404 l 0,36.99049226 c 0,0.478927 0.4744706,0.867797 1.0588419,0.867797 l 48.7064019,0 c 0.584348,0 1.05883,-0.38887 1.05883,-0.867797 l 0,-36.99049226 c 0,-0.47892734 -0.474482,-0.86779404 -1.05883,-0.86779404 l -48.7064019,0 z"
       style="opacity:0.5473251;fill:none;stroke:url(#linearGradient7122);stroke-width:1.00552714;stroke-linecap:round;stroke-linejoin:round;stroke-miterlimit:4;stroke-opacity:1;stroke-dasharray:none;stroke-dashoffset:0;marker:none;visibility:visible;display:inline;overflow:visible;enable-background:accumulate"
       inkscape:connector-curvature="0" />
    <rect
       transform="matrix(4.628051,0,0,1.4703207,-531.68494,-83.836861)"
       ry="0.35168657"
       rx="0.11172999"
       y="55"
       x="118"
       height="10.625"
       width="7.5625"
       id="rect59034"
       style="opacity:0.25603865;fill:#000000;fill-opacity:1;fill-rule:nonzero;stroke:none;stroke-width:0.99999988px;marker:none;visibility:visible;display:inline;overflow:visible;filter:url(#filter59048);enable-background:accumulate" />
    <rect
       style="opacity:0.25603865;fill:#000000;fill-opacity:1;fill-rule:nonzero;stroke:none;stroke-width:0.95618266px;marker:none;visibility:visible;display:inline;overflow:visible;filter:url(#filter59040);enable-background:accumulate"
       id="rect59012"
       width="7.5625"
       height="10.625"
       x="118"
       y="55"
       rx="0.11172999"
       ry="0.28574529"
       transform="matrix(4.628051,0,0,1.8096256,-531.68494,-84.473061)" />
    <g
       style="display:inline;enable-background:new"
       id="g7642"
       transform="matrix(1.2017046,0,0,1.2017046,6.1633543,-14.929957)">
      <path
         sodipodi:nodetypes="ccccccc"
         id="rect7544"
         d="m 35.500003,25.504242 0,13.726352 c 0,0.703251 -0.566156,1.269407 -1.269407,1.269407 l -25.461188,0 c -0.703251,0 -1.269407,-0.566156 -1.269407,-1.269407 l 0,-13.726352 28.000002,0 z"
         style="fill:url(#linearGradient8633);fill-opacity:1;fill-rule:evenodd;stroke:url(#linearGradient8635);stroke-width:0.83215126;stroke-linecap:butt;stroke-linejoin:miter;stroke-miterlimit:4;stroke-opacity:1;stroke-dashoffset:0;marker:none;visibility:visible;display:inline;overflow:visible;enable-background:accumulate;stroke-dasharray:none"
         inkscape:connector-curvature="0" />
      <rect
         ry="0.5"
         rx="0.5"
         y="28"
         x="10"
         height="1"
         width="11.875"
         id="rect7590"
         style="fill:#babdb6;fill-opacity:1;fill-rule:evenodd;stroke:none;stroke-width:1px;marker:none;visibility:visible;display:inline;overflow:visible;enable-background:accumulate" />
      <rect
         ry="0.5"
         rx="0.5"
         y="30"
         x="10"
         height="1"
         width="11.875"
         id="rect7592"
         style="fill:#babdb6;fill-opacity:1;fill-rule:evenodd;stroke:none;stroke-width:1px;marker:none;visibility:visible;display:inline;overflow:visible;enable-background:accumulate" />
      <rect
         ry="0.5"
         rx="0.5"
         y="33"
         x="10"
         height="1"
         width="11.875"
         id="rect7594"
         style="fill:#babdb6;fill-opacity:1;fill-rule:evenodd;stroke:none;stroke-width:1px;marker:none;visibility:visible;display:inline;overflow:visible;enable-background:accumulate" />
      <rect
         style="fill:#babdb6;fill-opacity:1;fill-rule:evenodd;stroke:none;stroke-width:1px;marker:none;visibility:visible;display:inline;overflow:visible;enable-background:accumulate"
         id="rect7596"
         width="11.875"
         height="1"
         x="10"
         y="35"
         rx="0.5"
         ry="0.5" />
      <rect
         ry="0.5"
         rx="0.5"
         y="35"
         x="26"
         height="1"
         width="7"
         id="rect7612"
         style="fill:#babdb6;fill-opacity:1;fill-rule:evenodd;stroke:none;stroke-width:1px;marker:none;visibility:visible;display:inline;overflow:visible;enable-background:accumulate" />
      <rect
         style="fill:#babdb6;fill-opacity:1;fill-rule:evenodd;stroke:none;stroke-width:1px;marker:none;visibility:visible;display:inline;overflow:visible;enable-background:accumulate"
         id="rect7614"
         width="7"
         height="1"
         x="26"
         y="33"
         rx="0.5"
         ry="0.5" />
      <rect
         ry="0.5"
         rx="0.5"
         y="30"
         x="26"
         height="1"
         width="7"
         id="rect7616"
         style="fill:#babdb6;fill-opacity:1;fill-rule:evenodd;stroke:none;stroke-width:1px;marker:none;visibility:visible;display:inline;overflow:visible;enable-background:accumulate" />
      <path
         sodipodi:nodetypes="ccccccc"
         id="path7859"
         d="m 8.3052068,26.283669 0,13.035836 c 0,0.179314 0.1390034,0.319506 0.3167898,0.319506 l 25.7866814,0 c 0.177788,0 0.316791,-0.140192 0.316791,-0.319506 l 0,-13.035836 -26.4202622,0 z"
         style="opacity:0.35714291;fill:none;stroke:url(#linearGradient8637);stroke-width:0.84718281;stroke-linecap:butt;stroke-linejoin:miter;stroke-miterlimit:4;stroke-opacity:1;stroke-dasharray:none;stroke-dashoffset:0;marker:none;visibility:visible;display:inline;overflow:visible;enable-background:accumulate"
         inkscape:connector-curvature="0" />
      <rect
         ry="0.5"
         rx="0.5"
         y="37"
         x="10"
         height="1"
         width="10"
         id="rect7955"
         style="fill:#babdb6;fill-opacity:1;fill-rule:evenodd;stroke:none;stroke-width:1px;marker:none;visibility:visible;display:inline;overflow:visible;enable-background:accumulate" />
      <rect
         style="fill:#babdb6;fill-opacity:1;fill-rule:evenodd;stroke:none;stroke-width:1px;marker:none;visibility:visible;display:inline;overflow:visible;enable-background:accumulate"
         id="rect7957"
         width="7"
         height="1"
         x="26"
         y="37"
         rx="0.5"
         ry="0.5" />
    </g>
    <g
       style="display:inline;enable-background:new"
       id="g58989"
       transform="matrix(1.2017046,0,0,1.2017046,-128.57778,-48.633996)">
      <path
         sodipodi:nodetypes="cccccccc"
         id="path7444"
         d="m 120.78125,33.515609 c -0.63657,0 -1.15625,0.519677 -1.15625,1.15625 l 0,15.84375 0,0.03125 27.90625,-0.03125 -0.0313,-8.84375 c -0.15529,-4.130483 -3.88873,-8.17195 -9.125,-8.125 l -17.59375,-0.03125 z"
         style="fill:url(#linearGradient8640);fill-opacity:1;fill-rule:evenodd;stroke:url(#linearGradient8642);stroke-width:0.83215126;stroke-linecap:butt;stroke-linejoin:miter;stroke-miterlimit:4;stroke-opacity:1;stroke-dashoffset:0;marker:none;visibility:visible;display:inline;overflow:visible;enable-background:accumulate;stroke-dasharray:none"
         inkscape:connector-curvature="0" />
      <path
         sodipodi:nodetypes="cccccccc"
         id="path6607"
         d="m 120.625,34.703109 0,14.6875 0.15625,0.15625 25.6875,0 c 0.0932,0 0.15625,-0.06308 0.15625,-0.15625 l -0.1875,-7.6875 c -0.0738,-3.255486 -2.80593,-7.087672 -8.125,-7.15625 l -17.6875,0.15625 z"
         style="opacity:0.56790125000000002;fill:none;stroke:url(#linearGradient8645);stroke-width:0.83215126;stroke-linecap:butt;stroke-linejoin:miter;stroke-miterlimit:4;stroke-opacity:1;stroke-dashoffset:0;marker:none;visibility:visible;display:inline;overflow:visible;enable-background:accumulate;stroke-dasharray:none"
         inkscape:connector-curvature="0" />
      <rect
         style="fill:url(#linearGradient8647);fill-opacity:1;fill-rule:evenodd;stroke:none;stroke-width:1px;marker:none;visibility:visible;display:inline;overflow:visible;enable-background:accumulate"
         id="rect6462"
         width="14"
         height="12"
         x="122.125"
         y="36.04686"
         rx="1.1490487"
         ry="1.1490488" />
      <path
         transform="matrix(1.0322581,0,0,1.0322581,100.31855,29.272665)"
         d="m 30.8125,13.34375 c 0,1.605078 -1.301172,2.90625 -2.90625,2.90625 C 26.301172,16.25 25,14.948828 25,13.34375 c 0,-1.605078 1.301172,-2.90625 2.90625,-2.90625 1.605078,0 2.90625,1.301172 2.90625,2.90625 z"
         sodipodi:ry="2.90625"
         sodipodi:rx="2.90625"
         sodipodi:cy="13.34375"
         sodipodi:cx="27.90625"
         id="path6470"
         style="fill:url(#radialGradient8649);fill-opacity:1;fill-rule:nonzero;stroke:none;stroke-width:1.0000006;marker:none;visibility:visible;display:inline;overflow:visible;enable-background:accumulate"
         sodipodi:type="arc" />
      <path
         sodipodi:type="arc"
         style="opacity:0.51503757;fill:url(#radialGradient8651);fill-opacity:1;fill-rule:nonzero;stroke:none;stroke-width:1.0000006;marker:none;visibility:visible;display:inline;overflow:visible;enable-background:accumulate"
         id="path6629"
         sodipodi:cx="27.90625"
         sodipodi:cy="13.34375"
         sodipodi:rx="2.90625"
         sodipodi:ry="2.90625"
         d="m 30.8125,13.34375 c 0,1.605078 -1.301172,2.90625 -2.90625,2.90625 C 26.301172,16.25 25,14.948828 25,13.34375 c 0,-1.605078 1.301172,-2.90625 2.90625,-2.90625 1.605078,0 2.90625,1.301172 2.90625,2.90625 z"
         transform="matrix(1.7204301,0,0,1.72043,81.114246,20.08987)" />
      <rect
         ry="0.43029881"
         rx="0.43029881"
         y="44.04686"
         x="122.125"
         height="4"
         width="14"
         id="rect6515"
         style="fill:url(#linearGradient8653);fill-opacity:1;fill-rule:evenodd;stroke:none;stroke-width:1px;marker:none;visibility:visible;display:inline;overflow:visible;enable-background:accumulate" />
      <path
         sodipodi:type="arc"
         style="fill:#fef18f;fill-opacity:1;fill-rule:nonzero;stroke:none;stroke-width:1.0000006;marker:none;visibility:visible;display:inline;overflow:visible;enable-background:accumulate"
         id="path6639"
         sodipodi:cx="27.90625"
         sodipodi:cy="13.34375"
         sodipodi:rx="2.90625"
         sodipodi:ry="2.90625"
         d="m 30.8125,13.34375 c 0,1.605078 -1.301172,2.90625 -2.90625,2.90625 C 26.301172,16.25 25,14.948828 25,13.34375 c 0,-1.605078 1.301172,-2.90625 2.90625,-2.90625 1.605078,0 2.90625,1.301172 2.90625,2.90625 z"
         transform="matrix(0.3440861,0,0,0.344086,119.52285,38.455461)" />
      <path
         transform="matrix(1.077496,0,0,1.7405705,97.886905,18.845628)"
         d="m 27.135223,15.340506 c 0,0.15865 -0.207757,0.287262 -0.464038,0.287262 -0.256282,0 -0.464039,-0.128612 -0.464039,-0.287262 0,-0.158651 0.207757,-0.287263 0.464039,-0.287263 0.256281,0 0.464038,0.128612 0.464038,0.287263 z"
         sodipodi:ry="0.28726214"
         sodipodi:rx="0.46403882"
         sodipodi:cy="15.340506"
         sodipodi:cx="26.671185"
         id="path6643"
         style="opacity:0.23684214;fill:#ffffff;fill-opacity:1;fill-rule:evenodd;stroke:none;stroke-width:1px;marker:none;visibility:visible;display:inline;overflow:visible;enable-background:accumulate"
         sodipodi:type="arc" />
      <path
         sodipodi:type="arc"
         style="opacity:0.51503757;fill:#ffffff;fill-opacity:1;fill-rule:evenodd;stroke:none;stroke-width:1px;marker:none;visibility:visible;display:inline;overflow:visible;enable-background:accumulate"
         id="path6645"
         sodipodi:cx="26.671185"
         sodipodi:cy="15.340506"
         sodipodi:rx="0.46403882"
         sodipodi:ry="0.28726214"
         d="m 27.135223,15.340506 c 0,0.15865 -0.207757,0.287262 -0.464038,0.287262 -0.256282,0 -0.464039,-0.128612 -0.464039,-0.287262 0,-0.158651 0.207757,-0.287263 0.464039,-0.287263 0.256281,0 0.464038,0.128612 0.464038,0.287263 z"
         transform="matrix(1.077496,0,0,1.7405705,100.88691,17.845628)" />
      <path
         transform="matrix(1.0774961,0,0,1.7405705,102.8869,17.845628)"
         d="m 27.135223,15.340506 c 0,0.15865 -0.207757,0.287262 -0.464038,0.287262 -0.256282,0 -0.464039,-0.128612 -0.464039,-0.287262 0,-0.158651 0.207757,-0.287263 0.464039,-0.287263 0.256281,0 0.464038,0.128612 0.464038,0.287263 z"
         sodipodi:ry="0.28726214"
         sodipodi:rx="0.46403882"
         sodipodi:cy="15.340506"
         sodipodi:cx="26.671185"
         id="path6647"
         style="opacity:0.51503757;fill:#ffffff;fill-opacity:1;fill-rule:evenodd;stroke:none;stroke-width:1px;marker:none;visibility:visible;display:inline;overflow:visible;enable-background:accumulate"
         sodipodi:type="arc" />
      <path
         sodipodi:type="arc"
         style="opacity:0.37593988;fill:#ffffff;fill-opacity:1;fill-rule:evenodd;stroke:none;stroke-width:1px;marker:none;visibility:visible;display:inline;overflow:visible;enable-background:accumulate"
         id="path6649"
         sodipodi:cx="26.671185"
         sodipodi:cy="15.340506"
         sodipodi:rx="0.46403882"
         sodipodi:ry="0.28726214"
         d="m 27.135223,15.340506 c 0,0.15865 -0.207757,0.287262 -0.464038,0.287262 -0.256282,0 -0.464039,-0.128612 -0.464039,-0.287262 0,-0.158651 0.207757,-0.287263 0.464039,-0.287263 0.256281,0 0.464038,0.128612 0.464038,0.287263 z"
         transform="matrix(1.077496,0,0,1.7405705,99.886905,18.845628)" />
      <path
         transform="matrix(1.077496,0,0,1.7405705,96.886905,17.845627)"
         d="m 27.135223,15.340506 c 0,0.15865 -0.207757,0.287262 -0.464038,0.287262 -0.256282,0 -0.464039,-0.128612 -0.464039,-0.287262 0,-0.158651 0.207757,-0.287263 0.464039,-0.287263 0.256281,0 0.464038,0.128612 0.464038,0.287263 z"
         sodipodi:ry="0.28726214"
         sodipodi:rx="0.46403882"
         sodipodi:cy="15.340506"
         sodipodi:cx="26.671185"
         id="path6651"
         style="opacity:0.51503757;fill:#ffffff;fill-opacity:1;fill-rule:evenodd;stroke:none;stroke-width:1px;marker:none;visibility:visible;display:inline;overflow:visible;enable-background:accumulate"
         sodipodi:type="arc" />
      <path
         transform="matrix(1.077496,0,0,1.7405705,98.886905,17.845627)"
         d="m 27.135223,15.340506 c 0,0.15865 -0.207757,0.287262 -0.464038,0.287262 -0.256282,0 -0.464039,-0.128612 -0.464039,-0.287262 0,-0.158651 0.207757,-0.287263 0.464039,-0.287263 0.256281,0 0.464038,0.128612 0.464038,0.287263 z"
         sodipodi:ry="0.28726214"
         sodipodi:rx="0.46403882"
         sodipodi:cy="15.340506"
         sodipodi:cx="26.671185"
         id="path6655"
         style="opacity:0.51503757;fill:#ffffff;fill-opacity:1;fill-rule:evenodd;stroke:none;stroke-width:1px;marker:none;visibility:visible;display:inline;overflow:visible;enable-background:accumulate"
         sodipodi:type="arc" />
      <path
         transform="matrix(1.077496,0,0,1.7405705,101.88691,18.845628)"
         d="m 27.135223,15.340506 c 0,0.15865 -0.207757,0.287262 -0.464038,0.287262 -0.256282,0 -0.464039,-0.128612 -0.464039,-0.287262 0,-0.158651 0.207757,-0.287263 0.464039,-0.287263 0.256281,0 0.464038,0.128612 0.464038,0.287263 z"
         sodipodi:ry="0.28726214"
         sodipodi:rx="0.46403882"
         sodipodi:cy="15.340506"
         sodipodi:cx="26.671185"
         id="path6657"
         style="opacity:0.37593988;fill:#ffffff;fill-opacity:1;fill-rule:evenodd;stroke:none;stroke-width:1px;marker:none;visibility:visible;display:inline;overflow:visible;enable-background:accumulate"
         sodipodi:type="arc" />
      <path
         transform="matrix(1.0774961,0,0,1.7405705,100.8869,19.845627)"
         d="m 27.135223,15.340506 c 0,0.15865 -0.207757,0.287262 -0.464038,0.287262 -0.256282,0 -0.464039,-0.128612 -0.464039,-0.287262 0,-0.158651 0.207757,-0.287263 0.464039,-0.287263 0.256281,0 0.464038,0.128612 0.464038,0.287263 z"
         sodipodi:ry="0.28726214"
         sodipodi:rx="0.46403882"
         sodipodi:cy="15.340506"
         sodipodi:cx="26.671185"
         id="path6661"
         style="opacity:0.23684214;fill:#ffffff;fill-opacity:1;fill-rule:evenodd;stroke:none;stroke-width:1px;marker:none;visibility:visible;display:inline;overflow:visible;enable-background:accumulate"
         sodipodi:type="arc" />
      <rect
         ry="0.5"
         rx="0.5"
         y="43.04686"
         x="138.125"
         height="1"
         width="7"
         id="rect7578"
         style="fill:#babdb6;fill-opacity:1;fill-rule:evenodd;stroke:none;stroke-width:1px;marker:none;visibility:visible;display:inline;overflow:visible;enable-background:accumulate" />
      <rect
         style="fill:#babdb6;fill-opacity:1;fill-rule:evenodd;stroke:none;stroke-width:1px;marker:none;visibility:visible;display:inline;overflow:visible;enable-background:accumulate"
         id="rect7580"
         width="7"
         height="1"
         x="138.125"
         y="45.04686"
         rx="0.5"
         ry="0.5" />
      <rect
         style="fill:#babdb6;fill-opacity:1;fill-rule:evenodd;stroke:none;stroke-width:1px;marker:none;visibility:visible;display:inline;overflow:visible;enable-background:accumulate"
         id="rect7582"
         width="5"
         height="1"
         x="138.125"
         y="47.04686"
         rx="0.5"
         ry="0.5" />
      <g
         inkscape:export-ydpi="90"
         inkscape:export-xdpi="90"
         inkscape:export-filename="/home/lapo/Scrivania/use4934.png"
         transform="matrix(1,0,0,0.9913092,-193,-93.87889)"
         id="g28-paper-sheet-orig"
         style="display:inline;enable-background:new">
        <path
           sodipodi:nodetypes="ccccczc"
           id="path33-paper-sheet-orig"
           d="m 331.29536,129 c -0.89553,0 -0.0271,0.32079 0.86642,0.72599 0.89355,0.40521 2.36476,1.91215 1.83822,4.27401 4.56932,-0.70711 5.1482,2.17757 5.35509,2.92542 0.20689,0.74785 0.64478,1.68278 0.64478,0.7865 0.0183,-2.45585 -1.83467,-4.15056 -3.12315,-5.58612 -1.28847,-1.43556 -3.22548,-2.81813 -5.58136,-3.1258 z"
           style="fill:url(#radialGradient8655);fill-opacity:1;stroke:none;display:inline"
           inkscape:connector-curvature="0" />
        <path
           sodipodi:nodetypes="ccccc"
           id="path34-paper-sheet-orig"
           d="M 332.00518,129.65459 C 332.59986,129.65459 333,133.5 333,136 c 3,0 5.70366,0.45181 6,1 -0.20689,-0.74785 -0.53856,-3.7734 -5,-3 0.55752,-2.5008 -1.21299,-4.10771 -1.99482,-4.34541 z"
           style="opacity:0.87854201;fill:url(#linearGradient8658);fill-opacity:1;stroke:none;display:inline"
           inkscape:connector-curvature="0" />
      </g>
    </g>
    <g
       transform="matrix(0.25823488,-0.79276197,0.79276197,0.25823488,29.844041,41.759533)"
       id="layer1-4">
      <g
         transform="matrix(1.2006867,0.5720589,-0.5720589,1.2006867,-0.94663416,-42.930476)"
         id="g8586"
         style="display:inline;enable-background:new">
        <path
           d="m 31.161325,8.8075561 c 0.133062,-0.00999 0.265009,-0.01311 0.39667,-0.018811 1.032154,1.3080269 3.318812,2.0048659 3.400756,3.7838489 -0.01199,5.314267 0.01699,10.67834 0.03582,16.018926 -0.346442,0.296677 -0.717303,0.550013 -1.10846,0.761785 -0.822386,0.447602 -1.753211,0.72109 -2.714989,0.756528 -0.0243,-7.102073 -0.05339,-14.21743 -0.0098,-21.3022779 l 0,4e-7 z"
           id="path16717"
           style="fill:url(#linearGradient8576);stroke:#888a85;stroke-width:0.73902136;stroke-linecap:round;stroke-linejoin:round;stroke-miterlimit:4;stroke-opacity:1;stroke-dasharray:none"
           inkscape:connector-curvature="0" />
        <path
           d="m 32.309045,10.263478 c -0.03,0.267905 0.02761,0.706209 -0.01228,0.960461 -0.09383,5.619622 -0.228746,11.249078 -0.339621,16.853521 0.04652,0.187226 -0.127851,0.895683 0.290503,0.642635 0.672555,-0.151393 1.357578,-0.345896 1.873369,-0.829711 0.104544,-5.182462 0.154379,-10.378961 0.253527,-15.560696 0.06598,-0.350657 -0.06696,-0.732652 -0.386299,-0.902494 -0.54827,-0.417673 -1.113406,-0.861706 -1.657386,-1.251337 l -0.01645,0.06608 -0.0054,0.02154 3.7e-5,10e-7 z"
           id="path16719"
           style="fill:url(#linearGradient8573);fill-opacity:1;stroke:none"
           inkscape:connector-curvature="0" />
        <polygon
           points="297.04443,12.300293 297.04443,12.300293 296.39941,13.384766 295.13281,14.71875 294.73242,13.672852 295.74658,11.960449 "
           transform="matrix(1.9970619,-0.9346976,1.0934885,2.3536864,-572.66375,276.68644)"
           id="polygon45129"
           style="fill:#d1524c;fill-opacity:1;stroke:#973137;stroke-width:0.31430697;stroke-linecap:round;stroke-linejoin:round;stroke-miterlimit:4;stroke-opacity:1;stroke-dasharray:none" />
        <path
           d="m 19.396198,14.35169 c -0.08957,0.102739 -0.173072,0.208756 -0.258423,0.312972 0.391379,1.64324 -0.467017,3.939283 0.87726,5.092967 4.173437,3.236312 8.360755,6.536547 12.53589,9.814149 0.445395,-0.102156 0.87181,-0.25076 1.278109,-0.441349 0.856083,-0.399274 1.642281,-0.993594 2.260875,-1.758642 C 30.537226,23.013753 24.977078,18.643677 19.396198,14.35169 z"
           id="polygon45097"
           style="fill:url(#linearGradient8569);fill-opacity:1;stroke:#888a85;stroke-width:0.75187969;stroke-linecap:round;stroke-linejoin:round;stroke-miterlimit:4;stroke-opacity:1;stroke-dasharray:none"
           inkscape:connector-curvature="0" />
        <path
           d="m 20.46842,15.805322 c 0.144736,0.862559 -0.179499,1.699043 0.05314,2.581236 4.050574,3.383781 8.124717,6.740771 12.171679,10.120477 0.739242,-0.132721 1.362473,-0.560766 1.934354,-1.03437 -0.336936,-0.453684 -0.82461,-0.712999 -1.204913,-1.111846 -4.208309,-3.455632 -8.433278,-6.897491 -12.624535,-10.374385 -0.05581,-0.09906 -0.27151,-0.272665 -0.329724,-0.181112 l -1e-6,0 z"
           id="path16635"
           style="fill:url(#linearGradient8566);fill-opacity:1;stroke:none"
           inkscape:connector-curvature="0" />
        <path
           d="m 32.982031,26.898487 c 0.171262,0.368111 0.07331,0.777511 -0.218725,0.914195 -0.292037,0.136683 -0.667459,-0.05116 -0.838321,-0.419459 -0.171262,-0.368111 -0.07331,-0.777511 0.218725,-0.914195 0.292036,-0.136683 0.667458,0.05116 0.838321,0.419459 z"
           id="path16731"
           style="fill:url(#linearGradient8582);fill-opacity:1;fill-rule:nonzero;stroke:none;stroke-width:1.49975467;marker:none;visibility:visible;display:inline;overflow:visible"
           inkscape:connector-curvature="0" />
        <polygon
           points="296.95605,12.300293 296.95605,12.300293 297.6001,13.384766 298.86719,14.71875 299.26807,13.672852 298.25391,11.960449 "
           transform="matrix(1.9896757,-0.9312406,1.1420325,2.4581752,-571.31613,275.36214)"
           id="polygon45101"
           style="fill:#d1524c;fill-opacity:1;stroke:#973137;stroke-width:0.30812469;stroke-linecap:round;stroke-linejoin:round;stroke-miterlimit:4;stroke-opacity:1;stroke-dasharray:none" />
        <path
           d="m 37.890872,29.313461 c -1.168746,2.058688 0.156179,5.535002 2.961883,7.763744 2.806441,2.230501 6.028887,2.37145 7.200667,0.317674 1.169527,-2.059082 -0.155418,-5.533236 -2.961119,-7.761966 -2.804912,-2.229138 -6.028134,-2.369691 -7.201431,-0.319452 z m 1.786015,1.422142 c 0.519917,-0.91201 2.509283,-0.813842 4.394584,0.686437 1.887398,1.499205 2.717319,3.642177 2.197423,4.552228 -0.51783,0.914848 -2.509973,0.814196 -4.395279,-0.686083 -1.888097,-1.498851 -2.716629,-3.640575 -2.196728,-4.552582 z"
           id="path11967"
           style="fill:#d1524c;fill-opacity:1;stroke:#973137;stroke-width:0.75187969;stroke-miterlimit:4;stroke-opacity:1;stroke-dasharray:none"
           inkscape:connector-curvature="0" />
        <path
           d="m 31.496367,32.360076 c 2.33508,0.389314 4.200089,3.608309 4.163351,7.191313 -0.03584,3.584684 -1.956498,6.176032 -4.289675,5.792168 -2.335878,-0.388956 -4.199196,-3.606606 -4.162451,-7.1896 0.03593,-3.582638 1.95739,-6.174338 4.288775,-5.793881 z m -0.02074,2.28296 c -1.035811,-0.170794 -2.212863,1.435992 -2.235476,3.845284 -0.02477,2.410243 1.116617,4.40482 2.150894,4.574396 1.0367,0.174203 2.213573,-1.436305 2.236189,-3.8456 0.02548,-2.410564 -1.115807,-4.403276 -2.151607,-4.57408 z"
           id="path3634"
           style="fill:#d1524c;fill-opacity:1;stroke:#973137;stroke-width:0.75187969;stroke-miterlimit:4;stroke-opacity:1;stroke-dasharray:none"
           inkscape:connector-curvature="0" />
        <path
           d="m 37.890872,29.313461 c -1.168746,2.058688 0.156179,5.535002 2.961883,7.763744 2.806441,2.230501 6.028887,2.37145 7.200667,0.317674 1.169527,-2.059082 -0.155418,-5.533236 -2.961119,-7.761966 -2.804912,-2.229138 -6.028134,-2.369691 -7.201431,-0.319452 z m 1.786015,1.422142 c 0.519917,-0.91201 2.509283,-0.813842 4.394584,0.686437 1.887398,1.499205 2.717319,3.642177 2.197423,4.552228 -0.51783,0.914848 -2.509973,0.814196 -4.395279,-0.686083 -1.888097,-1.498851 -2.716629,-3.640575 -2.196728,-4.552582 z"
           id="path3636"
           style="opacity:0.23999999;fill:url(#linearGradient3656);fill-opacity:1;stroke:none"
           inkscape:connector-curvature="0" />
        <path
           d="m 31.496367,32.360076 c 2.33508,0.389314 4.200089,3.608309 4.163351,7.191313 -0.03584,3.584684 -1.956498,6.176032 -4.289675,5.792168 -2.335878,-0.388956 -4.199196,-3.606606 -4.162451,-7.1896 0.03593,-3.582638 1.95739,-6.174338 4.288775,-5.793881 z m -0.02074,2.28296 c -1.035811,-0.170794 -2.212863,1.435992 -2.235476,3.845284 -0.02477,2.410243 1.116617,4.40482 2.150894,4.574396 1.0367,0.174203 2.213573,-1.436305 2.236189,-3.8456 0.02548,-2.410564 -1.115807,-4.403276 -2.151607,-4.57408 z"
           id="path3638"
           style="opacity:0.23999999;fill:url(#linearGradient3658);fill-opacity:1;stroke:none"
           inkscape:connector-curvature="0" />
      </g>
    </g>
  </g>
</svg>
