<?xml version="1.0" encoding="UTF-8" standalone="no"?>
<!-- Created with Inkscape (http://www.inkscape.org/) -->

<svg
   xmlns:dc="http://purl.org/dc/elements/1.1/"
   xmlns:cc="http://creativecommons.org/ns#"
   xmlns:rdf="http://www.w3.org/1999/02/22-rdf-syntax-ns#"
   xmlns:svg="http://www.w3.org/2000/svg"
   xmlns="http://www.w3.org/2000/svg"
   xmlns:xlink="http://www.w3.org/1999/xlink"
   xmlns:sodipodi="http://sodipodi.sourceforge.net/DTD/sodipodi-0.dtd"
   xmlns:inkscape="http://www.inkscape.org/namespaces/inkscape"
   version="1.1"
   width="64"
   height="64"
   id="svg4082"
   inkscape:version="0.48.4 r9939"
   sodipodi:docname="puddletag.svg">
  <sodipodi:namedview
     pagecolor="#ffffff"
     bordercolor="#666666"
     borderopacity="1"
     objecttolerance="10"
     gridtolerance="10"
     guidetolerance="10"
     inkscape:pageopacity="0"
     inkscape:pageshadow="2"
     inkscape:window-width="1656"
     inkscape:window-height="1028"
     id="namedview56"
     showgrid="false"
     showguides="true"
     inkscape:guide-bbox="true"
     inkscape:zoom="14"
     inkscape:cx="20.285714"
     inkscape:cy="32"
     inkscape:window-x="75"
     inkscape:window-y="24"
     inkscape:window-maximized="0"
     inkscape:current-layer="svg4082">
    <sodipodi:guide
       orientation="0,1"
       position="170.0339,144.54237"
       id="guide4027" />
  </sodipodi:namedview>
  <defs
     id="defs4084">
    <linearGradient
       x1="20.153708"
       y1="3.0216999"
       x2="20.153708"
       y2="26.666777"
       id="linearGradient4015"
       xlink:href="#linearGradient4017"
       gradientUnits="userSpaceOnUse" />
    <linearGradient
       id="linearGradient4017">
      <stop
         id="stop4019"
         style="stop-color:#ffffff;stop-opacity:1"
         offset="0" />
      <stop
         id="stop4021"
         style="stop-color:#ffffff;stop-opacity:0.23529412"
         offset="0.49550432" />
      <stop
         id="stop4023"
         style="stop-color:#ffffff;stop-opacity:0.15686275"
         offset="0.88038814" />
      <stop
         id="stop4025"
         style="stop-color:#ffffff;stop-opacity:0.39215687"
         offset="1" />
    </linearGradient>
    <radialGradient
       cx="680.5658"
       cy="365.6579"
       r="12.052631"
       fx="681.32629"
       fy="354.21619"
       id="radialGradient3182"
       xlink:href="#linearGradient9165-5-1"
       gradientUnits="userSpaceOnUse" />
    <linearGradient
       id="linearGradient9165-5-1">
      <stop
         id="stop9167-7-12"
         style="stop-color:#acb9bf;stop-opacity:1"
         offset="0" />
      <stop
         id="stop9169-0-4"
         style="stop-color:#acb9bf;stop-opacity:0"
         offset="1" />
    </linearGradient>
    <radialGradient
       cx="680.5658"
       cy="365.6579"
       r="12.052631"
       fx="680.60205"
       fy="355.25784"
       id="radialGradient3164"
       xlink:href="#linearGradient9165-59"
       gradientUnits="userSpaceOnUse"
       gradientTransform="matrix(0.59927171,0,0,0.59403611,-389.15478,-205.61691)" />
    <linearGradient
       id="linearGradient9165-59">
      <stop
         id="stop9167-6"
         style="stop-color:#b6c5cc;stop-opacity:1"
         offset="0" />
      <stop
         id="stop9169-9"
         style="stop-color:#e5f0f6;stop-opacity:0"
         offset="1" />
    </linearGradient>
    <radialGradient
       cx="676"
       cy="-233.5"
       r="29.5"
       fx="680.40613"
       fy="-249.59378"
       id="radialGradient3169"
       xlink:href="#linearGradient4747-3"
       gradientUnits="userSpaceOnUse"
       gradientTransform="matrix(0.81780319,1.9067797e-8,-1.5649504e-8,0.65951858,-536.83494,170.99757)" />
    <linearGradient
       id="linearGradient4747-3">
      <stop
         id="stop4749-7"
         style="stop-color:#ffffff;stop-opacity:1"
         offset="0" />
      <stop
         id="stop9072-8"
         style="stop-color:#f7f7f7;stop-opacity:1"
         offset="0.5" />
      <stop
         id="stop4751-3"
         style="stop-color:#dbe0e1;stop-opacity:1"
         offset="1" />
    </linearGradient>
    <radialGradient
       cx="4.9929786"
       cy="43.5"
       r="2.5"
       fx="4.9929786"
       fy="43.5"
       id="radialGradient3176"
       xlink:href="#linearGradient3688-5"
       gradientUnits="userSpaceOnUse"
       gradientTransform="matrix(2.003784,0,0,1.4,27.98813,-17.4)" />
    <linearGradient
       id="linearGradient3688-5">
      <stop
         id="stop3690-8"
         style="stop-color:#000000;stop-opacity:1"
         offset="0" />
      <stop
         id="stop3692-6"
         style="stop-color:#000000;stop-opacity:0"
         offset="1" />
    </linearGradient>
    <radialGradient
       cx="4.9929786"
       cy="43.5"
       r="2.5"
       fx="4.9929786"
       fy="43.5"
       id="radialGradient3178"
       xlink:href="#linearGradient3688-5"
       gradientUnits="userSpaceOnUse"
       gradientTransform="matrix(2.003784,0,0,1.4,-20.01187,-104.4)" />
    <linearGradient
       x1="25.058096"
       y1="47.027729"
       x2="25.058096"
       y2="39.999443"
       id="linearGradient3180"
       xlink:href="#linearGradient3702-4-7"
       gradientUnits="userSpaceOnUse" />
    <linearGradient
       id="linearGradient3702-4-7">
      <stop
         id="stop3704-7-8"
         style="stop-color:#000000;stop-opacity:0"
         offset="0" />
      <stop
         id="stop3710-0-0"
         style="stop-color:#000000;stop-opacity:1"
         offset="0.5" />
      <stop
         id="stop3706-7-2"
         style="stop-color:#000000;stop-opacity:0"
         offset="1" />
    </linearGradient>
    <linearGradient
       x1="20.153708"
       y1="3.0216999"
       x2="20.153708"
       y2="26.666777"
       id="linearGradient3027"
       xlink:href="#linearGradient4017"
       gradientUnits="userSpaceOnUse"
       gradientTransform="matrix(2,0,0,2,0,4)" />
    <radialGradient
       cx="680.5658"
       cy="365.6579"
       r="12.052631"
       fx="681.32629"
       fy="354.21619"
       id="radialGradient3030"
       xlink:href="#linearGradient9165-5-1"
       gradientUnits="userSpaceOnUse"
       gradientTransform="matrix(0.89356594,0,0,0.88575922,-589.93894,-297.29202)" />
    <radialGradient
       cx="680.5658"
       cy="365.6579"
       r="12.052631"
       fx="680.60205"
       fy="355.25784"
       id="radialGradient3033"
       xlink:href="#linearGradient9165-59"
       gradientUnits="userSpaceOnUse"
       gradientTransform="matrix(1.1985434,0,0,1.1880722,-778.30956,-411.23382)" />
    <radialGradient
       cx="676"
       cy="-233.5"
       r="29.5"
       fx="680.40613"
       fy="-249.59378"
       id="radialGradient3037"
       xlink:href="#linearGradient4747-3"
       gradientUnits="userSpaceOnUse"
       gradientTransform="matrix(1.6356064,3.8135594e-8,-3.1299008e-8,1.3190372,-1073.6699,341.99514)" />
    <radialGradient
       cx="4.9929786"
       cy="43.5"
       r="2.5"
       fx="4.9929786"
       fy="43.5"
       id="radialGradient3044"
       xlink:href="#linearGradient3688-5"
       gradientUnits="userSpaceOnUse"
       gradientTransform="matrix(2.003784,0,0,1.4,27.98813,-17.4)" />
    <radialGradient
       cx="4.9929786"
       cy="43.5"
       r="2.5"
       fx="4.9929786"
       fy="43.5"
       id="radialGradient3046"
       xlink:href="#linearGradient3688-5"
       gradientUnits="userSpaceOnUse"
       gradientTransform="matrix(2.003784,0,0,1.4,-20.01187,-104.4)" />
    <linearGradient
       x1="25.058096"
       y1="47.027729"
       x2="25.058096"
       y2="39.999443"
       id="linearGradient3048"
       xlink:href="#linearGradient3702-4-7"
       gradientUnits="userSpaceOnUse" />
    <linearGradient
       x1="20.153708"
       y1="3.0216999"
       x2="20.153708"
       y2="26.666777"
       id="linearGradient3027-0"
       xlink:href="#linearGradient4017-9"
       gradientUnits="userSpaceOnUse"
       gradientTransform="matrix(2,0,0,2,0,4)" />
    <linearGradient
       id="linearGradient4017-9">
      <stop
         id="stop4019-8"
         style="stop-color:#ffffff;stop-opacity:1"
         offset="0" />
      <stop
         id="stop4021-9"
         style="stop-color:#ffffff;stop-opacity:0.23529412"
         offset="0.49550432" />
      <stop
         id="stop4023-5"
         style="stop-color:#ffffff;stop-opacity:0.15686275"
         offset="0.88038814" />
      <stop
         id="stop4025-8"
         style="stop-color:#ffffff;stop-opacity:0.39215687"
         offset="1" />
    </linearGradient>
    <radialGradient
       cx="676"
       cy="-233.5"
       r="29.5"
       fx="680.40613"
       fy="-249.59378"
       id="radialGradient3037-6"
       xlink:href="#linearGradient4747-3-4"
       gradientUnits="userSpaceOnUse"
       gradientTransform="matrix(1.6356064,3.8135594e-8,-3.1299008e-8,1.3190372,-1073.6699,341.99514)" />
    <linearGradient
       id="linearGradient4747-3-4">
      <stop
         id="stop4749-7-3"
         style="stop-color:#ffffff;stop-opacity:1"
         offset="0" />
      <stop
         id="stop9072-8-8"
         style="stop-color:#f7f7f7;stop-opacity:1"
         offset="0.5" />
      <stop
         id="stop4751-3-3"
         style="stop-color:#dbe0e1;stop-opacity:1"
         offset="1" />
    </linearGradient>
    <radialGradient
       r="29.5"
       fy="-249.59378"
       fx="680.40613"
       cy="-233.5"
       cx="676"
       gradientTransform="matrix(1.6356064,3.8135594e-8,-3.1299008e-8,1.3190372,-962.21229,264.06294)"
       gradientUnits="userSpaceOnUse"
       id="radialGradient3074"
       xlink:href="#linearGradient4747-3-4"
       inkscape:collect="always" />
  </defs>
  <metadata
     id="metadata4087">
    <rdf:RDF>
      <cc:Work
         rdf:about="">
        <dc:format>image/svg+xml</dc:format>
        <dc:type
           rdf:resource="http://purl.org/dc/dcmitype/StillImage" />
        <dc:title></dc:title>
      </cc:Work>
    </rdf:RDF>
  </metadata>
  <g
     transform="matrix(1.4210393,0,0,1.1663938,-2.1052206,7.1794886)"
     id="g3712-3-7"
     style="opacity:0.23999999">
    <rect
       width="5"
       height="7"
       x="38"
       y="40"
       id="rect2801-5"
       style="fill:url(#radialGradient3044);fill-opacity:1;stroke:none" />
    <rect
       width="5"
       height="7"
       x="-10"
       y="-47"
       transform="scale(-1,-1)"
       id="rect3696-8"
       style="fill:url(#radialGradient3046);fill-opacity:1;stroke:none" />
    <rect
       width="28"
       height="7.0000005"
       x="10"
       y="40"
       id="rect3700-8"
       style="fill:url(#linearGradient3048);fill-opacity:1;stroke:none" />
  </g>
  <path
     d="m 37.27664,9.000003 c -5.872872,0 -10.958994,3.445355 -13.480054,8.445966 -1.633992,-1.063624 -3.568278,-1.689161 -5.64761,-1.689161 -5.828346,0 -10.5531776,4.840068 -10.5531776,10.8108 0,0.94926 0.146552,1.867634 0.3710032,2.74487 C 3.7573592,32.220938 1.0000294,37.16892 1.0000294,42.783724 1.0000294,51.7675 8.0601156,59 16.829806,59 l 30.340456,0 c 8.7697,0 15.829766,-7.2325 15.829766,-16.216276 0,-7.173908 -4.520912,-13.22219 -10.800548,-15.371606 0.17038,-0.932366 0.247338,-1.88849 0.247338,-2.871524 0,-8.582895 -6.7919,-15.540591 -15.170178,-15.540591 z"
     id="rect4519"
     style="color:#000000;fill:url(#radialGradient3037);fill-opacity:1;fill-rule:nonzero;stroke:none;stroke-width:1;marker:none;visibility:visible;display:inline;overflow:visible;enable-background:accumulate" />
  <path
     d="m 37.361705,8.5000009 c -5.967584,0 -11.135741,3.5142491 -13.697471,8.6148881 -1.660347,-1.08491 -3.625819,-1.72295 -5.73869,-1.72295 -5.922366,0 -10.7234147,4.936872 -10.7234147,11.027018 0,0.968245 0.1489584,1.905001 0.3769975,2.799782 C 3.3018008,32.185343 0.5,37.232297 0.5,42.959417 0.5,52.122873 7.6739481,59.5 16.585104,59.5 l 30.82981,0 c 8.911137,0 16.085088,-7.377127 16.085088,-16.540583 0,-7.317398 -4.593842,-13.486644 -10.974739,-15.67905 0.173128,-0.951024 0.251315,-1.92627 0.251315,-2.92895 0,-8.754553 -6.901455,-15.8514161 -15.414873,-15.8514161 z"
     id="rect4519-6"
     style="opacity:0.4;color:#000000;fill:none;stroke:#000000;stroke-width:1;stroke-linecap:round;stroke-linejoin:round;stroke-miterlimit:4;stroke-opacity:1;stroke-dasharray:none;stroke-dashoffset:0;marker:none;visibility:visible;display:inline;overflow:visible;enable-background:accumulate" />
  <path
     d="m 37.362426,10.059821 c -5.55304,0 -10.279172,3.395405 -12.248484,8.198985 2.717276,2.088344 4.469994,5.36423 4.469994,9.036326 0,1.953992 -0.464652,3.799762 -1.337476,5.40784 2.3767,2.243966 5.574576,3.628492 9.115966,3.628492 7.31615,0 13.269194,-5.901034 13.269194,-13.153266 0,-7.252229 -5.953044,-13.118377 -13.269194,-13.118377 z"
     id="path9151"
     style="opacity:0.15;color:#000000;fill:url(#radialGradient3033);fill-opacity:1;fill-rule:nonzero;stroke:none;stroke-width:1.87944353;marker:none;visibility:visible;display:inline;overflow:visible;enable-background:accumulate" />
  <path
     d="m 28.067733,26.592836 a 9.8762584,9.7899736 0 0 1 -19.7525168,0 9.8762584,9.7899736 0 1 1 19.7525168,0 z"
     id="path9151-6"
     style="opacity:0.15;color:#000000;fill:url(#radialGradient3030);fill-opacity:1;fill-rule:nonzero;stroke:none;stroke-width:1.1760155;marker:none;visibility:visible;display:inline;overflow:visible;enable-background:accumulate" />
  <path
     style="opacity:0.2;color:#000000;fill:none;stroke:#000000;stroke-width:1;stroke-opacity:1;marker:none;visibility:visible;display:inline;overflow:visible;enable-background:accumulate"
     d="m 23.435268,43.274554 c -0.28357,-0.299951 -0.31394,0.03113 -0.15625,0.9375 0.1608,0.923799 0.79091,2.218469 1.71875,3.625 0.92784,1.406531 2.14225,2.918219 3.53125,4.34375 0.98685,1.012627 2.47958,2.100524 4.03125,2.96875 1.55167,0.868226 3.17182,1.519751 4.40625,1.75 1.65461,0.308636 2.32089,0.309368 2,0 -0.32089,-0.309368 -1.61327,-0.920561 -3.9375,-1.875 -1.36474,-0.560358 -2.38357,-1.070439 -3.3125,-1.6875 -0.92893,-0.617061 -1.76842,-1.335197 -2.8125,-2.375 -1.45991,-1.454038 -3.16357,-3.626509 -3.78125,-4.8125 -0.85716,-1.646059 -1.40393,-2.575049 -1.6875,-2.875 z"
     id="path4025"
     inkscape:connector-curvature="0" />
  <path
     style="opacity:0.2;color:#000000;fill:none;stroke:#000000;stroke-width:1;stroke-opacity:1;marker:none;visibility:visible;display:inline;overflow:visible;enable-background:accumulate"
     d="m 22.529018,37.399554 c -0.09951,-0.659264 -0.1875,-0.223957 -0.1875,0.96875 -0.0031,1.192367 0.08486,1.720945 0.1875,1.1875 0.097,-0.533437 0.10015,-1.49698 0,-2.15625 z"
     id="path4021"
     inkscape:connector-curvature="0" />
  <path
     style="opacity:0.2;color:#000000;fill:none;stroke:#000000;stroke-width:1;stroke-opacity:1;marker:none;visibility:visible;display:inline;overflow:visible;enable-background:accumulate"
     d="m 9.6540179,36.180804 c -0.25877,-0.159832 -0.4375,0.376815 -0.4375,1.3125 0,0.935676 0.17873,1.472331 0.4375,1.3125 0.23824,-0.147429 0.4375001,-0.744303 0.4375001,-1.3125 0,-0.568199 -0.1992601,-1.165072 -0.4375001,-1.3125 z"
     id="path4017"
     inkscape:connector-curvature="0" />
  <path
     style="opacity:0.2;color:#000000;fill:none;stroke:#000000;stroke-width:1;stroke-opacity:1;marker:none;visibility:visible;display:inline;overflow:visible;enable-background:accumulate"
     d="m 42.935268,34.368304 c -0.83912,-0.156712 -1.60033,-0.02877 -2.21875,0.34375 -0.61842,0.372523 -1.08991,0.972544 -1.28125,1.75 -0.19134,0.777456 -0.09836,1.723163 0.34375,2.78125 0.27307,0.653543 0.45586,1.04553 0.71875,1.25 0.26289,0.20447 0.60141,0.24571 1.09375,0.1875 0.8046,-0.09508 1.27424,-0.393325 1.34375,-0.65625 0.03476,-0.131462 -0.04565,-0.261526 -0.21875,-0.34375 -0.1731,-0.08222 -0.44674,-0.121563 -0.84375,-0.09375 -0.53744,0.03765 -0.84176,0.02326 -1.03125,-0.15625 -0.18949,-0.179511 -0.25434,-0.523057 -0.3125,-1.125 -0.04977,-0.512586 -0.03991,-0.896712 0.09375,-1.21875 0.13366,-0.322038 0.37958,-0.584356 0.75,-0.84375 0.65812,-0.460994 1.26446,-0.687298 1.9375,-0.65625 0.67304,0.03105 1.42935,0.310219 2.34375,0.84375 l 1.5,0.875 -1.625,-1.53125 c -0.85343,-0.810247 -1.75463,-1.249538 -2.59375,-1.40625 z"
     id="path4013"
     inkscape:connector-curvature="0" />
  <path
     style="opacity:0.2;color:#000000;fill:none;stroke:#000000;stroke-width:1;stroke-opacity:1;marker:none;visibility:visible;display:inline;overflow:visible;enable-background:accumulate"
     d="m 6.0290179,34.118304 c -0.12004,-0.298177 -0.21875,-0.03386 -0.21875,0.5625 0,0.596384 0.0987,0.829429 0.21875,0.53125 0.12067,-0.298173 0.12067,-0.795577 0,-1.09375 z"
     id="path4009"
     inkscape:connector-curvature="0" />
  <path
     style="opacity:0.2;color:#000000;fill:none;stroke:#000000;stroke-width:1;stroke-opacity:1;marker:none;visibility:visible;display:inline;overflow:visible;enable-background:accumulate"
     d="m 10.622768,30.649554 c -0.0566,0.118554 -0.0813,0.474321 -0.09375,1.09375 -0.01679,0.894528 0.06485,1.625 0.15625,1.625 0.19314,0 0.32687,-0.407339 0.375,-0.90625 0.04813,-0.498911 -0.0014,-1.072053 -0.15625,-1.46875 -0.12814,-0.327725 -0.22465,-0.462304 -0.28125,-0.34375 z"
     id="path4005"
     inkscape:connector-curvature="0" />
  <path
     style="opacity:0.2;color:#000000;fill:none;stroke:#000000;stroke-width:1;stroke-opacity:1;marker:none;visibility:visible;display:inline;overflow:visible;enable-background:accumulate"
     d="m 40.779018,30.305804 c -1.14734,0.326669 -2.21335,0.98199 -3.375,2.03125 -1.00956,0.912146 -1.70941,1.999969 -2.09375,3.125 -0.38434,1.125031 -0.45527,2.29751 -0.25,3.4375 0.20527,1.13999 0.70948,2.230477 1.46875,3.1875 0.75927,0.957023 1.78484,1.76762 3.0625,2.34375 0.81798,0.368826 1.29225,0.56832 1.78125,0.59375 0.489,0.02543 0.96794,-0.122258 1.78125,-0.40625 0.5928,-0.206978 1.18116,-0.519369 1.71875,-0.9375 0.53759,-0.418131 1.02663,-0.940458 1.5,-1.5625 1.02107,-1.342616 1.47009,-2.15712 1.375,-2.34375 -0.09509,-0.18663 -0.72285,0.259245 -1.84375,1.40625 -1.04875,1.073439 -2.46268,2.284123 -3.15625,2.6875 -0.60276,0.350774 -0.96438,0.528286 -1.375,0.5 -0.41062,-0.02829 -0.87837,-0.264257 -1.78125,-0.71875 -1.0192,-0.513126 -1.87011,-1.198965 -2.5,-2.03125 -0.62989,-0.832285 -1.04037,-1.826787 -1.25,-2.9375 -0.09408,-0.497563 -0.06742,-1.038206 0.09375,-1.625 0.16117,-0.586794 0.44169,-1.210507 0.8125,-1.8125 0.37081,-0.601993 0.84015,-1.175592 1.375,-1.71875 0.53485,-0.543158 1.15921,-1.058461 1.8125,-1.46875 1.2758,-0.801266 2.20011,-1.211232 3.125,-1.21875 0.46244,-0.0038 0.90828,0.118823 1.40625,0.3125 0.49797,0.193677 1.04059,0.484555 1.65625,0.875 1.1573,0.734051 2.08076,1.479376 2.78125,2.3125 0.70049,0.833124 1.18228,1.754806 1.53125,2.8125 0.27338,0.82839 0.37493,1.629102 0.34375,2.4375 -0.03118,0.808398 -0.18031,1.624069 -0.46875,2.375 -0.28844,0.750931 -0.72036,1.437762 -1.21875,2.09375 -0.49839,0.655988 -1.08897,1.25768 -1.75,1.78125 -0.66103,0.52357 -1.37989,0.990073 -2.15625,1.34375 -0.77636,0.353677 -1.59312,0.603691 -2.4375,0.75 -0.84438,0.146309 -1.72865,0.192285 -2.59375,0.09375 -0.8651,-0.09853 -1.724,-0.337896 -2.5625,-0.71875 -1.1038,-0.501491 -2.40755,-1.58478 -3.5,-2.8125 -1.09245,-1.22772 -1.96977,-2.602097 -2.25,-3.65625 -0.19468,-0.731756 -0.31077,-1.102304 -0.375,-1.15625 -0.06423,-0.05395 -0.072,0.198062 -0.09375,0.75 -0.02286,0.619194 0.14344,1.323302 0.46875,2.03125 0.32531,0.707948 0.8138,1.42414 1.40625,2.125 0.59245,0.70086 1.28395,1.37082 2.0625,1.96875 0.77855,0.59793 1.64765,1.132092 2.53125,1.53125 1.23474,0.557777 2.51853,0.842716 3.78125,0.875 1.26272,0.03228 2.49168,-0.179976 3.65625,-0.625 1.16457,-0.445024 2.24723,-1.125855 3.1875,-2 0.94027,-0.874145 1.75391,-1.96367 2.34375,-3.21875 0.52997,-1.12741 0.8177,-2.516886 0.875,-3.90625 0.0573,-1.389364 -0.12241,-2.759096 -0.5625,-3.8125 -0.22642,-0.541857 -0.58104,-1.092293 -1.03125,-1.625 -0.45021,-0.532707 -0.9964,-1.067221 -1.59375,-1.53125 -1.1947,-0.928057 -2.61412,-1.64133 -3.9375,-1.9375 -1.41295,-0.316239 -2.63391,-0.326669 -3.78125,0 z"
     id="path4001"
     inkscape:connector-curvature="0" />
  <path
     style="opacity:0.2;color:#000000;fill:none;stroke:#000000;stroke-width:1;stroke-opacity:1;marker:none;visibility:visible;display:inline;overflow:visible;enable-background:accumulate"
     d="m 38.060268,18.212054 c -0.60602,-0.006 -1.28163,0.127296 -2,0.375 -0.71837,0.247704 -1.50074,0.603812 -2.3125,1.09375 -1.62351,0.979876 -3.39804,2.432412 -5.28125,4.3125 -1.43441,1.432008 -2.79641,3.140874 -3.78125,4.65625 -0.98484,1.515376 -1.59375,2.850202 -1.59375,3.625 0,0.279188 0.0084,0.453355 0.0625,0.53125 0.05406,0.07789 0.13888,0.06874 0.28125,-0.09375 0.28474,-0.324975 0.78152,-1.166457 1.625,-2.6875 0.89324,-1.610156 2.21842,-3.633854 2.9375,-4.46875 1.0164,-1.179742 2.50724,-2.437899 4.125,-3.5625 1.61776,-1.124601 3.35164,-2.101456 4.875,-2.6875 l 2.78125,-1.0625 -1.71875,-0.03125 z"
     id="path3997"
     inkscape:connector-curvature="0" />
  <path
     style="opacity:0.2;color:#000000;fill:none;stroke:#000000;stroke-width:1;stroke-opacity:1;marker:none;visibility:visible;display:inline;overflow:visible;enable-background:accumulate"
     d="m 1.5915179,38.837054 c 0.02498,0.985953 0.05538,2.037747 0.125,1.375 0.04713,-0.464119 0.00198,-1.15406 0,-1.8125 -0.03932,0.147155 -0.08963,0.288696 -0.125,0.4375 z"
     id="path3993"
     inkscape:connector-curvature="0" />
  <path
     style="opacity:0.2;color:#000000;fill:none;stroke:#000000;stroke-width:1;stroke-opacity:1;marker:none;visibility:visible;display:inline;overflow:visible;enable-background:accumulate"
     d="m 17.591518,58.930804 c -0.04321,-0.340423 -0.9232,-2.23323 -2.25,-4.78125 -1.4145,-2.716452 -3.02755,-6.159654 -3.5625,-7.65625 -0.53495,-1.496597 -0.9972,-2.69054 -1.0625,-2.625 -0.06531,0.06554 0.05918,1.119977 0.28125,2.3125 0.237,1.273504 0.90635,3.148455 1.8125,5.125 0.90615,1.976545 2.0341,4.028332 3.15625,5.71875 0.75104,1.131476 1.29033,1.737627 1.53125,1.90625 l 0.09375,0 z"
     id="path3991"
     inkscape:connector-curvature="0" />
  <path
     style="opacity:0.2;color:#000000;fill:none;stroke:#000000;stroke-width:1;stroke-opacity:1;marker:none;visibility:visible;display:inline;overflow:visible;enable-background:accumulate"
     d="m 46.247768,11.930804 c 0.11556,0.205643 0.25,0.412373 0.25,0.625 0,0.263852 -0.43374,0.475158 -1.21875,0.625 -0.78501,0.149842 -1.89862,0.24403 -3.3125,0.25 -1.36272,0.0058 -2.72186,0.152486 -4.0625,0.4375 -1.34064,0.285014 -2.68544,0.685576 -3.96875,1.21875 -1.28331,0.533174 -2.52803,1.187224 -3.71875,1.9375 -1.19072,0.750276 -2.31212,1.626178 -3.375,2.5625 -1.06288,0.936322 -2.06896,1.93994 -2.96875,3.03125 -0.89979,1.09131 -1.70481,2.25351 -2.40625,3.46875 -0.70144,1.21524 -1.28217,2.473136 -1.75,3.78125 -0.46783,1.308114 -0.80103,2.66132 -1,4.03125 -0.18894,1.300773 -0.26286,2.684427 -0.21875,4.09375 0.04411,1.409323 0.20477,2.866777 0.46875,4.3125 0.26398,1.445723 0.62308,2.871279 1.09375,4.28125 0.47067,1.409971 1.05457,2.791682 1.71875,4.09375 0.57787,1.13243 1.57119,2.514602 2.65625,3.71875 1.08506,1.204148 2.23363,2.227574 3.0625,2.65625 0.7623,0.39416 1.17117,0.435181 1.1875,0.21875 0.01633,-0.216431 -0.35384,-0.685026 -1.09375,-1.375 -1.34546,-1.254803 -2.88666,-3.215736 -4.21875,-5.21875 -1.33209,-2.003014 -2.459,-4.059283 -2.90625,-5.5 -0.54148,-1.74557 -0.85469,-4.131621 -0.9375,-6.53125 -0.08281,-2.399629 0.0795,-4.792855 0.5,-6.5625 0.39344,-1.657138 1.01473,-3.30147 1.8125,-4.84375 0.79777,-1.54228 1.76913,-2.993457 2.90625,-4.34375 1.13712,-1.350293 2.43227,-2.575073 3.84375,-3.65625 1.41148,-1.081177 2.94163,-2.015068 4.5625,-2.75 1.37516,-0.623548 2.8641,-1.110519 4.34375,-1.46875 1.47965,-0.358231 2.93741,-0.606848 4.3125,-0.6875 1.37509,-0.08065 2.65727,-0.02169 3.71875,0.1875 1.06148,0.209188 1.89866,0.582461 2.4375,1.09375 0.69015,0.654997 1.06685,1.189741 1.09375,1.5625 0.01345,0.186379 -0.06528,0.337837 -0.21875,0.4375 -0.15347,0.09966 -0.39762,0.154075 -0.71875,0.15625 -1.06992,0.0073 -1.60773,0.197254 -1.625,0.46875 -0.01727,0.271496 0.48436,0.612032 1.53125,0.96875 1.5725,0.535771 3.01458,1.226326 4.15625,1.96875 -0.80219,-3.801335 -2.966,-7.043351 -5.9375,-9.25 z"
     id="path3989"
     inkscape:connector-curvature="0" />
  <path
     style="opacity:0.2;color:#000000;fill:none;stroke:#000000;stroke-width:1;stroke-opacity:1;marker:none;visibility:visible;display:inline;overflow:visible;enable-background:accumulate"
     d="m 40.122768,9.2120536 c -0.005,0.032277 -0.20296,0.094151 -0.15625,0.125 0.19866,0.131196 0.89738,0.250717 2.25,0.5000001 0.59696,0.110056 0.94161,0.3614413 1.4375,0.5312503 -1.11611,-0.5226963 -2.28965,-0.9229934 -3.53125,-1.1562504 z"
     id="path3987"
     inkscape:connector-curvature="0" />
  <path
     style="opacity:0.2;color:#000000;fill:none;stroke:#000000;stroke-width:1;stroke-opacity:1;marker:none;visibility:visible;display:inline;overflow:visible;enable-background:accumulate"
     d="m 23.372768,17.118304 c -1.19991,1.106902 -2.282,2.252653 -3.25,3.46875 -1.03996,1.306508 -1.946,2.68386 -2.75,4.15625 -0.804,1.47239 -1.52411,3.039202 -2.125,4.71875 -0.42143,1.178404 -0.6622,2.113513 -0.8125,3.3125 -0.1503,1.198987 -0.2063,2.671335 -0.21875,4.9375 -0.0115,2.317381 0.01108,3.789435 0.15625,5 0.14517,1.210565 0.43024,2.171017 0.875,3.46875 0.74395,2.169219 1.97032,4.740753 3.25,6.9375 1.27968,2.196747 2.608,4.017314 3.5,4.65625 0.24508,0.175256 0.51475,0.3082 0.59375,0.3125 0.16982,0.0078 -1.45074,-2.718629 -2.65625,-4.46875 -1.15792,-1.681203 -2.1264,-3.555732 -2.875,-5.53125 -0.7486,-1.975518 -1.27923,-4.051879 -1.59375,-6.15625 -0.31452,-2.104371 -0.42558,-4.244738 -0.28125,-6.3125 0.14433,-2.067762 0.52831,-4.071809 1.15625,-5.9375 0.76075,-2.260447 1.56755,-4.135149 2.5625,-5.84375 0.99495,-1.708601 2.18218,-3.24419 3.6875,-4.875 1.4848,-1.608495 3.03317,-2.939696 4.8125,-4.125 1.77933,-1.185304 3.79764,-2.214675 6.1875,-3.1875 1.19057,-0.48469 1.99018,-0.857447 2.4375,-1.125 0.44732,-0.267553 0.5251,-0.45573 0.21875,-0.5 -0.62017,-0.0896 -2.03975,0.342917 -3.625,1 -1.58525,0.657083 -3.32992,1.554018 -4.625,2.4375 -1.1129,0.75917 -2.06483,1.54783 -3.03125,2.34375 -0.35233,0.527885 -0.77448,0.991197 -1.0625,1.5625 -0.16413,-0.106837 -0.36122,-0.152193 -0.53125,-0.25 z"
     id="path3985"
     inkscape:connector-curvature="0" />
  <path
     style="opacity:0.2;color:#000000;fill:none;stroke:#000000;stroke-width:1;stroke-opacity:1;marker:none;visibility:visible;display:inline;overflow:visible;enable-background:accumulate"
     d="m 52.372768,26.462054 c 0.08013,-0.659238 0.1875,-1.315749 0.1875,-2 0,-0.04249 3.3e-4,-0.08259 0,-0.125 -0.04643,-0.02015 -0.04696,-0.01047 -0.09375,-0.03125 -2.59668,-1.153312 -4.31223,-1.849632 -5.8125,-2.21875 -1.50027,-0.369118 -2.80122,-0.440206 -4.5,-0.34375 -1.28481,0.07296 -2.25266,0.223442 -3.1875,0.46875 -0.93484,0.245308 -1.81923,0.590423 -2.96875,1.15625 -1.53215,0.754297 -2.87534,1.683172 -4.03125,2.71875 -1.15591,1.035578 -2.12774,2.201389 -2.90625,3.4375 -0.77851,1.236111 -1.38131,2.550352 -1.78125,3.90625 -0.39994,1.355898 -0.6048,2.730063 -0.625,4.125 -0.0202,1.394937 0.13929,2.803021 0.5,4.15625 0.36071,1.353229 0.91346,2.675476 1.65625,3.90625 0.74279,1.230774 1.68646,2.378678 2.8125,3.40625 1.12604,1.027572 2.45829,1.912627 3.96875,2.65625 1.26615,0.62331 2.07621,0.98837 2.96875,1.1875 0.89254,0.19913 1.8479,0.250153 3.375,0.25 1.42508,-1.38e-4 2.41569,-0.05172 3.28125,-0.21875 0.86556,-0.16703 1.61653,-0.474047 2.59375,-0.9375 1.47733,-0.700803 2.79171,-1.612883 3.9375,-2.71875 1.14579,-1.105867 2.13554,-2.405812 2.90625,-3.875 0.50727,-0.96722 0.8001,-1.653923 0.96875,-2.5 0.16865,-0.846077 0.1875,-1.852636 0.1875,-3.4375 6.2e-4,-1.089306 -0.03011,-2.057134 -0.15625,-2.9375 -0.12614,-0.880366 -0.34672,-1.667289 -0.625,-2.40625 -0.27828,-0.738961 -0.63793,-1.428661 -1.09375,-2.09375 -0.45582,-0.665089 -0.99751,-1.31 -1.65625,-1.96875 -1.15667,-1.156678 -2.51631,-2.041161 -3.96875,-2.6875 -1.45244,-0.646339 -2.98678,-1.036099 -4.53125,-1.15625 -1.54447,-0.120151 -3.09848,0.01561 -4.53125,0.4375 -1.43277,0.421887 -2.75767,1.113975 -3.875,2.09375 -1.13272,0.99324 -2.14722,2.154511 -2.875,3.21875 -0.72778,1.064239 -1.15625,2.029069 -1.15625,2.6875 0.0015,0.484059 0.03603,0.687904 0.21875,0.53125 0.18272,-0.156654 0.51479,-0.669635 1.0625,-1.625 0.61659,-1.075063 1.28711,-1.985844 2.03125,-2.78125 0.74414,-0.795406 1.55238,-1.476301 2.4375,-2 0.88512,-0.523699 1.83547,-0.896307 2.875,-1.15625 1.03953,-0.259943 2.16763,-0.402113 3.375,-0.40625 0.96213,-0.0033 1.86045,0.09839 2.71875,0.3125 0.8583,0.21411 1.68868,0.553837 2.46875,1 0.78007,0.446163 1.52256,0.994647 2.25,1.6875 0.72744,0.692853 1.42459,1.51457 2.125,2.46875 0.80555,1.095655 1.20176,1.667942 1.40625,2.46875 0.20449,0.800808 0.21875,1.829591 0.21875,3.875 -6.3e-4,1.711635 -0.04785,2.821415 -0.1875,3.6875 -0.13965,0.866085 -0.35501,1.51101 -0.75,2.25 -0.67802,1.268736 -1.91447,2.656 -3.34375,3.875 -1.42928,1.219 -3.07817,2.263912 -4.53125,2.8125 -0.76191,0.287661 -1.51874,0.476356 -2.3125,0.59375 -0.79376,0.117394 -1.60414,0.167476 -2.40625,0.125 -1.60422,-0.08495 -3.22217,-0.494204 -4.71875,-1.15625 -1.49658,-0.662046 -2.89284,-1.594044 -4.09375,-2.75 -1.20091,-1.155956 -2.18904,-2.527065 -2.90625,-4.09375 -0.35923,-0.784608 -0.65487,-1.694089 -0.875,-2.65625 -0.22013,-0.962161 -0.36422,-1.969698 -0.4375,-3 -0.07328,-1.030302 -0.08132,-2.073471 0,-3.0625 0.08132,-0.989029 0.25632,-1.942906 0.5,-2.78125 0.34694,-1.193407 0.90063,-2.346249 1.65625,-3.40625 0.75562,-1.060001 1.69502,-2.010539 2.78125,-2.875 1.08623,-0.864461 2.31748,-1.611963 3.65625,-2.21875 1.33877,-0.606787 2.79925,-1.088023 4.3125,-1.375 1.15216,-0.218511 2.30246,-0.287025 3.4375,-0.1875 1.13504,0.09952 2.26412,0.366324 3.375,0.78125 1.11088,0.414926 2.20157,0.99106 3.28125,1.71875 0.47893,0.322794 0.93446,0.803538 1.40625,1.1875 z"
     id="path3983"
     inkscape:connector-curvature="0" />
  <path
     style="opacity:0.2;color:#000000;fill:none;stroke:#000000;stroke-width:1;stroke-opacity:1;marker:none;visibility:visible;display:inline;overflow:visible;enable-background:accumulate"
     d="m 59.997768,33.055804 c -1.37562,-1.895317 -3.23893,-3.307309 -5.28125,-4.4375 1.16656,1.213183 2.14901,2.277084 2.6875,3.28125 0.65127,1.214473 0.94754,2.493142 1.21875,4.40625 0.27556,1.943147 0.27207,3.891451 -0.03125,5.78125 -0.30332,1.889799 -0.87822,3.728382 -1.75,5.5 -0.49452,1.004647 -1.10275,1.937747 -1.78125,2.78125 -0.6785,0.843503 -1.44064,1.591499 -2.3125,2.28125 -0.87186,0.689751 -1.83167,1.300358 -2.90625,1.84375 -1.07458,0.543392 -2.27582,1.033076 -3.5625,1.4375 -1.30503,0.410267 -2.02749,0.777173 -2.15625,1 -0.12876,0.222827 0.36182,0.300365 1.53125,0.125 1.20721,-0.18102 2.43021,-0.595238 3.65625,-1.15625 1.22604,-0.561012 2.4358,-1.273304 3.5625,-2.125 1.1267,-0.851696 2.18456,-1.821927 3.09375,-2.875 0.90919,-1.053073 1.67649,-2.178608 2.25,-3.34375 0.64007,-1.299586 0.9705,-2.068588 1.15625,-3.21875 0.18575,-1.150162 0.23675,-2.688243 0.28125,-5.625 0.04559,-2.975257 0.20313,-4.980504 0.34375,-5.65625 z"
     id="path3981"
     inkscape:connector-curvature="0" />
  <path
     style="opacity:0.2;color:#000000;fill:none;stroke:#000000;stroke-width:1;stroke-opacity:1;marker:none;visibility:visible;display:inline;overflow:visible;enable-background:accumulate"
     d="m 49.622768,58.712054 c 7.63775,-1.164799 13.5,-7.841561 13.5,-16 0,-0.284125 -0.11099,-0.532078 -0.125,-0.8125 -0.15695,0.992543 -0.25803,1.964624 -0.5625,2.96875 -0.49346,1.627398 -1.16683,3.240882 -1.96875,4.75 -0.80192,1.509118 -1.73738,2.918089 -2.75,4.125 -1.01262,1.206911 -2.09318,2.216721 -3.21875,2.9375 -0.94545,0.60534 -3.02556,1.395259 -4.875,2.03125 z"
     id="path3979"
     inkscape:connector-curvature="0" />
  <path
     style="opacity:0.2;color:#000000;fill:none;stroke:#000000;stroke-width:1;stroke-opacity:1;marker:none;visibility:visible;display:inline;overflow:visible;enable-background:accumulate"
     d="m 10.779018,57.680804 c 0.72797,0.31438 1.50181,0.51735 2.28125,0.71875 -0.06096,-0.08095 -0.12598,-0.09866 -0.1875,-0.1875 -0.47189,-0.681424 -0.96844,-1.592027 -1.625,-2.8125 -1.2590001,-2.340067 -2.1579601,-4.378469 -2.8437501,-6.5625 -0.68579,-2.184031 -1.17,-4.518884 -1.5625,-7.4375 l -0.65625,-4.78125 0.1875,5.21875 c 0.10388,2.943484 0.26979,4.779848 0.75,6.625 0.48021,1.845152 1.2705,3.69404 2.6875,6.59375 0.7099401,1.452296 0.7330201,1.859494 0.9687501,2.625 z"
     id="path3977"
     inkscape:connector-curvature="0" />
  <path
     style="opacity:0.2;color:#000000;fill:none;stroke:#000000;stroke-width:1;stroke-opacity:1;marker:none;visibility:visible;display:inline;overflow:visible;enable-background:accumulate"
     d="m 3.8727679,51.868304 c 0.69294,1.040106 1.53247,1.966679 2.4375,2.8125 -0.61971,-1.240254 -1.21795,-2.379288 -2.09375,-4.59375 -1.03196,-2.608505 -1.6657,-3.747424 -1.8125,-3.53125 -0.1468,0.216174 0.21775,1.768757 1.1875,4.46875 0.12765,0.355541 0.15835,0.487821 0.28125,0.84375 z"
     id="path3975"
     inkscape:connector-curvature="0" />
  <path
     style="opacity:0.2;color:#000000;fill:none;stroke:#000000;stroke-width:1;stroke-opacity:1;marker:none;visibility:visible;display:inline;overflow:visible;enable-background:accumulate"
     d="m 7.9977679,25.087054 c 0.31793,-0.888354 0.43585,-1.600254 1.03125,-2.75 0.55584,-1.073352 1.5761901,-2.571548 2.3750001,-3.875 -1.8730901,1.675699 -3.0525201,3.97685 -3.4062501,6.625 z"
     id="path3973"
     inkscape:connector-curvature="0" />
  <path
     style="opacity:0.2;color:#000000;fill:none;stroke:#000000;stroke-width:1;stroke-opacity:1;marker:none;visibility:visible;display:inline;overflow:visible;enable-background:accumulate"
     d="m 13.872768,16.743304 c -0.91845,0.434555 -1.71584,1.045187 -2.46875,1.71875 -0.79881,1.303452 -1.8191601,2.801648 -2.3750001,3.875 -0.5954,1.149746 -0.71332,1.861646 -1.03125,2.75 -0.0646,0.483657 -0.28125,0.904416 -0.28125,1.40625 0,0.3023 0.09749,0.579296 0.125,0.875 0.27764,-0.516953 0.50658,-0.92709 0.9375,-2.03125 0.813,-2.082688 2.1499101,-4.49706 3.6562501,-6.78125 0.46095,-0.698972 0.95266,-1.156896 1.4375,-1.8125 z"
     id="path3971"
     inkscape:connector-curvature="0" />
  <path
     style="opacity:0.2;color:#000000;fill:none;stroke:#000000;stroke-width:1;stroke-opacity:1;marker:none;visibility:visible;display:inline;overflow:visible;enable-background:accumulate"
     d="m 20.029018,15.962054 c -0.49566,-0.08888 -0.98281,-0.235519 -1.5,-0.25 -0.18853,0.223121 -0.27402,0.259578 -0.46875,0.5 -1.29997,1.604983 -2.70885,3.575169 -3.84375,5.40625 -0.57228,0.923212 -1.20877,2.227449 -1.65625,3.3125 -0.44748,1.085051 -0.72253,1.9375 -0.53125,1.9375 0.10574,0 1.14479,-1.604627 2.28125,-3.5625 0.9287,-1.600155 1.90967,-3.064999 3,-4.4375 0.83159,-1.046803 1.78064,-1.980449 2.71875,-2.90625 z"
     id="path3969"
     inkscape:connector-curvature="0" />
  <path
     d="m 37.375,9.5 c -5.578939,0 -10.440134,3.276679 -12.84375,8.0625 a 0.98720122,0.98720122 0 0 1 -1.40625,0.375 c -1.512137,-0.988066 -3.272043,-1.53125 -5.1875,-1.53125 -5.376804,0 -9.75,4.431502 -9.75,10 0,0.847124 0.1578364,1.710392 0.375,2.5625 a 0.98720122,0.98720122 0 0 1 -0.40625,1.0625 C 4.1437861,32.814155 1.5,37.565248 1.5,42.96875 1.5,51.616392 8.2266887,58.5 16.59375,58.5 l 30.8125,0 C 55.773291,58.5 62.5,51.616391 62.5,42.96875 c 0,-6.904803 -4.301757,-12.695512 -10.28125,-14.75 a 0.98720122,0.98720122 0 0 1 -0.65625,-1.125 c 0.160866,-0.883667 0.21875,-1.797772 0.21875,-2.75 C 51.78125,16.107322 45.340439,9.5 37.375,9.5 z"
     id="path3072"
     style="color:#000000;fill:none;stroke:url(#linearGradient3027-0);stroke-width:1;stroke-linecap:round;stroke-linejoin:round;stroke-miterlimit:4;stroke-opacity:1;stroke-dasharray:none;stroke-dashoffset:0;marker:none;visibility:visible;display:inline;overflow:visible;enable-background:accumulate" />
</svg>
