<?xml version="1.0" encoding="UTF-8" standalone="no"?>
<!-- Created with Inkscape (http://www.inkscape.org/) -->

<svg
   xmlns:dc="http://purl.org/dc/elements/1.1/"
   xmlns:cc="http://creativecommons.org/ns#"
   xmlns:rdf="http://www.w3.org/1999/02/22-rdf-syntax-ns#"
   xmlns:svg="http://www.w3.org/2000/svg"
   xmlns="http://www.w3.org/2000/svg"
   xmlns:xlink="http://www.w3.org/1999/xlink"
   xmlns:sodipodi="http://sodipodi.sourceforge.net/DTD/sodipodi-0.dtd"
   xmlns:inkscape="http://www.inkscape.org/namespaces/inkscape"
   version="1.1"
   width="64"
   height="64"
   id="svg4460"
   inkscape:version="0.48.4 r9939"
   sodipodi:docname="sopcast-player.svg">
  <sodipodi:namedview
     pagecolor="#ffffff"
     bordercolor="#666666"
     borderopacity="1"
     objecttolerance="10"
     gridtolerance="10"
     guidetolerance="10"
     inkscape:pageopacity="0"
     inkscape:pageshadow="2"
     inkscape:window-width="1017"
     inkscape:window-height="834"
     id="namedview66"
     showgrid="false"
     inkscape:zoom="10.96875"
     inkscape:cx="32"
     inkscape:cy="32"
     inkscape:window-x="848"
     inkscape:window-y="62"
     inkscape:window-maximized="0"
     inkscape:current-layer="layer1" />
  <defs
     id="defs4462">
    <linearGradient
       x1="37.5"
       y1="23"
       x2="49.089928"
       y2="23.172663"
       id="linearGradient4340"
       xlink:href="#linearGradient3678"
       gradientUnits="userSpaceOnUse"
       gradientTransform="matrix(1.3062396,0,0,-1.2880763,-1.2856852,45.221382)" />
    <linearGradient
       id="linearGradient3678">
      <stop
         id="stop3680"
         style="stop-color:#ffffff;stop-opacity:0.13368984"
         offset="0" />
      <stop
         id="stop3682"
         style="stop-color:#ffffff;stop-opacity:0"
         offset="1" />
    </linearGradient>
    <linearGradient
       x1="4.4897356"
       y1="23"
       x2="47.500416"
       y2="23"
       id="linearGradient4344"
       xlink:href="#linearGradient3672"
       gradientUnits="userSpaceOnUse"
       gradientTransform="matrix(1.3062396,0,0,-1.2880763,-1.2856852,45.221382)" />
    <linearGradient
       id="linearGradient3672">
      <stop
         id="stop3674"
         style="stop-color:#ffffff;stop-opacity:0.49197862"
         offset="0" />
      <stop
         id="stop3676"
         style="stop-color:#ffffff;stop-opacity:1"
         offset="1" />
    </linearGradient>
    <linearGradient
       x1="14.893399"
       y1="23.707106"
       x2="2.8318863"
       y2="24.108988"
       id="linearGradient4347"
       xlink:href="#linearGradient3678"
       gradientUnits="userSpaceOnUse"
       gradientTransform="matrix(0.92365092,-0.91080756,-0.92365092,-0.91080756,29.472448,59.887498)" />
    <linearGradient
       x1="48.127419"
       y1="25.828426"
       x2="2.8725832"
       y2="24.414213"
       id="linearGradient4351"
       xlink:href="#linearGradient3672"
       gradientUnits="userSpaceOnUse"
       gradientTransform="matrix(0.92365092,-0.91080756,-0.92365092,-0.91080756,29.472448,59.887498)" />
    <linearGradient
       x1="46.006096"
       y1="23.707108"
       x2="4.2867966"
       y2="27.242641"
       id="linearGradient4355"
       xlink:href="#linearGradient3672"
       gradientUnits="userSpaceOnUse"
       gradientTransform="matrix(0.92365092,0.91080756,-0.92365092,0.91080756,29.714299,-28.578549)" />
    <linearGradient
       x1="14.893399"
       y1="22.292894"
       x2="4.0629644"
       y2="21.829967"
       id="linearGradient4358"
       xlink:href="#linearGradient3678"
       gradientUnits="userSpaceOnUse"
       gradientTransform="matrix(0.92365092,0.91080756,-0.92365092,0.91080756,29.714299,-28.578549)" />
    <linearGradient
       x1="3.5"
       y1="23"
       x2="47.5"
       y2="23"
       id="linearGradient4362"
       xlink:href="#linearGradient3672"
       gradientUnits="userSpaceOnUse"
       gradientTransform="matrix(0,1.2880763,1.3062396,0,1.9799085,-17.25033)" />
    <linearGradient
       x1="35.5"
       y1="22"
       x2="48.262592"
       y2="21.91367"
       id="linearGradient4365"
       xlink:href="#linearGradient3678"
       gradientUnits="userSpaceOnUse"
       gradientTransform="matrix(0,1.2880763,1.3062396,0,1.9799085,-17.25033)" />
    <linearGradient
       x1="71.204407"
       y1="15.369057"
       x2="71.204407"
       y2="40.495617"
       id="linearGradient4338-5-6"
       xlink:href="#linearGradient4806-2"
       gradientUnits="userSpaceOnUse"
       gradientTransform="matrix(2.3103562,0,0,2.2782307,-134.75252,-47.892016)" />
    <linearGradient
       id="linearGradient4806-2">
      <stop
         id="stop4808-4"
         style="stop-color:#ffffff;stop-opacity:1"
         offset="0" />
      <stop
         id="stop4810-0"
         style="stop-color:#ffffff;stop-opacity:0.23529412"
         offset="0.42447853" />
      <stop
         id="stop4812-8"
         style="stop-color:#ffffff;stop-opacity:0.15686275"
         offset="0.82089913" />
      <stop
         id="stop4814-0"
         style="stop-color:#ffffff;stop-opacity:0.39215687"
         offset="1" />
    </linearGradient>
    <radialGradient
       cx="15.026252"
       cy="8.6257601"
       r="19.99999"
       fx="-0.94055694"
       fy="8.625761"
       id="radialGradient3126-3"
       xlink:href="#radialGradient3093-0-3-6-6"
       gradientUnits="userSpaceOnUse"
       gradientTransform="matrix(-9.5927402e-8,1.5544959,-1.4852121,-1.0707142e-7,44.549873,-12.921569)" />
    <linearGradient
       id="linearGradient4632-92-3-0-8">
      <stop
         id="stop4634-68-8-0-2"
         style="stop-color:#cdc9e3;stop-opacity:1"
         offset="0" />
      <stop
         id="stop4636-8-21-7-1"
         style="stop-color:#9389cb;stop-opacity:1"
         offset="1" />
    </linearGradient>
    <linearGradient
       id="linearGradient3820-7-2-1">
      <stop
         id="stop3822-2-6-3"
         style="stop-color:#3d3d3d;stop-opacity:1"
         offset="0" />
      <stop
         id="stop3864-8-7-7"
         style="stop-color:#686868;stop-opacity:0.49803922"
         offset="0.5" />
      <stop
         id="stop3824-1-2-5"
         style="stop-color:#686868;stop-opacity:0"
         offset="1" />
    </linearGradient>
    <radialGradient
       cx="99.157013"
       cy="186.17059"
       r="62.769119"
       fx="99.157013"
       fy="186.17059"
       id="radialGradient4458"
       xlink:href="#linearGradient3820-7-2-1"
       gradientUnits="userSpaceOnUse"
       gradientTransform="matrix(0.38696973,0,0,0.12345528,-6.3707627,17.267947)" />
    <linearGradient
       x1="63.397362"
       y1="-12.489107"
       x2="63.397362"
       y2="5.4675598"
       id="linearGradient3066"
       xlink:href="#linearGradient4873"
       gradientUnits="userSpaceOnUse"
       gradientTransform="matrix(1.0862728,0,0,1.0862481,-31.56661,39.813638)" />
    <linearGradient
       id="linearGradient4873">
      <stop
         id="stop4875"
         style="stop-color:#ffffff;stop-opacity:1"
         offset="0" />
      <stop
         id="stop4877"
         style="stop-color:#ffffff;stop-opacity:0"
         offset="1" />
    </linearGradient>
    <linearGradient
       id="linearGradient3242">
      <stop
         id="stop3244"
         style="stop-color:#f8b17e;stop-opacity:1"
         offset="0" />
      <stop
         id="stop3246"
         style="stop-color:#e35d4f;stop-opacity:1"
         offset="0.26238" />
      <stop
         id="stop3248"
         style="stop-color:#c6262e;stop-opacity:1"
         offset="0.66093999" />
      <stop
         id="stop3250"
         style="stop-color:#690b54;stop-opacity:1"
         offset="1" />
    </linearGradient>
    <radialGradient
       cx="23.407145"
       cy="3.9900031"
       r="20.397499"
       fx="23.407145"
       fy="3.9900031"
       id="radialGradient3071"
       xlink:href="#linearGradient3242"
       gradientUnits="userSpaceOnUse"
       gradientTransform="matrix(0,1.4039288,-1.8531612,0,43.394119,-8.838349)" />
    <radialGradient
       cx="15.026252"
       cy="8.6257601"
       r="19.99999"
       fx="-0.94055694"
       fy="8.625761"
       id="radialGradient3553"
       xlink:href="#radialGradient3093-0-3-6-6"
       gradientUnits="userSpaceOnUse"
       gradientTransform="matrix(-9.6613061e-8,1.5876836,-1.495828,-1.0935734e-7,44.639514,2.8743965)" />
    <radialGradient
       cx="23.896"
       cy="3.99"
       r="20.396999"
       id="radialGradient3093-0-3-6-6"
       gradientUnits="userSpaceOnUse"
       gradientTransform="matrix(0,1.2316483,-1.625754,0,18.486966,-28.721977)">
      <stop
         id="stop3244-9-33-7-0-9"
         style="stop-color:#ffffff;stop-opacity:1"
         offset="0" />
      <stop
         id="stop3246-3-5-0-8-5"
         style="stop-color:#dddddd;stop-opacity:1"
         offset="0.26238" />
      <stop
         id="stop3248-1-7-8-8-1"
         style="stop-color:#abacae;stop-opacity:1"
         offset="0.66093999" />
      <stop
         id="stop3250-9-3-0-5-1"
         style="stop-color:#89898b;stop-opacity:1"
         offset="1" />
    </radialGradient>
    <radialGradient
       r="19.99999"
       fy="8.625761"
       fx="-0.94055694"
       cy="8.6257601"
       cx="15.026252"
       gradientTransform="matrix(-9.6613061e-8,1.5876836,-1.495828,-1.0935734e-7,-19.292631,-23.430685)"
       gradientUnits="userSpaceOnUse"
       id="radialGradient3272"
       xlink:href="#radialGradient3093-0-3-6-6"
       inkscape:collect="always" />
    <linearGradient
       inkscape:collect="always"
       xlink:href="#linearGradient4007-3"
       id="linearGradient4013-6"
       x1="18.963203"
       y1="-57.281384"
       x2="15.945889"
       y2="78.129868"
       gradientUnits="userSpaceOnUse"
       gradientTransform="matrix(0.90043128,0,0,0.9206641,0.56675789,0.38829266)" />
    <linearGradient
       id="linearGradient4007-3">
      <stop
         style="stop-color:#ffffff;stop-opacity:1;"
         offset="0"
         id="stop4009-6" />
      <stop
         style="stop-color:#ffffff;stop-opacity:0;"
         offset="1"
         id="stop4011-0" />
    </linearGradient>
    <radialGradient
       r="15.561676"
       fy="12.175321"
       fx="13.018921"
       cy="12.175321"
       cx="13.018921"
       gradientTransform="matrix(-0.00719785,5.1187804,-7.5028601,-0.01055014,103.58781,-74.179464)"
       gradientUnits="userSpaceOnUse"
       id="radialGradient3797-9"
       xlink:href="#linearGradient2867-449-88-871-390-598-476-591-434-148-57-177-8-3-4"
       inkscape:collect="always" />
    <linearGradient
       id="linearGradient2867-449-88-871-390-598-476-591-434-148-57-177-8-3-4">
      <stop
         id="stop3750-1-0-1"
         style="stop-color:#90dbec;stop-opacity:1"
         offset="0" />
      <stop
         id="stop3752-3-7-3"
         style="stop-color:#55c1ec;stop-opacity:1"
         offset="0.26238" />
      <stop
         id="stop3754-1-8-8"
         style="stop-color:#3689e6;stop-opacity:1"
         offset="0.704952" />
      <stop
         id="stop3756-1-6-7"
         style="stop-color:#2b63a0;stop-opacity:1"
         offset="1" />
    </linearGradient>
    <radialGradient
       inkscape:collect="always"
       xlink:href="#linearGradient2867-449-88-871-390-598-476-591-434-148-57-177-8-3-4"
       id="radialGradient4168"
       gradientUnits="userSpaceOnUse"
       gradientTransform="matrix(-0.00694798,4.9410831,-7.2423999,-0.01018389,116.59605,-84.836772)"
       cx="13.018921"
       cy="12.175321"
       fx="13.018921"
       fy="12.175321"
       r="15.561676" />
    <linearGradient
       inkscape:collect="always"
       xlink:href="#linearGradient4007-3"
       id="linearGradient4170"
       gradientUnits="userSpaceOnUse"
       gradientTransform="matrix(0.869173,0,0,0.88870344,17.151342,-12.857619)"
       x1="18.963203"
       y1="-57.281384"
       x2="15.945889"
       y2="78.129868" />
    <radialGradient
       r="10.625"
       fy="4.625"
       fx="62.625"
       cy="4.625"
       cx="62.625"
       gradientTransform="matrix(2.565229,0,0,0.89248366,58.406101,476.6425)"
       gradientUnits="userSpaceOnUse"
       id="radialGradient4736-9"
       xlink:href="#linearGradient8838-08"
       inkscape:collect="always" />
    <linearGradient
       id="linearGradient8838-08">
      <stop
         id="stop8840-85"
         style="stop-color:#000000;stop-opacity:1"
         offset="0" />
      <stop
         id="stop8842-0"
         style="stop-color:#000000;stop-opacity:0"
         offset="1" />
    </linearGradient>
    <radialGradient
       r="10.625"
       fy="4.625"
       fx="62.625"
       cy="4.625"
       cx="62.625"
       gradientTransform="matrix(2.565229,0,0,0.89248366,-128.6479,34.3896)"
       gradientUnits="userSpaceOnUse"
       id="radialGradient3243"
       xlink:href="#linearGradient8838-08"
       inkscape:collect="always" />
  </defs>
  <metadata
     id="metadata4465">
    <rdf:RDF>
      <cc:Work
         rdf:about="">
        <dc:format>image/svg+xml</dc:format>
        <dc:type
           rdf:resource="http://purl.org/dc/dcmitype/StillImage" />
        <dc:title />
      </cc:Work>
    </rdf:RDF>
  </metadata>
  <g
     id="layer1"
     transform="translate(0,16)">
    <path
       style="opacity:0.5;fill:url(#radialGradient3243);fill-opacity:1;fill-rule:evenodd;stroke:none;stroke-width:1;marker:none;visibility:visible;display:inline;overflow:visible;enable-background:new"
       id="path8836-3"
       d="M 59.25511,38.51735 C 59.25511,43.75447 47.05239,48 31.99956,48 16.94673,48 4.744,43.75447 4.744,38.51735 c 0,-5.23713 12.20273,-9.48266 27.25556,-9.48266 15.05283,0 27.25555,4.24553 27.25555,9.48266 l 0,0 z"
       inkscape:connector-curvature="0" />
    <path
       d="m 32.000002,-13.288084 c -16.161533,0 -29.2905819,12.9464893 -29.2905819,28.883297 0,15.936805 13.1290489,28.8833 29.2905819,28.883295 16.161528,0 29.29059,-12.94649 29.290579,-28.883295 0,-15.9368077 -13.129051,-28.883297 -29.290579,-28.883297 z"
       id="path2555-7-65"
       style="color:#000000;fill:url(#radialGradient3126-3);fill-opacity:1.0;fill-rule:nonzero;stroke:none;stroke-width:1;marker:none;visibility:visible;display:inline;overflow:visible;enable-background:accumulate"
       inkscape:connector-curvature="0" />
    <path
       d="m 32.000002,-13.288083 c -16.161533,0 -29.2905819,12.9464883 -29.2905819,28.883296 0,15.936805 13.1290489,28.883302 29.2905819,28.883295 16.161528,0 29.29059,-12.94649 29.290579,-28.883295 0,-15.9368077 -13.129051,-28.883296 -29.290579,-28.883296 z"
       id="path3871"
       style="opacity:0.29999999999999999;color:#000000;fill:none;stroke:#303030;stroke-width:1.41884028999999989;marker:none;visibility:visible;display:inline;overflow:visible;enable-background:accumulate;stroke-opacity:1"
       inkscape:connector-curvature="0" />
    <path
       d="m 59.861773,15.595215 c 0,15.173664 -12.474153,27.47435 -27.861785,27.47435 -15.387613,0 -27.861759,-12.300686 -27.861759,-27.47435 0,-15.17366516 12.474146,-27.474355 27.861759,-27.474355 15.387632,0 27.861785,12.30068984 27.861785,27.474355 z"
       id="path3026"
       style="opacity:0.5;color:#000000;fill:none;stroke:url(#linearGradient4338-5-6);stroke-width:1.41884029;stroke-linecap:round;stroke-linejoin:round;stroke-miterlimit:4;stroke-opacity:1;stroke-dasharray:none;stroke-dashoffset:0;marker:none;visibility:visible;display:inline;overflow:visible;enable-background:accumulate"
       inkscape:connector-curvature="0" />
    <path
       d="M 31.979631,-12.097851 A 12.409276,27.693642 0 0 0 29.49289,42.707337"
       id="path3805"
       style="fill:none;stroke:url(#linearGradient4365);stroke-width:1.41884029;stroke-linecap:round;stroke-linejoin:round;stroke-miterlimit:4;stroke-opacity:1;stroke-dasharray:none;stroke-dashoffset:0"
       inkscape:connector-curvature="0" />
    <path
       d="M 37.279882,40.681998 A 12.409276,27.693642 0 0 0 31.99362,-12.097943"
       id="path3609"
       style="opacity:0.8;fill:none;stroke:url(#linearGradient4362);stroke-width:1.41884029;stroke-linecap:round;stroke-linejoin:round;stroke-miterlimit:4;stroke-opacity:1;stroke-dasharray:none;stroke-dashoffset:0"
       inkscape:connector-curvature="0" />
    <path
       d="m 34.962806,39.867746 a 2.6122005,2.575878 0 0 0 5.224401,0 2.6122005,2.575878 0 1 0 -5.224401,0 z"
       id="path3775"
       style="opacity:0.8;color:#000000;fill:#ffffff;fill-opacity:1;fill-rule:nonzero;stroke:#ffffff;stroke-width:1.41944551;stroke-linecap:round;stroke-linejoin:round;stroke-miterlimit:4;stroke-opacity:0.52127662;stroke-dasharray:none;stroke-dashoffset:0;marker:none;visibility:visible;display:inline;overflow:visible;enable-background:accumulate"
       inkscape:connector-curvature="0" />
    <path
       d="M 15.65905,-5.6716027 A 27.890243,12.321801 44.404283 0 1 51.331724,35.652787"
       id="path3801"
       style="fill:none;stroke:url(#linearGradient4358);stroke-width:1.41884029;stroke-linecap:round;stroke-linejoin:round;stroke-miterlimit:4;stroke-opacity:1;stroke-dasharray:none;stroke-dashoffset:0"
       inkscape:connector-curvature="0" />
    <path
       d="M 51.881919,35.177982 A 27.890243,12.321801 44.404283 0 1 10.340608,0.39741333"
       id="path3611"
       style="opacity:0.8;fill:none;stroke:url(#linearGradient4355);stroke-width:1.41884029;stroke-linecap:round;stroke-linejoin:round;stroke-miterlimit:4;stroke-opacity:1;stroke-dasharray:none;stroke-dashoffset:0"
       inkscape:connector-curvature="0" />
    <path
       d="m 13.082672,1.3061593 a 2.6122006,2.5758781 0 0 1 -5.2244009,0 2.6122006,2.5758781 0 1 1 5.2244009,0 z"
       id="path3781"
       style="opacity:0.8;color:#000000;fill:#ffffff;fill-opacity:1;fill-rule:nonzero;stroke:#ffffff;stroke-width:1.41944551;stroke-linecap:round;stroke-linejoin:round;stroke-miterlimit:4;stroke-opacity:0.52127662;stroke-dasharray:none;stroke-dashoffset:0;marker:none;visibility:visible;display:inline;overflow:visible;enable-background:accumulate"
       inkscape:connector-curvature="0" />
    <path
       d="M 52.13332,-3.3112809 A 12.321801,27.890243 45.595717 0 0 10.612791,26.253578"
       id="path3613"
       style="opacity:0.8;fill:none;stroke:url(#linearGradient4351);stroke-width:1.41884029;stroke-linecap:round;stroke-linejoin:round;stroke-miterlimit:4;stroke-opacity:1;stroke-dasharray:none;stroke-dashoffset:0"
       inkscape:connector-curvature="0" />
    <path
       d="m 10.228622,30.566293 a 2.6122004,2.5758779 0 0 0 0,-5.151754 2.6122004,2.5758779 0 1 0 0,5.151754 z"
       id="path3615"
       style="opacity:0.8;fill:#ffffff;fill-opacity:1;stroke:#ffffff;stroke-width:1.41944551;stroke-linecap:round;stroke-linejoin:round;stroke-miterlimit:4;stroke-opacity:0.52127662;stroke-dasharray:none;stroke-dashoffset:0"
       inkscape:connector-curvature="0" />
    <path
       d="M 11.973571,35.344842 A 12.321801,27.890243 45.595717 0 0 52.497204,-2.7778543"
       id="path3787"
       style="fill:none;stroke:url(#linearGradient4347);stroke-width:1.41884029;stroke-linecap:round;stroke-linejoin:round;stroke-miterlimit:4;stroke-opacity:1;stroke-dasharray:none;stroke-dashoffset:0"
       inkscape:connector-curvature="0" />
    <path
       d="M 55.943526,9.1838009 A 28.084151,12.236725 0 0 0 3.969993,16.167816"
       id="path2835"
       style="fill:none;stroke:url(#linearGradient4344);stroke-width:1.41884029;stroke-linecap:round;stroke-linejoin:round;stroke-miterlimit:4;stroke-opacity:1;stroke-dasharray:none;stroke-dashoffset:0"
       inkscape:connector-curvature="0" />
    <path
       d="m 59.045989,9.6785154 a 2.6122004,2.5758779 0 0 0 -5.224395,0 2.6122004,2.5758779 0 1 0 5.224395,0 z"
       id="path3722"
       style="opacity:0.8;color:#000000;fill:#ffffff;fill-opacity:1;fill-rule:nonzero;stroke:#ffffff;stroke-width:1.41944551;stroke-linecap:round;stroke-linejoin:round;stroke-miterlimit:4;stroke-opacity:0.52127662;stroke-dasharray:none;stroke-dashoffset:0;marker:none;visibility:visible;display:inline;overflow:visible;enable-background:accumulate"
       inkscape:connector-curvature="0" />
    <path
       d="M 4.1082925,16.936117 A 28.084151,12.236725 0 0 0 60.060728,16.302113"
       id="path3797"
       style="fill:none;stroke:url(#linearGradient4340);stroke-width:1.41884029;stroke-linecap:round;stroke-linejoin:round;stroke-miterlimit:4;stroke-opacity:1;stroke-dasharray:none;stroke-dashoffset:0"
       inkscape:connector-curvature="0" />
    <path
       d="m 35.12461,39.647789 a 2.5395417,2.5395417 0 0 0 5.079083,0 2.5395417,2.5395417 0 1 0 -5.079083,0 z"
       inkscape:connector-curvature="0"
       id="path3775-8"
       style="color:#000000;fill:#323232;fill-opacity:1;fill-rule:nonzero;stroke:#323232;stroke-width:0.96528524;stroke-linecap:round;stroke-linejoin:round;stroke-miterlimit:4;stroke-opacity:0.58431373;stroke-dasharray:none;stroke-dashoffset:0;marker:none;visibility:visible;display:inline;overflow:visible;enable-background:accumulate" />
    <path
       style="fill:url(#radialGradient4168);fill-opacity:1;stroke:none"
       d="m 24.456372,-11.083925 0.796158,-0.636925 1.433085,-0.477696 1.990394,-0.477694 2.706936,-0.159231 1.751548,0.238848 3.343864,0.238848 3.184637,0.71654 0.875769,0.55731 -0.557311,1.2738549 -1.990389,3.1050169 -0.796163,2.5477052 -1.114621,3.105017 c 0,0 -0.398076,2.308858 -0.398076,2.7865536 0,0.4776965 -0.159233,3.4234795 -0.159233,3.4234795 l 1.353472,3.9807908 3.025393,6.8469591 3.105021,5.413875 1.99039,3.42348 1.43309,2.786553 0.318458,2.786554 0.398085,2.229242 -0.398085,2.706937 -0.159224,1.831165 -0.875779,1.910777 -1.114621,1.831166 -1.273855,0.955388 -2.945777,1.114622 -3.264254,0.557311 -4.856559,0.477695 -3.184638,-0.238848 -2.308856,-0.159232 1.353469,-2.07001 1.751549,-2.786553 0.796151,-3.184632 0.238852,-2.945786 -0.238852,-3.503095 -0.796151,-2.706938 -1.831165,-3.662327 -1.990397,-3.582712 -1.910779,-2.945786 -2.070012,-3.582709 -1.5127,-3.9807901 c 0,0 -0.875773,-2.7069382 -1.035005,-3.1846318 C 19.360958,4.9984716 19.122112,2.2915328 19.122112,2.2915328 l 0.875774,-4.2196372 1.273853,-3.9011764 z"
       id="path3152"
       inkscape:connector-curvature="0" />
    <path
       style="opacity:0.36637932;fill:none;stroke:#ffffff;stroke-width:1.29297149;stroke-linecap:square;stroke-linejoin:round;stroke-miterlimit:4;stroke-opacity:1;stroke-dasharray:none;stroke-dashoffset:0;marker:none;visibility:visible;display:block;overflow:visible"
       id="path4820-2"
       inkscape:connector-curvature="0"
       d="m 20.291063,2.2915348 c 4.740733,0 9.481469,0 14.222186,0" />
    <path
       d="m 25.227244,16.542764 c 4.740729,0 9.481465,0 14.222182,0"
       inkscape:connector-curvature="0"
       id="path3982"
       style="opacity:0.36637932;fill:none;stroke:#ffffff;stroke-width:1.29297149;stroke-linecap:square;stroke-linejoin:round;stroke-miterlimit:4;stroke-opacity:1;stroke-dasharray:none;stroke-dashoffset:0;marker:none;visibility:visible;display:block;overflow:visible" />
    <path
       style="opacity:0.36637932;fill:none;stroke:#ffffff;stroke-width:1.29297149;stroke-linecap:square;stroke-linejoin:round;stroke-miterlimit:4;stroke-opacity:1;stroke-dasharray:none;stroke-dashoffset:0;marker:none;visibility:visible;display:block;overflow:visible"
       id="path3984"
       inkscape:connector-curvature="0"
       d="m 31.755737,30.634762 c 4.740735,0 9.481472,0 14.22219,0" />
    <path
       style="fill:#323232;fill-opacity:1"
       d="M 29.227099,44.249212 C 26.950941,44.095348 25.730783,43.884669 23.961238,43.339975 L 22.82918,42.99151 23.60456,42.342645 C 27.179501,39.351022 28.491897,36.081653 28.040275,31.292627 27.724607,27.945238 27.374902,26.961971 25.214974,23.348716 24.440037,22.052355 23.223527,19.908283 22.511617,18.584112 21.79971,17.259943 20.94712,15.726896 20.616974,15.177343 19.811548,13.836651 17.835492,9.5025485 17.372901,8.0620881 16.486885,5.3031292 16.348235,1.1518235 17.054112,-1.4828588 c 0.779644,-2.9100207 2.094685,-5.8026841 3.936975,-8.6600682 l 0.756676,-1.173601 1.672768,-0.552928 c 2.986629,-0.987221 5.410951,-1.370165 8.628003,-1.362875 3.848875,0.0088 6.865004,0.559032 10.278263,1.875322 l 1.420403,0.547765 -0.427152,0.56328 c -0.790463,1.0423885 -2.301755,3.5879655 -2.642518,4.450973 -0.185869,0.470759 -0.508371,1.1899718 -0.716662,1.5982517 -0.20829,0.4082799 -0.661949,1.7886744 -1.008134,3.0675436 -0.581965,2.149891 -0.626401,2.4933048 -0.589384,4.554459 0.05151,2.869902 0.345183,3.8217958 2.707863,8.7782177 1.758238,3.688432 2.273975,4.638002 5.160583,9.501572 3.540044,5.964527 3.846652,6.938129 3.665505,11.639257 -0.12254,3.179984 -0.463052,4.570985 -1.428911,5.837311 -1.013427,1.328652 -5.826186,3.61346 -9.347949,4.437836 -3.400995,0.796103 -5.477306,0.928271 -9.893342,0.629755 z m 7.460385,-0.968794 c 1.675434,-0.261407 3.927186,-0.862431 5.659717,-1.510653 0.812703,-0.304074 1.174952,-0.580512 1.826925,-1.394194 0.961339,-1.199757 1.786485,-2.793168 2.145959,-4.143943 0.260255,-0.977943 0.373593,-5.203356 0.154858,-5.773358 -0.09633,-0.251035 -0.932542,-0.282095 -7.594569,-0.282095 l -7.486317,0 0.12047,1.649639 c 0.159674,2.186598 -0.126854,4.112877 -0.890375,5.98563 -0.738642,1.811763 -1.914474,3.908815 -2.718133,4.847713 l -0.583838,0.682085 1.560652,0.114397 c 0.858355,0.06292 1.72115,0.14397 1.917328,0.180117 0.64225,0.118341 4.245142,-0.09912 5.887323,-0.355338 z m -9.934158,-1.193716 c 0.082,-0.432999 -0.794331,-0.636405 -1.161206,-0.269532 -0.385764,0.385764 -0.120295,0.694336 0.541906,0.629891 0.360407,-0.03507 0.582135,-0.164094 0.6193,-0.360359 z m 1.276089,-1.46986 c 0.301836,-0.363688 0.07745,-0.632001 -0.528534,-0.632001 -0.282682,0 -0.56574,0.08377 -0.629016,0.186151 -0.15713,0.254245 0.245218,0.705548 0.629016,0.705548 0.172153,0 0.409993,-0.116864 0.528534,-0.259698 z m 1.026915,-2.080447 c 0.344158,-0.344154 0.04592,-0.691626 -0.593662,-0.691626 -0.467878,0 -0.605109,0.07416 -0.605109,0.326955 0,0.179827 0.0535,0.380459 0.118894,0.445848 0.18864,0.188643 0.860566,0.138132 1.079877,-0.08117 z m 18.686072,-0.245777 c 0,-0.260295 -0.138411,-0.372495 -0.512157,-0.415206 -0.657721,-0.07516 -0.966177,0.209015 -0.645834,0.595003 0.336809,0.405835 1.157991,0.278333 1.157991,-0.179797 z M 29.908464,35.972205 c 0,-0.260293 -0.138407,-0.372494 -0.512162,-0.415206 -0.598724,-0.06842 -0.919128,0.181189 -0.761118,0.592948 0.172129,0.44856 1.27328,0.294847 1.27328,-0.177742 z m 18.547298,0 c 0,-0.260869 -0.138519,-0.37249 -0.515661,-0.415546 -0.580266,-0.06623 -0.905091,0.278746 -0.604022,0.641507 0.305526,0.368132 1.119683,0.203831 1.119683,-0.225961 z M 30.265137,33.653793 c 0,-0.260294 -0.138398,-0.372495 -0.512154,-0.415206 -0.598729,-0.06841 -0.919134,0.181187 -0.761125,0.592947 0.17213,0.448562 1.273279,0.294848 1.273279,-0.177741 z m 18.60429,-0.04458 c 0.04976,-0.34984 -0.0221,-0.401264 -0.560518,-0.401264 -0.657158,0 -0.95253,0.345165 -0.598406,0.699291 0.348506,0.348506 1.094349,0.156708 1.158924,-0.298027 z M 30.454059,31.58578 c 0.06645,-0.107499 -0.0027,-0.318536 -0.152724,-0.46897 -0.377465,-0.377469 -1.195399,-0.164574 -1.195399,0.31114 0,0.283703 0.120857,0.353283 0.61366,0.353283 0.337511,0 0.668027,-0.08795 0.734463,-0.195453 z M 49.07995,31.427946 c 0,-0.475713 -0.817944,-0.688608 -1.195398,-0.31114 -0.384523,0.38451 -0.139434,0.664423 0.581745,0.664423 0.492798,0 0.613653,-0.06958 0.613653,-0.353283 z M 30.091631,29.276665 c 0.153291,-0.248025 -0.241985,-0.706242 -0.606267,-0.702815 -0.46886,0.0045 -0.796557,0.295858 -0.67852,0.603458 0.123568,0.322028 1.100475,0.397575 1.284787,0.09936 z m 18.599454,-0.215112 c -0.06504,-0.457518 -0.729465,-0.642038 -1.126237,-0.312745 -0.407306,0.338032 -0.109411,0.714009 0.565718,0.714009 0.538377,0 0.610216,-0.05143 0.560519,-0.401264 z M 45.95917,27.727545 c -0.33682,-1.176031 -0.505796,-1.493834 -3.794839,-7.137113 l -2.416616,-4.146391 -7.46096,0 c -4.103534,0 -7.460967,0.04629 -7.460967,0.102867 0,0.154898 1.726721,3.236562 3.389851,6.049842 1.784336,3.018313 2.606368,4.69142 2.764322,5.626339 l 0.118409,0.700863 7.519491,0.0465 c 4.135718,0.02558 7.545709,-0.01208 7.577757,-0.08371 0.03205,-0.07162 -0.07437,-0.593261 -0.236448,-1.159205 z m -16.853234,-0.67231 c 0.177125,-0.213422 0.177125,-0.321596 0,-0.535019 -0.276508,-0.333169 -0.548108,-0.338492 -0.984634,-0.01931 -0.288408,0.210891 -0.303657,0.291337 -0.101419,0.535019 0.298794,0.360026 0.79594,0.368859 1.086053,0.01931 z m 18.443537,0.159259 c 0.38873,-0.149166 0.355147,-0.736227 -0.04946,-0.864645 -0.472277,-0.149895 -0.916816,0.06446 -0.916816,0.442095 0,0.432809 0.439136,0.624836 0.966279,0.42255 z M 28.003717,24.335558 c 0.04828,-0.339888 -0.02512,-0.401263 -0.479907,-0.401263 -0.589882,0 -0.824062,0.227385 -0.663934,0.644672 0.168162,0.438219 1.074424,0.245368 1.143841,-0.243409 z m 18.668648,0.04458 c 0,-0.260293 -0.138397,-0.372494 -0.512153,-0.415207 -0.59873,-0.06841 -0.919135,0.181189 -0.761126,0.592947 0.17213,0.448563 1.273279,0.294849 1.273279,-0.17774 z m -20.007028,-2.11833 c 0.127162,-0.331379 -0.216387,-0.645921 -0.705485,-0.645921 -0.458884,0 -0.675212,0.257638 -0.531276,0.632729 0.126658,0.330066 1.111135,0.340567 1.236761,0.01319 z m 18.580314,-0.200073 c 0,-0.260293 -0.138398,-0.372494 -0.512162,-0.415206 -0.598722,-0.06841 -0.919126,0.18119 -0.761116,0.592948 0.172128,0.448561 1.273278,0.294846 1.273278,-0.177742 z M 25.449976,19.743319 c 0,-0.260293 -0.138401,-0.372494 -0.512158,-0.415207 -0.657724,-0.07516 -0.966179,0.209016 -0.645838,0.595005 0.336814,0.405834 1.157996,0.278333 1.157996,-0.179798 z m 18.368961,0 c 0,-0.260293 -0.138407,-0.372494 -0.512162,-0.415207 -0.657719,-0.07516 -0.966174,0.209016 -0.645832,0.595005 0.336809,0.405834 1.157994,0.278333 1.157994,-0.179798 z M 23.901909,17.291152 c -0.04463,-0.314291 -0.172951,-0.401264 -0.592005,-0.401264 -0.419055,0 -0.547369,0.08697 -0.592006,0.401264 -0.05014,0.353055 0.02097,0.401265 0.592006,0.401265 0.571024,0 0.642148,-0.04821 0.592005,-0.401265 z m 18.368963,0 c -0.04466,-0.314291 -0.172949,-0.401264 -0.592006,-0.401264 -0.419056,0 -0.547369,0.08697 -0.592012,0.401264 -0.05016,0.353055 0.02097,0.401265 0.592012,0.401265 0.571025,0 0.642151,-0.04821 0.592006,-0.401265 z M 22.596546,15.106494 c 0,-0.260294 -0.138402,-0.372494 -0.512159,-0.415206 -0.598726,-0.06841 -0.919131,0.18119 -0.761123,0.592948 0.172129,0.448562 1.273282,0.294847 1.273282,-0.177742 z m 18.547296,0 c 0,-0.260868 -0.138515,-0.37249 -0.515665,-0.415545 -0.580253,-0.06624 -0.90508,0.278744 -0.604016,0.641504 0.305528,0.368136 1.119681,0.203832 1.119681,-0.225959 z M 37.857995,12.654328 C 35.662726,8.0406152 34.9983,5.9307363 34.993771,3.559019 l -0.0027,-1.3821311 -7.579425,0 -7.579427,0 0,1.2367157 c 0,2.4547068 0.644904,4.4941517 2.893866,9.1515554 l 1.270214,2.630506 7.535419,0 7.535419,0 -1.209204,-2.541337 z m -16.509826,0.133754 c 0,-0.260294 -0.138401,-0.372494 -0.512158,-0.415206 -0.598726,-0.06841 -0.91913,0.181189 -0.761124,0.592949 0.172129,0.44856 1.273282,0.294846 1.273282,-0.177743 z m 18.5473,0 c 0,-0.26087 -0.138514,-0.372491 -0.515664,-0.415544 -0.545371,-0.06226 -0.852439,0.217564 -0.693449,0.631897 0.06033,0.157305 0.300063,0.228785 0.652271,0.194512 0.419885,-0.04086 0.556842,-0.141911 0.556842,-0.410865 z M 20.156782,10.335915 c -0.04463,-0.31429 -0.172951,-0.401262 -0.592006,-0.401262 -0.419054,0 -0.547371,0.086971 -0.592007,0.401262 -0.05015,0.353056 0.02097,0.401265 0.592007,0.401265 0.571024,0 0.642148,-0.04821 0.592006,-0.401265 z m 18.723628,0.0063 c 0.08203,-0.4329987 -0.794334,-0.636405 -1.161209,-0.269531 -0.385767,0.385764 -0.120298,0.694333 0.541905,0.629889 0.360409,-0.03507 0.582134,-0.164094 0.619304,-0.360358 z M 19.386437,8.1512843 c 0,-0.2608704 -0.138516,-0.3724901 -0.515668,-0.4155457 -0.580259,-0.066228 -0.905084,0.2787454 -0.604017,0.6415054 0.305522,0.3681332 1.119685,0.2038315 1.119685,-0.2259597 z m 18.62999,0.1861504 c 0.301828,-0.3636877 0.07744,-0.6319993 -0.52854,-0.6319993 -0.563317,0 -0.799539,0.2315256 -0.64559,0.632729 0.128573,0.3350599 0.89584,0.3345847 1.17413,-7.133e-4 z M 18.673079,5.8328709 c 0,-0.2608684 -0.138515,-0.37249 -0.515667,-0.4155437 -0.580259,-0.066238 -0.905084,0.2787434 -0.604018,0.6415034 0.305524,0.3681348 1.119685,0.2038316 1.119685,-0.2259597 z m 18.725637,0 c 0,-0.260293 -0.138399,-0.3724939 -0.512154,-0.4152048 -0.59873,-0.06842 -0.919135,0.1811897 -0.761125,0.5929476 0.172128,0.4485613 1.273279,0.2948463 1.273279,-0.1777428 z M 18.577425,3.70061 C 18.695966,3.5577776 18.741184,3.3571469 18.677906,3.2547621 18.493597,2.9565449 17.516692,3.032091 17.393119,3.3541188 17.186779,3.891829 18.178041,4.1818412 18.577425,3.70061 z M 37.277363,3.4698749 c 0.04971,-0.3498396 -0.02214,-0.4012633 -0.560516,-0.4012633 -0.65716,0 -0.952532,0.3451648 -0.598407,0.6992893 0.348509,0.3485076 1.094343,0.1567083 1.158923,-0.298026 z M 18.908406,0.88395295 c -0.04463,-0.31429204 -0.172952,-0.40126424 -0.592007,-0.40126424 -0.419055,0 -0.547369,0.0869726 -0.592006,0.40126424 -0.05015,0.35305505 0.02097,0.40126335 0.592006,0.40126335 0.571025,0 0.642149,-0.048207 0.592007,-0.40126335 z M 37.608645,0.99970998 C 37.735814,0.66831601 37.389657,0.40016359 36.829636,0.3962504 c -0.450283,-0.003185 -0.665642,0.2565921 -0.522354,0.6299982 0.137784,0.3590668 1.161399,0.3381915 1.301363,-0.0265357 z m -2.153218,-1.76542274 c 0.748502,-3.03370554 2.237598,-6.44506014 4.011171,-9.18911884 0.395816,-0.6124014 0.654234,-1.1743054 0.574266,-1.2486794 -0.475288,-0.442042 -5.69841,-1.258305 -8.093414,-1.26483 -2.487633,-0.0067 -5.945166,0.611748 -6.49412,1.161747 -0.599959,0.601097 -2.920477,4.6245995 -3.688594,6.3955851 -0.691769,1.5949524 -1.410624,3.8487876 -1.64982,5.17268986 l -0.121182,0.67071489 7.53284,-0.0465272 7.532839,-0.0465271 0.396014,-1.60505411 z M 19.426002,-1.0549547 c 0.3202,-0.3201966 0.05492,-0.6916248 -0.49397,-0.6916248 -0.555464,0 -0.79032,0.2332688 -0.637034,0.632728 0.117567,0.30636898 0.845622,0.34428241 1.131004,0.058902 z m 18.686071,-0.2457761 c 0,-0.260294 -0.138399,-0.3724967 -0.512154,-0.4152068 -0.598731,-0.06842 -0.919134,0.1811899 -0.761124,0.5929496 0.172127,0.44855936 1.273278,0.29484645 1.273278,-0.1777428 z M 20.156782,-3.7528983 C 20.087532,-4.240515 19.291938,-4.399176 18.954554,-3.99265 c -0.325745,0.3924975 -0.08027,0.6410159 0.633151,0.6410159 0.547246,0 0.618891,-0.050513 0.569077,-0.4012642 z m 18.679228,0.2058114 c 0.06645,-0.1075 -0.0027,-0.3185384 -0.152725,-0.4689713 -0.377464,-0.377469 -1.195398,-0.1645734 -1.195398,0.3111423 0,0.2837031 0.120866,0.3532818 0.61366,0.3532818 0.337521,0 0.668027,-0.087957 0.734463,-0.1954528 z M 20.99149,-6.1158972 c 0,-0.4172243 -0.683188,-0.5885624 -1.069251,-0.2681591 -0.411406,0.3414359 -0.110878,0.7396768 0.512414,0.6790251 0.419882,-0.04086 0.556837,-0.1419114 0.556837,-0.410866 z m 18.725639,0 c 0,-0.239327 -0.138786,-0.3763155 -0.42183,-0.4163632 -0.514136,-0.072744 -0.823942,0.2010477 -0.672901,0.5946582 0.168293,0.4385676 1.094731,0.287682 1.094731,-0.178295 z M 22.118517,-8.3005539 c 0.04996,-0.3518262 -0.02144,-0.4012647 -0.579604,-0.4012647 -0.498409,0 -0.636593,0.070982 -0.636593,0.3269562 0,0.454879 0.180359,0.5897245 0.706686,0.5283449 0.313059,-0.036517 0.470085,-0.1764387 0.509511,-0.4540364 z m 18.668651,0.044577 c 0,-0.260293 -0.138408,-0.3724959 -0.512161,-0.4152071 -0.598724,-0.068422 -0.919127,0.1811892 -0.761126,0.592949 0.172137,0.4485612 1.273287,0.2948463 1.273287,-0.1777419 z m 1.07003,-1.7833951 c 0,-0.239328 -0.138785,-0.376316 -0.42183,-0.416365 -0.514124,-0.07274 -0.823938,0.201049 -0.672899,0.5946609 0.168293,0.4385659 1.094729,0.2876808 1.094729,-0.1782959 z M 23.309904,-10.21771 c 0,-0.472414 -1.05416,-0.620152 -1.226191,-0.171848 -0.173065,0.4509979 0.04548,0.6431346 0.663324,0.5831617 0.425761,-0.041334 0.562867,-0.1415172 0.562867,-0.4113137 z"
       id="path3150"
       inkscape:connector-curvature="0" />
    <path
       style="fill:none;stroke:url(#linearGradient4170);stroke-width:0.87888396px;stroke-linecap:butt;stroke-linejoin:miter;stroke-opacity:1"
       d="m 25.639889,-10.887852 2.107088,-0.615553 2.408098,-0.369331 2.046885,-0.12311 2.588704,0.307775 2.227493,0.307777 2.459637,0.614739 c -0.979884,1.8971018 -1.885362,3.3401075 -2.887552,5.1066432 -0.267453,0.6600533 -0.423752,1.3602547 -0.662228,2.031322 -0.242977,0.6837357 -0.648619,1.395242 -0.844999,2.1560606 -0.456798,1.33553382 -0.650099,2.25832041 -0.653565,3.4487189 0.09089,1.398011 0.03055,1.686359 0.120405,2.5237623 0.0777,0.7240122 0.204949,1.4432298 0.361214,2.1544326 0.196265,0.8932576 0.72243,2.6468754 0.72243,2.6468754 l 1.083645,2.708428 1.023443,1.969766 1.745869,3.323981 2.173787,3.508649 1.859778,3.323981 c 0,0 1.264253,1.969767 1.324455,2.277543 0.0602,0.307778 0.662226,1.908212 0.662226,1.908212 0,0 0.421419,2.585319 0.421419,2.83154 0,0.24622 0.191435,2.827474 0.191435,2.827474 l -0.341722,2.694607 c 0,0 -0.771811,1.784955 -1.378159,2.529456 -0.904878,1.11105 -2.143904,1.858853 -2.143904,1.858853 l -3.371339,1.169549 -2.528503,0.36933 -3.311135,0.307777 -3.250933,0.123111 -1.563099,-0.184667 c 0,0 1.590896,-1.91096 2.122248,-2.953024 0.639324,-1.253809 1.307127,-3.94116 1.307127,-3.94116 l 0.421419,-4.678197 -1.083647,-4.924416 -1.866276,-3.631757 -1.625464,-2.893096 -2.58871,-4.062643 c 0,0 -1.725568,-2.95263 -2.363056,-4.431978 -0.768202,-1.7826806 -1.851115,-5.3553024 -1.851115,-5.3553024 0,0 -0.49245,-2.8315396 -0.49245,-3.2624256 0,-0.4308869 0.612853,-3.26242657 0.612853,-3.26242657 0,0 1.052689,-3.12079843 1.732878,-4.61745483 0.896657,-1.9729581 3.08332,-5.7238216 3.08332,-5.7238216 z"
       id="path4005"
       inkscape:connector-curvature="0"
       sodipodi:nodetypes="ccccccccsccssccccccscsccsccccccsccccccsczcac" />
  </g>
</svg>
