<?xml version="1.0" encoding="UTF-8" standalone="no"?>
<!-- Created with Inkscape (http://www.inkscape.org/) -->

<svg
   xmlns:dc="http://purl.org/dc/elements/1.1/"
   xmlns:cc="http://creativecommons.org/ns#"
   xmlns:rdf="http://www.w3.org/1999/02/22-rdf-syntax-ns#"
   xmlns:svg="http://www.w3.org/2000/svg"
   xmlns="http://www.w3.org/2000/svg"
   xmlns:xlink="http://www.w3.org/1999/xlink"
   xmlns:sodipodi="http://sodipodi.sourceforge.net/DTD/sodipodi-0.dtd"
   xmlns:inkscape="http://www.inkscape.org/namespaces/inkscape"
   width="64px"
   height="64px"
   id="svg4117"
   version="1.1"
   inkscape:version="0.48.4 r9939"
   sodipodi:docname="1.svg">
  <defs
     id="defs4119">
    <linearGradient
       id="linearGradient3801">
      <stop
         offset="0"
         style="stop-color:#ffcd7d;stop-opacity:1"
         id="stop3803" />
      <stop
         offset="0.60242438"
         style="stop-color:#fc8f36;stop-opacity:1"
         id="stop3805" />
      <stop
         offset="0.704952"
         style="stop-color:#e23a0e;stop-opacity:1"
         id="stop3807" />
      <stop
         offset="1"
         style="stop-color:#ac441f;stop-opacity:1"
         id="stop3809" />
    </linearGradient>
    <linearGradient
       inkscape:collect="always"
       xlink:href="#linearGradient4806"
       id="linearGradient3264"
       gradientUnits="userSpaceOnUse"
       gradientTransform="matrix(2.3268746,0,0,2.3268746,-135.94475,-32.842783)"
       x1="71.204407"
       y1="15.369057"
       x2="71.204407"
       y2="40.495617" />
    <linearGradient
       id="linearGradient4806">
      <stop
         id="stop4808"
         style="stop-color:#ffffff;stop-opacity:1"
         offset="0" />
      <stop
         id="stop4810"
         style="stop-color:#ffffff;stop-opacity:0.23529412"
         offset="0.42447853" />
      <stop
         id="stop4812"
         style="stop-color:#ffffff;stop-opacity:0.15686275"
         offset="0.82089913" />
      <stop
         id="stop4814"
         style="stop-color:#ffffff;stop-opacity:0.39215687"
         offset="1" />
    </linearGradient>
    <radialGradient
       inkscape:collect="always"
       xlink:href="#linearGradient3801"
       id="radialGradient4068"
       gradientUnits="userSpaceOnUse"
       gradientTransform="matrix(0.01633417,6.5678067,-6.8108434,0.01693806,91.331888,-28.714282)"
       cx="3.7684467"
       cy="8.8391371"
       fx="-6.7988391"
       fy="8.7222691"
       r="19.99999" />
    <linearGradient
       id="linearGradient3846">
      <stop
         id="stop3848"
         style="stop-color:#fff3cb;stop-opacity:1"
         offset="0" />
      <stop
         id="stop3850"
         style="stop-color:#fdde76;stop-opacity:1"
         offset="0.26238" />
      <stop
         id="stop3852"
         style="stop-color:#f9c440;stop-opacity:1"
         offset="0.66093999" />
      <stop
         id="stop3854"
         style="stop-color:#e48b20;stop-opacity:1"
         offset="1" />
    </linearGradient>
    <radialGradient
       inkscape:collect="always"
       xlink:href="#radialGradient3093-0-3-6"
       id="radialGradient3268"
       gradientUnits="userSpaceOnUse"
       gradientTransform="matrix(0,4.1566535,-5.4867089,0,53.892518,-97.439545)"
       cx="23.896"
       cy="3.99"
       fx="23.896"
       fy="3.99"
       r="20.396999" />
    <radialGradient
       cx="23.896"
       cy="3.99"
       r="20.396999"
       id="radialGradient3093-0-3-6"
       gradientUnits="userSpaceOnUse"
       gradientTransform="matrix(0,1.2316483,-1.625754,0,18.486966,-28.721977)">
      <stop
         id="stop3244-9-33-7-0"
         style="stop-color:#ffffff;stop-opacity:1"
         offset="0" />
      <stop
         id="stop3246-3-5-0-8"
         style="stop-color:#dddddd;stop-opacity:1"
         offset="0.26238" />
      <stop
         id="stop3248-1-7-8-8"
         style="stop-color:#abacae;stop-opacity:1"
         offset="0.66093999" />
      <stop
         id="stop3250-9-3-0-5"
         style="stop-color:#89898b;stop-opacity:1"
         offset="1" />
    </radialGradient>
    <linearGradient
       id="linearGradient3820-7-2">
      <stop
         id="stop3822-2-6"
         style="stop-color:#3d3d3d;stop-opacity:1"
         offset="0" />
      <stop
         id="stop3864-8-7"
         style="stop-color:#686868;stop-opacity:0.49803922"
         offset="0.5" />
      <stop
         id="stop3824-1-2"
         style="stop-color:#686868;stop-opacity:0"
         offset="1" />
    </linearGradient>
    <radialGradient
       r="62.769119"
       fy="186.17059"
       fx="99.157013"
       cy="186.17059"
       cx="99.157013"
       gradientTransform="matrix(0.38235362,0,0,0.11948554,-5.913044,34.255311)"
       gradientUnits="userSpaceOnUse"
       id="radialGradient4115"
       xlink:href="#linearGradient3820-7-2"
       inkscape:collect="always" />
    <radialGradient
       cx="3.9722471"
       cy="8.4497671"
       r="19.99999"
       fx="3.9722471"
       fy="8.4497671"
       id="radialGradient3376"
       xlink:href="#linearGradient2867-449-88-871-390-598-476-591-434-148-57-177-8-3-3-6-4-8-8-8"
       gradientUnits="userSpaceOnUse"
       gradientTransform="matrix(0,4.4719019,-4.7307385,-1.2171829e-7,63.973756,-20.017978)" />
    <linearGradient
       id="linearGradient2867-449-88-871-390-598-476-591-434-148-57-177-8-3-3-6-4-8-8-8">
      <stop
         id="stop3750-1-0-7-6-6-1-3-9"
         style="stop-color:#ffcd7d;stop-opacity:1"
         offset="0" />
      <stop
         id="stop3752-3-7-4-0-32-8-923-0"
         style="stop-color:#fc8f36;stop-opacity:1"
         offset="0.26238" />
      <stop
         id="stop3754-1-8-5-2-7-6-7-1"
         style="stop-color:#e23a0e;stop-opacity:1"
         offset="0.704952" />
      <stop
         id="stop3756-1-6-2-6-6-1-96-6"
         style="stop-color:#ac441f;stop-opacity:1"
         offset="1" />
    </linearGradient>
    <radialGradient
       r="19.99999"
       fy="8.4497671"
       fx="3.9722471"
       cy="8.4497671"
       cx="3.9722471"
       gradientTransform="matrix(0,4.4719019,-4.7307385,-1.2171829e-7,13.791938,-16.563432)"
       gradientUnits="userSpaceOnUse"
       id="radialGradient3028"
       xlink:href="#linearGradient2867-449-88-871-390-598-476-591-434-148-57-177-8-3-3-6-4-8-8-8"
       inkscape:collect="always" />
    <linearGradient
       x1="167.98311"
       y1="6.8325434"
       x2="167.98311"
       y2="61.692036"
       id="linearGradient3342-1"
       xlink:href="#linearGradient5803-1"
       gradientUnits="userSpaceOnUse"
       gradientTransform="matrix(0.95589632,0,0,0.95589632,-137.43476,-15.943508)" />
    <linearGradient
       id="linearGradient5803-1">
      <stop
         id="stop5805-6"
         style="stop-color:#fff5ef;stop-opacity:1"
         offset="0" />
      <stop
         id="stop5807-3"
         style="stop-color:#fef8dd;stop-opacity:1"
         offset="1" />
    </linearGradient>
    <linearGradient
       inkscape:collect="always"
       xlink:href="#linearGradient5803-1"
       id="linearGradient3849"
       gradientUnits="userSpaceOnUse"
       gradientTransform="matrix(0.98320772,0,0,0.98320772,-127.36146,-2.3990373)"
       x1="167.98311"
       y1="6.8325434"
       x2="167.98311"
       y2="61.692036" />
    <radialGradient
       cx="3.9722471"
       cy="8.4497671"
       r="19.99999"
       fx="3.9722471"
       fy="8.4497671"
       id="radialGradient3376-3"
       xlink:href="#linearGradient2867-449-88-871-390-598-476-591-434-148-57-177-8-3-3-6-4-8-8-8-8"
       gradientUnits="userSpaceOnUse"
       gradientTransform="matrix(0,4.4719019,-4.7307385,-1.2171829e-7,63.973756,-20.017978)" />
    <linearGradient
       id="linearGradient2867-449-88-871-390-598-476-591-434-148-57-177-8-3-3-6-4-8-8-8-8">
      <stop
         id="stop3750-1-0-7-6-6-1-3-9-0"
         style="stop-color:#ffcd7d;stop-opacity:1"
         offset="0" />
      <stop
         id="stop3752-3-7-4-0-32-8-923-0-7"
         style="stop-color:#fc8f36;stop-opacity:1"
         offset="0.26238" />
      <stop
         id="stop3754-1-8-5-2-7-6-7-1-1"
         style="stop-color:#e23a0e;stop-opacity:1"
         offset="0.704952" />
      <stop
         id="stop3756-1-6-2-6-6-1-96-6-5"
         style="stop-color:#ac441f;stop-opacity:1"
         offset="1" />
    </linearGradient>
    <radialGradient
       r="19.99999"
       fy="8.4497671"
       fx="3.9722471"
       cy="8.4497671"
       cx="3.9722471"
       gradientTransform="matrix(0,6.4351758,-6.807648,-1.7515559e-7,89.523209,-31.342943)"
       gradientUnits="userSpaceOnUse"
       id="radialGradient3028-9"
       xlink:href="#linearGradient2867-449-88-871-390-598-476-591-434-148-57-177-8-3-3-6-4-8-8-8-3"
       inkscape:collect="always" />
    <linearGradient
       x1="167.98311"
       y1="6.8325434"
       x2="167.98311"
       y2="61.692036"
       id="linearGradient3342-1-1"
       xlink:href="#linearGradient5803-1-4"
       gradientUnits="userSpaceOnUse"
       gradientTransform="matrix(1.0157509,0,0,1.0015741,-132.6154,-2.049856)" />
    <linearGradient
       id="linearGradient5803-1-4">
      <stop
         id="stop5805-6-2"
         style="stop-color:#fff5ef;stop-opacity:1"
         offset="0" />
      <stop
         id="stop5807-3-4"
         style="stop-color:#fef8dd;stop-opacity:1"
         offset="1" />
    </linearGradient>
    <radialGradient
       cx="3.9722471"
       cy="8.4497671"
       r="19.99999"
       fx="3.9722471"
       fy="8.4497671"
       id="radialGradient3376-2"
       xlink:href="#linearGradient2867-449-88-871-390-598-476-591-434-148-57-177-8-3-3-6-4-8-8-8-3"
       gradientUnits="userSpaceOnUse"
       gradientTransform="matrix(0,4.4719019,-4.7307385,-1.2171829e-7,63.973756,-20.017978)" />
    <linearGradient
       id="linearGradient2867-449-88-871-390-598-476-591-434-148-57-177-8-3-3-6-4-8-8-8-3">
      <stop
         id="stop3750-1-0-7-6-6-1-3-9-6"
         style="stop-color:#a8ff7d;stop-opacity:1;"
         offset="0" />
      <stop
         id="stop3752-3-7-4-0-32-8-923-0-0"
         style="stop-color:#26cf23;stop-opacity:1;"
         offset="0.26238" />
      <stop
         id="stop3754-1-8-5-2-7-6-7-1-7"
         style="stop-color:#229423;stop-opacity:1;"
         offset="0.704952" />
      <stop
         id="stop3756-1-6-2-6-6-1-96-6-1"
         style="stop-color:#025100;stop-opacity:1;"
         offset="1" />
    </linearGradient>
    <radialGradient
       r="19.99999"
       fy="8.4497671"
       fx="3.9722471"
       cy="8.4497671"
       cx="3.9722471"
       gradientTransform="matrix(0,4.4719019,-4.7307385,-1.2171829e-7,18.973756,5.982022)"
       gradientUnits="userSpaceOnUse"
       id="radialGradient3034"
       xlink:href="#linearGradient2867-449-88-871-390-598-476-591-434-148-57-177-8-3-3-6-4-8-8-8-3"
       inkscape:collect="always" />
  </defs>
  <sodipodi:namedview
     id="base"
     pagecolor="#ffffff"
     bordercolor="#666666"
     borderopacity="1.0"
     inkscape:pageopacity="0.0"
     inkscape:pageshadow="2"
     inkscape:zoom="12.640625"
     inkscape:cx="13.59567"
     inkscape:cy="16.177998"
     inkscape:current-layer="layer1"
     showgrid="true"
     inkscape:document-units="px"
     inkscape:grid-bbox="true"
     inkscape:window-width="1390"
     inkscape:window-height="941"
     inkscape:window-x="530"
     inkscape:window-y="35"
     inkscape:window-maximized="0">
    <inkscape:grid
       type="xygrid"
       id="grid3851" />
  </sodipodi:namedview>
  <metadata
     id="metadata4122">
    <rdf:RDF>
      <cc:Work
         rdf:about="">
        <dc:format>image/svg+xml</dc:format>
        <dc:type
           rdf:resource="http://purl.org/dc/dcmitype/StillImage" />
        <dc:title></dc:title>
      </cc:Work>
    </rdf:RDF>
  </metadata>
  <g
     id="layer1"
     inkscape:label="Layer 1"
     inkscape:groupmode="layer">
    <path
       inkscape:connector-curvature="0"
       style="fill:url(#radialGradient4115);fill-opacity:1;stroke:none"
       id="path3818-0"
       d="m 55.999998,56.499998 a 24,7.4999998 0 1 1 -47.999999,0 24,7.4999998 0 1 1 47.999999,0 z" />
    <path
       inkscape:connector-curvature="0"
       style="color:#000000;fill:url(#radialGradient3268);fill-opacity:1;fill-rule:nonzero;stroke:none;stroke-width:0.99999994;marker:none;visibility:visible;display:inline;overflow:visible;enable-background:accumulate"
       id="path2555-7"
       d="m 32,2.4999996 c -16.277082,0 -29.5,13.2229144 -29.5,29.4999974 0,16.277083 13.222918,29.500005 29.5,29.5 16.27708,0 29.50001,-13.222917 29.5,-29.5 C 61.5,15.722914 48.27708,2.4999996 32,2.4999996 z" />
    <path
       inkscape:connector-curvature="0"
       style="opacity:0.3;color:#000000;fill:none;stroke:#000000;stroke-width:1;stroke-linecap:round;stroke-linejoin:round;stroke-miterlimit:4;stroke-opacity:1;stroke-dasharray:none;stroke-dashoffset:0;marker:none;visibility:visible;display:inline;overflow:visible;enable-background:accumulate"
       id="path2555-7-1"
       d="m 32,2.4999992 c -16.277082,0 -29.5,13.2229148 -29.5,29.4999978 0,16.277083 13.222918,29.500005 29.5,29.5 16.27708,0 29.50001,-13.222917 29.5,-29.5 C 61.5,15.722914 48.27708,2.4999992 32,2.4999992 z" />
    <path
       d="M 32.000004,2.499998 C 15.722922,2.499998 2.5,15.722913 2.5,31.999997 2.5,48.277081 15.722922,61.500004 32.000004,61.5 48.277079,61.5 61.500016,48.277081 61.5,31.999997 61.5,15.722913 48.277079,2.499998 32.000004,2.499998 z"
       inkscape:connector-curvature="0"
       id="path2555"
       style="color:#000000;fill:url(#radialGradient3028-9);fill-opacity:1.0;fill-rule:nonzero;stroke:none;stroke-width:1;marker:none;visibility:visible;display:inline;overflow:visible;enable-background:accumulate" />
    <path
       inkscape:connector-curvature="0"
       style="opacity:0.8;color:#000000;fill:none;stroke:url(#linearGradient3264);stroke-width:1;stroke-linecap:round;stroke-linejoin:round;stroke-miterlimit:4;stroke-opacity:1;stroke-dasharray:none;stroke-dashoffset:0;marker:none;visibility:visible;display:inline;overflow:visible;enable-background:accumulate"
       id="path3019"
       d="m 60.50001,31.999999 c 0,15.740115 -12.7599,28.499999 -28.50002,28.499999 -15.740099,0 -28.499991,-12.759884 -28.499991,-28.499999 0,-15.740116 12.759892,-28.5000011 28.499991,-28.5000011 15.74012,0 28.50002,12.7598851 28.50002,28.5000011 z" />
    <path
       inkscape:connector-curvature="0"
       style="opacity:0.50000000000000000;color:#000000;fill:none;stroke:#006c1c;stroke-width:0.99999994000000003;stroke-linecap:round;stroke-linejoin:round;stroke-miterlimit:4;stroke-opacity:1;stroke-dasharray:none;stroke-dashoffset:0;marker:none;visibility:visible;display:inline;overflow:visible;enable-background:accumulate"
       id="path2555-7-1-7"
       d="m 32,2.499998 c -16.277084,0 -29.500001,13.222915 -29.500001,29.499999 0,16.277085 13.222917,29.500009 29.500001,29.500002 16.277083,0 29.50002,-13.222917 29.5,-29.500002 C 61.5,15.722913 48.277083,2.499998 32,2.499998 z" />
    <path
       d="m 32.000334,14.655517 c -8.631497,0 -15.878849,5.852803 -17.949421,13.736461 a 1.4233631,1.4034972 0 0 0 1.384159,1.761085 l 4.241779,0 a 1.4233631,1.4034972 0 0 0 1.339509,-0.968597 c 1.575775,-4.473434 5.891971,-7.660718 10.983974,-7.660718 3.048648,0 5.698891,1.2869 7.769153,3.169952 l -4.509681,4.446739 a 1.4233631,1.4034972 0 0 0 1.026957,2.421492 l 12.859286,0 a 1.4233631,1.4034972 0 0 0 1.42881,-1.408868 l 0,-12.67981 A 1.4233631,1.4034972 0 0 0 48.119092,16.460629 L 44.72567,19.80669 C 41.398551,16.672713 36.954577,14.655517 32.000334,14.655517 z M 14.720667,35.788533 a 1.4233631,1.4034972 0 0 0 -1.294859,1.408869 l 0,12.67981 a 1.4233631,1.4034972 0 0 0 2.455767,1.012624 l 4.241778,-4.182577 c 3.229233,2.724806 7.294645,4.578821 11.876981,4.578821 8.631496,0 15.878849,-5.852803 17.949422,-13.736462 a 1.4233631,1.4034972 0 0 0 -1.38416,-1.761085 l -4.241778,0 a 1.4233631,1.4034972 0 0 0 -1.33951,0.968597 c -1.575775,4.473435 -5.891971,7.660719 -10.983974,7.660719 -2.672793,0 -5.00315,-1.049366 -6.965447,-2.553572 l 3.705975,-3.654252 a 1.4233631,1.4034972 0 0 0 -1.026957,-2.421492 l -12.859287,0 a 1.4233631,1.4034972 0 0 0 -0.133951,0 z"
       inkscape:connector-curvature="0"
       id="path4451"
       style="opacity:0.14999999999999999;color:#000000;fill:#025100;fill-opacity:1;fill-rule:nonzero;stroke:none;stroke-width:1;marker:none;visibility:visible;display:inline;overflow:visible;enable-background:accumulate" />
    <path
       d="m 32.000334,16.064385 c -7.980349,0 -14.653358,5.400277 -16.565262,12.67981 l 4.241779,0 c 1.771028,-5.027731 6.62348,-8.629315 12.323483,-8.629315 3.964294,0 7.519507,1.738395 9.912367,4.490766 l -5.625938,5.547417 12.859286,0 0,-12.67981 -4.331079,4.27063 C 41.684267,18.251648 37.10048,16.064385 32.000334,16.064385 z m -17.145716,21.133017 0,12.67981 5.045485,-4.975064 c 3.093612,3.070596 7.361898,4.975064 12.100231,4.975064 7.980349,0 14.653358,-5.400278 16.565262,-12.67981 l -4.241778,0 c -1.771029,5.027731 -6.623481,8.629315 -12.323484,8.629315 -3.597312,0 -6.837326,-1.464173 -9.197962,-3.786333 l 4.911533,-4.842982 -12.859287,0 z"
       inkscape:connector-curvature="0"
       id="path4285-6"
       style="opacity:0.29999999999999999;color:#000000;fill:#025100;fill-opacity:1;fill-rule:nonzero;stroke:none;stroke-width:1;marker:none;visibility:visible;display:inline;overflow:visible;enable-background:accumulate" />
    <path
       d="m 32.000334,14.655517 c -7.980349,0 -14.653358,5.400278 -16.565262,12.67981 l 4.241779,0 c 1.771028,-5.02773 6.62348,-8.629315 12.323483,-8.629315 3.964294,0 7.519507,1.738395 9.912367,4.490766 l -5.625938,5.547417 12.859286,0 0,-12.67981 -4.331079,4.27063 C 41.684267,16.84278 37.10048,14.655517 32.000334,14.655517 z m -17.145716,21.133016 0,12.679811 5.045485,-4.975064 c 3.093612,3.070596 7.361898,4.975064 12.100231,4.975064 7.980349,0 14.653358,-5.400277 16.565262,-12.679811 l -4.241778,0 c -1.771029,5.027732 -6.623481,8.629316 -12.323484,8.629316 -3.597312,0 -6.837326,-1.464173 -9.197962,-3.786332 l 4.911533,-4.842984 -12.859287,0 z"
       inkscape:connector-curvature="0"
       id="path4285"
       style="color:#000000;fill:url(#linearGradient3342-1-1);fill-opacity:1;fill-rule:nonzero;stroke:none;stroke-width:1;marker:none;visibility:visible;display:inline;overflow:visible;enable-background:accumulate" />
  </g>
</svg>
