<?xml version="1.0" encoding="UTF-8" standalone="no"?>
<!-- Created with Inkscape (http://www.inkscape.org/) -->

<svg
   xmlns:dc="http://purl.org/dc/elements/1.1/"
   xmlns:cc="http://creativecommons.org/ns#"
   xmlns:rdf="http://www.w3.org/1999/02/22-rdf-syntax-ns#"
   xmlns:svg="http://www.w3.org/2000/svg"
   xmlns="http://www.w3.org/2000/svg"
   xmlns:xlink="http://www.w3.org/1999/xlink"
   xmlns:sodipodi="http://sodipodi.sourceforge.net/DTD/sodipodi-0.dtd"
   xmlns:inkscape="http://www.inkscape.org/namespaces/inkscape"
   version="1.1"
   width="64"
   height="64"
   id="svg4161"
   inkscape:version="0.48.4 r9939"
   sodipodi:docname="totem.svg">
  <sodipodi:namedview
     pagecolor="#ffffff"
     bordercolor="#666666"
     borderopacity="1"
     objecttolerance="10"
     gridtolerance="10"
     guidetolerance="10"
     inkscape:pageopacity="0"
     inkscape:pageshadow="2"
     inkscape:window-width="1731"
     inkscape:window-height="912"
     id="namedview45"
     showgrid="true"
     inkscape:zoom="13.219285"
     inkscape:cx="32.000054"
     inkscape:cy="34.684079"
     inkscape:window-x="368"
     inkscape:window-y="64"
     inkscape:window-maximized="0"
     inkscape:current-layer="layer1">
    <inkscape:grid
       type="xygrid"
       id="grid4321" />
  </sodipodi:namedview>
  <defs
     id="defs4163">
    <linearGradient
       x1="20"
       y1="26.000008"
       x2="20"
       y2="13.000008"
       id="linearGradient4069"
       xlink:href="#linearGradient3680-6-6-6-3-7-1"
       gradientUnits="userSpaceOnUse"
       gradientTransform="matrix(1.326882,0,0,1.326882,-0.399219,-0.2324859)" />
    <linearGradient
       id="linearGradient3680-6-6-6-3-7-1">
      <stop
         id="stop3682-4-6-1-3-7-7"
         style="stop-color:#dcdcdc;stop-opacity:1"
         offset="0" />
      <stop
         id="stop3684-8-5-8-0-2-6"
         style="stop-color:#ffffff;stop-opacity:1"
         offset="1" />
    </linearGradient>
    <linearGradient
       x1="23.99999"
       y1="4.999989"
       x2="23.99999"
       y2="43"
       id="linearGradient3180"
       xlink:href="#linearGradient3924-2-2-5-8"
       gradientUnits="userSpaceOnUse"
       gradientTransform="matrix(1.4324324,0,0,1.4362832,-2.378381,-2.4707781)" />
    <linearGradient
       id="linearGradient3924-2-2-5-8">
      <stop
         id="stop3926-9-4-9-6"
         style="stop-color:#ffffff;stop-opacity:1"
         offset="0" />
      <stop
         id="stop3928-9-8-6-5"
         style="stop-color:#ffffff;stop-opacity:0.23529412"
         offset="0.06316455" />
      <stop
         id="stop3930-3-5-1-7"
         style="stop-color:#ffffff;stop-opacity:0.15686275"
         offset="0.95056331" />
      <stop
         id="stop3932-8-0-4-8"
         style="stop-color:#ffffff;stop-opacity:0.39215687"
         offset="1" />
    </linearGradient>
    <radialGradient
       cx="7.1183534"
       cy="9.9571075"
       r="12.671875"
       fx="7.1183534"
       fy="9.9571075"
       id="radialGradient3988-3"
       xlink:href="#linearGradient2867-449-88-871-390-598-476-591-434-148-57-177-8-3-3-6-4-8-8-8-5"
       gradientUnits="userSpaceOnUse"
       gradientTransform="matrix(0,12.890089,-15.824912,0,190.74237,-113.0978)" />
    <linearGradient
       id="linearGradient2867-449-88-871-390-598-476-591-434-148-57-177-8-3-3-6-4-8-8-8-5-7">
      <stop
         id="stop3750-1-0-7-6-6-1-3-9-3-9"
         style="stop-color:#505050;stop-opacity:1"
         offset="0" />
      <stop
         id="stop3752-3-7-4-0-32-8-923-0-7-0"
         style="stop-color:#2b2b2b;stop-opacity:1"
         offset="0.26238" />
      <stop
         id="stop3754-1-8-5-2-7-6-7-1-9-1"
         style="stop-color:#0a0a0a;stop-opacity:1"
         offset="0.704952" />
      <stop
         id="stop3756-1-6-2-6-6-1-96-6-0-1"
         style="stop-color:#000000;stop-opacity:1"
         offset="1" />
    </linearGradient>
    <radialGradient
       cx="4.9929786"
       cy="43.5"
       r="2.5"
       fx="4.9929786"
       fy="43.5"
       id="radialGradient3337-2-2"
       xlink:href="#linearGradient3688-166-749-4-0-3-8"
       gradientUnits="userSpaceOnUse"
       gradientTransform="matrix(2.003784,0,0,1.4,27.98813,-17.4)" />
    <linearGradient
       id="linearGradient3688-166-749-4-0-3-8">
      <stop
         id="stop2883-4-0-1-8"
         style="stop-color:#181818;stop-opacity:1"
         offset="0" />
      <stop
         id="stop2885-9-2-9-6"
         style="stop-color:#181818;stop-opacity:0"
         offset="1" />
    </linearGradient>
    <radialGradient
       cx="4.9929786"
       cy="43.5"
       r="2.5"
       fx="4.9929786"
       fy="43.5"
       id="radialGradient3339-1-4"
       xlink:href="#linearGradient3688-464-309-9-2-4-2"
       gradientUnits="userSpaceOnUse"
       gradientTransform="matrix(2.003784,0,0,1.4,-20.01187,-104.4)" />
    <linearGradient
       id="linearGradient3688-464-309-9-2-4-2">
      <stop
         id="stop2889-7-9-6-9"
         style="stop-color:#181818;stop-opacity:1"
         offset="0" />
      <stop
         id="stop2891-6-6-1-7"
         style="stop-color:#181818;stop-opacity:0"
         offset="1" />
    </linearGradient>
    <linearGradient
       id="linearGradient3702-501-757-8-4-1-1">
      <stop
         id="stop2895-8-9-9-1"
         style="stop-color:#181818;stop-opacity:0"
         offset="0" />
      <stop
         id="stop2897-7-8-7-7"
         style="stop-color:#181818;stop-opacity:1"
         offset="0.5" />
      <stop
         id="stop2899-4-5-1-5"
         style="stop-color:#181818;stop-opacity:0"
         offset="1" />
    </linearGradient>
    <linearGradient
       x1="25.058096"
       y1="47.027729"
       x2="25.058096"
       y2="39.999443"
       id="linearGradient4159"
       xlink:href="#linearGradient3702-501-757-8-4-1-1"
       gradientUnits="userSpaceOnUse" />
    <radialGradient
       cx="4.9929786"
       cy="43.5"
       r="2.5"
       fx="4.9929786"
       fy="43.5"
       id="radialGradient3337-2-2-4"
       xlink:href="#linearGradient3688-166-749-4-0-3-8-0"
       gradientUnits="userSpaceOnUse"
       gradientTransform="matrix(2.003784,0,0,1.4,27.98813,-17.4)" />
    <linearGradient
       id="linearGradient3688-166-749-4-0-3-8-0">
      <stop
         id="stop2883-4-0-1-8-1"
         style="stop-color:#181818;stop-opacity:1"
         offset="0" />
      <stop
         id="stop2885-9-2-9-6-7"
         style="stop-color:#181818;stop-opacity:0"
         offset="1" />
    </linearGradient>
    <radialGradient
       cx="4.9929786"
       cy="43.5"
       r="2.5"
       fx="4.9929786"
       fy="43.5"
       id="radialGradient3339-1-4-7"
       xlink:href="#linearGradient3688-464-309-9-2-4-2-3"
       gradientUnits="userSpaceOnUse"
       gradientTransform="matrix(2.003784,0,0,1.4,-20.01187,-104.4)" />
    <linearGradient
       id="linearGradient3688-464-309-9-2-4-2-3">
      <stop
         id="stop2889-7-9-6-9-4"
         style="stop-color:#181818;stop-opacity:1"
         offset="0" />
      <stop
         id="stop2891-6-6-1-7-1"
         style="stop-color:#181818;stop-opacity:0"
         offset="1" />
    </linearGradient>
    <linearGradient
       x1="25.058096"
       y1="47.027729"
       x2="25.058096"
       y2="39.999443"
       id="linearGradient6394"
       xlink:href="#linearGradient3702-501-757-8-4-1-1-1"
       gradientUnits="userSpaceOnUse" />
    <linearGradient
       id="linearGradient3702-501-757-8-4-1-1-1">
      <stop
         id="stop2895-8-9-9-1-2"
         style="stop-color:#181818;stop-opacity:0"
         offset="0" />
      <stop
         id="stop2897-7-8-7-7-0"
         style="stop-color:#181818;stop-opacity:1"
         offset="0.5" />
      <stop
         id="stop2899-4-5-1-5-7"
         style="stop-color:#181818;stop-opacity:0"
         offset="1" />
    </linearGradient>
    <radialGradient
       inkscape:collect="always"
       xlink:href="#linearGradient2867-449-88-871-390-598-476-591-434-148-57-177-8-3-3-6-4-8-8-8-5"
       id="radialGradient3038"
       gradientUnits="userSpaceOnUse"
       gradientTransform="matrix(0,13.393984,-16.443533,0,316.22403,-110.49114)"
       cx="6.7304144"
       cy="9.9571075"
       fx="6.2001843"
       fy="9.9571075"
       r="12.671875" />
    <linearGradient
       id="linearGradient2867-449-88-871-390-598-476-591-434-148-57-177-8-3-3-6-4-8-8-8-5">
      <stop
         id="stop3750-1-0-7-6-6-1-3-9-9"
         style="stop-color:#dec6cb;stop-opacity:1;"
         offset="0" />
      <stop
         id="stop3752-3-7-4-0-32-8-923-0-4"
         style="stop-color:#d2c3c6;stop-opacity:1;"
         offset="0.26238" />
      <stop
         id="stop3754-1-8-5-2-7-6-7-1-6"
         style="stop-color:#b38c94;stop-opacity:1;"
         offset="0.704952" />
      <stop
         id="stop3756-1-6-2-6-6-1-96-6-9"
         style="stop-color:#764750;stop-opacity:1;"
         offset="1" />
    </linearGradient>
    <linearGradient
       inkscape:collect="always"
       xlink:href="#linearGradient3924-2-2-5-8-1"
       id="linearGradient3035"
       gradientUnits="userSpaceOnUse"
       gradientTransform="matrix(1.4324324,0,0,1.4362832,116.9436,1.9317632)"
       x1="23.99999"
       y1="4.999989"
       x2="23.99999"
       y2="43" />
    <linearGradient
       id="linearGradient3924-2-2-5-8-1">
      <stop
         id="stop3926-9-4-9-6-7"
         style="stop-color:#ffffff;stop-opacity:1"
         offset="0" />
      <stop
         id="stop3928-9-8-6-5-9"
         style="stop-color:#ffffff;stop-opacity:0.23529412"
         offset="0.06316455" />
      <stop
         id="stop3930-3-5-1-7-9"
         style="stop-color:#ffffff;stop-opacity:0.15686275"
         offset="0.95056331" />
      <stop
         id="stop3932-8-0-4-8-7"
         style="stop-color:#ffffff;stop-opacity:0.39215687"
         offset="1" />
    </linearGradient>
    <linearGradient
       id="linearGradient3267-7-3-55-4-6">
      <stop
         style="stop-color:#6a6a6a;stop-opacity:1;"
         offset="0"
         id="stop3269-8-5-5-9-91" />
      <stop
         style="stop-color:#3a3a3a;stop-opacity:1;"
         offset="1"
         id="stop3271-9-7-2-0-5" />
    </linearGradient>
    <linearGradient
       id="linearGradient4798-13-8-5-9">
      <stop
         id="stop4800-4-4-2-9"
         offset="0"
         style="stop-color:#000000;stop-opacity:0;" />
      <stop
         style="stop-color:#000000;stop-opacity:0;"
         offset="0.125"
         id="stop4802-3-5-4-5" />
      <stop
         style="stop-color:#e9842d;stop-opacity:1;"
         offset="0.76897377"
         id="stop4804-3-1-0-9" />
      <stop
         style="stop-color:#964e2b;stop-opacity:1;"
         offset="0.86135447"
         id="stop4806-28-9-9-2" />
      <stop
         id="stop4808-6-0-5-6"
         offset="1"
         style="stop-color:#222222;stop-opacity:1;" />
    </linearGradient>
    <linearGradient
       id="linearGradient8940-7-5-3-4">
      <stop
         style="stop-color:#ffb800;stop-opacity:1;"
         offset="0"
         id="stop8942-22-2-0-7" />
      <stop
         style="stop-color:#ff4600;stop-opacity:1;"
         offset="1"
         id="stop8944-79-8-2-8" />
    </linearGradient>
    <linearGradient
       id="linearGradient3826">
      <stop
         style="stop-color:#ffb800;stop-opacity:1;"
         offset="0"
         id="stop3828" />
      <stop
         style="stop-color:#ff4600;stop-opacity:1;"
         offset="1"
         id="stop3830" />
    </linearGradient>
    <linearGradient
       id="linearGradient3790-0-9-2">
      <stop
         style="stop-color:#e7e7e7;stop-opacity:1;"
         offset="0"
         id="stop3792-5-8-9" />
      <stop
         style="stop-color:#b8b8b8;stop-opacity:1;"
         offset="1"
         id="stop3794-2-0-5" />
    </linearGradient>
    <linearGradient
       id="linearGradient3922-60-9-5">
      <stop
         style="stop-color:#5e5e5e;stop-opacity:1;"
         offset="0"
         id="stop3924-5-2-9" />
      <stop
         style="stop-color:#9e9e9e;stop-opacity:1;"
         offset="1"
         id="stop3926-11-54-11" />
    </linearGradient>
    <linearGradient
       id="linearGradient3886-5">
      <stop
         id="stop3896-4"
         offset="0"
         style="stop-color:#8d8d8d;stop-opacity:1;" />
      <stop
         id="stop3894-1"
         offset="1"
         style="stop-color:#bdbbbc;stop-opacity:1;" />
    </linearGradient>
    <linearGradient
       id="linearGradient3853">
      <stop
         id="stop3855"
         offset="0"
         style="stop-color:#8d8d8d;stop-opacity:1;" />
      <stop
         id="stop3857"
         offset="1"
         style="stop-color:#bdbbbc;stop-opacity:1;" />
    </linearGradient>
    <linearGradient
       id="linearGradient3860">
      <stop
         style="stop-color:#e7e7e7;stop-opacity:1;"
         offset="0"
         id="stop3862" />
      <stop
         style="stop-color:#b8b8b8;stop-opacity:1;"
         offset="1"
         id="stop3864" />
    </linearGradient>
    <linearGradient
       id="linearGradient3867">
      <stop
         style="stop-color:#5e5e5e;stop-opacity:1;"
         offset="0"
         id="stop3869" />
      <stop
         style="stop-color:#9e9e9e;stop-opacity:1;"
         offset="1"
         id="stop3871" />
    </linearGradient>
    <linearGradient
       id="linearGradient3874">
      <stop
         id="stop3876"
         offset="0"
         style="stop-color:#8d8d8d;stop-opacity:1;" />
      <stop
         id="stop3878"
         offset="1"
         style="stop-color:#bdbbbc;stop-opacity:1;" />
    </linearGradient>
    <linearGradient
       id="linearGradient3881">
      <stop
         id="stop3883"
         offset="0"
         style="stop-color:#8d8d8d;stop-opacity:1;" />
      <stop
         id="stop3885"
         offset="1"
         style="stop-color:#bdbbbc;stop-opacity:1;" />
    </linearGradient>
    <linearGradient
       y2="39.999443"
       x2="25.058096"
       y1="47.027729"
       x1="25.058096"
       gradientUnits="userSpaceOnUse"
       id="linearGradient4041"
       xlink:href="#linearGradient3702-501-757-8-4-1-1-1"
       inkscape:collect="always" />
    <linearGradient
       x1="63.397362"
       y1="-12.489107"
       x2="63.397362"
       y2="5.4675598"
       id="linearGradient2685"
       xlink:href="#linearGradient4873"
       gradientUnits="userSpaceOnUse"
       gradientTransform="matrix(0.28071584,0,0,0.28828707,14.823791,55.221489)" />
    <linearGradient
       id="linearGradient4873">
      <stop
         id="stop4875"
         style="stop-color:white;stop-opacity:1"
         offset="0" />
      <stop
         id="stop4877"
         style="stop-color:white;stop-opacity:0"
         offset="1" />
    </linearGradient>
    <radialGradient
       r="20.397499"
       fy="3.9900031"
       fx="23.895569"
       cy="3.9900031"
       cx="23.895569"
       gradientTransform="matrix(0,0.3176575,-0.40828098,0,33.913473,43.706666)"
       gradientUnits="userSpaceOnUse"
       id="radialGradient3826"
       xlink:href="#linearGradient3242-187-536"
       inkscape:collect="always" />
    <linearGradient
       id="linearGradient3242-187-536">
      <stop
         id="stop2780"
         style="stop-color:#ffffff;stop-opacity:1;"
         offset="0" />
      <stop
         id="stop2782"
         style="stop-color:#d3d3d3;stop-opacity:1;"
         offset="1" />
    </linearGradient>
    <linearGradient
       y2="3.0816143"
       x2="18.379412"
       y1="44.980297"
       x1="18.379412"
       gradientTransform="matrix(0.12959877,0,0,0.13309725,29.174065,51.015025)"
       gradientUnits="userSpaceOnUse"
       id="linearGradient3828"
       xlink:href="#linearGradient2490-182-124"
       inkscape:collect="always" />
    <linearGradient
       id="linearGradient2490-182-124">
      <stop
         id="stop2788"
         style="stop-color:#909090;stop-opacity:1;"
         offset="0" />
      <stop
         id="stop2790"
         style="stop-color:#dedede;stop-opacity:1;"
         offset="1" />
    </linearGradient>
    <radialGradient
       inkscape:collect="always"
       xlink:href="#linearGradient3945"
       id="radialGradient3966"
       gradientUnits="userSpaceOnUse"
       gradientTransform="matrix(1.5458199,0,0,2.1105858,-5.8136566,-24.323481)"
       cx="24.5"
       cy="24"
       fx="24.5"
       fy="24"
       r="10.5" />
    <linearGradient
       id="linearGradient3945">
      <stop
         style="stop-color:#8f8f8f;stop-opacity:1;"
         offset="0"
         id="stop3947" />
      <stop
         style="stop-color:#544f58;stop-opacity:1;"
         offset="1"
         id="stop3949" />
    </linearGradient>
    <radialGradient
       cx="7.4956832"
       cy="8.4497671"
       r="19.99999"
       fx="7.4956832"
       fy="8.4497671"
       id="radialGradient4152-74-497"
       xlink:href="#linearGradient2867-449-88-871-390-598-476-591-434-148-57-177-641-289-620-227-114-444-680-744-921-551"
       gradientUnits="userSpaceOnUse"
       gradientTransform="matrix(3.3552764,3.2122922e-4,-4.1318866e-4,3.549601,-20.306545,2.0016136)" />
    <linearGradient
       id="linearGradient2867-449-88-871-390-598-476-591-434-148-57-177-641-289-620-227-114-444-680-744-921-551">
      <stop
         id="stop4445"
         style="stop-color:#4d4d4d;stop-opacity:1"
         offset="0" />
      <stop
         id="stop4447"
         style="stop-color:#404040;stop-opacity:1"
         offset="0.26238" />
      <stop
         id="stop4449"
         style="stop-color:#303030;stop-opacity:1"
         offset="0.704952" />
      <stop
         id="stop4451"
         style="stop-color:#232323;stop-opacity:1"
         offset="1" />
    </linearGradient>
    <linearGradient
       x1="23.99999"
       y1="4.999989"
       x2="23.99999"
       y2="43"
       id="linearGradient3180-6"
       xlink:href="#linearGradient3924-2-2-5-8-0"
       gradientUnits="userSpaceOnUse"
       gradientTransform="matrix(1.4324324,0,0,1.4362832,-2.378381,-2.4707781)" />
    <linearGradient
       id="linearGradient3924-2-2-5-8-0">
      <stop
         id="stop3926-9-4-9-6-4"
         style="stop-color:#ffffff;stop-opacity:1"
         offset="0" />
      <stop
         id="stop3928-9-8-6-5-4"
         style="stop-color:#ffffff;stop-opacity:0.23529412"
         offset="0.06316455" />
      <stop
         id="stop3930-3-5-1-7-97"
         style="stop-color:#ffffff;stop-opacity:0.15686275"
         offset="0.95056331" />
      <stop
         id="stop3932-8-0-4-8-3"
         style="stop-color:#ffffff;stop-opacity:0.39215687"
         offset="1" />
    </linearGradient>
    <linearGradient
       y2="43"
       x2="23.99999"
       y1="4.999989"
       x1="23.99999"
       gradientTransform="matrix(1.4323748,0,0,1.432135,-2.383669,-2.3578045)"
       gradientUnits="userSpaceOnUse"
       id="linearGradient3292"
       xlink:href="#linearGradient3924-2-2-5-8-0"
       inkscape:collect="always" />
    <filter
       color-interpolation-filters="sRGB"
       id="filter4013">
      <feGaussianBlur
         id="feGaussianBlur4015"
         stdDeviation="0.72" />
    </filter>
    <radialGradient
       id="radialGradient4075"
       gradientUnits="userSpaceOnUse"
       cy="421.89999"
       cx="212"
       gradientTransform="matrix(1.3333,0,0,1.2222,-70.667,-93.655)"
       r="9">
      <stop
         id="stop3984"
         style="stop-color:#f5f5f5"
         offset="0" />
      <stop
         id="stop3992"
         style="stop-color:#dfdfdf"
         offset=".75" />
      <stop
         id="stop3986"
         style="stop-color:#c6c6c6"
         offset="1" />
    </radialGradient>
    <linearGradient
       id="linearGradient4068"
       y2="414.38"
       gradientUnits="userSpaceOnUse"
       x2="344"
       gradientTransform="matrix(0.10862201,0,0,0.10862201,4.2601214,-99.868231)"
       y1="430"
       x1="344">
      <stop
         id="stop4023"
         style="stop-color:#c03c0e"
         offset="0" />
      <stop
         id="stop3856"
         style="stop-color:#e85e1b"
         offset=".5" />
      <stop
         id="stop4025"
         style="stop-color:#f57638"
         offset="1" />
    </linearGradient>
    <linearGradient
       id="linearGradient4064"
       y2="404"
       xlink:href="#linearGradient4267"
       gradientUnits="userSpaceOnUse"
       x2="344"
       y1="430"
       x1="344"
       gradientTransform="matrix(0.10862201,0,0,0.10862201,4.2601214,8.1912456)" />
    <linearGradient
       id="linearGradient4267">
      <stop
         id="stop4269"
         style="stop-color:#fff"
         offset="0" />
      <stop
         id="stop4271"
         style="stop-color:#fff;stop-opacity:0"
         offset="1" />
    </linearGradient>
    <linearGradient
       id="linearGradient4051"
       y2="404"
       gradientUnits="userSpaceOnUse"
       x2="344"
       y1="430"
       x1="344"
       gradientTransform="matrix(0.166666,0,0,0.166666,88.332404,367.24114)">
      <stop
         id="stop3974"
         style="stop-color:#666"
         offset="0" />
      <stop
         id="stop3976"
         style="stop-color:#666;stop-opacity:0"
         offset="1" />
    </linearGradient>
    <linearGradient
       y2="404"
       x2="344"
       y1="430"
       x1="344"
       gradientTransform="matrix(0.10862201,0,0,0.10862201,4.2601214,8.1912456)"
       gradientUnits="userSpaceOnUse"
       id="linearGradient3112"
       xlink:href="#linearGradient4051"
       inkscape:collect="always" />
    <filter
       color-interpolation-filters="sRGB"
       id="filter3869">
      <feGaussianBlur
         id="feGaussianBlur3871"
         stdDeviation="3.39" />
    </filter>
  </defs>
  <metadata
     id="metadata4166">
    <rdf:RDF>
      <cc:Work
         rdf:about="">
        <dc:format>image/svg+xml</dc:format>
        <dc:type
           rdf:resource="http://purl.org/dc/dcmitype/StillImage" />
        <dc:title />
      </cc:Work>
    </rdf:RDF>
  </metadata>
  <g
     id="layer1">
    <g
       transform="matrix(1.5789502,0,0,0.7142857,-5.894751,27.928572)"
       id="g3712-8-2-4-4"
       style="opacity:0.6">
      <rect
         width="5"
         height="7"
         x="38"
         y="40"
         id="rect2801-5-5-7-9"
         style="fill:url(#radialGradient3337-2-2);fill-opacity:1;stroke:none" />
      <rect
         width="5"
         height="7"
         x="-10"
         y="-47"
         transform="scale(-1,-1)"
         id="rect3696-3-0-3-7"
         style="fill:url(#radialGradient3339-1-4);fill-opacity:1;stroke:none" />
      <rect
         width="28"
         height="7.0000005"
         x="10"
         y="40"
         id="rect3700-5-6-8-4"
         style="fill:url(#linearGradient4159);fill-opacity:1;stroke:none" />
    </g>
    <path
       d="m 4.0005888,58.692766 c -8.77e-5,0.721424 0.6401806,1.302276 1.435568,1.302349 l 53.1218532,0.0049 c 0.79539,7.5e-5 1.435795,-0.580652 1.435876,-1.302074 l 0.0061,-53.3906907 C 60.000206,4.5858778 59.359941,4.0050297 58.56455,4.0049527 L 5.4427245,4.0000005 c -0.795397,-7.56e-5 -1.435802,0.5806501 -1.4358799,1.3020756 l -0.00683,53.3907349 z m 2.8717599,-2.604152 2.925e-4,-2.604428 c 8.77e-5,-0.721426 0.640483,-1.302152 1.4358801,-1.302076 l 4.3071817,4.17e-4 c 0.795387,7.6e-5 1.435656,0.580926 1.435568,1.302351 l -3.13e-4,2.604425 c -7.8e-5,0.721429 -0.640484,1.302154 -1.43587,1.302078 l -4.3071712,-4.17e-4 c -0.7953971,-2e-5 -1.4356558,-0.580926 -1.4355681,-1.302351 z m 9.263e-4,-9.115496 2.926e-4,-2.604423 c 8.77e-5,-0.721426 0.6404926,-1.302155 1.4358799,-1.302076 l 4.3071805,4.17e-4 c 0.795389,7.5e-5 1.435657,0.580926 1.435569,1.30235 l -3.02e-4,2.604427 c -8.7e-5,0.721424 -0.640493,1.302153 -1.435871,1.302073 l -4.3071811,-4e-4 C 7.5134556,48.275408 6.8731776,47.694559 6.8732653,46.973131 z m 9.262e-4,-9.115489 3.024e-4,-2.60443 c 7.81e-5,-0.721425 0.6404829,-1.302151 1.43588,-1.302078 l 4.3071704,4.19e-4 c 0.795398,7.6e-5 1.435657,0.580926 1.435579,1.302353 l -3.12e-4,2.604429 c -6.8e-5,0.721421 -0.640474,1.302147 -1.43588,1.302072 l -4.3071717,-4.17e-4 c -0.795397,-7.5e-5 -1.4356558,-0.580925 -1.4355778,-1.302348 z m 9.361e-4,-9.115492 2.926e-4,-2.60443 c 8.77e-5,-0.721425 0.6404927,-1.302152 1.43588,-1.302074 l 4.3071811,4.17e-4 c 0.795388,7.5e-5 1.435656,0.580922 1.435568,1.302351 l -3.02e-4,2.604425 c -8.8e-5,0.721427 -0.640483,1.302153 -1.435881,1.302077 L 8.3107053,30.044485 C 7.515318,30.044464 6.8750495,29.463561 6.8751373,28.742137 z m 9.264e-4,-9.115496 3.021e-4,-2.604428 c 7.81e-5,-0.721422 0.6404831,-1.302151 1.4358703,-1.302071 l 4.3071799,4e-4 c 0.79539,7.9e-5 1.435667,0.580929 1.43557,1.302353 l -3.03e-4,2.604427 c -7.8e-5,0.721426 -0.640483,1.302149 -1.43588,1.302074 L 8.3116316,20.928993 C 7.5162442,20.928915 6.8759759,20.348068 6.8760637,19.626641 z m 9.262e-4,-9.115484 3.022e-4,-2.6044264 c 7.82e-5,-0.7214266 0.6404831,-1.3021514 1.43588,-1.3020755 l 4.3071719,4.125e-4 c 0.795398,7.48e-5 1.435655,0.5809248 1.435577,1.3023525 l -3.12e-4,2.6044249 c -7.8e-5,0.721423 -0.640472,1.302151 -1.435871,1.302075 L 8.3125678,11.813506 C 7.5171707,11.813431 6.8769119,11.232583 6.8769899,10.511157 z m 43.0664651,45.581581 3.05e-4,-2.604431 c 8.3e-5,-0.721422 0.640487,-1.302151 1.435877,-1.302074 l 4.307177,4.18e-4 c 0.795389,7.5e-5 1.435656,0.580924 1.435573,1.302352 l -3.11e-4,2.604429 c -8.1e-5,0.721422 -0.640479,1.302147 -1.435874,1.302076 l -4.307175,-4.19e-4 c -0.795392,-7.8e-5 -1.435659,-0.580924 -1.435573,-1.302351 z m 9.75e-4,-9.115491 3.09e-4,-2.604431 c 8.1e-5,-0.721423 0.640483,-1.302148 1.435876,-1.302074 l 4.307175,4e-4 c 0.79539,8e-5 1.435658,0.580927 1.435572,1.302356 l -3.05e-4,2.604426 c -8.1e-5,0.721424 -0.640485,1.302153 -1.435877,1.302073 l -4.307174,-4.05e-4 c -0.795393,-7.2e-5 -1.435659,-0.580924 -1.435576,-1.302345 z m 9.75e-4,-9.115498 3.03e-4,-2.604423 c 8.6e-5,-0.721428 0.640486,-1.302152 1.43588,-1.302072 l 4.307173,4.12e-4 c 0.795391,7.4e-5 1.435658,0.580928 1.435572,1.302351 l -3.07e-4,2.604428 c -8.4e-5,0.721427 -0.640482,1.302151 -1.435877,1.302075 l -4.307175,-4.16e-4 c -0.795389,-7.7e-5 -1.435658,-0.580925 -1.435572,-1.302352 z m 9.75e-4,-9.115492 3.05e-4,-2.604427 c 8.2e-5,-0.721422 0.640485,-1.302151 1.435877,-1.302075 l 4.307175,4.17e-4 c 0.795391,7.4e-5 1.435656,0.580926 1.435574,1.30235 l -3.05e-4,2.604431 c -8.4e-5,0.721423 -0.640483,1.302148 -1.43588,1.302072 l -4.307173,-4.15e-4 c -0.795391,-7.8e-5 -1.435657,-0.580923 -1.435573,-1.302353 z m 9.75e-4,-9.115489 3.1e-4,-2.604429 c 8.2e-5,-0.721427 0.640482,-1.302151 1.435876,-1.302075 l 4.307175,4.18e-4 c 0.79539,7.5e-5 1.435657,0.580924 1.435573,1.30235 l -3.07e-4,2.604426 c -8.4e-5,0.721424 -0.640485,1.30215 -1.435876,1.302078 l -4.307175,-4.2e-4 c -0.795389,-7.4e-5 -1.43566,-0.580922 -1.435576,-1.302348 z m 9.74e-4,-9.115486 3.05e-4,-2.604426 c 8.6e-5,-0.7214256 0.640487,-1.3021534 1.435881,-1.3020786 l 4.307171,4.123e-4 c 0.795394,7.7e-5 1.435661,0.580926 1.435576,1.3023516 l -3.05e-4,2.6044287 c -8.4e-5,0.721423 -0.640485,1.30215 -1.435878,1.302071 l -4.307173,-4.14e-4 c -0.795395,-8e-5 -1.435659,-0.580926 -1.435577,-1.302351 z"
       inkscape:connector-curvature="0"
       id="rect5505-21"
       style="color:#000000;fill:url(#radialGradient4152-74-497);fill-opacity:1;fill-rule:nonzero;stroke:none;stroke-width:0.99999994;marker:none;visibility:visible;display:inline;overflow:visible;enable-background:accumulate" />
    <path
       style="fill:url(#radialGradient3966);fill-opacity:1;stroke:none"
       d="m 15.827829,4.1694336 0,3.4991302 32.462217,0 0,-3.4991302 -32.462217,0 z m 0,6.9982574 0,37.324032 32.462217,0 0,-37.324032 -32.462217,0 z"
       id="path3935"
       inkscape:connector-curvature="0" />
    <path
       style="opacity:0.22999998;fill:none;stroke:#ffffff;stroke-width:0.54038382;stroke-linecap:butt;stroke-linejoin:miter;stroke-miterlimit:4;stroke-opacity:1;stroke-dasharray:none"
       d="m 15.896872,7.8549473 32.2352,0 0,0"
       id="path3978"
       inkscape:connector-curvature="0" />
    <path
       style="opacity:0.22999998;fill:none;stroke:#ffffff;stroke-width:0.5405091;stroke-linecap:butt;stroke-linejoin:miter;stroke-miterlimit:4;stroke-opacity:1;stroke-dasharray:none"
       d="m 15.810863,48.11408 32.333201,0 0,0"
       id="path3978-3"
       inkscape:connector-curvature="0" />
    <rect
       width="52.997871"
       height="52.988998"
       rx="1.9999199"
       ry="1.9942238"
       x="5.4943933"
       y="5.5189328"
       id="rect6741-5-0-2-3"
       style="opacity:0.3;fill:none;stroke:url(#linearGradient3292);stroke-width:0.99853486;stroke-linecap:round;stroke-linejoin:round;stroke-miterlimit:4;stroke-opacity:1;stroke-dasharray:none;stroke-dashoffset:0" />
    <rect
       id="rect4035"
       style="opacity:0.6;color:#000000;fill:url(#linearGradient3112)"
       ry="0.86897606"
       height="1.7379521"
       width="32.586605"
       y="53.160763"
       x="15.774055" />
    <rect
       id="rect4062"
       style="opacity:0.4;color:#000000;fill:url(#linearGradient4064)"
       ry="0.86897606"
       height="1.7379521"
       width="22.376133"
       y="53.160763"
       x="15.774055" />
    <path
       id="rect4053"
       style="opacity:0.2;color:#000000;fill:#ffffff"
       d="m 15.777314,54.084049 c -0.0013,0.01825 -0.0033,0.03578 -0.0033,0.05429 0,0.48141 0.387561,0.868977 0.868977,0.868977 h 30.848646 c 0.481418,0 0.868978,-0.387567 0.868978,-0.868977 0,-0.01851 -0.0019,-0.03604 -0.0033,-0.05429 -0.02829,0.455517 -0.402707,0.814661 -0.865588,0.814661 h -30.84868 c -0.462881,0 -0.837316,-0.359144 -0.865588,-0.814661 z"
       inkscape:connector-curvature="0" />
    <rect
       id="rect4066"
       style="color:#000000;fill:url(#linearGradient4068)"
       transform="scale(1,-1)"
       ry="0.86897606"
       height="1.7379521"
       width="17.162277"
       y="-54.898716"
       x="15.774055" />
    <path
       id="rect3847"
       style="opacity:0.4;color:#000000"
       d="m 16.643032,53.160762 c -0.481195,0 -0.868978,0.387777 -0.868978,0.868971 0,0.01845 0.0019,0.03585 0.0033,0.05429 0.02821,-0.455125 0.402987,-0.814668 0.865719,-0.814668 h 30.84865 c 0.462732,0 0.837479,0.359543 0.865719,0.814668 0.0013,-0.01844 0.0033,-0.03584 0.0033,-0.05429 0,-0.481194 -0.387781,-0.868971 -0.868978,-0.868971 H 16.643032 z"
       inkscape:connector-curvature="0" />
    <g
       id="g4070"
       transform="matrix(0.17018896,0,0,0.17018896,-12.520894,-18.298397)">
      <path
         id="path4005"
         style="opacity:0.4;color:#000000;filter:url(#filter4013)"
         d="m 221,425 c 0,4.9706 -4.0294,9 -9,9 -4.9706,0 -9,-4.0294 -9,-9 0,-4.9706 4.0294,-9 9,-9 4.9706,0 9,4.0294 9,9 z"
         transform="matrix(1.1111,0,0,1.1111,26.444,-47.222)"
         inkscape:connector-curvature="0" />
      <path
         id="path3980"
         style="color:#000000;fill:url(#radialGradient4075)"
         d="m 221,425 c 0,4.9706 -4.0294,9 -9,9 -4.9706,0 -9,-4.0294 -9,-9 0,-4.9706 4.0294,-9 9,-9 4.9706,0 9,4.0294 9,9 z"
         transform="translate(50,0)"
         inkscape:connector-curvature="0" />
      <path
         id="path3996"
         d="m 262,416 c -4.9706,0 -9,4.0294 -9,9 0,0.17156 0.0218,0.33081 0.0312,0.5 0.26501,-4.7327 4.1698,-8.5 8.9688,-8.5 4.799,0 8.7037,3.7673 8.9688,8.5 0.009,-0.16919 0.0312,-0.32844 0.0312,-0.5 0,-4.9706 -4.0294,-9 -9,-9 z"
         style="opacity:0.6;color:#000000;fill:#ffffff"
         inkscape:connector-curvature="0" />
    </g>
    <g
       id="layer4"
       transform="matrix(0.1031898,0,0,0.1031898,5.3834108,7.3141934)">
      <path
         id="path4240"
         style="text-indent:0;text-transform:none;block-progression:tb;opacity:0.5;color:#000000;filter:url(#filter3869)"
         d="m 256,102 c -62.325,0 -113,50.675 -113,113 0,62.325 50.675,113 113,113 62.325,0 113,-50.675 113,-113 0,-62.325 -50.675,-113 -113,-113 z m 0,14 c 54.759,0 99,44.241 99,99 0,54.759 -44.241,99 -99,99 -54.759,0 -99,-44.241 -99,-99 0,-54.759 44.241,-99 99,-99 z m -35.688,35.875 c -0.43215,0.039 -0.79815,0.15032 -1.0625,0.3125 -8.4591,5.1898 -8.4591,124.56 0,129.75 8.4591,5.1898 105.75,-54.495 105.75,-64.875 0,-10.055 -91.291,-66.395 -104.69,-65.188 z"
         inkscape:connector-curvature="0" />
      <path
         id="path4029"
         style="text-indent:0;text-transform:none;block-progression:tb;color:#000000;fill:#ffffff"
         d="m 256,102 c -62.325,0 -113,50.675 -113,113 0,62.325 50.675,113 113,113 62.325,0 113,-50.675 113,-113 0,-62.325 -50.675,-113 -113,-113 z m 0,14 c 54.759,0 99,44.241 99,99 0,54.759 -44.241,99 -99,99 -54.759,0 -99,-44.241 -99,-99 0,-54.759 44.241,-99 99,-99 z m -35.688,35.875 c -0.43215,0.039 -0.79815,0.15032 -1.0625,0.3125 -8.4591,5.1898 -8.4591,124.56 0,129.75 8.4591,5.1898 105.75,-54.495 105.75,-64.875 0,-10.055 -91.291,-66.395 -104.69,-65.188 z"
         inkscape:connector-curvature="0" />
    </g>
  </g>
</svg>
