<?xml version="1.0" encoding="UTF-8" standalone="no"?>
<!-- Created with Inkscape (http://www.inkscape.org/) -->

<svg
   xmlns:dc="http://purl.org/dc/elements/1.1/"
   xmlns:cc="http://creativecommons.org/ns#"
   xmlns:rdf="http://www.w3.org/1999/02/22-rdf-syntax-ns#"
   xmlns:svg="http://www.w3.org/2000/svg"
   xmlns="http://www.w3.org/2000/svg"
   xmlns:xlink="http://www.w3.org/1999/xlink"
   xmlns:sodipodi="http://sodipodi.sourceforge.net/DTD/sodipodi-0.dtd"
   xmlns:inkscape="http://www.inkscape.org/namespaces/inkscape"
   version="1.1"
   width="64"
   height="64"
   id="svg4161"
   inkscape:version="0.48.4 r9939"
   sodipodi:docname="gnome-control-center sound.svg">
  <sodipodi:namedview
     pagecolor="#ffffff"
     bordercolor="#666666"
     borderopacity="1"
     objecttolerance="10"
     gridtolerance="10"
     guidetolerance="10"
     inkscape:pageopacity="0"
     inkscape:pageshadow="2"
     inkscape:window-width="1538"
     inkscape:window-height="1028"
     id="namedview45"
     showgrid="true"
     inkscape:zoom="14"
     inkscape:cx="32"
     inkscape:cy="32"
     inkscape:window-x="203"
     inkscape:window-y="24"
     inkscape:window-maximized="0"
     inkscape:current-layer="layer1">
    <inkscape:grid
       type="xygrid"
       id="grid3031" />
  </sodipodi:namedview>
  <defs
     id="defs4163">
    <linearGradient
       x1="20"
       y1="26.000008"
       x2="20"
       y2="13.000008"
       id="linearGradient4069"
       xlink:href="#linearGradient3680-6-6-6-3-7-1"
       gradientUnits="userSpaceOnUse"
       gradientTransform="matrix(1.326882,0,0,1.326882,50.91496,-7.1915322)" />
    <linearGradient
       id="linearGradient3680-6-6-6-3-7-1">
      <stop
         id="stop3682-4-6-1-3-7-7"
         style="stop-color:#dcdcdc;stop-opacity:1"
         offset="0" />
      <stop
         id="stop3684-8-5-8-0-2-6"
         style="stop-color:#ffffff;stop-opacity:1"
         offset="1" />
    </linearGradient>
    <linearGradient
       x1="23.99999"
       y1="4.999989"
       x2="23.99999"
       y2="43"
       id="linearGradient3180"
       xlink:href="#linearGradient3924-2-2-5-8"
       gradientUnits="userSpaceOnUse"
       gradientTransform="matrix(1.4324324,0,0,1.4362832,-2.378381,-2.4707781)" />
    <linearGradient
       id="linearGradient3924-2-2-5-8">
      <stop
         id="stop3926-9-4-9-6"
         style="stop-color:#ffffff;stop-opacity:1"
         offset="0" />
      <stop
         id="stop3928-9-8-6-5"
         style="stop-color:#ffffff;stop-opacity:0.23529412"
         offset="0.06316455" />
      <stop
         id="stop3930-3-5-1-7"
         style="stop-color:#ffffff;stop-opacity:0.15686275"
         offset="0.95056331" />
      <stop
         id="stop3932-8-0-4-8"
         style="stop-color:#ffffff;stop-opacity:0.39215687"
         offset="1" />
    </linearGradient>
    <radialGradient
       cx="7.1183534"
       cy="9.9571075"
       r="12.671875"
       fx="7.1183534"
       fy="9.9571075"
       id="radialGradient3988-3"
       xlink:href="#linearGradient2867-449-88-871-390-598-476-591-434-148-57-177-8-3-3-6-4-8-8-8-5-7"
       gradientUnits="userSpaceOnUse"
       gradientTransform="matrix(0,12.890089,-15.824912,0,190.74237,-113.0978)" />
    <linearGradient
       id="linearGradient2867-449-88-871-390-598-476-591-434-148-57-177-8-3-3-6-4-8-8-8-5-7">
      <stop
         id="stop3750-1-0-7-6-6-1-3-9-3-9"
         style="stop-color:#505050;stop-opacity:1"
         offset="0" />
      <stop
         id="stop3752-3-7-4-0-32-8-923-0-7-0"
         style="stop-color:#2b2b2b;stop-opacity:1"
         offset="0.26238" />
      <stop
         id="stop3754-1-8-5-2-7-6-7-1-9-1"
         style="stop-color:#0a0a0a;stop-opacity:1"
         offset="0.704952" />
      <stop
         id="stop3756-1-6-2-6-6-1-96-6-0-1"
         style="stop-color:#000000;stop-opacity:1"
         offset="1" />
    </linearGradient>
    <radialGradient
       cx="4.9929786"
       cy="43.5"
       r="2.5"
       fx="4.9929786"
       fy="43.5"
       id="radialGradient3337-2-2"
       xlink:href="#linearGradient3688-166-749-4-0-3-8"
       gradientUnits="userSpaceOnUse"
       gradientTransform="matrix(2.003784,0,0,1.4,27.98813,-17.4)" />
    <linearGradient
       id="linearGradient3688-166-749-4-0-3-8">
      <stop
         id="stop2883-4-0-1-8"
         style="stop-color:#181818;stop-opacity:1"
         offset="0" />
      <stop
         id="stop2885-9-2-9-6"
         style="stop-color:#181818;stop-opacity:0"
         offset="1" />
    </linearGradient>
    <radialGradient
       cx="4.9929786"
       cy="43.5"
       r="2.5"
       fx="4.9929786"
       fy="43.5"
       id="radialGradient3339-1-4"
       xlink:href="#linearGradient3688-464-309-9-2-4-2"
       gradientUnits="userSpaceOnUse"
       gradientTransform="matrix(2.003784,0,0,1.4,-20.01187,-104.4)" />
    <linearGradient
       id="linearGradient3688-464-309-9-2-4-2">
      <stop
         id="stop2889-7-9-6-9"
         style="stop-color:#181818;stop-opacity:1"
         offset="0" />
      <stop
         id="stop2891-6-6-1-7"
         style="stop-color:#181818;stop-opacity:0"
         offset="1" />
    </linearGradient>
    <linearGradient
       id="linearGradient3702-501-757-8-4-1-1">
      <stop
         id="stop2895-8-9-9-1"
         style="stop-color:#181818;stop-opacity:0"
         offset="0" />
      <stop
         id="stop2897-7-8-7-7"
         style="stop-color:#181818;stop-opacity:1"
         offset="0.5" />
      <stop
         id="stop2899-4-5-1-5"
         style="stop-color:#181818;stop-opacity:0"
         offset="1" />
    </linearGradient>
    <linearGradient
       x1="25.058096"
       y1="47.027729"
       x2="25.058096"
       y2="39.999443"
       id="linearGradient4159"
       xlink:href="#linearGradient3702-501-757-8-4-1-1"
       gradientUnits="userSpaceOnUse" />
    <linearGradient
       inkscape:collect="always"
       xlink:href="#linearGradient3680-6-6-6-3-7-1"
       id="linearGradient3815"
       x1="26"
       y1="40"
       x2="26"
       y2="23"
       gradientUnits="userSpaceOnUse" />
    <linearGradient
       inkscape:collect="always"
       xlink:href="#linearGradient3680-6-6-6-3-7-1"
       id="linearGradient3823"
       x1="38"
       y1="44"
       x2="38"
       y2="26"
       gradientUnits="userSpaceOnUse" />
    <radialGradient
       inkscape:collect="always"
       xlink:href="#linearGradient4389"
       id="radialGradient3866"
       cx="30.887144"
       cy="31.692015"
       fx="30.887144"
       fy="31.692015"
       r="12.010634"
       gradientTransform="matrix(2.4977822,3.8889036e-7,-3.5809011e-7,2.317131,-47.119387,-41.634261)"
       gradientUnits="userSpaceOnUse" />
    <linearGradient
       id="linearGradient4389">
      <stop
         style="stop-color:#505050;stop-opacity:1;"
         offset="0"
         id="stop4391" />
      <stop
         id="stop4519"
         offset="0.25"
         style="stop-color:#2b2b2b;stop-opacity:1;" />
      <stop
         id="stop4517"
         offset="0.5"
         style="stop-color:#0a0a0a;stop-opacity:1;" />
      <stop
         style="stop-color:#000000;stop-opacity:1;"
         offset="1"
         id="stop4393" />
    </linearGradient>
    <radialGradient
       inkscape:collect="always"
       xlink:href="#linearGradient3856"
       id="radialGradient3850"
       cx="36.111111"
       cy="-11"
       fx="36.111111"
       fy="-11"
       r="22"
       gradientUnits="userSpaceOnUse"
       gradientTransform="matrix(2.0888393e-7,4.0909018,-4.0909018,2.0888393e-7,-14.969965,-133.75693)" />
    <linearGradient
       id="linearGradient3856">
      <stop
         offset="0"
         style="stop-color:#fffffe;stop-opacity:1;"
         id="stop3858" />
      <stop
         id="stop3860"
         style="stop-color:#bdff7d;stop-opacity:1;"
         offset="0.40972224" />
      <stop
         id="stop3862"
         style="stop-color:#a5ff4d;stop-opacity:1;"
         offset="0.81666666" />
      <stop
         offset="1"
         style="stop-color:#94ff29;stop-opacity:1;"
         id="stop3864" />
    </linearGradient>
    <filter
       color-interpolation-filters="sRGB"
       inkscape:collect="always"
       id="filter3844">
      <feGaussianBlur
         inkscape:collect="always"
         stdDeviation="1.075"
         id="feGaussianBlur3846" />
    </filter>
    <radialGradient
       cx="7.1183534"
       cy="9.9571075"
       r="12.671875"
       fx="7.1183534"
       fy="9.9571075"
       id="radialGradient3988-3-0"
       xlink:href="#linearGradient2867-449-88-871-390-598-476-591-434-148-57-177-8-3-3-6-4-8-8-8-5-7-6"
       gradientUnits="userSpaceOnUse"
       gradientTransform="matrix(0,10.950214,-13.483225,0,167.28493,-90.793937)" />
    <linearGradient
       id="linearGradient2867-449-88-871-390-598-476-591-434-148-57-177-8-3-3-6-4-8-8-8-5-7-6">
      <stop
         id="stop3754-1-8-5-2-7-6-7-1-9-1-5"
         style="stop-color:#81d72c;stop-opacity:1;"
         offset="0" />
      <stop
         id="stop3756-1-6-2-6-6-1-96-6-0-1-4"
         style="stop-color:#74ba30;stop-opacity:1;"
         offset="1" />
    </linearGradient>
    <radialGradient
       r="12.671875"
       fy="9.9571075"
       fx="7.1183534"
       cy="9.9571075"
       cx="7.1183534"
       gradientTransform="matrix(0,10.950214,-13.483225,0,167.31494,-91.323951)"
       gradientUnits="userSpaceOnUse"
       id="radialGradient3107"
       xlink:href="#linearGradient2867-449-88-871-390-598-476-591-434-148-57-177-8-3-3-6-4-8-8-8-5-7-6"
       inkscape:collect="always" />
  </defs>
  <metadata
     id="metadata4166">
    <rdf:RDF>
      <cc:Work
         rdf:about="">
        <dc:format>image/svg+xml</dc:format>
        <dc:type
           rdf:resource="http://purl.org/dc/dcmitype/StillImage" />
        <dc:title></dc:title>
      </cc:Work>
    </rdf:RDF>
  </metadata>
  <g
     id="layer1">
    <g
       transform="matrix(1.5789502,0,0,0.7142857,-5.894751,27.928572)"
       id="g3712-8-2-4-4"
       style="opacity:0.6">
      <rect
         width="5"
         height="7"
         x="38"
         y="40"
         id="rect2801-5-5-7-9"
         style="fill:url(#radialGradient3337-2-2);fill-opacity:1;stroke:none" />
      <rect
         width="5"
         height="7"
         x="-10"
         y="-47"
         transform="scale(-1,-1)"
         id="rect3696-3-0-3-7"
         style="fill:url(#radialGradient3339-1-4);fill-opacity:1;stroke:none" />
      <rect
         width="28"
         height="7.0000005"
         x="10"
         y="40"
         id="rect3700-5-6-8-4"
         style="fill:url(#linearGradient4159);fill-opacity:1;stroke:none" />
    </g>
    <rect
       width="55"
       height="55"
       rx="3"
       ry="3"
       x="4.5"
       y="4.5"
       id="rect5505-21-3-8-5-2"
       style="opacity:0.9;color:#000000;fill:url(#radialGradient3988-3);fill-opacity:1;fill-rule:nonzero;stroke:none;stroke-width:0.99999994;marker:none;visibility:visible;display:inline;overflow:visible;enable-background:accumulate" />
    <rect
       width="53"
       height="53.142479"
       rx="2"
       ry="2"
       x="5.4999986"
       y="5.4287739"
       id="rect6741-5-0-2-3"
       style="opacity:0.3;fill:none;stroke:url(#linearGradient3180);stroke-width:1;stroke-linecap:round;stroke-linejoin:round;stroke-miterlimit:4;stroke-opacity:1;stroke-dasharray:none;stroke-dashoffset:0" />
    <rect
       width="55"
       height="55"
       rx="3"
       ry="3"
       x="4.4999986"
       y="4.5000019"
       id="rect5505-21-3-8-9-1-1"
       style="opacity:0.7;color:#000000;fill:none;stroke:#000000;stroke-width:1;stroke-linecap:round;stroke-linejoin:round;stroke-miterlimit:4;stroke-opacity:1;stroke-dasharray:none;stroke-dashoffset:0;marker:none;visibility:visible;display:inline;overflow:visible;enable-background:accumulate" />
    <rect
       width="46.861385"
       height="46.722858"
       rx="0.61191958"
       ry="0.57352716"
       x="8.6317387"
       y="8.5761461"
       id="rect5505-21-3-8-5-2-6"
       style="opacity:0.9;color:#000000;fill:url(#radialGradient3107);fill-opacity:1;fill-rule:nonzero;stroke:none;stroke-width:0.99999994;marker:none;visibility:visible;display:inline;overflow:visible;enable-background:accumulate" />
    <path
       inkscape:connector-curvature="0"
       id="path3066"
       d="m 27.52997,10.470077 c -2.731827,0.569245 -5.275004,1.674836 -7.531237,3.156244 0.06576,1.64402 -0.527811,3.277804 -1.781247,4.531242 -1.253445,1.253433 -2.887225,1.847004 -4.531242,1.781247 -1.481407,2.256231 -2.586995,4.799404 -3.156244,7.531237 1.218728,1.115179 1.968746,2.717852 1.968746,4.499991 0,1.782146 -0.750018,3.384814 -1.968746,4.499992 0.569249,2.731833 1.674837,5.275007 3.156244,7.531237 1.644017,-0.06576 3.277797,0.527808 4.531242,1.781247 1.253436,1.25344 1.847012,2.887227 1.781247,4.531242 2.256233,1.481411 4.79941,2.587001 7.531237,3.156244 1.115178,-1.218734 2.717853,-1.968746 4.499992,-1.968746 1.782139,0 3.384815,0.750012 4.499992,1.968746 2.722988,-0.567408 5.249186,-1.650985 7.499986,-3.124994 -0.0035,-0.08805 0,-0.193224 0,-0.28125 0,-1.560942 0.621528,-3.090281 1.812497,-4.281242 1.253435,-1.253439 2.887236,-1.847008 4.531242,-1.781247 1.481408,-2.25623 2.586994,-4.799404 3.156244,-7.531237 -1.218755,-1.115178 -1.968746,-2.717846 -1.968746,-4.499992 0,-1.782139 0.749991,-3.384812 1.968746,-4.499991 -0.56925,-2.731833 -1.674836,-5.275006 -3.156244,-7.531237 -1.644006,0.06577 -3.277807,-0.527814 -4.531242,-1.781247 -1.190969,-1.190963 -1.812497,-2.720307 -1.812497,-4.281242 0,-0.08803 -0.0035,-0.193204 0,-0.28125 -2.2508,-1.474014 -4.776998,-2.557589 -7.499986,-3.124994 -1.115177,1.218735 -2.717853,1.968746 -4.499992,1.968746 -1.782139,0 -3.384814,-0.750011 -4.499992,-1.968746 z m 3.499993,16.49997 c 2.485277,0 4.499992,2.014716 4.499992,4.499992 0,2.485277 -2.014715,4.499992 -4.499992,4.499992 -2.485276,0 -4.499992,-2.014715 -4.499992,-4.499992 0,-2.485276 2.014716,-4.499992 4.499992,-4.499992 z"
       style="color:#000000;fill:none;stroke:#000000;stroke-width:0.49999911;stroke-miterlimit:4;stroke-opacity:1;stroke-dasharray:none;marker:none;visibility:visible;display:inline;overflow:visible;filter:url(#filter3844);enable-background:accumulate" />
    <path
       style="opacity:0.4;color:#000000;fill:url(#radialGradient3850);fill-opacity:1;fill-rule:nonzero;stroke:none;stroke-width:1;marker:none;visibility:visible;display:inline;overflow:visible;enable-background:accumulate"
       d="m 27.52997,10.470077 c -2.731827,0.569246 -5.275003,1.674836 -7.531238,3.156246 0.06576,1.644019 -0.52781,3.277804 -1.781246,4.531241 -1.253445,1.253432 -2.887225,1.847004 -4.531242,1.781246 -1.481407,2.256231 -2.586995,4.799406 -3.156244,7.531236 1.218728,1.115179 1.968746,2.717852 1.968746,4.499992 0,1.782147 -0.750018,3.384814 -1.968746,4.499993 0.569249,2.731832 1.674837,5.275007 3.156244,7.531236 1.644017,-0.06576 3.277797,0.527808 4.531242,1.781246 1.253436,1.253441 1.847012,2.887228 1.781246,4.531243 2.256235,1.481411 4.799411,2.587001 7.531238,3.156244 1.115177,-1.218733 2.717852,-1.968746 4.499992,-1.968746 1.782139,0 3.384814,0.750013 4.499991,1.968746 2.722989,-0.567407 5.249186,-1.650985 7.499987,-3.124995 -0.0036,-0.08805 0,-0.193223 0,-0.281248 0,-1.560943 0.621529,-3.090282 1.812497,-4.281244 1.253433,-1.253438 2.887235,-1.847006 4.531241,-1.781246 1.481409,-2.256229 2.586996,-4.799404 3.156246,-7.531236 -1.218756,-1.115179 -1.968749,-2.717846 -1.968749,-4.499993 0,-1.78214 0.749993,-3.384813 1.968749,-4.499992 -0.56925,-2.73183 -1.674837,-5.275005 -3.156246,-7.531236 -1.644006,0.06577 -3.277808,-0.527814 -4.531241,-1.781246 -1.190968,-1.190962 -1.812497,-2.720308 -1.812497,-4.281242 0,-0.08803 -0.0036,-0.193204 0,-0.28125 -2.250801,-1.474014 -4.776998,-2.55759 -7.499987,-3.124995 -1.115177,1.218735 -2.717852,1.968746 -4.499991,1.968746 -1.78214,0 -3.384815,-0.750011 -4.499992,-1.968746 z m 3.499993,16.49997 c 2.485277,0 4.499992,2.014716 4.499992,4.499993 0,2.485277 -2.014715,4.499992 -4.499992,4.499992 -2.485277,0 -4.499993,-2.014715 -4.499993,-4.499992 0,-2.485277 2.014716,-4.499993 4.499993,-4.499993 z"
       id="path3968-2"
       inkscape:connector-curvature="0" />
    <path
       d="m 36.325495,19.630592 c -1.360104,0 -2.461428,1.103601 -2.461428,2.464099 0,1.360489 1.101324,2.464099 2.461428,2.464099 1.360109,0 2.461424,-1.10361 2.461424,-2.464099 0,-1.360498 -1.101315,-2.464099 -2.461424,-2.464099 z m -5.198257,1.929925 c -1.517963,1.87e-4 -3.056981,0.383718 -4.440891,1.068346 -0.04926,0.02441 -0.07993,0.06782 -0.09467,0.120619 -0.015,0.0528 -0.01181,0.108563 0.01725,0.155081 l 1.996688,3.161969 c 0.05055,0.08042 0.153375,0.114393 0.240977,0.07755 0.738999,-0.312754 1.505855,-0.465252 2.280682,-0.465252 2.850117,0 5.336627,2.114269 5.783496,4.91958 0.015,0.0942 0.09426,0.163707 0.189341,0.163707 l 3.752378,0 c 0.05469,0 0.1095,-0.01976 0.146306,-0.06028 0.03681,-0.04061 0.05678,-0.09167 0.05169,-0.146475 -0.202369,-2.081465 -1.091275,-4.096764 -2.495852,-5.660527 -0.06343,-0.07095 -0.169463,-0.07768 -0.249585,-0.02584 -0.566357,0.366156 -1.208955,0.560022 -1.858976,0.560022 -1.896338,0 -3.433748,-1.542289 -3.433949,-3.42906 2.01e-4,-0.0016 0,-0.06577 0,-0.06893 0,-0.09399 -0.07043,-0.182007 -0.163518,-0.198162 -0.592939,-0.102862 -1.1685,-0.172312 -1.721275,-0.172312 z m -6.024465,2.067776 c -0.02603,0.0064 -0.05608,0.01781 -0.07742,0.03444 -1.627618,1.254946 -2.848237,3.019871 -3.442551,4.97127 -0.02323,0.07627 -0.0028,0.157125 0.06023,0.206778 0.817939,0.648563 1.308173,1.64689 1.308173,2.670874 0,1.023984 -0.490033,2.022313 -1.308173,2.670879 -0.06238,0.04946 -0.08347,0.130313 -0.06023,0.206775 0.589585,1.935044 1.80058,3.693233 3.408122,4.945429 0.04312,0.03369 0.09236,0.05254 0.146307,0.04311 0.05374,-0.0092 0.09975,-0.04886 0.129093,-0.09476 l 2.013902,-3.153366 c 0.05143,-0.08061 0.03741,-0.186581 -0.03448,-0.249853 -1.261665,-1.111288 -1.988078,-2.704695 -1.988078,-4.368176 0,-1.675896 0.730431,-3.273726 2.00529,-4.385402 0.07191,-0.06289 0.09401,-0.168862 0.04303,-0.249857 l -1.996671,-3.162017 c -0.02912,-0.04612 -0.07536,-0.07671 -0.129094,-0.08616 -0.02687,-0.0049 -0.05149,-0.0064 -0.07742,0 z m -5.551112,5.41067 c -1.391961,0 -2.521673,1.131915 -2.521673,2.524409 0,1.392495 1.129712,2.515788 2.521673,2.515788 1.391961,0 2.521669,-1.123293 2.521669,-2.515788 0,-1.392494 -1.129708,-2.524409 -2.521669,-2.524409 z m 21.300795,3.25674 -3.752379,0.0086 c -0.09469,1.97e-4 -0.182794,0.07029 -0.19795,0.163688 -0.452972,2.784426 -2.932654,4.885123 -5.774889,4.885123 -0.783885,0 -1.559231,-0.162056 -2.306503,-0.482486 -0.08741,-0.03724 -0.189602,-0.01087 -0.240979,0.06893 l -2.013894,3.161968 c -0.02929,0.04631 -0.0318,0.102075 -0.01725,0.155081 0.01463,0.05278 0.04562,0.09619 0.09467,0.120619 1.394734,0.699015 2.94844,1.068347 4.483922,1.068347 0.569513,0 1.16409,-0.05709 1.764313,-0.163706 0.08424,-0.01481 0.144882,-0.07877 0.154913,-0.163707 0.2,-1.729301 1.660871,-3.032733 3.399514,-3.032733 0.539,0 1.093734,0.136181 1.592175,0.396318 0.07579,0.03964 0.163725,0.02685 0.223766,-0.03448 1.571912,-1.604747 2.565636,-3.720502 2.788468,-5.944852 0.0051,-0.05456 -0.01463,-0.105675 -0.05167,-0.146457 -0.03699,-0.0408 -0.09158,-0.06051 -0.146306,-0.0603 z m -4.432292,6.659959 c -1.391962,0 -2.521672,1.121869 -2.521672,2.507177 0,1.385314 1.12971,2.507179 2.521672,2.507179 1.391963,0 2.521673,-1.121865 2.521673,-2.507179 0,-1.385308 -1.12971,-2.507177 -2.521673,-2.507177 z"
       inkscape:connector-curvature="0"
       id="path3324"
       style="fill:url(#radialGradient3866);fill-opacity:1;overflow:visible" />
    <path
       inkscape:connector-curvature="0"
       id="path3848"
       d="m 27.52997,10.470077 c -2.731827,0.569246 -5.275003,1.674836 -7.531238,3.156246 0.06576,1.644019 -0.52781,3.277804 -1.781246,4.531241 -1.253445,1.253432 -2.887225,1.847004 -4.531242,1.781246 -1.481407,2.256231 -2.586995,4.799406 -3.156244,7.531236 1.218728,1.115179 1.968746,2.717852 1.968746,4.499992 0,1.782147 -0.750018,3.384814 -1.968746,4.499993 0.569249,2.731832 1.674837,5.275007 3.156244,7.531236 1.644017,-0.06576 3.277797,0.527808 4.531242,1.781246 1.253436,1.253441 1.847012,2.887228 1.781246,4.531243 2.256235,1.481411 4.799411,2.587001 7.531238,3.156244 1.115177,-1.218733 2.717852,-1.968746 4.499992,-1.968746 1.782139,0 3.384814,0.750013 4.499991,1.968746 2.722989,-0.567407 5.249186,-1.650985 7.499987,-3.124995 -0.0036,-0.08805 0,-0.193223 0,-0.281248 0,-1.560943 0.621529,-3.090282 1.812497,-4.281244 1.253433,-1.253438 2.887235,-1.847006 4.531241,-1.781246 1.481409,-2.256229 2.586996,-4.799404 3.156246,-7.531236 -1.218756,-1.115179 -1.968749,-2.717846 -1.968749,-4.499993 0,-1.78214 0.749993,-3.384813 1.968749,-4.499992 -0.56925,-2.73183 -1.674837,-5.275005 -3.156246,-7.531236 -1.644006,0.06577 -3.277808,-0.527814 -4.531241,-1.781246 -1.190968,-1.190962 -1.812497,-2.720308 -1.812497,-4.281242 0,-0.08803 -0.0036,-0.193204 0,-0.28125 -2.250801,-1.474014 -4.776998,-2.55759 -7.499987,-3.124995 -1.115177,1.218735 -2.717852,1.968746 -4.499991,1.968746 -1.78214,0 -3.384815,-0.750011 -4.499992,-1.968746 z m 3.499993,16.49997 c 2.485277,0 4.499992,2.014716 4.499992,4.499993 0,2.485277 -2.014715,4.499992 -4.499992,4.499992 -2.485277,0 -4.499993,-2.014715 -4.499993,-4.499992 0,-2.485277 2.014716,-4.499993 4.499993,-4.499993 z"
       style="color:#000000;fill:none;stroke:none;stroke-width:1.22793615;marker:none;visibility:visible;display:inline;overflow:visible;enable-background:accumulate" />
    <path
       inkscape:connector-curvature="0"
       id="path3840"
       d="m 27.632242,10.958713 c -2.66974,0.556307 -5.155118,1.636772 -7.360073,3.08451 0.06428,1.606658 -0.515814,3.20331 -1.740763,4.428261 -1.224958,1.224945 -2.821605,1.805027 -4.428263,1.740763 -1.447737,2.204953 -2.528195,4.690328 -3.084504,7.360073 1.191028,1.089834 1.923996,2.656082 1.923996,4.397718 0,1.741643 -0.732968,3.307887 -1.923996,4.397719 0.556309,2.669745 1.636767,5.155122 3.084504,7.360073 1.606658,-0.06426 3.203305,0.515812 4.428263,1.740765 1.224949,1.22495 1.805034,2.821607 1.740763,4.428259 2.204955,1.447741 4.690333,2.528205 7.360073,3.084511 1.089834,-1.191035 2.656083,-1.924003 4.39772,-1.924003 1.741637,0 3.307886,0.732968 4.397719,1.924003 2.661101,-0.554514 5.129886,-1.613463 7.329533,-3.053973 -0.0034,-0.08604 0,-0.188832 0,-0.274857 0,-1.525466 0.607402,-3.020047 1.771303,-4.18394 1.224947,-1.224953 2.821616,-1.805031 4.428258,-1.740765 1.44774,-2.204951 2.5282,-4.690328 3.084512,-7.360073 -1.191056,-1.089832 -1.924001,-2.656076 -1.924001,-4.397719 0,-1.741636 0.732945,-3.307884 1.924001,-4.397718 -0.556312,-2.669745 -1.636772,-5.15512 -3.084512,-7.360073 -1.606642,0.06427 -3.203311,-0.515818 -4.428258,-1.740763 -1.163901,-1.163895 -1.771303,-2.658482 -1.771303,-4.183941 0,-0.08602 -0.0034,-0.188812 0,-0.274858 -2.199647,-1.440513 -4.668432,-2.499463 -7.329533,-3.053972 -1.089833,1.191036 -2.656082,1.924002 -4.397719,1.924002 -1.741637,0 -3.307886,-0.732966 -4.39772,-1.924002 z m 3.420448,16.12497 c 2.428794,0 4.39772,1.968927 4.39772,4.397721 0,2.428793 -1.968926,4.397719 -4.39772,4.397719 -2.428793,0 -4.397719,-1.968926 -4.397719,-4.397719 0,-2.428794 1.968926,-4.397721 4.397719,-4.397721 z"
       style="opacity:0.4;color:#000000;fill:none;stroke:#ffffff;stroke-width:1;stroke-miterlimit:4;stroke-opacity:1;stroke-dasharray:none;marker:none;visibility:visible;display:inline;overflow:visible;enable-background:accumulate" />
  </g>
</svg>
