<?xml version="1.0" encoding="UTF-8" standalone="no"?>
<!-- Created with Inkscape (http://www.inkscape.org/) -->

<svg
   xmlns:dc="http://purl.org/dc/elements/1.1/"
   xmlns:cc="http://creativecommons.org/ns#"
   xmlns:rdf="http://www.w3.org/1999/02/22-rdf-syntax-ns#"
   xmlns:svg="http://www.w3.org/2000/svg"
   xmlns="http://www.w3.org/2000/svg"
   xmlns:xlink="http://www.w3.org/1999/xlink"
   xmlns:sodipodi="http://sodipodi.sourceforge.net/DTD/sodipodi-0.dtd"
   xmlns:inkscape="http://www.inkscape.org/namespaces/inkscape"
   version="1.1"
   width="64"
   height="64"
   id="svg6333"
   inkscape:version="0.48.4 r9939"
   sodipodi:docname="2.svg">
  <sodipodi:namedview
     pagecolor="#ffffff"
     bordercolor="#666666"
     borderopacity="1"
     objecttolerance="10"
     gridtolerance="10"
     guidetolerance="10"
     inkscape:pageopacity="0"
     inkscape:pageshadow="2"
     inkscape:window-width="1855"
     inkscape:window-height="1056"
     id="namedview49"
     showgrid="true"
     inkscape:zoom="14.09883"
     inkscape:cx="27.506757"
     inkscape:cy="32.905551"
     inkscape:window-x="65"
     inkscape:window-y="24"
     inkscape:window-maximized="1"
     inkscape:current-layer="svg6333">
    <inkscape:grid
       type="xygrid"
       id="grid6113" />
  </sodipodi:namedview>
  <defs
     id="defs6335">
    <linearGradient
       x1="167.98311"
       y1="8.50811"
       x2="167.98311"
       y2="54.780239"
       id="linearGradient5809"
       xlink:href="#linearGradient5803"
       gradientUnits="userSpaceOnUse"
       gradientTransform="translate(-130,1.759402e-6)" />
    <linearGradient
       id="linearGradient5803">
      <stop
         id="stop5805"
         style="stop-color:#fff5ef;stop-opacity:1"
         offset="0" />
      <stop
         id="stop5807"
         style="stop-color:#fef8dd;stop-opacity:1"
         offset="1" />
    </linearGradient>
    <linearGradient
       x1="27.096104"
       y1="10.880992"
       x2="27.096104"
       y2="39.150768"
       id="linearGradient5801"
       xlink:href="#linearGradient3895-9-0-3-5-2-0-4-9"
       gradientUnits="userSpaceOnUse"
       gradientTransform="matrix(1.4102564,0,0,1.4102564,0.391129,-2.2559982)" />
    <linearGradient
       id="linearGradient3895-9-0-3-5-2-0-4-9">
      <stop
         id="stop3897-0-5-7-89-6-6-7-0"
         style="stop-color:#dc5639;stop-opacity:1"
         offset="0" />
      <stop
         id="stop3899-8-7-06-3-8-3-8-0"
         style="stop-color:#9d0f0f;stop-opacity:1"
         offset="1" />
    </linearGradient>
    <linearGradient
       x1="23.99999"
       y1="4.999989"
       x2="23.99999"
       y2="43"
       id="linearGradient3381-5-4"
       xlink:href="#linearGradient3924-2-2-5-8"
       gradientUnits="userSpaceOnUse"
       gradientTransform="matrix(1.4324324,0,0,1.4362832,-2.378381,-2.4707782)" />
    <linearGradient
       id="linearGradient3924-2-2-5-8">
      <stop
         id="stop3926-9-4-9-6"
         style="stop-color:#ffffff;stop-opacity:1"
         offset="0" />
      <stop
         id="stop3928-9-8-6-5"
         style="stop-color:#ffffff;stop-opacity:0.23529412"
         offset="0.06316455" />
      <stop
         id="stop3930-3-5-1-7"
         style="stop-color:#ffffff;stop-opacity:0.15686275"
         offset="0.95056331" />
      <stop
         id="stop3932-8-0-4-8"
         style="stop-color:#ffffff;stop-opacity:0.39215687"
         offset="1" />
    </linearGradient>
    <radialGradient
       cx="6.7304144"
       cy="9.9571075"
       r="12.671875"
       fx="6.2001843"
       fy="9.9571075"
       id="radialGradient3402-7-1-6"
       xlink:href="#linearGradient2867-449-88-871-390-598-476-591-434-148-57-177-8-3-3-6-4-8-8-8"
       gradientUnits="userSpaceOnUse"
       gradientTransform="matrix(0,13.393984,-16.443533,0,196.90205,-114.89368)" />
    <linearGradient
       id="linearGradient2867-449-88-871-390-598-476-591-434-148-57-177-8-3-3-6-4-8-8-8">
      <stop
         id="stop3750-1-0-7-6-6-1-3-9"
         style="stop-color:#ffcd7d;stop-opacity:1"
         offset="0" />
      <stop
         id="stop3752-3-7-4-0-32-8-923-0"
         style="stop-color:#fc8f36;stop-opacity:1"
         offset="0.26238" />
      <stop
         id="stop3754-1-8-5-2-7-6-7-1"
         style="stop-color:#e23a0e;stop-opacity:1"
         offset="0.704952" />
      <stop
         id="stop3756-1-6-2-6-6-1-96-6"
         style="stop-color:#ac441f;stop-opacity:1"
         offset="1" />
    </linearGradient>
    <radialGradient
       cx="4.9929786"
       cy="43.5"
       r="2.5"
       fx="4.9929786"
       fy="43.5"
       id="radialGradient3337-2-2"
       xlink:href="#linearGradient3688-166-749-4-0-3-8"
       gradientUnits="userSpaceOnUse"
       gradientTransform="matrix(2.003784,0,0,1.4,27.98813,-17.4)" />
    <linearGradient
       id="linearGradient3688-166-749-4-0-3-8">
      <stop
         id="stop2883-4-0-1-8"
         style="stop-color:#181818;stop-opacity:1"
         offset="0" />
      <stop
         id="stop2885-9-2-9-6"
         style="stop-color:#181818;stop-opacity:0"
         offset="1" />
    </linearGradient>
    <radialGradient
       cx="4.9929786"
       cy="43.5"
       r="2.5"
       fx="4.9929786"
       fy="43.5"
       id="radialGradient3339-1-4"
       xlink:href="#linearGradient3688-464-309-9-2-4-2"
       gradientUnits="userSpaceOnUse"
       gradientTransform="matrix(2.003784,0,0,1.4,-20.01187,-104.4)" />
    <linearGradient
       id="linearGradient3688-464-309-9-2-4-2">
      <stop
         id="stop2889-7-9-6-9"
         style="stop-color:#181818;stop-opacity:1"
         offset="0" />
      <stop
         id="stop2891-6-6-1-7"
         style="stop-color:#181818;stop-opacity:0"
         offset="1" />
    </linearGradient>
    <linearGradient
       id="linearGradient3702-501-757-8-4-1-1">
      <stop
         id="stop2895-8-9-9-1"
         style="stop-color:#181818;stop-opacity:0"
         offset="0" />
      <stop
         id="stop2897-7-8-7-7"
         style="stop-color:#181818;stop-opacity:1"
         offset="0.5" />
      <stop
         id="stop2899-4-5-1-5"
         style="stop-color:#181818;stop-opacity:0"
         offset="1" />
    </linearGradient>
    <linearGradient
       x1="25.058096"
       y1="47.027729"
       x2="25.058096"
       y2="39.999443"
       id="linearGradient6394"
       xlink:href="#linearGradient3702-501-757-8-4-1-1"
       gradientUnits="userSpaceOnUse" />
    <linearGradient
       inkscape:collect="always"
       xlink:href="#linearGradient5803"
       id="linearGradient3028"
       gradientUnits="userSpaceOnUse"
       gradientTransform="translate(-130,1.759402e-6)"
       x1="167.98311"
       y1="8.50811"
       x2="167.98311"
       y2="54.780239" />
    <linearGradient
       inkscape:collect="always"
       xlink:href="#linearGradient3895-9-0-3-5-2-0-4-9"
       id="linearGradient3032"
       gradientUnits="userSpaceOnUse"
       gradientTransform="matrix(1.4102564,0,0,1.4102564,0.391129,-2.2559982)"
       x1="27.096104"
       y1="10.880992"
       x2="27.096104"
       y2="39.150768" />
    <linearGradient
       inkscape:collect="always"
       xlink:href="#linearGradient3924-2-2-5-8"
       id="linearGradient3035"
       gradientUnits="userSpaceOnUse"
       gradientTransform="matrix(1.4324324,0,0,1.4362832,-2.378381,-2.4707782)"
       x1="23.99999"
       y1="4.999989"
       x2="23.99999"
       y2="43" />
    <radialGradient
       inkscape:collect="always"
       xlink:href="#linearGradient3898"
       id="radialGradient3038"
       gradientUnits="userSpaceOnUse"
       gradientTransform="matrix(0,13.393984,-16.443533,0,196.90205,-114.89368)"
       cx="6.7304144"
       cy="9.9571075"
       fx="6.2001843"
       fy="9.9571075"
       r="12.671875" />
    <linearGradient
       gradientTransform="matrix(1.2225398,0,0,0.9314814,3.5024572,16.875453)"
       gradientUnits="userSpaceOnUse"
       xlink:href="#linearGradient2346"
       id="linearGradient3263"
       y2="35.298134"
       x2="21.13592"
       y1="40.884956"
       x1="21.13592" />
    <linearGradient
       gradientTransform="matrix(1.3595893,0,0,1.3518602,-0.6421823,-0.5277458)"
       gradientUnits="userSpaceOnUse"
       xlink:href="#linearGradient2490"
       id="linearGradient3259"
       y2="0.99999988"
       x2="24.008854"
       y1="38.246284"
       x1="24.008854" />
    <radialGradient
       gradientTransform="matrix(0.06238478,3.943134,-5.8465704,4.4854257e-7,101.76823,-161.57596)"
       gradientUnits="userSpaceOnUse"
       xlink:href="#linearGradient3242-2"
       id="radialGradient3257"
       fy="18.618757"
       fx="39.651478"
       r="20.714195"
       cy="18.618757"
       cx="39.651478" />
    <linearGradient
       gradientTransform="matrix(1.327168,0,0,1.3331554,-1.9477854,1.8495702)"
       gradientUnits="userSpaceOnUse"
       xlink:href="#linearGradient3211"
       id="linearGradient3253"
       y2="41.953453"
       x2="25.579119"
       y1="-25.736307"
       x1="25.579119" />
    <radialGradient
       gradientTransform="matrix(-0.00991642,-2.2574638,3.564406,-0.01385783,-45.604439,71.757724)"
       gradientUnits="userSpaceOnUse"
       xlink:href="#linearGradient2346"
       id="radialGradient3249"
       fy="25.435272"
       fx="17.949392"
       r="13.427935"
       cy="25.435272"
       cx="17.949392" />
    <radialGradient
       gradientTransform="matrix(-2.774389,0,0,1.969706,112.7623,-872.8854)"
       gradientUnits="userSpaceOnUse"
       xlink:href="#linearGradient5060"
       id="radialGradient3235"
       fy="486.64789"
       fx="605.71429"
       r="117.14286"
       cy="486.64789"
       cx="605.71429" />
    <radialGradient
       gradientTransform="matrix(2.774389,0,0,1.969706,-1891.633,-872.8854)"
       gradientUnits="userSpaceOnUse"
       xlink:href="#linearGradient5060"
       id="radialGradient3233"
       fy="486.64789"
       fx="605.71429"
       r="117.14286"
       cy="486.64789"
       cx="605.71429" />
    <linearGradient
       gradientTransform="matrix(2.774389,0,0,1.969706,-1892.179,-872.8854)"
       gradientUnits="userSpaceOnUse"
       xlink:href="#linearGradient5048"
       id="linearGradient3231"
       y2="609.50507"
       x2="302.85715"
       y1="366.64789"
       x1="302.85715" />
    <linearGradient
       id="linearGradient3242-2">
      <stop
         offset="0"
         style="stop-color:#f87e8b;stop-opacity:1;"
         id="stop3244" />
      <stop
         offset="0.31209752"
         style="stop-color:#700011;stop-opacity:1;"
         id="stop3246-9" />
      <stop
         offset="0.57054454"
         style="stop-color:#740018;stop-opacity:1;"
         id="stop3248-3" />
      <stop
         offset="1"
         style="stop-color:#690b2a;stop-opacity:1;"
         id="stop3250-9" />
    </linearGradient>
    <linearGradient
       id="linearGradient5060">
      <stop
         offset="0"
         style="stop-color:#000000;stop-opacity:1"
         id="stop5062" />
      <stop
         offset="1"
         style="stop-color:#000000;stop-opacity:0"
         id="stop5064" />
    </linearGradient>
    <linearGradient
       id="linearGradient5048">
      <stop
         offset="0"
         style="stop-color:#000000;stop-opacity:0"
         id="stop5050" />
      <stop
         offset="0.5"
         style="stop-color:#000000;stop-opacity:1"
         id="stop5056" />
      <stop
         offset="1"
         style="stop-color:#000000;stop-opacity:0"
         id="stop5052" />
    </linearGradient>
    <linearGradient
       id="linearGradient2490">
      <stop
         offset="0"
         style="stop-color:#791235;stop-opacity:1"
         id="stop2492" />
      <stop
         offset="1"
         style="stop-color:#dd3b27;stop-opacity:1"
         id="stop2494" />
    </linearGradient>
    <linearGradient
       id="linearGradient3211">
      <stop
         offset="0"
         style="stop-color:#ffffff;stop-opacity:1"
         id="stop3213" />
      <stop
         offset="1"
         style="stop-color:#ffffff;stop-opacity:0"
         id="stop3215" />
    </linearGradient>
    <linearGradient
       id="linearGradient2346">
      <stop
         offset="0"
         style="stop-color:#eeeeee;stop-opacity:1"
         id="stop2348" />
      <stop
         offset="1"
         style="stop-color:#d9d9da;stop-opacity:1"
         id="stop2350" />
    </linearGradient>
    <linearGradient
       x1="-133.80838"
       y1="20.749088"
       x2="-33.805447"
       y2="-11.969338"
       id="linearGradient3906"
       xlink:href="#linearGradient3898"
       gradientUnits="userSpaceOnUse"
       gradientTransform="matrix(1.1783679,0,0,1.1783679,268.98117,-4.2375142)" />
    <linearGradient
       id="linearGradient3898">
      <stop
         id="stop3900"
         style="stop-color:#ed4855;stop-opacity:1;"
         offset="0" />
      <stop
         offset="0.25"
         style="stop-color:#b0212c;stop-opacity:1;"
         id="stop5408" />
      <stop
         id="stop3908"
         style="stop-color:#7c0913;stop-opacity:1;"
         offset="0.5" />
      <stop
         id="stop3902"
         style="stop-color:#6e0009;stop-opacity:1;"
         offset="1" />
    </linearGradient>
    <linearGradient
       x1="26.313066"
       y1="9.8269262"
       x2="26.313066"
       y2="23.605091"
       id="linearGradient3300"
       xlink:href="#linearGradient4260-8"
       gradientUnits="userSpaceOnUse"
       gradientTransform="matrix(1.3368705,0,0,1.3493902,-0.167113,-1.4631942)" />
    <linearGradient
       id="linearGradient4260-8">
      <stop
         id="stop4262-1"
         style="stop-color:#000000;stop-opacity:1"
         offset="0" />
      <stop
         id="stop4264-8"
         style="stop-color:#000000;stop-opacity:0"
         offset="1" />
    </linearGradient>
    <linearGradient
       x1="26.313066"
       y1="9.8269262"
       x2="26.313066"
       y2="23.605091"
       id="linearGradient3303"
       xlink:href="#linearGradient4260-6"
       gradientUnits="userSpaceOnUse"
       gradientTransform="matrix(1.3368705,0,0,1.3493902,-11.753321,10.233009)" />
    <linearGradient
       id="linearGradient4260-6">
      <stop
         id="stop4262-7"
         style="stop-color:#000000;stop-opacity:1"
         offset="0" />
      <stop
         id="stop4264-90"
         style="stop-color:#000000;stop-opacity:0"
         offset="1" />
    </linearGradient>
    <linearGradient
       x1="26.313066"
       y1="9.8269262"
       x2="26.313066"
       y2="23.605091"
       id="linearGradient3306"
       xlink:href="#linearGradient4260-7"
       gradientUnits="userSpaceOnUse"
       gradientTransform="matrix(1.3368705,0,0,1.3493902,-23.339529,-1.4631942)" />
    <linearGradient
       id="linearGradient4260-7">
      <stop
         id="stop4262-3"
         style="stop-color:#000000;stop-opacity:1"
         offset="0" />
      <stop
         id="stop4264-9"
         style="stop-color:#000000;stop-opacity:0"
         offset="1" />
    </linearGradient>
    <linearGradient
       x1="26.313066"
       y1="9.8269262"
       x2="26.313066"
       y2="23.605091"
       id="linearGradient3309"
       xlink:href="#linearGradient4260"
       gradientUnits="userSpaceOnUse"
       gradientTransform="matrix(1.3368705,0,0,1.3210439,-11.753322,-12.507434)" />
    <linearGradient
       id="linearGradient4260">
      <stop
         id="stop4262"
         style="stop-color:#000000;stop-opacity:1"
         offset="0" />
      <stop
         id="stop4264"
         style="stop-color:#000000;stop-opacity:0"
         offset="1" />
    </linearGradient>
    <linearGradient
       x1="44.228275"
       y1="18.456329"
       x2="16.354654"
       y2="-9.4172926"
       id="linearGradient3312"
       xlink:href="#linearGradient3707-319-631-407-324-616-6-7-9"
       gradientUnits="userSpaceOnUse"
       gradientTransform="matrix(1.0240858,1.0338081,-1.0240858,1.0338081,-14.482759,-15.018989)" />
    <linearGradient
       id="linearGradient3707-319-631-407-324-616-6-7-9">
      <stop
         offset="0"
         style="stop-color:#ffffff;stop-opacity:1;"
         id="stop3246-7-4-9" />
      <stop
         offset="1"
         style="stop-color:#d8d8d8;stop-opacity:1;"
         id="stop3248-3-8-6" />
    </linearGradient>
  </defs>
  <metadata
     id="metadata6338">
    <rdf:RDF>
      <cc:Work
         rdf:about="">
        <dc:format>image/svg+xml</dc:format>
        <dc:type
           rdf:resource="http://purl.org/dc/dcmitype/StillImage" />
        <dc:title></dc:title>
      </cc:Work>
    </rdf:RDF>
  </metadata>
  <g
     style="opacity:0.6"
     id="g3712-8-2-4-4"
     transform="matrix(1.5789502,0,0,0.7142857,-5.894751,27.928572)">
    <rect
       style="fill:url(#radialGradient3337-2-2);fill-opacity:1;stroke:none"
       id="rect2801-5-5-7-9"
       y="40"
       x="38"
       height="7"
       width="5" />
    <rect
       style="fill:url(#radialGradient3339-1-4);fill-opacity:1;stroke:none"
       id="rect3696-3-0-3-7"
       transform="scale(-1,-1)"
       y="-47"
       x="-10"
       height="7"
       width="5" />
    <rect
       style="fill:url(#linearGradient6394);fill-opacity:1;stroke:none"
       id="rect3700-5-6-8-4"
       y="40"
       x="10"
       height="7.0000005"
       width="28" />
  </g>
  <rect
     style="color:#000000;fill:url(#radialGradient3038);fill-opacity:1;fill-rule:nonzero;stroke:none;stroke-width:0.99999994000000003;marker:none;visibility:visible;display:inline;overflow:visible;enable-background:accumulate;opacity:0.9"
     id="rect5505-21-3-8-5-2"
     y="4.5000019"
     x="4.4999986"
     ry="3"
     rx="3"
     height="55"
     width="55" />
  <rect
     style="opacity:0.5;fill:none;stroke:url(#linearGradient3035);stroke-width:1;stroke-linecap:round;stroke-linejoin:round;stroke-miterlimit:4;stroke-opacity:1;stroke-dasharray:none;stroke-dashoffset:0"
     id="rect6741-5-0-2-3"
     y="5.4287739"
     x="5.4999986"
     ry="2"
     rx="2"
     height="53.142479"
     width="53" />
  <rect
     style="opacity:0.59999999999999998;color:#000000;fill:none;stroke:#450a1d;stroke-width:1;stroke-linecap:round;stroke-linejoin:round;stroke-miterlimit:4;stroke-opacity:1;stroke-dasharray:none;stroke-dashoffset:0;marker:none;visibility:visible;display:inline;overflow:visible;enable-background:accumulate;fill-opacity:1"
     id="rect5505-21-3-8-9-1-1"
     y="4.5000019"
     x="4.4999986"
     ry="3"
     rx="3"
     height="55"
     width="55" />
  <path
     id="path3869"
     d="M 32,13 C 20.9543,13 12,21.9543 12,33 12,44.0457 20.9543,53 32,53 43.0457,53 52,44.0457 52,33 52,21.9543 43.0457,13 32,13 z m 1.40626,2.57813 c 3.16581,0.25153 6.0486,1.33457 8.51563,3.04687 -0.0667,0.23076 -0.47263,-0.089 -0.70313,-0.15624 -0.29263,-0.0853 -0.55497,-0.2967 -0.85939,-0.3125 -0.42888,-0.0226 -0.85921,0.13428 -1.25,0.3125 -0.28921,0.132 -0.63444,0.26491 -0.78124,0.54687 -0.0723,0.13843 0.0747,0.3315 0,0.46874 -0.252,0.4632 -1.13463,0.36886 -1.32813,0.85939 -0.1575,0.39951 -0.0934,1.10984 0.3125,1.24998 0.28069,0.0967 0.4077,-0.57667 0.70313,-0.54687 0.239,0.025 0.28367,0.39393 0.46874,0.54687 0.16176,0.13372 0.35076,0.38743 0.54689,0.3125 0.3077,-0.11743 0.30534,-0.60817 0.3125,-0.9375 0.004,-0.1895 -0.166,-0.35751 -0.15626,-0.54687 0.007,-0.14 0.076,-0.27563 0.15626,-0.39063 0.2005,-0.28731 0.45414,-0.5776 0.78124,-0.70311 0.0973,-0.0373 0.2541,-0.0863 0.3125,0 0.15726,0.23224 -0.25944,0.50581 -0.3125,0.78124 -0.0443,0.23026 -0.17874,0.55163 0,0.70313 0.24176,0.20474 0.81503,-0.44843 0.9375,-0.15626 0.137,0.32666 -0.66833,0.32673 -0.85937,0.625 -0.0714,0.11172 -0.01,0.27626 -0.078,0.39063 -0.22524,0.38197 -0.58463,0.75496 -1.01563,0.85937 -0.33767,0.0817 -0.79931,0.0376 -1.01563,-0.23424 -0.12971,-0.163 0.18376,-0.5267 0,-0.625 -0.16548,-0.0884 -0.41524,0.13257 -0.46874,0.3125 -0.0564,0.19 0.34354,0.3813 0.23426,0.54687 -0.14326,0.2175 -0.5568,-0.132 -0.78126,0 -0.231,0.136 -0.2375,0.48303 -0.39063,0.70313 -0.13729,0.197 -0.25964,0.4289 -0.46874,0.54687 -0.27593,0.15576 -0.84083,-0.1455 -0.9375,0.15626 -0.0787,0.2455 0.41614,0.32467 0.54687,0.54687 0.0963,0.1635 0.27043,0.39553 0.15626,0.54687 -0.14129,0.187 -0.47603,-0.058 -0.70313,0 -0.31617,0.0806 -0.6928,0.18826 -0.85937,0.46876 -0.23926,0.40307 -0.33146,1.0748 0,1.40624 0.092,0.092 0.27031,-0.0497 0.39061,0 0.17,0.0706 0.2095,0.35777 0.39063,0.39063 0.30963,0.0563 0.6457,-0.15976 0.85938,-0.39063 0.20699,-0.22374 0.12072,-0.62244 0.31249,-0.85937 0.1545,-0.191 0.48056,-0.192 0.625,-0.39063 0.063,-0.0867 10e-4,-0.23724 0.078,-0.3125 0.248,-0.2435 0.68503,-0.34123 1.01563,-0.23424 0.26343,0.085 0.3278,0.45574 0.54687,0.625 0.18426,0.14257 0.55616,0.09 0.625,0.3125 0.0793,0.25614 -0.55733,0.49311 -0.39061,0.70313 0.11771,0.1485 0.40377,-0.032 0.54687,-0.15626 0.1935,-0.16824 0.35267,-0.4498 0.3125,-0.70313 -0.055,-0.34603 -0.84569,-0.4612 -0.70313,-0.78124 0.0423,-0.0953 0.215,-0.0367 0.3125,0 0.25913,0.0973 0.48633,0.30727 0.625,0.54687 0.133,0.22974 0.0457,0.53977 0.15626,0.78126 0.12342,0.26997 0.25948,0.7778 0.54687,0.70311 0.33153,-0.086 -0.0456,-0.73883 0.15624,-1.01561 0.0686,-0.094 0.19926,-0.18352 0.3125,-0.15626 0.47086,0.11371 0.43539,0.93764 0.85939,1.17187 0.31994,0.17676 0.74987,-0.0457 1.09374,0.078 0.21076,0.076 0.50126,0.17126 0.54687,0.39063 0.031,0.14874 -0.137,0.27413 -0.23424,0.39063 -0.1775,0.2125 -0.36587,0.4495 -0.625,0.54687 -0.26816,0.10071 -0.57663,0.0457 -0.85937,0 -0.40646,-0.066 -0.76179,-0.35366 -1.17189,-0.39063 -0.1835,-0.0174 -0.38217,-0.006 -0.54687,0.078 -0.19776,0.0987 -0.24776,0.46876 -0.46876,0.46876 -0.58924,0 -0.74034,-0.95423 -1.25,-1.25 -0.25678,-0.149 -0.56318,-0.21326 -0.85937,-0.23426 -0.41884,-0.0297 -0.83784,0.076 -1.25,0.15626 -0.3968,0.0773 -0.83153,0.0943 -1.17187,0.3125 -0.8253,0.52901 -1.3776,1.4209 -1.875,2.26561 -0.32636,0.55423 -0.83483,1.16733 -0.70313,1.79689 0.0303,0.14424 0.29797,0.166 0.3125,0.3125 0.037,0.37374 -0.59064,0.5635 -0.625,0.9375 -0.0544,0.5925 0.38543,1.13754 0.70313,1.64063 0.46307,0.73324 0.85443,1.88234 1.71874,1.95311 0.36889,0.0303 0.49132,-0.74197 0.85939,-0.70311 0.16575,0.0174 0.1485,0.36011 0.3125,0.39061 0.35567,0.0663 0.5787,-0.5933 0.9375,-0.54687 0.146,0.02 0.1765,0.25613 0.3125,0.3125 0.26464,0.10971 0.59853,-0.11829 0.85937,0 0.25207,0.11457 0.4864,0.35486 0.54687,0.625 0.0827,0.37 -0.3968,0.72407 -0.3125,1.09376 0.0697,0.30574 0.52276,0.40667 0.62501,0.70311 0.13629,0.39469 -0.17451,0.84379 -0.078,1.25 0.0834,0.35203 0.53522,0.5759 0.54688,0.9375 0.01,0.291 -0.31733,0.49949 -0.39063,0.78126 -0.1445,0.55503 -0.16876,1.15243 -0.078,1.71876 0.12743,0.79757 0.66467,1.48171 0.85937,2.26561 0.10128,0.40753 0.13028,0.8309 0.15626,1.25 0.0129,0.208 -0.14726,0.47769 0,0.625 0.11042,0.11057 0.31817,0.0417 0.46874,0 0.29267,-0.081 0.48857,-0.38767 0.78126,-0.46874 0.27607,-0.0766 0.59964,0.12071 0.85937,0 0.5865,-0.27286 1.11464,-0.85183 1.25,-1.48437 0.0397,-0.1855 -0.212,-0.3657 -0.15626,-0.54689 0.11971,-0.38874 0.91909,-0.37487 0.9375,-0.78124 0.015,-0.33113 -0.72144,-0.37217 -0.70311,-0.70313 0.0176,-0.33297 0.50744,-0.43463 0.78124,-0.625 0.24926,-0.17324 0.55258,-0.2689 0.78126,-0.46874 0.12557,-0.10972 0.27867,-0.22726 0.3125,-0.39063 0.0603,-0.29076 -0.195,-0.56509 -0.23426,-0.85939 -0.0967,-0.72271 -0.159,-1.4759 0,-2.1875 0.10671,-0.4775 0.35427,-0.92057 0.625,-1.32811 0.19376,-0.29186 0.51507,-0.48563 0.70313,-0.78126 0.39457,-0.62033 0.71321,-1.31073 0.85937,-2.03124 0.0363,-0.17876 0.13728,-0.4268 0,-0.54689 -0.2965,-0.2596 -0.98893,0.5053 -1.17187,0.15626 -0.17976,-0.3429 0.4919,-0.60217 0.78124,-0.85937 0.33487,-0.29766 0.76056,-0.48173 1.09376,-0.78126 0.23324,-0.2095 0.51354,-0.41 0.625,-0.70313 0.0833,-0.219 0.0495,-0.47404 0,-0.70313 -0.0667,-0.30751 -0.078,-0.82257 -0.39063,-0.85937 -0.29487,-0.0347 -0.25003,0.70917 -0.54687,0.70313 -0.224,-0.006 -0.234,-0.38666 -0.39063,-0.54687 -0.182,-0.18626 -0.50854,-0.23576 -0.625,-0.46876 -0.13972,-0.2795 -0.29174,-0.82554 0,-0.9375 0.3271,-0.12557 0.37637,0.65483 0.70313,0.78126 0.244,0.0944 0.53304,-0.16126 0.78124,-0.078 0.43693,0.14624 0.5568,0.97934 1.01563,0.9375 0.10371,-0.01 0.17126,-0.166 0.23426,-0.23426 0.075,0.77016 0.0553,1.14516 0.23424,2.5 0,9.06093 -6.87864,16.5257 -15.70313,17.42189 -0.58924,0.0363 -1.17707,0.078 -1.79687,0.078 -2.8357,0 -5.52166,-0.67776 -7.89063,-1.875 -0.0264,-0.12757 0.28257,-0.10772 0.3125,-0.23426 0.0267,-0.11329 -0.175,-0.1975 -0.15624,-0.3125 0.0413,-0.25447 0.41614,-0.32467 0.54687,-0.54687 0.0963,-0.1635 0.0224,-0.41363 0.15624,-0.54687 0.21126,-0.20876 0.64096,-0.0333 0.85939,-0.23426 0.44847,-0.41293 0.63467,-1.1092 0.625,-1.71874 -0.003,-0.14029 -0.16526,-0.25067 -0.15626,-0.39063 0.0176,-0.26757 0.1765,-0.54187 0.39063,-0.70313 0.27757,-0.209 0.7518,-0.007 1.01563,-0.23424 0.31944,-0.27377 0.39951,-0.7569 0.46874,-1.17187 0.0857,-0.51439 -0.22474,-1.06209 -0.078,-1.56252 0.126,-0.42994 0.6294,-0.67221 0.78126,-1.09374 0.12371,-0.34387 0.25591,-0.7744 0.078,-1.09376 -0.5723,-1.02791 -2.30139,-0.80051 -3.125,-1.64061 -0.28536,-0.29109 -0.229,-0.8387 -0.54687,-1.09376 C 25.0301,35.846 24.58553,36.0249 24.34387,35.81326 23.96659,35.4807 24.22887,34.66463 23.797,34.407 c -0.36064,-0.215 -0.84357,0.26186 -1.25,0.15626 -0.46883,-0.12172 -0.68831,-0.88799 -1.17187,-0.85939 -0.5334,0.0314 -0.95893,0.6037 -1.17187,1.09376 -0.02,0.0477 0.0416,0.125 0,0.15624 -0.3027,0.22826 -0.82389,-0.0463 -1.09376,-0.3125 -0.1935,-0.191 -0.195,-0.51224 -0.23424,-0.78124 -0.0377,-0.25766 0.193,-0.6065 0,-0.78126 -0.194,-0.1755 -0.60016,0.26706 -0.78126,0.078 -0.3823,-0.39877 0.59633,-1.2233 0.23426,-1.64063 -0.10243,-0.118 -0.329,-0.0697 -0.46876,0 -0.233,0.11643 -0.26883,0.45816 -0.46874,0.625 -0.13429,0.112 -0.29426,0.24276 -0.46876,0.23426 -0.2455,-0.0129 -0.49534,-0.182 -0.625,-0.39063 -0.13829,-0.22224 -0.076,-0.51954 -0.078,-0.78124 -0.003,-0.31359 -0.0787,-0.66603 0.078,-0.9375 0.206,-0.35649 0.6226,-0.58036 1.01563,-0.70313 0.2485,-0.0777 0.57,0.15224 0.78126,0 0.13342,-0.0963 0.0129,-0.3895 0.15624,-0.46876 0.28237,-0.155 0.66544,0.062 0.9375,0.23426 0.3126,0.19826 0.3485,0.96537 0.70313,0.85937 0.4767,-0.14243 -0.0807,-1.04697 0.15624,-1.48437 0.25583,-0.472 0.9446,-0.5741 1.25,-1.01563 0.23426,-0.33864 0.11029,-0.87027 0.39063,-1.17187 0.2305,-0.248 0.66846,-0.185 0.9375,-0.39063 0.236,-0.18024 0.2943,-0.54703 0.54687,-0.70313 0.33889,-0.2095 0.84769,-0.003 1.17187,-0.23424 0.29443,-0.21026 0.72709,-0.62377 0.54689,-0.9375 -0.28536,-0.4968 -1.60356,0.56123 -1.71876,0 -0.0797,-0.38856 0.7052,-0.389 1.09376,-0.46876 0.2551,-0.0523 0.5252,0.0476 0.78124,0 0.35663,-0.0663 0.70186,-0.57257 1.01563,-0.39061 0.2963,0.17174 -0.17824,0.94164 0.15624,1.01561 0.27503,0.0607 0.51953,-0.42604 0.46876,-0.70311 -0.0404,-0.22026 -0.48387,-0.17576 -0.54687,-0.39063 -0.0396,-0.13457 0.1845,-0.25326 0.15624,-0.39063 -0.037,-0.1805 -0.227,-0.30637 -0.39061,-0.39063 -0.14072,-0.0724 -0.38706,0.0576 -0.46876,-0.078 -0.085,-0.141 0.1715,-0.30474 0.15624,-0.46874 -0.025,-0.26697 -0.138,-0.6133 -0.39061,-0.70313 -0.26427,-0.094 -0.56996,0.49696 -0.78126,0.3125 -0.16174,-0.14128 0.23976,-0.4271 0.15626,-0.625 -0.14043,-0.33337 -0.5896,-0.64613 -0.9375,-0.54687 -0.4817,0.13743 -0.63087,0.83244 -0.70313,1.32813 -0.02,0.13157 0.13928,0.2727 0.078,0.39061 -0.118,0.22776 -0.52047,0.13257 -0.70313,0.3125 -0.26553,0.26179 -0.0993,1.06532 -0.46874,1.01563 -0.31399,-0.0423 0.045,-0.69287 -0.15626,-0.9375 -0.28277,-0.3436 -0.94123,-0.14824 -1.25,-0.46874 -0.1715,-0.178 -0.32254,-0.47236 -0.23424,-0.70313 0.22474,-0.58837 1.14007,-0.55517 1.64063,-0.9375 0.2634,-0.20126 0.56251,-0.40296 0.70311,-0.70313 0.122,-0.26047 0.20826,-0.6029 0.078,-0.85937 -0.0687,-0.13557 -0.24424,-0.19374 -0.39063,-0.23424 -0.0503,-0.015 -0.14171,0.05 -0.15624,0 -0.007,-0.0266 0.003,-0.0516 0,-0.078 0.55673,-0.38419 1.11787,-0.69686 1.71876,-1.01563 0.0684,0.0376 0.0327,0.1635 0,0.23424 -0.10029,0.218 -0.40573,0.27453 -0.54689,0.46876 -0.199,0.27384 -0.57843,0.65583 -0.39063,0.9375 0.14452,0.21674 0.5672,0.14824 0.78126,0 0.18274,-0.12672 0.1455,-0.42106 0.23426,-0.625 -0.015,0.29653 0.42227,0.45053 0.70311,0.54687 0.197,0.0676 0.47767,0.14724 0.625,0 0.14726,-0.14724 0.11357,-0.45033 0,-0.625 -0.13971,-0.215 -0.44727,-0.33047 -0.70313,-0.3125 -0.12243,0.007 -0.26657,0.0129 -0.39061,0.078 0.2215,-0.248 0.46601,-0.4908 0.78124,-0.54687 0.26769,-0.0476 0.53746,0.114 0.78126,0.23424 0.5185,0.2559 0.82887,1.04666 1.40624,1.01563 0.34986,-0.02 0.84813,-0.3592 0.78126,-0.70313 -0.0583,-0.2992 -0.64046,-0.10057 -0.85937,-0.3125 -0.2015,-0.19524 -0.0893,-0.6114 -0.3125,-0.78124 -0.37533,-0.2856 -1.09172,0.19524 -1.40626,-0.15626 -0.0176,-0.02 0,-0.052 0,-0.078 0,-0.026 -0.0176,-0.0597 0,-0.078 0.0224,-0.01 0.0556,0.01 0.078,0 0.1625,0.0266 0.30846,0.194 0.46874,0.15626 0.17926,-0.0423 0.22926,-0.30203 0.39063,-0.39063 0.2105,-0.11543 0.4746,-0.0824 0.70313,-0.15624 0.0943,-0.0306 0.21326,-0.16276 0.3125,-0.23426 0.0496,-0.0357 0.11457,-0.0686 0.15624,-0.078 0.0417,-0.01 0.0503,0.037 0.078,0.078 0.12372,0.183 -0.48697,0.2485 -0.46874,0.46876 0.0556,0.66977 1.3331,0.5743 1.64063,1.17187 0.10728,0.2085 0.0833,0.48404 0,0.70313 -0.11143,0.29311 -0.58389,0.39224 -0.625,0.70311 -0.084,0.635 0.2517,1.5162 0.85937,1.71876 0.221,0.0737 0.4541,-0.15426 0.625,-0.3125 0.33424,-0.30953 0.35436,-0.87883 0.70313,-1.17187 0.83311,-0.7 2.20377,-1.8598 3.04687,-1.17189 0.12271,0.10029 -0.141,0.3234 -0.078,0.46876 0.0747,0.17224 0.281,0.31633 0.46874,0.3125 0.35413,-0.007 0.81572,-0.2735 0.85939,-0.625 0.025,-0.20176 -0.1915,-0.4271 -0.39063,-0.46876 -0.228,-0.0477 -0.39507,0.3498 -0.625,0.3125 -0.0363,-0.004 -0.0703,-0.0423 -0.078,-0.078 -0.17924,-0.8126 1.21024,-1.58921 0.85937,-2.34374 -0.12843,-0.27637 -0.9628,-0.0257 -0.85937,-0.3125 z m -11.875,3.4375 c 0.11128,0.0853 -0.047,0.3027 -0.15626,0.39061 -0.12357,0.0993 -0.40641,0.22376 -0.46874,0.078 0.202,-0.16674 0.41563,-0.31114 0.625,-0.46874 z m 21.09374,0.078 c 0.16226,0.12457 0.31119,0.26057 0.46876,0.39061 0.0224,0.3127 -0.31143,0.70073 -0.625,0.70313 -0.42393,0.003 -1.03009,-0.54944 -0.85937,-0.9375 0.11528,-0.2622 0.59471,0.10972 0.85937,0 0.068,-0.0283 0.0827,-0.153 0.15624,-0.15624 z m -7.34374,0.9375 c -0.0873,-0.003 -0.17926,0.0224 -0.23426,0.078 -0.11043,0.11043 -0.0517,0.3213 0,0.46874 0.0553,0.15726 0.2573,0.23326 0.3125,0.39063 0.0774,0.22124 0.0176,0.46943 0,0.70313 -0.0263,0.34151 -0.4038,0.7789 -0.15624,1.01561 0.192,0.1835 0.54305,-0.0387 0.78125,-0.15624 0.24825,-0.12257 0.61579,-0.2702 0.62499,-0.54687 0.007,-0.25766 -0.40387,-0.33237 -0.54687,-0.54689 -0.26557,-0.39834 -0.149,-1.06171 -0.54687,-1.32811 -0.065,-0.0435 -0.14726,-0.0753 -0.23426,-0.078 z m -1.17189,1.09374 c -0.087,0.0303 -0.189,0.0874 -0.23424,0.15626 -0.17276,0.2618 -0.1985,0.78984 0.078,0.9375 0.2365,0.12628 0.6181,-0.13629 0.70313,-0.39063 0.0813,-0.24326 -0.0777,-0.59963 -0.3125,-0.70313 -0.0753,-0.0333 -0.14726,-0.0303 -0.23426,0 z m 9.37502,8.35937 c 0.36604,0.0547 0.50444,0.5471 0.70311,0.85939 0.38766,0.6093 0.53983,1.35031 0.9375,1.95311 0.1525,0.231 0.50543,0.3513 0.54689,0.625 0.0384,0.25362 -0.3509,0.44953 -0.3125,0.70313 0.0416,0.2737 0.66127,0.3729 0.54687,0.625 -0.0967,0.2135 -0.50967,0.13229 -0.70313,0 -0.83023,-0.56791 -0.5724,-1.95224 -1.09376,-2.8125 -0.14348,-0.23674 -0.41667,-0.3807 -0.54687,-0.625 -0.19024,-0.35674 -0.45531,-0.79367 -0.3125,-1.17187 0.0333,-0.0877 0.14157,-0.17024 0.23426,-0.15626 z m -28.90626,2.26563 c 0.37557,-0.0823 0.28017,0.73866 0.54687,1.01563 0.35626,0.36997 0.85533,0.5806 1.32813,0.78126 0.44784,0.19 1.00903,0.10971 1.40624,0.39061 0.25956,0.1835 0.32583,0.55283 0.54689,0.78126 0.27164,0.2807 0.55191,0.64054 0.9375,0.70313 0.1625,0.0266 0.30501,-0.17426 0.46874,-0.15626 0.151,0.0174 0.3158,0.10229 0.39063,0.23426 0.0129,0.0226 0.005,0.0524 0,0.078 -0.079,0.51281 -0.237,1.02014 -0.46876,1.48437 -0.1,0.2005 -0.34881,0.3268 -0.39061,0.54687 -0.02,0.10543 0.079,0.205 0.078,0.3125 -0.003,0.40426 -0.3622,0.77067 -0.3125,1.17187 0.0987,0.79826 0.6765,1.47569 1.17187,2.10939 0.32907,0.42097 0.8114,0.69933 1.17187,1.09374 0.20026,0.21926 0.45723,0.42009 0.54689,0.70313 0.16524,0.52196 -0.18126,1.10293 -0.078,1.64063 0.0593,0.30903 0.35871,0.54633 0.39061,0.85937 0.0596,0.5845 -0.3251,1.1349 -0.39061,1.71876 -0.003,0.026 0.0253,0.072 0,0.078 -4.01476,-2.84556 -6.82002,-7.34276 -7.34376,-12.50002 -0.0597,-0.5883 -0.078,-1.19281 -0.078,-1.79687 0,-0.42057 0.049,-0.83686 0.078,-1.25 z"
     style="opacity:0.2;color:#bebebe;fill:#000000;fill-opacity:1;fill-rule:nonzero;stroke:none;stroke-width:1;marker:none;visibility:visible;display:inline;overflow:visible;enable-background:accumulate"
     inkscape:connector-curvature="0" />
  <path
     inkscape:connector-curvature="0"
     style="color:#bebebe;fill:#ffffff;fill-opacity:1;fill-rule:nonzero;stroke:none;stroke-width:1;marker:none;visibility:visible;display:inline;overflow:visible;enable-background:accumulate"
     d="M 32,12 C 20.9543,12 12,20.9543 12,32 12,43.0457 20.9543,52 32,52 43.0457,52 52,43.0457 52,32 52,20.9543 43.0457,12 32,12 z m 1.40626,2.57813 c 3.16581,0.25153 6.0486,1.33457 8.51563,3.04687 -0.0667,0.23076 -0.47263,-0.089 -0.70313,-0.15624 -0.29263,-0.0853 -0.55497,-0.2967 -0.85939,-0.3125 -0.42888,-0.0226 -0.85921,0.13428 -1.25,0.3125 -0.28921,0.132 -0.63444,0.26491 -0.78124,0.54687 -0.0723,0.13843 0.0747,0.3315 0,0.46874 -0.252,0.4632 -1.13463,0.36886 -1.32813,0.85939 -0.1575,0.39951 -0.0934,1.10984 0.3125,1.24998 0.28069,0.0967 0.4077,-0.57667 0.70313,-0.54687 0.239,0.025 0.28367,0.39393 0.46874,0.54687 0.16176,0.13372 0.35076,0.38743 0.54689,0.3125 0.3077,-0.11743 0.30534,-0.60817 0.3125,-0.9375 0.004,-0.1895 -0.166,-0.35751 -0.15626,-0.54687 0.007,-0.14 0.076,-0.27563 0.15626,-0.39063 0.2005,-0.28731 0.45414,-0.5776 0.78124,-0.70311 0.0973,-0.0373 0.2541,-0.0863 0.3125,0 0.15726,0.23224 -0.25944,0.50581 -0.3125,0.78124 -0.0443,0.23026 -0.17874,0.55163 0,0.70313 0.24176,0.20474 0.81503,-0.44843 0.9375,-0.15626 0.137,0.32666 -0.66833,0.32673 -0.85937,0.625 -0.0714,0.11172 -0.01,0.27626 -0.078,0.39063 -0.22524,0.38197 -0.58463,0.75496 -1.01563,0.85937 -0.33767,0.0817 -0.79931,0.0376 -1.01563,-0.23424 -0.12971,-0.163 0.18376,-0.5267 0,-0.625 -0.16548,-0.0884 -0.41524,0.13257 -0.46874,0.3125 -0.0564,0.19 0.34354,0.3813 0.23426,0.54687 -0.14326,0.2175 -0.5568,-0.132 -0.78126,0 -0.231,0.136 -0.2375,0.48303 -0.39063,0.70313 -0.13729,0.197 -0.25964,0.4289 -0.46874,0.54687 -0.27593,0.15576 -0.84083,-0.1455 -0.9375,0.15626 -0.0787,0.2455 0.41614,0.32467 0.54687,0.54687 0.0963,0.1635 0.27043,0.39553 0.15626,0.54687 -0.14129,0.187 -0.47603,-0.058 -0.70313,0 -0.31617,0.0806 -0.6928,0.18826 -0.85937,0.46876 -0.23926,0.40307 -0.33146,1.0748 0,1.40624 0.092,0.092 0.27031,-0.0497 0.39061,0 0.17,0.0706 0.2095,0.35777 0.39063,0.39063 0.30963,0.0563 0.6457,-0.15976 0.85938,-0.39063 0.20699,-0.22374 0.12072,-0.62244 0.31249,-0.85937 0.1545,-0.191 0.48056,-0.192 0.625,-0.39063 0.063,-0.0867 10e-4,-0.23724 0.078,-0.3125 0.248,-0.2435 0.68503,-0.34123 1.01563,-0.23424 0.26343,0.085 0.3278,0.45574 0.54687,0.625 0.18426,0.14257 0.55616,0.09 0.625,0.3125 0.0793,0.25614 -0.55733,0.49311 -0.39061,0.70313 0.11771,0.1485 0.40377,-0.032 0.54687,-0.15626 0.1935,-0.16824 0.35267,-0.4498 0.3125,-0.70313 -0.055,-0.34603 -0.84569,-0.4612 -0.70313,-0.78124 0.0423,-0.0953 0.215,-0.0367 0.3125,0 0.25913,0.0973 0.48633,0.30727 0.625,0.54687 0.133,0.22974 0.0457,0.53977 0.15626,0.78126 0.12342,0.26997 0.25948,0.7778 0.54687,0.70311 0.33153,-0.086 -0.0456,-0.73883 0.15624,-1.01561 0.0686,-0.094 0.19926,-0.18352 0.3125,-0.15626 0.47086,0.11371 0.43539,0.93764 0.85939,1.17187 0.31994,0.17676 0.74987,-0.0457 1.09374,0.078 0.21076,0.076 0.50126,0.17126 0.54687,0.39063 0.031,0.14874 -0.137,0.27413 -0.23424,0.39063 -0.1775,0.2125 -0.36587,0.4495 -0.625,0.54687 -0.26816,0.10071 -0.57663,0.0457 -0.85937,0 -0.40646,-0.066 -0.76179,-0.35366 -1.17189,-0.39063 -0.1835,-0.0174 -0.38217,-0.006 -0.54687,0.078 -0.19776,0.0987 -0.24776,0.46876 -0.46876,0.46876 -0.58924,0 -0.74034,-0.95423 -1.25,-1.25 -0.25678,-0.149 -0.56318,-0.21326 -0.85937,-0.23426 -0.41884,-0.0297 -0.83784,0.076 -1.25,0.15626 -0.3968,0.0773 -0.83153,0.0943 -1.17187,0.3125 -0.8253,0.52901 -1.3776,1.4209 -1.875,2.26561 -0.32636,0.55423 -0.83483,1.16733 -0.70313,1.79689 0.0303,0.14424 0.29797,0.166 0.3125,0.3125 0.037,0.37374 -0.59064,0.5635 -0.625,0.9375 -0.0544,0.5925 0.38543,1.13754 0.70313,1.64063 0.46307,0.73324 0.85443,1.88234 1.71874,1.95311 0.36889,0.0303 0.49132,-0.74197 0.85939,-0.70311 0.16575,0.0174 0.1485,0.36011 0.3125,0.39061 0.35567,0.0663 0.5787,-0.5933 0.9375,-0.54687 0.146,0.02 0.1765,0.25613 0.3125,0.3125 0.26464,0.10971 0.59853,-0.11829 0.85937,0 0.25207,0.11457 0.4864,0.35486 0.54687,0.625 0.0827,0.37 -0.3968,0.72407 -0.3125,1.09376 0.0697,0.30574 0.52276,0.40667 0.62501,0.70311 0.13629,0.39469 -0.17451,0.84379 -0.078,1.25 0.0834,0.35203 0.53522,0.5759 0.54688,0.9375 0.01,0.291 -0.31733,0.49949 -0.39063,0.78126 -0.1445,0.55503 -0.16876,1.15243 -0.078,1.71876 0.12743,0.79757 0.66467,1.48171 0.85937,2.26561 0.10128,0.40753 0.13028,0.8309 0.15626,1.25 0.0129,0.208 -0.14726,0.47769 0,0.625 0.11042,0.11057 0.31817,0.0417 0.46874,0 0.29267,-0.081 0.48857,-0.38767 0.78126,-0.46874 0.27607,-0.0766 0.59964,0.12071 0.85937,0 0.5865,-0.27286 1.11464,-0.85183 1.25,-1.48437 0.0397,-0.1855 -0.212,-0.3657 -0.15626,-0.54689 0.11971,-0.38874 0.91909,-0.37487 0.9375,-0.78124 0.015,-0.33113 -0.72144,-0.37217 -0.70311,-0.70313 0.0176,-0.33297 0.50744,-0.43463 0.78124,-0.625 0.24926,-0.17324 0.55258,-0.2689 0.78126,-0.46874 0.12557,-0.10972 0.27867,-0.22726 0.3125,-0.39063 0.0603,-0.29076 -0.195,-0.56509 -0.23426,-0.85939 -0.0967,-0.72271 -0.159,-1.4759 0,-2.1875 0.10671,-0.4775 0.35427,-0.92057 0.625,-1.32811 0.19376,-0.29186 0.51507,-0.48563 0.70313,-0.78126 0.39457,-0.62033 0.71321,-1.31073 0.85937,-2.03124 0.0363,-0.17876 0.13728,-0.4268 0,-0.54689 -0.2965,-0.2596 -0.98893,0.5053 -1.17187,0.15626 -0.17976,-0.3429 0.4919,-0.60217 0.78124,-0.85937 0.33487,-0.29766 0.76056,-0.48173 1.09376,-0.78126 0.23324,-0.2095 0.51354,-0.41 0.625,-0.70313 0.0833,-0.219 0.0495,-0.47404 0,-0.70313 -0.0667,-0.30751 -0.078,-0.82257 -0.39063,-0.85937 -0.29487,-0.0347 -0.25003,0.70917 -0.54687,0.70313 -0.224,-0.006 -0.234,-0.38666 -0.39063,-0.54687 -0.182,-0.18626 -0.50854,-0.23576 -0.625,-0.46876 -0.13972,-0.2795 -0.29174,-0.82554 0,-0.9375 0.3271,-0.12557 0.37637,0.65483 0.70313,0.78126 0.244,0.0944 0.53304,-0.16126 0.78124,-0.078 0.43693,0.14624 0.5568,0.97934 1.01563,0.9375 0.10371,-0.01 0.17126,-0.166 0.23426,-0.23426 0.075,0.77016 0.0553,1.14516 0.23424,2.5 0,9.06093 -6.87864,16.5257 -15.70313,17.42189 -0.58924,0.0363 -1.17707,0.078 -1.79687,0.078 -2.8357,0 -5.52166,-0.67776 -7.89063,-1.875 -0.0264,-0.12757 0.28257,-0.10772 0.3125,-0.23426 0.0267,-0.11329 -0.175,-0.1975 -0.15624,-0.3125 0.0413,-0.25447 0.41614,-0.32467 0.54687,-0.54687 0.0963,-0.1635 0.0224,-0.41363 0.15624,-0.54687 0.21126,-0.20876 0.64096,-0.0333 0.85939,-0.23426 0.44847,-0.41293 0.63467,-1.1092 0.625,-1.71874 -0.003,-0.14029 -0.16526,-0.25067 -0.15626,-0.39063 0.0176,-0.26757 0.1765,-0.54187 0.39063,-0.70313 0.27757,-0.209 0.7518,-0.007 1.01563,-0.23424 0.31944,-0.27377 0.39951,-0.7569 0.46874,-1.17187 0.0857,-0.51439 -0.22474,-1.06209 -0.078,-1.56252 0.126,-0.42994 0.6294,-0.67221 0.78126,-1.09374 0.12371,-0.34387 0.25591,-0.7744 0.078,-1.09376 -0.5723,-1.02791 -2.30139,-0.80051 -3.125,-1.64061 -0.28536,-0.29109 -0.229,-0.8387 -0.54687,-1.09376 C 25.0301,34.846 24.58553,35.0249 24.34387,34.81326 23.96659,34.4807 24.22887,33.66463 23.797,33.407 c -0.36064,-0.215 -0.84357,0.26186 -1.25,0.15626 -0.46883,-0.12172 -0.68831,-0.88799 -1.17187,-0.85939 -0.5334,0.0314 -0.95893,0.6037 -1.17187,1.09376 -0.02,0.0477 0.0416,0.125 0,0.15624 -0.3027,0.22826 -0.82389,-0.0463 -1.09376,-0.3125 -0.1935,-0.191 -0.195,-0.51224 -0.23424,-0.78124 -0.0377,-0.25766 0.193,-0.6065 0,-0.78126 -0.194,-0.1755 -0.60016,0.26706 -0.78126,0.078 -0.3823,-0.39877 0.59633,-1.2233 0.23426,-1.64063 -0.10243,-0.118 -0.329,-0.0697 -0.46876,0 -0.233,0.11643 -0.26883,0.45816 -0.46874,0.625 -0.13429,0.112 -0.29426,0.24276 -0.46876,0.23426 -0.2455,-0.0129 -0.49534,-0.182 -0.625,-0.39063 -0.13829,-0.22224 -0.076,-0.51954 -0.078,-0.78124 -0.003,-0.31359 -0.0787,-0.66603 0.078,-0.9375 0.206,-0.35649 0.6226,-0.58036 1.01563,-0.70313 0.2485,-0.0777 0.57,0.15224 0.78126,0 0.13342,-0.0963 0.0129,-0.3895 0.15624,-0.46876 0.28237,-0.155 0.66544,0.062 0.9375,0.23426 0.3126,0.19826 0.3485,0.96537 0.70313,0.85937 0.4767,-0.14243 -0.0807,-1.04697 0.15624,-1.48437 0.25583,-0.472 0.9446,-0.5741 1.25,-1.01563 0.23426,-0.33864 0.11029,-0.87027 0.39063,-1.17187 0.2305,-0.248 0.66846,-0.185 0.9375,-0.39063 0.236,-0.18024 0.2943,-0.54703 0.54687,-0.70313 0.33889,-0.2095 0.84769,-0.003 1.17187,-0.23424 0.29443,-0.21026 0.72709,-0.62377 0.54689,-0.9375 -0.28536,-0.4968 -1.60356,0.56123 -1.71876,0 -0.0797,-0.38856 0.7052,-0.389 1.09376,-0.46876 0.2551,-0.0523 0.5252,0.0476 0.78124,0 0.35663,-0.0663 0.70186,-0.57257 1.01563,-0.39061 0.2963,0.17174 -0.17824,0.94164 0.15624,1.01561 0.27503,0.0607 0.51953,-0.42604 0.46876,-0.70311 -0.0404,-0.22026 -0.48387,-0.17576 -0.54687,-0.39063 -0.0396,-0.13457 0.1845,-0.25326 0.15624,-0.39063 -0.037,-0.1805 -0.227,-0.30637 -0.39061,-0.39063 -0.14072,-0.0724 -0.38706,0.0576 -0.46876,-0.078 -0.085,-0.141 0.1715,-0.30474 0.15624,-0.46874 -0.025,-0.26697 -0.138,-0.6133 -0.39061,-0.70313 -0.26427,-0.094 -0.56996,0.49696 -0.78126,0.3125 -0.16174,-0.14128 0.23976,-0.4271 0.15626,-0.625 -0.14043,-0.33337 -0.5896,-0.64613 -0.9375,-0.54687 -0.4817,0.13743 -0.63087,0.83244 -0.70313,1.32813 -0.02,0.13157 0.13928,0.2727 0.078,0.39061 -0.118,0.22776 -0.52047,0.13257 -0.70313,0.3125 -0.26553,0.26179 -0.0993,1.06532 -0.46874,1.01563 -0.31399,-0.0423 0.045,-0.69287 -0.15626,-0.9375 -0.28277,-0.3436 -0.94123,-0.14824 -1.25,-0.46874 -0.1715,-0.178 -0.32254,-0.47236 -0.23424,-0.70313 0.22474,-0.58837 1.14007,-0.55517 1.64063,-0.9375 0.2634,-0.20126 0.56251,-0.40296 0.70311,-0.70313 0.122,-0.26047 0.20826,-0.6029 0.078,-0.85937 -0.0687,-0.13557 -0.24424,-0.19374 -0.39063,-0.23424 -0.0503,-0.015 -0.14171,0.05 -0.15624,0 -0.007,-0.0266 0.003,-0.0516 0,-0.078 0.55673,-0.38419 1.11787,-0.69686 1.71876,-1.01563 0.0684,0.0376 0.0327,0.1635 0,0.23424 -0.10029,0.218 -0.40573,0.27453 -0.54689,0.46876 -0.199,0.27384 -0.57843,0.65583 -0.39063,0.9375 0.14452,0.21674 0.5672,0.14824 0.78126,0 0.18274,-0.12672 0.1455,-0.42106 0.23426,-0.625 -0.015,0.29653 0.42227,0.45053 0.70311,0.54687 0.197,0.0676 0.47767,0.14724 0.625,0 0.14726,-0.14724 0.11357,-0.45033 0,-0.625 -0.13971,-0.215 -0.44727,-0.33047 -0.70313,-0.3125 -0.12243,0.007 -0.26657,0.0129 -0.39061,0.078 0.2215,-0.248 0.46601,-0.4908 0.78124,-0.54687 0.26769,-0.0476 0.53746,0.114 0.78126,0.23424 0.5185,0.2559 0.82887,1.04666 1.40624,1.01563 0.34986,-0.02 0.84813,-0.3592 0.78126,-0.70313 -0.0583,-0.2992 -0.64046,-0.10057 -0.85937,-0.3125 -0.2015,-0.19524 -0.0893,-0.6114 -0.3125,-0.78124 -0.37533,-0.2856 -1.09172,0.19524 -1.40626,-0.15626 -0.0176,-0.02 0,-0.052 0,-0.078 0,-0.026 -0.0176,-0.0597 0,-0.078 0.0224,-0.01 0.0556,0.01 0.078,0 0.1625,0.0266 0.30846,0.194 0.46874,0.15626 0.17926,-0.0423 0.22926,-0.30203 0.39063,-0.39063 0.2105,-0.11543 0.4746,-0.0824 0.70313,-0.15624 0.0943,-0.0306 0.21326,-0.16276 0.3125,-0.23426 0.0496,-0.0357 0.11457,-0.0686 0.15624,-0.078 0.0417,-0.01 0.0503,0.037 0.078,0.078 0.12372,0.183 -0.48697,0.2485 -0.46874,0.46876 0.0556,0.66977 1.3331,0.5743 1.64063,1.17187 0.10728,0.2085 0.0833,0.48404 0,0.70313 -0.11143,0.29311 -0.58389,0.39224 -0.625,0.70311 -0.084,0.635 0.2517,1.5162 0.85937,1.71876 0.221,0.0737 0.4541,-0.15426 0.625,-0.3125 0.33424,-0.30953 0.35436,-0.87883 0.70313,-1.17187 0.83311,-0.7 2.20377,-1.8598 3.04687,-1.17189 0.12271,0.10029 -0.141,0.3234 -0.078,0.46876 0.0747,0.17224 0.281,0.31633 0.46874,0.3125 0.35413,-0.007 0.81572,-0.2735 0.85939,-0.625 0.025,-0.20176 -0.1915,-0.4271 -0.39063,-0.46876 -0.228,-0.0477 -0.39507,0.3498 -0.625,0.3125 -0.0363,-0.004 -0.0703,-0.0423 -0.078,-0.078 -0.17924,-0.8126 1.21024,-1.58921 0.85937,-2.34374 -0.12843,-0.27637 -0.9628,-0.0257 -0.85937,-0.3125 z m -11.875,3.4375 c 0.11128,0.0853 -0.047,0.3027 -0.15626,0.39061 -0.12357,0.0993 -0.40641,0.22376 -0.46874,0.078 0.202,-0.16674 0.41563,-0.31114 0.625,-0.46874 z m 21.09374,0.078 c 0.16226,0.12457 0.31119,0.26057 0.46876,0.39061 0.0224,0.3127 -0.31143,0.70073 -0.625,0.70313 -0.42393,0.003 -1.03009,-0.54944 -0.85937,-0.9375 0.11528,-0.2622 0.59471,0.10972 0.85937,0 0.068,-0.0283 0.0827,-0.153 0.15624,-0.15624 z m -7.34374,0.9375 c -0.0873,-0.003 -0.17926,0.0224 -0.23426,0.078 -0.11043,0.11043 -0.0517,0.3213 0,0.46874 0.0553,0.15726 0.2573,0.23326 0.3125,0.39063 0.0774,0.22124 0.0176,0.46943 0,0.70313 -0.0263,0.34151 -0.4038,0.7789 -0.15624,1.01561 0.192,0.1835 0.54305,-0.0387 0.78125,-0.15624 0.24825,-0.12257 0.61579,-0.2702 0.62499,-0.54687 0.007,-0.25766 -0.40387,-0.33237 -0.54687,-0.54689 -0.26557,-0.39834 -0.149,-1.06171 -0.54687,-1.32811 -0.065,-0.0435 -0.14726,-0.0753 -0.23426,-0.078 z m -1.17189,1.09374 c -0.087,0.0303 -0.189,0.0874 -0.23424,0.15626 -0.17276,0.2618 -0.1985,0.78984 0.078,0.9375 0.2365,0.12628 0.6181,-0.13629 0.70313,-0.39063 0.0813,-0.24326 -0.0777,-0.59963 -0.3125,-0.70313 -0.0753,-0.0333 -0.14726,-0.0303 -0.23426,0 z m 9.37502,8.35937 c 0.36604,0.0547 0.50444,0.5471 0.70311,0.85939 0.38766,0.6093 0.53983,1.35031 0.9375,1.95311 0.1525,0.231 0.50543,0.3513 0.54689,0.625 0.0384,0.25362 -0.3509,0.44953 -0.3125,0.70313 0.0416,0.2737 0.66127,0.3729 0.54687,0.625 -0.0967,0.2135 -0.50967,0.13229 -0.70313,0 -0.83023,-0.56791 -0.5724,-1.95224 -1.09376,-2.8125 -0.14348,-0.23674 -0.41667,-0.3807 -0.54687,-0.625 -0.19024,-0.35674 -0.45531,-0.79367 -0.3125,-1.17187 0.0333,-0.0877 0.14157,-0.17024 0.23426,-0.15626 z m -28.90626,2.26563 c 0.37557,-0.0823 0.28017,0.73866 0.54687,1.01563 0.35626,0.36997 0.85533,0.5806 1.32813,0.78126 0.44784,0.19 1.00903,0.10971 1.40624,0.39061 0.25956,0.1835 0.32583,0.55283 0.54689,0.78126 0.27164,0.2807 0.55191,0.64054 0.9375,0.70313 0.1625,0.0266 0.30501,-0.17426 0.46874,-0.15626 0.151,0.0174 0.3158,0.10229 0.39063,0.23426 0.0129,0.0226 0.005,0.0524 0,0.078 -0.079,0.51281 -0.237,1.02014 -0.46876,1.48437 -0.1,0.2005 -0.34881,0.3268 -0.39061,0.54687 -0.02,0.10543 0.079,0.205 0.078,0.3125 -0.003,0.40426 -0.3622,0.77067 -0.3125,1.17187 0.0987,0.79826 0.6765,1.47569 1.17187,2.10939 0.32907,0.42097 0.8114,0.69933 1.17187,1.09374 0.20026,0.21926 0.45723,0.42009 0.54689,0.70313 0.16524,0.52196 -0.18126,1.10293 -0.078,1.64063 0.0593,0.30903 0.35871,0.54633 0.39061,0.85937 0.0596,0.5845 -0.3251,1.1349 -0.39061,1.71876 -0.003,0.026 0.0253,0.072 0,0.078 -4.01476,-2.84556 -6.82002,-7.34276 -7.34376,-12.50002 -0.0597,-0.5883 -0.078,-1.19281 -0.078,-1.79687 0,-0.42057 0.049,-0.83686 0.078,-1.25 z"
     id="path3845" />
</svg>
