<?xml version="1.0" encoding="UTF-8" standalone="no"?>
<!-- Created with Inkscape (http://www.inkscape.org/) -->

<svg
   xmlns:dc="http://purl.org/dc/elements/1.1/"
   xmlns:cc="http://creativecommons.org/ns#"
   xmlns:rdf="http://www.w3.org/1999/02/22-rdf-syntax-ns#"
   xmlns:svg="http://www.w3.org/2000/svg"
   xmlns="http://www.w3.org/2000/svg"
   xmlns:xlink="http://www.w3.org/1999/xlink"
   xmlns:sodipodi="http://sodipodi.sourceforge.net/DTD/sodipodi-0.dtd"
   xmlns:inkscape="http://www.inkscape.org/namespaces/inkscape"
   width="64"
   height="64"
   id="svg2454"
   sodipodi:version="0.32"
   inkscape:version="0.48.4 r9939"
   sodipodi:docname="gxine.svg"
   inkscape:output_extension="org.inkscape.output.svg.inkscape"
   version="1.1">
  <defs
     id="defs2456">
    <linearGradient
       id="linearGradient5048">
      <stop
         style="stop-color:black;stop-opacity:0;"
         id="stop5050"
         offset="0" />
      <stop
         style="stop-color:black;stop-opacity:1;"
         id="stop5056"
         offset="0.5" />
      <stop
         style="stop-color:black;stop-opacity:0;"
         id="stop5052"
         offset="1" />
    </linearGradient>
    <linearGradient
       inkscape:collect="always"
       xlink:href="#linearGradient5048"
       id="linearGradient17859"
       gradientUnits="userSpaceOnUse"
       gradientTransform="matrix(0.07614338,0,0,0.05194044,5.3144368,15.942037)"
       x1="302.85715"
       y1="366.64789"
       x2="302.85715"
       y2="609.50507" />
    <radialGradient
       inkscape:collect="always"
       xlink:href="#linearGradient5060"
       id="radialGradient17856"
       gradientUnits="userSpaceOnUse"
       gradientTransform="matrix(0.08605229,0,0,0.05194044,-0.642277,15.942037)"
       cx="605.71429"
       cy="486.64789"
       fx="605.71429"
       fy="486.64789"
       r="117.14286" />
    <linearGradient
       id="linearGradient5060"
       inkscape:collect="always">
      <stop
         style="stop-color:black;stop-opacity:1;"
         id="stop5062"
         offset="0" />
      <stop
         style="stop-color:black;stop-opacity:0;"
         id="stop5064"
         offset="1" />
    </linearGradient>
    <radialGradient
       inkscape:collect="always"
       xlink:href="#linearGradient5060"
       id="radialGradient17853"
       gradientUnits="userSpaceOnUse"
       gradientTransform="matrix(-0.08605229,0,0,0.05194044,66.32347,15.942037)"
       cx="605.71429"
       cy="486.64789"
       fx="605.71429"
       fy="486.64789"
       r="117.14286" />
    <linearGradient
       id="linearGradient2601">
      <stop
         id="stop2603"
         offset="0.0000000"
         style="stop-color:#5d5d5d;stop-opacity:1.0000000;" />
      <stop
         id="stop2605"
         offset="1.0000000"
         style="stop-color:#444444;stop-opacity:1.0000000;" />
    </linearGradient>
    <radialGradient
       inkscape:collect="always"
       xlink:href="#linearGradient2601"
       id="radialGradient17850"
       gradientUnits="userSpaceOnUse"
       gradientTransform="matrix(3.7718051,0,0,2.8049932,-83.553599,-83.134256)"
       cx="27.216267"
       cy="35.673447"
       fx="27.216267"
       fy="35.673447"
       r="19.57143" />
    <linearGradient
       id="linearGradient2613"
       inkscape:collect="always">
      <stop
         id="stop2615"
         offset="0"
         style="stop-color:#ffffff;stop-opacity:1;" />
      <stop
         id="stop2617"
         offset="1"
         style="stop-color:#ffffff;stop-opacity:0;" />
    </linearGradient>
    <linearGradient
       inkscape:collect="always"
       xlink:href="#linearGradient2613"
       id="linearGradient17848"
       gradientUnits="userSpaceOnUse"
       x1="5.463501"
       y1="13.142847"
       x2="21.536488"
       y2="49.142849"
       gradientTransform="matrix(1.3251384,0,0,1.3231104,1.0956563,-14.351295)" />
    <linearGradient
       inkscape:collect="always"
       xlink:href="#linearGradient2502"
       id="linearGradient17846"
       gradientUnits="userSpaceOnUse"
       x1="2.7612331"
       y1="6.1102505"
       x2="18.772917"
       y2="18.693317" />
    <linearGradient
       id="linearGradient2502">
      <stop
         id="stop2504"
         offset="0"
         style="stop-color:#fdfdfd;stop-opacity:1;" />
      <stop
         id="stop2506"
         offset="1.0000000"
         style="stop-color:#d4d4d4;stop-opacity:1.0000000;" />
    </linearGradient>
    <linearGradient
       inkscape:collect="always"
       xlink:href="#linearGradient2502"
       id="linearGradient12952"
       gradientUnits="userSpaceOnUse"
       gradientTransform="translate(-42.841472,-1.0133135)"
       x1="2.7612331"
       y1="6.1102505"
       x2="18.772917"
       y2="18.693317" />
    <linearGradient
       inkscape:collect="always"
       id="linearGradient10935">
      <stop
         style="stop-color:#ffffff;stop-opacity:1;"
         offset="0"
         id="stop10937" />
      <stop
         style="stop-color:#ffffff;stop-opacity:0;"
         offset="1"
         id="stop10939" />
    </linearGradient>
    <linearGradient
       inkscape:collect="always"
       xlink:href="#linearGradient10935"
       id="linearGradient10941"
       x1="13.303192"
       y1="11.104468"
       x2="8.6929884"
       y2="18.145662"
       gradientUnits="userSpaceOnUse"
       gradientTransform="matrix(1.1171999,0,0,1.0399076,-1.1057626,-0.66142304)" />
    <linearGradient
       inkscape:collect="always"
       id="linearGradient10150">
      <stop
         style="stop-color:#7c7f82;stop-opacity:1"
         offset="0"
         id="stop10156" />
      <stop
         style="stop-color:#3a3c3e;stop-opacity:1"
         offset="1"
         id="stop10159" />
    </linearGradient>
    <linearGradient
       inkscape:collect="always"
       xlink:href="#linearGradient10150"
       id="linearGradient10161"
       x1="10.66092"
       y1="10.732934"
       x2="10.66092"
       y2="19.655537"
       gradientUnits="userSpaceOnUse" />
  </defs>
  <sodipodi:namedview
     id="base"
     pagecolor="#ffffff"
     bordercolor="#666666"
     borderopacity="1.0"
     inkscape:pageopacity="0.0"
     inkscape:pageshadow="2"
     inkscape:zoom="14.4375"
     inkscape:cx="32"
     inkscape:cy="32"
     inkscape:current-layer="g12943"
     showgrid="true"
     inkscape:grid-bbox="true"
     inkscape:document-units="px"
     inkscape:window-width="1855"
     inkscape:window-height="1056"
     inkscape:window-x="65"
     inkscape:window-y="24"
     inkscape:window-maximized="1"
     inkscape:snap-global="false">
    <inkscape:grid
       type="xygrid"
       id="grid3084" />
  </sodipodi:namedview>
  <metadata
     id="metadata2459">
    <rdf:RDF>
      <cc:Work
         rdf:about="">
        <dc:format>image/svg+xml</dc:format>
        <dc:type
           rdf:resource="http://purl.org/dc/dcmitype/StillImage" />
        <dc:title></dc:title>
      </cc:Work>
    </rdf:RDF>
  </metadata>
  <g
     id="layer1"
     inkscape:label="Layer 1"
     inkscape:groupmode="layer"
     transform="translate(0,16)">
    <rect
       id="rect4173"
       x="14.451644"
       y="34.985893"
       width="36.766376"
       height="12.614109"
       style="opacity:0.40206185;fill:url(#linearGradient17859);fill-opacity:1;fill-rule:nonzero;stroke:none;stroke-width:1;marker:none;visibility:visible;display:inline;overflow:visible" />
    <path
       d="m 51.218025,34.986326 c 0,0 0,12.613413 0,12.613413 4.431479,0.02374 10.713159,-2.826025 10.713159,-6.307518 0,-3.481493 -4.945202,-6.305894 -10.713159,-6.305895 z"
       id="path5058"
       style="opacity:0.40206185;fill:url(#radialGradient17856);fill-opacity:1;fill-rule:nonzero;stroke:none;stroke-width:1;marker:none;visibility:visible;display:inline;overflow:visible"
       sodipodi:nodetypes="cccc"
       inkscape:connector-curvature="0" />
    <path
       id="path5018"
       d="m 14.463161,34.986326 c 0,0 0,12.613413 0,12.613413 C 10.03168,47.623483 3.75,44.773714 3.75,41.292221 c 0,-3.481493 4.945197,-6.305894 10.713161,-6.305895 z"
       style="opacity:0.40206185;fill:url(#radialGradient17853);fill-opacity:1;fill-rule:nonzero;stroke:none;stroke-width:1;marker:none;visibility:visible;display:inline;overflow:visible"
       sodipodi:nodetypes="cccc"
       inkscape:connector-curvature="0" />
    <rect
       ry="1.5007663"
       rx="1.4951197"
       y="7.5497198"
       x="8.5415659"
       height="36.768761"
       width="49.899616"
       id="rect1440"
       style="fill:url(#radialGradient17850);fill-opacity:1;fill-rule:nonzero;stroke:#1b1b1b;stroke-width:1;stroke-linecap:round;stroke-linejoin:round;stroke-miterlimit:4;stroke-opacity:1;stroke-dasharray:none;stroke-dashoffset:0;marker:none;visibility:visible;display:block" />
    <rect
       style="opacity:0.31155778;fill:none;stroke:url(#linearGradient17848);stroke-width:1.00939584;stroke-linecap:butt;stroke-linejoin:miter;stroke-miterlimit:4;stroke-opacity:1;stroke-dasharray:none;stroke-dashoffset:0;marker:none;visibility:visible;display:block"
       id="rect2609"
       width="47.801693"
       height="34.480549"
       x="9.5660343"
       y="8.7889729"
       rx="0.36271948"
       ry="0.36216438" />
    <g
       transform="matrix(1.2772509,0.30466592,-0.30466592,1.2772509,4.961698,-7.4980902)"
       id="g4376">
      <rect
         transform="matrix(0.974407,-0.22479,0.22479,0.974407,0,0)"
         ry="1.1428572"
         rx="1.1428572"
         y="10.35317"
         x="1.7052064"
         height="6.50879"
         width="39.805996"
         id="rect4362"
         style="fill:url(#linearGradient17846);fill-opacity:1;fill-rule:nonzero;stroke:#2b2b2b;stroke-width:0.76156572;stroke-linecap:butt;stroke-linejoin:miter;stroke-miterlimit:4;stroke-opacity:1;stroke-dasharray:none;stroke-dashoffset:0;marker:none;visibility:visible;display:block" />
      <path
         sodipodi:nodetypes="ccccc"
         id="path4364"
         d="M 9.3182882,8.7851125 6.8897166,15.356541 11.978375,14.146856 14.032572,7.7851126 z"
         style="fill:#000000;fill-opacity:1;fill-rule:evenodd;stroke:none"
         inkscape:connector-curvature="0" />
      <path
         style="fill:#000000;fill-opacity:1;fill-rule:evenodd;stroke:none"
         d="M 18.374769,6.7534604 16.089054,13.253461 20.80334,12.110604 23.057932,5.7033656 z"
         id="path4366"
         sodipodi:nodetypes="ccccc"
         inkscape:connector-curvature="0" />
      <path
         sodipodi:nodetypes="ccccc"
         id="path4368"
         d="M 28.059367,4.5313526 25.768493,11.018674 30.482779,9.8758164 32.810766,3.4458085 z"
         style="fill:#000000;fill-opacity:1;fill-rule:evenodd;stroke:none"
         inkscape:connector-curvature="0" />
      <path
         sodipodi:nodetypes="ccccc"
         id="path4370"
         d="m 41.886596,1.3707025 -1.996065,6.3797299 -4.6875,1.0848214 2.314036,-6.4608277 z"
         style="fill:#000000;fill-opacity:1;fill-rule:nonzero;stroke:none;stroke-width:1;marker:none;visibility:visible;display:block"
         inkscape:connector-curvature="0" />
      <rect
         style="fill:none;stroke:#ffffff;stroke-width:0.7947346;stroke-linecap:butt;stroke-linejoin:miter;stroke-miterlimit:4;stroke-opacity:0.57512949;stroke-dasharray:none;stroke-dashoffset:0;marker:none;visibility:visible;display:block"
         id="rect4372"
         width="38.25708"
         height="4.9625998"
         x="2.4769583"
         y="11.1386"
         rx="0.26796532"
         ry="0.28553009"
         transform="matrix(0.97451659,-0.22431545,0.2252354,0.97430437,0,0)" />
    </g>
    <g
       id="g12943"
       inkscape:transform-center-x="-21.262727"
       inkscape:transform-center-y="-4.8818781"
       transform="matrix(1.3125821,-0.03633974,0.03633974,1.3125821,0.8986157,-15.158748)">
      <rect
         style="fill:url(#linearGradient12952);fill-opacity:1;fill-rule:nonzero;stroke:#2e2e2e;stroke-width:0.7615653;stroke-linecap:butt;stroke-linejoin:miter;stroke-miterlimit:4;stroke-opacity:1;stroke-dasharray:none;stroke-dashoffset:0;marker:none;visibility:visible;display:block"
         id="rect2200"
         width="40.077328"
         height="6.9415712"
         x="-41.571377"
         y="9.2500038"
         rx="1.142855"
         ry="1.142855"
         transform="matrix(-0.9821987,0.1878449,0.1878449,0.9821987,0,0)" />
      <path
         style="fill:#000000;fill-opacity:1;fill-rule:evenodd;stroke:none"
         d="M 35.338528,3.0752985 40.288285,8.3776636 35.376533,9.1503559 30.543762,4.1236148 35.338528,3.0752985 z"
         id="path2202"
         sodipodi:nodetypes="ccccc"
         inkscape:connector-curvature="0" />
      <path
         sodipodi:nodetypes="ccccc"
         id="path2204"
         d="m 25.970575,4.7764341 5.244563,5.3365969 -4.774313,0.858225 -5.186873,-5.2059068 4.716623,-0.9889151 z"
         style="fill:#000000;fill-opacity:1;fill-rule:evenodd;stroke:none"
         inkscape:connector-curvature="0" />
      <path
         style="fill:#000000;fill-opacity:1;fill-rule:evenodd;stroke:none"
         d="m 16.283604,6.7101077 4.882517,5.1749343 -4.568318,0.915825 -5.030822,-5.1018441 4.716623,-0.9889152 z"
         id="path2206"
         sodipodi:nodetypes="ccccc"
         inkscape:connector-curvature="0" />
      <path
         style="fill:#000000;fill-opacity:1;fill-rule:nonzero;stroke:none;stroke-width:1;marker:none;visibility:visible;display:block"
         d="M 4.0251015,9.2079586 C 3.878555,9.4432283 3.8048705,9.7026439 3.861283,9.997613 l 0.4646124,2.688678 2.1132922,2.112195 5.1761334,-0.942878 -4.8637172,-5.1923964 -2.7265023,0.544747 z"
         id="rect2210"
         sodipodi:nodetypes="ccccccc"
         inkscape:connector-curvature="0" />
      <path
         id="path10135"
         d="m 41.920754,1.7105385 -2.466831,0.5396192 3.468981,3.4946769 -0.6681,-3.4946769 C 42.21104,2.0213214 42.089655,1.8450116 41.920754,1.7105385 z"
         style="fill:#000000;fill-opacity:1;fill-rule:evenodd;stroke:none"
         inkscape:connector-curvature="0" />
      <rect
         transform="matrix(-0.98245069,0.18652252,0.14386244,0.98959769,0,0)"
         ry="0.29430023"
         rx="0.26782468"
         y="10.017587"
         x="-41.325642"
         height="5.4568043"
         width="38.597252"
         id="rect2510"
         style="fill:none;stroke:#ffffff;stroke-width:0.80663699;stroke-linecap:butt;stroke-linejoin:miter;stroke-miterlimit:4;stroke-opacity:0.57512949;stroke-dasharray:none;stroke-dashoffset:0;marker:none;visibility:visible;display:block" />
    </g>
    <g
       id="g12937"
       transform="matrix(1.313085,0,0,1.313085,1.3207928,-15.428079)">
      <path
         style="fill:url(#linearGradient10161);fill-opacity:1;fill-rule:evenodd;stroke:#1b1b1b;stroke-width:0.76156532;stroke-linecap:butt;stroke-linejoin:miter;stroke-miterlimit:4;stroke-opacity:1;stroke-dasharray:none"
         d="m 9.530039,20.318017 5.032098,-4.247694 c 0.300079,-0.253302 0.268226,-0.674472 -0.0737,-0.915372 L 8.283363,11.390892 C 7.604382,10.979016 6.4663323,11.47183 6.5595663,12.15353 l 0.1765087,6.938464 c -0.1421506,1.219771 2.009141,1.888508 2.793964,1.226023 z"
         id="path3583"
         sodipodi:nodetypes="ccccccc"
         inkscape:connector-curvature="0" />
      <path
         sodipodi:type="arc"
         style="fill:#ffffff;fill-opacity:1;fill-rule:nonzero;stroke:none;stroke-width:1;marker:none;visibility:visible;display:block"
         id="path3587"
         sodipodi:cx="8.5535717"
         sodipodi:cy="17.196428"
         sodipodi:rx="0.48214287"
         sodipodi:ry="0.48214287"
         d="m 9.0357146,17.196428 c 0,0.26628 -0.2158627,0.482143 -0.4821429,0.482143 -0.2662802,0 -0.4821429,-0.215863 -0.4821429,-0.482143 0,-0.26628 0.2158627,-0.482143 0.4821429,-0.482143 0.2662802,0 0.4821429,0.215863 0.4821429,0.482143 z"
         transform="translate(-0.07142886,-3.3612994)" />
      <path
         transform="translate(-0.07142884,1.2500026)"
         d="m 9.0357146,17.196428 c 0,0.26628 -0.2158627,0.482143 -0.4821429,0.482143 -0.2662802,0 -0.4821429,-0.215863 -0.4821429,-0.482143 0,-0.26628 0.2158627,-0.482143 0.4821429,-0.482143 0.2662802,0 0.4821429,0.215863 0.4821429,0.482143 z"
         sodipodi:ry="0.48214287"
         sodipodi:rx="0.48214287"
         sodipodi:cy="17.196428"
         sodipodi:cx="8.5535717"
         id="path3589"
         style="fill:#ffffff;fill-opacity:1;fill-rule:nonzero;stroke:none;stroke-width:1;marker:none;visibility:visible;display:block"
         sodipodi:type="arc" />
      <path
         style="opacity:0.4;fill:none;stroke:url(#linearGradient10941);stroke-width:0.8208617;stroke-linecap:butt;stroke-linejoin:round;stroke-miterlimit:4;stroke-opacity:1;stroke-dasharray:none"
         d="M 9.2929816,19.397077 13.952174,15.590573 7.4063653,12.000757 7.5521781,18.962259 C 7.4441437,19.81361 8.696515,19.859465 9.2929816,19.397077 z"
         id="path10163"
         sodipodi:nodetypes="ccccc"
         inkscape:connector-curvature="0" />
    </g>
    <g
       style="font-size:144px;font-style:normal;font-variant:normal;font-weight:normal;font-stretch:normal;text-align:start;line-height:125%;writing-mode:lr-tb;text-anchor:start;opacity:0.2;fill:#000000;fill-opacity:1;stroke:none;font-family:Gunship;-inkscape-font-specification:Gunship"
       id="text2816"
       transform="matrix(0.08683474,0,0,0.08683474,0.15545782,-36.368295)">
      <path
         id="path2827"
         d="m 530.94075,753.92218 93.888,0 0,19.584 -93.888,0 0,13.824 100.656,0 0,23.04 -111.312,0 c -6.72003,0 -12.43202,-2.352 -17.136,-7.056 -4.70401,-4.70399 -7.05601,-10.41598 -7.056,-17.136 l 0,-43.632 c -1e-5,-6.71993 2.35199,-12.43192 7.056,-17.136 4.70398,-4.70391 10.41597,-7.05591 17.136,-7.056 l 110.88,0 0,22.896 -100.224,0 0,12.672 m -84.5235,56.448 0,-69.12 -65.664,0 0,69.12 -34.704,0 0,-92.016 111.312,0 c 6.62387,9e-5 12.28787,2.35209 16.992,7.056 4.79986,4.80008 7.19985,10.51207 7.2,17.136 l 0,67.824 -35.136,0 m -114.71175,0 -36,0 0,-92.016 36,0 0,92.016 m -97.38225,-49.104 45.36,-42.912 -43.344,0 -27.36,27.216 -27.36,-27.216 -43.344,0 45.36,42.912 -47.232,49.104 45.216,0 27.36,-29.664 27.36,29.664 45.36,0 -47.376,-49.104"
         inkscape:connector-curvature="0" />
    </g>
    <g
       transform="matrix(0.08683474,0,0,0.08683474,0.15545782,-37.345565)"
       id="g3086"
       style="font-size:144px;font-style:normal;font-variant:normal;font-weight:normal;font-stretch:normal;text-align:start;line-height:125%;writing-mode:lr-tb;text-anchor:start;fill:#ffffff;fill-opacity:1;stroke:none;font-family:Gunship;-inkscape-font-specification:Gunship;opacity:0.8">
      <path
         inkscape:connector-curvature="0"
         d="m 530.94075,753.92218 93.888,0 0,19.584 -93.888,0 0,13.824 100.656,0 0,23.04 -111.312,0 c -6.72003,0 -12.43202,-2.352 -17.136,-7.056 -4.70401,-4.70399 -7.05601,-10.41598 -7.056,-17.136 l 0,-43.632 c -1e-5,-6.71993 2.35199,-12.43192 7.056,-17.136 4.70398,-4.70391 10.41597,-7.05591 17.136,-7.056 l 110.88,0 0,22.896 -100.224,0 0,12.672 m -84.5235,56.448 0,-69.12 -65.664,0 0,69.12 -34.704,0 0,-92.016 111.312,0 c 6.62387,9e-5 12.28787,2.35209 16.992,7.056 4.79986,4.80008 7.19985,10.51207 7.2,17.136 l 0,67.824 -35.136,0 m -114.71175,0 -36,0 0,-92.016 36,0 0,92.016 m -97.38225,-49.104 45.36,-42.912 -43.344,0 -27.36,27.216 -27.36,-27.216 -43.344,0 45.36,42.912 -47.232,49.104 45.216,0 27.36,-29.664 27.36,29.664 45.36,0 -47.376,-49.104"
         id="path3088"
         style="fill:#ffffff;fill-opacity:1" />
    </g>
  </g>
</svg>
