<?xml version="1.0" encoding="UTF-8" standalone="no"?>
<!-- Created with Inkscape (http://www.inkscape.org/) -->

<svg
   xmlns:dc="http://purl.org/dc/elements/1.1/"
   xmlns:cc="http://creativecommons.org/ns#"
   xmlns:rdf="http://www.w3.org/1999/02/22-rdf-syntax-ns#"
   xmlns:svg="http://www.w3.org/2000/svg"
   xmlns="http://www.w3.org/2000/svg"
   xmlns:sodipodi="http://sodipodi.sourceforge.net/DTD/sodipodi-0.dtd"
   xmlns:inkscape="http://www.inkscape.org/namespaces/inkscape"
   id="svg7384"
   height="16"
   width="16"
   version="1.1"
   inkscape:version="0.91 r"
   sodipodi:docname="audio-headset.svg">
  <defs
     id="defs5797" />
  <sodipodi:namedview
     pagecolor="#ffffff"
     bordercolor="#666666"
     borderopacity="1"
     objecttolerance="10"
     gridtolerance="10"
     guidetolerance="10"
     inkscape:pageopacity="0"
     inkscape:pageshadow="2"
     inkscape:window-width="640"
     inkscape:window-height="480"
     id="namedview5795"
     showgrid="false"
     inkscape:zoom="50.1875"
     inkscape:cx="4.26401"
     inkscape:cy="8"
     inkscape:current-layer="svg7384" />
  <metadata
     id="metadata90">
    <rdf:RDF>
      <cc:Work
         rdf:about="">
        <dc:format>image/svg+xml</dc:format>
        <dc:type
           rdf:resource="http://purl.org/dc/dcmitype/StillImage" />
        <dc:title>Gnome Symbolic Icon Theme</dc:title>
      </cc:Work>
    </rdf:RDF>
  </metadata>
  <title
     id="title9167">Gnome Symbolic Icon Theme</title>
  <g
     id="layer10"
     transform="translate(-81 -467)"
     style="fill:#353945;fill-opacity:1">
    <rect
       id="rect8337"
       style="fill:#353945;fill-opacity:1"
       rx="1.8628"
       ry="1.8628"
       transform="matrix(.95983 -.28060 .29020 .95697 0 0)"
       width="3.568"
       y="480.85"
       x="-58.622"
       height="6.0517" />
    <path
       id="rect8346"
       style="fill:#353945;fill-opacity:1"
       d="m88.969 468c-3.3055 0-6.0239 3.0084-5.9686 5.7188 0.04825 2.3656 0.80859 4.6955 1 5.2812h1.5255c-1.1615-2.2915-1.0491-5.1562-1.0491-5.1562 0-2.3726 2.0067-4.3125 4.4921-4.3125 2.4855 0 4.4998 1.8269 4.4921 4.2812-0.02342 1.6741-0.17168 2.6586-1.0052 5.1875h1.5707c0.2245-0.64458 0.97382-3.1905 0.97382-5.2812 0-2.8298-2.726-5.7188-6.0314-5.7188z" />
    <rect
       id="rect8371"
       style="fill:#353945;fill-opacity:1"
       rx="1.8628"
       ry="1.8628"
       transform="matrix(-.95983 -.28060 -.29020 .95697 0 0)"
       width="3.568"
       y="430.93"
       x="-228.98"
       height="6.0517" />
  </g>
</svg>
