<?xml version="1.0" encoding="UTF-8" standalone="no"?>
<svg
   xmlns:dc="http://purl.org/dc/elements/1.1/"
   xmlns:cc="http://creativecommons.org/ns#"
   xmlns:rdf="http://www.w3.org/1999/02/22-rdf-syntax-ns#"
   xmlns:svg="http://www.w3.org/2000/svg"
   xmlns="http://www.w3.org/2000/svg"
   xmlns:xlink="http://www.w3.org/1999/xlink"
   xmlns:sodipodi="http://sodipodi.sourceforge.net/DTD/sodipodi-0.dtd"
   xmlns:inkscape="http://www.inkscape.org/namespaces/inkscape"
   version="1.1"
   width="16"
   height="16"
   id="svg4100"
   inkscape:version="0.91 r"
   sodipodi:docname="bluetooth.svg">
  <sodipodi:namedview
     pagecolor="#ffffff"
     bordercolor="#666666"
     borderopacity="1"
     objecttolerance="10"
     gridtolerance="10"
     guidetolerance="10"
     inkscape:pageopacity="0"
     inkscape:pageshadow="2"
     inkscape:window-width="793"
     inkscape:window-height="480"
     id="namedview26"
     showgrid="false"
     inkscape:zoom="14.75"
     inkscape:cx="0.6440678"
     inkscape:cy="8"
     inkscape:window-x="387"
     inkscape:window-y="73"
     inkscape:window-maximized="0"
     inkscape:current-layer="svg4100" />
  <defs
     id="defs4102">
    <linearGradient
       id="linearGradient2867-449-88-871-390-598-476-591-434-148-57-177-3-8-0">
      <stop
         id="stop3750-8-9-9"
         style="stop-color:#90dbec;stop-opacity:1"
         offset="0" />
      <stop
         id="stop3752-3-2-6"
         style="stop-color:#42baea;stop-opacity:1"
         offset="0.26238" />
      <stop
         id="stop3754-7-2-3"
         style="stop-color:#3689e6;stop-opacity:1"
         offset="0.704952" />
      <stop
         id="stop3756-9-3-8"
         style="stop-color:#2b63a0;stop-opacity:1"
         offset="1" />
    </linearGradient>
    <linearGradient
       gradientTransform="matrix(0.34092747,0,0,0.35429277,-16.388696,-1.0154111)"
       gradientUnits="userSpaceOnUse"
       xlink:href="#linearGradient4010"
       id="linearGradient3050"
       y2="42.160152"
       x2="71.350609"
       y1="8.4182005"
       x1="71.350609" />
    <linearGradient
       id="linearGradient4010">
      <stop
         offset="0"
         style="stop-color:#ffffff;stop-opacity:1"
         id="stop4012" />
      <stop
         offset="0.3006967"
         style="stop-color:#ffffff;stop-opacity:0.23529412"
         id="stop4014" />
      <stop
         offset="0.77801859"
         style="stop-color:#ffffff;stop-opacity:0.15686275"
         id="stop4016" />
      <stop
         offset="1"
         style="stop-color:#ffffff;stop-opacity:0.39215687"
         id="stop4018" />
    </linearGradient>
    <radialGradient
       gradientTransform="matrix(0,1.0065197,-1.0650447,-2.7395917e-8,16.999419,-4.7556691)"
       gradientUnits="userSpaceOnUse"
       xlink:href="#linearGradient2867-449-88-871-390-598-476-591-434-148-57-177-3-8-0"
       id="radialGradient3015"
       fy="8.4497671"
       fx="2.9611888"
       r="19.99999"
       cy="8.4497671"
       cx="2.9611888" />
  </defs>
  <metadata
     id="metadata4105">
    <rdf:RDF>
      <cc:Work
         rdf:about="">
        <dc:format>image/svg+xml</dc:format>
        <dc:type
           rdf:resource="http://purl.org/dc/dcmitype/StillImage" />
        <dc:title />
      </cc:Work>
    </rdf:RDF>
  </metadata>
  <rect
     style="color:#000000;clip-rule:nonzero;display:inline;overflow:visible;visibility:visible;opacity:1;isolation:auto;mix-blend-mode:normal;color-interpolation:sRGB;color-interpolation-filters:linearRGB;solid-color:#000000;solid-opacity:1;fill:#353945;fill-opacity:1;fill-rule:nonzero;stroke:none;stroke-width:1;stroke-linecap:butt;stroke-linejoin:miter;stroke-miterlimit:4;stroke-dasharray:none;stroke-dashoffset:0;stroke-opacity:1;marker:none;color-rendering:auto;image-rendering:auto;shape-rendering:auto;text-rendering:auto;enable-background:accumulate"
     id="rect3363-3"
     y="0.5"
     x="2.5"
     ry="4.9137931"
     rx="5.5"
     height="15"
     width="11" />
  <g
     style="fill:#ffffff"
     id="layer1-4-1"
     transform="matrix(0.70561795,0,0,0.71735611,2.4575769,2.2611516)">
    <path
       style="color:#bebebe;display:inline;overflow:visible;visibility:visible;fill:#ffffff;fill-opacity:1;fill-rule:nonzero;stroke:none;stroke-width:1.82310748;marker:none;enable-background:accumulate"
       id="rect6885-0"
       d="m 6.9093416,1 c -0.277,0 -0.4422236,0.2230174 -0.4453298,0.5 l 0,4.875 -1.7734202,-1.5 c -0.31288,-0.27345 -0.75785,-0.21912 -1.03125,0.09375 -0.2734,0.31288 -0.25038,0.78909 0.0625,1.0625 l 2.25,1.96875 -2.25,1.96875 c -0.31288,0.273401 -0.3359,0.749622 -0.0625,1.0625 0.2734,0.312878 0.71837,0.367151 1.03125,0.09375 l 1.7734202,-1.5 0,4.875 c 0,0.277 0.1683298,0.5 0.4453298,0.5 0.28242,0 1.0379326,-0.01953 1.2566826,-0.1875 l 3.6725278,-3.15625 c 0.11231,-0.09991 0.18145,-0.24072 0.21875,-0.375 0.0142,-0.05132 0.0283,-0.10335 0.0312,-0.15625 0.004,-0.042 0.003,-0.083 0,-0.125 -0.006,-0.05361 -0.0136,-0.10455 -0.0312,-0.15625 -0.0385,-0.13396 -0.10556,-0.2761 -0.21875,-0.375 L 8.8847742,8 11.838552,5.53125 c 0.11319,-0.098907 0.18028,-0.2410493 0.21875,-0.375 0.0176,-0.051747 0.0254,-0.102645 0.0312,-0.15625 0.003,-0.041989 0.004,-0.083009 0,-0.125 -0.003,-0.052913 -0.017,-0.1049375 -0.0312,-0.15625 -0.0373,-0.1342859 -0.10644,-0.2750953 -0.21875,-0.375 L 8.1660242,1.1875 C 7.9667342,1.0265176 7.1381416,1 6.9093416,1 Z M 7.8422222,2.9444435 10.244802,4.9375 7.8422222,6.8333323 Z m 0,6.2222221 2.4025798,1.8958344 -2.4025798,1.993054 z" />
  </g>
</svg>
