<?xml version="1.0" encoding="UTF-8" standalone="no"?>
<svg
   xmlns:dc="http://purl.org/dc/elements/1.1/"
   xmlns:cc="http://creativecommons.org/ns#"
   xmlns:rdf="http://www.w3.org/1999/02/22-rdf-syntax-ns#"
   xmlns:svg="http://www.w3.org/2000/svg"
   xmlns="http://www.w3.org/2000/svg"
   xmlns:xlink="http://www.w3.org/1999/xlink"
   xmlns:sodipodi="http://sodipodi.sourceforge.net/DTD/sodipodi-0.dtd"
   xmlns:inkscape="http://www.inkscape.org/namespaces/inkscape"
   version="1.1"
   width="24"
   height="24"
   id="svg3828"
   inkscape:version="0.91 r"
   sodipodi:docname="office-contact.svg">
  <sodipodi:namedview
     pagecolor="#ffffff"
     bordercolor="#666666"
     borderopacity="1"
     objecttolerance="10"
     gridtolerance="10"
     guidetolerance="10"
     inkscape:pageopacity="0"
     inkscape:pageshadow="2"
     inkscape:window-width="640"
     inkscape:window-height="480"
     id="namedview50"
     showgrid="false"
     inkscape:zoom="33.375"
     inkscape:cx="6.6367041"
     inkscape:cy="12"
     inkscape:current-layer="svg3828" />
  <defs
     id="defs3830">
    <linearGradient
       id="linearGradient3977">
      <stop
         id="stop3979"
         style="stop-color:#ffffff;stop-opacity:1"
         offset="0" />
      <stop
         id="stop3981"
         style="stop-color:#ffffff;stop-opacity:0.23529412"
         offset="0.03626217" />
      <stop
         id="stop3983"
         style="stop-color:#ffffff;stop-opacity:0.15686275"
         offset="0.95056331" />
      <stop
         id="stop3985"
         style="stop-color:#ffffff;stop-opacity:0.39215687"
         offset="1" />
    </linearGradient>
    <linearGradient
       id="linearGradient3600-4">
      <stop
         id="stop3602-7"
         style="stop-color:#f4f4f4;stop-opacity:1"
         offset="0" />
      <stop
         id="stop3604-6"
         style="stop-color:#dbdbdb;stop-opacity:1"
         offset="1" />
    </linearGradient>
    <linearGradient
       id="linearGradient5060">
      <stop
         id="stop5062"
         style="stop-color:#000000;stop-opacity:1"
         offset="0" />
      <stop
         id="stop5064"
         style="stop-color:#000000;stop-opacity:0"
         offset="1" />
    </linearGradient>
    <linearGradient
       id="linearGradient5048">
      <stop
         id="stop5050"
         style="stop-color:#000000;stop-opacity:0"
         offset="0" />
      <stop
         id="stop5056"
         style="stop-color:#000000;stop-opacity:1"
         offset="0.5" />
      <stop
         id="stop5052"
         style="stop-color:#000000;stop-opacity:0"
         offset="1" />
    </linearGradient>
    <linearGradient
       x1="23.99999"
       y1="5.5641499"
       x2="23.99999"
       y2="43"
       id="linearGradient3013"
       xlink:href="#linearGradient3977"
       gradientUnits="userSpaceOnUse"
       gradientTransform="matrix(0.40540511,0,0,0.51351351,2.2696871,-0.3243195)" />
    <linearGradient
       x1="25.132275"
       y1="0.98520643"
       x2="25.132275"
       y2="47.013336"
       id="linearGradient3016"
       xlink:href="#linearGradient3600-4"
       gradientUnits="userSpaceOnUse"
       gradientTransform="matrix(0.48571543,0,0,0.45629666,0.3428289,0.3488617)" />
    <radialGradient
       cx="605.71429"
       cy="486.64789"
       r="117.14286"
       fx="605.71429"
       fy="486.64789"
       id="radialGradient3021"
       xlink:href="#linearGradient5060"
       gradientUnits="userSpaceOnUse"
       gradientTransform="matrix(0.01204859,0,0,0.0082353,13.238793,18.980564)" />
    <radialGradient
       cx="605.71429"
       cy="486.64789"
       r="117.14286"
       fx="605.71429"
       fy="486.64789"
       id="radialGradient3024"
       xlink:href="#linearGradient5060"
       gradientUnits="userSpaceOnUse"
       gradientTransform="matrix(-0.01204859,0,0,0.0082353,10.761206,18.980564)" />
    <linearGradient
       x1="302.85715"
       y1="366.64789"
       x2="302.85715"
       y2="609.50507"
       id="linearGradient3027"
       xlink:href="#linearGradient5048"
       gradientUnits="userSpaceOnUse"
       gradientTransform="matrix(0.0352071,0,0,0.0082353,-0.724852,18.980547)" />
    <linearGradient
       x1="23.99999"
       y1="14.915504"
       x2="23.99999"
       y2="32.595779"
       id="linearGradient3063"
       xlink:href="#linearGradient3195"
       gradientUnits="userSpaceOnUse"
       gradientTransform="matrix(0.39096628,0,0,0.47003544,1.6647482,1.4426634)" />
    <linearGradient
       id="linearGradient3195">
      <stop
         id="stop3197"
         style="stop-color:#ffffff;stop-opacity:1"
         offset="0" />
      <stop
         id="stop3199"
         style="stop-color:#ffffff;stop-opacity:0.23529412"
         offset="0.12291458" />
      <stop
         id="stop3201"
         style="stop-color:#ffffff;stop-opacity:0.15686275"
         offset="0.93706012" />
      <stop
         id="stop3203"
         style="stop-color:#ffffff;stop-opacity:0.39215687"
         offset="1" />
    </linearGradient>
    <radialGradient
       cx="10.90426"
       cy="8.4497671"
       r="19.99999"
       fx="10.90426"
       fy="8.4497671"
       id="radialGradient3066"
       xlink:href="#linearGradient2867-449-88-871-390-598-476-591-434-148-57-177-641-289-620-227-114-444-680-744-8-7"
       gradientUnits="userSpaceOnUse"
       gradientTransform="matrix(0,0.7455191,-0.67881264,0,17.738896,-1.1809478)" />
    <linearGradient
       id="linearGradient2867-449-88-871-390-598-476-591-434-148-57-177-641-289-620-227-114-444-680-744-8-7">
      <stop
         id="stop5430-8-6"
         style="stop-color:#5f5f5f;stop-opacity:1"
         offset="0" />
      <stop
         id="stop5432-3-5"
         style="stop-color:#4f4f4f;stop-opacity:1"
         offset="0.26238" />
      <stop
         id="stop5434-1-6"
         style="stop-color:#3b3b3b;stop-opacity:1"
         offset="0.704952" />
      <stop
         id="stop5436-8-9"
         style="stop-color:#2b2b2b;stop-opacity:1"
         offset="1" />
    </linearGradient>
    <linearGradient
       x1="24"
       y1="44"
       x2="24"
       y2="3.8990016"
       id="linearGradient3068"
       xlink:href="#linearGradient3707-319-631-407-324-616-674-812-821-107-178-392-400-6-7"
       gradientUnits="userSpaceOnUse"
       gradientTransform="matrix(0.53695193,0,0,0.53021938,-0.8838173,0.0298982)" />
    <linearGradient
       id="linearGradient3707-319-631-407-324-616-674-812-821-107-178-392-400-6-7">
      <stop
         id="stop5440-4-4"
         style="stop-color:#272727;stop-opacity:1"
         offset="0" />
      <stop
         id="stop5442-3-5"
         style="stop-color:#454545;stop-opacity:1"
         offset="1" />
    </linearGradient>
  </defs>
  <metadata
     id="metadata3833">
    <rdf:RDF>
      <cc:Work
         rdf:about="">
        <dc:format>image/svg+xml</dc:format>
        <dc:type
           rdf:resource="http://purl.org/dc/dcmitype/StillImage" />
        <dc:title></dc:title>
      </cc:Work>
    </rdf:RDF>
  </metadata>
  <rect
     width="16.999998"
     height="2"
     x="3.5000007"
     y="22"
     id="rect2879"
     style="opacity:0.15;fill:url(#linearGradient3027);fill-opacity:1;fill-rule:nonzero;stroke:none;stroke-width:1;marker:none;visibility:visible;display:inline;overflow:visible" />
  <path
     d="m 3.4999999,22.000085 c 0,0 0,1.999891 0,1.999891 C 2.8795275,24.003776 2,23.551901 2,22.999901 2,22.447902 2.6924,22.000085 3.4999999,22.000085 z"
     id="path2881"
     style="opacity:0.15;fill:url(#radialGradient3024);fill-opacity:1;fill-rule:nonzero;stroke:none;stroke-width:1;marker:none;visibility:visible;display:inline;overflow:visible" />
  <path
     d="m 20.5,22.000085 c 0,0 0,1.999891 0,1.999891 0.620472,0.0038 1.5,-0.448075 1.5,-1.000075 0,-0.551999 -0.692402,-0.999816 -1.5,-0.999816 z"
     id="path2883"
     style="opacity:0.15;fill:url(#radialGradient3021);fill-opacity:1;fill-rule:nonzero;stroke:none;stroke-width:1;marker:none;visibility:visible;display:inline;overflow:visible" />
  <path
     d="m 3.4999601,1.4999569 c 3.8955809,0 17.0000589,0.00136 17.0000589,0.00136 l 2.1e-5,20.9987161 c 0,0 -11.3333862,0 -17.0000799,0 0,-7.000018 0,-14.000035 0,-21.0000538 z"
     id="path4160-3"
     style="fill:url(#linearGradient3016);fill-opacity:1;stroke:none;display:inline" />
  <path
     d="m 19.5,21.5 -15.0000004,0 0,-19 L 19.5,2.5 z"
     id="rect6741-1"
     style="fill:none;stroke:url(#linearGradient3013);stroke-width:1;stroke-linecap:round;stroke-linejoin:miter;stroke-miterlimit:4;stroke-opacity:1;stroke-dasharray:none;stroke-dashoffset:0" />
  <path
     d="m 3.4999601,1.4999569 c 3.8955809,0 17.0000589,0.00136 17.0000589,0.00136 l 2.1e-5,20.9987161 c 0,0 -11.3333862,0 -17.0000799,0 0,-7.000018 0,-14.000035 0,-21.0000538 z"
     id="path4160-3-1"
     style="opacity:0.3;fill:none;stroke:#000000;stroke-width:0.99992186;stroke-linecap:butt;stroke-linejoin:round;stroke-miterlimit:4;stroke-opacity:1;stroke-dasharray:none;stroke-dashoffset:0;display:inline" />
  <g
     id="g4186"
     transform="translate(0.08090735,-0.23776105)">
    <path
       inkscape:connector-curvature="0"
       style="opacity:1;fill:#8d8d8d;fill-opacity:1;stroke:none;stroke-width:2;stroke-miterlimit:4;stroke-dasharray:none;stroke-opacity:1"
       d="m 7.1190924,16.797756 a 0.71999995,0.71999995 0 0 0 -0.72,0.72 0.71999995,0.71999995 0 0 0 0.72,0.72 0.71999995,0.71999995 0 0 0 0.7199999,-0.72 0.71999995,0.71999995 0 0 0 -0.7199999,-0.72 z m 2.3999996,0 a 0.71999995,0.71999995 0 0 0 -0.7199999,0.72 0.71999995,0.71999995 0 0 0 0.7199999,0.72 0.71999995,0.71999995 0 0 0 0.72,-0.72 0.71999995,0.71999995 0 0 0 -0.72,-0.72 z m 2.4,0 a 0.71999995,0.71999995 0 0 0 -0.72,0.72 0.71999995,0.71999995 0 0 0 0.72,0.72 0.71999995,0.71999995 0 0 0 0.72,-0.72 0.71999995,0.71999995 0 0 0 -0.72,-0.72 z m 2.399999,0 a 0.71999995,0.71999995 0 0 0 -0.719998,0.72 0.71999995,0.71999995 0 0 0 0.719998,0.72 0.71999995,0.71999995 0 0 0 0.720001,-0.72 0.71999995,0.71999995 0 0 0 -0.720001,-0.72 z m 2.400002,0 a 0.71999995,0.71999995 0 0 0 -0.720001,0.72 0.71999995,0.71999995 0 0 0 0.720001,0.72 0.71999995,0.71999995 0 0 0 0.72,-0.72 0.71999995,0.71999995 0 0 0 -0.72,-0.72 z"
       id="path4194" />
    <path
       inkscape:connector-curvature="0"
       d="m 8.6790926,6.237756 c -0.1994404,0 -0.36,0.16056 -0.36,0.3599999 l 0,6.4799991 c 0,0.199441 0.1605596,0.360001 0.36,0.360001 l 5.9999994,0 c 0.19944,0 0.36,-0.16056 0.36,-0.360001 l 0,-6.4799991 c 0,-0.1994399 -0.16056,-0.3599999 -0.36,-0.3599999 l -5.9999994,0 z m 0.1199995,0.48 0.4800002,0 0,0.4799999 -0.4800002,0 0,-0.4799999 z m 1.2000001,0 3.3599998,0 c 0.13296,0 0.240001,0.10704 0.240001,0.24 l 0,2.3999993 c 0,0.1329606 -0.107041,0.2400003 -0.240001,0.2400003 l -3.3599998,0 c -0.1329601,0 -0.2399998,-0.1070397 -0.2399998,-0.2400003 l 0,-2.3999993 c 0,-0.13296 0.1070397,-0.24 0.2399998,-0.24 z m 4.0799998,0 0.48,0 0,0.4799999 -0.48,0 0,-0.4799999 z m -5.2799999,0.9599999 0.4800002,0 0,0.48 -0.4800002,0 0,-0.48 z m 5.2799999,0 0.48,0 0,0.48 -0.48,0 0,-0.48 z m -5.2799999,0.9600001 0.4800002,0 0,0.4800001 -0.4800002,0 0,-0.4800001 z m 5.2799999,0 0.48,0 0,0.4800001 -0.48,0 0,-0.4800001 z m -5.2799999,0.9599996 0.4800002,0 0,0.4800004 -0.4800002,0 0,-0.4800004 z m 5.2799999,0 0.48,0 0,0.4800004 -0.48,0 0,-0.4800004 z m -4.0799998,0.4800004 3.3599998,0 c 0.13296,0 0.240001,0.10704 0.240001,0.24 l 0,2.4 c 0,0.13296 -0.107041,0.239999 -0.240001,0.239999 l -3.3599998,0 c -0.1329601,0 -0.2399998,-0.107039 -0.2399998,-0.239999 l 0,-2.4 c 0,-0.13296 0.1070397,-0.24 0.2399998,-0.24 z m -1.2000001,0.48 0.4800002,0 0,0.48 -0.4800002,0 0,-0.48 z m 5.2799999,0 0.48,0 0,0.48 -0.48,0 0,-0.48 z m -5.2799999,0.96 0.4800002,0 0,0.48 -0.4800002,0 0,-0.48 z m 5.2799999,0 0.48,0 0,0.48 -0.48,0 0,-0.48 z m -5.2799999,0.96 0.4800002,0 0,0.479999 -0.4800002,0 0,-0.479999 z m 5.2799999,0 0.48,0 0,0.479999 -0.48,0 0,-0.479999 z"
       id="rect3032-8"
       style="color:#000000;display:inline;overflow:visible;visibility:visible;opacity:1;fill:#8d8d8d;fill-opacity:1;fill-rule:nonzero;stroke:none;stroke-width:1;marker:none;enable-background:accumulate" />
  </g>
</svg>
