<?xml version="1.0" encoding="UTF-8" standalone="no"?>
<svg
   xmlns:dc="http://purl.org/dc/elements/1.1/"
   xmlns:cc="http://creativecommons.org/ns#"
   xmlns:rdf="http://www.w3.org/1999/02/22-rdf-syntax-ns#"
   xmlns:svg="http://www.w3.org/2000/svg"
   xmlns="http://www.w3.org/2000/svg"
   xmlns:xlink="http://www.w3.org/1999/xlink"
   xmlns:sodipodi="http://sodipodi.sourceforge.net/DTD/sodipodi-0.dtd"
   xmlns:inkscape="http://www.inkscape.org/namespaces/inkscape"
   version="1.1"
   width="24"
   height="24"
   id="svg3828"
   inkscape:version="0.91 r"
   sodipodi:docname="application-x-desktop.svg">
  <sodipodi:namedview
     pagecolor="#ffffff"
     bordercolor="#666666"
     borderopacity="1"
     objecttolerance="10"
     gridtolerance="10"
     guidetolerance="10"
     inkscape:pageopacity="0"
     inkscape:pageshadow="2"
     inkscape:window-width="640"
     inkscape:window-height="480"
     id="namedview45"
     showgrid="false"
     inkscape:zoom="32.166667"
     inkscape:cx="6.4352332"
     inkscape:cy="12"
     inkscape:current-layer="svg3828" />
  <defs
     id="defs3830">
    <linearGradient
       x1="23.99999"
       y1="5.5641499"
       x2="23.99999"
       y2="43"
       id="linearGradient3119"
       xlink:href="#linearGradient3977"
       gradientUnits="userSpaceOnUse"
       gradientTransform="matrix(0.40540511,0,0,0.51351351,2.2696871,7.6756805)" />
    <linearGradient
       id="linearGradient3977">
      <stop
         id="stop3979"
         style="stop-color:#ffffff;stop-opacity:1"
         offset="0" />
      <stop
         id="stop3981"
         style="stop-color:#ffffff;stop-opacity:0.23529412"
         offset="0.03626217" />
      <stop
         id="stop3983"
         style="stop-color:#ffffff;stop-opacity:0.15686275"
         offset="0.95056331" />
      <stop
         id="stop3985"
         style="stop-color:#ffffff;stop-opacity:0.39215687"
         offset="1" />
    </linearGradient>
    <linearGradient
       x1="25.132275"
       y1="0.98520643"
       x2="25.132275"
       y2="47.013336"
       id="linearGradient3122"
       xlink:href="#linearGradient3600-4"
       gradientUnits="userSpaceOnUse"
       gradientTransform="matrix(0.48571543,0,0,0.45629666,0.3428289,8.3488617)" />
    <linearGradient
       id="linearGradient3600-4">
      <stop
         id="stop3602-7"
         style="stop-color:#f4f4f4;stop-opacity:1"
         offset="0" />
      <stop
         id="stop3604-6"
         style="stop-color:#dbdbdb;stop-opacity:1"
         offset="1" />
    </linearGradient>
    <linearGradient
       x1="-51.786404"
       y1="50.786446"
       x2="-51.786404"
       y2="2.9062471"
       id="linearGradient3124"
       xlink:href="#linearGradient3104-5"
       gradientUnits="userSpaceOnUse"
       gradientTransform="matrix(0.39221364,0,0,0.42702571,29.199296,7.8403287)" />
    <linearGradient
       id="linearGradient3104-5">
      <stop
         id="stop3106-6"
         style="stop-color:#a0a0a0;stop-opacity:1"
         offset="0" />
      <stop
         id="stop3108-9"
         style="stop-color:#bebebe;stop-opacity:1"
         offset="1" />
    </linearGradient>
    <radialGradient
       cx="605.71429"
       cy="486.64789"
       r="117.14286"
       fx="605.71429"
       fy="486.64789"
       id="radialGradient3045"
       xlink:href="#linearGradient5060"
       gradientUnits="userSpaceOnUse"
       gradientTransform="matrix(0.01204859,0,0,0.0082353,13.238793,26.980564)" />
    <linearGradient
       id="linearGradient5060">
      <stop
         id="stop5062"
         style="stop-color:#000000;stop-opacity:1"
         offset="0" />
      <stop
         id="stop5064"
         style="stop-color:#000000;stop-opacity:0"
         offset="1" />
    </linearGradient>
    <radialGradient
       cx="605.71429"
       cy="486.64789"
       r="117.14286"
       fx="605.71429"
       fy="486.64789"
       id="radialGradient3048"
       xlink:href="#linearGradient5060"
       gradientUnits="userSpaceOnUse"
       gradientTransform="matrix(-0.01204859,0,0,0.0082353,10.761206,26.980564)" />
    <linearGradient
       id="linearGradient5048">
      <stop
         id="stop5050"
         style="stop-color:#000000;stop-opacity:0"
         offset="0" />
      <stop
         id="stop5056"
         style="stop-color:#000000;stop-opacity:1"
         offset="0.5" />
      <stop
         id="stop5052"
         style="stop-color:#000000;stop-opacity:0"
         offset="1" />
    </linearGradient>
    <linearGradient
       x1="302.85715"
       y1="366.64789"
       x2="302.85715"
       y2="609.50507"
       id="linearGradient3826"
       xlink:href="#linearGradient5048"
       gradientUnits="userSpaceOnUse"
       gradientTransform="matrix(0.0352071,0,0,0.0082353,-0.724852,26.980547)" />
    <linearGradient
       x1="12.913282"
       y1="14.076225"
       x2="12.913282"
       y2="23.088869"
       id="linearGradient4109"
       xlink:href="#linearGradient4097"
       gradientUnits="userSpaceOnUse"
       gradientTransform="matrix(1,0,0,-1,0,32.006376)" />
    <linearGradient
       id="linearGradient4097">
      <stop
         id="stop4099"
         style="stop-color:#000000;stop-opacity:1"
         offset="0" />
      <stop
         id="stop4101"
         style="stop-color:#000000;stop-opacity:0"
         offset="1" />
    </linearGradient>
    <linearGradient
       x1="12.913282"
       y1="14.076225"
       x2="12.913282"
       y2="25.962694"
       id="linearGradient4103"
       xlink:href="#linearGradient4097"
       gradientUnits="userSpaceOnUse"
       gradientTransform="translate(0,-8)" />
    <linearGradient
       x1="12.098314"
       y1="29.917463"
       x2="12.098314"
       y2="9.9835634"
       id="linearGradient4119"
       xlink:href="#linearGradient3104-5"
       gradientUnits="userSpaceOnUse"
       gradientTransform="translate(0,-8)" />
  </defs>
  <metadata
     id="metadata3833">
    <rdf:RDF>
      <cc:Work
         rdf:about="">
        <dc:format>image/svg+xml</dc:format>
        <dc:type
           rdf:resource="http://purl.org/dc/dcmitype/StillImage" />
        <dc:title></dc:title>
      </cc:Work>
    </rdf:RDF>
  </metadata>
  <g
     transform="translate(0,-8)"
     id="layer1">
    <rect
       width="16.999998"
       height="2"
       x="3.5000007"
       y="30"
       id="rect2879"
       style="opacity:0.15;fill:url(#linearGradient3826);fill-opacity:1;fill-rule:nonzero;stroke:none;stroke-width:1;marker:none;visibility:visible;display:inline;overflow:visible" />
    <path
       d="m 3.4999999,30.000085 c 0,0 0,1.999891 0,1.999891 C 2.8795275,32.003776 2,31.551901 2,30.999901 2,30.447902 2.6924,30.000085 3.4999999,30.000085 z"
       id="path2881"
       style="opacity:0.15;fill:url(#radialGradient3048);fill-opacity:1;fill-rule:nonzero;stroke:none;stroke-width:1;marker:none;visibility:visible;display:inline;overflow:visible" />
    <path
       d="m 20.5,30.000085 c 0,0 0,1.999891 0,1.999891 0.620472,0.0038 1.5,-0.448075 1.5,-1.000075 0,-0.551999 -0.692402,-0.999816 -1.5,-0.999816 z"
       id="path2883"
       style="opacity:0.15;fill:url(#radialGradient3045);fill-opacity:1;fill-rule:nonzero;stroke:none;stroke-width:1;marker:none;visibility:visible;display:inline;overflow:visible" />
    <path
       d="m 3.4999601,9.4999569 c 3.8955809,0 17.0000589,0.00136 17.0000589,0.00136 l 2.1e-5,20.9987161 c 0,0 -11.3333862,0 -17.0000799,0 0,-7.000018 0,-14.000035 0,-21.0000538 z"
       id="path4160-3"
       style="fill:url(#linearGradient3122);fill-opacity:1;stroke:url(#linearGradient3124);stroke-width:0.99992186;stroke-linecap:butt;stroke-linejoin:round;stroke-miterlimit:4;stroke-opacity:1;stroke-dasharray:none;stroke-dashoffset:0;display:inline" />
    <path
       d="m 19.5,29.5 -15.0000004,0 0,-19 L 19.5,10.5 z"
       id="rect6741-1"
       style="fill:none;stroke:url(#linearGradient3119);stroke-width:1;stroke-linecap:round;stroke-linejoin:miter;stroke-miterlimit:4;stroke-opacity:1;stroke-dasharray:none;stroke-dashoffset:0" />
  </g>
  <g
     transform="translate(9.9594223e-8,1.950438)"
     id="g4828"
     style="fill:#ffffff;fill-opacity:1">
    <path
       inkscape:connector-curvature="0"
       style="overflow:visible;opacity:0.3;fill:#ffffff;fill-opacity:1;stroke:none"
       d="M 7.8796031,15.675032 C 7.691442,15.389728 6.5924524,13.378818 6.3666585,13.035972 6.1404294,12.693784 6.21088,12.204565 6.3334124,11.992556 l 0.7815246,-1.320847 -0.5697326,-0.314184 2.488534,-0.33628 0.9755896,2.287244 -0.559449,-0.335625 -1.4895333,2.583708 c -0.1831285,0.317905 -0.2953672,0.817842 -0.080731,1.11846 z"
       id="path4830" />
    <path
       inkscape:connector-curvature="0"
       style="overflow:visible;opacity:0.3;fill:#ffffff;fill-opacity:1;stroke:none"
       d="m 8.7567362,13.682501 -0.6428084,1.114744 c -0.1533718,0.265829 -0.2542343,0.657902 -0.1584046,0.955238 0.1951621,0.273491 0.5097841,0.596648 0.9594,0.605836 l 2.9132078,0 0,-2.675818 -3.0713948,0 z"
       id="path4832" />
    <path
       inkscape:connector-curvature="0"
       style="overflow:visible;opacity:0.3;fill:#ffffff;fill-opacity:1;stroke:none"
       d="m 17.577748,13.194814 c -0.152935,0.305651 -1.345348,2.262742 -1.528912,2.629434 -0.183348,0.367136 -0.642154,0.5507 -0.886762,0.5507 l -1.463058,-0.01518 0,0.707794 -1.594989,-2.045839 1.594989,-2.0457 0,0.70779 2.869229,0 c 0.367351,0 0.856568,-0.152718 1.009503,-0.489 z"
       id="path4834" />
    <path
       inkscape:connector-curvature="0"
       style="overflow:visible;opacity:0.3;fill:#ffffff;fill-opacity:1;stroke:none"
       d="m 10.580801,6.0357401 c 0.341315,-0.02035 2.632279,0.034121 3.041638,0.00938 0.409578,-0.024498 0.797714,0.2809282 0.92002,0.4929378 L 15.315228,7.8744385 15.898525,7.5318132 14.899742,9.8623777 12.397645,9.5556307 12.979849,9.2305053 11.508914,6.6651786 C 11.325566,6.34752 10.94859,6.0000811 10.580801,6.0357426 Z"
       id="path4836" />
    <path
       inkscape:connector-curvature="0"
       style="overflow:visible;opacity:0.3;fill:#ffffff;fill-opacity:1;stroke:none"
       d="M 10.472938,6.0965636 C 10.135998,6.1256619 9.6841961,6.2326519 9.4457102,6.6264761 L 8.0145972,9.1139163 10.331599,10.451824 11.865545,7.785853 11.25424,6.7196804 C 11.094962,6.4446617 10.79084,6.1479794 10.472938,6.0965636 Z"
       id="path4838" />
    <path
       inkscape:connector-curvature="0"
       style="overflow:visible;opacity:0.3;fill:#ffffff;fill-opacity:1;stroke:none"
       d="m 16.809134,13.451236 c 0.252049,0 0.537572,-0.117703 0.756361,-0.271519 l 0.01246,-0.02146 c 0.152966,-0.305651 0.322749,-0.787867 0.08516,-1.219544 l -1.467933,-2.5055991 -2.317001,1.3376881 1.564793,2.680415 1.366136,0 z"
       id="path4840" />
  </g>
  <g
     id="g4820"
     transform="translate(9.9594223e-8,0.95067419)">
    <path
       id="path3843"
       d="M 7.8796031,15.675032 C 7.691442,15.389728 6.5924524,13.378818 6.3666585,13.035972 6.1404294,12.693784 6.21088,12.204565 6.3334124,11.992556 l 0.7815246,-1.320847 -0.5697326,-0.314184 2.488534,-0.33628 0.9755896,2.287244 -0.559449,-0.335625 -1.4895333,2.583708 c -0.1831285,0.317905 -0.2953672,0.817842 -0.080731,1.11846 z"
       style="overflow:visible;opacity:0.3;fill:#000000;fill-opacity:1;stroke:none"
       inkscape:connector-curvature="0" />
    <path
       id="path3845"
       d="m 8.7567362,13.682501 -0.6428084,1.114744 c -0.1533718,0.265829 -0.2542343,0.657902 -0.1584046,0.955238 0.1951621,0.273491 0.5097841,0.596648 0.9594,0.605836 l 2.9132078,0 0,-2.675818 -3.0713948,0 z"
       style="overflow:visible;opacity:0.3;fill:#000000;fill-opacity:1;stroke:none"
       inkscape:connector-curvature="0" />
    <path
       id="path3847"
       d="m 17.577748,13.194814 c -0.152935,0.305651 -1.345348,2.262742 -1.528912,2.629434 -0.183348,0.367136 -0.642154,0.5507 -0.886762,0.5507 l -1.463058,-0.01518 0,0.707794 -1.594989,-2.045839 1.594989,-2.0457 0,0.70779 2.869229,0 c 0.367351,0 0.856568,-0.152718 1.009503,-0.489 z"
       style="overflow:visible;opacity:0.3;fill:#000000;fill-opacity:1;stroke:none"
       inkscape:connector-curvature="0" />
    <path
       id="path3849"
       d="m 10.580801,6.0357401 c 0.341315,-0.02035 2.632279,0.034121 3.041638,0.00938 0.409578,-0.024498 0.797714,0.2809282 0.92002,0.4929378 L 15.315228,7.8744385 15.898525,7.5318132 14.899742,9.8623777 12.397645,9.5556307 12.979849,9.2305053 11.508914,6.6651786 C 11.325566,6.34752 10.94859,6.0000811 10.580801,6.0357426 Z"
       style="overflow:visible;opacity:0.3;fill:#000000;fill-opacity:1;stroke:none"
       inkscape:connector-curvature="0" />
    <path
       id="path3851"
       d="M 10.472938,6.0965636 C 10.135998,6.1256619 9.6841961,6.2326519 9.4457102,6.6264761 L 8.0145972,9.1139163 10.331599,10.451824 11.865545,7.785853 11.25424,6.7196804 C 11.094962,6.4446617 10.79084,6.1479794 10.472938,6.0965636 Z"
       style="overflow:visible;opacity:0.3;fill:#000000;fill-opacity:1;stroke:none"
       inkscape:connector-curvature="0" />
    <path
       id="path3853"
       d="m 16.809134,13.451236 c 0.252049,0 0.537572,-0.117703 0.756361,-0.271519 l 0.01246,-0.02146 c 0.152966,-0.305651 0.322749,-0.787867 0.08516,-1.219544 l -1.467933,-2.5055991 -2.317001,1.3376881 1.564793,2.680415 1.366136,0 z"
       style="overflow:visible;opacity:0.3;fill:#000000;fill-opacity:1;stroke:none"
       inkscape:connector-curvature="0" />
  </g>
</svg>
