<?xml version="1.0" encoding="UTF-8" standalone="no"?>
<!-- Created with Inkscape (http://www.inkscape.org/) -->

<svg
   xmlns:dc="http://purl.org/dc/elements/1.1/"
   xmlns:cc="http://creativecommons.org/ns#"
   xmlns:rdf="http://www.w3.org/1999/02/22-rdf-syntax-ns#"
   xmlns:svg="http://www.w3.org/2000/svg"
   xmlns="http://www.w3.org/2000/svg"
   xmlns:sodipodi="http://sodipodi.sourceforge.net/DTD/sodipodi-0.dtd"
   xmlns:inkscape="http://www.inkscape.org/namespaces/inkscape"
   id="svg7384"
   height="22"
   width="22"
   version="1.1"
   inkscape:version="0.48.3.1 r9886"
   sodipodi:docname="fit.svg">
  <defs
     id="defs20" />
  <sodipodi:namedview
     pagecolor="#ffffff"
     bordercolor="#666666"
     borderopacity="1"
     objecttolerance="10"
     gridtolerance="10"
     guidetolerance="10"
     inkscape:pageopacity="0"
     inkscape:pageshadow="2"
     inkscape:window-width="729"
     inkscape:window-height="480"
     id="namedview18"
     showgrid="false"
     inkscape:zoom="14.75"
     inkscape:cx="8"
     inkscape:cy="13.423729"
     inkscape:window-x="327"
     inkscape:window-y="140"
     inkscape:window-maximized="0"
     inkscape:current-layer="svg7384" />
  <metadata
     id="metadata90">
    <rdf:RDF>
      <cc:Work
         rdf:about="">
        <dc:format>image/svg+xml</dc:format>
        <dc:type
           rdf:resource="http://purl.org/dc/dcmitype/StillImage" />
        <dc:title>Gnome Symbolic Icon Theme</dc:title>
      </cc:Work>
    </rdf:RDF>
  </metadata>
  <title
     id="title9167">Gnome Symbolic Icon Theme</title>
  <g
     id="layer12"
     transform="matrix(0.67952592,0.69547408,-0.69547408,0.67952592,434.61375,-468.15176)"
     style="opacity:0.6;fill:#000000;fill-opacity:1;stroke:none">
    <path
       id="path12113"
       style="text-indent:0;text-transform:none;block-progression:tb;color:#000000;fill:#000000;fill-opacity:1;stroke:none;enable-background:new"
       d="M 40.781,658 A 1.0001,1.0001 0 0 0 40,659 v 4 a 1.0001,1.0001 0 0 0 1,1 h 4 a 1.0001,1.0001 0 1 0 0,-2 h -3 v -3 a 1.0001,1.0001 0 0 0 -1.2188,-1 z"
       inkscape:connector-curvature="0" />
    <path
       id="path12147"
       style="text-indent:0;text-transform:none;block-progression:tb;color:#000000;fill:#000000;fill-opacity:1;stroke:none;enable-background:new"
       d="m 44.875,658 a 1.0001,1.0001 0 0 0 -0.59375,0.28125 l -4,4 a 1.0165,1.0165 0 1 0 1.4375,1.4375 l 4,-4 a 1.0001,1.0001 0 0 0 -0.843,-1.72 z"
       inkscape:connector-curvature="0" />
    <rect
       id="rect12919"
       style="color:#000000;fill:#000000;fill-opacity:1;stroke:none;enable-background:new"
       height="1"
       width="1"
       y="663"
       x="40" />
    <path
       id="path12109"
       style="text-indent:0;text-transform:none;block-progression:tb;color:#000000;fill:#000000;fill-opacity:1;stroke:none;enable-background:new"
       d="M 40.906,648 A 1.0001,1.0001 0 0 0 40,649 v 4 a 1.0001,1.0001 0 1 0 2,0 v -3 h 3 a 1.0001,1.0001 0 1 0 0,-2 h -4 a 1.0001,1.0001 0 0 0 -0.09375,0 z"
       inkscape:connector-curvature="0" />
    <path
       id="path12145"
       style="text-indent:0;text-transform:none;block-progression:tb;color:#000000;fill:#000000;fill-opacity:1;stroke:none;enable-background:new"
       d="m 40.781,648 a 1.0001,1.0001 0 0 0 -0.5,1.7188 l 4,4 a 1.0165,1.0165 0 1 0 1.4375,-1.4375 l -4,-4 a 1.0001,1.0001 0 0 0 -0.937,-0.28 z"
       inkscape:connector-curvature="0" />
    <rect
       id="rect12921"
       style="color:#000000;fill:#000000;fill-opacity:1;stroke:none;enable-background:new"
       height="1"
       width="1"
       y="648"
       x="40" />
    <path
       id="path12111"
       style="text-indent:0;text-transform:none;block-progression:tb;color:#000000;fill:#000000;fill-opacity:1;stroke:none;enable-background:new"
       d="M 50.906,648 A 1.0011039,1.0011039 0 1 0 51,650 h 3 v 3 a 1.0001,1.0001 0 1 0 2,0 v -4 a 1.0001,1.0001 0 0 0 -1,-1 h -4 a 1.0001,1.0001 0 0 0 -0.09375,0 z"
       inkscape:connector-curvature="0" />
    <rect
       id="rect12923"
       style="color:#000000;fill:#000000;fill-opacity:1;stroke:none;enable-background:new"
       height="1"
       width="1"
       y="648"
       x="55" />
    <path
       id="path12925"
       style="text-indent:0;text-transform:none;block-progression:tb;color:#000000;fill:#000000;fill-opacity:1;stroke:none;enable-background:new"
       d="m 54.875,648 a 1.0001,1.0001 0 0 0 -0.59375,0.28125 l -4,4 a 1.0165,1.0165 0 1 0 1.4375,1.4375 l 4,-4 a 1.0001,1.0001 0 0 0 -0.843,-1.72 z"
       inkscape:connector-curvature="0" />
    <path
       id="path12115"
       style="text-indent:0;text-transform:none;block-progression:tb;color:#000000;fill:#000000;fill-opacity:1;stroke:none;enable-background:new"
       d="M 54.781,658 A 1.0001,1.0001 0 0 0 54,659 v 3 h -3 a 1.0001,1.0001 0 1 0 0,2 h 4 a 1.0001,1.0001 0 0 0 1,-1 v -4 a 1.0001,1.0001 0 0 0 -1.2188,-1 z"
       inkscape:connector-curvature="0" />
    <rect
       id="rect12149"
       style="color:#000000;fill:#000000;fill-opacity:1;stroke:none;enable-background:new"
       height="1"
       width="1"
       y="663"
       x="55" />
    <path
       id="path12927"
       style="text-indent:0;text-transform:none;block-progression:tb;color:#000000;fill:#000000;fill-opacity:1;stroke:none;enable-background:new"
       d="m 50.781,658 a 1.0001,1.0001 0 0 0 -0.5,1.7188 l 4,4 a 1.0165,1.0165 0 1 0 1.4375,-1.4375 l -4,-4 a 1.0001,1.0001 0 0 0 -0.937,-0.28 z"
       inkscape:connector-curvature="0" />
  </g>
</svg>
