<?xml version="1.0" encoding="UTF-8" standalone="no"?>
<!-- Created with Inkscape (http://www.inkscape.org/) -->

<svg
   xmlns:dc="http://purl.org/dc/elements/1.1/"
   xmlns:cc="http://creativecommons.org/ns#"
   xmlns:rdf="http://www.w3.org/1999/02/22-rdf-syntax-ns#"
   xmlns:svg="http://www.w3.org/2000/svg"
   xmlns="http://www.w3.org/2000/svg"
   xmlns:xlink="http://www.w3.org/1999/xlink"
   xmlns:sodipodi="http://sodipodi.sourceforge.net/DTD/sodipodi-0.dtd"
   xmlns:inkscape="http://www.inkscape.org/namespaces/inkscape"
   version="1.0"
   width="22"
   height="22"
   id="svg3386"
   inkscape:version="0.48.4 r9939"
   sodipodi:docname="iso-image-burn.svg">
  <metadata
     id="metadata38">
    <rdf:RDF>
      <cc:Work
         rdf:about="">
        <dc:format>image/svg+xml</dc:format>
        <dc:type
           rdf:resource="http://purl.org/dc/dcmitype/StillImage" />
        <dc:title></dc:title>
      </cc:Work>
    </rdf:RDF>
  </metadata>
  <sodipodi:namedview
     pagecolor="#ffffff"
     bordercolor="#666666"
     borderopacity="1"
     objecttolerance="10"
     gridtolerance="10"
     guidetolerance="10"
     inkscape:pageopacity="0"
     inkscape:pageshadow="2"
     inkscape:window-width="640"
     inkscape:window-height="480"
     id="namedview36"
     showgrid="false"
     inkscape:zoom="10.727273"
     inkscape:cx="11"
     inkscape:cy="11"
     inkscape:window-x="229"
     inkscape:window-y="53"
     inkscape:window-maximized="0"
     inkscape:current-layer="svg3386" />
  <defs
     id="defs3388">
    <linearGradient
       id="linearGradient3104">
      <stop
         id="stop3106"
         style="stop-color:#aaaaaa;stop-opacity:1"
         offset="0" />
      <stop
         id="stop3108"
         style="stop-color:#c8c8c8;stop-opacity:1"
         offset="1" />
    </linearGradient>
    <linearGradient
       id="linearGradient3600">
      <stop
         id="stop3602"
         style="stop-color:#f4f4f4;stop-opacity:1"
         offset="0" />
      <stop
         id="stop3604"
         style="stop-color:#dbdbdb;stop-opacity:1"
         offset="1" />
    </linearGradient>
    <radialGradient
       cx="102"
       cy="112.3047"
       r="139.55859"
       id="XMLID_8_"
       gradientUnits="userSpaceOnUse">
      <stop
         id="stop41"
         style="stop-color:#b7b8b9;stop-opacity:1"
         offset="0" />
      <stop
         id="stop47"
         style="stop-color:#ececec;stop-opacity:1"
         offset="0.17402567" />
      <stop
         id="stop49"
         style="stop-color:#fafafa;stop-opacity:0"
         offset="0.23907544" />
      <stop
         id="stop51"
         style="stop-color:#ffffff;stop-opacity:0"
         offset="0.30111277" />
      <stop
         id="stop53"
         style="stop-color:#fafafa;stop-opacity:0"
         offset="0.53130001" />
      <stop
         id="stop55"
         style="stop-color:#ebecec;stop-opacity:0"
         offset="0.84490001" />
      <stop
         id="stop57"
         style="stop-color:#e1e2e3;stop-opacity:0"
         offset="1" />
    </radialGradient>
    <linearGradient
       id="linearGradient3211">
      <stop
         id="stop3213"
         style="stop-color:#ffffff;stop-opacity:1"
         offset="0" />
      <stop
         id="stop3215"
         style="stop-color:#ffffff;stop-opacity:0"
         offset="1" />
    </linearGradient>
    <linearGradient
       id="linearGradient8589">
      <stop
         id="stop8591"
         style="stop-color:#fefefe;stop-opacity:1"
         offset="0" />
      <stop
         id="stop8593"
         style="stop-color:#cbcbcb;stop-opacity:1"
         offset="1" />
    </linearGradient>
    <linearGradient
       x1="32.892288"
       y1="8.0590115"
       x2="36.358372"
       y2="5.4565363"
       id="linearGradient2425"
       xlink:href="#linearGradient8589"
       gradientUnits="userSpaceOnUse"
       gradientTransform="matrix(0.4778466,0,0,0.5524833,-0.62774609,-0.0761283)" />
    <linearGradient
       x1="24"
       y1="1.9999999"
       x2="24"
       y2="46.01725"
       id="linearGradient2429"
       xlink:href="#linearGradient3211"
       gradientUnits="userSpaceOnUse"
       gradientTransform="matrix(0.4545444,0,0,0.4651153,0.09093361,0.3372293)" />
    <radialGradient
       cx="92.090363"
       cy="102.70267"
       r="139.55859"
       fx="92.090363"
       fy="102.70267"
       id="radialGradient2432"
       xlink:href="#XMLID_8_"
       gradientUnits="userSpaceOnUse"
       gradientTransform="matrix(0.1702128,0,0,-0.1907226,0.10638221,23.716504)" />
    <linearGradient
       x1="25.132275"
       y1="0.98520643"
       x2="25.132275"
       y2="47.013336"
       id="linearGradient2435"
       xlink:href="#linearGradient3600"
       gradientUnits="userSpaceOnUse"
       gradientTransform="matrix(0.4857154,0,0,0.4780255,-0.65717039,-0.7059501)" />
    <linearGradient
       x1="-51.786404"
       y1="50.786446"
       x2="-51.786404"
       y2="2.9062471"
       id="linearGradient2438"
       xlink:href="#linearGradient3104"
       gradientUnits="userSpaceOnUse"
       gradientTransform="matrix(0.3922135,0,0,0.4473607,28.199292,-1.2386997)" />
    <radialGradient
       inkscape:collect="always"
       xlink:href="#linearGradient8662"
       id="radialGradient4123"
       gradientUnits="userSpaceOnUse"
       gradientTransform="matrix(1,0,0,0.536723,0,16.87306)"
       cx="24.837126"
       cy="36.421127"
       fx="24.837126"
       fy="36.421127"
       r="15.644737" />
    <linearGradient
       inkscape:collect="always"
       id="linearGradient8662">
      <stop
         style="stop-color:#000000;stop-opacity:1;"
         offset="0"
         id="stop8664" />
      <stop
         style="stop-color:#000000;stop-opacity:0;"
         offset="1"
         id="stop8666" />
    </linearGradient>
    <linearGradient
       inkscape:collect="always"
       xlink:href="#linearGradient3242-7"
       id="linearGradient4125"
       gradientUnits="userSpaceOnUse"
       gradientTransform="matrix(0.27961814,0,0,-0.26116043,-25.742503,15.954055)"
       x1="25.46862"
       y1="32.841259"
       x2="25.46862"
       y2="2.7235911" />
    <linearGradient
       id="linearGradient3242-7">
      <stop
         id="stop3244-5-6"
         style="stop-color:#eef87e;stop-opacity:1"
         offset="0" />
      <stop
         id="stop3246-9-7"
         style="stop-color:#cde34f;stop-opacity:1"
         offset="0.26238" />
      <stop
         id="stop3248-7-6"
         style="stop-color:#93b723;stop-opacity:1"
         offset="0.66093999" />
      <stop
         id="stop3250-8-9"
         style="stop-color:#5a7e0d;stop-opacity:1"
         offset="1" />
    </linearGradient>
    <linearGradient
       inkscape:collect="always"
       xlink:href="#linearGradient4121"
       id="linearGradient4128"
       gradientUnits="userSpaceOnUse"
       gradientTransform="matrix(0.27961814,0,0,-0.26116043,-25.742503,15.954055)"
       x1="36.246174"
       y1="2.9291136"
       x2="36.246174"
       y2="42.788223" />
    <linearGradient
       id="linearGradient4121">
      <stop
         offset="0"
         style="stop-color:#3f7010;stop-opacity:1;"
         id="stop4123" />
      <stop
         offset="1"
         style="stop-color:#84a718;stop-opacity:1"
         id="stop4125" />
    </linearGradient>
    <linearGradient
       y2="20.64884"
       x2="37.473785"
       y1="20.64884"
       x1="20.796995"
       gradientTransform="matrix(0,0.3060607,0.32769183,0,-25.243999,1.8249842)"
       gradientUnits="userSpaceOnUse"
       id="linearGradient3224-6"
       xlink:href="#linearGradient4087"
       inkscape:collect="always" />
    <linearGradient
       id="linearGradient4087">
      <stop
         id="stop4089"
         style="stop-color:#ffffff;stop-opacity:1;"
         offset="0" />
      <stop
         offset="0.51153916"
         style="stop-color:#ffffff;stop-opacity:0.23529412;"
         id="stop4091" />
      <stop
         id="stop4093"
         style="stop-color:#ffffff;stop-opacity:0.15686275;"
         offset="0.58522105" />
      <stop
         id="stop4095"
         style="stop-color:#ffffff;stop-opacity:0.39215687;"
         offset="1" />
    </linearGradient>
    <linearGradient
       inkscape:collect="always"
       xlink:href="#linearGradient3263-8"
       id="linearGradient3204"
       gradientUnits="userSpaceOnUse"
       gradientTransform="matrix(0,0.44357456,-0.44357456,0,18.246573,-2.6457913)"
       x1="12.2744"
       y1="32.4165"
       x2="35.391201"
       y2="14.2033" />
    <linearGradient
       gradientUnits="userSpaceOnUse"
       id="linearGradient3263-8"
       y2="14.2033"
       x2="35.391201"
       y1="32.4165"
       x1="12.2744">
      <stop
         offset="0"
         style="stop-color:#dedbde;stop-opacity:1"
         id="stop3265-9" />
      <stop
         offset="0.5"
         style="stop-color:#e6e6e6;stop-opacity:1"
         id="stop3267-2" />
      <stop
         offset="1"
         style="stop-color:#d2d2d2;stop-opacity:1"
         id="stop3269-8" />
    </linearGradient>
    <linearGradient
       inkscape:collect="always"
       xlink:href="#linearGradient3772-8"
       id="linearGradient3206"
       gradientUnits="userSpaceOnUse"
       gradientTransform="matrix(0.37865782,0,0,0.37865782,17.94547,-1.0877885)"
       x1="-21.915663"
       y1="3"
       x2="-21.915663"
       y2="45.032898" />
    <linearGradient
       id="linearGradient3772-8">
      <stop
         offset="0"
         style="stop-color:#b4b4b4;stop-opacity:1"
         id="stop3774-8" />
      <stop
         offset="1"
         style="stop-color:#969696;stop-opacity:1"
         id="stop3776-6" />
    </linearGradient>
    <linearGradient
       inkscape:collect="always"
       xlink:href="#linearGradient3487-8"
       id="linearGradient3208"
       gradientUnits="userSpaceOnUse"
       spreadMethod="reflect"
       x1="20.580074"
       y1="10.774516"
       x2="24.27351"
       y2="9.8622112" />
    <linearGradient
       id="linearGradient3487-8">
      <stop
         offset="0"
         style="stop-color:#e6cde2;stop-opacity:1"
         id="stop3489-3" />
      <stop
         offset="1"
         style="stop-color:#e6cde2;stop-opacity:0"
         id="stop3491-8" />
    </linearGradient>
    <linearGradient
       inkscape:collect="always"
       xlink:href="#linearGradient3495-3"
       id="linearGradient3210"
       gradientUnits="userSpaceOnUse"
       spreadMethod="reflect"
       x1="17.494959"
       y1="11.200086"
       x2="21.047453"
       y2="9.7956104" />
    <linearGradient
       id="linearGradient3495-3">
      <stop
         offset="0"
         style="stop-color:#c1cbe4;stop-opacity:1"
         id="stop3497-3" />
      <stop
         offset="1"
         style="stop-color:#c1cbe4;stop-opacity:0"
         id="stop3499-3" />
    </linearGradient>
    <linearGradient
       inkscape:collect="always"
       xlink:href="#linearGradient3503-8"
       id="linearGradient3212"
       gradientUnits="userSpaceOnUse"
       spreadMethod="reflect"
       x1="14.084608"
       y1="13.045606"
       x2="16.994024"
       y2="10.732353" />
    <linearGradient
       id="linearGradient3503-8">
      <stop
         offset="0"
         style="stop-color:#c4ebdd;stop-opacity:1"
         id="stop3505-0" />
      <stop
         offset="1"
         style="stop-color:#c4ebdd;stop-opacity:0"
         id="stop3507-4" />
    </linearGradient>
    <linearGradient
       inkscape:collect="always"
       xlink:href="#linearGradient3511-7"
       id="linearGradient3214"
       gradientUnits="userSpaceOnUse"
       spreadMethod="reflect"
       x1="12.371647"
       y1="16.188046"
       x2="14.609327"
       y2="13.461712" />
    <linearGradient
       id="linearGradient3511-7">
      <stop
         offset="0"
         style="stop-color:#ebeec7;stop-opacity:1"
         id="stop3513-6" />
      <stop
         offset="1"
         style="stop-color:#ebeec7;stop-opacity:0"
         id="stop3515-8" />
    </linearGradient>
    <linearGradient
       inkscape:collect="always"
       xlink:href="#linearGradient3519-9"
       id="linearGradient3216"
       gradientUnits="userSpaceOnUse"
       spreadMethod="reflect"
       x1="10.609375"
       y1="17.886322"
       x2="9.7297754"
       y2="20.612656" />
    <linearGradient
       id="linearGradient3519-9">
      <stop
         offset="0"
         style="stop-color:#fcd9cd;stop-opacity:1"
         id="stop3521-0" />
      <stop
         offset="1"
         style="stop-color:#fcd9cd;stop-opacity:0"
         id="stop3523-6" />
    </linearGradient>
    <linearGradient
       inkscape:collect="always"
       xlink:href="#linearGradient6036-8"
       id="linearGradient3218"
       gradientUnits="userSpaceOnUse"
       gradientTransform="matrix(0.30843437,0,0,0.30843437,0.49054727,0.28914309)"
       x1="10.50172"
       y1="3.6100161"
       x2="48.798885"
       y2="54.698483" />
    <linearGradient
       id="linearGradient6036-8">
      <stop
         offset="0"
         style="stop-color:#ffffff;stop-opacity:1"
         id="stop6038-7" />
      <stop
         offset="1"
         style="stop-color:#ffffff;stop-opacity:0"
         id="stop6040-9" />
    </linearGradient>
    <linearGradient
       inkscape:collect="always"
       xlink:href="#linearGradient3487-8"
       id="linearGradient3220"
       gradientUnits="userSpaceOnUse"
       spreadMethod="reflect"
       x1="20.580074"
       y1="10.774516"
       x2="24.27351"
       y2="9.8622112" />
    <linearGradient
       id="linearGradient3219">
      <stop
         offset="0"
         style="stop-color:#e6cde2;stop-opacity:1"
         id="stop3221" />
      <stop
         offset="1"
         style="stop-color:#e6cde2;stop-opacity:0"
         id="stop3223" />
    </linearGradient>
    <linearGradient
       inkscape:collect="always"
       xlink:href="#linearGradient3495-3"
       id="linearGradient3222"
       gradientUnits="userSpaceOnUse"
       spreadMethod="reflect"
       x1="17.494959"
       y1="11.200086"
       x2="21.047453"
       y2="9.7956104" />
    <linearGradient
       gradientUnits="userSpaceOnUse"
       y2="9.8042386"
       x2="17.147652"
       y1="9.8042386"
       x1="5.2467401"
       gradientTransform="scale(1.0735972,0.93144804)"
       id="linearGradient3226">
      <stop
         offset="0"
         style="stop-color:#c1cbe4;stop-opacity:1"
         id="stop3228" />
      <stop
         offset="1"
         style="stop-color:#c1cbe4;stop-opacity:0"
         id="stop3230" />
    </linearGradient>
    <linearGradient
       inkscape:collect="always"
       xlink:href="#linearGradient3503-8"
       id="linearGradient3224"
       gradientUnits="userSpaceOnUse"
       spreadMethod="reflect"
       x1="14.084608"
       y1="13.045606"
       x2="16.994024"
       y2="10.732353" />
    <linearGradient
       id="linearGradient3233">
      <stop
         offset="0"
         style="stop-color:#c4ebdd;stop-opacity:1"
         id="stop3235" />
      <stop
         offset="1"
         style="stop-color:#c4ebdd;stop-opacity:0"
         id="stop3237" />
    </linearGradient>
    <linearGradient
       inkscape:collect="always"
       xlink:href="#linearGradient3511-7"
       id="linearGradient3239"
       gradientUnits="userSpaceOnUse"
       spreadMethod="reflect"
       x1="12.371647"
       y1="16.188046"
       x2="14.609327"
       y2="13.461712" />
    <linearGradient
       id="linearGradient3241">
      <stop
         offset="0"
         style="stop-color:#ebeec7;stop-opacity:1"
         id="stop3243" />
      <stop
         offset="1"
         style="stop-color:#ebeec7;stop-opacity:0"
         id="stop3245" />
    </linearGradient>
    <linearGradient
       inkscape:collect="always"
       xlink:href="#linearGradient3519-9"
       id="linearGradient3228"
       gradientUnits="userSpaceOnUse"
       spreadMethod="reflect"
       x1="10.609375"
       y1="17.886322"
       x2="9.7297754"
       y2="20.612656" />
    <linearGradient
       id="linearGradient3248">
      <stop
         offset="0"
         style="stop-color:#fcd9cd;stop-opacity:1"
         id="stop3250" />
      <stop
         offset="1"
         style="stop-color:#fcd9cd;stop-opacity:0"
         id="stop3252" />
    </linearGradient>
  </defs>
  <path
     d="m 2.4999608,0.499961 c 3.8955799,0 7.6044552,0 11.5000382,0 0.683368,0.2372969 4.541325,3.12817 5.5,5.000039 0,5.729157 3.9e-5,10.270842 3.9e-5,16 l -17.0000772,0 c 0,-7.33336 0,-13.6666811 0,-21.000039 z"
     id="path4160"
     style="fill:url(#linearGradient2435);fill-opacity:1;stroke:url(#linearGradient2438);stroke-width:0.99992162;stroke-linecap:butt;stroke-linejoin:round;stroke-miterlimit:4;stroke-opacity:1;stroke-dasharray:none;stroke-dashoffset:0;display:inline" />
  <path
     d="M 3.1702119,22 C 3.0764249,22 2.9999991,21.91437 2.9999991,21.809277 l 0,-20.5980318 c 0,-0.1052785 0.076426,-0.1907219 0.1702128,-0.1907219 3.5214555,0.052717 7.4238521,-0.078858 10.9410271,0.013125 l 4.838887,4.3271368 0.04987,16.4484919 C 18.999999,21.914366 18.923742,22 18.829785,22 L 3.1702119,22 z"
     id="path4191"
     style="fill:url(#radialGradient2432);fill-opacity:1" />
  <path
     d="m 18.5,5.6770357 c 0,5.2083053 0,10.6146573 0,15.8229643 -5,0 -9.9999997,0 -15.0000009,0 0,-6.66667 0,-13.333334 0,-20.0000001 3.4372614,0 6.9564989,0 10.3937609,0"
     id="path2435"
     style="opacity:0.6;fill:none;stroke:url(#linearGradient2429);stroke-width:0.99999988;stroke-linecap:butt;stroke-linejoin:miter;stroke-miterlimit:4;stroke-opacity:1;stroke-dasharray:none;stroke-dashoffset:0;display:inline" />
  <path
     d="m 13.075473,1 c 1.156303,0.3287671 0.339059,4.6143789 0.339059,4.6143789 0,0 4.515388,-0.4277362 5.60771,1.1949961 C 20.511395,9.021632 18.954022,6.1742029 18.848795,5.9876778 18.092867,4.6476323 14.982455,1.4405918 13.803386,1.0464703 13.715154,1.0169778 13.51951,1 13.075473,1 z"
     id="path3370"
     style="opacity:0.2;fill:#000000;fill-opacity:1;fill-rule:evenodd;stroke:none;display:inline" />
  <path
     d="m 12.999999,1 c 1.526166,0 1,4 1,4 0,0 4.992074,-0.45326 4.992074,2 0,-0.5977419 0.05575,-1.4784338 -0.06407,-1.6559326 C 18.088896,4.1010616 15.184238,1.4821803 14.129934,1.0464703 14.043956,1.0109384 13.444036,1 12.999999,1 z"
     id="path4474"
     style="fill:url(#linearGradient2425);fill-opacity:1;fill-rule:evenodd;stroke:none;display:inline" />
  <g
     id="layer1-4"
     transform="matrix(0.91302177,0,0,0.91302177,6.9136999,6.9306577)">
    <path
       style="fill:url(#linearGradient3204);fill-rule:nonzero;stroke:url(#linearGradient3206);stroke-width:1.48484826;stroke-miterlimit:4;stroke-opacity:1"
       id="path2781"
       d="m 15.762486,7.9999999 c 0,-4.3026744 -3.459812,-7.76248602 -7.7624868,-7.76248602 -4.3026748,0 -7.7624859,3.45981202 -7.7624859,7.76248602 -8.3e-7,4.3026741 3.4598114,7.7624861 7.7624859,7.7624861 4.3026738,-1e-6 7.7624868,-3.459812 7.7624868,-7.7624861 z m -5.174991,0 c 0,1.3392298 -1.0286933,2.5874951 -2.5874958,2.5874951 -1.5588025,0 -2.5874948,-1.352234 -2.5874948,-2.5874951 0,-1.2699612 1.071213,-2.5874955 2.5874948,-2.5874955 1.5509596,0 2.5874958,1.2478159 2.5874958,2.5874955 z"
       inkscape:connector-curvature="0" />
    <g
       id="g3527"
       transform="matrix(0.3357395,0,0,0.3357395,-0.1714995,-0.3919651)">
      <path
         style="opacity:0.8;fill:url(#linearGradient3208);fill-opacity:1;fill-rule:nonzero;stroke:none"
         id="path3296"
         transform="matrix(0.9996011,0.02824295,-0.02824295,0.9996011,0.6924114,-0.6708346)"
         d="M 15.856928,5.7307748 20.625,16.34375 C 21.660403,15.885186 22.795334,15.625 24,15.625 c 0.03206,0 0.06178,-3.6e-4 0.09375,0 L 24.10801,4.0047512 c -2.94215,-0.070687 -5.543041,0.6572865 -8.251083,1.7260236 l 10e-7,0 z"
         inkscape:connector-curvature="0" />
      <path
         style="opacity:0.8;fill:url(#linearGradient3210);fill-opacity:1;fill-rule:nonzero;stroke:none"
         id="path3308"
         d="m 12.121471,7.9060109 6.931026,9.3601041 c 0.913109,-0.669755 1.965938,-1.167064 3.142629,-1.425169 0.03132,-0.0069 0.06026,-0.01359 0.09157,-0.02009 L 19.857174,4.426276 c -2.888973,0.5613244 -5.31953,1.8556038 -7.735703,3.4797349 l 0,0 z"
         inkscape:connector-curvature="0" />
      <path
         style="opacity:0.8;fill:url(#linearGradient3212);fill-opacity:1;fill-rule:nonzero;stroke:none"
         id="path3310"
         d="m 8.2523933,11.646535 9.2137237,7.155818 c 0.70865,-0.883264 1.596891,-1.636119 2.666685,-2.18998 0.02847,-0.01474 0.05469,-0.02872 0.08325,-0.0431 L 14.86585,6.2506132 C 12.220599,7.5405321 10.165881,9.452393 8.2523933,11.646535 z"
         inkscape:connector-curvature="0" />
      <path
         style="opacity:0.8;fill:url(#linearGradient3214);fill-opacity:1;fill-rule:nonzero;stroke:none"
         id="path3312"
         d="m 5.6328855,16.073974 c 7.1748065,2.242248 7.8502625,7.031463 12.7767855,1.754127 L 10.499985,9.1321388 C 8.2787249,11.062747 6.9132871,13.459349 5.6328855,16.073974 z"
         inkscape:connector-curvature="0" />
      <path
         style="opacity:0.8;fill:url(#linearGradient3216);fill-opacity:1;fill-rule:nonzero;stroke:none"
         id="path3314"
         d="M 7.155289,13.193173 C 5.9722117,14.945185 5.2475768,16.829547 4.6301929,18.837116 L 15.96875,21.8125 C 16.184264,21.049497 16.486796,20.297733 16.9375,19.59375 16.95479,19.56675 16.98246,19.52673 17,19.5 L 7.155289,13.193173 z"
         inkscape:connector-curvature="0" />
    </g>
    <path
       style="opacity:0.4;fill:none;stroke:url(#linearGradient3218);stroke-width:1.48484826;stroke-miterlimit:4;stroke-opacity:1"
       id="path3272"
       d="m 8.0000005,1.8937312 c -3.3846185,0 -6.1062707,2.7216524 -6.1062707,6.1062703 0,3.3846175 2.7216522,6.1062695 6.1062707,6.1062695 3.3846185,0 6.1062705,-2.721652 6.1062705,-6.1062695 0,-3.3846179 -2.721652,-6.1062703 -6.1062705,-6.1062703 l 0,0 0,0 z"
       inkscape:connector-curvature="0" />
    <g
       id="g3297"
       transform="matrix(-0.3507965,0,0,-0.3507965,16.408914,16.448702)">
      <path
         style="opacity:0.8;fill:url(#linearGradient3220);fill-opacity:1;fill-rule:nonzero;stroke:none"
         id="path3299"
         transform="matrix(0.9996011,0.02824295,-0.02824295,0.9996011,0.6924114,-0.6708346)"
         d="M 15.856928,5.7307748 20.625,16.34375 C 21.660403,15.885186 22.795334,15.625 24,15.625 c 0.03206,0 0.06178,-3.6e-4 0.09375,0 L 24.10801,4.0047512 c -2.94215,-0.070687 -5.543041,0.6572865 -8.251083,1.7260236 l 10e-7,0 z"
         inkscape:connector-curvature="0" />
      <path
         style="opacity:0.8;fill:url(#linearGradient3222);fill-opacity:1;fill-rule:nonzero;stroke:none"
         id="path3301"
         d="m 12.121471,7.9060109 6.931026,9.3601041 c 0.913109,-0.669755 1.965938,-1.167064 3.142629,-1.425169 0.03132,-0.0069 0.06026,-0.01359 0.09157,-0.02009 L 19.857174,4.426276 c -2.888973,0.5613244 -5.31953,1.8556038 -7.735703,3.4797349 l 0,0 z"
         inkscape:connector-curvature="0" />
      <path
         style="opacity:0.8;fill:url(#linearGradient3224);fill-opacity:1;fill-rule:nonzero;stroke:none"
         id="path3303"
         d="m 8.2523933,11.646535 9.2137237,7.155818 c 0.70865,-0.883264 1.596891,-1.636119 2.666685,-2.18998 0.02847,-0.01474 0.05469,-0.02872 0.08325,-0.0431 L 14.86585,6.2506132 C 12.220599,7.5405321 10.165881,9.452393 8.2523933,11.646535 z"
         inkscape:connector-curvature="0" />
      <path
         style="opacity:0.8;fill:url(#linearGradient3226);fill-opacity:1;fill-rule:nonzero;stroke:none"
         id="path3305"
         d="m 5.6328855,16.073974 c 7.1748065,2.242248 7.8502625,7.031463 12.7767855,1.754127 L 10.499985,9.1321388 C 8.2787249,11.062747 6.9132871,13.459349 5.6328855,16.073974 z"
         inkscape:connector-curvature="0" />
      <path
         style="opacity:0.8;fill:url(#linearGradient3228);fill-opacity:1;fill-rule:nonzero;stroke:none"
         id="path3307"
         d="M 7.155289,13.193173 C 5.9722117,14.945185 5.2475768,16.829547 4.6301929,18.837116 L 15.96875,21.8125 C 16.184264,21.049497 16.486796,20.297733 16.9375,19.59375 16.95479,19.56675 16.98246,19.52673 17,19.5 L 7.155289,13.193173 z"
         inkscape:connector-curvature="0" />
    </g>
  </g>
  <g
     id="g4118"
     transform="matrix(1.4649617,0,0,1.4649617,34.814268,-1.9713507)">
    <path
       sodipodi:type="arc"
       style="opacity:0.14117647;fill:url(#radialGradient4123);fill-opacity:1;fill-rule:evenodd;stroke:none;stroke-width:1;marker:none;visibility:visible;display:inline;overflow:visible"
       id="path3501"
       sodipodi:cx="24.837126"
       sodipodi:cy="36.421127"
       sodipodi:rx="15.644737"
       sodipodi:ry="8.3968935"
       d="m 40.481863,36.421127 c 0,4.637477 -7.004387,8.396894 -15.644737,8.396894 -8.64035,0 -15.6447375,-3.759417 -15.6447375,-8.396894 0,-4.637476 7.0043875,-8.396893 15.6447375,-8.396893 8.64035,0 15.644737,3.759417 15.644737,8.396893 z"
       transform="matrix(-0.25567703,0,0,-0.35727499,-13.411707,26.272983)" />
    <path
       sodipodi:nodetypes="cccccccc"
       id="path3503"
       d="m -21.461917,5.8497602 c -3.550424,2.40504 -1.417791,7.0180388 2.199927,7.0180388 l 0,1.910877 5,-3.571427 -5,-3.3394508 0,2 c -2.552377,0.09933 -3.668166,-2.339884 -1.843474,-4.018038 z"
       style="fill:url(#linearGradient4125);fill-opacity:1;fill-rule:nonzero;stroke:url(#linearGradient4128);stroke-width:0.96392483;stroke-linecap:butt;stroke-linejoin:round;stroke-miterlimit:7;stroke-opacity:1;stroke-dasharray:none;stroke-dashoffset:0;marker:none;visibility:visible;display:block;overflow:visible"
       inkscape:connector-curvature="0" />
    <path
       style="opacity:0.8;fill:none;stroke:url(#linearGradient3224-6);stroke-width:0.96392483;stroke-linecap:butt;stroke-linejoin:miter;stroke-miterlimit:7;stroke-opacity:1;stroke-dasharray:none;stroke-dashoffset:0;marker:none;visibility:visible;display:block;overflow:visible"
       d="m -22.143926,7.0938512 c -1.252468,1.470615 -0.124646,5.3104078 3.881936,4.7851698 l 0,0.988778 2.330149,-1.66055 -2.330149,-1.5093018 0,0.7916848 c -4.396795,0.235118 -4.256087,-2.8012878 -3.881936,-3.3957808 z"
       id="path3505"
       sodipodi:nodetypes="ccccccc"
       inkscape:connector-curvature="0" />
  </g>
</svg>
