<?xml version="1.0" encoding="UTF-8" standalone="no"?>
<!-- Created with Inkscape (http://www.inkscape.org/) -->

<svg
   xmlns:dc="http://purl.org/dc/elements/1.1/"
   xmlns:cc="http://creativecommons.org/ns#"
   xmlns:rdf="http://www.w3.org/1999/02/22-rdf-syntax-ns#"
   xmlns:svg="http://www.w3.org/2000/svg"
   xmlns="http://www.w3.org/2000/svg"
   xmlns:xlink="http://www.w3.org/1999/xlink"
   xmlns:sodipodi="http://sodipodi.sourceforge.net/DTD/sodipodi-0.dtd"
   xmlns:inkscape="http://www.inkscape.org/namespaces/inkscape"
   version="1.1"
   width="48"
   height="48"
   id="svg4031"
   inkscape:version="0.48.4 r9939"
   sodipodi:docname="aptdaemon-download.svg">
  <sodipodi:namedview
     pagecolor="#ffffff"
     bordercolor="#666666"
     borderopacity="1"
     objecttolerance="10"
     gridtolerance="10"
     guidetolerance="10"
     inkscape:pageopacity="0"
     inkscape:pageshadow="2"
     inkscape:window-width="1855"
     inkscape:window-height="1056"
     id="namedview30"
     showgrid="true"
     inkscape:zoom="19.25"
     inkscape:cx="15.480519"
     inkscape:cy="24"
     inkscape:window-x="65"
     inkscape:window-y="24"
     inkscape:window-maximized="1"
     inkscape:current-layer="layer1">
    <inkscape:grid
       type="xygrid"
       id="grid3026" />
  </sodipodi:namedview>
  <defs
     id="defs4033">
    <linearGradient
       x1="71.204407"
       y1="6.2375584"
       x2="71.204407"
       y2="44.340794"
       id="linearGradient3114"
       xlink:href="#linearGradient4011"
       gradientUnits="userSpaceOnUse"
       gradientTransform="matrix(1.054054,0,0,1.054054,-51.611001,-2.7279009)" />
    <linearGradient
       id="linearGradient4011">
      <stop
         id="stop4013"
         style="stop-color:#ffffff;stop-opacity:1"
         offset="0" />
      <stop
         id="stop4015"
         style="stop-color:#ffffff;stop-opacity:0.23529412"
         offset="0.507761" />
      <stop
         id="stop4017"
         style="stop-color:#ffffff;stop-opacity:0.15686275"
         offset="0.83456558" />
      <stop
         id="stop4019"
         style="stop-color:#ffffff;stop-opacity:0.39215687"
         offset="1" />
    </linearGradient>
    <radialGradient
       cx="3.9722471"
       cy="8.4497671"
       r="19.99999"
       fx="3.9722471"
       fy="8.4497671"
       id="radialGradient3117"
       xlink:href="#linearGradient2867-449-88-871-390-598-476-591-434-148-57-177-3-8"
       gradientUnits="userSpaceOnUse"
       gradientTransform="matrix(0,2.4988347,-2.6434689,-6.8014435e-8,46.336814,-12.180468)" />
    <linearGradient
       id="linearGradient2867-449-88-871-390-598-476-591-434-148-57-177-3-8">
      <stop
         id="stop3750-8-9"
         style="stop-color:#90dbec;stop-opacity:1"
         offset="0" />
      <stop
         id="stop3752-3-2"
         style="stop-color:#42baea;stop-opacity:1"
         offset="0.26238" />
      <stop
         id="stop3754-7-2"
         style="stop-color:#3689e6;stop-opacity:1"
         offset="0.704952" />
      <stop
         id="stop3756-9-3"
         style="stop-color:#2b63a0;stop-opacity:1"
         offset="1" />
    </linearGradient>
    <linearGradient
       id="linearGradient3820-7-2-1">
      <stop
         id="stop3822-2-6-3"
         style="stop-color:#3d3d3d;stop-opacity:1"
         offset="0" />
      <stop
         id="stop3864-8-7-7"
         style="stop-color:#686868;stop-opacity:0.49803922"
         offset="0.5" />
      <stop
         id="stop3824-1-2-5"
         style="stop-color:#686868;stop-opacity:0"
         offset="1" />
    </linearGradient>
    <radialGradient
       cx="99.157013"
       cy="186.17059"
       r="62.769119"
       fx="99.157013"
       fy="186.17059"
       id="radialGradient4029"
       xlink:href="#linearGradient3820-7-2-1"
       gradientUnits="userSpaceOnUse"
       gradientTransform="matrix(1,0,0,0.1666667,0,155.14216)" />
  </defs>
  <metadata
     id="metadata4036">
    <rdf:RDF>
      <cc:Work
         rdf:about="">
        <dc:format>image/svg+xml</dc:format>
        <dc:type
           rdf:resource="http://purl.org/dc/dcmitype/StillImage" />
        <dc:title></dc:title>
      </cc:Work>
    </rdf:RDF>
  </metadata>
  <g
     id="layer1">
    <path
       d="m 161.92613,186.17059 a 62.769119,10.461519 0 1 1 -125.538236,0 62.769119,10.461519 0 1 1 125.538236,0 z"
       inkscape:connector-curvature="0"
       transform="matrix(0.27083381,0,0,0.52573626,-2.855072,-56.376631)"
       id="path3818-0-5"
       style="fill:url(#radialGradient4029);fill-opacity:1;stroke:none" />
    <path
       d="M 24.000003,3.4999982 C 12.68881,3.4999982 3.4999996,12.688804 3.4999996,23.999998 3.4999996,35.311192 12.68881,44.500003 24.000003,44.5 35.311191,44.5 44.500011,35.311192 44.5,23.999998 44.5,12.688804 35.311191,3.4999982 24.000003,3.4999982 z"
       inkscape:connector-curvature="0"
       id="path2555"
       style="color:#000000;fill:url(#radialGradient3117);fill-opacity:1;fill-rule:nonzero;stroke:none;stroke-width:1;marker:none;visibility:visible;display:inline;overflow:visible;enable-background:accumulate" />
    <path
       d="m 43.5,23.999308 c 0,10.7699 -8.73109,19.50069 -19.499753,19.50069 -10.769649,0 -19.5002474,-8.730889 -19.5002474,-19.50069 0,-10.769402 8.7305984,-19.4993078 19.5002474,-19.4993078 C 34.76891,4.5000002 43.5,13.229906 43.5,23.999308 l 0,0 z"
       inkscape:connector-curvature="0"
       id="path8655"
       style="opacity:0.5;color:#000000;fill:none;stroke:url(#linearGradient3114);stroke-width:1;stroke-linecap:round;stroke-linejoin:round;stroke-miterlimit:4;stroke-opacity:1;stroke-dasharray:none;stroke-dashoffset:0;marker:none;visibility:visible;display:inline;overflow:visible;enable-background:accumulate" />
    <path
       d="m 24.000003,3.499998 c -11.311193,0 -20.5000034,9.188806 -20.5000034,20.5 0,11.311194 9.1888104,20.500005 20.5000034,20.500002 11.311188,0 20.500008,-9.188808 20.499997,-20.500002 0,-11.311194 -9.188809,-20.5 -20.499997,-20.5 z"
       inkscape:connector-curvature="0"
       id="path2555-6"
       style="opacity:0.5;color:#000000;fill:#000000;fill-opacity:0;fill-rule:nonzero;stroke:#00537d;stroke-width:1;stroke-linecap:round;stroke-linejoin:round;stroke-miterlimit:4;stroke-opacity:1;stroke-dasharray:none;stroke-dashoffset:0;marker:none;visibility:visible;display:inline;overflow:visible;enable-background:accumulate" />
    <g
       transform="matrix(0.39302071,0,0,0.39302071,-0.80461346,-0.6171032)"
       id="g3028"
       style="opacity:0.14655169;fill:#000000;fill-opacity:1">
      <path
         inkscape:connector-curvature="0"
         style="fill:#000000;fill-opacity:1;fill-rule:nonzero;stroke:none"
         d="M 85.66375,62.38375 C 84.67,51.097125 75.2,42.247125 63.6575,42.247125 c -3.325,0 -6.48,0.73975 -9.30625,2.055625 l -5.25625,-9.419 c 4.38875,-2.17275 9.3325,-3.400875 14.5625,-3.400875 3.04125,0 5.98375,0.422375 8.77875,1.193875 0.49375,3.0395 2.2975,5.839875 5.17375,7.5 2.87125,1.65525 6.19375,1.82125 9.07,0.734875 5.5925,5.5005 9.23375,12.981 9.7625,21.3135 L 85.66375,62.38375 z"
         id="path3030" />
      <path
         inkscape:connector-curvature="0"
         style="fill:#000000;fill-opacity:1;fill-rule:nonzero;stroke:none"
         d="M 86.68,87.774875 C 83.80375,86.6885 80.48375,86.852 77.61,88.50975 c -2.87625,1.662625 -4.68,4.4605 -5.17375,7.5 -2.795,0.774 -5.7375,1.19625 -8.77875,1.19625 -5.23,0 -10.17375,-1.228 -14.5625,-3.40325 l 5.25625,-9.419 c 2.82625,1.316 5.98125,2.05575 9.30625,2.05575 11.5425,0 21.0125,-8.84775 22.00375,-20.13675 l 10.78125,0.158625 c -0.52875,8.332625 -4.17,15.813 -9.7625,21.3135 z"
         id="path3032" />
      <path
         inkscape:connector-curvature="0"
         style="fill:#000000;fill-opacity:1;fill-rule:nonzero;stroke:none"
         d="m 86.7012,104.25688 c -3.6175,2.08975 -8.24125,0.84962 -10.32875,-2.76863 -2.09,-3.61575 -0.85,-8.23975 2.76875,-10.3295 3.615,-2.0875 8.24125,-0.84725 10.32875,2.7685 2.09,3.61813 0.85,8.24213 -2.76875,10.32963 z"
         id="path3034" />
      <path
         inkscape:connector-curvature="0"
         style="fill:#000000;fill-opacity:1;fill-rule:nonzero;stroke:none"
         d="m 31.83875,72.582 c 2.3875,-1.94825 3.91625,-4.9145 3.91625,-8.23775 0,-3.32525 -1.52875,-6.2915 -3.91625,-8.23975 2.04625,-7.9175 6.97,-14.67775 13.58875,-19.101625 l 5.53,9.26275 c -5.68125,3.999 -9.395,10.603 -9.395,18.078625 0,7.476 3.71375,14.080125 9.395,18.076625 L 45.4275,91.686 C 38.80625,87.26225 33.8825,80.502 31.83875,72.582 z"
         id="path3036" />
      <path
         inkscape:connector-curvature="0"
         style="fill:#000000;fill-opacity:1;fill-rule:nonzero;stroke:none"
         d="m 25.1325,71.90825 c -4.18,0 -7.56625,-3.38625 -7.56625,-7.564 0,-4.17975 3.38625,-7.565875 7.56625,-7.565875 4.17625,0 7.5625,3.386125 7.5625,7.565875 0,4.17775 -3.38625,7.564 -7.5625,7.564 z"
         id="path3038" />
      <path
         inkscape:connector-curvature="0"
         style="fill:#000000;fill-opacity:1;fill-rule:nonzero;stroke:none"
         d="m 76.37,27.19825 c 2.09,-3.618125 6.71375,-4.858375 10.33125,-2.771 3.61875,2.089875 4.85625,6.713875 2.76625,10.332 -2.0875,3.61825 -6.71125,4.856 -10.32875,2.766125 C 75.5225,35.438 74.2825,30.814 76.37,27.19825 z"
         id="path3040" />
    </g>
    <g
       id="g2830"
       transform="matrix(0.39302071,0,0,0.39302071,-0.80461346,-1.2173129)">
      <path
         id="path2828"
         d="M 85.66375,62.38375 C 84.67,51.097125 75.2,42.247125 63.6575,42.247125 c -3.325,0 -6.48,0.73975 -9.30625,2.055625 l -5.25625,-9.419 c 4.38875,-2.17275 9.3325,-3.400875 14.5625,-3.400875 3.04125,0 5.98375,0.422375 8.77875,1.193875 0.49375,3.0395 2.2975,5.839875 5.17375,7.5 2.87125,1.65525 6.19375,1.82125 9.07,0.734875 5.5925,5.5005 9.23375,12.981 9.7625,21.3135 L 85.66375,62.38375 z"
         style="fill:#ffffff;fill-opacity:1;fill-rule:nonzero;stroke:none"
         inkscape:connector-curvature="0" />
      <path
         id="path2826"
         d="M 86.68,87.774875 C 83.80375,86.6885 80.48375,86.852 77.61,88.50975 c -2.87625,1.662625 -4.68,4.4605 -5.17375,7.5 -2.795,0.774 -5.7375,1.19625 -8.77875,1.19625 -5.23,0 -10.17375,-1.228 -14.5625,-3.40325 l 5.25625,-9.419 c 2.82625,1.316 5.98125,2.05575 9.30625,2.05575 11.5425,0 21.0125,-8.84775 22.00375,-20.13675 l 10.78125,0.158625 c -0.52875,8.332625 -4.17,15.813 -9.7625,21.3135 z"
         style="fill:#ffffff;fill-opacity:1;fill-rule:nonzero;stroke:none"
         inkscape:connector-curvature="0" />
      <path
         id="path2824"
         d="m 86.7012,104.25688 c -3.6175,2.08975 -8.24125,0.84962 -10.32875,-2.76863 -2.09,-3.61575 -0.85,-8.23975 2.76875,-10.3295 3.615,-2.0875 8.24125,-0.84725 10.32875,2.7685 2.09,3.61813 0.85,8.24213 -2.76875,10.32963 z"
         style="fill:#ffffff;fill-opacity:1;fill-rule:nonzero;stroke:none"
         inkscape:connector-curvature="0" />
      <path
         id="path2822"
         d="m 31.83875,72.582 c 2.3875,-1.94825 3.91625,-4.9145 3.91625,-8.23775 0,-3.32525 -1.52875,-6.2915 -3.91625,-8.23975 2.04625,-7.9175 6.97,-14.67775 13.58875,-19.101625 l 5.53,9.26275 c -5.68125,3.999 -9.395,10.603 -9.395,18.078625 0,7.476 3.71375,14.080125 9.395,18.076625 L 45.4275,91.686 C 38.80625,87.26225 33.8825,80.502 31.83875,72.582 z"
         style="fill:#ffffff;fill-opacity:1;fill-rule:nonzero;stroke:none"
         inkscape:connector-curvature="0" />
      <path
         id="path2820"
         d="m 25.1325,71.90825 c -4.18,0 -7.56625,-3.38625 -7.56625,-7.564 0,-4.17975 3.38625,-7.565875 7.56625,-7.565875 4.17625,0 7.5625,3.386125 7.5625,7.565875 0,4.17775 -3.38625,7.564 -7.5625,7.564 z"
         style="fill:#ffffff;fill-opacity:1;fill-rule:nonzero;stroke:none"
         inkscape:connector-curvature="0" />
      <path
         id="path2818"
         d="m 76.37,27.19825 c 2.09,-3.618125 6.71375,-4.858375 10.33125,-2.771 3.61875,2.089875 4.85625,6.713875 2.76625,10.332 -2.0875,3.61825 -6.71125,4.856 -10.32875,2.766125 C 75.5225,35.438 74.2825,30.814 76.37,27.19825 z"
         style="fill:#ffffff;fill-opacity:1;fill-rule:nonzero;stroke:none"
         inkscape:connector-curvature="0" />
    </g>
  </g>
</svg>
