<?xml version="1.0" encoding="UTF-8" standalone="no"?>
<!-- Created with Inkscape (http://www.inkscape.org/) -->

<svg
   xmlns:dc="http://purl.org/dc/elements/1.1/"
   xmlns:cc="http://creativecommons.org/ns#"
   xmlns:rdf="http://www.w3.org/1999/02/22-rdf-syntax-ns#"
   xmlns:svg="http://www.w3.org/2000/svg"
   xmlns="http://www.w3.org/2000/svg"
   xmlns:xlink="http://www.w3.org/1999/xlink"
   xmlns:sodipodi="http://sodipodi.sourceforge.net/DTD/sodipodi-0.dtd"
   xmlns:inkscape="http://www.inkscape.org/namespaces/inkscape"
   width="64"
   height="64"
   id="svg3241"
   version="1.1"
   inkscape:version="0.48.4 r9939"
   sodipodi:docname="pidgin.svg">
  <defs
     id="defs3243">
    <linearGradient
       inkscape:collect="always"
       xlink:href="#linearGradient3882-4"
       id="linearGradient3892-8"
       x1="23.184526"
       y1="4.0244036"
       x2="23.184526"
       y2="42.351448"
       gradientUnits="userSpaceOnUse"
       gradientTransform="matrix(2.6666687,0,0,2.7991166,-0.8424704,-82.11987)" />
    <linearGradient
       id="linearGradient3882-4">
      <stop
         offset="0"
         style="stop-color:#ffffff;stop-opacity:1;"
         id="stop3884-7" />
      <stop
         id="stop3886-2"
         style="stop-color:#ffffff;stop-opacity:0.23529412;"
         offset="0.4393521" />
      <stop
         offset="0.83473867"
         style="stop-color:#ffffff;stop-opacity:0.15686275;"
         id="stop3888-4" />
      <stop
         offset="1"
         style="stop-color:#ffffff;stop-opacity:0.39215687;"
         id="stop3890-0" />
    </linearGradient>
    <linearGradient
       inkscape:collect="always"
       xlink:href="#linearGradient3922"
       id="linearGradient3939"
       gradientUnits="userSpaceOnUse"
       x1="22.642942"
       y1="26.966721"
       x2="22.642942"
       y2="30.98424"
       gradientTransform="matrix(1.5639514,0,0,1.5648804,-5.893063,-23.783134)" />
    <linearGradient
       inkscape:collect="always"
       id="linearGradient3922">
      <stop
         style="stop-color:#000000;stop-opacity:1;"
         offset="0"
         id="stop3924" />
      <stop
         style="stop-color:#000000;stop-opacity:0;"
         offset="1"
         id="stop3926" />
    </linearGradient>
    <linearGradient
       inkscape:collect="always"
       xlink:href="#linearGradient3922"
       id="linearGradient3180"
       gradientUnits="userSpaceOnUse"
       gradientTransform="matrix(2.6666687,0,0,2.6666687,-0.8424704,-79.157631)"
       x1="21.493771"
       y1="8.049592"
       x2="21.493771"
       y2="23.482838" />
    <linearGradient
       inkscape:collect="always"
       xlink:href="#linearGradient3707-319-631-407-324-3-8-1"
       id="linearGradient3900-6"
       x1="25.845604"
       y1="43.546593"
       x2="25.845604"
       y2="2.8090379"
       gradientUnits="userSpaceOnUse"
       gradientTransform="matrix(1.3459437,0,0,1.3096148,6.7202595,-16.542944)" />
    <linearGradient
       id="linearGradient3707-319-631-407-324-3-8-1">
      <stop
         id="stop3760-7-3-3"
         style="stop-color:#185f9a;stop-opacity:1;"
         offset="0" />
      <stop
         id="stop3762-8-4-2"
         style="stop-color:#599ec9;stop-opacity:1;"
         offset="1" />
    </linearGradient>
    <radialGradient
       inkscape:collect="always"
       xlink:href="#linearGradient3725-941-985"
       id="radialGradient3125"
       gradientUnits="userSpaceOnUse"
       gradientTransform="matrix(0.8727907,-0.60614934,0.32165836,0.46315389,-67.838943,65.212175)"
       cx="88.940742"
       cy="28.628538"
       fx="88.940742"
       fy="28.628538"
       r="23" />
    <linearGradient
       id="linearGradient3725-941-985">
      <stop
         id="stop4651"
         style="stop-color:#54e1fa;stop-opacity:1"
         offset="0" />
      <stop
         id="stop4653"
         style="stop-color:#05a4dd;stop-opacity:0"
         offset="1" />
    </linearGradient>
    <radialGradient
       inkscape:collect="always"
       xlink:href="#linearGradient2867-449-88-871-390-598-476-591-434-148-57-177-3-8"
       id="radialGradient2897"
       gradientUnits="userSpaceOnUse"
       gradientTransform="matrix(0,2.4024498,-2.0195836,0,40.325065,-62.675198)"
       cx="20.248743"
       cy="4.9115634"
       fx="20.248743"
       fy="4.9115634"
       r="23" />
    <linearGradient
       id="linearGradient2867-449-88-871-390-598-476-591-434-148-57-177-3-8">
      <stop
         id="stop3750-8-9"
         style="stop-color:#90dbec;stop-opacity:1;"
         offset="0" />
      <stop
         id="stop3752-3-2"
         style="stop-color:#55c1ec;stop-opacity:1;"
         offset="0.26238" />
      <stop
         id="stop3754-7-2"
         style="stop-color:#3689e6;stop-opacity:1;"
         offset="0.704952" />
      <stop
         id="stop3756-9-3"
         style="stop-color:#2b63a0;stop-opacity:1;"
         offset="1" />
    </linearGradient>
    <linearGradient
       inkscape:collect="always"
       xlink:href="#linearGradient3707-319-631-407-324-3-8"
       id="linearGradient2899"
       gradientUnits="userSpaceOnUse"
       x1="18.138792"
       y1="45.21809"
       x2="18.138792"
       y2="2.9999995"
       gradientTransform="matrix(1.357069,0,0,1.3570376,-0.6129689,-18.084238)" />
    <linearGradient
       id="linearGradient3707-319-631-407-324-3-8">
      <stop
         id="stop3760-7-3"
         style="stop-color:#185f9a;stop-opacity:1;"
         offset="0" />
      <stop
         id="stop3762-8-4"
         style="stop-color:#599ec9;stop-opacity:1;"
         offset="1" />
    </linearGradient>
    <linearGradient
       id="linearGradient8838-561-565">
      <stop
         id="stop4621"
         style="stop-color:#0a0a0a;stop-opacity:1"
         offset="0" />
      <stop
         id="stop4623"
         style="stop-color:#0a0a0a;stop-opacity:0"
         offset="1" />
    </linearGradient>
    <radialGradient
       r="10.625"
       fy="4.625"
       fx="62.625"
       cy="4.625"
       cx="62.625"
       gradientTransform="matrix(2.9135723,0,0,1.0134152,-150.50576,31.523822)"
       gradientUnits="userSpaceOnUse"
       id="radialGradient3239"
       xlink:href="#linearGradient8838-561-565"
       inkscape:collect="always" />
    <radialGradient
       cx="62.625"
       cy="4.625"
       r="10.625"
       fx="62.625"
       fy="4.625"
       id="radialGradient3765"
       xlink:href="#linearGradient8838"
       gradientUnits="userSpaceOnUse"
       gradientTransform="matrix(1.0925887,0,0,0.38003037,-56.523679,41.816955)" />
    <linearGradient
       id="linearGradient8838">
      <stop
         id="stop8840"
         style="stop-color:#000000;stop-opacity:1"
         offset="0" />
      <stop
         id="stop8842"
         style="stop-color:#000000;stop-opacity:0"
         offset="1" />
    </linearGradient>
    <radialGradient
       cx="20.248743"
       cy="4.9115634"
       r="23"
       fx="20.248743"
       fy="4.9115634"
       id="radialGradient2939"
       xlink:href="#linearGradient3793"
       gradientUnits="userSpaceOnUse"
       gradientTransform="matrix(0,0.8935529,-0.75113452,0,15.012105,6.8005609)" />
    <linearGradient
       id="linearGradient3671">
      <stop
         id="stop3673"
         style="stop-color:#e384c6;stop-opacity:1"
         offset="0" />
      <stop
         id="stop3675"
         style="stop-color:#c467be;stop-opacity:1"
         offset="0.26238" />
      <stop
         id="stop3677"
         style="stop-color:#93399a;stop-opacity:1"
         offset="0.704952" />
      <stop
         id="stop3679"
         style="stop-color:#48274f;stop-opacity:1"
         offset="1" />
    </linearGradient>
    <linearGradient
       x1="18.138792"
       y1="45.21809"
       x2="18.138792"
       y2="2.9999995"
       id="linearGradient2941"
       xlink:href="#linearGradient3707"
       gradientUnits="userSpaceOnUse"
       gradientTransform="matrix(0.50472849,0,0,0.50472849,-0.21379099,23.385458)" />
    <linearGradient
       id="linearGradient3707">
      <stop
         id="stop3709"
         style="stop-color:#4c2a4e;stop-opacity:1"
         offset="0" />
      <stop
         id="stop3711"
         style="stop-color:#a85394;stop-opacity:1"
         offset="1" />
    </linearGradient>
    <radialGradient
       cx="24.016491"
       cy="2.2461414"
       r="21.995602"
       fx="24.016491"
       fy="2.2461414"
       id="radialGradient2936"
       xlink:href="#linearGradient4593"
       gradientUnits="userSpaceOnUse"
       gradientTransform="matrix(0,0.71330431,-0.6192261,0,13.298886,8.7261127)" />
    <linearGradient
       id="linearGradient4593">
      <stop
         id="stop12409"
         style="stop-color:#ffffff;stop-opacity:0.70200002"
         offset="0" />
      <stop
         id="stop12411"
         style="stop-color:#ffffff;stop-opacity:0"
         offset="1" />
    </linearGradient>
    <radialGradient
       cx="90.746872"
       cy="32.164093"
       r="23"
       fx="90.746872"
       fy="32.164093"
       id="radialGradient2917"
       xlink:href="#linearGradient3718"
       gradientUnits="userSpaceOnUse"
       gradientTransform="matrix(0.32729625,-0.22730582,0.12062179,0.17368257,-25.12377,54.473017)" />
    <linearGradient
       id="linearGradient3718">
      <stop
         id="stop3720"
         style="stop-color:#f49ff4;stop-opacity:1"
         offset="0" />
      <stop
         id="stop3722"
         style="stop-color:#9c4694;stop-opacity:0"
         offset="1" />
    </linearGradient>
    <radialGradient
       r="23"
       fy="32.164093"
       fx="90.746872"
       cy="32.164093"
       cx="90.746872"
       gradientTransform="matrix(0.16519574,-0.11472772,0.06088125,0.08766254,-12.894474,50.879542)"
       gradientUnits="userSpaceOnUse"
       id="radialGradient3242"
       xlink:href="#linearGradient3718"
       inkscape:collect="always" />
    <radialGradient
       inkscape:collect="always"
       xlink:href="#linearGradient4593"
       id="radialGradient3838"
       gradientUnits="userSpaceOnUse"
       gradientTransform="matrix(0,0.71318911,-0.62953781,0,13.296015,8.6273955)"
       cx="24.016491"
       cy="2.2461414"
       fx="24.016491"
       fy="2.2461414"
       r="21.995602" />
    <radialGradient
       inkscape:collect="always"
       xlink:href="#linearGradient8838"
       id="radialGradient3842"
       gradientUnits="userSpaceOnUse"
       gradientTransform="matrix(1.0925887,0,0,0.38003037,-42.647887,41.353554)"
       cx="62.625"
       cy="4.625"
       fx="62.625"
       fy="4.625"
       r="10.625" />
    <linearGradient
       id="linearGradient6786-4">
      <stop
         id="stop6788-2"
         style="stop-color:#ffffff;stop-opacity:0.6484375;"
         offset="0" />
      <stop
         id="stop6790-0"
         style="stop-color:#ffffff;stop-opacity:0.23529412"
         offset="0.46352294" />
      <stop
         id="stop6792-0"
         style="stop-color:#ffffff;stop-opacity:0.15686275"
         offset="0.76175833" />
      <stop
         id="stop6794-4"
         style="stop-color:#ffffff;stop-opacity:0.39215687"
         offset="1" />
    </linearGradient>
    <linearGradient
       id="linearGradient3793">
      <stop
         style="stop-color:#a87dff;stop-opacity:1;"
         offset="0"
         id="stop3795" />
      <stop
         style="stop-color:#8049ae;stop-opacity:1;"
         offset="1"
         id="stop3797" />
    </linearGradient>
    <linearGradient
       id="linearGradient3104-8-8-97-9">
      <stop
         id="stop3106-5-4-3-6"
         style="stop-color:#693c71;stop-opacity:1;"
         offset="0" />
      <stop
         id="stop3108-4-3-7-0"
         style="stop-color:#734491;stop-opacity:1;"
         offset="1" />
    </linearGradient>
    <radialGradient
       inkscape:collect="always"
       xlink:href="#linearGradient8838-561-565-4"
       id="radialGradient3084"
       gradientUnits="userSpaceOnUse"
       gradientTransform="matrix(2.1333176,0,0,0.74202259,-109.59919,33.908101)"
       cx="62.625"
       cy="4.625"
       fx="62.625"
       fy="4.625"
       r="10.625" />
    <linearGradient
       id="linearGradient8838-561-565-4">
      <stop
         id="stop4621-8"
         style="stop-color:#0a0a0a;stop-opacity:1"
         offset="0" />
      <stop
         id="stop4623-3"
         style="stop-color:#0a0a0a;stop-opacity:0"
         offset="1" />
    </linearGradient>
  </defs>
  <sodipodi:namedview
     id="base"
     pagecolor="#ffffff"
     bordercolor="#666666"
     borderopacity="1.0"
     inkscape:pageopacity="0.0"
     inkscape:pageshadow="2"
     inkscape:zoom="14.4375"
     inkscape:cx="47.681047"
     inkscape:cy="32"
     inkscape:current-layer="layer1-5"
     showgrid="true"
     inkscape:grid-bbox="true"
     inkscape:document-units="px"
     inkscape:window-width="1855"
     inkscape:window-height="1056"
     inkscape:window-x="65"
     inkscape:window-y="24"
     inkscape:window-maximized="1" />
  <metadata
     id="metadata3246">
    <rdf:RDF>
      <cc:Work
         rdf:about="">
        <dc:format>image/svg+xml</dc:format>
        <dc:type
           rdf:resource="http://purl.org/dc/dcmitype/StillImage" />
        <dc:title />
      </cc:Work>
    </rdf:RDF>
  </metadata>
  <g
     id="layer1"
     inkscape:label="Layer 1"
     inkscape:groupmode="layer"
     transform="translate(0,16)">
    <path
       inkscape:connector-curvature="0"
       style="opacity:0.3;fill:url(#radialGradient3239);fill-opacity:1;fill-rule:evenodd;stroke:none;stroke-width:0.99999988;marker:none;visibility:visible;display:inline;overflow:visible"
       id="path8836"
       d="m 62.913414,36.210873 c 0,5.946754 -13.859793,10.767552 -30.956708,10.767552 C 14.859791,46.978425 1,42.157627 1,36.210873 c 0,-5.946754 13.859791,-10.76755 30.956706,-10.76755 17.096915,0 30.956708,4.820796 30.956708,10.76755 l 0,0 z" />
    <path
       transform="matrix(0.50472849,0,0,0.50472849,0.0792794,22.326237)"
       sodipodi:type="inkscape:offset"
       inkscape:radius="1.0854453"
       inkscape:original="M 71.25 -68.5625 C 67.369654 -68.784101 63.388318 -68.684351 59.3125 -68.3125 C 57.720808 -68.167283 56.23482 -68.115943 54.8125 -67.90625 C 39.679434 -65.675159 26.567738 -59.335265 17.5 -50.8125 C 8.4322626 -42.289736 3.4120997 -31.593577 4.40625 -20.5625 C 5.6936918 -6.2771118 16.768234 5.6142174 32.75 11.9375 A 1.2000395 1.2000395 0 0 1 33.5 13.34375 L 27.5 36.59375 L 54.90625 16.75 A 1.2000395 1.2000395 0 0 1 55.5625 16.59375 L 55.75 16.59375 A 1.2000395 1.2000395 0 0 1 55.8125 16.59375 C 59.487048 16.769377 63.202746 16.783927 67 16.4375 C 83.272564 14.952881 97.573928 8.771805 107.5 0.09375 C 117.42609 -8.584305 122.94934 -19.738425 121.90625 -31.3125 C 120.99362 -41.439041 115.18587 -50.308601 106.15625 -56.90625 C 97.126641 -63.503896 84.854473 -67.785566 71.25 -68.5625 z "
       style="fill:url(#radialGradient3125);fill-opacity:1;fill-rule:evenodd;stroke:none;stroke-width:0.99525028;marker:none;visibility:visible;display:inline;overflow:visible"
       id="path3123"
       d="m 71.3125,-69.65625 c -3.941052,-0.225068 -7.971731,-0.126066 -12.09375,0.25 -1.55387,0.141766 -3.057548,0.215625 -4.5625,0.4375 -15.337102,2.261172 -28.653766,8.678592 -37.90625,17.375 -9.2522962,8.696231 -14.4666017,19.706103 -13.4375,31.125 1.3325561,14.7859747 12.776104,26.9748029 29.03125,33.40625 l 0.40625,-1 0.375,-1.03125 c -0.01082,-0.004 0.197908,0.09872 0.1875,0.09375 -0.01041,-0.005 0.197414,0.09964 0.1875,0.09375 -0.0099,-0.0059 0.19684,0.131766 0.1875,0.125 -0.0093,-0.0068 0.164938,0.132585 0.15625,0.125 -0.0087,-0.0076 0.164214,0.164591 0.15625,0.15625 -0.008,-0.0083 0.132175,0.165279 0.125,0.15625 -0.0072,-0.009 0.131327,0.165892 0.125,0.15625 -0.0063,-0.0096 0.09918,0.197676 0.09375,0.1875 -0.0054,-0.01018 0.09823,0.198126 0.09375,0.1875 -0.0045,-0.01063 0.066,0.198489 0.0625,0.1875 -0.0035,-0.01099 0.06499,0.198761 0.0625,0.1875 -0.0025,-0.01126 0.03271,0.23019 0.03125,0.21875 -0.0015,-0.01144 0.03167,0.199025 0.03125,0.1875 -4.16e-4,-0.01153 -6.31e-4,0.230266 0,0.21875 2.77e-4,-0.0051 -0.02649,0.04659 -0.03125,0.09375 A 1.0855538,1.0855538 0 0 0 32.4375,13.0625 l -6,23.25 a 1.0855538,1.0855538 0 0 0 1.6875,1.15625 L 55.5,17.65625 a 1.0855538,1.0855538 0 0 0 0.03125,0 1.0855538,1.0855538 0 0 0 0.03125,0 l 0,0.03125 0.1875,0 c 3.706547,0.177156 7.479956,0.196247 11.34375,-0.15625 16.48673,-1.504158 31.002262,-7.7750061 41.125,-16.625 10.12285,-8.8500797 15.86068,-20.335176 14.78125,-32.3125 -0.9445,-10.480119 -6.99398,-19.634761 -16.21875,-26.375 -9.227257,-6.742061 -21.674739,-11.087242 -35.46875,-11.875 z M 55.46875,15.5 c 0.05208,0 0.15625,0.02083 0.15625,0.03125 a 1.0855538,1.0855538 0 0 0 -0.4375,0.1875 1.0855538,1.0855538 0 0 0 -0.75,0.0625 c 0.04628,-0.0242 0.07627,-0.06911 0.0625,-0.0625 -0.02459,0.0118 0.181622,-0.07252 0.15625,-0.0625 -0.02537,0.01002 0.182271,-0.03944 0.15625,-0.03125 -0.02602,0.0082 0.182788,-0.06882 0.15625,-0.0625 -0.02654,0.0063 0.18317,-0.03566 0.15625,-0.03125 -0.02692,0.0044 0.183416,-0.0025 0.15625,0 -0.02717,0.0025 0.214774,-0.0318 0.1875,-0.03125 z" />
    <path
       inkscape:connector-curvature="0"
       style="font-size:62.4582634px;font-style:normal;font-variant:normal;font-weight:normal;font-stretch:normal;text-align:start;line-height:125%;writing-mode:lr-tb;text-anchor:start;color:#000000;fill:url(#linearGradient3900-6);fill-opacity:1;fill-rule:nonzero;stroke:none;marker:none;visibility:visible;display:inline;overflow:visible;enable-background:accumulate;font-family:Georgia"
       id="path3393-7"
       d="m 30.846101,-7.5065583 c -1.424492,-0.209741 -2.886519,0.8987917 -2.925943,2.0753784 4.87e-4,0.014107 4.87e-4,0.02825 0,0.042362 -0.0075,0.095918 0.01902,0.2276143 0.04121,0.4235459 0.0022,0.019422 -0.0022,0.021592 0,0.042362 1.286787,6.2421438 1.725269,12.5065143 3.008365,18.636057 0.777931,-0.08547 1.986641,-0.249368 2.802312,-0.338837 C 33.59529,7.3255223 33.059826,1.3164172 32.989047,-4.7958458 c -4.88e-4,-0.014107 -4.88e-4,-0.02825 0,-0.042362 0.116339,-1.1901735 -0.663067,-2.5342362 -2.101735,-2.6683441 -0.01373,4.967e-4 -0.02749,4.967e-4 -0.04122,0 l 0,0 z m 2.678682,25.7092873 c -0.812215,-0.08597 -1.615389,0.135899 -2.142946,0.762384 4.89e-4,0.01411 4.89e-4,0.02825 0,0.04236 -0.566105,0.60471 -0.891376,1.474306 -0.782999,2.287153 4.88e-4,0.01411 4.88e-4,0.02824 0,0.04236 0.131241,1.76624 2.23212,2.933512 3.750155,2.202443 0.01373,-5.05e-4 0.02749,-5.05e-4 0.04121,0 1.478592,-0.574523 2.100624,-2.76032 1.153894,-4.108403 -0.01442,-0.01342 -0.02818,-0.02753 -0.04121,-0.04236 -0.434112,-0.702007 -1.172717,-1.100679 -1.978103,-1.185931 z" />
    <path
       inkscape:connector-curvature="0"
       style="font-size:62.4582634px;font-style:normal;font-variant:normal;font-weight:normal;font-stretch:normal;text-align:start;line-height:125%;writing-mode:lr-tb;text-anchor:start;fill:#ffffff;fill-opacity:1;stroke:none;font-family:Georgia"
       id="path3393"
       d="m 30.846101,-7.0018268 c -1.424492,-0.209741 -2.886519,0.8987917 -2.925943,2.0753784 4.87e-4,0.014107 4.87e-4,0.02825 0,0.042362 -0.0075,0.095918 0.01902,0.2276144 0.04121,0.4235459 0.0022,0.019422 -0.0022,0.021592 0,0.042362 1.286787,6.2421438 1.725269,12.5065143 3.008365,18.6360575 0.777931,-0.08547 1.986641,-0.249369 2.802311,-0.338837 -0.176756,-6.048788 -0.712219,-12.0578931 -0.782998,-18.1701561 -4.88e-4,-0.014107 -4.88e-4,-0.02825 0,-0.042362 0.116339,-1.1901735 -0.663067,-2.5342362 -2.101735,-2.6683441 -0.01373,4.967e-4 -0.02749,4.967e-4 -0.04122,0 l 0,0 z m 2.678682,25.7092878 c -0.812215,-0.08597 -1.615389,0.135898 -2.142946,0.762384 4.89e-4,0.01411 4.89e-4,0.02824 0,0.04236 -0.566105,0.604709 -0.891376,1.474306 -0.782999,2.287153 4.88e-4,0.01411 4.88e-4,0.02824 0,0.04236 0.131241,1.76624 2.23212,2.933512 3.750154,2.202444 0.01373,-5.05e-4 0.02749,-5.05e-4 0.04121,0 1.478593,-0.574524 2.100625,-2.760321 1.153895,-4.108404 -0.01443,-0.01342 -0.02819,-0.02753 -0.04121,-0.04236 -0.434112,-0.702007 -1.172717,-1.100679 -1.978103,-1.18593 z" />
    <path
       transform="matrix(0.50472849,0,0,0.50472849,0.0792794,22.326237)"
       sodipodi:type="inkscape:offset"
       inkscape:radius="0.61600173"
       inkscape:original="M 60.75 -56.8125 C 58.848313 -57.049654 56.179211 -55.797115 56.1875 -53.65625 C 57.451868 -47.069103 58.513892 -40.429748 59.4375 -33.78125 C 60.227954 -28.359491 61.047331 -22.930086 62.15625 -17.5625 C 63.877965 -17.773541 66.352204 -17.31663 65.5 -19.78125 C 65.043314 -31.124275 64.161952 -42.461807 64.03125 -53.8125 C 63.796693 -55.42523 62.424923 -56.81867 60.75 -56.8125 z "
       style="font-size:62.4582634px;font-style:normal;font-variant:normal;font-weight:normal;font-stretch:normal;text-align:start;line-height:125%;writing-mode:lr-tb;text-anchor:start;opacity:0.07000002;fill:#ffffff;fill-opacity:1;stroke:url(#linearGradient3180);stroke-width:0.99999994;stroke-opacity:1;font-family:Georgia"
       id="path3178"
       d="m 60.75,-57.4375 c -1.102357,-0.121912 -2.301942,0.165157 -3.3125,0.78125 -1.029172,0.627441 -1.880137,1.67311 -1.875,3 a 0.61606333,0.61606333 0 0 0 0.03125,0.125 c 1.261961,6.574607 2.296307,13.203636 3.21875,19.84375 0.790752,5.4238 1.636593,10.86069 2.75,16.25 a 0.61606333,0.61606333 0 0 0 0.65625,0.5 c 0.772201,-0.09465 1.835063,-0.03543 2.75,-0.3125 0.457468,-0.138533 0.925007,-0.395512 1.15625,-0.90625 0.212572,-0.4695 0.192567,-1.028892 0,-1.65625 -0.457304,-11.358371 -1.338361,-22.676466 -1.46875,-34 a 0.61606333,0.61606333 0 0 0 0,-0.09375 c -0.273563,-1.880918 -1.85646,-3.50407 -3.84375,-3.53125 -0.02146,-2.94e-4 -0.04094,-7.9e-5 -0.0625,0 z" />
    <path
       inkscape:connector-curvature="0"
       style="font-size:62.4582634px;font-style:normal;font-variant:normal;font-weight:normal;font-stretch:normal;text-align:start;line-height:125%;writing-mode:lr-tb;text-anchor:start;opacity:0.1;fill:#ffffff;fill-opacity:1;stroke:url(#linearGradient3939);stroke-width:0.5047285;stroke-opacity:1;font-family:Georgia"
       d="m 33.450091,19.006565 c -2.145321,-0.427267 -3.651877,2.627348 -2.147886,4.131069 1.083893,1.252774 3.45652,1.209503 4.129805,-0.442862 0.826556,-1.434767 -0.08747,-3.348978 -1.696163,-3.643979 l -0.285756,-0.04422 z"
       id="path3920" />
    <path
       sodipodi:type="inkscape:offset"
       inkscape:radius="-0.93855149"
       inkscape:original="M 71.4375 -70.53125 C 67.458397 -70.758486 63.348542 -70.692118 59.1875 -70.3125 C 57.627112 -70.170143 56.116797 -70.130789 54.59375 -69.90625 C 23.625231 -65.340622 0.6991879 -43.976996 2.78125 -20.875 C 4.1294746 -5.915513 15.611371 6.378526 32.03125 12.875 L 26.5 34.4375 C 26.5 34.4375 25.903179 36.44377 26.75 37.15625 C 27.596814 37.86874 29.65625 36.34375 29.65625 36.34375 L 55.5 17.65625 L 55.71875 17.625 C 59.460592 17.803849 63.224018 17.887146 67.125 17.53125 C 100.41333 14.494273 125.71573 -7.668103 123.53125 -31.90625 C 121.61987 -53.114638 99.29122 -68.940599 71.4375 -70.53125 z "
       style="opacity:0.4;color:#000000;fill:none;stroke:url(#linearGradient3892-8);stroke-width:0.99650294;stroke-linecap:butt;stroke-linejoin:miter;stroke-miterlimit:4;stroke-opacity:1;stroke-dasharray:none;stroke-dashoffset:0;marker:none;visibility:visible;display:inline;overflow:visible;enable-background:accumulate"
       id="path3078"
       d="m 71.375,-69.59375 c -3.931991,-0.224546 -7.978536,-0.156687 -12.09375,0.21875 -1.599372,0.145914 -3.11237,0.192461 -4.5625,0.40625 -15.308351,2.25688 -28.599322,8.664208 -37.78125,17.3125 C 7.7555715,-43.007958 2.7076839,-32.187265 3.71875,-20.96875 5.0283408,-6.437932 16.192603,5.5974849 32.375,12 a 0.93864534,0.93864534 0 0 1 0.5625,1.09375 l -5.53125,21.5625 a 0.93864534,0.93864534 0 0 1 0,0.0625 c 0,0 -0.121567,0.402481 -0.15625,0.875 -0.03468,0.472519 0.08554,0.836841 0.09375,0.84375 -0.05791,-0.04872 -0.06699,-0.0092 0.09375,-0.03125 0.160745,-0.02203 0.428992,-0.128313 0.6875,-0.25 0.517016,-0.243374 0.96875,-0.5625 0.96875,-0.5625 L 54.9375,16.90625 a 0.93864534,0.93864534 0 0 1 0.4375,-0.1875 l 0.21875,-0.03125 a 0.93864534,0.93864534 0 0 1 0.15625,0 c 3.725747,0.17808 7.447854,0.25598 11.28125,-0.09375 C 83.491129,15.092074 97.956753,8.8632232 108,0.0625 c 10.04325,-8.8007232 15.65462,-20.104045 14.59375,-31.875 -0.92824,-10.299577 -6.80528,-19.318437 -15.9375,-26 C 97.524034,-64.494063 85.139223,-68.807712 71.375,-69.59375 z"
       transform="matrix(0.50419642,0,0,0.50399165,0.1135353,22.306323)" />
    <g
       transform="matrix(2.6605868,0,0,2.6904406,0.44999585,-81.098403)"
       id="layer1-5">
      <path
         inkscape:connector-curvature="0"
         d="m 10.290961,25.29502 c -5.8134523,0.857085 -10.11505461,4.862533 -9.72420709,9.199372 0.2530906,2.80828 2.40852929,5.119735 5.49089129,6.33929 l -1.2866205,5.013393 5.6919153,-4.116524 0.03935,-0.0036 c 0.702424,0.03357 1.408106,0.0447 2.140404,-0.02211 6.248932,-0.570119 10.999991,-4.728236 10.589919,-9.27836 -0.41007,-4.550125 -5.827008,-7.780576 -12.07594,-7.210463 -0.292918,0.02672 -0.579801,0.03683 -0.86571,0.07898 z"
         id="path6145-6"
         style="fill:url(#radialGradient2939);fill-opacity:1.0;fill-rule:evenodd;stroke:none;stroke-width:0.37376582000000003;stroke-linecap:butt;stroke-linejoin:round;stroke-miterlimit:4;stroke-opacity:1;stroke-dasharray:none;stroke-dashoffset:0;marker:none;visibility:visible;display:inline;overflow:visible" />
      <path
         inkscape:connector-curvature="0"
         d="m 10.382687,25.687665 c -5.2487802,0.751799 -9.87684526,4.097865 -9.51180102,8.628586 0.24518862,3.04314 2.65925472,5.108163 5.65281942,6.068156 l -1.0058925,4.06629 4.6990691,-3.322525 c 0.633845,0.02709 1.609069,0.07539 2.27013,0.01608 4.998368,-0.44848 10.82355,-4.099443 10.404984,-8.638734 -0.44598,-4.807294 -6.267791,-7.377865 -11.727812,-6.887965 -0.264423,0.02373 -0.52336,0.03315 -0.781497,0.07012 z"
         id="path6179"
         style="opacity:0.4;fill:none;stroke:url(#radialGradient3838);stroke-width:0.3768346;stroke-linecap:butt;stroke-linejoin:miter;stroke-miterlimit:4;stroke-opacity:1;stroke-dasharray:none;stroke-dashoffset:0;marker:none;visibility:visible;display:inline;overflow:visible" />
      <path
         style="fill:none;fill-opacity:1;fill-rule:evenodd;stroke:#4c2a4e;stroke-width:0.37376582000000003;stroke-linecap:butt;stroke-linejoin:round;stroke-miterlimit:4;stroke-opacity:1;stroke-dasharray:none;stroke-dashoffset:0;marker:none;visibility:visible;display:inline;overflow:visible;opacity:0.6"
         id="path3840"
         d="m 10.290961,25.29502 c -5.8134523,0.857085 -10.11505461,4.862533 -9.72420709,9.199372 0.2530906,2.80828 2.40852929,5.119735 5.49089129,6.33929 l -1.2866205,5.013393 5.6919153,-4.116524 0.03935,-0.0036 c 0.702424,0.03357 1.408106,0.0447 2.140404,-0.02211 6.248932,-0.570119 10.999991,-4.728236 10.589919,-9.27836 -0.41007,-4.550125 -5.827008,-7.780576 -12.07594,-7.210463 -0.292918,0.02672 -0.579801,0.03683 -0.86571,0.07898 z"
         inkscape:connector-curvature="0" />
      <g
         transform="matrix(0.06244625,0,0,0.06175332,-14.983202,12.151847)"
         id="g3126"
         style="fill:#ffffff;fill-opacity:1;stroke:#7b5692;stroke-width:8.0912466;stroke-miterlimit:4;stroke-opacity:1;stroke-dasharray:none">
        <path
           sodipodi:nodetypes="ccccccccc"
           id="path7227"
           d="m 532.65062,316.29295 0,47.09275 13.42193,0 -0.49711,-32.96492 11.43349,-0.52326 c 12.10894,7.98786 6.62695,21.02558 4.97109,32.96493 l 9.94217,0 c 4.68831,-17.56871 12.15115,-35.74583 -13.91904,-46.5695 l -25.35253,0 z"
           style="fill:#ffffff;fill-opacity:1;fill-rule:evenodd;stroke:#7b5692;stroke-width:8.0912466;stroke-miterlimit:4;stroke-opacity:1;stroke-dasharray:none"
           inkscape:connector-curvature="0" />
        <path
           id="path7223"
           d="m 516.9975,316.29295 0,47.09275 -14.91326,0 0,-47.09275 14.91326,0 z"
           style="fill:#ffffff;fill-opacity:1;fill-rule:evenodd;stroke:#7b5692;stroke-width:8.0912466;stroke-miterlimit:4;stroke-opacity:1;stroke-dasharray:none"
           inkscape:connector-curvature="0" />
        <path
           sodipodi:nodetypes="ccccc"
           id="path7219"
           d="m 390.87565,294.68557 9.80205,-9.94181 c 45.62543,37.66601 33.00101,77.81279 6.19078,79.01117 -29.84439,0.17441 -35.59833,-39.94162 -2.0636,-46.5695 -2.29239,-7.64555 -8.27828,-15.77265 -13.92923,-22.49986 z"
           style="fill:#ffffff;fill-opacity:1;fill-rule:evenodd;stroke:#7b5692;stroke-width:8.0912466;stroke-miterlimit:4;stroke-opacity:1;stroke-dasharray:none"
           inkscape:connector-curvature="0" />
        <path
           sodipodi:nodetypes="ccccc"
           id="path7211"
           d="m 317.07146,362.40826 c 1.31438,7.23638 7.16749,16.30379 13.92427,22.89078 l -10.31427,10.68235 c -59.79612,-56.23347 -14.98823,-81.18916 -6.18856,-79.61356 39.98222,3.42397 24.02224,51.97206 2.57856,46.04043 z"
           style="fill:#ffffff;fill-opacity:1;fill-rule:evenodd;stroke:#7b5692;stroke-width:8.0912466;stroke-miterlimit:4;stroke-opacity:1;stroke-dasharray:none"
           inkscape:connector-curvature="0" />
        <path
           id="path7213"
           d="m 367.88815,316.73919 0,47.09275 -15.3595,0 0,-47.09275 15.3595,0 z"
           style="fill:#ffffff;fill-opacity:1;fill-rule:evenodd;stroke:#7b5692;stroke-width:8.0912466;stroke-miterlimit:4;stroke-opacity:1;stroke-dasharray:none"
           inkscape:connector-curvature="0" />
        <path
           transform="matrix(1.3967099,0,0,1.4701662,129.27602,271.43822)"
           d="m 170.83871,21.664516 c 0,2.751923 -2.39022,4.982796 -5.33871,4.982796 -2.94849,0 -5.33871,-2.230873 -5.33871,-4.982796 0,-2.751922 2.39022,-4.982795 5.33871,-4.982795 2.94849,0 5.33871,2.230873 5.33871,4.982795 z"
           sodipodi:ry="4.9827957"
           sodipodi:rx="5.3387098"
           sodipodi:cy="21.664516"
           sodipodi:cx="165.5"
           id="path7215"
           style="fill:#ffffff;fill-opacity:1;fill-rule:nonzero;stroke:#7b5692;stroke-width:5.64649725;stroke-miterlimit:4;stroke-opacity:1;stroke-dasharray:none"
           sodipodi:type="arc" />
        <path
           sodipodi:nodetypes="ccccc"
           id="path7221"
           d="m 460.39332,392.68784 -10.84084,-9.94179 c 5.38246,-6.75355 12.97956,-12.62533 15.72317,-22.05362 -32.2791,-3.87883 -34.51721,-40.05007 -1.26872,-47.01574 41.07712,4.51141 27.25338,56.56648 -3.61361,79.01115 z"
           style="fill:#ffffff;fill-opacity:1;fill-rule:evenodd;stroke:#7b5692;stroke-width:8.0912466;stroke-miterlimit:4;stroke-opacity:1;stroke-dasharray:none"
           inkscape:connector-curvature="0" />
        <path
           transform="matrix(1.3967099,0,0,1.4701662,278.8316,271.43822)"
           d="m 170.83871,21.664516 c 0,2.751923 -2.39022,4.982796 -5.33871,4.982796 -2.94849,0 -5.33871,-2.230873 -5.33871,-4.982796 0,-2.751922 2.39022,-4.982795 5.33871,-4.982795 2.94849,0 5.33871,2.230873 5.33871,4.982795 z"
           sodipodi:ry="4.9827957"
           sodipodi:rx="5.3387098"
           sodipodi:cy="21.664516"
           sodipodi:cx="165.5"
           id="path7225"
           style="fill:#ffffff;fill-opacity:1;fill-rule:nonzero;stroke:#7b5692;stroke-width:5.64649725;stroke-miterlimit:4;stroke-opacity:1;stroke-dasharray:none"
           sodipodi:type="arc" />
      </g>
      <g
         style="fill:#ffffff;fill-opacity:1;stroke:none"
         id="g3886"
         transform="matrix(0.06244625,0,0,0.06175332,-14.983202,12.151847)">
        <path
           inkscape:connector-curvature="0"
           style="fill:#ffffff;fill-opacity:1;fill-rule:evenodd;stroke:none"
           d="m 532.65062,316.29295 0,47.09275 13.42193,0 -0.49711,-32.96492 11.43349,-0.52326 c 12.10894,7.98786 6.62695,21.02558 4.97109,32.96493 l 9.94217,0 c 4.68831,-17.56871 12.15115,-35.74583 -13.91904,-46.5695 l -25.35253,0 z"
           id="path3888"
           sodipodi:nodetypes="ccccccccc" />
        <path
           inkscape:connector-curvature="0"
           style="fill:#ffffff;fill-opacity:1;fill-rule:evenodd;stroke:none"
           d="m 516.9975,316.29295 0,47.09275 -14.91326,0 0,-47.09275 14.91326,0 z"
           id="path3890" />
        <path
           inkscape:connector-curvature="0"
           style="fill:#ffffff;fill-opacity:1;fill-rule:evenodd;stroke:none"
           d="m 390.87565,294.68557 9.80205,-9.94181 c 45.62543,37.66601 33.00101,77.81279 6.19078,79.01117 -29.84439,0.17441 -35.59833,-39.94162 -2.0636,-46.5695 -2.29239,-7.64555 -8.27828,-15.77265 -13.92923,-22.49986 z"
           id="path3892"
           sodipodi:nodetypes="ccccc" />
        <path
           inkscape:connector-curvature="0"
           style="fill:#ffffff;fill-opacity:1;fill-rule:evenodd;stroke:none"
           d="m 317.07146,362.40826 c 1.31438,7.23638 7.16749,16.30379 13.92427,22.89078 l -10.31427,10.68235 c -59.79612,-56.23347 -14.98823,-81.18916 -6.18856,-79.61356 39.98222,3.42397 24.02224,51.97206 2.57856,46.04043 z"
           id="path3894"
           sodipodi:nodetypes="ccccc" />
        <path
           inkscape:connector-curvature="0"
           style="fill:#ffffff;fill-opacity:1;fill-rule:evenodd;stroke:none"
           d="m 367.88815,316.73919 0,47.09275 -15.3595,0 0,-47.09275 15.3595,0 z"
           id="path3896" />
        <path
           sodipodi:type="arc"
           style="fill:#ffffff;fill-opacity:1;fill-rule:nonzero;stroke:none"
           id="path3898"
           sodipodi:cx="165.5"
           sodipodi:cy="21.664516"
           sodipodi:rx="5.3387098"
           sodipodi:ry="4.9827957"
           d="m 170.83871,21.664516 c 0,2.751923 -2.39022,4.982796 -5.33871,4.982796 -2.94849,0 -5.33871,-2.230873 -5.33871,-4.982796 0,-2.751922 2.39022,-4.982795 5.33871,-4.982795 2.94849,0 5.33871,2.230873 5.33871,4.982795 z"
           transform="matrix(1.3967099,0,0,1.4701662,129.27602,271.43822)" />
        <path
           inkscape:connector-curvature="0"
           style="fill:#ffffff;fill-opacity:1;fill-rule:evenodd;stroke:none"
           d="m 460.39332,392.68784 -10.84084,-9.94179 c 5.38246,-6.75355 12.97956,-12.62533 15.72317,-22.05362 -32.2791,-3.87883 -34.51721,-40.05007 -1.26872,-47.01574 41.07712,4.51141 27.25338,56.56648 -3.61361,79.01115 z"
           id="path3900"
           sodipodi:nodetypes="ccccc" />
        <path
           sodipodi:type="arc"
           style="fill:#ffffff;fill-opacity:1;fill-rule:nonzero;stroke:none"
           id="path3902"
           sodipodi:cx="165.5"
           sodipodi:cy="21.664516"
           sodipodi:rx="5.3387098"
           sodipodi:ry="4.9827957"
           d="m 170.83871,21.664516 c 0,2.751923 -2.39022,4.982796 -5.33871,4.982796 -2.94849,0 -5.33871,-2.230873 -5.33871,-4.982796 0,-2.751922 2.39022,-4.982795 5.33871,-4.982795 2.94849,0 5.33871,2.230873 5.33871,4.982795 z"
           transform="matrix(1.3967099,0,0,1.4701662,278.8316,271.43822)" />
      </g>
    </g>
  </g>
</svg>
