<?xml version="1.0" encoding="UTF-8" standalone="no"?>
<svg
   xmlns:dc="http://purl.org/dc/elements/1.1/"
   xmlns:cc="http://creativecommons.org/ns#"
   xmlns:rdf="http://www.w3.org/1999/02/22-rdf-syntax-ns#"
   xmlns:svg="http://www.w3.org/2000/svg"
   xmlns="http://www.w3.org/2000/svg"
   xmlns:sodipodi="http://sodipodi.sourceforge.net/DTD/sodipodi-0.dtd"
   xmlns:inkscape="http://www.inkscape.org/namespaces/inkscape"
   height="24"
   id="svg7384"
   version="1.1"
   width="24"
   inkscape:version="0.91 r"
   sodipodi:docname="folder-recent.svg">
  <sodipodi:namedview
     pagecolor="#ffffff"
     bordercolor="#666666"
     borderopacity="1"
     objecttolerance="10"
     gridtolerance="10"
     guidetolerance="10"
     inkscape:pageopacity="0"
     inkscape:pageshadow="2"
     inkscape:window-width="1489"
     inkscape:window-height="807"
     id="namedview11387"
     showgrid="false"
     inkscape:zoom="27.791667"
     inkscape:cx="12"
     inkscape:cy="12"
     inkscape:current-layer="svg7384"
     inkscape:window-x="75"
     inkscape:window-y="34"
     inkscape:window-maximized="0" />
  <metadata
     id="metadata90">
    <rdf:RDF>
      <cc:Work
         rdf:about="">
        <dc:format>image/svg+xml</dc:format>
        <dc:type
           rdf:resource="http://purl.org/dc/dcmitype/StillImage" />
        <dc:title>elementary Symbolic Icon Theme</dc:title>
      </cc:Work>
    </rdf:RDF>
  </metadata>
  <title
     id="title9167">elementary Symbolic Icon Theme</title>
  <defs
     id="defs7386">
    <filter
       id="filter7554"
       style="color-interpolation-filters:sRGB">
      <feBlend
         id="feBlend7556"
         in2="BackgroundImage"
         mode="darken" />
    </filter>
  </defs>
  <g
     id="layer9"
     style="display:inline"
     transform="matrix(1.25,0,0,1.25,-889.25051,707.25)" />
  <g
     id="layer10"
     style="display:inline"
     transform="matrix(1.25,0,0,1.25,-889.25051,707.25)" />
  <g
     id="layer11"
     transform="matrix(1.25,0,0,1.25,-889.25051,707.25)" />
  <g
     id="layer13"
     style="display:inline;fill:#353945;fill-opacity:1"
     transform="matrix(1.25,0,0,1.25,-889.25051,707.25)">
    <path
       d="m 721.8852,-563 c -3.70511,0 -6.75428,2.43996 -7.08756,6 l -1.79723,0 2.65438,3.33334 2.65437,-3.33334 -1.73271,0 c 0.32781,-2.5955 2.58321,-4.26086 5.30875,-4.26086 2.95078,0 5.34562,2.35686 5.34562,5.26086 0,2.904 -2.39484,5.26087 -5.34562,5.26087 -1.60094,0 -3.03846,-0.69497 -4.01843,-1.79347 l -1.29954,1.18478 c 1.30362,1.4424 3.20325,2.34782 5.31797,2.34782 3.9276,0 7.11521,-3.136 7.11521,-7 0,-3.864 -3.18762,-7 -7.11521,-7 z"
       id="path2504-1"
       style="color:#bebebe;display:inline;overflow:visible;visibility:visible;fill:#353945;fill-opacity:1;fill-rule:nonzero;stroke:none;stroke-width:2.81263018;marker:none;enable-background:accumulate"
       inkscape:connector-curvature="0" />
    <path
       d="m 722.33374,-560.33333 -0.66667,0 -0.66666,4.66667 3.33333,2.66666 0,-0.66666 -2,-2.66667 0,-4 z"
       id="path3288-4"
       style="color:#bebebe;display:inline;overflow:visible;visibility:visible;fill:#353945;fill-opacity:1;fill-rule:nonzero;stroke:none;stroke-width:2.81263018;marker:none;enable-background:accumulate"
       inkscape:connector-curvature="0" />
  </g>
  <g
     id="layer14"
     transform="matrix(1.25,0,0,1.25,-889.25051,707.25)" />
  <g
     id="layer15"
     style="display:inline"
     transform="matrix(1.25,0,0,1.25,-889.25051,707.25)" />
  <g
     id="g71291"
     style="display:inline"
     transform="matrix(1.25,0,0,1.25,-889.25051,707.25)" />
  <g
     id="g4953"
     style="display:inline"
     transform="matrix(1.25,0,0,1.25,-889.25051,707.25)" />
  <g
     id="layer12"
     style="display:inline"
     transform="matrix(1.25,0,0,1.25,-889.25051,707.25)" />
</svg>
