<?xml version="1.0" encoding="UTF-8" standalone="no"?>
<!-- Generator: Adobe Illustrator 16.0.0, SVG Export Plug-In . SVG Version: 6.00 Build 0)  -->

<svg
   xmlns:dc="http://purl.org/dc/elements/1.1/"
   xmlns:cc="http://creativecommons.org/ns#"
   xmlns:rdf="http://www.w3.org/1999/02/22-rdf-syntax-ns#"
   xmlns:svg="http://www.w3.org/2000/svg"
   xmlns="http://www.w3.org/2000/svg"
   xmlns:sodipodi="http://sodipodi.sourceforge.net/DTD/sodipodi-0.dtd"
   xmlns:inkscape="http://www.inkscape.org/namespaces/inkscape"
   version="1.1"
   id="Capa_1"
   x="0px"
   y="0px"
   width="24"
   height="24"
   viewBox="0 0 24 24.000002"
   xml:space="preserve"
   inkscape:version="0.91 r"
   sodipodi:docname="folder-saved-search.svg"><metadata
     id="metadata45"><rdf:RDF><cc:Work
         rdf:about=""><dc:format>image/svg+xml</dc:format><dc:type
           rdf:resource="http://purl.org/dc/dcmitype/StillImage" /><dc:title></dc:title></cc:Work></rdf:RDF></metadata><defs
     id="defs43" /><sodipodi:namedview
     pagecolor="#ffffff"
     bordercolor="#666666"
     borderopacity="1"
     objecttolerance="10"
     gridtolerance="10"
     guidetolerance="10"
     inkscape:pageopacity="0"
     inkscape:pageshadow="2"
     inkscape:window-width="1509"
     inkscape:window-height="894"
     id="namedview41"
     showgrid="false"
     inkscape:zoom="31.416667"
     inkscape:cx="12"
     inkscape:cy="12"
     inkscape:window-x="213"
     inkscape:window-y="45"
     inkscape:window-maximized="0"
     inkscape:current-layer="g5" /><g
     id="g3"
     transform="matrix(0.0306055,0,0,0.0306055,1.0810601e-4,8.0020499)"><g
       id="g5"
       style="fill:#3b3b3b;fill-opacity:1"><path
         d="m 706.22268,373.2172 -94.19124,-93.99998 c -8.98874,-8.9875 -21.22874,-13.19625 -33.08624,-12.6225 l -45.32749,-45.32624 c 77.16873,-102.03124 69.32874,-247.956216 -23.62,-340.9987 -101.64748,-101.64873 -266.59996,-101.64873 -368.24869,0.19125 -101.841233,101.839983 -101.841233,266.60246 -0.19125,368.25119 93.04373,93.04374 238.96746,100.78874 340.99869,23.62 l 45.32625,45.32749 c -0.57375,11.85625 3.63375,24.09625 12.6225,33.08625 l 93.99998,93.99873 c 16.83,16.83 44.27374,16.83 61.10374,0 l 10.42375,-10.42375 c 17.02,-16.82999 17.02,-44.08249 0.19,-61.10374 z M 453.67647,192.38973 c -70.57124,70.57124 -185.22497,70.76249 -255.79621,0.19125 -70.57124,-70.57124 -70.57124,-185.033721 0.19125,-255.79746 70.57124,-70.57124 185.22622,-70.76249 255.79746,-0.19125 70.57124,70.571239 70.28374,185.03497 -0.1925,255.79746 z"
         id="path7"
         inkscape:connector-curvature="0"
         style="fill:#353945;fill-opacity:1" /></g></g><g
     id="g11"
     transform="matrix(0.0306055,0,0,0.0306055,1.0810601e-4,8.0020499)" /><g
     id="g13"
     transform="matrix(0.0306055,0,0,0.0306055,1.0810601e-4,8.0020499)" /><g
     id="g15"
     transform="matrix(0.0306055,0,0,0.0306055,1.0810601e-4,8.0020499)" /><g
     id="g17"
     transform="matrix(0.0306055,0,0,0.0306055,1.0810601e-4,8.0020499)" /><g
     id="g19"
     transform="matrix(0.0306055,0,0,0.0306055,1.0810601e-4,8.0020499)" /><g
     id="g21"
     transform="matrix(0.0306055,0,0,0.0306055,1.0810601e-4,8.0020499)" /><g
     id="g23"
     transform="matrix(0.0306055,0,0,0.0306055,1.0810601e-4,8.0020499)" /><g
     id="g25"
     transform="matrix(0.0306055,0,0,0.0306055,1.0810601e-4,8.0020499)" /><g
     id="g27"
     transform="matrix(0.0306055,0,0,0.0306055,1.0810601e-4,8.0020499)" /><g
     id="g29"
     transform="matrix(0.0306055,0,0,0.0306055,1.0810601e-4,8.0020499)" /><g
     id="g31"
     transform="matrix(0.0306055,0,0,0.0306055,1.0810601e-4,8.0020499)" /><g
     id="g33"
     transform="matrix(0.0306055,0,0,0.0306055,1.0810601e-4,8.0020499)" /><g
     id="g35"
     transform="matrix(0.0306055,0,0,0.0306055,1.0810601e-4,8.0020499)" /><g
     id="g37"
     transform="matrix(0.0306055,0,0,0.0306055,1.0810601e-4,8.0020499)" /><g
     id="g39"
     transform="matrix(0.0306055,0,0,0.0306055,1.0810601e-4,8.0020499)" /></svg>