<?xml version="1.0" encoding="UTF-8" standalone="no"?>
<svg
   xmlns:dc="http://purl.org/dc/elements/1.1/"
   xmlns:cc="http://creativecommons.org/ns#"
   xmlns:rdf="http://www.w3.org/1999/02/22-rdf-syntax-ns#"
   xmlns:svg="http://www.w3.org/2000/svg"
   xmlns="http://www.w3.org/2000/svg"
   xmlns:sodipodi="http://sodipodi.sourceforge.net/DTD/sodipodi-0.dtd"
   xmlns:inkscape="http://www.inkscape.org/namespaces/inkscape"
   height="24"
   id="svg7384"
   version="1.1"
   width="24"
   inkscape:version="0.91 r"
   sodipodi:docname="folder-remote.svg">
  <sodipodi:namedview
     pagecolor="#ffffff"
     bordercolor="#666666"
     borderopacity="1"
     objecttolerance="10"
     gridtolerance="10"
     guidetolerance="10"
     inkscape:pageopacity="0"
     inkscape:pageshadow="2"
     inkscape:window-width="1855"
     inkscape:window-height="1056"
     id="namedview10264"
     showgrid="false"
     inkscape:zoom="38.166667"
     inkscape:cx="12"
     inkscape:cy="12"
     inkscape:current-layer="svg7384"
     inkscape:window-x="65"
     inkscape:window-y="24"
     inkscape:window-maximized="1" />
  <metadata
     id="metadata90">
    <rdf:RDF>
      <cc:Work
         rdf:about="">
        <dc:format>image/svg+xml</dc:format>
        <dc:type
           rdf:resource="http://purl.org/dc/dcmitype/StillImage" />
        <dc:title>elementary Symbolic Icon Theme</dc:title>
      </cc:Work>
    </rdf:RDF>
  </metadata>
  <title
     id="title9167">elementary Symbolic Icon Theme</title>
  <defs
     id="defs7386">
    <filter
       id="filter7554"
       style="color-interpolation-filters:sRGB">
      <feBlend
         id="feBlend7556"
         in2="BackgroundImage"
         mode="darken" />
    </filter>
  </defs>
  <g
     id="layer9"
     style="display:inline"
     transform="matrix(1.3333333,0,0,1.3333333,-949.33358,805.44733)" />
  <g
     id="layer10"
     style="display:inline"
     transform="matrix(1.3333333,0,0,1.3333333,-949.33358,805.44733)" />
  <g
     id="layer11"
     transform="matrix(1.3333333,0,0,1.3333333,-949.33358,805.44733)" />
  <g
     id="layer13"
     style="display:inline;fill:#353945;fill-opacity:1"
     transform="matrix(1.3333333,0,0,1.3333333,-949.33358,805.44733)">
    <path
       d="m 721.0002,-593 c -0.88378,0 -1.75827,0.46314 -2.11847,0.86083 l 2.11847,2.30366 2.13904,-2.2831 C 722.77904,-592.53686 721.88399,-593 721.0002,-593 Z m 0,-4 c -1.84788,0 -3.50412,0.73648 -4.86493,1.86115 l 1.32453,1.41372 c 0.90637,-0.64917 2.31682,-1.27487 3.48693,-1.27487 1.19841,0 2.67602,0.63983 3.59526,1.31807 l 1.36463,-1.47766 C 724.54581,-596.28426 722.84809,-597 721.0002,-597 Z m 0,-4 c -2.85342,0 -5.46832,1.09634 -7.5,2.92278 l 1.29592,1.45936 c 1.81172,-1.58845 3.71766,-2.38214 6.20408,-2.38214 2.48643,0 4.33439,0.7475 6.23286,2.41428 l 1.26714,-1.4915 c -2.03168,-1.82644 -4.64657,-2.92278 -7.5,-2.92278 z"
       id="path4112-19-69-3"
       style="color:#bebebe;display:inline;overflow:visible;visibility:visible;opacity:0.9;fill:#353945;fill-opacity:1;fill-rule:nonzero;stroke:none;stroke-width:1;marker:none;enable-background:accumulate"
       inkscape:connector-curvature="0" />
  </g>
  <g
     id="layer14"
     transform="matrix(1.3333333,0,0,1.3333333,-949.33358,805.44733)" />
  <g
     id="layer15"
     style="display:inline"
     transform="matrix(1.3333333,0,0,1.3333333,-949.33358,805.44733)" />
  <g
     id="g71291"
     style="display:inline"
     transform="matrix(1.3333333,0,0,1.3333333,-949.33358,805.44733)" />
  <g
     id="g4953"
     style="display:inline"
     transform="matrix(1.3333333,0,0,1.3333333,-949.33358,805.44733)" />
  <g
     id="layer12"
     style="display:inline"
     transform="matrix(1.3333333,0,0,1.3333333,-949.33358,805.44733)" />
</svg>
