<?xml version="1.0" encoding="UTF-8" standalone="no"?>
<svg
   xmlns:dc="http://purl.org/dc/elements/1.1/"
   xmlns:cc="http://creativecommons.org/ns#"
   xmlns:rdf="http://www.w3.org/1999/02/22-rdf-syntax-ns#"
   xmlns:svg="http://www.w3.org/2000/svg"
   xmlns="http://www.w3.org/2000/svg"
   xmlns:sodipodi="http://sodipodi.sourceforge.net/DTD/sodipodi-0.dtd"
   xmlns:inkscape="http://www.inkscape.org/namespaces/inkscape"
   height="24"
   id="svg7384"
   version="1.1"
   width="24"
   inkscape:version="0.91 r"
   sodipodi:docname="folder-publicshare.svg">
  <sodipodi:namedview
     pagecolor="#ffffff"
     bordercolor="#666666"
     borderopacity="1"
     objecttolerance="10"
     gridtolerance="10"
     guidetolerance="10"
     inkscape:pageopacity="0"
     inkscape:pageshadow="2"
     inkscape:window-width="1454"
     inkscape:window-height="972"
     id="namedview13064"
     showgrid="false"
     inkscape:zoom="50.1875"
     inkscape:cx="4.2640119"
     inkscape:cy="8"
     inkscape:current-layer="svg7384"
     inkscape:window-x="75"
     inkscape:window-y="34"
     inkscape:window-maximized="0" />
  <metadata
     id="metadata90">
    <rdf:RDF>
      <cc:Work
         rdf:about="">
        <dc:format>image/svg+xml</dc:format>
        <dc:type
           rdf:resource="http://purl.org/dc/dcmitype/StillImage" />
        <dc:title>elementary Symbolic Icon Theme</dc:title>
      </cc:Work>
    </rdf:RDF>
  </metadata>
  <title
     id="title9167">elementary Symbolic Icon Theme</title>
  <defs
     id="defs7386">
    <filter
       id="filter7554"
       style="color-interpolation-filters:sRGB">
      <feBlend
         id="feBlend7556"
         in2="BackgroundImage"
         mode="darken" />
    </filter>
  </defs>
  <g
     id="layer9"
     style="display:inline"
     transform="matrix(1.254902,0,0,1.254902,-1044.6687,733.60787)" />
  <g
     id="layer10"
     style="display:inline"
     transform="matrix(1.254902,0,0,1.254902,-1044.6687,733.60787)" />
  <g
     id="layer11"
     transform="matrix(1.254902,0,0,1.254902,-1044.6687,733.60787)" />
  <g
     id="layer13"
     style="display:inline;fill:#353945;fill-opacity:1"
     transform="matrix(1.254902,0,0,1.254902,-1044.6687,733.60787)">
    <g
       id="g24872-6-2-3"
       transform="translate(486.87223,-1546.1781)"
       style="fill:#353945;fill-opacity:1" />
    <path
       d="m 840.00161,-575.0606 a 2.96875,2.96875 0 0 1 -5.9375,0 2.96875,2.96875 0 1 1 5.9375,0 z"
       id="path24876-5-1-7"
       style="color:#000000;display:inline;overflow:visible;visibility:visible;fill:#353945;fill-opacity:1;fill-rule:nonzero;stroke:none;stroke-width:0.99999994;marker:none;enable-background:new"
       inkscape:connector-curvature="0" />
    <path
       d="m 849.00043,-570.03125 a 2.96875,2.96875 0 0 1 -5.9375,0 2.96875,2.96875 0 1 1 5.9375,0 z"
       id="path18806-6"
       style="color:#000000;display:inline;overflow:visible;visibility:visible;fill:#353945;fill-opacity:1;fill-rule:nonzero;stroke:none;stroke-width:0.99999994;marker:none;enable-background:new"
       inkscape:connector-curvature="0" />
    <path
       d="m 849.00043,-580.03125 a 2.96875,2.96875 0 0 1 -5.9375,0 2.96875,2.96875 0 1 1 5.9375,0 z"
       id="path18808-4"
       style="color:#000000;display:inline;overflow:visible;visibility:visible;fill:#353945;fill-opacity:1;fill-rule:nonzero;stroke:none;stroke-width:0.99999994;marker:none;enable-background:new"
       inkscape:connector-curvature="0" />
    <path
       d="m 845.62641,-580.84185 -9.03125,4.90625 -1.59375,0.875 1.5625,0.875 9.0625,5.0625 0.96875,-1.75 -7.46875,-4.1875 7.46875,-4 -0.96875,-1.78125 z"
       id="path18810-4"
       style="color:#000000;font-style:normal;font-variant:normal;font-weight:normal;font-stretch:normal;font-size:medium;line-height:normal;font-family:Sans;-inkscape-font-specification:Sans;text-indent:0;text-align:start;text-decoration:none;text-decoration-line:none;letter-spacing:normal;word-spacing:normal;text-transform:none;direction:ltr;block-progression:tb;writing-mode:lr-tb;baseline-shift:baseline;text-anchor:start;display:inline;overflow:visible;visibility:visible;fill:#353945;fill-opacity:1;stroke:none;stroke-width:2;marker:none;enable-background:accumulate"
       inkscape:connector-curvature="0" />
  </g>
  <g
     id="layer14"
     transform="matrix(1.254902,0,0,1.254902,-1044.6687,733.60787)" />
  <g
     id="layer15"
     style="display:inline"
     transform="matrix(1.254902,0,0,1.254902,-1044.6687,733.60787)" />
  <g
     id="g71291"
     style="display:inline"
     transform="matrix(1.254902,0,0,1.254902,-1044.6687,733.60787)" />
  <g
     id="g4953"
     style="display:inline"
     transform="matrix(1.254902,0,0,1.254902,-1044.6687,733.60787)" />
  <g
     id="layer12"
     style="display:inline"
     transform="matrix(1.254902,0,0,1.254902,-1044.6687,733.60787)" />
</svg>
