<?xml version="1.0" encoding="UTF-8" standalone="no"?>
<svg
   xmlns:dc="http://purl.org/dc/elements/1.1/"
   xmlns:cc="http://creativecommons.org/ns#"
   xmlns:rdf="http://www.w3.org/1999/02/22-rdf-syntax-ns#"
   xmlns:svg="http://www.w3.org/2000/svg"
   xmlns="http://www.w3.org/2000/svg"
   xmlns:sodipodi="http://sodipodi.sourceforge.net/DTD/sodipodi-0.dtd"
   xmlns:inkscape="http://www.inkscape.org/namespaces/inkscape"
   height="24"
   id="svg7384"
   version="1.1"
   width="24"
   inkscape:version="0.91 r"
   sodipodi:docname="folder-download.svg">
  <sodipodi:namedview
     pagecolor="#ffffff"
     bordercolor="#666666"
     borderopacity="1"
     objecttolerance="10"
     gridtolerance="10"
     guidetolerance="10"
     inkscape:pageopacity="0"
     inkscape:pageshadow="2"
     inkscape:window-width="1472"
     inkscape:window-height="895"
     id="namedview8590"
     showgrid="false"
     inkscape:zoom="31.458333"
     inkscape:cx="12"
     inkscape:cy="12"
     inkscape:current-layer="svg7384"
     inkscape:window-x="65"
     inkscape:window-y="24"
     inkscape:window-maximized="0" />
  <metadata
     id="metadata90">
    <rdf:RDF>
      <cc:Work
         rdf:about="">
        <dc:format>image/svg+xml</dc:format>
        <dc:type
           rdf:resource="http://purl.org/dc/dcmitype/StillImage" />
        <dc:title>elementary Symbolic Icon Theme</dc:title>
      </cc:Work>
    </rdf:RDF>
  </metadata>
  <title
     id="title9167">elementary Symbolic Icon Theme</title>
  <defs
     id="defs7386">
    <filter
       id="filter7554"
       style="color-interpolation-filters:sRGB">
      <feBlend
         id="feBlend7556"
         in2="BackgroundImage"
         mode="darken" />
    </filter>
  </defs>
  <g
     id="layer9"
     style="display:inline"
     transform="matrix(1.25,0,0,1.25,-939.25054,732)" />
  <g
     id="layer10"
     style="display:inline"
     transform="matrix(1.25,0,0,1.25,-939.25054,732)" />
  <g
     id="layer11"
     transform="matrix(1.25,0,0,1.25,-939.25054,732)" />
  <g
     id="layer13"
     style="display:inline;fill:#353945;fill-opacity:1"
     transform="matrix(1.25,0,0,1.25,-939.25054,732)">
    <path
       d="m 761.00043,-584 c -4.41828,0 -8,3.58172 -8,8 0,4.41828 3.58172,8 8,8 4.41828,0 8,-3.58172 8,-8 0,-4.41828 -3.58172,-8 -8,-8 z m 0,2 c 3.31371,0 6,2.68629 6,6 0,3.31371 -2.68629,6 -6,6 -3.31371,0 -6,-2.68629 -6,-6 0,-3.31371 2.68629,-6 6,-6 z"
       id="path2991"
       style="color:#bebebe;display:inline;overflow:visible;visibility:visible;fill:#353945;fill-opacity:1;fill-rule:nonzero;stroke:none;stroke-width:1;marker:none;enable-background:accumulate"
       inkscape:connector-curvature="0" />
    <path
       d="m 760.00043,-580 0,4 -3,0 4,4 4,-4 -3,0 0,-4 z"
       id="rect3005"
       style="color:#bebebe;display:inline;overflow:visible;visibility:visible;fill:#353945;fill-opacity:1;fill-rule:nonzero;stroke:none;stroke-width:1;marker:none;enable-background:accumulate"
       inkscape:connector-curvature="0" />
  </g>
  <g
     id="layer14"
     transform="matrix(1.25,0,0,1.25,-939.25054,732)" />
  <g
     id="layer15"
     style="display:inline"
     transform="matrix(1.25,0,0,1.25,-939.25054,732)" />
  <g
     id="g71291"
     style="display:inline"
     transform="matrix(1.25,0,0,1.25,-939.25054,732)" />
  <g
     id="g4953"
     style="display:inline"
     transform="matrix(1.25,0,0,1.25,-939.25054,732)" />
  <g
     id="layer12"
     style="display:inline"
     transform="matrix(1.25,0,0,1.25,-939.25054,732)" />
</svg>
