<?xml version="1.0" encoding="UTF-8" standalone="no"?>
<svg
   xmlns:dc="http://purl.org/dc/elements/1.1/"
   xmlns:cc="http://creativecommons.org/ns#"
   xmlns:rdf="http://www.w3.org/1999/02/22-rdf-syntax-ns#"
   xmlns:svg="http://www.w3.org/2000/svg"
   xmlns="http://www.w3.org/2000/svg"
   xmlns:sodipodi="http://sodipodi.sourceforge.net/DTD/sodipodi-0.dtd"
   xmlns:inkscape="http://www.inkscape.org/namespaces/inkscape"
   height="24"
   id="svg7384"
   version="1.1"
   width="24"
   inkscape:version="0.91 r"
   sodipodi:docname="folder-music.svg">
  <sodipodi:namedview
     pagecolor="#ffffff"
     bordercolor="#666666"
     borderopacity="1"
     objecttolerance="10"
     gridtolerance="10"
     guidetolerance="10"
     inkscape:pageopacity="0"
     inkscape:pageshadow="2"
     inkscape:window-width="1729"
     inkscape:window-height="1014"
     id="namedview9706"
     showgrid="false"
     inkscape:zoom="36.416667"
     inkscape:cx="12"
     inkscape:cy="12"
     inkscape:current-layer="svg7384"
     inkscape:window-x="75"
     inkscape:window-y="34"
     inkscape:window-maximized="0" />
  <metadata
     id="metadata90">
    <rdf:RDF>
      <cc:Work
         rdf:about="">
        <dc:format>image/svg+xml</dc:format>
        <dc:type
           rdf:resource="http://purl.org/dc/dcmitype/StillImage" />
        <dc:title>elementary Symbolic Icon Theme</dc:title>
      </cc:Work>
    </rdf:RDF>
  </metadata>
  <title
     id="title9167">elementary Symbolic Icon Theme</title>
  <defs
     id="defs7386">
    <filter
       id="filter7554"
       style="color-interpolation-filters:sRGB">
      <feBlend
         id="feBlend7556"
         in2="BackgroundImage"
         mode="darken" />
    </filter>
  </defs>
  <g
     id="layer9"
     style="display:inline"
     transform="matrix(1.2493587,0,0,1.2493587,-888.04236,731.62548)" />
  <g
     id="layer10"
     style="display:inline"
     transform="matrix(1.2493587,0,0,1.2493587,-888.04236,731.62548)" />
  <g
     id="layer11"
     transform="matrix(1.2493587,0,0,1.2493587,-888.04236,731.62548)" />
  <g
     id="layer13"
     style="display:inline;fill:#353945;fill-opacity:1"
     transform="matrix(1.2493587,0,0,1.2493587,-888.04236,731.62548)">
    <path
       d="m 726.36939,-584 -7.375,1.90625 c -0.554,0.14844 -1,0.73896 -1,1.3125 l 0,9.09375 c -0.56177,-0.29416 -1.28326,-0.4131 -2.03125,-0.21875 -1.34976,0.35071 -2.19558,1.48415 -1.90625,2.53125 0.28933,1.0471 1.61899,1.63196 2.96875,1.28125 1.07683,-0.2798 1.81912,-1.07145 1.9375,-1.90625 l 0.0312,-8.59375 7,-1.875 0,6.78125 c -0.56177,-0.29416 -1.28326,-0.4131 -2.03125,-0.21875 -1.34976,0.35071 -2.19558,1.48415 -1.90625,2.53125 0.28933,1.0471 1.61899,1.63196 2.96875,1.28125 1.07683,-0.2798 1.81912,-1.07145 1.9375,-1.90625 l 0.0312,-11.1875 c 0,-0.43016 -0.26584,-0.75199 -0.625,-0.8125 z"
       id="rect2996-2"
       style="color:#bebebe;display:inline;overflow:visible;visibility:visible;fill:#353945;fill-opacity:1;fill-rule:nonzero;stroke:none;stroke-width:1;marker:none;enable-background:accumulate"
       inkscape:connector-curvature="0" />
  </g>
  <g
     id="layer14"
     transform="matrix(1.2493587,0,0,1.2493587,-888.04236,731.62548)" />
  <g
     id="layer15"
     style="display:inline"
     transform="matrix(1.2493587,0,0,1.2493587,-888.04236,731.62548)" />
  <g
     id="g71291"
     style="display:inline"
     transform="matrix(1.2493587,0,0,1.2493587,-888.04236,731.62548)" />
  <g
     id="g4953"
     style="display:inline"
     transform="matrix(1.2493587,0,0,1.2493587,-888.04236,731.62548)" />
  <g
     id="layer12"
     style="display:inline"
     transform="matrix(1.2493587,0,0,1.2493587,-888.04236,731.62548)" />
</svg>
