<?xml version="1.0" encoding="UTF-8" standalone="no"?>
<svg
   xmlns:dc="http://purl.org/dc/elements/1.1/"
   xmlns:cc="http://creativecommons.org/ns#"
   xmlns:rdf="http://www.w3.org/1999/02/22-rdf-syntax-ns#"
   xmlns:svg="http://www.w3.org/2000/svg"
   xmlns="http://www.w3.org/2000/svg"
   xmlns:sodipodi="http://sodipodi.sourceforge.net/DTD/sodipodi-0.dtd"
   xmlns:inkscape="http://www.inkscape.org/namespaces/inkscape"
   height="24"
   id="svg7384"
   version="1.1"
   width="24"
   inkscape:version="0.91 r"
   sodipodi:docname="folder-videos.svg">
  <sodipodi:namedview
     pagecolor="#ffffff"
     bordercolor="#666666"
     borderopacity="1"
     objecttolerance="10"
     gridtolerance="10"
     guidetolerance="10"
     inkscape:pageopacity="0"
     inkscape:pageshadow="2"
     inkscape:window-width="1569"
     inkscape:window-height="983"
     id="namedview11941"
     showgrid="false"
     inkscape:zoom="35.125"
     inkscape:cx="12"
     inkscape:cy="12"
     inkscape:current-layer="svg7384"
     inkscape:window-x="75"
     inkscape:window-y="34"
     inkscape:window-maximized="0" />
  <metadata
     id="metadata90">
    <rdf:RDF>
      <cc:Work
         rdf:about="">
        <dc:format>image/svg+xml</dc:format>
        <dc:type
           rdf:resource="http://purl.org/dc/dcmitype/StillImage" />
        <dc:title>elementary Symbolic Icon Theme</dc:title>
      </cc:Work>
    </rdf:RDF>
  </metadata>
  <title
     id="title9167">elementary Symbolic Icon Theme</title>
  <defs
     id="defs7386">
    <filter
       id="filter7554"
       style="color-interpolation-filters:sRGB">
      <feBlend
         id="feBlend7556"
         in2="BackgroundImage"
         mode="darken" />
    </filter>
  </defs>
  <g
     id="layer9"
     style="display:inline"
     transform="matrix(1.3333333,0,0,1.3333333,-1056.1669,779.33331)" />
  <g
     id="layer10"
     style="display:inline"
     transform="matrix(1.3333333,0,0,1.3333333,-1056.1669,779.33331)" />
  <g
     id="layer11"
     transform="matrix(1.3333333,0,0,1.3333333,-1056.1669,779.33331)" />
  <g
     id="layer13"
     style="display:inline;fill:#353945;fill-opacity:1"
     transform="matrix(1.3333333,0,0,1.3333333,-1056.1669,779.33331)">
    <path
       d="m 794.7502,-583 c -0.4155,0 -0.75,0.3345 -0.75,0.75 l 0,13.5 c 0,0.4155 0.3345,0.75 0.75,0.75 l 12.5,0 c 0.4155,0 0.75,-0.3345 0.75,-0.75 l 0,-13.5 c 0,-0.4155 -0.3345,-0.75 -0.75,-0.75 l -12.5,0 z m 0.25,1 1,0 0,1 -1,0 0,-1 z m 2.5,0 7,0 c 0.277,0 0.5,0.223 0.5,0.5 l 0,5 c 0,0.277 -0.223,0.5 -0.5,0.5 l -7,0 c -0.277,0 -0.5,-0.223 -0.5,-0.5 l 0,-5 c 0,-0.277 0.223,-0.5 0.5,-0.5 z m 8.5,0 1,0 0,1 -1,0 0,-1 z m -11,2 1,0 0,1 -1,0 0,-1 z m 11,0 1,0 0,1 -1,0 0,-1 z m -11,2 1,0 0,1 -1,0 0,-1 z m 11,0 1,0 0,1 -1,0 0,-1 z m -11,2 1,0 0,1 -1,0 0,-1 z m 11,0 1,0 0,1 -1,0 0,-1 z m -8.5,1 7,0 c 0.277,0 0.5,0.223 0.5,0.5 l 0,5 c 0,0.277 -0.223,0.5 -0.5,0.5 l -7,0 c -0.277,0 -0.5,-0.223 -0.5,-0.5 l 0,-5 c 0,-0.277 0.223,-0.5 0.5,-0.5 z m -2.5,1 1,0 0,1 -1,0 0,-1 z m 11,0 1,0 0,1 -1,0 0,-1 z m -11,2 1,0 0,1 -1,0 0,-1 z m 11,0 1,0 0,1 -1,0 0,-1 z m -11,2 1,0 0,1 -1,0 0,-1 z m 11,0 1,0 0,1 -1,0 0,-1 z"
       id="rect3032"
       style="color:#bebebe;display:inline;overflow:visible;visibility:visible;fill:#353945;fill-opacity:1;fill-rule:nonzero;stroke:none;stroke-width:1;marker:none;enable-background:accumulate"
       inkscape:connector-curvature="0" />
  </g>
  <g
     id="layer14"
     transform="matrix(1.3333333,0,0,1.3333333,-1056.1669,779.33331)" />
  <g
     id="layer15"
     style="display:inline"
     transform="matrix(1.3333333,0,0,1.3333333,-1056.1669,779.33331)" />
  <g
     id="g71291"
     style="display:inline"
     transform="matrix(1.3333333,0,0,1.3333333,-1056.1669,779.33331)" />
  <g
     id="g4953"
     style="display:inline"
     transform="matrix(1.3333333,0,0,1.3333333,-1056.1669,779.33331)" />
  <g
     id="layer12"
     style="display:inline"
     transform="matrix(1.3333333,0,0,1.3333333,-1056.1669,779.33331)" />
</svg>
