<?xml version="1.0" encoding="UTF-8" standalone="no"?>
<!-- Created with Inkscape (http://www.inkscape.org/) -->

<svg
   xmlns:dc="http://purl.org/dc/elements/1.1/"
   xmlns:cc="http://creativecommons.org/ns#"
   xmlns:rdf="http://www.w3.org/1999/02/22-rdf-syntax-ns#"
   xmlns:svg="http://www.w3.org/2000/svg"
   xmlns="http://www.w3.org/2000/svg"
   xmlns:xlink="http://www.w3.org/1999/xlink"
   xmlns:sodipodi="http://sodipodi.sourceforge.net/DTD/sodipodi-0.dtd"
   xmlns:inkscape="http://www.inkscape.org/namespaces/inkscape"
   version="1.1"
   width="24"
   height="24"
   id="svg12303"
   inkscape:version="0.48.4 r9939"
   sodipodi:docname="stock_person.svg">
  <sodipodi:namedview
     pagecolor="#ffffff"
     bordercolor="#666666"
     borderopacity="1"
     objecttolerance="10"
     gridtolerance="10"
     guidetolerance="10"
     inkscape:pageopacity="0"
     inkscape:pageshadow="2"
     inkscape:window-width="640"
     inkscape:window-height="480"
     id="namedview31"
     showgrid="false"
     inkscape:zoom="9.8333333"
     inkscape:cx="12"
     inkscape:cy="12"
     inkscape:window-x="65"
     inkscape:window-y="24"
     inkscape:window-maximized="0"
     inkscape:current-layer="layer1" />
  <defs
     id="defs12305">
    <linearGradient
       x1="71.204407"
       y1="6.2375584"
       x2="71.204407"
       y2="44.340794"
       id="linearGradient6351"
       xlink:href="#linearGradient4011-2"
       gradientUnits="userSpaceOnUse"
       gradientTransform="matrix(0.5135135,0,0,0.5135135,-24.83613,-9.02128)" />
    <linearGradient
       id="linearGradient4011-2">
      <stop
         id="stop4013-7"
         style="stop-color:#ffffff;stop-opacity:1"
         offset="0" />
      <stop
         id="stop4015-9"
         style="stop-color:#ffffff;stop-opacity:0.23529412"
         offset="0.507761" />
      <stop
         id="stop4017-5"
         style="stop-color:#ffffff;stop-opacity:0.15686275"
         offset="0.83456558" />
      <stop
         id="stop4019-6"
         style="stop-color:#ffffff;stop-opacity:0.39215687"
         offset="1" />
    </linearGradient>
    <radialGradient
       cx="6.0693989"
       cy="8.4497671"
       r="19.99999"
       fx="6.0693989"
       fy="8.4497671"
       id="radialGradient6358"
       xlink:href="#linearGradient2867-449-88-871-390-598-476-591-434-148-57-177-3-8-5"
       gradientUnits="userSpaceOnUse"
       gradientTransform="matrix(0,1.1468756,-1.2132576,-3.1216191e-8,22.2518,-14.94309)" />
    <linearGradient
       id="linearGradient2867-449-88-871-390-598-476-591-434-148-57-177-3-8-5">
      <stop
         id="stop3750-8-9-1"
         style="stop-color:#90dbec;stop-opacity:1"
         offset="0" />
      <stop
         id="stop3752-3-2-2"
         style="stop-color:#42baea;stop-opacity:1"
         offset="0.26238" />
      <stop
         id="stop3754-7-2-5"
         style="stop-color:#3689e6;stop-opacity:1"
         offset="0.704952" />
      <stop
         id="stop3756-9-3-2"
         style="stop-color:#2b63a0;stop-opacity:1"
         offset="1" />
    </linearGradient>
    <linearGradient
       x1="24"
       y1="44"
       x2="24"
       y2="3.8990016"
       id="linearGradient6360"
       xlink:href="#linearGradient3707-319-631-407-324-3-8-4"
       gradientUnits="userSpaceOnUse"
       gradientTransform="matrix(0.53851149,0,0,0.53851149,-0.92427,-8.9242797)" />
    <linearGradient
       id="linearGradient3707-319-631-407-324-3-8-4">
      <stop
         id="stop3760-7-3-4"
         style="stop-color:#185f9a;stop-opacity:1"
         offset="0" />
      <stop
         id="stop3762-8-4-6"
         style="stop-color:#599ec9;stop-opacity:1"
         offset="1" />
    </linearGradient>
    <linearGradient
       id="linearGradient8838">
      <stop
         id="stop8840"
         style="stop-color:#000000;stop-opacity:1"
         offset="0" />
      <stop
         id="stop8842"
         style="stop-color:#000000;stop-opacity:0"
         offset="1" />
    </linearGradient>
    <radialGradient
       cx="62.625"
       cy="4.625"
       r="10.625"
       fx="62.625"
       fy="4.625"
       id="radialGradient12301"
       xlink:href="#linearGradient8838"
       gradientUnits="userSpaceOnUse"
       gradientTransform="matrix(1.0352941,0,0,0.2823525,-52.83529,11.69412)" />
  </defs>
  <metadata
     id="metadata12308">
    <rdf:RDF>
      <cc:Work
         rdf:about="">
        <dc:format>image/svg+xml</dc:format>
        <dc:type
           rdf:resource="http://purl.org/dc/dcmitype/StillImage" />
        <dc:title></dc:title>
      </cc:Work>
    </rdf:RDF>
  </metadata>
  <g
     transform="translate(0,8)"
     id="layer1">
    <path
       inkscape:connector-curvature="0"
       d="m 11.908716,-4.5970138 c -2.9419019,0 -5.3384189,2.2996091 -5.3384189,5.14070131 0,2.84109019 2.396517,5.14070119 5.3384189,5.14070119 2.941902,0 5.33842,-2.299611 5.33842,-5.14070119 0,-2.84109221 -2.396518,-5.14070131 -5.33842,-5.14070131 z M 10.024205,6.1168987 c -2.3917519,0 -4.4639499,1.411089 -5.5052449,3.472444 a 0.19778954,0.19778954 0 0 0 0.03707,0.222434 C 6.3955051,11.773822 9.0077421,13 11.908717,13 c 2.900975,0 5.513211,-1.226178 7.352685,-3.1882233 a 0.19778954,0.19778954 0 0 0 0.03707,-0.222434 C 18.257177,7.5279877 16.18498,6.1168987 13.793228,6.1168987 l -3.769024,0 z"
       id="path3924"
       style="opacity:0.07000002;color:#000000;fill:#000000;fill-opacity:1;fill-rule:nonzero;stroke:none;stroke-width:2;marker:none;visibility:visible;display:inline;overflow:visible;enable-background:accumulate" />
    <path
       inkscape:connector-curvature="0"
       d="m 11.908716,-4.3992946 c -2.8391299,0 -5.1406989,2.213048 -5.1406989,4.94298211 0,2.72993219 2.301569,4.94298119 5.1406989,4.94298119 2.839131,0 5.140701,-2.213049 5.140701,-4.94298119 0,-2.72993411 -2.30157,-4.94298211 -5.140701,-4.94298211 z M 10.024205,6.3146177 c -2.3141829,0 -4.3158869,1.361478 -5.3260619,3.361229 1.803696,1.9238823 4.365324,3.1264353 7.2105729,3.1264353 2.845251,0 5.40688,-1.202553 7.210575,-3.1264353 -1.010176,-1.999751 -3.011878,-3.361229 -5.326063,-3.361229 l -3.769023,0 z"
       id="rect3049-8"
       style="opacity:0.15;color:#000000;fill:#000000;fill-opacity:1;fill-rule:nonzero;stroke:none;stroke-width:2;marker:none;visibility:visible;display:inline;overflow:visible;enable-background:accumulate" />
    <path
       inkscape:connector-curvature="0"
       d="m 11.908716,-4.5970138 c -2.8391299,0 -5.1406989,2.213048 -5.1406989,4.94298151 0,2.72993299 2.301569,4.94298299 5.1406989,4.94298299 2.839131,0 5.140701,-2.21305 5.140701,-4.94298299 0,-2.72993351 -2.30157,-4.94298151 -5.140701,-4.94298151 z M 10.024205,6.1168987 c -2.3141829,0 -4.3158869,1.361477 -5.3260619,3.361228 1.803696,1.9238833 4.365324,3.1264363 7.2105729,3.1264363 2.845251,0 5.40688,-1.202553 7.210575,-3.1264363 -1.010176,-1.999751 -3.011878,-3.361228 -5.326063,-3.361228 l -3.769023,0 z"
       id="rect3049"
       style="color:#000000;fill:#ffffff;fill-opacity:1;fill-rule:nonzero;stroke:none;stroke-width:2;marker:none;visibility:visible;display:inline;overflow:visible;enable-background:accumulate" />
  </g>
</svg>
