<?xml version="1.0" encoding="UTF-8" standalone="no"?>
<!-- Created with Inkscape (http://www.inkscape.org/) -->

<svg
   xmlns:dc="http://purl.org/dc/elements/1.1/"
   xmlns:cc="http://creativecommons.org/ns#"
   xmlns:rdf="http://www.w3.org/1999/02/22-rdf-syntax-ns#"
   xmlns:svg="http://www.w3.org/2000/svg"
   xmlns="http://www.w3.org/2000/svg"
   xmlns:xlink="http://www.w3.org/1999/xlink"
   xmlns:sodipodi="http://sodipodi.sourceforge.net/DTD/sodipodi-0.dtd"
   xmlns:inkscape="http://www.inkscape.org/namespaces/inkscape"
   version="1.0"
   width="24"
   height="24"
   id="svg2"
   inkscape:version="0.48.4 r9939"
   sodipodi:docname="invest-big.svg">
  <metadata
     id="metadata53">
    <rdf:RDF>
      <cc:Work
         rdf:about="">
        <dc:format>image/svg+xml</dc:format>
        <dc:type
           rdf:resource="http://purl.org/dc/dcmitype/StillImage" />
      </cc:Work>
    </rdf:RDF>
  </metadata>
  <sodipodi:namedview
     pagecolor="#ffffff"
     bordercolor="#666666"
     borderopacity="1"
     objecttolerance="10"
     gridtolerance="10"
     guidetolerance="10"
     inkscape:pageopacity="0"
     inkscape:pageshadow="2"
     inkscape:window-width="1481"
     inkscape:window-height="489"
     id="namedview51"
     showgrid="false"
     inkscape:zoom="9.8333333"
     inkscape:cx="-4.6779661"
     inkscape:cy="11.79661"
     inkscape:window-x="75"
     inkscape:window-y="34"
     inkscape:window-maximized="0"
     inkscape:current-layer="svg2" />
  <defs
     id="defs4">
    <linearGradient
       id="linearGradient3308-4-6-931-761-6">
      <stop
         id="stop2919-1"
         style="stop-color:#ffffff;stop-opacity:1"
         offset="0" />
      <stop
         id="stop2921-0"
         style="stop-color:#ffffff;stop-opacity:0"
         offset="1" />
    </linearGradient>
    <radialGradient
       cx="4.9929786"
       cy="43.5"
       r="2.5"
       fx="4.9929786"
       fy="43.5"
       id="radialGradient2889"
       xlink:href="#linearGradient3688-166-749"
       gradientUnits="userSpaceOnUse"
       gradientTransform="matrix(2.003784,0,0,1.4,27.98813,-17.4)" />
    <linearGradient
       id="linearGradient3688-166-749">
      <stop
         id="stop2883"
         style="stop-color:#181818;stop-opacity:1"
         offset="0" />
      <stop
         id="stop2885"
         style="stop-color:#181818;stop-opacity:0"
         offset="1" />
    </linearGradient>
    <radialGradient
       cx="4.9929786"
       cy="43.5"
       r="2.5"
       fx="4.9929786"
       fy="43.5"
       id="radialGradient2891"
       xlink:href="#linearGradient3688-464-309"
       gradientUnits="userSpaceOnUse"
       gradientTransform="matrix(2.003784,0,0,1.4,-20.01187,-104.4)" />
    <linearGradient
       id="linearGradient3688-464-309">
      <stop
         id="stop2889"
         style="stop-color:#181818;stop-opacity:1"
         offset="0" />
      <stop
         id="stop2891"
         style="stop-color:#181818;stop-opacity:0"
         offset="1" />
    </linearGradient>
    <linearGradient
       x1="25.058096"
       y1="47.027729"
       x2="25.058096"
       y2="39.999443"
       id="linearGradient2893"
       xlink:href="#linearGradient3702-501-757"
       gradientUnits="userSpaceOnUse" />
    <linearGradient
       id="linearGradient3702-501-757">
      <stop
         id="stop2895"
         style="stop-color:#181818;stop-opacity:0"
         offset="0" />
      <stop
         id="stop2897"
         style="stop-color:#181818;stop-opacity:1"
         offset="0.5" />
      <stop
         id="stop2899"
         style="stop-color:#181818;stop-opacity:0"
         offset="1" />
    </linearGradient>
    <linearGradient
       id="linearGradient3707">
      <stop
         id="stop3709"
         style="stop-color:#4c2a4e;stop-opacity:1"
         offset="0" />
      <stop
         id="stop3711"
         style="stop-color:#a85394;stop-opacity:1"
         offset="1" />
    </linearGradient>
    <linearGradient
       id="linearGradient3824">
      <stop
         id="stop3826"
         style="stop-color:#ffffff;stop-opacity:1"
         offset="0" />
      <stop
         id="stop3828"
         style="stop-color:#ffffff;stop-opacity:0"
         offset="1" />
    </linearGradient>
    <linearGradient
       id="linearGradient3924">
      <stop
         id="stop3926"
         style="stop-color:#ffffff;stop-opacity:1"
         offset="0" />
      <stop
         id="stop3928"
         style="stop-color:#ffffff;stop-opacity:0"
         offset="1" />
    </linearGradient>
    <linearGradient
       id="linearGradient7209">
      <stop
         id="stop7211"
         style="stop-color:#e384c6;stop-opacity:1"
         offset="0" />
      <stop
         id="stop7213"
         style="stop-color:#c467be;stop-opacity:1"
         offset="0.26238" />
      <stop
         id="stop7215"
         style="stop-color:#93399a;stop-opacity:1"
         offset="0.704952" />
      <stop
         id="stop7217"
         style="stop-color:#48274f;stop-opacity:1"
         offset="1" />
    </linearGradient>
    <linearGradient
       x1="23.99999"
       y1="4.999989"
       x2="23.99999"
       y2="43"
       id="linearGradient3036"
       xlink:href="#linearGradient3308-4-6-931-761-6"
       gradientUnits="userSpaceOnUse"
       gradientTransform="matrix(0.51351371,0,0,0.51351372,-0.32432424,-0.3243287)" />
    <radialGradient
       cx="12.011247"
       cy="13.194963"
       r="19.99999"
       fx="12.011247"
       fy="13.194963"
       id="radialGradient3044"
       xlink:href="#linearGradient2867-449-88-871-390-598-476-591-434-148-57-177-8-802-7"
       gradientUnits="userSpaceOnUse"
       gradientTransform="matrix(3.0337968e-8,0.90467628,-1.3049793,0,23.02683,-4.635622)" />
    <linearGradient
       x1="24"
       y1="44"
       x2="24"
       y2="3.8990016"
       id="linearGradient3046"
       xlink:href="#linearGradient3707"
       gradientUnits="userSpaceOnUse"
       gradientTransform="matrix(0.53846153,0,0,0.53847115,-0.92307804,-0.9233082)" />
    <linearGradient
       x1="17"
       y1="25"
       x2="17"
       y2="6"
       id="linearGradient4028"
       xlink:href="#linearGradient3924"
       gradientUnits="userSpaceOnUse"
       gradientTransform="matrix(0.52216996,0,0,0.52217053,-0.41803103,-1.0542641)"
       spreadMethod="reflect" />
    <radialGradient
       cx="24"
       cy="9.488533"
       r="18.5"
       fx="24"
       fy="9.488533"
       id="radialGradient4031"
       xlink:href="#linearGradient3824"
       gradientUnits="userSpaceOnUse"
       gradientTransform="matrix(0,0.70783234,-2.1158858,0,38.313977,-8.4310394)" />
    <linearGradient
       x1="23.99999"
       y1="4.999989"
       x2="23.99999"
       y2="43"
       id="linearGradient3043"
       xlink:href="#linearGradient3924-118"
       gradientUnits="userSpaceOnUse"
       gradientTransform="matrix(0.62162164,0,0,0.62162164,-45.529085,-4.3341668)" />
    <linearGradient
       id="linearGradient3924-118">
      <stop
         id="stop3216"
         style="stop-color:#ffffff;stop-opacity:1"
         offset="0" />
      <stop
         id="stop3218"
         style="stop-color:#ffffff;stop-opacity:0.23529412"
         offset="0.06316455" />
      <stop
         id="stop3220"
         style="stop-color:#ffffff;stop-opacity:0.15686275"
         offset="0.95056331" />
      <stop
         id="stop3222"
         style="stop-color:#ffffff;stop-opacity:0.39215687"
         offset="1" />
    </linearGradient>
    <linearGradient
       x1="24"
       y1="44"
       x2="24"
       y2="3.8990016"
       id="linearGradient3048"
       xlink:href="#linearGradient3851"
       gradientUnits="userSpaceOnUse"
       gradientTransform="matrix(0.64102567,0,0,0.64102567,-45.994784,-25.969362)" />
    <linearGradient
       id="linearGradient3851">
      <stop
         id="stop3853"
         style="stop-color:#000000;stop-opacity:0.43200001"
         offset="0" />
      <stop
         id="stop3855"
         style="stop-color:#000000;stop-opacity:0.627451"
         offset="1" />
    </linearGradient>
    <radialGradient
       cx="4.9929786"
       cy="43.5"
       r="2.5"
       fx="4.9929786"
       fy="43.5"
       id="radialGradient2976-573"
       xlink:href="#linearGradient3688-166-749-57"
       gradientUnits="userSpaceOnUse"
       gradientTransform="matrix(2.003784,0,0,1.4,27.98813,-17.4)" />
    <linearGradient
       id="linearGradient3688-166-749-57">
      <stop
         id="stop3180"
         style="stop-color:#181818;stop-opacity:1"
         offset="0" />
      <stop
         id="stop3182"
         style="stop-color:#181818;stop-opacity:0"
         offset="1" />
    </linearGradient>
    <radialGradient
       cx="4.9929786"
       cy="43.5"
       r="2.5"
       fx="4.9929786"
       fy="43.5"
       id="radialGradient2978-786"
       xlink:href="#linearGradient3688-464-309-665"
       gradientUnits="userSpaceOnUse"
       gradientTransform="matrix(2.003784,0,0,1.4,-20.01187,-104.4)" />
    <linearGradient
       id="linearGradient3688-464-309-665">
      <stop
         id="stop3186"
         style="stop-color:#181818;stop-opacity:1"
         offset="0" />
      <stop
         id="stop3188"
         style="stop-color:#181818;stop-opacity:0"
         offset="1" />
    </linearGradient>
    <linearGradient
       x1="25.058096"
       y1="47.027729"
       x2="25.058096"
       y2="39.999443"
       id="linearGradient2980-983"
       xlink:href="#linearGradient3702-501-757-17"
       gradientUnits="userSpaceOnUse" />
    <linearGradient
       id="linearGradient3702-501-757-17">
      <stop
         id="stop3192"
         style="stop-color:#181818;stop-opacity:0"
         offset="0" />
      <stop
         id="stop3194"
         style="stop-color:#181818;stop-opacity:1"
         offset="0.5" />
      <stop
         id="stop3196"
         style="stop-color:#181818;stop-opacity:0"
         offset="1" />
    </linearGradient>
    <radialGradient
       cx="7.4956832"
       cy="8.4497671"
       r="19.99999"
       fx="7.4956832"
       fy="8.4497671"
       id="radialGradient4196"
       xlink:href="#linearGradient2867-449-88-871-390-598-476-591-434-148-57-177-8-802-7"
       gradientUnits="userSpaceOnUse"
       gradientTransform="matrix(1.195598e-8,1.4381477,-1.5213888,-2.6496171e-8,28.855449,-5.4214154)" />
    <linearGradient
       id="linearGradient2867-449-88-871-390-598-476-591-434-148-57-177-8-802-7">
      <stop
         id="stop3200-4"
         style="stop-color:#c7c7c7;stop-opacity:1"
         offset="0" />
      <stop
         id="stop3202-7"
         style="stop-color:#a6a6a6;stop-opacity:1"
         offset="0.26238" />
      <stop
         id="stop3204-2"
         style="stop-color:#7b7b7b;stop-opacity:1"
         offset="0.704952" />
      <stop
         id="stop3206-8"
         style="stop-color:#595959;stop-opacity:1"
         offset="1" />
    </linearGradient>
    <radialGradient
       r="19.99999"
       fy="8.4497671"
       fx="7.4956832"
       cy="8.4497671"
       cx="7.4956832"
       gradientTransform="matrix(1.195598e-8,1.4381477,-1.5213888,-2.6496171e-8,-17.75472,-11.836669)"
       gradientUnits="userSpaceOnUse"
       id="radialGradient3132"
       xlink:href="#linearGradient2867-449-88-871-390-598-476-591-434-148-57-177-8-802-7"
       inkscape:collect="always" />
  </defs>
  <g
     transform="matrix(0.59999976,0,0,0.33333364,-2.4000002,8.3333283)"
     id="g2036"
     style="display:inline">
    <g
       transform="matrix(1.052632,0,0,1.285713,-1.263158,-13.42854)"
       id="g3712"
       style="opacity:0.4">
      <rect
         width="5"
         height="7"
         x="38"
         y="40"
         id="rect2801"
         style="fill:url(#radialGradient2889);fill-opacity:1;stroke:none" />
      <rect
         width="5"
         height="7"
         x="-10"
         y="-47"
         transform="scale(-1,-1)"
         id="rect3696"
         style="fill:url(#radialGradient2891);fill-opacity:1;stroke:none" />
      <rect
         width="28"
         height="7.0000005"
         x="10"
         y="40"
         id="rect3700"
         style="fill:url(#linearGradient2893);fill-opacity:1;stroke:none" />
    </g>
  </g>
  <rect
     width="21"
     height="21.000376"
     rx="2.2322156"
     ry="2.2322156"
     x="1.4999999"
     y="1.499812"
     id="rect5505-3"
     style="fill:url(#radialGradient3044);fill-opacity:1;stroke:none;stroke-width:1;stroke-linecap:round;stroke-linejoin:round;stroke-miterlimit:4;stroke-opacity:1;stroke-dasharray:none;stroke-dashoffset:0" />
  <rect
     width="19"
     height="19.000015"
     rx="1.365193"
     ry="1.3651931"
     x="2.5"
     y="2.4999917"
     id="rect6741"
     style="opacity:0.4;fill:none;stroke:url(#linearGradient3036);stroke-width:0.99999988;stroke-linecap:round;stroke-linejoin:round;stroke-miterlimit:4;stroke-opacity:1;stroke-dasharray:none;stroke-dashoffset:0" />
  <g
     transform="matrix(0.43537412,0,0,0.45714284,11.921768,9.8333336)"
     id="layer1-8-8"
     style="opacity:0.3;color:#000000;fill:#ffffff;fill-opacity:1;fill-rule:nonzero;stroke:none;marker:none;visibility:visible;display:inline;overflow:visible;enable-background:accumulate">
    <path
       d="M 1.75,0 C 1.3345,0 1,0.3345 1,0.75 l 0,13.5 C 1,14.6655 1.3345,15 1.75,15 l 12.5,0 C 14.6655,15 15,14.6655 15,14.25 L 15,0.75 C 15,0.3345 14.6655,0 14.25,0 L 1.75,0 z M 2,1 3,1 3,2 2,2 2,1 z m 2.5,0 7,0 C 11.777,1 12,1.223 12,1.5 l 0,5 C 12,6.777 11.777,7 11.5,7 l -7,0 C 4.223,7 4,6.777 4,6.5 l 0,-5 C 4,1.223 4.223,1 4.5,1 z m 8.5,0 1,0 0,1 -1,0 0,-1 z M 2,3 3,3 3,4 2,4 2,3 z m 11,0 1,0 0,1 -1,0 0,-1 z M 2,5 3,5 3,6 2,6 2,5 z m 11,0 1,0 0,1 -1,0 0,-1 z M 2,7 3,7 3,8 2,8 2,7 z m 11,0 1,0 0,1 -1,0 0,-1 z m -8.5,1 7,0 C 11.777,8 12,8.223 12,8.5 l 0,5 c 0,0.277 -0.223,0.5 -0.5,0.5 l -7,0 C 4.223,14 4,13.777 4,13.5 l 0,-5 C 4,8.223 4.223,8 4.5,8 z M 2,9 3,9 3,10 2,10 2,9 z m 11,0 1,0 0,1 -1,0 0,-1 z m -11,2 1,0 0,1 -1,0 0,-1 z m 11,0 1,0 0,1 -1,0 0,-1 z m -11,2 1,0 0,1 -1,0 0,-1 z m 11,0 1,0 0,1 -1,0 0,-1 z"
       inkscape:connector-curvature="0"
       id="rect3032-6"
       style="color:#000000;fill:#ffffff;fill-opacity:1;fill-rule:nonzero;stroke:none;stroke-width:1;marker:none;visibility:visible;display:inline;overflow:visible;enable-background:accumulate" />
  </g>
  <g
     transform="matrix(0.43537412,0,0,0.45714284,11.921768,9.0714291)"
     id="layer1-8"
     style="opacity:0.5;color:#000000;fill:#000000;fill-opacity:1;fill-rule:nonzero;stroke:none;marker:none;visibility:visible;display:inline;overflow:visible;enable-background:accumulate">
    <path
       d="M 1.75,0 C 1.3345,0 1,0.3345 1,0.75 l 0,13.5 C 1,14.6655 1.3345,15 1.75,15 l 12.5,0 C 14.6655,15 15,14.6655 15,14.25 L 15,0.75 C 15,0.3345 14.6655,0 14.25,0 z M 2,1 3,1 3,2 2,2 z m 2.5,0.5833335 7,0 c 0.277,0 0.5,0.223 0.5,0.5 l 0,4.1666667 c 0,0.277 -0.223,0.5 -0.5,0.5 l -7,0 c -0.277,0 -0.5,-0.223 -0.5,-0.5 L 4,2.0833335 c 0,-0.277 0.223,-0.5 0.5,-0.5 z M 13,1 14,1 14,2 13,2 z M 2,3 3,3 3,4 2,4 z m 11,0 1,0 0,1 -1,0 z M 2,5 3,5 3,6 2,6 z m 11,0 1,0 0,1 -1,0 z M 2,7 3,7 3,8 2,8 z m 11,0 1,0 0,1 -1,0 z m -8.5,1.2500002 7,0 c 0.277,0 0.5,0.223 0.5,0.5 l 0,4.1666668 c 0,0.277 -0.223,0.5 -0.5,0.5 l -7,0 c -0.277,0 -0.5,-0.223 -0.5,-0.5 L 4,8.7500002 c 0,-0.277 0.223,-0.5 0.5,-0.5 z M 2,9 3,9 3,10 2,10 z m 11,0 1,0 0,1 -1,0 z m -11,2 1,0 0,1 -1,0 z m 11,0 1,0 0,1 -1,0 z m -11,2 1,0 0,1 -1,0 z m 11,0 1,0 0,1 -1,0 z"
       inkscape:connector-curvature="0"
       id="rect3032"
       style="color:#000000;fill:#000000;fill-opacity:1;fill-rule:nonzero;stroke:none;stroke-width:1;marker:none;visibility:visible;display:inline;overflow:visible;enable-background:accumulate" />
  </g>
  <path
     d="m 9.3095237,14.405101 v 5.670145 L 8.0086966,18.825302 7.2653832,20.319096 C 7.0833117,20.723118 6.136761,20.39826 6.4059167,19.85799 L 7.1415164,18.307003 H 5.5 l 3.8095237,-3.902241 z"
     inkscape:connector-curvature="0"
     id="path6242-1"
     style="opacity:0.3;color:#000000;fill:#ffffff;fill-opacity:1;fill-rule:nonzero;stroke:none;stroke-width:0.84323651;marker:none;visibility:visible;display:inline;overflow:visible;enable-background:accumulate" />
  <path
     d="m 9.3095237,13.643196 v 5.670146 L 8.0086966,18.063397 7.2653832,19.557191 C 7.0833117,19.961214 6.136761,19.636355 6.4059167,19.096085 L 7.1415164,17.545098 H 5.5 l 3.8095237,-3.902241 z"
     inkscape:connector-curvature="0"
     id="path6242"
     style="opacity:0.5;color:#000000;fill:#000000;fill-opacity:1;fill-rule:nonzero;stroke:none;stroke-width:0.84323651;marker:none;visibility:visible;display:inline;overflow:visible;enable-background:accumulate" />
  <path
     d="M 8.8861249,5.2625931 C 8.5619054,5.2442918 8.5120532,5.5953634 8.5462706,5.8285093 l 0,4.5821277 c -0.1988961,-0.04179 -0.4584148,-0.02392 -0.6826545,0.04224 -0.6737567,0.179248 -1.2727319,0.788363 -1.2171774,1.490031 0.077863,0.657073 0.8563313,1.085768 1.4981317,0.890623 0.7270598,-0.172118 1.148606,-0.803834 1.148606,-1.619191 l 0,-3.6275255 c 0.6040107,0.31936 1.1479276,0.9161425 1.1354986,1.6192158 0.0066,0.5082177 -0.135935,1.0164357 -0.337258,1.4790577 -0.0271,0.05585 0.03191,0.110575 0.07545,0.131776 0.116583,0.03257 0.177154,-0.120273 0.243045,-0.192235 C 11.111598,9.683839 11.156988,8.30126 10.399624,7.3769561 10.130842,7.0487298 9.7808054,6.769185 9.5974935,6.38795 9.4139797,6.0947272 9.2976774,5.7629863 9.2411674,5.4283981 9.1671395,5.3074625 9.0259986,5.261477 8.8861259,5.2625885 z"
     inkscape:connector-curvature="0"
     id="path3926-5"
     style="opacity:0.3;fill:#ffffff;fill-opacity:1;stroke:none" />
  <path
     d="M 8.8861249,4.5006883 C 8.5619054,4.4823869 8.5120532,4.8334585 8.5462706,5.0666044 l 0,4.5821277 C 8.3473745,9.6069455 8.0878558,9.6248117 7.8636161,9.6909682 7.1898594,9.8702156 6.5908842,10.47933 6.6464387,11.180999 c 0.077863,0.657072 0.8563313,1.085768 1.4981317,0.890623 0.7270598,-0.172119 1.148606,-0.803835 1.148606,-1.619192 l 0,-3.6275252 c 0.6040107,0.3193601 1.1479276,0.9161425 1.1354986,1.619216 0.0066,0.5082179 -0.135935,1.0164359 -0.337258,1.4790578 -0.0271,0.05585 0.03191,0.1105754 0.07545,0.1317774 0.116583,0.03257 0.177154,-0.1202754 0.243045,-0.1922364 C 11.111598,8.9219334 11.156988,7.5393543 10.399624,6.6150499 10.130842,6.2868236 9.7808054,6.0072792 9.5974935,5.6260442 9.4139797,5.3328214 9.2976774,5.0010804 9.2411674,4.6664923 9.1671395,4.5455566 9.0259986,4.4995711 8.8861259,4.5006827 z"
     inkscape:connector-curvature="0"
     id="path3926"
     style="opacity:0.5;fill:#000000;fill-opacity:1;stroke:none" />
  <rect
     style="fill:none;fill-opacity:1;stroke:#000000;stroke-width:1;stroke-linecap:round;stroke-linejoin:round;stroke-miterlimit:4;stroke-opacity:1;stroke-dasharray:none;stroke-dashoffset:0;opacity:0.6"
     id="rect3892"
     y="1.499812"
     x="1.4999999"
     ry="2.2322156"
     rx="2.2322156"
     height="21.000376"
     width="21" />
</svg>
