<?xml version="1.0" encoding="UTF-8" standalone="no"?>
<!-- Created with Inkscape (http://www.inkscape.org/) -->

<svg
   xmlns:dc="http://purl.org/dc/elements/1.1/"
   xmlns:cc="http://creativecommons.org/ns#"
   xmlns:rdf="http://www.w3.org/1999/02/22-rdf-syntax-ns#"
   xmlns:svg="http://www.w3.org/2000/svg"
   xmlns="http://www.w3.org/2000/svg"
   xmlns:xlink="http://www.w3.org/1999/xlink"
   xmlns:sodipodi="http://sodipodi.sourceforge.net/DTD/sodipodi-0.dtd"
   xmlns:inkscape="http://www.inkscape.org/namespaces/inkscape"
   version="1.0"
   width="24"
   height="24"
   id="svg2"
   inkscape:version="0.48.4 r9939"
   sodipodi:docname="block-device.svg">
  <sodipodi:namedview
     pagecolor="#ffffff"
     bordercolor="#666666"
     borderopacity="1"
     objecttolerance="10"
     gridtolerance="10"
     guidetolerance="10"
     inkscape:pageopacity="0"
     inkscape:pageshadow="2"
     inkscape:window-width="640"
     inkscape:window-height="480"
     id="namedview87"
     showgrid="false"
     inkscape:zoom="9.8333333"
     inkscape:cx="12"
     inkscape:cy="12"
     inkscape:window-x="75"
     inkscape:window-y="34"
     inkscape:window-maximized="0"
     inkscape:current-layer="svg2" />
  <metadata
     id="metadata88">
    <rdf:RDF>
      <cc:Work
         rdf:about="">
        <dc:format>image/svg+xml</dc:format>
        <dc:type
           rdf:resource="http://purl.org/dc/dcmitype/StillImage" />
        <dc:title></dc:title>
      </cc:Work>
    </rdf:RDF>
  </metadata>
  <defs
     id="defs4">
    <linearGradient
       id="linearGradient5048">
      <stop
         id="stop5050"
         style="stop-color:#000000;stop-opacity:0"
         offset="0" />
      <stop
         id="stop5056"
         style="stop-color:#000000;stop-opacity:1"
         offset="0.5" />
      <stop
         id="stop5052"
         style="stop-color:#000000;stop-opacity:0"
         offset="1" />
    </linearGradient>
    <linearGradient
       id="linearGradient5060">
      <stop
         id="stop5062"
         style="stop-color:#000000;stop-opacity:1"
         offset="0" />
      <stop
         id="stop5064"
         style="stop-color:#000000;stop-opacity:0"
         offset="1" />
    </linearGradient>
    <linearGradient
       x1="9.5990496"
       y1="13.498952"
       x2="4.4590349"
       y2="8.3495274"
       id="linearGradient2869"
       xlink:href="#linearGradient3484-2"
       gradientUnits="userSpaceOnUse"
       gradientTransform="matrix(0.9892473,0,0,1.4696392,0.129032,-10.33859)" />
    <linearGradient
       x1="53.99139"
       y1="87.89592"
       x2="53.99139"
       y2="104.28131"
       id="linearGradient2872"
       xlink:href="#linearGradient2215-9"
       gradientUnits="userSpaceOnUse"
       gradientTransform="matrix(0.1904597,0,0,0.2485308,0.090799,-3.484712)" />
    <radialGradient
       cx="605.71429"
       cy="486.64789"
       r="117.14286"
       fx="605.71429"
       fy="486.64789"
       id="radialGradient2877"
       xlink:href="#linearGradient5060"
       gradientUnits="userSpaceOnUse"
       gradientTransform="matrix(-0.02218262,0,0,0.01085997,16.259269,17.380799)" />
    <radialGradient
       cx="605.71429"
       cy="486.64789"
       r="117.14286"
       fx="605.71429"
       fy="486.64789"
       id="radialGradient2880"
       xlink:href="#linearGradient5060"
       gradientUnits="userSpaceOnUse"
       gradientTransform="matrix(0.02218262,0,0,0.01085997,7.7407365,17.380799)" />
    <linearGradient
       x1="302.85715"
       y1="366.64789"
       x2="302.85715"
       y2="609.50507"
       id="linearGradient2883"
       xlink:href="#linearGradient5048"
       gradientUnits="userSpaceOnUse"
       gradientTransform="matrix(0.03776775,0,0,0.01085997,-1.650341,17.380799)" />
    <linearGradient
       id="linearGradient6310-8">
      <stop
         id="stop6312-6"
         style="stop-color:#ffffff;stop-opacity:1"
         offset="0" />
      <stop
         id="stop6314-6"
         style="stop-color:#ffffff;stop-opacity:0"
         offset="1" />
    </linearGradient>
    <linearGradient
       id="linearGradient3484-2">
      <stop
         id="stop3486-2"
         style="stop-color:#969696;stop-opacity:1"
         offset="0" />
      <stop
         id="stop3488-0"
         style="stop-color:#b4b4b4;stop-opacity:1"
         offset="1" />
    </linearGradient>
    <linearGradient
       id="linearGradient7056-0">
      <stop
         id="stop7064-4"
         style="stop-color:#e6e6e6;stop-opacity:1"
         offset="0" />
      <stop
         id="stop7060-2"
         style="stop-color:#c8c8c8;stop-opacity:1"
         offset="1" />
    </linearGradient>
    <linearGradient
       id="linearGradient2215-9">
      <stop
         id="stop2223-6"
         style="stop-color:#7a7a7a;stop-opacity:1"
         offset="0" />
      <stop
         id="stop2219-1"
         style="stop-color:#474747;stop-opacity:1"
         offset="1" />
    </linearGradient>
    <linearGradient
       id="linearGradient4035">
      <stop
         id="stop4037"
         style="stop-color:#f5f5f5;stop-opacity:1"
         offset="0" />
      <stop
         id="stop4039"
         style="stop-color:#e7e7e7;stop-opacity:1"
         offset="0.47025558" />
      <stop
         id="stop4041"
         style="stop-color:#8c8c8c;stop-opacity:1"
         offset="0.69348532" />
      <stop
         id="stop4043"
         style="stop-color:#dddddd;stop-opacity:1"
         offset="0.83542866" />
      <stop
         id="stop4045"
         style="stop-color:#a8a8a8;stop-opacity:1"
         offset="1" />
    </linearGradient>
    <radialGradient
       cx="113.0654"
       cy="97.587898"
       r="2.5631001"
       fx="113.667"
       fy="98"
       id="radialGradient4241"
       gradientUnits="userSpaceOnUse">
      <stop
         id="stop4243"
         style="stop-color:#eeeeee;stop-opacity:1"
         offset="0" />
      <stop
         id="stop4245"
         style="stop-color:#cecece;stop-opacity:1"
         offset="0.16" />
      <stop
         id="stop4247"
         style="stop-color:#888888;stop-opacity:1"
         offset="0.4675" />
      <stop
         id="stop4249"
         style="stop-color:#555555;stop-opacity:1"
         offset="1" />
    </radialGradient>
    <radialGradient
       cx="24"
       cy="42"
       r="21"
       fx="24"
       fy="42"
       id="radialGradient3248"
       xlink:href="#linearGradient6310-8"
       gradientUnits="userSpaceOnUse"
       gradientTransform="matrix(0.5238095,0,1.4568516e-8,0.21428567,-0.57142763,11.500002)" />
    <radialGradient
       cx="7.2203388"
       cy="4.2332726"
       r="12"
       fx="7.2203388"
       fy="4.2332726"
       id="radialGradient4072"
       xlink:href="#linearGradient7056-0"
       gradientUnits="userSpaceOnUse"
       gradientTransform="matrix(1.5193809,0.00371571,-0.00302474,1.2368318,-3.737301,0.06783288)" />
    <linearGradient
       id="linearGradient6309">
      <stop
         id="stop6311"
         style="stop-color:#000000;stop-opacity:1"
         offset="0" />
      <stop
         id="stop6313"
         style="stop-color:#bbbbbb;stop-opacity:0"
         offset="1" />
    </linearGradient>
    <linearGradient
       id="linearGradient4236-0">
      <stop
         id="stop4238-4"
         style="stop-color:#eeeeee;stop-opacity:1"
         offset="0" />
      <stop
         id="stop4240-3"
         style="stop-color:#eeeeee;stop-opacity:0"
         offset="1" />
    </linearGradient>
    <linearGradient
       id="linearGradient7609-6">
      <stop
         id="stop7611-3"
         style="stop-color:#ffffff;stop-opacity:1"
         offset="0" />
      <stop
         id="stop7677-2"
         style="stop-color:#e7e7e7;stop-opacity:1"
         offset="0.47025558" />
      <stop
         id="stop7613-4"
         style="stop-color:#8c8c8c;stop-opacity:1"
         offset="0.67183787" />
      <stop
         id="stop7617-3"
         style="stop-color:#dddddd;stop-opacity:1"
         offset="0.83542866" />
      <stop
         id="stop7615-6"
         style="stop-color:#a8a8a8;stop-opacity:1"
         offset="1" />
    </linearGradient>
    <radialGradient
       cx="113.0654"
       cy="97.587898"
       r="2.5631001"
       fx="113.667"
       fy="98"
       id="radialGradient8443"
       xlink:href="#radialGradient4241"
       gradientUnits="userSpaceOnUse"
       gradientTransform="matrix(2.4956521,0,0,2.4956521,-223.97574,-53.226089)" />
    <radialGradient
       cx="113.0654"
       cy="97.587898"
       r="2.5631001"
       fx="113.667"
       fy="98"
       id="radialGradient8447"
       xlink:href="#radialGradient4241"
       gradientUnits="userSpaceOnUse"
       gradientTransform="matrix(2.4956521,0,0,2.4956521,-223.97574,-53.226089)" />
    <radialGradient
       cx="142.62215"
       cy="191.85428"
       r="78.728165"
       fx="142.62215"
       fy="191.85428"
       id="radialGradient8464"
       xlink:href="#linearGradient7609-6"
       gradientUnits="userSpaceOnUse"
       gradientTransform="matrix(0.09247618,0,0,-0.08716215,-1.5555849,24.365579)" />
    <radialGradient
       cx="141.74666"
       cy="206.42612"
       r="78.728165"
       fx="141.74666"
       fy="206.42612"
       id="radialGradient8471"
       xlink:href="#linearGradient4035"
       gradientUnits="userSpaceOnUse"
       gradientTransform="matrix(0.18614571,-0.00314024,0.00137767,0.18068297,-15.012876,-20.635958)" />
    <radialGradient
       cx="127.31733"
       cy="143.82751"
       r="78.728165"
       fx="127.31733"
       fy="143.82751"
       id="radialGradient8475"
       xlink:href="#linearGradient4035"
       gradientUnits="userSpaceOnUse"
       gradientTransform="matrix(0.10005865,-0.02337636,0.00821684,0.05971738,-5.2741109,-0.91134684)" />
    <linearGradient
       x1="12.277412"
       y1="37.205811"
       x2="12.221823"
       y2="33.758667"
       id="linearGradient8487"
       xlink:href="#linearGradient4236-0"
       gradientUnits="userSpaceOnUse"
       gradientTransform="matrix(0.73758861,0,0,0.53932582,-2.7959675,2.1869584)" />
    <linearGradient
       x1="7.0625"
       y1="35.28125"
       x2="24.6875"
       y2="35.28125"
       id="linearGradient8490"
       xlink:href="#linearGradient6309"
       gradientUnits="userSpaceOnUse"
       gradientTransform="matrix(0.73758861,0,0,0.53932582,-2.2092209,1.4719089)" />
    <radialGradient
       cx="113.0654"
       cy="97.587898"
       r="2.5631001"
       fx="113.667"
       fy="98"
       id="radialGradient8494"
       xlink:href="#radialGradient4241"
       gradientUnits="userSpaceOnUse"
       gradientTransform="matrix(2.4956521,0,0,2.4956521,-223.97574,-53.226089)" />
    <radialGradient
       cx="113.0654"
       cy="97.587898"
       r="2.5631001"
       fx="113.667"
       fy="98"
       id="radialGradient8498"
       xlink:href="#radialGradient4241"
       gradientUnits="userSpaceOnUse"
       gradientTransform="matrix(2.4956521,0,0,2.4956521,-223.97574,-53.226089)" />
    <linearGradient
       x1="-172.65306"
       y1="99.667191"
       x2="-164.71831"
       y2="91.972626"
       id="linearGradient2541"
       xlink:href="#linearGradient11114-516"
       gradientUnits="userSpaceOnUse"
       gradientTransform="matrix(0.1953514,0,0,0.1799097,50.0016,-0.8912687)" />
    <linearGradient
       id="linearGradient11114-516">
      <stop
         id="stop3372"
         style="stop-color:#242424;stop-opacity:0.99215686"
         offset="0" />
      <stop
         id="stop3374"
         style="stop-color:#656565;stop-opacity:1"
         offset="1" />
    </linearGradient>
    <linearGradient
       x1="32.892574"
       y1="27.988184"
       x2="31.364458"
       y2="29.484051"
       id="linearGradient2543"
       xlink:href="#linearGradient3277-442"
       gradientUnits="userSpaceOnUse"
       gradientTransform="matrix(0.5018785,0,0,0.462207,-0.3803386,1.9030377)" />
    <linearGradient
       id="linearGradient3277-442">
      <stop
         id="stop3378"
         style="stop-color:#575757;stop-opacity:1"
         offset="0" />
      <stop
         id="stop3380"
         style="stop-color:#333333;stop-opacity:1"
         offset="1" />
    </linearGradient>
    <linearGradient
       x1="212.04402"
       y1="123.74026"
       x2="210.58083"
       y2="74.261711"
       id="linearGradient2538"
       xlink:href="#linearGradient3294"
       gradientUnits="userSpaceOnUse"
       gradientTransform="matrix(0.1953514,0,0,0.1799097,-25.223109,0.847388)" />
    <linearGradient
       id="linearGradient3294">
      <stop
         id="stop3296"
         style="stop-color:#ffffff;stop-opacity:0.19520548"
         offset="0" />
      <stop
         id="stop3298"
         style="stop-color:#ffffff;stop-opacity:0"
         offset="1" />
    </linearGradient>
    <radialGradient
       cx="18.240929"
       cy="21.817987"
       r="8.3085051"
       fx="18.240929"
       fy="21.817987"
       id="radialGradient2514"
       xlink:href="#linearGradient4454-600"
       gradientUnits="userSpaceOnUse" />
    <linearGradient
       id="linearGradient4454-600">
      <stop
         id="stop3408"
         style="stop-color:#ffffff;stop-opacity:0.64726025"
         offset="0" />
      <stop
         id="stop3410"
         style="stop-color:#ffffff;stop-opacity:0.19520548"
         offset="1" />
    </linearGradient>
    <radialGradient
       cx="15.414371"
       cy="13.078408"
       r="6.65625"
       fx="15.414371"
       fy="13.078408"
       id="radialGradient2533"
       xlink:href="#linearGradient4467-402"
       gradientUnits="userSpaceOnUse"
       gradientTransform="matrix(1.4500546,0,0,1.1280465,-15.280129,-9.906347)" />
    <linearGradient
       id="linearGradient4467-402">
      <stop
         id="stop3390"
         style="stop-color:#ffffff;stop-opacity:1"
         offset="0" />
      <stop
         id="stop3392"
         style="stop-color:#ffffff;stop-opacity:0.24761905"
         offset="1" />
    </linearGradient>
    <linearGradient
       x1="173.09576"
       y1="75.31868"
       x2="173.09576"
       y2="11.949074"
       id="linearGradient2528"
       xlink:href="#linearGradient2300-465"
       gradientUnits="userSpaceOnUse"
       gradientTransform="matrix(0.1906508,0,0,0.1908549,-24.167929,0.1252679)" />
    <linearGradient
       id="linearGradient2300-465">
      <stop
         id="stop3396"
         style="stop-color:#343434;stop-opacity:0.97647059"
         offset="0" />
      <stop
         id="stop3398"
         style="stop-color:#929292;stop-opacity:1"
         offset="1" />
    </linearGradient>
    <linearGradient
       x1="41.541653"
       y1="68.291702"
       x2="41.485142"
       y2="4.5362983"
       id="linearGradient2530"
       xlink:href="#linearGradient11104-770"
       gradientUnits="userSpaceOnUse"
       gradientTransform="matrix(0.1906508,0,0,0.1908549,0.5616077,1.5616236)" />
    <linearGradient
       id="linearGradient11104-770">
      <stop
         id="stop3402"
         style="stop-color:#333333;stop-opacity:1"
         offset="0" />
      <stop
         id="stop3404"
         style="stop-color:#333333;stop-opacity:0.6122449"
         offset="1" />
    </linearGradient>
    <linearGradient
       x1="173.09576"
       y1="75.31868"
       x2="173.09576"
       y2="11.949074"
       id="linearGradient2525"
       xlink:href="#linearGradient6209-717"
       gradientUnits="userSpaceOnUse"
       gradientTransform="matrix(0.1815664,0,0,0.1817607,-22.545212,0.4075216)" />
    <linearGradient
       id="linearGradient6209-717">
      <stop
         id="stop3366"
         style="stop-color:#979797;stop-opacity:1"
         offset="0" />
      <stop
         id="stop3368"
         style="stop-color:#000000;stop-opacity:0.34117648"
         offset="1" />
    </linearGradient>
    <linearGradient
       y2="11.949074"
       x2="173.09576"
       y1="75.31868"
       x1="173.09576"
       gradientTransform="matrix(0.1815664,0,0,0.1817607,-22.545212,0.4075216)"
       gradientUnits="userSpaceOnUse"
       id="linearGradient3128"
       xlink:href="#linearGradient6209-717"
       inkscape:collect="always" />
  </defs>
  <rect
     width="18.236429"
     height="2.6374204"
     x="2.8817775"
     y="21.362579"
     id="rect2723"
     style="opacity:0.40206185;fill:url(#linearGradient2883);fill-opacity:1;fill-rule:nonzero;stroke:none;stroke-width:1;marker:none;visibility:visible;display:inline;overflow:visible" />
  <path
     d="m 21.109321,21.362672 c 0,0 0,2.637274 0,2.637274 1.142348,0.005 2.761647,-0.59088 2.761647,-1.318806 0,-0.727927 -1.274774,-1.318468 -2.761647,-1.318468 z"
     inkscape:connector-curvature="0"
     id="path2725"
     style="opacity:0.40206185;fill:url(#radialGradient2880);fill-opacity:1;fill-rule:nonzero;stroke:none;stroke-width:1;marker:none;visibility:visible;display:inline;overflow:visible" />
  <path
     d="m 2.890679,21.362672 c 0,0 0,2.637274 0,2.637274 -1.142353,0.005 -2.761647,-0.59088 -2.761647,-1.318806 0,-0.727927 1.274779,-1.318468 2.761647,-1.318468 z"
     inkscape:connector-curvature="0"
     id="path2727"
     style="opacity:0.40206185;fill:url(#radialGradient2877);fill-opacity:1;fill-rule:nonzero;stroke:none;stroke-width:1;marker:none;visibility:visible;display:inline;overflow:visible" />
  <path
     d="m 23.5,18.5 c -0.466387,3.38005 -0.351379,3.981514 -1.195903,3.981514 -0.330786,0.04823 -13.33742,0 -20.654254,0 -0.917139,0 -0.685406,0.06576 -1.149843,-3.978565 l 23,-0.0029 0,-4.9e-5 z"
     inkscape:connector-curvature="0"
     id="rect2992"
     style="fill:url(#linearGradient2872);fill-opacity:1;fill-rule:nonzero;stroke:#353537;stroke-width:1;stroke-linecap:butt;stroke-linejoin:round;stroke-miterlimit:4;stroke-opacity:1;stroke-dasharray:none;stroke-dashoffset:0;marker:none;visibility:visible;display:inline;overflow:visible;enable-background:accumulate" />
  <path
     d="M 2.7,19 16,19 16,22 3.0000009,22 2.7,19 z"
     inkscape:connector-curvature="0"
     id="rect9146"
     style="fill:url(#linearGradient8490);fill-opacity:1;fill-rule:evenodd;stroke:none;stroke-width:2.40899992;marker:none;visibility:visible;display:inline;overflow:visible" />
  <path
     d="m 2.9999999,21.999998 c 0,0 -0.1999999,-2.163497 -0.1999999,-2.163497 1.353864,1.714639 6.3193967,2.163497 9.742551,2.163497 0,0 -9.5425511,0 -9.5425511,0 z"
     inkscape:connector-curvature="0"
     id="path9148"
     style="opacity:0.81142853;fill:url(#linearGradient8487);fill-opacity:1;fill-rule:evenodd;stroke:none" />
  <path
     d="M 2.5,2 0.522616,18.483328 c -0.014949,0 -0.022616,0.0044 -0.022616,0.01667 l 23,0 c 0,-0.01232 -0.0077,-0.01667 -0.02261,-0.01667 L 21.5,2 C 21.40074,1.172599 20.333333,0.50000001 19.5,0.50000001 l -15,0 C 3.6666667,0.50000001 2.5992572,1.172599 2.5,2 z"
     inkscape:connector-curvature="0"
     id="rect2990"
     style="fill:url(#radialGradient4072);fill-opacity:1;fill-rule:nonzero;stroke:url(#linearGradient2869);stroke-width:0.99999994;stroke-linecap:round;stroke-linejoin:round;stroke-miterlimit:4;stroke-opacity:1;stroke-dasharray:none;stroke-dashoffset:0;marker:none;visibility:visible;display:inline;overflow:visible;enable-background:accumulate" />
  <path
     d="m 1.499053,18.5 21.001895,0"
     inkscape:connector-curvature="0"
     id="path2215"
     style="opacity:0.6;fill:none;stroke:#ffffff;stroke-width:0.99999994;stroke-linecap:round;stroke-linejoin:round;stroke-miterlimit:4;stroke-opacity:1;stroke-dasharray:none;display:inline" />
  <rect
     width="22"
     height="3"
     x="1"
     y="19"
     id="rect6300-3"
     style="opacity:0.2;fill:url(#radialGradient3248);fill-opacity:1;stroke:none" />
  <g
     transform="matrix(0.06610079,-0.01141585,0.00791914,0.04585394,-0.89214235,-6.4254018)"
     id="g9164">
    <path
       d="m 48.2999,190.27968 c 0.31446,4.2476 5.02375,7.71156 10.51419,7.71156 5.48794,0 9.6432,-3.46396 9.27634,-7.71156 -0.36437,-4.22514 -5.07117,-7.6367 -10.5067,-7.6367 -5.43803,0.002 -9.59329,3.41156 -9.28383,7.6367 z"
       inkscape:connector-curvature="0"
       id="path9166"
       style="fill:#e6e6e6;fill-opacity:1" />
    <path
       d="m 51.85122,187.29238 c -0.50163,0.53906 -1.07563,1.40256 -1.07563,2.55056 0,0.0824 0.005,0.16471 0.01,0.25206 0.21713,2.9274 3.89322,5.40059 8.02602,5.40059 2.3534,0 4.50465,-0.81109 5.75248,-2.17371 0.53656,-0.58149 1.148,-1.54481 1.03819,-2.82758 -0.25206,-2.90244 -3.92316,-5.35567 -8.02103,-5.35567 -2.33593,0.002 -4.47969,0.8061 -5.73001,2.15375 l -2e-5,0 z"
       inkscape:connector-curvature="0"
       id="path9168"
       style="fill:url(#radialGradient8447);fill-opacity:1" />
  </g>
  <g
     transform="matrix(0.06707933,0,0,0.04653275,15.651438,-7.2130769)"
     id="g9170">
    <path
       d="m 48.2999,190.27968 c 0.31446,4.2476 5.02375,7.71156 10.51419,7.71156 5.48794,0 9.6432,-3.46396 9.27634,-7.71156 -0.36437,-4.22514 -5.07117,-7.6367 -10.5067,-7.6367 -5.43803,0.002 -9.59329,3.41156 -9.28383,7.6367 z"
       inkscape:connector-curvature="0"
       id="path9172"
       style="fill:#e6e6e6;fill-opacity:1" />
    <path
       d="m 51.85122,187.29238 c -0.50163,0.53906 -1.07563,1.40256 -1.07563,2.55056 0,0.0824 0.005,0.16471 0.01,0.25206 0.21713,2.9274 3.89322,5.40059 8.02602,5.40059 2.3534,0 4.50465,-0.81109 5.75248,-2.17371 0.53656,-0.58149 1.148,-1.54481 1.03819,-2.82758 -0.25206,-2.90244 -3.92316,-5.35567 -8.02103,-5.35567 -2.33593,0.002 -4.47969,0.8061 -5.73001,2.15375 l -2e-5,0 z"
       inkscape:connector-curvature="0"
       id="path9174"
       style="fill:url(#radialGradient8443);fill-opacity:1" />
  </g>
  <path
     d="m 14.53125,1.8125 c -0.277487,0 -0.524679,0.080669 -0.71875,0.21875 -0.194071,0.1380809 -0.335443,0.3501636 -0.34375,0.59375 -0.02564,0.7496949 -0.408158,1.2892802 -1.125,1.78125 -0.71102,0.4879742 -1.754682,0.8998582 -3,1.28125 -0.010197,0.00312 -0.021024,-0.00312 -0.03125,0 -0.4709962,0.098904 -1.2449515,0.376082 -2,0.65625 C 6.5467846,6.627876 5.8477349,6.901852 5.53125,7.125 3.9333833,8.1304054 2.9482809,9.4666744 2.8125,10.9375 c -0.1236371,1.339128 0.479389,2.679448 1.65625,3.75 1.7216568,1.566191 4.535316,2.5 7.53125,2.5 2.995943,0 5.809394,-0.933827 7.53125,-2.5 1.074959,-0.977664 1.65625,-2.155057 1.65625,-3.375 0,-0.09948 0.0114,-0.242274 0,-0.375 C 21.06834,9.6463531 20.271626,8.4541408 19,7.5 18.96439,6.9956324 18.65625,2.625 18.65625,2.625 18.638973,2.3813174 18.480216,2.1678021 18.28125,2.03125 18.082284,1.8946979 17.839128,1.8125 17.5625,1.8125 l -3.03125,0 z m 0,0.53125 3.03125,0 c 0.06724,0 0.12597,0.018412 0.15625,0.03125 l 0.375,5.125 a 0.18751875,0.18751875 0 0 0 0,0.0625 0.18751875,0.18751875 0 0 0 0.03125,0.03125 0.18751875,0.18751875 0 0 0 0.0625,0.0625 c 1.232005,0.8428273 1.959003,2.1272478 2.0625,3.25 0.128872,1.395121 -0.699256,2.548585 -2.1875,3.40625 -1.488244,0.857665 -3.625741,1.375 -6.0625,1.375 -2.436754,0 -4.5742796,-0.517335 -6.0625,-1.375 C 4.4492796,13.454835 3.6212244,12.301377 3.75,10.90625 3.8608671,9.705693 4.7056237,8.3698014 6.09375,7.5 A 0.18751875,0.18751875 0 0 0 6.125,7.46875 C 6.1295861,7.4646691 6.1936848,7.4211298 6.28125,7.375 6.3688152,7.3288702 6.4894037,7.2799235 6.625,7.21875 6.8961926,7.096403 7.2259767,6.9543687 7.59375,6.8125 8.3292966,6.5287625 9.1621264,6.262651 9.5625,6.1875 a 0.18751875,0.18751875 0 0 0 0.03125,0 c 1.209316,-0.3682061 2.35807,-0.8065982 3.25,-1.40625 0.873851,-0.5874967 1.503327,-1.3689786 1.5625,-2.40625 0.02028,-0.00976 0.06108,-0.03125 0.125,-0.03125 z"
     inkscape:connector-curvature="0"
     id="path8469"
     style="fill:url(#radialGradient8471);fill-opacity:1" />
  <path
     d="m 11.999882,12.99994 c -1.682479,0 -2.9722688,-0.844745 -2.9994608,-1.965215 C 9.0002102,11.022185 9,11.010645 9,10.998855 9,10.5934 9.1690522,10.2078 9.4902852,9.8813062 10.033682,9.3294152 10.971891,9 12.000093,9 c 1.028,0 1.9662,0.3294152 2.509597,0.8813042 0.330721,0.3356738 0.500194,0.7346558 0.489864,1.1532668 C 14.971932,12.155054 13.682152,13 11.999882,13 l 0,-6.3e-5 z m 0.05026,-2.746049 c -1.580887,0 -2.4365112,0.210145 -2.4175362,0.974474 0.01833,0.752416 1.0781582,1.353592 2.3673172,1.353592 1.289159,0 2.348981,-0.60139 2.367315,-1.353592 0.01876,-0.76453 -0.736212,-0.974474 -2.317096,-0.974474 l 0,0 z"
     inkscape:connector-curvature="0"
     id="path9156"
     style="fill:url(#radialGradient8464);fill-opacity:1;fill-rule:nonzero;stroke-width:1;stroke-linecap:butt;stroke-linejoin:miter;stroke-miterlimit:4;stroke-opacity:1;stroke-dasharray:none;stroke-dashoffset:0;marker:none;visibility:visible;display:inline;overflow:visible;enable-background:accumulate" />
  <path
     d="M 4.96875,1.75 A 0.250025,0.250025 0 0 0 4.8125,1.875 0.250025,0.250025 0 0 0 4.78125,1.9375 L 4.71875,2.15625 3.875,5.40625 3.75,5.9375 a 0.250025,0.250025 0 0 0 0,0.09375 0.250025,0.250025 0 0 0 0.03125,0.09375 0.250025,0.250025 0 0 0 0.15625,0.125 0.250025,0.250025 0 0 0 0.125,0 l 0.40625,-0.125 6.875,-2.03125 0.03125,0 a 0.250025,0.250025 0 0 0 0.03125,0 0.250025,0.250025 0 0 0 0.03125,0 A 0.250025,0.250025 0 0 0 11.5,4.0625 C 11.960044,3.8087359 12.195214,3.3198993 12.25,2.875 12.278063,2.646761 12.258372,2.4184991 12.1875,2.21875 12.147248,2.1052472 12.061307,1.9975015 11.96875,1.90625 11.876193,1.8149985 11.757431,1.7451773 11.59375,1.75 l -0.03125,0 -6.375,0 -0.15625,0 a 0.250025,0.250025 0 0 0 -0.0625,0 z m 0.5,0.6875 5.90625,0 C 11.35969,2.51528 11.33974,2.5680551 11.3125,2.65625 11.26252,2.8180921 11.166855,2.9496143 11.1875,2.9375 L 4.9375,4.75 5.46875,2.4375 z"
     inkscape:connector-curvature="0"
     id="path8473"
     style="fill:url(#radialGradient8475);fill-opacity:1;fill-rule:nonzero;stroke:none;stroke-width:1;marker:none;visibility:visible;display:inline;overflow:visible;enable-background:accumulate" />
  <g
     transform="matrix(-0.09781119,0,0,0.1076727,8.1622105,-3.8182514)"
     id="g9158">
    <path
       d="m 48.2999,190.27968 c 0.31446,4.2476 5.02375,7.71156 10.51419,7.71156 5.48794,0 9.6432,-3.46396 9.27634,-7.71156 -0.36437,-4.22514 -5.07117,-7.6367 -10.5067,-7.6367 -5.43803,0.002 -9.59329,3.41156 -9.28383,7.6367 z"
       inkscape:connector-curvature="0"
       id="path9160"
       style="fill:#e6e6e6;fill-opacity:1" />
    <path
       d="m 51.85122,187.29238 c -0.50163,0.53906 -1.07563,1.40256 -1.07563,2.55056 0,0.0824 0.005,0.16471 0.01,0.25206 0.21713,2.9274 3.89322,5.40059 8.02602,5.40059 2.3534,0 4.50465,-0.81109 5.75248,-2.17371 0.53656,-0.58149 1.148,-1.54481 1.03819,-2.82758 -0.25206,-2.90244 -3.92316,-5.35567 -8.02103,-5.35567 -2.33593,0.002 -4.47969,0.8061 -5.73001,2.15375 l -2e-5,0 z"
       inkscape:connector-curvature="0"
       id="path9162"
       style="fill:url(#radialGradient8498);fill-opacity:1" />
  </g>
  <g
     transform="matrix(0.09781119,0,0,0.1076727,15.777316,-3.8182514)"
     id="g9190">
    <path
       d="m 48.2999,190.27968 c 0.31446,4.2476 5.02375,7.71156 10.51419,7.71156 5.48794,0 9.6432,-3.46396 9.27634,-7.71156 -0.36437,-4.22514 -5.07117,-7.6367 -10.5067,-7.6367 -5.43803,0.002 -9.59329,3.41156 -9.28383,7.6367 z"
       inkscape:connector-curvature="0"
       id="path9192"
       style="fill:#e6e6e6;fill-opacity:1" />
    <path
       d="m 51.85122,187.29238 c -0.50163,0.53906 -1.07563,1.40256 -1.07563,2.55056 0,0.0824 0.005,0.16471 0.01,0.25206 0.21713,2.9274 3.89322,5.40059 8.02602,5.40059 2.3534,0 4.50465,-0.81109 5.75248,-2.17371 0.53656,-0.58149 1.148,-1.54481 1.03819,-2.82758 -0.25206,-2.90244 -3.92316,-5.35567 -8.02103,-5.35567 -2.33593,0.002 -4.47969,0.8061 -5.73001,2.15375 l -2e-5,0 z"
       inkscape:connector-curvature="0"
       id="path9194"
       style="fill:url(#radialGradient8494);fill-opacity:1" />
  </g>
  <g
     transform="matrix(0.83549352,0,0,0.83549352,4.829013,5.6191426)"
     id="layer1">
    <path
       d="M 13.679117,12.5 22.413809,19.986728 21.203058,21.5 12.5,13.401362 13.679117,12.5 z"
       inkscape:connector-curvature="0"
       id="path11112"
       style="fill:url(#linearGradient2541);fill-opacity:1;fill-rule:evenodd;stroke:url(#linearGradient2543);stroke-width:1;stroke-linecap:round;stroke-linejoin:round;stroke-miterlimit:4;stroke-opacity:1;stroke-dasharray:none;display:inline" />
    <path
       d="m 21.217785,21.008568 -7.005051,-8.044248 8.475248,6.849559 -1.470197,1.194689 z"
       inkscape:connector-curvature="0"
       id="path11122"
       style="fill:url(#linearGradient2538);fill-opacity:1;fill-rule:evenodd;stroke:none;display:inline" />
    <path
       d="m 247.90924,110.29199 a 4.86685,2.6562012 0 1 1 -9.7337,0 4.86685,2.6562012 0 1 1 9.7337,0 z"
       inkscape:connector-curvature="0"
       transform="matrix(0.1837074,-0.1915779,0.2354746,0.1427652,-48.692604,51.644667)"
       id="path13082"
       style="fill:#3e3e3e;fill-opacity:1;stroke:none;display:inline" />
    <path
       d="m 25.897786,18.478292 a 8.3085051,8.3085051 0 1 1 -16.61701,0 8.3085051,8.3085051 0 1 1 16.61701,0 z"
       inkscape:connector-curvature="0"
       transform="matrix(0.7030485,0,0,0.6866873,-3.2377028,-4.4914744)"
       id="path4452"
       style="opacity:0.4;fill:url(#radialGradient2514);fill-opacity:1;fill-rule:evenodd;stroke:none;stroke-width:0.88163906;marker:none;visibility:visible;display:inline" />
    <path
       d="m 8.8877932,3.285826 c -2.9122238,0 -5.2704608,2.112213 -5.2704608,4.7206197 0,0.7533185 0.065298,1.5314093 0.4158554,2.1635933 0.7003648,0.231216 1.6140995,0.303562 2.4037328,0.303562 3.4509655,0 6.4192074,-2.5625743 6.6321734,-5.6057008 C 12.101092,3.8433232 10.502538,3.285826 8.8877932,3.285826 z"
       inkscape:connector-curvature="0"
       id="path4462"
       style="opacity:0.6;fill:url(#radialGradient2533);fill-opacity:1;fill-rule:evenodd;stroke:none;stroke-width:1;marker:none;visibility:visible;display:inline;overflow:visible" />
    <path
       d="M 9.0000005,2.5 C 5.4126135,2.5 2.499998,5.1886101 2.5,8.4999999 2.5,11.811391 5.4126135,14.5 9.0000005,14.5 12.587385,14.5 15.5,11.811391 15.5,8.4999999 15.5,5.1886101 12.587386,2.5 9.0000005,2.5 z m 0.077451,0.3936385 c 3.2107345,0 5.8208075,2.4040776 5.8208075,5.3677935 0,2.963715 -2.610073,5.367794 -5.8208075,5.367794 -3.2107343,0 -5.8148483,-2.404078 -5.8148483,-5.367794 0,-2.9637159 2.604114,-5.3677935 5.8148483,-5.3677935 z"
       inkscape:connector-curvature="0"
       id="path2298"
       style="fill:url(#linearGradient2528);fill-opacity:1;stroke:url(#linearGradient2530);stroke-width:1;stroke-linecap:round;stroke-linejoin:round;stroke-miterlimit:4;stroke-opacity:1;stroke-dasharray:none;display:inline" />
    <path
       d="m 9.0417066,2.6729635 c -3.4164491,0 -6.1842359,2.5601138 -6.1842359,5.7137188 0,3.1536037 2.7677849,5.7137167 6.1842359,5.7137167 3.4164494,0 6.1901934,-2.560114 6.1901934,-5.7137167 0,-3.153605 -2.773746,-5.7137188 -6.1901934,-5.7137188 z m 0.035747,0.220676 c 3.2107324,0 5.5661824,2.4040786 5.5661824,5.3677936 0,2.9637149 -2.35545,5.1128949 -5.5661824,5.1128949 -3.2107351,0 -5.6026612,-2.149179 -5.6026612,-5.1128949 0,-2.963715 2.3919261,-5.3677936 5.6026612,-5.3677936 z"
       inkscape:connector-curvature="0"
       id="path4267"
       style="fill:url(#linearGradient3128);fill-opacity:1;stroke:none;display:inline" />
  </g>
</svg>
