<?xml version="1.0" encoding="UTF-8" standalone="no"?>
<!-- Created with Inkscape (http://www.inkscape.org/) -->

<svg
   xmlns:dc="http://purl.org/dc/elements/1.1/"
   xmlns:cc="http://creativecommons.org/ns#"
   xmlns:rdf="http://www.w3.org/1999/02/22-rdf-syntax-ns#"
   xmlns:svg="http://www.w3.org/2000/svg"
   xmlns="http://www.w3.org/2000/svg"
   xmlns:xlink="http://www.w3.org/1999/xlink"
   xmlns:sodipodi="http://sodipodi.sourceforge.net/DTD/sodipodi-0.dtd"
   xmlns:inkscape="http://www.inkscape.org/namespaces/inkscape"
   width="22"
   height="22"
   id="svg3866"
   version="1.1"
   inkscape:version="0.48.1 r9760"
   sodipodi:docname="empathy.svg">
  <defs
     id="defs3868">
    <linearGradient
       inkscape:collect="always"
       xlink:href="#linearGradient3922"
       id="linearGradient3939"
       gradientUnits="userSpaceOnUse"
       x1="22.642942"
       y1="26.966721"
       x2="22.642942"
       y2="30.98424"
       gradientTransform="matrix(0.35715575,0,0,0.36260926,2.5386477,13.03948)" />
    <linearGradient
       inkscape:collect="always"
       id="linearGradient3922">
      <stop
         style="stop-color:#000000;stop-opacity:1;"
         offset="0"
         id="stop3924" />
      <stop
         style="stop-color:#000000;stop-opacity:0;"
         offset="1"
         id="stop3926" />
    </linearGradient>
    <linearGradient
       inkscape:collect="always"
       xlink:href="#linearGradient3922"
       id="linearGradient3802"
       gradientUnits="userSpaceOnUse"
       gradientTransform="matrix(0.46671968,0,0,0.47309918,1.0426046,24.599019)"
       x1="22.642942"
       y1="26.966721"
       x2="22.642942"
       y2="30.98424" />
    <linearGradient
       inkscape:collect="always"
       xlink:href="#linearGradient3707-319-631-407-324-3-8"
       id="linearGradient3900"
       x1="25.845604"
       y1="43.546593"
       x2="25.845604"
       y2="2.8090379"
       gradientUnits="userSpaceOnUse"
       gradientTransform="matrix(0.46671971,0,0,0.4730992,-0.20134603,9.507091)" />
    <linearGradient
       id="linearGradient3707-319-631-407-324-3-8">
      <stop
         id="stop3760-7-3"
         style="stop-color:#185f9a;stop-opacity:1;"
         offset="0" />
      <stop
         id="stop3762-8-4"
         style="stop-color:#599ec9;stop-opacity:1;"
         offset="1" />
    </linearGradient>
    <linearGradient
       inkscape:collect="always"
       xlink:href="#linearGradient3882"
       id="linearGradient3792"
       gradientUnits="userSpaceOnUse"
       gradientTransform="matrix(0.46671968,0,0,0.47309918,1.0426046,24.599019)"
       x1="23.184526"
       y1="4.0244036"
       x2="23.184526"
       y2="42.351448" />
    <linearGradient
       id="linearGradient3882">
      <stop
         offset="0"
         style="stop-color:#ffffff;stop-opacity:1;"
         id="stop3884" />
      <stop
         id="stop3886"
         style="stop-color:#ffffff;stop-opacity:0.23529412;"
         offset="0.4393521" />
      <stop
         offset="0.83473867"
         style="stop-color:#ffffff;stop-opacity:0.15686275;"
         id="stop3888" />
      <stop
         offset="1"
         style="stop-color:#ffffff;stop-opacity:0.39215687;"
         id="stop3890" />
    </linearGradient>
    <radialGradient
       inkscape:collect="always"
       xlink:href="#linearGradient3725-941-985"
       id="radialGradient3798"
       gradientUnits="userSpaceOnUse"
       gradientTransform="matrix(0.1527556,-0.1075382,0.05629658,0.08216909,-10.683103,50.211965)"
       cx="92.339943"
       cy="25.526768"
       fx="92.339943"
       fy="25.526768"
       r="23" />
    <linearGradient
       id="linearGradient3725-941-985">
      <stop
         id="stop4651"
         style="stop-color:#54e1fa;stop-opacity:1"
         offset="0" />
      <stop
         id="stop4653"
         style="stop-color:#05a4dd;stop-opacity:0"
         offset="1" />
    </linearGradient>
    <radialGradient
       inkscape:collect="always"
       xlink:href="#linearGradient2867-449-88-871-390-598-476-591-434-148-57-177-3-8"
       id="radialGradient2897"
       gradientUnits="userSpaceOnUse"
       gradientTransform="matrix(0,0.83755753,-0.69456998,0,13.877957,-5.7026367)"
       cx="20.248743"
       cy="4.9115634"
       fx="20.248743"
       fy="4.9115634"
       r="23" />
    <linearGradient
       id="linearGradient2867-449-88-871-390-598-476-591-434-148-57-177-3-8">
      <stop
         id="stop3750-8-9"
         style="stop-color:#90dbec;stop-opacity:1;"
         offset="0" />
      <stop
         id="stop3752-3-2"
         style="stop-color:#55c1ec;stop-opacity:1;"
         offset="0.26238" />
      <stop
         id="stop3754-7-2"
         style="stop-color:#3689e6;stop-opacity:1;"
         offset="0.704952" />
      <stop
         id="stop3756-9-3"
         style="stop-color:#2b63a0;stop-opacity:1;"
         offset="1" />
    </linearGradient>
    <linearGradient
       inkscape:collect="always"
       xlink:href="#linearGradient3707-319-631-407-324-3-8"
       id="linearGradient2899"
       gradientUnits="userSpaceOnUse"
       x1="18.138792"
       y1="45.21809"
       x2="18.138792"
       y2="2.9999995"
       gradientTransform="matrix(0.46671968,0,0,0.47309918,-0.20134603,9.842951)" />
  </defs>
  <sodipodi:namedview
     id="base"
     pagecolor="#ffffff"
     bordercolor="#666666"
     borderopacity="1.0"
     inkscape:pageopacity="0.0"
     inkscape:pageshadow="2"
     inkscape:zoom="11.197802"
     inkscape:cx="16.26791"
     inkscape:cy="16"
     inkscape:current-layer="layer1"
     showgrid="true"
     inkscape:grid-bbox="true"
     inkscape:document-units="px"
     inkscape:window-width="1920"
     inkscape:window-height="1027"
     inkscape:window-x="0"
     inkscape:window-y="24"
     inkscape:window-maximized="1" />
  <metadata
     id="metadata3871">
    <rdf:RDF>
      <cc:Work
         rdf:about="">
        <dc:format>image/svg+xml</dc:format>
        <dc:type
           rdf:resource="http://purl.org/dc/dcmitype/StillImage" />
        <dc:title />
      </cc:Work>
    </rdf:RDF>
  </metadata>
  <g
     id="layer1"
     inkscape:label="Layer 1"
     inkscape:groupmode="layer"
     transform="translate(0,-10)">
    <path
       inkscape:connector-curvature="0"
       style="fill:url(#radialGradient2897);fill-opacity:1;fill-rule:evenodd;stroke:url(#linearGradient2899);stroke-width:0.9952504;stroke-linecap:butt;stroke-linejoin:round;stroke-miterlimit:4;stroke-opacity:1;stroke-dasharray:none;stroke-dashoffset:0;marker:none;visibility:visible;display:inline;overflow:visible"
       id="path6145"
       d="m 9.5123409,11.632848 c -5.3756677,0.803376 -9.35333579,4.557817 -8.99192119,8.622884 0.2340314,2.632296 2.22715379,4.798903 5.07739709,5.942033 l -0.959725,3.790741 c 0,0 -0.1024095,0.354891 0.044586,0.480262 0.1469943,0.125368 0.5010311,-0.140395 0.5010311,-0.140395 l 4.48766,-3.289943 0.03638,-0.0034 c 0.6495271,0.03147 1.3020671,0.04191 1.9792191,-0.02072 5.778352,-0.534391 10.171631,-4.431935 9.792439,-8.696921 -0.379189,-4.264987 -5.388202,-7.293 -11.166555,-6.758614 -0.27086,0.02505 -0.5361381,0.03452 -0.8005171,0.07402 z"
       sodipodi:nodetypes="sscczcccssss" />
    <path
       transform="translate(-1.2439506,-14.756068)"
       sodipodi:type="inkscape:offset"
       inkscape:radius="-0.31978282"
       inkscape:original="M 13.65625 26.46875 C 12.977113 26.42944 12.275848 26.46529 11.5625 26.53125 C 11.283922 26.55701 11.030184 26.55655 10.78125 26.59375 C 8.1326654 26.989572 5.8370334 28.11296 4.25 29.625 C 2.6629671 31.137041 1.794754 33.042951 1.96875 35 C 2.1940777 37.534399 4.1091251 39.628172 6.90625 40.75 A 0.2100306 0.21290146 0 0 1 6.96875 40.78125 A 0.2100306 0.21290146 0 0 1 7 40.8125 A 0.2100306 0.21290146 0 0 1 7.03125 40.84375 A 0.2100306 0.21290146 0 0 1 7.0625 40.90625 A 0.2100306 0.21290146 0 0 1 7.0625 40.96875 A 0.2100306 0.21290146 0 0 1 7.0625 41 L 6 45.125 L 10.8125 41.625 A 0.2100306 0.21290146 0 0 1 10.84375 41.59375 A 0.2100306 0.21290146 0 0 1 10.90625 41.59375 L 10.9375 41.59375 A 0.2100306 0.21290146 0 0 1 10.96875 41.59375 C 11.611868 41.62491 12.241656 41.62397 12.90625 41.5625 C 15.754271 41.29911 18.26274 40.195843 20 38.65625 C 21.737259 37.11666 22.713812 35.147131 22.53125 33.09375 C 22.371526 31.297187 21.361611 29.701751 19.78125 28.53125 C 18.20089 27.360747 16.037301 26.606586 13.65625 26.46875 z "
       style="fill:url(#radialGradient3798);fill-opacity:1;fill-rule:evenodd;stroke:none;stroke-width:0.99525028;marker:none;visibility:visible;display:inline;overflow:visible"
       id="path3794"
       d="m 13.625,26.78125 c -0.655261,-0.03793 -1.326457,-0.0027 -2.03125,0.0625 -0.296653,0.02743 -0.532862,0.03005 -0.75,0.0625 -2.5878229,0.386741 -4.8421979,1.477129 -6.375,2.9375 -1.5320392,1.459646 -2.3515642,3.27966 -2.1875,5.125 0.2125496,2.390675 2.0336612,4.410572 4.75,5.5 A 0.3198148,0.3198148 0 0 1 7.15625,40.5625 0.3198148,0.3198148 0 0 1 7.09375,41 L 7.375,41.09375 6.53125,44.34375 10.625,41.375 a 0.3198148,0.3198148 0 0 1 0.0625,-0.03125 0.3198148,0.3198148 0 0 1 0.03125,-0.03125 0.3198148,0.3198148 0 0 1 0.0625,0 0.3198148,0.3198148 0 0 1 0.03125,0 0.3198148,0.3198148 0 0 1 0.03125,-0.03125 0.3198148,0.3198148 0 0 1 0.0625,0 l 0.03125,0 a 0.3198148,0.3198148 0 0 1 0.03125,0 c 0.02074,0.001 0.0418,-9.36e-4 0.0625,0 0.610817,0.02761 1.218496,0.02658 1.84375,-0.03125 2.783629,-0.257435 5.226592,-1.355205 6.90625,-2.84375 1.680464,-1.489258 2.609556,-3.346034 2.4375,-5.28125 -0.150673,-1.694763 -1.103962,-3.217187 -2.625,-4.34375 -1.520976,-1.12652 -3.643727,-1.865407 -5.96875,-2 z" />
    <path
       sodipodi:type="inkscape:offset"
       inkscape:radius="-0.56859761"
       inkscape:original="M 11.59375 26.78125 C 11.353244 26.8035 11.109788 26.80909 10.875 26.84375 C 6.1009819 27.548551 1.9179748 30.690016 2.25 34.9375 C 2.4730111 37.790401 4.6522087 39.725021 7.375 40.625 L 6.46875 44.4375 L 10.75 41.3125 C 11.326514 41.33789 12.211232 41.39936 12.8125 41.34375 C 17.358756 40.923307 22.661956 37.505521 22.28125 33.25 C 21.875611 28.743233 16.559901 26.321974 11.59375 26.78125 z "
       style="opacity:0.4;fill:none;stroke:url(#linearGradient3792);stroke-width:0.99355257;stroke-linecap:butt;stroke-linejoin:miter;stroke-miterlimit:4;stroke-opacity:1;stroke-dasharray:none;stroke-dashoffset:0;marker:none;visibility:visible;display:inline;overflow:visible"
       id="path3790"
       d="m 11.65625,27.34375 c -0.266855,0.02469 -0.500152,0.03484 -0.6875,0.0625 C 8.6787537,27.744328 6.5313884,28.684075 5.03125,30 3.5311116,31.315925 2.6617943,32.978324 2.8125,34.90625 c 0.2021393,2.585896 2.1719144,4.335351 4.75,5.1875 A 0.56865447,0.56865447 0 0 1 7.9375,40.75 l -0.53125,2.28125 3,-2.1875 a 0.56865447,0.56865447 0 0 1 0.375,-0.09375 c 0.591269,0.02604 1.456675,0.07861 1.96875,0.03125 2.152637,-0.199078 4.531404,-1.136374 6.28125,-2.5 1.749846,-1.363626 2.85577,-3.087832 2.6875,-4.96875 -0.183755,-2.041575 -1.462015,-3.61092 -3.34375,-4.65625 -1.881735,-1.04533 -4.345432,-1.531987 -6.71875,-1.3125 z"
       transform="matrix(1.0034207,0,0,1,-1.3076567,-14.756068)" />
  </g>
</svg>
