<?xml version="1.0" encoding="UTF-8" standalone="no"?>
<!-- Created with Inkscape (http://www.inkscape.org/) -->

<svg
   xmlns:dc="http://purl.org/dc/elements/1.1/"
   xmlns:cc="http://creativecommons.org/ns#"
   xmlns:rdf="http://www.w3.org/1999/02/22-rdf-syntax-ns#"
   xmlns:svg="http://www.w3.org/2000/svg"
   xmlns="http://www.w3.org/2000/svg"
   xmlns:xlink="http://www.w3.org/1999/xlink"
   xmlns:sodipodi="http://sodipodi.sourceforge.net/DTD/sodipodi-0.dtd"
   xmlns:inkscape="http://www.inkscape.org/namespaces/inkscape"
   version="1.1"
   width="24"
   height="24"
   id="svg3426"
   inkscape:version="0.48.4 r9939"
   sodipodi:docname="3.svg">
  <sodipodi:namedview
     pagecolor="#ffffff"
     bordercolor="#666666"
     borderopacity="1"
     objecttolerance="10"
     gridtolerance="10"
     guidetolerance="10"
     inkscape:pageopacity="0"
     inkscape:pageshadow="2"
     inkscape:window-width="1855"
     inkscape:window-height="1056"
     id="namedview58"
     showgrid="true"
     inkscape:zoom="30.908285"
     inkscape:cx="3.6871376"
     inkscape:cy="13.132967"
     inkscape:window-x="65"
     inkscape:window-y="24"
     inkscape:window-maximized="1"
     inkscape:current-layer="svg3426"
     inkscape:snap-global="false"
     showguides="true"
     inkscape:guide-bbox="true">
    <inkscape:grid
       type="xygrid"
       id="grid3860" />
  </sodipodi:namedview>
  <defs
     id="defs3428">
    <radialGradient
       cx="4.9929786"
       cy="43.5"
       r="2.5"
       fx="4.9929786"
       fy="43.5"
       id="radialGradient3152"
       xlink:href="#linearGradient3688-166-749"
       gradientUnits="userSpaceOnUse"
       gradientTransform="matrix(2.003784,0,0,1.4,27.98813,-17.4)" />
    <linearGradient
       id="linearGradient3688-166-749">
      <stop
         id="stop2883"
         style="stop-color:#181818;stop-opacity:1"
         offset="0" />
      <stop
         id="stop2885"
         style="stop-color:#181818;stop-opacity:0"
         offset="1" />
    </linearGradient>
    <radialGradient
       cx="4.9929786"
       cy="43.5"
       r="2.5"
       fx="4.9929786"
       fy="43.5"
       id="radialGradient3154"
       xlink:href="#linearGradient3688-464-309"
       gradientUnits="userSpaceOnUse"
       gradientTransform="matrix(2.003784,0,0,1.4,-20.01187,-104.4)" />
    <linearGradient
       id="linearGradient3688-464-309">
      <stop
         id="stop2889"
         style="stop-color:#181818;stop-opacity:1"
         offset="0" />
      <stop
         id="stop2891"
         style="stop-color:#181818;stop-opacity:0"
         offset="1" />
    </linearGradient>
    <linearGradient
       x1="25.058096"
       y1="47.027729"
       x2="25.058096"
       y2="39.999443"
       id="linearGradient3156"
       xlink:href="#linearGradient3702-501-757"
       gradientUnits="userSpaceOnUse" />
    <linearGradient
       id="linearGradient3702-501-757">
      <stop
         id="stop2895"
         style="stop-color:#181818;stop-opacity:0"
         offset="0" />
      <stop
         id="stop2897"
         style="stop-color:#181818;stop-opacity:1"
         offset="0.5" />
      <stop
         id="stop2899"
         style="stop-color:#181818;stop-opacity:0"
         offset="1" />
    </linearGradient>
    <linearGradient
       id="linearGradient3680-6-6-6-3-7-4">
      <stop
         id="stop3682-4-6-1-3-7-5"
         style="stop-color:#dcdcdc;stop-opacity:1"
         offset="0" />
      <stop
         id="stop3684-8-5-8-0-2-3"
         style="stop-color:#ffffff;stop-opacity:1"
         offset="1" />
    </linearGradient>
    <linearGradient
       inkscape:collect="always"
       xlink:href="#linearGradient3680-6-6-6-3-7-4"
       id="linearGradient3875"
       gradientUnits="userSpaceOnUse"
       gradientTransform="matrix(0.46525496,0,0,0.46525496,0.2208768,-0.3282085)"
       x1="20"
       y1="26.000008"
       x2="20"
       y2="13.000008" />
    <linearGradient
       inkscape:collect="always"
       xlink:href="#linearGradient3680-6-6-6-3-7-4"
       id="linearGradient3880"
       gradientUnits="userSpaceOnUse"
       gradientTransform="matrix(0.66257291,0,0,0.66257291,-2.4539575,-4.5672473)"
       x1="20"
       y1="26.000008"
       x2="20"
       y2="13.000008" />
    <linearGradient
       id="linearGradient3924-0">
      <stop
         offset="0"
         style="stop-color:#ffffff;stop-opacity:1"
         id="stop3926-6" />
      <stop
         offset="0.06316455"
         style="stop-color:#ffffff;stop-opacity:0.23529412"
         id="stop3928-3" />
      <stop
         offset="0.95056331"
         style="stop-color:#ffffff;stop-opacity:0.15686275"
         id="stop3930-2" />
      <stop
         offset="1"
         style="stop-color:#ffffff;stop-opacity:0.39215687"
         id="stop3932-62" />
    </linearGradient>
    <linearGradient
       id="linearGradient2867-449-88-871-390-598-476-591-434-148-57-177-8-3-3-6-4-8-8-8-5-6-7">
      <stop
         offset="0"
         style="stop-color:#505050;stop-opacity:1"
         id="stop3750-1-0-7-6-6-1-3-9-3-0-9" />
      <stop
         offset="0.26238"
         style="stop-color:#2b2b2b;stop-opacity:1"
         id="stop3752-3-7-4-0-32-8-923-0-7-7-5" />
      <stop
         offset="0.704952"
         style="stop-color:#0a0a0a;stop-opacity:1"
         id="stop3754-1-8-5-2-7-6-7-1-9-1-6" />
      <stop
         offset="1"
         style="stop-color:#000000;stop-opacity:1"
         id="stop3756-1-6-2-6-6-1-96-6-0-6-5" />
    </linearGradient>
    <radialGradient
       r="12.671875"
       fy="9.9571075"
       fx="7.1183534"
       cy="9.9571075"
       cx="7.1183534"
       gradientTransform="matrix(0,4.4529398,-5.4667877,0,66.838269,-38.124667)"
       gradientUnits="userSpaceOnUse"
       id="radialGradient3173"
       xlink:href="#linearGradient2867-449-88-871-390-598-476-591-434-148-57-177-8-3-3-6-4-8-8-8-5-6-7"
       inkscape:collect="always" />
    <linearGradient
       inkscape:collect="always"
       xlink:href="#linearGradient3924-0"
       id="linearGradient3203"
       gradientUnits="userSpaceOnUse"
       gradientTransform="matrix(0.62162164,0,0,0.62162164,27.298203,-6.3512651)"
       x1="23.99999"
       y1="4.999989"
       x2="23.99999"
       y2="43" />
    <linearGradient
       id="linearGradient3924-64">
      <stop
         id="stop3926-3-6"
         style="stop-color:#ffffff;stop-opacity:1"
         offset="0" />
      <stop
         id="stop3928-0"
         style="stop-color:#ffffff;stop-opacity:0.23529412"
         offset="0.06316455" />
      <stop
         id="stop3930-3-59"
         style="stop-color:#ffffff;stop-opacity:0.15686275"
         offset="0.95056331" />
      <stop
         id="stop3932-0"
         style="stop-color:#ffffff;stop-opacity:0.39215687"
         offset="1" />
    </linearGradient>
    <linearGradient
       y2="43"
       x2="23.99999"
       y1="4.999989"
       x1="23.99999"
       gradientTransform="matrix(0.45945947,0,0,0.45945947,0.9742189,0.9717506)"
       gradientUnits="userSpaceOnUse"
       id="linearGradient3101"
       xlink:href="#linearGradient3924-64"
       inkscape:collect="always" />
    <linearGradient
       inkscape:collect="always"
       xlink:href="#linearGradient3680-6-6-6-3-7-1"
       id="linearGradient3823"
       x1="38"
       y1="44"
       x2="38"
       y2="26"
       gradientUnits="userSpaceOnUse"
       gradientTransform="matrix(0.45133155,0,0,0.45133155,-2.5395491,-2.3906906)" />
    <linearGradient
       id="linearGradient3680-6-6-6-3-7-1">
      <stop
         id="stop3682-4-6-1-3-7-7"
         style="stop-color:#dcdcdc;stop-opacity:1"
         offset="0" />
      <stop
         id="stop3684-8-5-8-0-2-6"
         style="stop-color:#ffffff;stop-opacity:1"
         offset="1" />
    </linearGradient>
    <linearGradient
       inkscape:collect="always"
       xlink:href="#linearGradient3680-6-6-6-3-7-1"
       id="linearGradient3815"
       x1="26"
       y1="40"
       x2="26"
       y2="23"
       gradientUnits="userSpaceOnUse"
       gradientTransform="matrix(0.45133155,0,0,0.45133155,-2.5395491,-2.3906895)" />
    <linearGradient
       id="linearGradient3049">
      <stop
         id="stop3051"
         style="stop-color:#dcdcdc;stop-opacity:1"
         offset="0" />
      <stop
         id="stop3053"
         style="stop-color:#ffffff;stop-opacity:1"
         offset="1" />
    </linearGradient>
    <linearGradient
       id="linearGradient3977-6-8-3-1">
      <stop
         id="stop3979-4-0-4-4"
         style="stop-color:#ffffff;stop-opacity:1"
         offset="0" />
      <stop
         id="stop3981-5-2-9-2"
         style="stop-color:#ffffff;stop-opacity:0.23529412"
         offset="0.03626217" />
      <stop
         id="stop3983-8-2-4-8"
         style="stop-color:#ffffff;stop-opacity:0.15686275"
         offset="0.95056331" />
      <stop
         id="stop3985-9-7-7-3"
         style="stop-color:#ffffff;stop-opacity:0.39215687"
         offset="1" />
    </linearGradient>
    <radialGradient
       r="18.246725"
       fy="-3.8301377"
       fx="19.556362"
       cy="-3.8301377"
       cx="19.556362"
       gradientTransform="matrix(3.966732e-8,1.9591783,-2.4502105,2.2759589e-8,19.898141,-16.457283)"
       gradientUnits="userSpaceOnUse"
       id="radialGradient3397"
       xlink:href="#linearGradient2867-449-88-871-390-598-476-591-434-148-57-177-8-3-7-6-4"
       inkscape:collect="always" />
    <linearGradient
       id="linearGradient2867-449-88-871-390-598-476-591-434-148-57-177-8-3-7-6-4">
      <stop
         id="stop3750-1-0-5-3-2"
         style="stop-color:#bfbfbf;stop-opacity:1;"
         offset="0" />
      <stop
         id="stop3752-3-7-3-5-9"
         style="stop-color:#9e9e9e;stop-opacity:1;"
         offset="0.26238" />
      <stop
         id="stop3754-1-8-9-4-2"
         style="stop-color:#565656;stop-opacity:1;"
         offset="0.704952" />
      <stop
         id="stop3756-1-6-2-8-2"
         style="stop-color:#313131;stop-opacity:1;"
         offset="1" />
    </linearGradient>
    <linearGradient
       y2="0.11503056"
       x2="25"
       y1="43"
       x1="25"
       gradientTransform="matrix(0.5451827,0,0,0.43228298,18.3796,25.378427)"
       gradientUnits="userSpaceOnUse"
       id="linearGradient3399"
       xlink:href="#linearGradient2490-3-9-0-3-1-0-1"
       inkscape:collect="always" />
    <linearGradient
       id="linearGradient2490-3-9-0-3-1-0-1">
      <stop
         id="stop2492-7-7-4-7-3-3-4"
         style="stop-color:#313131;stop-opacity:1;"
         offset="0" />
      <stop
         id="stop2494-4-8-6-8-8-8-5"
         style="stop-color:#6e6e6e;stop-opacity:1;"
         offset="1" />
    </linearGradient>
    <radialGradient
       r="12.671875"
       fy="9.9571075"
       fx="7.1183534"
       cy="9.9571075"
       cx="7.1183534"
       gradientTransform="matrix(0,4.4529398,-5.4667877,0,66.838269,-38.124667)"
       gradientUnits="userSpaceOnUse"
       id="radialGradient3173-5"
       xlink:href="#linearGradient2867-449-88-871-390-598-476-591-434-148-57-177-8-3-3-6-4-8-8-8-5-6-7-3"
       inkscape:collect="always" />
    <linearGradient
       id="linearGradient2867-449-88-871-390-598-476-591-434-148-57-177-8-3-3-6-4-8-8-8-5-6-7-3">
      <stop
         offset="0"
         style="stop-color:#505050;stop-opacity:1"
         id="stop3750-1-0-7-6-6-1-3-9-3-0-9-1" />
      <stop
         offset="0.26238"
         style="stop-color:#2b2b2b;stop-opacity:1"
         id="stop3752-3-7-4-0-32-8-923-0-7-7-5-7" />
      <stop
         offset="0.704952"
         style="stop-color:#0a0a0a;stop-opacity:1"
         id="stop3754-1-8-5-2-7-6-7-1-9-1-6-3" />
      <stop
         offset="1"
         style="stop-color:#000000;stop-opacity:1"
         id="stop3756-1-6-2-6-6-1-96-6-0-6-5-3" />
    </linearGradient>
    <radialGradient
       r="12.671875"
       fy="9.9571075"
       fx="7.1183534"
       cy="9.9571075"
       cx="7.1183534"
       gradientTransform="matrix(0,4.2651692,-5.2362377,0,64.526431,-36.011831)"
       gradientUnits="userSpaceOnUse"
       id="radialGradient3126"
       xlink:href="#linearGradient2867-449-88-871-390-598-476-591-434-148-57-177-8-3-3-6-4-8-8-8-5-6-7-3"
       inkscape:collect="always" />
    <radialGradient
       inkscape:collect="always"
       xlink:href="#linearGradient2867-449-88-871-390-598-476-591-434-148-57-177-8-3-7-6-4"
       id="radialGradient3925"
       cx="12"
       cy="12"
       fx="12"
       fy="12"
       r="9"
       gradientUnits="userSpaceOnUse" />
    <radialGradient
       inkscape:collect="always"
       xlink:href="#linearGradient2867-449-88-871-390-598-476-591-434-148-57-177-8-3-3-6-4-8-8-8-5-6-7-3"
       id="radialGradient3945"
       gradientUnits="userSpaceOnUse"
       gradientTransform="matrix(0,4.2651692,-5.2362377,0,64.526431,-36.011831)"
       cx="7.1183534"
       cy="9.9571075"
       fx="7.1183534"
       fy="9.9571075"
       r="12.671875" />
    <radialGradient
       inkscape:collect="always"
       xlink:href="#linearGradient2867-449-88-871-390-598-476-591-434-148-57-177-8-3-3-6-4-8-8-8-5-6-7-3"
       id="radialGradient3949"
       gradientUnits="userSpaceOnUse"
       gradientTransform="matrix(0,4.2651692,-5.2362377,0,64.526431,-36.011831)"
       cx="7.1183534"
       cy="9.9571075"
       fx="7.1183534"
       fy="9.9571075"
       r="12.671875" />
    <radialGradient
       inkscape:collect="always"
       xlink:href="#linearGradient2867-449-88-871-390-598-476-591-434-148-57-177-8-3-3-6-4-8-8-8-5-6-7-3"
       id="radialGradient3964"
       gradientUnits="userSpaceOnUse"
       gradientTransform="matrix(0,4.2651692,-5.2362377,0,64.526431,-36.011831)"
       cx="7.1183534"
       cy="9.9571075"
       fx="7.1183534"
       fy="9.9571075"
       r="12.671875" />
    <radialGradient
       inkscape:collect="always"
       xlink:href="#linearGradient3242-7-5-0-3"
       id="radialGradient3967"
       gradientUnits="userSpaceOnUse"
       gradientTransform="matrix(-3.1453179e-4,4.455429,-5.4701594,-3.5723803e-4,66.865007,-38.188881)"
       cx="7.1183534"
       cy="9.9571075"
       fx="7.1183534"
       fy="9.9571075"
       r="12.671875" />
    <radialGradient
       cx="4.9929786"
       cy="43.5"
       r="2.5"
       fx="4.9929786"
       fy="43.5"
       id="radialGradient3152-7"
       xlink:href="#linearGradient3688-166-749-0"
       gradientUnits="userSpaceOnUse"
       gradientTransform="matrix(2.003784,0,0,1.4,27.98813,-17.4)" />
    <linearGradient
       id="linearGradient3688-166-749-0">
      <stop
         id="stop2883-1"
         style="stop-color:#181818;stop-opacity:1"
         offset="0" />
      <stop
         id="stop2885-4"
         style="stop-color:#181818;stop-opacity:0"
         offset="1" />
    </linearGradient>
    <radialGradient
       cx="4.9929786"
       cy="43.5"
       r="2.5"
       fx="4.9929786"
       fy="43.5"
       id="radialGradient3154-6"
       xlink:href="#linearGradient3688-464-309-2"
       gradientUnits="userSpaceOnUse"
       gradientTransform="matrix(2.003784,0,0,1.4,-20.01187,-104.4)" />
    <linearGradient
       id="linearGradient3688-464-309-2">
      <stop
         id="stop2889-5"
         style="stop-color:#181818;stop-opacity:1"
         offset="0" />
      <stop
         id="stop2891-7"
         style="stop-color:#181818;stop-opacity:0"
         offset="1" />
    </linearGradient>
    <linearGradient
       x1="25.058096"
       y1="47.027729"
       x2="25.058096"
       y2="39.999443"
       id="linearGradient3156-2"
       xlink:href="#linearGradient3702-501-757-2"
       gradientUnits="userSpaceOnUse" />
    <linearGradient
       id="linearGradient3702-501-757-2">
      <stop
         id="stop2895-9"
         style="stop-color:#181818;stop-opacity:0"
         offset="0" />
      <stop
         id="stop2897-9"
         style="stop-color:#181818;stop-opacity:1"
         offset="0.5" />
      <stop
         id="stop2899-8"
         style="stop-color:#181818;stop-opacity:0"
         offset="1" />
    </linearGradient>
    <radialGradient
       r="12.671875"
       fy="9.9571075"
       fx="7.1183534"
       cy="9.9571075"
       cx="7.1183534"
       gradientTransform="matrix(0,4.4529398,-5.4667877,0,45.480964,-38.707398)"
       gradientUnits="userSpaceOnUse"
       id="radialGradient3173-3"
       xlink:href="#linearGradient2867-449-88-871-390-598-476-591-434-148-57-177-8-3-3-6-4-8-8-8-5-6-7-9"
       inkscape:collect="always" />
    <linearGradient
       id="linearGradient2867-449-88-871-390-598-476-591-434-148-57-177-8-3-3-6-4-8-8-8-5-6-7-9">
      <stop
         offset="0"
         style="stop-color:#505050;stop-opacity:1"
         id="stop3750-1-0-7-6-6-1-3-9-3-0-9-3" />
      <stop
         offset="0.26238"
         style="stop-color:#2b2b2b;stop-opacity:1"
         id="stop3752-3-7-4-0-32-8-923-0-7-7-5-8" />
      <stop
         offset="0.704952"
         style="stop-color:#0a0a0a;stop-opacity:1"
         id="stop3754-1-8-5-2-7-6-7-1-9-1-6-0" />
      <stop
         offset="1"
         style="stop-color:#000000;stop-opacity:1"
         id="stop3756-1-6-2-6-6-1-96-6-0-6-5-5" />
    </linearGradient>
    <linearGradient
       y2="43"
       x2="23.99999"
       y1="4.999989"
       x1="23.99999"
       gradientTransform="matrix(0.4604247,0,0,0.45943191,0.9588252,0.9789861)"
       gradientUnits="userSpaceOnUse"
       id="linearGradient3101-2"
       xlink:href="#linearGradient3924-64-9"
       inkscape:collect="always" />
    <linearGradient
       id="linearGradient3924-64-9">
      <stop
         id="stop3926-3-6-4"
         style="stop-color:#ffffff;stop-opacity:1"
         offset="0" />
      <stop
         id="stop3928-0-8"
         style="stop-color:#ffffff;stop-opacity:0.23529412"
         offset="0.06316455" />
      <stop
         id="stop3930-3-59-2"
         style="stop-color:#ffffff;stop-opacity:0.15686275"
         offset="0.95056331" />
      <stop
         id="stop3932-0-2"
         style="stop-color:#ffffff;stop-opacity:0.39215687"
         offset="1" />
    </linearGradient>
    <linearGradient
       y2="43"
       x2="23.99999"
       y1="4.999989"
       x1="23.99999"
       gradientTransform="matrix(0.45945947,0,0,0.45945947,-20.383087,0.3890195)"
       gradientUnits="userSpaceOnUse"
       id="linearGradient3101-2-3"
       xlink:href="#linearGradient3924-64-9-7"
       inkscape:collect="always" />
    <linearGradient
       id="linearGradient3924-64-9-7">
      <stop
         id="stop3926-3-6-4-7"
         style="stop-color:#ffffff;stop-opacity:1"
         offset="0" />
      <stop
         id="stop3928-0-8-4"
         style="stop-color:#ffffff;stop-opacity:0.23529412"
         offset="0.06316455" />
      <stop
         id="stop3930-3-59-2-3"
         style="stop-color:#ffffff;stop-opacity:0.15686275"
         offset="0.95056331" />
      <stop
         id="stop3932-0-2-3"
         style="stop-color:#ffffff;stop-opacity:0.39215687"
         offset="1" />
    </linearGradient>
    <linearGradient
       inkscape:collect="always"
       xlink:href="#linearGradient3924-64-9"
       id="linearGradient3944"
       gradientUnits="userSpaceOnUse"
       gradientTransform="matrix(0.4604247,0,0,0.45943191,0.9588252,0.9789861)"
       x1="23.99999"
       y1="4.999989"
       x2="23.99999"
       y2="43" />
    <linearGradient
       x1="302.85715"
       y1="366.64789"
       x2="302.85715"
       y2="609.50507"
       id="linearGradient3826-4"
       xlink:href="#linearGradient5048-1-0"
       gradientUnits="userSpaceOnUse"
       gradientTransform="matrix(0.0352071,0,0,0.0082353,-0.724852,18.980547)" />
    <linearGradient
       id="linearGradient5048-1-0">
      <stop
         id="stop5050-9-9"
         style="stop-color:#000000;stop-opacity:0"
         offset="0" />
      <stop
         id="stop5056-6-5"
         style="stop-color:#000000;stop-opacity:1"
         offset="0.5" />
      <stop
         id="stop5052-82-8"
         style="stop-color:#000000;stop-opacity:0"
         offset="1" />
    </linearGradient>
    <radialGradient
       cx="605.71429"
       cy="486.64789"
       r="117.14286"
       fx="605.71429"
       fy="486.64789"
       id="radialGradient3048-6"
       xlink:href="#linearGradient5060-7-5"
       gradientUnits="userSpaceOnUse"
       gradientTransform="matrix(-0.01204859,0,0,0.0082353,10.761206,18.980564)" />
    <linearGradient
       id="linearGradient5060-7-5">
      <stop
         id="stop5062-3-8"
         style="stop-color:#000000;stop-opacity:1"
         offset="0" />
      <stop
         id="stop5064-6-8"
         style="stop-color:#000000;stop-opacity:0"
         offset="1" />
    </linearGradient>
    <radialGradient
       r="117.14286"
       fy="486.64789"
       fx="605.71429"
       cy="486.64789"
       cx="605.71429"
       gradientTransform="matrix(0.01204859,0,0,0.0082353,13.238793,18.980564)"
       gradientUnits="userSpaceOnUse"
       id="radialGradient4203"
       xlink:href="#linearGradient5060-7-5"
       inkscape:collect="always" />
    <linearGradient
       id="linearGradient3210">
      <stop
         id="stop3212"
         style="stop-color:#000000;stop-opacity:1"
         offset="0" />
      <stop
         id="stop3214"
         style="stop-color:#000000;stop-opacity:0"
         offset="1" />
    </linearGradient>
    <radialGradient
       r="18.246725"
       fy="-3.8301377"
       fx="19.556362"
       cy="-3.8301377"
       cx="19.556362"
       gradientTransform="matrix(3.5511425e-8,2.2668046,-2.1935051,2.6333255e-8,-21.641017,-49.429407)"
       gradientUnits="userSpaceOnUse"
       id="radialGradient3289"
       xlink:href="#linearGradient3242-7-5-0-3"
       inkscape:collect="always" />
    <linearGradient
       id="linearGradient3242-7-5-0-3">
      <stop
         id="stop3244-6-7-3-3"
         style="stop-color:#f89b7e;stop-opacity:1"
         offset="0" />
      <stop
         id="stop3246-5-0-7-8"
         style="stop-color:#e35d4f;stop-opacity:1"
         offset="0.26238" />
      <stop
         id="stop3248-6-8-8-3"
         style="stop-color:#c6262e;stop-opacity:1"
         offset="0.66093999" />
      <stop
         id="stop3250-9-1-8-7"
         style="stop-color:#690b2c;stop-opacity:1"
         offset="1" />
    </linearGradient>
    <linearGradient
       y2="0.11503056"
       x2="25"
       y1="43"
       x1="25"
       gradientTransform="matrix(0.4880646,0,0,0.50015919,-23.000462,-1.0247342)"
       gradientUnits="userSpaceOnUse"
       id="linearGradient3291"
       xlink:href="#linearGradient2490-3-9-0-3"
       inkscape:collect="always" />
    <linearGradient
       id="linearGradient2490-3-9-0-3">
      <stop
         id="stop2492-7-7-4-7"
         style="stop-color:#791235;stop-opacity:1"
         offset="0" />
      <stop
         id="stop2494-4-8-6-8"
         style="stop-color:#dd3b27;stop-opacity:1"
         offset="1" />
    </linearGradient>
    <linearGradient
       y2="43"
       x2="23.99999"
       y1="5.5641499"
       x1="23.99999"
       gradientTransform="matrix(0.40567661,0,0,0.54026657,-21.055895,-2.7928137)"
       gradientUnits="userSpaceOnUse"
       id="linearGradient4131"
       xlink:href="#linearGradient3977-6-8"
       inkscape:collect="always" />
    <linearGradient
       id="linearGradient3977-6-8">
      <stop
         id="stop3979-4-0"
         style="stop-color:#ffffff;stop-opacity:1"
         offset="0" />
      <stop
         id="stop3981-5-2"
         style="stop-color:#ffffff;stop-opacity:0.23529412"
         offset="0.03626217" />
      <stop
         id="stop3983-8-2"
         style="stop-color:#ffffff;stop-opacity:0.15686275"
         offset="0.95056331" />
      <stop
         id="stop3985-9-7"
         style="stop-color:#ffffff;stop-opacity:0.39215687"
         offset="1" />
    </linearGradient>
    <radialGradient
       r="117.14286"
       fy="486.64789"
       fx="605.71429"
       cy="486.64789"
       cx="605.71429"
       gradientTransform="matrix(0.01204859,0,0,0.0082353,13.238793,18.980564)"
       gradientUnits="userSpaceOnUse"
       id="radialGradient3242"
       xlink:href="#linearGradient5060-7-5"
       inkscape:collect="always" />
  </defs>
  <metadata
     id="metadata3431">
    <rdf:RDF>
      <cc:Work
         rdf:about="">
        <dc:format>image/svg+xml</dc:format>
        <dc:type
           rdf:resource="http://purl.org/dc/dcmitype/StillImage" />
        <dc:title></dc:title>
      </cc:Work>
    </rdf:RDF>
  </metadata>
  <g
     style="display:inline"
     id="g2036"
     transform="matrix(0.55,0,0,0.3333336,-1.2000011,7.33331)">
    <g
       style="opacity:0.4"
       id="g3712"
       transform="matrix(1.052632,0,0,1.285713,-1.263158,-13.42854)">
      <rect
         style="fill:url(#radialGradient3152);fill-opacity:1;stroke:none"
         id="rect2801"
         y="40"
         x="38"
         height="7"
         width="5" />
      <rect
         style="fill:url(#radialGradient3154);fill-opacity:1;stroke:none"
         id="rect3696"
         transform="scale(-1,-1)"
         y="-47"
         x="-10"
         height="7"
         width="5" />
      <rect
         style="fill:url(#linearGradient3156);fill-opacity:1;stroke:none"
         id="rect3700"
         y="40"
         x="10"
         height="7.0000005"
         width="28" />
    </g>
  </g>
  <path
     sodipodi:nodetypes="ccccccc"
     id="path4572-2-7"
     d="m 16.270037,2.2432933 3.972212,3.2462237 1.53052,1.2507915 0,-0.9993343 -0.0087,-2.5122559 c -0.0049,-0.9024087 7.63e-4,-0.9911426 7.63e-4,-0.9911426 z"
     style="color:#000000;fill:#791235;fill-opacity:1;stroke:#791235;stroke-width:0.49726731000000002;stroke-linecap:round;stroke-linejoin:round;stroke-miterlimit:4;stroke-opacity:1;stroke-dasharray:none;stroke-dashoffset:0;marker:none;visibility:visible;display:inline;overflow:visible;enable-background:accumulate"
     inkscape:connector-curvature="0" />
  <path
     style="opacity:0.90000000000000002;color:#000000;fill:url(#radialGradient3967);fill-opacity:1.0;fill-rule:nonzero;stroke:none;stroke-width:0.94488269000000003;marker:none;visibility:visible;display:inline;overflow:visible;enable-background:accumulate"
     d="m 2.4891594,2.461046 c -4.467e-4,6.3329347 -8.941e-4,12.665869 -0.00133,18.998803 6.3333337,4.14e-4 12.6666675,8.29e-4 18.9999995,0.0012 L 21.4498,9.7445018 c 0,0 -1.702319,-1.37817 -4.237062,-3.4028201 C 15.555413,4.9982169 13.913341,3.7006637 12.359316,2.5101415 8.7627641,2.4604984 4.8789366,2.4634166 2.4891804,2.4610561 z"
     id="path3947"
     inkscape:connector-curvature="0"
     sodipodi:nodetypes="cccccccc" />
  <path
     d="m 2.4952147,2.495112 c 1.9119,0 5.164926,0.01328 5.164926,0.01328 l 4.9067373,-0.0066 1.530917,1.2209489 2.433234,1.9405721 5.001287,3.997781 0.02997,11.857982 c 0,0 -12.7209093,0 -19.0813623,0 0,-6.33021 0.01431,-12.693738 0.01431,-19.023948 z"
     id="path4160-3-9-6"
     style="opacity:0.7;fill:none;stroke:#000000;stroke-width:1;stroke-linecap:round;stroke-linejoin:round;stroke-miterlimit:4;stroke-opacity:1;stroke-dasharray:none;display:inline"
     inkscape:connector-curvature="0"
     sodipodi:nodetypes="cccccccccc" />
  <path
     style="opacity:0.5;fill:none;stroke:url(#linearGradient3944);stroke-width:1.00101971999999995;stroke-linecap:round;stroke-linejoin:round;stroke-miterlimit:4;stroke-opacity:1;stroke-dasharray:none;stroke-dashoffset:0"
     d="m 3.4911635,3.5058575 c 3.1566251,0 5.5600035,0 8.7166285,0 3.246121,2.5913471 5.759218,4.5331233 8.310868,6.6358745 0,0 0.0082,7.346926 0.0082,10.363105 -5.678571,0 -11.3571424,0 -17.0357135,0 0,-5.666326 0,-11.332653 10e-7,-16.9989795 z"
     id="rect6741-9-5"
     inkscape:connector-curvature="0"
     sodipodi:nodetypes="cccccc" />
  <path
     inkscape:connector-curvature="0"
     d="m 12.738286,7.7543343 a 0.37161671,0.37161671 0 0 0 -0.0586,0.011722 L 6.304684,8.8910552 A 0.37161671,0.37161671 0 0 0 6,9.2543344 l 0,8.2500026 a 0.37161671,0.37161671 0 0 0 0.304688,0.363281 l 6.375002,1.125001 a 0.37161671,0.37161671 0 0 0 0.445312,-0.363282 l 0,-1.546875 0.257812,0.02344 a 0.37161671,0.37161671 0 0 0 0.01172,0 c 0.603725,0.04273 0.85392,0.03275 1.582033,-0.02344 0.631721,-0.04875 1.194864,-0.146467 1.652344,-0.269532 0.457479,-0.123065 0.815737,-0.25121 1.066406,-0.515625 l 0.164063,-0.175781 a 0.37161671,0.37161671 0 0 0 0.105468,-0.246093 l 0.02344,-0.76172 a 0.37161671,0.37161671 0 0 0 0,-0.01172 l 0.01171,-0.761717 a 0.37161671,0.37161671 0 0 0 -0.03515,-0.117188 0.37161671,0.37161671 0 0 0 0,-0.01172 l 0,-0.01172 0.02344,-0.76172 a 0.37161671,0.37161671 0 0 0 0,-0.01172 l 0.01171,-0.773431 a 0.37161671,0.37161671 0 0 0 -0.04688,-0.164063 0.37161671,0.37161671 0 0 0 0,-0.01172 0.37161671,0.37161671 0 0 0 0.01172,-0.02344 l 0.02344,-0.761719 a 0.37161671,0.37161671 0 0 0 0,-0.01172 l 0.01172,-0.761719 a 0.37161671,0.37161671 0 0 0 -0.08202,-0.234372 c 0.01445,-0.103631 0.0251,-0.205883 -0.01172,-0.304687 C 17.805124,10.107901 17.588223,9.9579112 17.343763,9.8285452 17.099304,9.6991772 16.795784,9.5958062 16.453138,9.5121382 15.767847,9.344804 14.907287,9.2464118 13.980481,9.2543269 c -0.129791,0.0013 -0.256228,0.0072 -0.375,0.011722 l -0.480469,0.011722 0,-1.1484382 A 0.37161671,0.37161671 0 0 0 12.738291,7.7543308 z m -3.175781,4.1953147 0.08203,0 c 0.06768,0 0.06573,-0.002 0.105468,0 0.0089,0.03265 0.01997,0.08528 0.03515,0.140624 A 0.37161671,0.37161671 0 0 0 9.52734,12.055123 c -1.8e-5,5e-6 -0.0093,-9.01e-4 -0.01172,0 0.0029,-0.01019 0.02135,-0.07469 0.02344,-0.08203 a 0.37161671,0.37161671 0 0 0 0.01172,0 L 9.5625,11.949653 z M 9.011723,13.9184 c 0.0469,0.05581 0.09088,0.103895 0.140624,0.128906 l -0.03515,0 a 0.37161671,0.37161671 0 0 0 -0.152343,0.03515 c 0.01564,-0.05695 0.03067,-0.104845 0.04688,-0.164062 z m 1.277344,0.01172 c 0.01993,0.07173 0.03962,0.131024 0.0586,0.199219 a 0.37161671,0.37161671 0 0 0 -0.152343,-0.07031 0.37161671,0.37161671 0 0 0 0.09375,-0.128906 z"
     id="path3097-6"
     style="opacity:0.15;color:#000000;fill:#661215;fill-opacity:1;fill-rule:evenodd;stroke:none;stroke-width:1;marker:none;visibility:visible;display:inline;overflow:visible;enable-background:accumulate" />
  <path
     inkscape:connector-curvature="0"
     d="m 12.750004,8.1293343 -6.375001,1.1250011 0,8.2500026 6.375001,1.125 0,-10.5000037 z m 1.23047,1.4999999 c -0.119958,0.0011 -0.241832,0.0071 -0.363282,0.01172 l -0.492187,0.01172 0,0.9492198 0,0.949219 0.1875,0.02344 c 0.3738,0.04693 1.253183,0.03286 1.839844,-0.02344 1.578211,-0.151392 2.57299,-0.585013 2.402345,-1.042969 -0.19145,-0.5137848 -1.774847,-0.8942718 -3.57422,-0.8789058 z m 3.644532,1.2890628 -0.140625,0.164063 c -0.185268,0.222731 -0.696726,0.459736 -1.324219,0.597657 -0.387715,0.08522 -0.806586,0.117474 -1.769532,0.140625 l -1.265625,0.02344 0,0.738282 0,0.726562 1.230469,-0.03515 c 0.974754,-0.02308 1.354877,-0.05648 1.792969,-0.152343 0.632137,-0.138315 1.124619,-0.337007 1.312501,-0.539063 l 0.128906,-0.140625 0.02344,-0.761719 0.01172,-0.761719 z m -8.355471,0.656251 0.375001,0 c 0.312353,0 0.386685,0.01459 0.410156,0.09375 0.0156,0.05264 0.234045,0.860547 0.492187,1.792969 0.258142,0.932423 0.479111,1.720217 0.492186,1.757814 0.01732,0.04979 -0.06517,0.07346 -0.292968,0.07031 -0.172005,-0.0023 -0.339546,-0.0207 -0.374999,-0.03515 -0.03544,-0.01445 -0.09958,-0.209801 -0.152343,-0.433594 l -0.105469,-0.398438 -0.492189,0 -0.503906,0 -0.08203,0.363281 -0.07031,0.375001 -0.351561,0.01172 -0.339844,0.01172 0.02344,-0.09375 c 0.01646,-0.05414 0.209329,-0.741408 0.421874,-1.523439 0.212547,-0.782032 0.423713,-1.541309 0.46875,-1.699219 l 0.08203,-0.292969 z m 0.351562,0.84375 c -0.01541,0.0043 -0.08738,0.241538 -0.164061,0.550782 -0.08179,0.32986 -0.159968,0.63877 -0.175781,0.691406 -0.02531,0.08423 0.01727,0.105469 0.328125,0.105469 l 0.351561,0 -0.164062,-0.644531 C 9.708729,12.768105 9.629581,12.447477 9.621097,12.418398 z m 8.003909,0.234375 -0.164062,0.175782 c -0.427822,0.463294 -1.808526,0.755012 -3.503908,0.738281 l -0.796875,-0.01172 -0.02344,0.703125 -0.01172,0.703127 0.09375,0.03515 c 0.204898,0.06185 2.16,-0.017 2.648437,-0.105469 0.681846,-0.123498 1.306635,-0.33451 1.535158,-0.527344 l 0.1875,-0.164062 0.02344,-0.773438 0.01172,-0.773438 z m 0,1.687501 -0.164062,0.199219 c -0.399459,0.460232 -1.627246,0.731658 -3.351564,0.738282 l -0.984375,0 0,0.714843 0,0.714844 0.292968,0.02344 c 0.593481,0.042 0.809491,0.03256 1.535157,-0.02344 1.228039,-0.09476 2.165721,-0.3442 2.472657,-0.667969 l 0.164063,-0.175781 0.02344,-0.761719 0.01172,-0.761719 z"
     id="path4255-7-4"
     style="opacity:0.3;color:#000000;fill:#661215;fill-opacity:1;fill-rule:evenodd;stroke:none;stroke-width:1;marker:none;visibility:visible;display:inline;overflow:visible;enable-background:accumulate" />
  <path
     inkscape:connector-curvature="0"
     d="m 12.750004,7.7543343 -6.375001,1.1250011 0,8.2500016 6.375001,1.125 0,-10.5000027 z m 1.23047,1.5000011 c -0.119958,0.0011 -0.241832,0.0071 -0.363282,0.011722 l -0.492187,0.011722 0,0.9492186 0,0.949219 0.1875,0.02344 c 0.3738,0.04693 1.253183,0.03286 1.839844,-0.02344 1.578211,-0.151392 2.57299,-0.585012 2.402345,-1.042969 -0.19145,-0.5137848 -1.774847,-0.8942706 -3.57422,-0.8789052 z m 3.644532,1.2890616 -0.140625,0.164063 c -0.185268,0.222732 -0.696726,0.459735 -1.324219,0.597656 -0.387715,0.08522 -0.806586,0.117474 -1.769532,0.140625 l -1.265625,0.02344 0,0.738283 0,0.726563 1.230469,-0.03515 c 0.974754,-0.02308 1.354877,-0.05648 1.792969,-0.152344 0.632137,-0.138315 1.124619,-0.337006 1.312501,-0.539063 l 0.128906,-0.140626 0.02344,-0.761719 0.01172,-0.761718 z m -8.355471,0.65625 0.375001,0 c 0.312353,0 0.386685,0.01459 0.410156,0.09375 0.0156,0.05264 0.234045,0.860547 0.492187,1.792969 0.258142,0.932422 0.479111,1.720217 0.492186,1.757813 0.01732,0.04979 -0.06517,0.07346 -0.292968,0.07031 -0.172005,-0.0023 -0.339546,-0.0207 -0.374999,-0.03515 -0.03544,-0.01445 -0.09958,-0.2098 -0.152343,-0.433594 l -0.105469,-0.398438 -0.492189,0 -0.503906,0 -0.08203,0.363282 -0.07031,0.375 -0.351561,0.01172 -0.339844,0.01172 0.02344,-0.09375 c 0.01646,-0.05414 0.209329,-0.741411 0.421874,-1.52344 0.212548,-0.782033 0.423714,-1.54131 0.468751,-1.699222 l 0.08203,-0.292967 z m 0.351562,0.843752 c -0.01541,0.0043 -0.08738,0.241537 -0.164061,0.550781 -0.08179,0.32986 -0.159968,0.638769 -0.175781,0.691407 -0.02531,0.08423 0.01727,0.105468 0.328125,0.105468 l 0.351561,0 -0.164062,-0.644532 C 9.708729,12.393105 9.629581,12.072477 9.621097,12.043399 z m 8.003909,0.234374 -0.164062,0.175782 c -0.427822,0.463294 -1.808526,0.755012 -3.503908,0.738282 l -0.796875,-0.01172 -0.02344,0.703126 -0.01172,0.703126 0.09375,0.03515 c 0.204898,0.06185 2.16,-0.017 2.648437,-0.105468 0.681846,-0.123499 1.306635,-0.33451 1.535158,-0.527344 l 0.1875,-0.164062 0.02344,-0.773438 0.01172,-0.773439 z m 0,1.687501 -0.164062,0.199219 c -0.399459,0.460232 -1.627246,0.731658 -3.351564,0.738281 l -0.984375,0 0,0.714844 0,0.714844 0.292968,0.02344 c 0.593481,0.042 0.809491,0.03256 1.535157,-0.02344 1.228039,-0.09476 2.165721,-0.3442 2.472657,-0.667969 l 0.164063,-0.175781 0.02344,-0.761719 0.01172,-0.761719 z"
     id="path4255-5"
     style="color:#000000;fill:#ffffff;fill-opacity:1;fill-rule:nonzero;stroke:none;stroke-width:0.99999994;marker:none;visibility:visible;display:inline;overflow:visible;enable-background:accumulate" />
</svg>
