<?xml version="1.0" encoding="UTF-8" standalone="no"?>
<!-- Created with Inkscape (http://www.inkscape.org/) -->

<svg
   xmlns:dc="http://purl.org/dc/elements/1.1/"
   xmlns:cc="http://creativecommons.org/ns#"
   xmlns:rdf="http://www.w3.org/1999/02/22-rdf-syntax-ns#"
   xmlns:svg="http://www.w3.org/2000/svg"
   xmlns="http://www.w3.org/2000/svg"
   xmlns:xlink="http://www.w3.org/1999/xlink"
   xmlns:sodipodi="http://sodipodi.sourceforge.net/DTD/sodipodi-0.dtd"
   xmlns:inkscape="http://www.inkscape.org/namespaces/inkscape"
   id="svg11300"
   height="24"
   width="24"
   version="1.0"
   inkscape:version="0.48.4 r9939"
   sodipodi:docname="drive-removable-media-usb.svg">
  <metadata
     id="metadata38">
    <rdf:RDF>
      <cc:Work
         rdf:about="">
        <dc:format>image/svg+xml</dc:format>
        <dc:type
           rdf:resource="http://purl.org/dc/dcmitype/StillImage" />
        <dc:title></dc:title>
      </cc:Work>
    </rdf:RDF>
  </metadata>
  <sodipodi:namedview
     pagecolor="#ffffff"
     bordercolor="#666666"
     borderopacity="1"
     objecttolerance="10"
     gridtolerance="10"
     guidetolerance="10"
     inkscape:pageopacity="0"
     inkscape:pageshadow="2"
     inkscape:window-width="1449"
     inkscape:window-height="896"
     id="namedview36"
     showgrid="false"
     inkscape:zoom="9.8333333"
     inkscape:cx="12"
     inkscape:cy="12"
     inkscape:window-x="75"
     inkscape:window-y="34"
     inkscape:window-maximized="0"
     inkscape:current-layer="svg11300" />
  <defs
     id="defs3">
    <linearGradient
       id="linearGradient3506">
      <stop
         id="stop3508"
         style="stop-color:#3c3c3c"
         offset="0" />
      <stop
         id="stop3510"
         style="stop-color:#3c3c3c;stop-opacity:.22745"
         offset="1" />
    </linearGradient>
    <radialGradient
       id="radialGradient7374"
       gradientUnits="userSpaceOnUse"
       cy="41.636"
       cx="23.335"
       gradientTransform="matrix(0.30936,0,0,0.08837,0.7812,18.32)"
       r="22.627">
      <stop
         id="stop23421"
         offset="0" />
      <stop
         id="stop23423"
         style="stop-opacity:0"
         offset="1" />
    </radialGradient>
    <linearGradient
       id="linearGradient7469"
       y2="9.1187"
       xlink:href="#linearGradient3506"
       gradientUnits="userSpaceOnUse"
       x2="20.405"
       gradientTransform="matrix(0.6454,0,0,0.4255,-3.901894,-24.059)"
       y1="6.9878"
       x1="20.405" />
    <linearGradient
       id="linearGradient7475"
       y2="9.1187"
       xlink:href="#linearGradient3506"
       gradientUnits="userSpaceOnUse"
       x2="20.405"
       gradientTransform="matrix(0.6454,0,0,0.4255,-6.4019,-24.059)"
       y1="6.9878"
       x1="20.405" />
    <linearGradient
       id="linearGradient8579"
       y2="1.25"
       gradientUnits="userSpaceOnUse"
       x2="15"
       gradientTransform="matrix(0.52381,0,0,0.52941,-4.57142,-0.29397)"
       y1="36"
       x1="15">
      <stop
         id="stop3823"
         style="stop-color:gray"
         offset="0" />
      <stop
         id="stop3825"
         style="stop-color:#999"
         offset="1" />
    </linearGradient>
    <linearGradient
       id="linearGradient8838"
       y2="35.875"
       gradientUnits="userSpaceOnUse"
       x2="25"
       gradientTransform="matrix(0.52381,0,0,0.52941,-4.57142,-0.29397)"
       y1="1.125"
       x1="25">
      <stop
         id="stop3145"
         style="stop-color:#e6e6e6"
         offset="0" />
      <stop
         id="stop3147"
         style="stop-color:#afafaf"
         offset="1" />
    </linearGradient>
    <radialGradient
       id="radialGradient9547"
       gradientUnits="userSpaceOnUse"
       cy="-36.857"
       cx="21.333"
       gradientTransform="matrix(0.86667,-1.922e-7,1.664e-7,0.75005,-11.4222,8.6446)"
       r="8">
      <stop
         id="stop9129"
         style="stop-color:#f0f0f0"
         offset="0" />
      <stop
         id="stop9131"
         style="stop-color:#a9a9a9"
         offset="1" />
    </radialGradient>
    <linearGradient
       id="linearGradient9571"
       y2="-39.143"
       gradientUnits="userSpaceOnUse"
       x2="32.571"
       gradientTransform="matrix(0.46667,0,0,0.46667,-3.2,-1.7333)"
       y1="-39.143"
       x1="15.429">
      <stop
         id="stop9575"
         style="stop-color:#8f8f8f"
         offset="0" />
      <stop
         id="stop9577"
         style="stop-color:#5f5f5f"
         offset=".12709" />
      <stop
         id="stop9579"
         style="stop-color:#616161"
         offset=".87578" />
      <stop
         id="stop9581"
         style="stop-color:#9e9e9e"
         offset="1" />
    </linearGradient>
    <filter
       id="filter7990"
       color-interpolation-filters="sRGB">
      <feGaussianBlur
         id="feGaussianBlur7992"
         stdDeviation="0.24" />
    </filter>
    <radialGradient
       cx="38"
       cy="69"
       r="20"
       fx="28.603323"
       fy="69"
       id="radialGradient2541"
       xlink:href="#linearGradient6019"
       gradientUnits="userSpaceOnUse"
       gradientTransform="matrix(1,0,0,0.45,0,37.95)" />
    <linearGradient
       id="linearGradient6019">
      <stop
         id="stop6021"
         style="stop-color:#000000;stop-opacity:1"
         offset="0" />
      <stop
         id="stop6023"
         style="stop-color:#000000;stop-opacity:0"
         offset="1" />
    </linearGradient>
    <linearGradient
       x1="28"
       y1="16"
       x2="26"
       y2="8"
       id="linearGradient2543"
       xlink:href="#linearGradient5958"
       gradientUnits="userSpaceOnUse"
       gradientTransform="matrix(0.5249934,0,0,0.5276959,-1.1748652,-0.7794711)" />
    <linearGradient
       id="linearGradient5958">
      <stop
         id="stop5960"
         style="stop-color:#c17d11;stop-opacity:1"
         offset="0" />
      <stop
         id="stop5962"
         style="stop-color:#e9b96e;stop-opacity:1"
         offset="1" />
    </linearGradient>
    <linearGradient
       x1="30.324829"
       y1="9.2407961"
       x2="34"
       y2="18"
       id="linearGradient2545"
       xlink:href="#linearGradient5996"
       gradientUnits="userSpaceOnUse"
       gradientTransform="matrix(0.5249934,0,0,0.5276959,-1.1748652,-0.7794711)" />
    <linearGradient
       id="linearGradient5996">
      <stop
         id="stop5998"
         style="stop-color:#8f5902;stop-opacity:1"
         offset="0" />
      <stop
         id="stop6000"
         style="stop-color:#73521e;stop-opacity:1"
         offset="1" />
    </linearGradient>
    <linearGradient
       x1="28"
       y1="8"
       x2="33.447109"
       y2="16.685888"
       id="linearGradient2547"
       xlink:href="#linearGradient5984"
       gradientUnits="userSpaceOnUse" />
    <linearGradient
       id="linearGradient5984">
      <stop
         id="stop5986"
         style="stop-color:#ffffff;stop-opacity:1"
         offset="0" />
      <stop
         id="stop5988"
         style="stop-color:#ffffff;stop-opacity:0.13438736"
         offset="1" />
    </linearGradient>
    <linearGradient
       x1="20.933708"
       y1="25.060659"
       x2="30.208115"
       y2="30.742676"
       id="linearGradient2549"
       xlink:href="#linearGradient5966"
       gradientUnits="userSpaceOnUse"
       gradientTransform="matrix(0.5249934,0,0,0.5276959,-1.1748652,-0.7794711)" />
    <linearGradient
       id="linearGradient5966">
      <stop
         id="stop5968"
         style="stop-color:#fdef72;stop-opacity:1"
         offset="0" />
      <stop
         id="stop5970"
         style="stop-color:#e2cb0b;stop-opacity:1"
         offset="1" />
    </linearGradient>
    <linearGradient
       x1="17.032078"
       y1="27.446827"
       x2="29.494455"
       y2="37.845814"
       id="linearGradient2551"
       xlink:href="#linearGradient5987"
       gradientUnits="userSpaceOnUse"
       gradientTransform="matrix(0.5249934,0,0,0.5276959,-1.1748652,-0.7794711)" />
    <linearGradient
       id="linearGradient5987">
      <stop
         id="stop5989"
         style="stop-color:#b3a10b;stop-opacity:1"
         offset="0" />
      <stop
         id="stop5991"
         style="stop-color:#91780a;stop-opacity:1"
         offset="1" />
    </linearGradient>
    <linearGradient
       x1="22.319767"
       y1="41.955986"
       x2="18.985712"
       y2="37.029255"
       id="linearGradient2553"
       xlink:href="#linearGradient5981"
       gradientUnits="userSpaceOnUse"
       gradientTransform="matrix(0.5249934,0,0,0.5276959,-1.1748652,-0.7794711)" />
    <linearGradient
       id="linearGradient5981">
      <stop
         id="stop5983"
         style="stop-color:#ffffff;stop-opacity:1"
         offset="0" />
      <stop
         id="stop5985"
         style="stop-color:#ffffff;stop-opacity:0.69411767"
         offset="1" />
    </linearGradient>
    <linearGradient
       x1="27.354809"
       y1="36.218422"
       x2="23.489431"
       y2="34.728424"
       id="linearGradient2555"
       xlink:href="#linearGradient5999"
       gradientUnits="userSpaceOnUse"
       gradientTransform="matrix(0.5249934,0,0,0.5276959,-1.1748651,-0.779471)" />
    <linearGradient
       id="linearGradient5999">
      <stop
         id="stop6001"
         style="stop-color:#c4a000;stop-opacity:1"
         offset="0" />
      <stop
         id="stop6003"
         style="stop-color:#c4a000;stop-opacity:0"
         offset="1" />
    </linearGradient>
    <linearGradient
       x1="27.651777"
       y1="23.145937"
       x2="21.59099"
       y2="20.618719"
       id="linearGradient2557"
       xlink:href="#linearGradient5974-892"
       gradientUnits="userSpaceOnUse"
       gradientTransform="matrix(0.5128237,0,0,0.5276959,-0.8465674,-0.7794711)" />
    <linearGradient
       id="linearGradient5974-892">
      <stop
         id="stop2473"
         style="stop-color:#919191;stop-opacity:1"
         offset="0" />
      <stop
         id="stop2475"
         style="stop-color:#cecece;stop-opacity:1"
         offset="1" />
    </linearGradient>
  </defs>
  <path
     id="path23417"
     style="opacity:0.4;fill:url(#radialGradient7374);fill-rule:evenodd"
     d="m 15,21.999 a 7,1.9996 0 0 1 -14,0 7,1.9996 0 1 1 14,0 z"
     inkscape:connector-curvature="0" />
  <rect
     id="rect4383"
     style="fill:#ffffff"
     rx="0.625"
     ry="0.625"
     height="4.8971"
     width="6.3731999"
     y="16.653"
     x="4.8711996" />
  <rect
     id="rect3448"
     style="fill:url(#radialGradient9547);stroke:url(#linearGradient9571)"
     transform="scale(1,-1)"
     rx="0.56471002"
     ry="0.56471002"
     height="7"
     width="7"
     y="-22.5"
     x="4.5" />
  <rect
     id="rect3450"
     style="opacity:0.88172003;fill:url(#linearGradient7475)"
     transform="scale(1,-1)"
     height="1"
     width="1.5"
     y="-21"
     x="6" />
  <rect
     id="rect2874"
     style="opacity:0.88172003;fill:url(#linearGradient7469)"
     transform="scale(1,-1)"
     height="1"
     width="1.5"
     y="-21"
     x="8.5" />
  <rect
     id="rect5391"
     style="fill:url(#linearGradient8838);stroke:url(#linearGradient8579);stroke-linecap:round;stroke-linejoin:round"
     rx="1"
     ry="1"
     height="18"
     width="11"
     y="0.50014001"
     x="2.5" />
  <rect
     id="rect8840"
     style="opacity:0.3;fill:#ffffff;filter:url(#filter7990)"
     rx="1"
     ry="1"
     height="16"
     width="8"
     y="1"
     x="4" />
  <path
     id="path7988"
     style="fill:#787878"
     d="M 7.958,4.0008 C 7.65244,4.36731 7.4634,4.83585 7.1929,5.2362 6.85547,5.52541 7.0346,5.89577 7.46358,5.75244 7.75869,5.741499 7.58825,6.10852 7.6299,6.29136 v 5.1232 c -0.419,-0.38 -0.98,-0.726 -1.184,-1.26 -0.232,-0.4175 -0.199,-0.8706 0.292,-1.0284 0.343,-0.2897 0.492,-0.8442 0.188,-1.2152 -0.39,-0.6496 -1.4923,-0.6588 -1.8362,0.0422 -0.3511,0.6084 0.3005,1.0383 0.4563,1.5468 0.021459,0.49447 0.12196,0.99872 0.44789,1.3896 0.42298,0.5497 1.0284,0.92324 1.5428,1.3675 0.33682,0.40215 -0.0972,0.6643 -0.36656,0.89786 -0.40998,0.47406 -0.41161,1.3347 0.19046,1.658 0.60687,0.39313 1.5797,0.13128 1.7663,-0.60838 0.13886,-0.53965 -0.18008,-1.1503 -0.69222,-1.3614 v -2.4004 c 0.59519,-0.62344 1.3317,-1.1431 1.7527,-1.911 0.14039,-0.3525 0.08993,-0.98464 0.65354,-0.8257 0.3359,-0.26412 0.07606,-0.84628 0.16138,-1.2437 0.08802,-0.36886 -0.10572,-0.6677 -0.50612,-0.54598 -0.41633,0.095469 -1.1046,-0.21048 -1.345,0.18277 0.0046,0.49431 -0.01182,0.98939 0.008,1.4837 0.11457,0.24072 0.58021,-0.00681 0.41452,0.407 C 9.46551,8.53032 8.98889,8.86855 8.64371,9.25843 8.38266,9.50283 8.43278,9.11963 8.43475,8.95787 V 5.76367 C 8.7495,5.837153 9.28112,5.726614 8.90536,5.35071 8.62861,4.91143 8.34175,4.4784 8.07682,4.03181 8.03194,4.04006 8.00324,3.986335 7.95749,4.001423 z"
     inkscape:connector-curvature="0" />
  <g
     transform="translate(1.499868,-0.0222344)"
     id="layer1">
    <g
       transform="translate(-0.4749642,0)"
       id="g2524">
      <path
         d="m 58,69 a 20,9 0 1 1 -40,0 20,9 0 1 1 40,0 z"
         inkscape:connector-curvature="0"
         transform="matrix(0.5249934,0,0,0.3517973,-7.474785,-3.417955)"
         id="path6017"
         style="opacity:0.25;fill:url(#radialGradient2541);fill-opacity:1;stroke:none" />
      <path
         d="M 18.036612,0.52327815 C 13.729978,0.57902938 13.103354,9.0970312 11.867939,10.631952 l 2.099973,0.758564 C 15.349629,9.0831406 22.239708,1.4128433 18.463169,0.53976861 18.316439,0.52342635 18.175536,0.52147974 18.036612,0.52327815 z M 17.495213,1.611651 c 0.101618,-0.00989 0.19319,0.00302 0.278902,0.049472 0.342852,0.1858136 0.379914,0.7888406 0.08203,1.3357301 -0.297885,0.5468898 -0.821981,0.8454336 -1.164829,0.65962 C 16.348468,3.4706588 16.311403,2.8676321 16.609286,2.3207424 16.8327,1.910575 17.190356,1.6413159 17.495213,1.611651 z"
         inkscape:connector-curvature="0"
         id="path5371"
         style="fill:url(#linearGradient2543);fill-opacity:1;fill-rule:evenodd;stroke:url(#linearGradient2545);stroke-width:1.00000024px;stroke-linecap:butt;stroke-linejoin:miter;stroke-opacity:1" />
      <path
         d="m 36.625,4.4375 c -1.40362,0.018077 -2.407675,0.6240676 -3.46875,1.90625 -1.061075,1.2821824 -2.011219,3.2438178 -2.78125,5.34375 -0.770031,2.099932 -1.387991,4.324349 -1.96875,6.28125 -0.277069,0.933601 -0.502012,1.785823 -0.78125,2.5625 l 0.46875,0.1875 c 1.805094,-2.666031 4.739135,-6.290408 7.03125,-10 C 36.422268,8.6192319 37.357092,6.6147234 37.53125,5.5 37.618329,4.9426383 37.520945,4.6926819 37.5,4.65625 37.481596,4.6242373 37.386855,4.5666325 37.03125,4.46875 36.905913,4.4608846 36.790629,4.4353668 36.625,4.4375 z"
         inkscape:connector-curvature="0"
         transform="matrix(0.5249934,0,0,0.5276959,-1.1748651,-0.779471)"
         id="path5992"
         style="opacity:0.26666667;fill:none;stroke:url(#linearGradient2547);stroke-width:1.89990234px;stroke-linecap:butt;stroke-linejoin:miter;stroke-opacity:1" />
      <path
         d="m 10.637486,7.9275114 c 0.372486,1.0569785 -0.284225,1.9724385 -0.524993,2.6384796 -2.7255386,0.815646 -4.6130126,5.120617 -7.4195126,7.36325 0.3505842,0.368014 0.7624093,0.762086 1.1195917,1.079885 l 2.1327856,-1.863427 -1.6104466,2.387638 c 1.1598348,0.945095 2.3651246,1.586571 3.1526147,1.850421 l 1.4437319,-1.92939 -0.9187385,2.193237 c 0.7622873,0.310751 2.6172418,0.782059 3.6749528,0.791544 l 1.052029,-1.795484 -0.269409,1.828464 c 0.435514,0.08357 1.28002,0.197473 1.842347,0.214377 1.765127,-2.902328 2.099974,-7.6351 1.049988,-9.745884 -0.262497,-1.055392 0.787489,-2.374631 1.57498,-2.902327 C 15.624923,8.9829033 12.629526,7.7672364 10.637486,7.9275114 z"
         inkscape:connector-curvature="0"
         id="path5367"
         style="fill:url(#linearGradient2549);fill-opacity:1;fill-rule:evenodd;stroke:url(#linearGradient2551);stroke-width:1.00000012;stroke-linecap:butt;stroke-linejoin:miter;stroke-miterlimit:20;stroke-opacity:1;stroke-dasharray:none" />
      <path
         d="M 4.6000621,19.53682 C 7.12869,16.892591 6.9441696,15.735339 9.9109564,13.453686 8.3451941,16.001629 8.091414,17.327004 6.1750421,20.592212 l -1.57498,-1.055392 z"
         inkscape:connector-curvature="0"
         id="path5975"
         style="opacity:0.26666667;fill:#c4a000;fill-rule:evenodd;stroke:none" />
      <path
         d="m 8.3536638,21.490588 2.2816352,-5.192604 c 0.873858,-1.5745 1.501309,-3.150371 2.377681,-4.404863 -0.841016,2.859075 -2.56758,6.396618 -3.9538564,9.828335 L 8.3536638,21.490588 z"
         inkscape:connector-curvature="0"
         id="path5979"
         style="opacity:0.41568627;fill:#c4a000;fill-rule:evenodd;stroke:none" />
      <path
         d="m 11.546584,8.8511988 c 0.05079,1.0106149 -0.803019,1.4665882 -0.958317,1.8961872 -0.05465,0.15024 0.278185,0.669248 -0.01074,0.587782 -2.5452545,1.338376 -5.9206918,5.890725 -6.7748527,6.75402 L 10.159774,11.921813 5.8810316,19.15953 c 0.666759,0.542268 0.3940795,0.558876 1.1839086,0.877932 L 12.716056,12.827461 9.3248915,21.07176 c 0.8376635,0.277386 0.7545255,0.226726 1.7240335,0.364504 l 3.60864,-5.958323 -1.107267,6.153253 0.148352,0.04006 c 0.752428,-1.33797 0.726825,-2.292787 1.097939,-3.9036 0.367988,-1.597249 -0.292139,-3.59749 -0.266049,-4.608599 -0.182098,-0.732141 0.428503,-1.535365 0.799075,-2.131329 0.224116,-0.360432 -0.231425,-0.503594 0.04923,-0.773246 C 14.763825,9.8414567 14.443498,9.8410138 13.506641,9.5009628 12.581562,9.1651872 12.285906,8.8610799 11.546584,8.8511988 z"
         inkscape:connector-curvature="0"
         id="path6014"
         style="opacity:0.47843137;fill:none;stroke:url(#linearGradient2553);stroke-width:1.00000012px;stroke-linecap:butt;stroke-linejoin:miter;stroke-opacity:1" />
      <path
         d="m 9.8335896,21.911452 c 1.1432074,-3.035239 3.3578124,-5.31334 4.2088264,-8.409052 0.02706,1.932461 0.1311,5.384464 -0.993243,8.821314 -0.167875,9.37e-4 -0.09131,-0.05847 -0.246684,-0.06256 l 0.420412,-3.020803 -1.722759,2.931024 c -1.150159,-0.08249 -0.679662,0.0172 -1.6665524,-0.259923 z"
         inkscape:connector-curvature="0"
         id="path5977"
         style="opacity:0.24705882;fill:url(#linearGradient2555);fill-opacity:1;fill-rule:evenodd;stroke:none" />
      <path
         d="m 10.901593,11.151968 c -0.657289,0.325262 -1.0826464,0.80594 -1.5661113,1.247679 0.6438976,-0.373948 1.2489513,-0.764629 2.0997483,-1.04945 l -0.533637,-0.198229 z"
         inkscape:connector-curvature="0"
         id="path5995"
         style="opacity:0.48235294;fill:#c4a000;fill-rule:evenodd;stroke:none" />
      <path
         d="m 11.954535,11.389749 -0.533637,1.049449 1.564854,-0.838112 -1.031217,-0.211337 z"
         inkscape:connector-curvature="0"
         id="path5997"
         style="opacity:0.48235294;fill:#c4a000;fill-rule:evenodd;stroke:none" />
      <path
         d="M 11.918366,8.6986851 11.448396,9.5994738 12.270393,9.864421 11.918366,8.6986851 z"
         inkscape:connector-curvature="0"
         id="path6007"
         style="opacity:0.48235294;fill:#c4a000;fill-rule:evenodd;stroke:none" />
      <path
         d="m 15.584632,9.7139566 -1.291614,0.9685584 0.821997,0.264947 0.469617,-1.2335054 z"
         inkscape:connector-curvature="0"
         id="path6009"
         style="opacity:0.48235294;fill:#c4a000;fill-rule:evenodd;stroke:none" />
      <path
         d="m 13.531735,8.6866362 -0.794794,1.3322288 0.821997,0.264947 -0.0272,-1.5971758 z"
         inkscape:connector-curvature="0"
         id="path6011"
         style="opacity:0.48235294;fill:#c4a000;fill-rule:evenodd;stroke:none" />
      <path
         d="m 9.8330522,10.842873 c -0.2975558,-1.5648748 4.8996768,1.136077 5.7942578,1.580115 -0.0034,0.569419 0,1.055391 -0.512823,1.055391 -1.347941,-0.735069 -3.430964,-1.902418 -5.2814348,-2.635506 z"
         inkscape:connector-curvature="0"
         id="path6013"
         style="opacity:0.2;fill:#000000;fill-opacity:1;fill-rule:evenodd;stroke:none" />
      <path
         d="m 9.6663183,10.565991 c -0.2564121,-0.527696 0,-1.0553923 0.5128237,-1.0553923 2.09548,0.5147243 3.84551,1.1642203 5.64106,2.1107843 0.256412,0.527696 0,1.055392 -0.512823,1.055392 -1.855297,-0.983847 -3.604977,-1.622567 -5.6410607,-2.110784 z"
         inkscape:connector-curvature="0"
         id="path5373"
         style="fill:url(#linearGradient2557);fill-opacity:1;fill-rule:evenodd;stroke:#464646;stroke-width:1.00000024px;stroke-linecap:butt;stroke-linejoin:round;stroke-opacity:1" />
    </g>
  </g>
</svg>
