<?xml version="1.0" encoding="UTF-8" standalone="no"?>
<!-- Created with Inkscape (http://www.inkscape.org/) -->

<svg
   xmlns:dc="http://purl.org/dc/elements/1.1/"
   xmlns:cc="http://creativecommons.org/ns#"
   xmlns:rdf="http://www.w3.org/1999/02/22-rdf-syntax-ns#"
   xmlns:svg="http://www.w3.org/2000/svg"
   xmlns="http://www.w3.org/2000/svg"
   xmlns:xlink="http://www.w3.org/1999/xlink"
   xmlns:sodipodi="http://sodipodi.sourceforge.net/DTD/sodipodi-0.dtd"
   xmlns:inkscape="http://www.inkscape.org/namespaces/inkscape"
   id="svg2"
   height="24"
   width="24"
   version="1.0"
   inkscape:version="0.48.2 r9819"
   sodipodi:docname="network-manager-gnome.svg">
  <metadata
     id="metadata87">
    <rdf:RDF>
      <cc:Work
         rdf:about="">
        <dc:format>image/svg+xml</dc:format>
        <dc:type
           rdf:resource="http://purl.org/dc/dcmitype/StillImage" />
      </cc:Work>
    </rdf:RDF>
  </metadata>
  <sodipodi:namedview
     pagecolor="#ffffff"
     bordercolor="#666666"
     borderopacity="1"
     objecttolerance="10"
     gridtolerance="10"
     guidetolerance="10"
     inkscape:pageopacity="0"
     inkscape:pageshadow="2"
     inkscape:window-width="1182"
     inkscape:window-height="673"
     id="namedview85"
     showgrid="false"
     inkscape:zoom="4.9166667"
     inkscape:cx="24"
     inkscape:cy="24"
     inkscape:window-x="0"
     inkscape:window-y="27"
     inkscape:window-maximized="0"
     inkscape:current-layer="svg2" />
  <defs
     id="defs4">
    <linearGradient
       id="linearGradient7361"
       y2="8.1000004"
       gradientUnits="userSpaceOnUse"
       x2="19.386999"
       y1="6.1437998"
       x1="19.49">
      <stop
         id="stop10999"
         offset="0" />
      <stop
         id="stop11001"
         style="stop-opacity:0"
         offset="1" />
    </linearGradient>
    <linearGradient
       id="linearGradient272-6">
      <stop
         id="stop273-1"
         style="stop-color:#474747;stop-opacity:0"
         offset="0" />
      <stop
         id="stop275-8"
         style="stop-color:#474747"
         offset=".1" />
      <stop
         id="stop276-3"
         style="stop-color:#474747"
         offset="0.9" />
      <stop
         id="stop274-5"
         style="stop-color:#474747;stop-opacity:0"
         offset="1" />
    </linearGradient>
    <linearGradient
       id="linearGradient3832"
       y2="372.57999"
       xlink:href="#linearGradient272-6"
       gradientUnits="userSpaceOnUse"
       x2="5.0855999"
       gradientTransform="matrix(9.3885,0,0,0.22354,29.13,-51.785)"
       y1="372.57999"
       x1="0.61210001" />
    <linearGradient
       id="linearGradient3834"
       y2="372.57999"
       xlink:href="#linearGradient272-6"
       gradientUnits="userSpaceOnUse"
       x2="5.0855999"
       gradientTransform="matrix(9.3885,0,0,0.22354,29.13,-45.865)"
       y1="372.57999"
       x1="0.61210001" />
    <linearGradient
       id="linearGradient3836"
       y2="117.83"
       gradientUnits="userSpaceOnUse"
       x2="15.343"
       gradientTransform="matrix(3.1119,0,0,0.091236,28.949,19.75)"
       y1="117.83"
       x1="1.6422">
      <stop
         id="stop179-9"
         style="stop-color:#fff;stop-opacity:0"
         offset="0" />
      <stop
         id="stop180-2"
         style="stop-color:#d9d9d9"
         offset=".10827" />
      <stop
         id="stop181-7"
         style="stop-color:#d9d9d9"
         offset=".92054" />
      <stop
         id="stop182-0"
         style="stop-color:#fff;stop-opacity:0"
         offset="1" />
    </linearGradient>
    <linearGradient
       id="linearGradient6393">
      <stop
         id="stop6395"
         style="stop-color:#f5f5f5"
         offset="0" />
      <stop
         id="stop6397"
         style="stop-color:#f5f5f5;stop-opacity:0"
         offset="1" />
    </linearGradient>
    <linearGradient
       id="linearGradient5441">
      <stop
         id="stop5443"
         style="stop-color:#555"
         offset="0" />
      <stop
         id="stop5445"
         style="stop-color:#878787;stop-opacity:0"
         offset="1" />
    </linearGradient>
    <linearGradient
       id="linearGradient3544"
       y2="48.084"
       xlink:href="#linearGradient6393"
       gradientUnits="userSpaceOnUse"
       x2="16.729"
       gradientTransform="matrix(0.5,0,0,0.5,-0.28936,0.657775)"
       y1="35.758999"
       x1="24.408001" />
    <linearGradient
       id="linearGradient3547"
       y2="48.084"
       xlink:href="#linearGradient6393"
       gradientUnits="userSpaceOnUse"
       x2="32.307999"
       gradientTransform="matrix(0.5,0,0,0.5,-0.28936,0.657775)"
       y1="38.042"
       x1="25.702999" />
    <linearGradient
       id="linearGradient3550"
       y2="46.910999"
       xlink:href="#linearGradient6393"
       gradientUnits="userSpaceOnUse"
       x2="6.7358999"
       gradientTransform="matrix(0.5,0,0,0.5,-0.28936,0.657775)"
       y1="35.758999"
       x1="24.408001" />
    <linearGradient
       id="linearGradient3556"
       y2="47.034"
       xlink:href="#linearGradient6393"
       gradientUnits="userSpaceOnUse"
       x2="43.959999"
       gradientTransform="matrix(0.5,0,0,0.5,-0.28936,0.657775)"
       y1="36.951"
       x1="27.061001" />
    <linearGradient
       id="linearGradient3571"
       y2="46.668999"
       xlink:href="#linearGradient5441"
       gradientUnits="userSpaceOnUse"
       x2="6.1469002"
       gradientTransform="matrix(0.5,0,0,0.5,-0.28936,0.657775)"
       y1="35.276001"
       x1="24.399" />
    <linearGradient
       id="linearGradient3574"
       y2="47.549"
       xlink:href="#linearGradient5441"
       gradientUnits="userSpaceOnUse"
       x2="17.209999"
       gradientTransform="matrix(0.5,0,0,0.5,-0.28936,0.657775)"
       y1="35.276001"
       x1="24.399" />
    <linearGradient
       id="linearGradient3580"
       y2="47.804001"
       xlink:href="#linearGradient5441"
       gradientUnits="userSpaceOnUse"
       x2="44.068001"
       gradientTransform="matrix(0.5,0,0,0.5,-0.28936,0.657775)"
       y1="35.276001"
       x1="24.399" />
    <linearGradient
       id="linearGradient3583"
       y2="47.757"
       xlink:href="#linearGradient5441"
       gradientUnits="userSpaceOnUse"
       x2="31.843"
       gradientTransform="matrix(0.5,0,0,0.5,-0.28936,0.657775)"
       y1="35.276001"
       x1="24.399" />
    <linearGradient
       id="linearGradient3598"
       y2="39.182999"
       gradientUnits="userSpaceOnUse"
       x2="25.011"
       gradientTransform="matrix(0.67175,0,0,0.484165,-5.01045,1.085445)"
       y1="34.449001"
       x1="24.993999">
      <stop
         id="stop4083"
         style="stop-color:#7a7a7a"
         offset="0" />
      <stop
         id="stop4085"
         style="stop-color:#ebebeb"
         offset=".24359" />
      <stop
         id="stop4087"
         style="stop-color:#b9b9b9"
         offset=".65977" />
      <stop
         id="stop4089"
         style="stop-color:#878787"
         offset="1" />
    </linearGradient>
    <radialGradient
       id="radialGradient3628"
       gradientUnits="userSpaceOnUse"
       cy="16.5"
       cx="6.5"
       gradientTransform="matrix(0.5,0,0,0.5,4.618,-0.15)"
       r="2">
      <stop
         id="stop6445"
         style="stop-color:#f7ff00"
         offset="0" />
      <stop
         id="stop6447"
         style="stop-color:lime"
         offset="1" />
    </radialGradient>
    <linearGradient
       id="linearGradient3633"
       y2="13.536"
       xlink:href="#linearGradient6270"
       gradientUnits="userSpaceOnUse"
       x2="10.438"
       gradientTransform="matrix(0.5,0,0,0.5,6.618,2.85)"
       y1="-2.5"
       x1="10.5" />
    <linearGradient
       id="linearGradient6270">
      <stop
         id="stop6272"
         style="stop-color:#f5f5f5"
         offset="0" />
      <stop
         id="stop6274"
         style="stop-color:#c8c8c8"
         offset="1" />
    </linearGradient>
    <linearGradient
       id="linearGradient4523"
       y2="33"
       gradientUnits="userSpaceOnUse"
       x2="30"
       y1="2"
       x1="30"
       gradientTransform="matrix(0.5,0,0,0.5,-0.132,0.6)">
      <stop
         id="stop6370"
         style="stop-color:#afafaf"
         offset="0" />
      <stop
         id="stop6372"
         style="stop-color:#828282"
         offset="1" />
    </linearGradient>
    <linearGradient
       id="linearGradient4543"
       y2="32"
       xlink:href="#linearGradient6270"
       gradientUnits="userSpaceOnUse"
       x2="25"
       y1="9.0719004"
       x1="25"
       gradientTransform="matrix(0.5,0,0,0.5,-0.132,0.6)" />
    <linearGradient
       id="linearGradient4559"
       y2="32.127998"
       gradientUnits="userSpaceOnUse"
       x2="23.962999"
       y1="2.9600999"
       x1="23.931999"
       gradientTransform="matrix(0.5,0,0,0.5,-0.132,0.6)">
      <stop
         id="stop4555"
         style="stop-color:#fff"
         offset="0" />
      <stop
         id="stop4557"
         style="stop-color:#fff;stop-opacity:0"
         offset="1" />
    </linearGradient>
  </defs>
  <path
     id="path5486"
     style="color:#000000;fill:none;stroke:url(#linearGradient3583);stroke-width:1.5;stroke-linecap:round"
     d="m 11.979,12.908 v 5.5 l 3.6355,6.042"
     inkscape:connector-curvature="0" />
  <path
     id="path5488"
     style="color:#000000;fill:none;stroke:url(#linearGradient3580);stroke-width:1.5;stroke-linecap:round"
     d="m 11.979,12.908 v 5.5 l 9.4745,5.943"
     inkscape:connector-curvature="0" />
  <path
     id="path5492"
     style="color:#000000;fill:none;stroke:url(#linearGradient3574);stroke-width:1.5;stroke-linecap:round"
     d="m 11.9605,12.908 v 5.5 L 8.325,24.45"
     inkscape:connector-curvature="0" />
  <path
     id="path5494"
     style="color:#000000;fill:none;stroke:url(#linearGradient3571);stroke-width:1.5;stroke-linecap:round"
     d="m 11.9605,12.908 v 5.5 L 2.486,24.351"
     inkscape:connector-curvature="0" />
  <path
     id="path5508"
     style="color:#000000;fill:none;stroke:url(#linearGradient3556);stroke-width:0.5px;stroke-linecap:round"
     d="m 11.979,14.908 v 3.5 l 9.462,6.009"
     inkscape:connector-curvature="0" />
  <path
     id="path5512"
     style="color:#000000;fill:none;stroke:url(#linearGradient3550);stroke-width:0.5px;stroke-linecap:round"
     d="m 11.9605,14.908 v 3.5 l -9.462,6.009"
     inkscape:connector-curvature="0" />
  <path
     id="path5514"
     style="color:#000000;fill:none;stroke:url(#linearGradient3547);stroke-width:0.5px;stroke-linecap:round"
     d="m 11.979,14.908 v 3.5 l 3.6355,6.042"
     inkscape:connector-curvature="0" />
  <path
     id="path5516"
     style="color:#000000;fill:none;stroke:url(#linearGradient3544);stroke-width:0.5px;stroke-linecap:round"
     d="m 11.9605,14.908 v 3.5 L 8.325,24.45"
     inkscape:connector-curvature="0" />
  <g
     id="g17906"
     transform="matrix(0.5,0,0,0.48393,0.4828,-1.10385)" />
  <g
     id="g3822"
     style="enable-background:new"
     transform="matrix(0.15872,0,0,0.5,11.372,-6.9)">
    <rect
       id="rect3824"
       style="opacity:0.65;fill:url(#linearGradient3832);display:block"
       height="1"
       width="42"
       y="31"
       x="34.876999" />
    <rect
       id="rect3826"
       style="opacity:0.65;fill:url(#linearGradient3834);display:block"
       height="1"
       width="42"
       y="29"
       x="34.876999" />
    <rect
       id="rect3828"
       style="fill:url(#linearGradient3836);display:block"
       height="1"
       width="41.5"
       y="30"
       x="34.626999" />
  </g>
  <rect
     id="rect3838"
     style="fill:#646464;stroke:#3c3c3c;stroke-width:0.5"
     ry="0.56054997"
     height="2.06305"
     width="1.43855"
     y="7.3499999"
     x="18.167999" />
  <path
     id="path2887"
     style="fill:url(#linearGradient3633);stroke:url(#linearGradient4523);stroke-width:0.5px;stroke-linejoin:round"
     d="m 5.618,5.35 v 11 c 0,0.2357 0.2643,0.5 0.5,0.5 h 12 c 0.2357,0 0.5,-0.2643 0.5,-0.5 v -11 l -2,-3.5 h -9 l -2,3.5 z"
     inkscape:connector-curvature="0" />
  <rect
     id="rect4535"
     style="fill:url(#linearGradient4543)"
     rx="0.5"
     ry="0.5"
     height="11.25"
     width="12.5"
     y="5.3499999"
     x="5.868" />
  <path
     id="path3701"
     style="opacity:0.4;fill:none;stroke:url(#linearGradient4559);stroke-width:0.5px"
     d="m 6.118,5.35 v 11 h 12 v -11 l -1.75,-3 h -8.5 l -1.75,3 z"
     inkscape:connector-curvature="0" />
  <rect
     id="rect8955"
     style="fill:#d9d9d9;stroke:#828282;stroke-width:0.5"
     rx="0.56054997"
     ry="0.56054997"
     height="3.5"
     width="1.4993"
     y="15.35"
     x="11.117" />
  <path
     id="path6441"
     style="fill:url(#radialGradient3628);stroke:#828282;stroke-width:0.5;stroke-linecap:square;stroke-linejoin:round"
     d="m 8.618,8.1 a 0.75,0.75 0 0 1 -1.5,0 0.75,0.75 0 1 1 1.5,0 z"
     inkscape:connector-curvature="0" />
  <path
     id="path6477"
     style="fill:#fafafa"
     d="m 10.368,7.95 a 0.5,0.5 0 0 1 -1,0 0.5,0.5 0 1 1 1,0 z"
     inkscape:connector-curvature="0" />
  <path
     id="path6471"
     style="fill:#646464"
     d="m 10.368,8.1 a 0.5,0.5 0 0 1 -1,0 0.5,0.5 0 1 1 1,0 z"
     inkscape:connector-curvature="0" />
  <path
     id="path6534"
     style="fill:#fafafa"
     d="m 14.118,6.95 c -0.138,0 -0.25,0.112 -0.25,0.25 0,0.138 0.112,0.25 0.25,0.25 0.138,0 0.25,-0.112 0.25,-0.25 0,-0.138 -0.112,-0.25 -0.25,-0.25 z m 1,0 c -0.138,0 -0.25,0.112 -0.25,0.25 0,0.138 0.112,0.25 0.25,0.25 0.138,0 0.25,-0.112 0.25,-0.25 0,-0.138 -0.112,-0.25 -0.25,-0.25 z m 1,0 c -0.138,0 -0.25,0.112 -0.25,0.25 0,0.138 0.112,0.25 0.25,0.25 0.138,0 0.25,-0.112 0.25,-0.25 0,-0.138 -0.112,-0.25 -0.25,-0.25 z m 1,0 c -0.138,0 -0.25,0.112 -0.25,0.25 0,0.138 0.112,0.25 0.25,0.25 0.138,0 0.25,-0.112 0.25,-0.25 0,-0.138 -0.112,-0.25 -0.25,-0.25 z m -3,1 c -0.138,0 -0.25,0.112 -0.25,0.25 0,0.138 0.112,0.25 0.25,0.25 0.138,0 0.25,-0.112 0.25,-0.25 0,-0.138 -0.112,-0.25 -0.25,-0.25 z m 1,0 c -0.138,0 -0.25,0.112 -0.25,0.25 0,0.138 0.112,0.25 0.25,0.25 0.138,0 0.25,-0.112 0.25,-0.25 0,-0.138 -0.112,-0.25 -0.25,-0.25 z m 1,0 c -0.138,0 -0.25,0.112 -0.25,0.25 0,0.138 0.112,0.25 0.25,0.25 0.138,0 0.25,-0.112 0.25,-0.25 0,-0.138 -0.112,-0.25 -0.25,-0.25 z m 1,0 c -0.138,0 -0.25,0.112 -0.25,0.25 0,0.138 0.112,0.25 0.25,0.25 0.138,0 0.25,-0.112 0.25,-0.25 0,-0.138 -0.112,-0.25 -0.25,-0.25 z m -3,1 c -0.138,0 -0.25,0.112 -0.25,0.25 0,0.138 0.112,0.25 0.25,0.25 0.138,0 0.25,-0.112 0.25,-0.25 0,-0.138 -0.112,-0.25 -0.25,-0.25 z m 1,0 c -0.138,0 -0.25,0.112 -0.25,0.25 0,0.138 0.112,0.25 0.25,0.25 0.138,0 0.25,-0.112 0.25,-0.25 0,-0.138 -0.112,-0.25 -0.25,-0.25 z m 1,0 c -0.138,0 -0.25,0.112 -0.25,0.25 0,0.138 0.112,0.25 0.25,0.25 0.138,0 0.25,-0.112 0.25,-0.25 0,-0.138 -0.112,-0.25 -0.25,-0.25 z m 1,0 c -0.138,0 -0.25,0.112 -0.25,0.25 0,0.138 0.112,0.25 0.25,0.25 0.138,0 0.25,-0.112 0.25,-0.25 0,-0.138 -0.112,-0.25 -0.25,-0.25 z"
     inkscape:connector-curvature="0" />
  <path
     id="path6509"
     style="fill:#666666"
     d="m 14.118,7.1 c -0.138,0 -0.25,0.112 -0.25,0.25 0,0.138 0.112,0.25 0.25,0.25 0.138,0 0.25,-0.112 0.25,-0.25 0,-0.138 -0.112,-0.25 -0.25,-0.25 z m 1,0 c -0.138,0 -0.25,0.112 -0.25,0.25 0,0.138 0.112,0.25 0.25,0.25 0.138,0 0.25,-0.112 0.25,-0.25 0,-0.138 -0.112,-0.25 -0.25,-0.25 z m 1,0 c -0.138,0 -0.25,0.112 -0.25,0.25 0,0.138 0.112,0.25 0.25,0.25 0.138,0 0.25,-0.112 0.25,-0.25 0,-0.138 -0.112,-0.25 -0.25,-0.25 z m 1,0 c -0.138,0 -0.25,0.112 -0.25,0.25 0,0.138 0.112,0.25 0.25,0.25 0.138,0 0.25,-0.112 0.25,-0.25 0,-0.138 -0.112,-0.25 -0.25,-0.25 z m -3,1 c -0.138,0 -0.25,0.112 -0.25,0.25 0,0.138 0.112,0.25 0.25,0.25 0.138,0 0.25,-0.112 0.25,-0.25 0,-0.138 -0.112,-0.25 -0.25,-0.25 z m 1,0 c -0.138,0 -0.25,0.112 -0.25,0.25 0,0.138 0.112,0.25 0.25,0.25 0.138,0 0.25,-0.112 0.25,-0.25 0,-0.138 -0.112,-0.25 -0.25,-0.25 z m 1,0 c -0.138,0 -0.25,0.112 -0.25,0.25 0,0.138 0.112,0.25 0.25,0.25 0.138,0 0.25,-0.112 0.25,-0.25 0,-0.138 -0.112,-0.25 -0.25,-0.25 z m 1,0 c -0.138,0 -0.25,0.112 -0.25,0.25 0,0.138 0.112,0.25 0.25,0.25 0.138,0 0.25,-0.112 0.25,-0.25 0,-0.138 -0.112,-0.25 -0.25,-0.25 z m -3,1 c -0.138,0 -0.25,0.112 -0.25,0.25 0,0.138 0.112,0.25 0.25,0.25 0.138,0 0.25,-0.112 0.25,-0.25 0,-0.138 -0.112,-0.25 -0.25,-0.25 z m 1,0 c -0.138,0 -0.25,0.112 -0.25,0.25 0,0.138 0.112,0.25 0.25,0.25 0.138,0 0.25,-0.112 0.25,-0.25 0,-0.138 -0.112,-0.25 -0.25,-0.25 z m 1,0 c -0.138,0 -0.25,0.112 -0.25,0.25 0,0.138 0.112,0.25 0.25,0.25 0.138,0 0.25,-0.112 0.25,-0.25 0,-0.138 -0.112,-0.25 -0.25,-0.25 z m 1,0 c -0.138,0 -0.25,0.112 -0.25,0.25 0,0.138 0.112,0.25 0.25,0.25 0.138,0 0.25,-0.112 0.25,-0.25 0,-0.138 -0.112,-0.25 -0.25,-0.25 z"
     inkscape:connector-curvature="0" />
  <path
     id="path6542"
     style="fill:#fafafa"
     d="m 14.118,11.95 c -0.138,0 -0.25,0.112 -0.25,0.25 0,0.138 0.112,0.25 0.25,0.25 0.138,0 0.25,-0.112 0.25,-0.25 0,-0.138 -0.112,-0.25 -0.25,-0.25 z m 1,0 c -0.138,0 -0.25,0.112 -0.25,0.25 0,0.138 0.112,0.25 0.25,0.25 0.138,0 0.25,-0.112 0.25,-0.25 0,-0.138 -0.112,-0.25 -0.25,-0.25 z m 1,0 c -0.138,0 -0.25,0.112 -0.25,0.25 0,0.138 0.112,0.25 0.25,0.25 0.138,0 0.25,-0.112 0.25,-0.25 0,-0.138 -0.112,-0.25 -0.25,-0.25 z m 1,0 c -0.138,0 -0.25,0.112 -0.25,0.25 0,0.138 0.112,0.25 0.25,0.25 0.138,0 0.25,-0.112 0.25,-0.25 0,-0.138 -0.112,-0.25 -0.25,-0.25 z m -3,1 c -0.138,0 -0.25,0.112 -0.25,0.25 0,0.138 0.112,0.25 0.25,0.25 0.138,0 0.25,-0.112 0.25,-0.25 0,-0.138 -0.112,-0.25 -0.25,-0.25 z m 1,0 c -0.138,0 -0.25,0.112 -0.25,0.25 0,0.138 0.112,0.25 0.25,0.25 0.138,0 0.25,-0.112 0.25,-0.25 0,-0.138 -0.112,-0.25 -0.25,-0.25 z m 1,0 c -0.138,0 -0.25,0.112 -0.25,0.25 0,0.138 0.112,0.25 0.25,0.25 0.138,0 0.25,-0.112 0.25,-0.25 0,-0.138 -0.112,-0.25 -0.25,-0.25 z m 1,0 c -0.138,0 -0.25,0.112 -0.25,0.25 0,0.138 0.112,0.25 0.25,0.25 0.138,0 0.25,-0.112 0.25,-0.25 0,-0.138 -0.112,-0.25 -0.25,-0.25 z m -3,1 c -0.138,0 -0.25,0.112 -0.25,0.25 0,0.138 0.112,0.25 0.25,0.25 0.138,0 0.25,-0.112 0.25,-0.25 0,-0.138 -0.112,-0.25 -0.25,-0.25 z m 1,0 c -0.138,0 -0.25,0.112 -0.25,0.25 0,0.138 0.112,0.25 0.25,0.25 0.138,0 0.25,-0.112 0.25,-0.25 0,-0.138 -0.112,-0.25 -0.25,-0.25 z m 1,0 c -0.138,0 -0.25,0.112 -0.25,0.25 0,0.138 0.112,0.25 0.25,0.25 0.138,0 0.25,-0.112 0.25,-0.25 0,-0.138 -0.112,-0.25 -0.25,-0.25 z m 1,0 c -0.138,0 -0.25,0.112 -0.25,0.25 0,0.138 0.112,0.25 0.25,0.25 0.138,0 0.25,-0.112 0.25,-0.25 0,-0.138 -0.112,-0.25 -0.25,-0.25 z"
     inkscape:connector-curvature="0" />
  <path
     id="path6544"
     style="fill:#666666"
     d="m 14.118,12.1 c -0.138,0 -0.25,0.112 -0.25,0.25 0,0.138 0.112,0.25 0.25,0.25 0.138,0 0.25,-0.112 0.25,-0.25 0,-0.138 -0.112,-0.25 -0.25,-0.25 z m 1,0 c -0.138,0 -0.25,0.112 -0.25,0.25 0,0.138 0.112,0.25 0.25,0.25 0.138,0 0.25,-0.112 0.25,-0.25 0,-0.138 -0.112,-0.25 -0.25,-0.25 z m 1,0 c -0.138,0 -0.25,0.112 -0.25,0.25 0,0.138 0.112,0.25 0.25,0.25 0.138,0 0.25,-0.112 0.25,-0.25 0,-0.138 -0.112,-0.25 -0.25,-0.25 z m 1,0 c -0.138,0 -0.25,0.112 -0.25,0.25 0,0.138 0.112,0.25 0.25,0.25 0.138,0 0.25,-0.112 0.25,-0.25 0,-0.138 -0.112,-0.25 -0.25,-0.25 z m -3,1 c -0.138,0 -0.25,0.112 -0.25,0.25 0,0.138 0.112,0.25 0.25,0.25 0.138,0 0.25,-0.112 0.25,-0.25 0,-0.138 -0.112,-0.25 -0.25,-0.25 z m 1,0 c -0.138,0 -0.25,0.112 -0.25,0.25 0,0.138 0.112,0.25 0.25,0.25 0.138,0 0.25,-0.112 0.25,-0.25 0,-0.138 -0.112,-0.25 -0.25,-0.25 z m 1,0 c -0.138,0 -0.25,0.112 -0.25,0.25 0,0.138 0.112,0.25 0.25,0.25 0.138,0 0.25,-0.112 0.25,-0.25 0,-0.138 -0.112,-0.25 -0.25,-0.25 z m 1,0 c -0.138,0 -0.25,0.112 -0.25,0.25 0,0.138 0.112,0.25 0.25,0.25 0.138,0 0.25,-0.112 0.25,-0.25 0,-0.138 -0.112,-0.25 -0.25,-0.25 z m -3,1 c -0.138,0 -0.25,0.112 -0.25,0.25 0,0.138 0.112,0.25 0.25,0.25 0.138,0 0.25,-0.112 0.25,-0.25 0,-0.138 -0.112,-0.25 -0.25,-0.25 z m 1,0 c -0.138,0 -0.25,0.112 -0.25,0.25 0,0.138 0.112,0.25 0.25,0.25 0.138,0 0.25,-0.112 0.25,-0.25 0,-0.138 -0.112,-0.25 -0.25,-0.25 z m 1,0 c -0.138,0 -0.25,0.112 -0.25,0.25 0,0.138 0.112,0.25 0.25,0.25 0.138,0 0.25,-0.112 0.25,-0.25 0,-0.138 -0.112,-0.25 -0.25,-0.25 z m 1,0 c -0.138,0 -0.25,0.112 -0.25,0.25 0,0.138 0.112,0.25 0.25,0.25 0.138,0 0.25,-0.112 0.25,-0.25 0,-0.138 -0.112,-0.25 -0.25,-0.25 z"
     inkscape:connector-curvature="0" />
  <path
     id="path5522"
     style="opacity:0.6;fill:none;stroke:#808080;stroke-width:0.5;stroke-linecap:square"
     d="m 7.618,11.85 h 4.5"
     inkscape:connector-curvature="0" />
  <path
     id="path5524"
     style="opacity:0.6;fill:none;stroke:#808080;stroke-width:0.5;stroke-linecap:square"
     d="m 7.618,12.85 h 4.5"
     inkscape:connector-curvature="0" />
  <path
     id="path5526"
     style="opacity:0.6;fill:none;stroke:#808080;stroke-width:0.5;stroke-linecap:square"
     d="m 7.618,13.85 h 4.5"
     inkscape:connector-curvature="0" />
  <path
     id="path5530"
     style="opacity:0.6;fill:none;stroke:#ffffff;stroke-width:0.5;stroke-linecap:square"
     d="m 7.618,12.35 h 4.5"
     inkscape:connector-curvature="0" />
  <path
     id="path5532"
     style="opacity:0.6;fill:none;stroke:#ffffff;stroke-width:0.5;stroke-linecap:square"
     d="m 7.618,13.35 h 4.5"
     inkscape:connector-curvature="0" />
  <path
     id="path5534"
     style="opacity:0.6;fill:none;stroke:#ffffff;stroke-width:0.5;stroke-linecap:square"
     d="m 7.618,14.35 h 4.5"
     inkscape:connector-curvature="0" />
  <rect
     id="rect3872"
     style="fill:url(#linearGradient3598);stroke:#5a5c58;stroke-width:0.56950003;stroke-linecap:round;stroke-linejoin:round"
     rx="0.87199998"
     ry="0.87199998"
     height="1.9305"
     width="3.4305"
     y="17.885"
     x="10.153" />
  <path
     id="path8617"
     style="fill:#ffffff;fill-opacity:0.72023998;display:block;enable-background:new"
     d="m 11.7545,18.4935 a 0.375,0.375 0 0 1 -0.75,0 0.375,0.375 0 1 1 0.75,0 z"
     inkscape:connector-curvature="0" />
</svg>
