<?xml version="1.0" encoding="UTF-8" standalone="no"?>
<!-- Created with Inkscape (http://www.inkscape.org/) -->

<svg
   xmlns:dc="http://purl.org/dc/elements/1.1/"
   xmlns:cc="http://creativecommons.org/ns#"
   xmlns:rdf="http://www.w3.org/1999/02/22-rdf-syntax-ns#"
   xmlns:svg="http://www.w3.org/2000/svg"
   xmlns="http://www.w3.org/2000/svg"
   xmlns:xlink="http://www.w3.org/1999/xlink"
   xmlns:sodipodi="http://sodipodi.sourceforge.net/DTD/sodipodi-0.dtd"
   xmlns:inkscape="http://www.inkscape.org/namespaces/inkscape"
   version="1.1"
   width="24"
   height="24"
   id="svg3946"
   inkscape:version="0.48.4 r9939"
   sodipodi:docname="openshot.svg">
  <sodipodi:namedview
     pagecolor="#ffffff"
     bordercolor="#666666"
     borderopacity="1"
     objecttolerance="10"
     gridtolerance="10"
     guidetolerance="10"
     inkscape:pageopacity="0"
     inkscape:pageshadow="2"
     inkscape:window-width="1009"
     inkscape:window-height="749"
     id="namedview41"
     showgrid="false"
     inkscape:zoom="9.8333333"
     inkscape:cx="12"
     inkscape:cy="12"
     inkscape:window-x="640"
     inkscape:window-y="28"
     inkscape:window-maximized="0"
     inkscape:current-layer="layer1" />
  <defs
     id="defs3948">
    <linearGradient
       x1="24.693371"
       y1="34.39452"
       x2="24.693371"
       y2="39.173557"
       id="linearGradient3080"
       xlink:href="#linearGradient4661"
       gradientUnits="userSpaceOnUse"
       gradientTransform="matrix(0.37458362,0,0,0.38811022,23.006877,11.5961)" />
    <linearGradient
       id="linearGradient4661">
      <stop
         id="stop4663"
         style="stop-color:#000000;stop-opacity:1"
         offset="0" />
      <stop
         id="stop4665"
         style="stop-color:#000000;stop-opacity:0"
         offset="1" />
    </linearGradient>
    <linearGradient
       x1="24.693371"
       y1="12.651934"
       x2="24.693371"
       y2="31.394552"
       id="linearGradient3083"
       xlink:href="#linearGradient4661"
       gradientUnits="userSpaceOnUse"
       gradientTransform="matrix(0.47239738,0,0,0.47485202,20.616957,8.0689273)" />
    <linearGradient
       x1="71.204407"
       y1="6.2375584"
       x2="71.204407"
       y2="44.340794"
       id="linearGradient3090"
       xlink:href="#linearGradient4011"
       gradientUnits="userSpaceOnUse"
       gradientTransform="matrix(0.5135135,0,0,0.5135135,-24.836132,6.978716)" />
    <linearGradient
       id="linearGradient4011">
      <stop
         id="stop4013"
         style="stop-color:#ffffff;stop-opacity:1"
         offset="0" />
      <stop
         id="stop4015"
         style="stop-color:#ffffff;stop-opacity:0.23529412"
         offset="0.507761" />
      <stop
         id="stop4017"
         style="stop-color:#ffffff;stop-opacity:0.15686275"
         offset="0.83456558" />
      <stop
         id="stop4019"
         style="stop-color:#ffffff;stop-opacity:0.39215687"
         offset="1" />
    </linearGradient>
    <linearGradient
       x1="11.801105"
       y1="19.013813"
       x2="11.801105"
       y2="0.86377394"
       id="linearGradient3887"
       xlink:href="#linearGradient3707-319-631-407-324-3-8"
       gradientUnits="userSpaceOnUse"
       gradientTransform="translate(20,8.0000005)" />
    <linearGradient
       id="linearGradient3707-319-631-407-324-3-8">
      <stop
         id="stop3760-7-3"
         style="stop-color:#185f9a;stop-opacity:1"
         offset="0" />
      <stop
         id="stop3762-8-4"
         style="stop-color:#599ec9;stop-opacity:1"
         offset="1" />
    </linearGradient>
    <radialGradient
       cx="6.0693989"
       cy="8.4497671"
       r="19.99999"
       fx="6.0693989"
       fy="8.4497671"
       id="radialGradient3093"
       xlink:href="#linearGradient2867-449-88-871-390-598-476-591-434-148-57-177-3-8"
       gradientUnits="userSpaceOnUse"
       gradientTransform="matrix(0,1.1468756,-1.2132576,-3.1216191e-8,22.251804,1.0569109)" />
    <linearGradient
       id="linearGradient2867-449-88-871-390-598-476-591-434-148-57-177-3-8">
      <stop
         id="stop3750-8-9"
         style="stop-color:#90dbec;stop-opacity:1"
         offset="0" />
      <stop
         id="stop3752-3-2"
         style="stop-color:#42baea;stop-opacity:1"
         offset="0.26238" />
      <stop
         id="stop3754-7-2"
         style="stop-color:#3689e6;stop-opacity:1"
         offset="0.704952" />
      <stop
         id="stop3756-9-3"
         style="stop-color:#2b63a0;stop-opacity:1"
         offset="1" />
    </linearGradient>
    <linearGradient
       x1="24"
       y1="44"
       x2="24"
       y2="3.8990016"
       id="linearGradient3095"
       xlink:href="#linearGradient3707-319-631-407-324-3-8"
       gradientUnits="userSpaceOnUse"
       gradientTransform="matrix(0.53851149,0,0,0.53851149,-0.924275,7.0757243)" />
    <linearGradient
       id="linearGradient8838">
      <stop
         id="stop8840"
         style="stop-color:#000000;stop-opacity:1"
         offset="0" />
      <stop
         id="stop8842"
         style="stop-color:#000000;stop-opacity:0"
         offset="1" />
    </linearGradient>
    <radialGradient
       cx="62.625"
       cy="4.625"
       r="10.625"
       fx="62.625"
       fy="4.625"
       id="radialGradient3944"
       xlink:href="#linearGradient8838"
       gradientUnits="userSpaceOnUse"
       gradientTransform="matrix(1.1294118,0,0,0.2823525,-58.729414,27.694118)" />
    <linearGradient
       x1="11.801105"
       y1="19.013813"
       x2="11.801105"
       y2="0.86377394"
       id="linearGradient3887-6"
       xlink:href="#linearGradient3707-319-631-407-324-3-8-4"
       gradientUnits="userSpaceOnUse"
       gradientTransform="translate(20,8.0000005)" />
    <linearGradient
       id="linearGradient3707-319-631-407-324-3-8-4">
      <stop
         id="stop3760-7-3-9"
         style="stop-color:#185f9a;stop-opacity:1"
         offset="0" />
      <stop
         id="stop3762-8-4-5"
         style="stop-color:#599ec9;stop-opacity:1"
         offset="1" />
    </linearGradient>
    <linearGradient
       id="linearGradient2264">
      <stop
         id="stop2266"
         offset="0"
         style="stop-color:#d7e866;stop-opacity:1;" />
      <stop
         id="stop2268"
         offset="1"
         style="stop-color:#8cab2a;stop-opacity:1;" />
    </linearGradient>
    <radialGradient
       cx="15.645058"
       cy="8.449769"
       r="19.99999"
       fx="-0.025213266"
       fy="8.44977"
       id="radialGradient3040"
       xlink:href="#linearGradient2867-449-88-871-390-598-476-591-434-148-57-177-3-8-7"
       gradientUnits="userSpaceOnUse"
       gradientTransform="matrix(-4.9623425e-8,0.81548298,-0.76830305,-5.616928e-8,22.544571,0.31902365)" />
    <linearGradient
       id="linearGradient2867-449-88-871-390-598-476-591-434-148-57-177-3-8-7">
      <stop
         id="stop3750-8-9-6"
         style="stop-color:#90dbec;stop-opacity:1"
         offset="0" />
      <stop
         id="stop3752-3-2-2"
         style="stop-color:#42baea;stop-opacity:1"
         offset="0.26238" />
      <stop
         id="stop3754-7-2-00"
         style="stop-color:#3689e6;stop-opacity:1"
         offset="0.704952" />
      <stop
         id="stop3756-9-3-69"
         style="stop-color:#2b63a0;stop-opacity:1"
         offset="1" />
    </linearGradient>
    <radialGradient
       cx="15.026252"
       cy="8.6257601"
       r="19.99999"
       fx="-0.94055694"
       fy="8.625761"
       id="radialGradient3321"
       xlink:href="#radialGradient3093-0-3-6-6"
       gradientUnits="userSpaceOnUse"
       gradientTransform="matrix(-3.447376e-8,0.56628148,-0.53374578,-3.9004645e-8,16.510057,9.6162314)" />
    <radialGradient
       cx="23.896"
       cy="3.99"
       r="20.396999"
       id="radialGradient3093-0-3-6-6"
       gradientUnits="userSpaceOnUse"
       gradientTransform="matrix(0,1.2316483,-1.625754,0,18.486966,-28.721977)">
      <stop
         id="stop3244-9-33-7-0-9"
         style="stop-color:#ffffff;stop-opacity:1"
         offset="0" />
      <stop
         id="stop3246-3-5-0-8-5"
         style="stop-color:#dddddd;stop-opacity:1"
         offset="0.26238" />
      <stop
         id="stop3248-1-7-8-8-1"
         style="stop-color:#abacae;stop-opacity:1"
         offset="0.66093999" />
      <stop
         id="stop3250-9-3-0-5-1"
         style="stop-color:#89898b;stop-opacity:1"
         offset="1" />
    </radialGradient>
    <linearGradient
       x1="71.204407"
       y1="15.369057"
       x2="71.204407"
       y2="40.495617"
       id="linearGradient3028"
       xlink:href="#linearGradient4806-9"
       gradientUnits="userSpaceOnUse"
       gradientTransform="matrix(0.81354497,0,0,0.81420403,-46.718551,-2.6725409)" />
    <linearGradient
       id="linearGradient4806-9">
      <stop
         id="stop4808-49"
         style="stop-color:#ffffff;stop-opacity:1"
         offset="0" />
      <stop
         id="stop4810-05"
         style="stop-color:#ffffff;stop-opacity:0.23529412"
         offset="0.42447853" />
      <stop
         id="stop4812-6"
         style="stop-color:#ffffff;stop-opacity:0.15686275"
         offset="0.82089913" />
      <stop
         id="stop4814-7"
         style="stop-color:#ffffff;stop-opacity:0.39215687"
         offset="1" />
    </linearGradient>
    <radialGradient
       r="15.561676"
       fy="12.175321"
       fx="13.018921"
       cy="12.175321"
       cx="13.018921"
       gradientTransform="matrix(-0.00264626,1.8811028,-2.7584004,-0.00387707,44.14587,-18.260209)"
       gradientUnits="userSpaceOnUse"
       id="radialGradient4642"
       xlink:href="#linearGradient2867-449-88-871-390-598-476-591-434-148-57-177-8-3"
       inkscape:collect="always" />
    <linearGradient
       id="linearGradient2867-449-88-871-390-598-476-591-434-148-57-177-8-3">
      <stop
         id="stop3750-1-0"
         style="stop-color:#90dbec;stop-opacity:1"
         offset="0" />
      <stop
         id="stop3752-3-7"
         style="stop-color:#55c1ec;stop-opacity:1"
         offset="0.26238" />
      <stop
         id="stop3754-1-8"
         style="stop-color:#3689e6;stop-opacity:1"
         offset="0.704952" />
      <stop
         id="stop3756-1-6"
         style="stop-color:#2b63a0;stop-opacity:1"
         offset="1" />
    </linearGradient>
    <linearGradient
       inkscape:collect="always"
       xlink:href="#linearGradient4007"
       id="linearGradient4013"
       x1="18.963203"
       y1="-57.281384"
       x2="15.945889"
       y2="78.129868"
       gradientUnits="userSpaceOnUse"
       gradientTransform="matrix(0.3310404,0,0,0.33833525,6.2705409,9.1427281)" />
    <linearGradient
       id="linearGradient4007">
      <stop
         style="stop-color:#ffffff;stop-opacity:1;"
         offset="0"
         id="stop4009" />
      <stop
         style="stop-color:#ffffff;stop-opacity:0;"
         offset="1"
         id="stop4011" />
    </linearGradient>
    <radialGradient
       r="19.99999"
       fy="8.44977"
       fx="-0.025213266"
       cy="8.449769"
       cx="15.645058"
       gradientTransform="matrix(-3.4474219e-8,0.56628908,-0.53375289,-3.9005167e-8,16.510115,9.6160921)"
       gradientUnits="userSpaceOnUse"
       id="radialGradient3122"
       xlink:href="#linearGradient2867-449-88-871-390-598-476-591-434-148-57-177-3-8-7"
       inkscape:collect="always" />
  </defs>
  <metadata
     id="metadata3951">
    <rdf:RDF>
      <cc:Work
         rdf:about="">
        <dc:format>image/svg+xml</dc:format>
        <dc:type
           rdf:resource="http://purl.org/dc/dcmitype/StillImage" />
        <dc:title></dc:title>
      </cc:Work>
    </rdf:RDF>
  </metadata>
  <g
     transform="translate(0,-8)"
     id="layer1">
    <path
       d="m 24,29 c 0,1.656854 -5.372583,3 -12,3 C 5.3725827,32 -2.5e-7,30.656854 -2.5e-7,29 -2.5e-7,27.343146 5.3725827,26 12,26 c 6.627417,0 12,1.343146 12,3 l 0,0 z"
       id="path8836"
       style="opacity:0.3;fill:url(#radialGradient3944);fill-opacity:1;fill-rule:evenodd;stroke:none;stroke-width:0.99999988;marker:none;visibility:visible;display:inline;overflow:visible" />
    <path
       d="m 11.999968,9.4825746 c -5.8081043,0 -10.5263981,4.7162904 -10.5263981,10.5219274 0,5.805638 4.7182938,10.52193 10.5263981,10.521928 5.808102,0 10.526402,-4.71629 10.526396,-10.521928 0,-5.805637 -4.718294,-10.5219274 -10.526396,-10.5219274 z"
       id="path2555-7-66"
       style="color:#000000;fill:url(#radialGradient3122);fill-opacity:1;fill-rule:nonzero;stroke:none;stroke-width:1;marker:none;visibility:visible;display:inline;overflow:visible;enable-background:accumulate"
       inkscape:connector-curvature="0" />
    <path
       d="m 11.999968,9.482715 c -5.8080266,0 -10.5262581,4.716228 -10.5262581,10.521788 0,5.805559 4.7182315,10.521789 10.5262581,10.521788 5.808023,0 10.526259,-4.716229 10.526255,-10.521788 0,-5.80556 -4.718232,-10.521788 -10.526255,-10.521788 z"
       id="path2555-7-65"
       style="color:#000000;fill:url(#radialGradient3321);fill-opacity:1;fill-rule:nonzero;stroke:none;stroke-width:1;marker:none;visibility:visible;display:inline;overflow:visible;enable-background:accumulate"
       inkscape:connector-curvature="0" />
    <path
       d="m 11.999968,9.4825746 c -5.8081043,0 -10.5263981,4.7162904 -10.5263981,10.5219274 0,5.805638 4.7182938,10.52193 10.5263981,10.521928 5.808102,0 10.526402,-4.71629 10.526396,-10.521928 0,-5.805637 -4.718294,-10.5219274 -10.526396,-10.5219274 z"
       id="path2555-7-1-7"
       style="opacity:0.5;color:#000000;fill:none;stroke:#000000;stroke-width:0.94713974;stroke-linecap:round;stroke-linejoin:round;stroke-miterlimit:4;stroke-opacity:1;stroke-dasharray:none;stroke-dashoffset:0;marker:none;visibility:visible;display:inline;overflow:visible;enable-background:accumulate"
       inkscape:connector-curvature="0" />
    <path
       d="m 21.964424,20.016801 c 0,5.507673 -4.461249,9.972525 -9.964456,9.972525 -5.5032091,0 -9.9644591,-4.464852 -9.9644591,-9.972525 0,-5.507673 4.46125,-9.972526 9.9644591,-9.972526 5.503207,0 9.964456,4.464852 9.964456,9.972526 z"
       id="path3421"
       style="opacity:0.5;color:#000000;fill:none;stroke:url(#linearGradient3028);stroke-width:0.94713974;stroke-linecap:round;stroke-linejoin:round;stroke-miterlimit:4;stroke-opacity:1;stroke-dasharray:none;stroke-dashoffset:0;marker:none;visibility:visible;display:inline;overflow:visible;enable-background:accumulate"
       inkscape:connector-curvature="0" />
    <path
       d="m 13.065177,28.846518 a 0.93875574,0.93835722 0 0 0 1.877511,0 0.93875574,0.93835722 0 1 0 -1.877511,0 z"
       id="path3775"
       style="opacity:0.81000001;color:#000000;fill:#2d2d2d;fill-opacity:1;fill-rule:nonzero;stroke:#2d2d2d;stroke-width:0.72611392;stroke-linecap:round;stroke-linejoin:round;stroke-miterlimit:4;stroke-opacity:1;stroke-dasharray:none;stroke-dashoffset:0;marker:none;visibility:visible;display:inline;overflow:visible;enable-background:accumulate"
       inkscape:connector-curvature="0" />
    <path
       style="fill:url(#radialGradient4642);fill-opacity:1;stroke:none"
       d="m 9.0527946,9.8179859 0.303232,-0.242482 0.545816,-0.1818621 0.7580784,-0.1818613 1.030985,-0.060623 0.66711,0.090929 1.273572,0.090929 1.212926,0.2727912 0.333553,0.2121727 -0.212262,0.4849636 -0.758077,1.182101 -0.303231,0.969928 -0.424525,1.1821 c 0,0 -0.151614,0.878998 -0.151614,1.06086 0,0.181861 -0.06065,1.303341 -0.06065,1.303341 l 0.515494,1.515512 1.152278,2.606683 1.182603,2.061098 0.758076,1.303343 0.545819,1.060858 0.121291,1.06086 0.151618,0.848686 -0.151618,1.030549 -0.06066,0.697136 -0.333558,0.727447 -0.424523,0.697136 -0.485171,0.363724 -1.121953,0.424343 -1.243251,0.212171 -1.849706,0.181863 -1.212925,-0.09092 -0.8793697,-0.06063 0.5154937,-0.788068 0.667108,-1.060858 0.30323,-1.212412 0.09097,-1.121479 -0.09096,-1.333654 L 11.114763,24.094113 10.417331,22.699841 9.6592523,21.335879 8.931497,20.2144 8.1430951,18.850437 7.5669554,17.334924 c 0,0 -0.3335541,-1.030549 -0.3942008,-1.21241 C 7.1121181,15.940656 7.021148,14.910107 7.021148,14.910107 L 7.3547022,13.303663 7.8398729,11.81846 z"
       id="path3152"
       inkscape:connector-curvature="0" />
    <path
       style="opacity:0.36637932;fill:none;stroke:#ffffff;stroke-width:0.49234724;stroke-linecap:square;stroke-linejoin:round;stroke-miterlimit:4;stroke-opacity:1;stroke-dasharray:none;stroke-dashoffset:0;marker:none;visibility:visible;display:block;overflow:visible"
       id="path4820-2"
       inkscape:connector-curvature="0"
       d="m 7.4663615,14.91011 c 1.8055947,0 3.6111895,0 5.4167785,0" />
    <path
       d="m 9.346395,20.335648 c 1.805595,0 3.61119,0 5.416779,0"
       inkscape:connector-curvature="0"
       id="path3982"
       style="opacity:0.36637932;fill:none;stroke:#ffffff;stroke-width:0.49234724;stroke-linecap:square;stroke-linejoin:round;stroke-miterlimit:4;stroke-opacity:1;stroke-dasharray:none;stroke-dashoffset:0;marker:none;visibility:visible;display:block;overflow:visible" />
    <path
       style="opacity:0.36637932;fill:none;stroke:#ffffff;stroke-width:0.49234724;stroke-linecap:square;stroke-linejoin:round;stroke-miterlimit:4;stroke-opacity:1;stroke-dasharray:none;stroke-dashoffset:0;marker:none;visibility:visible;display:block;overflow:visible"
       id="path3984"
       inkscape:connector-curvature="0"
       d="m 11.832892,25.700565 c 1.805596,0 3.61119,0 5.416779,0" />
    <path
       style="fill:#323232;fill-opacity:1"
       d="M 10.869814,30.883674 C 10.002896,30.825093 9.5381779,30.744892 8.8642137,30.537523 L 8.4330497,30.404859 8.7283661,30.157832 C 10.089948,29.018902 10.589798,27.774232 10.41779,25.951017 10.297561,24.676645 10.16437,24.302308 9.3417231,22.926719 9.0465734,22.433185 8.5832432,21.616922 8.3120989,21.112803 8.0409565,20.608682 7.7162321,20.025042 7.5904906,19.815823 7.2837286,19.305412 6.5311118,17.655392 6.3549254,17.106999 6.0174697,16.056645 5.9646631,14.476215 6.233509,13.473174 6.5304509,12.36531 7.031308,11.264054 7.732978,10.176229 L 8.0211716,9.7294323 8.6582762,9.5189281 c 1.1375123,-0.375841 2.0608588,-0.5216308 3.2861328,-0.5188554 1.465915,0.0033 2.614661,0.2128268 3.914664,0.713948 l 0.540985,0.2085376 -0.162687,0.2144447 c -0.301063,0.396844 -0.876665,1.365961 -1.006451,1.694514 -0.07079,0.179221 -0.193623,0.45303 -0.272955,0.608465 -0.07933,0.155435 -0.252115,0.680961 -0.383966,1.167834 -0.221651,0.818478 -0.238576,0.949218 -0.224478,1.733913 0.01961,1.092591 0.13147,1.454982 1.031339,3.341926 0.669658,1.40421 0.866085,1.765717 1.965505,3.61731 1.348288,2.270736 1.465066,2.641392 1.396071,4.431142 -0.04667,1.21064 -0.176359,1.740205 -0.544227,2.222303 -0.385979,0.505826 -2.219008,1.375668 -3.560335,1.689513 -1.295332,0.303082 -2.086131,0.3534 -3.76806,0.239751 z m 2.841422,-0.368824 c 0.638121,-0.09953 1.495742,-0.328335 2.155608,-0.575116 0.309533,-0.115764 0.447501,-0.221005 0.695818,-0.530778 0.366143,-0.456756 0.680416,-1.063379 0.817328,-1.577628 0.09912,-0.372309 0.14229,-1.980951 0.05898,-2.197954 -0.03669,-0.09557 -0.355178,-0.107397 -2.892531,-0.107397 l -2.851302,0 0.04588,0.628028 c 0.06082,0.832454 -0.04831,1.565801 -0.339114,2.27877 -0.281326,0.68975 -0.729163,1.48811 -1.035252,1.845556 l -0.222364,0.259674 0.594403,0.04355 c 0.326918,0.02395 0.65553,0.05481 0.730249,0.06856 0.244612,0.04505 1.616839,-0.03773 2.242294,-0.135279 z M 9.9276318,30.060394 c 0.031235,-0.164845 -0.3025352,-0.242285 -0.4422664,-0.102613 -0.1469256,0.146864 -0.045816,0.264338 0.2063941,0.239804 0.1372677,-0.01336 0.2217168,-0.06247 0.2358723,-0.137191 z m 0.4860222,-0.559587 c 0.114959,-0.138457 0.0295,-0.240606 -0.201303,-0.240606 -0.107664,0 -0.2154712,0.0319 -0.2395723,0.07087 -0.059842,0.09679 0.093396,0.268608 0.2395723,0.268608 0.06557,0 0.156154,-0.04449 0.201303,-0.09887 z m 0.391118,-0.792038 c 0.131079,-0.131023 0.0175,-0.263307 -0.226106,-0.263307 -0.1782,0 -0.230467,0.02823 -0.230467,0.124473 0,0.06845 0.02038,0.144842 0.04528,0.169738 0.07184,0.07182 0.327761,0.05258 0.411289,-0.03091 z m 7.116933,-0.09358 c 0,-0.0991 -0.05271,-0.141812 -0.195066,-0.158072 -0.250503,-0.02861 -0.367983,0.07958 -0.245978,0.226521 0.128282,0.154504 0.441044,0.105964 0.441044,-0.06844 z m -6.792382,-0.882626 c 0,-0.0991 -0.05272,-0.14181 -0.195065,-0.158071 -0.228036,-0.02605 -0.350068,0.06897 -0.289887,0.22574 0.06557,0.170771 0.484952,0.112249 0.484952,-0.06767 z m 7.064078,0 c 0,-0.09932 -0.05276,-0.141807 -0.1964,-0.158199 -0.221004,-0.02523 -0.34472,0.10612 -0.230051,0.244224 0.116363,0.140152 0.426451,0.07759 0.426451,-0.08602 z M 11.265169,26.84993 c 0,-0.0991 -0.05271,-0.141812 -0.195063,-0.158073 -0.228037,-0.02605 -0.35007,0.06897 -0.289889,0.22574 0.06556,0.170771 0.484952,0.11225 0.484952,-0.06768 z m 7.085783,-0.01697 c 0.01893,-0.133185 -0.0085,-0.152762 -0.213482,-0.152762 -0.250293,0 -0.36279,0.131406 -0.227914,0.266223 0.132735,0.132681 0.4168,0.05965 0.441396,-0.113461 z m -7.013828,-0.770335 c 0.0253,-0.04092 -10e-4,-0.121269 -0.05817,-0.178541 -0.143765,-0.143704 -0.45529,-0.06266 -0.45529,0.118455 0,0.108007 0.04604,0.134496 0.233724,0.134496 0.128547,0 0.25443,-0.03349 0.279733,-0.07441 z m 7.09401,-0.06008 c 0,-0.18111 -0.311526,-0.262162 -0.45529,-0.118457 -0.14645,0.146388 -0.05311,0.252952 0.221567,0.252952 0.187691,0 0.233723,-0.0265 0.233723,-0.134495 z m -7.232048,-0.819017 c 0.05838,-0.09443 -0.09217,-0.268869 -0.230908,-0.267566 -0.178574,0.0017 -0.303383,0.112635 -0.258426,0.229742 0.04706,0.122598 0.419135,0.151359 0.489334,0.03783 z m 7.083945,-0.08189 c -0.02476,-0.174178 -0.27783,-0.244428 -0.428951,-0.119063 -0.15513,0.12869 -0.04167,0.271827 0.215466,0.271827 0.205049,0 0.23241,-0.01957 0.213485,-0.152764 z M 17.24253,24.593767 c -0.128286,-0.447722 -0.192644,-0.568712 -1.445335,-2.717146 l -0.920412,-1.578559 -2.841643,0 c -1.562907,0 -2.8416458,0.01762 -2.8416458,0.03917 0,0.05897 0.6576535,1.232179 1.2910848,2.303214 0.679598,1.14909 0.992684,1.786053 1.052844,2.141983 l 0.0451,0.266825 2.863935,0.01772 c 1.575164,0.0098 2.873922,-0.0045 2.886127,-0.03186 0.01221,-0.02726 -0.02832,-0.225859 -0.09004,-0.441317 z m -6.418864,-0.255949 c 0.06746,-0.08126 0.06746,-0.122432 0,-0.203685 -0.105313,-0.126838 -0.208757,-0.128866 -0.375016,-0.0074 -0.109845,0.0803 -0.115653,0.110914 -0.03863,0.203685 0.113802,0.137065 0.303149,0.140427 0.413643,0.0074 z m 7.02456,0.06064 c 0.148055,-0.05678 0.135263,-0.280286 -0.01882,-0.329175 -0.179876,-0.05707 -0.349189,0.02454 -0.349189,0.168307 0,0.164774 0.167255,0.23788 0.368027,0.160868 z m -7.44436,-1.09604 c 0.01839,-0.129397 -0.0096,-0.152765 -0.182782,-0.152765 -0.2246669,0 -0.3138581,0.08657 -0.2528717,0.245432 0.064046,0.166833 0.4092147,0.0934 0.4356537,-0.09267 z m 7.110296,0.01697 c 0,-0.0991 -0.05271,-0.14181 -0.195062,-0.15807 -0.228039,-0.02605 -0.350071,0.06897 -0.28989,0.225739 0.06555,0.170769 0.484952,0.112249 0.484952,-0.06768 z M 9.89412,22.512928 c 0.048435,-0.126157 -0.082415,-0.245906 -0.2686976,-0.245906 -0.1747741,0 -0.2571668,0.09809 -0.2023459,0.240884 0.048248,0.125659 0.4231963,0.129656 0.4710435,0.0049 z m 7.076651,-0.07617 c 0,-0.0991 -0.05271,-0.141811 -0.195067,-0.158073 -0.228033,-0.02605 -0.350065,0.06897 -0.289884,0.22574 0.06555,0.170769 0.484951,0.11225 0.484951,-0.06767 z m -7.5395441,-0.88264 c 0,-0.0991 -0.052714,-0.141811 -0.1950639,-0.15807 -0.2505072,-0.02861 -0.3679872,0.07957 -0.2459791,0.226521 0.1282801,0.154505 0.441043,0.105963 0.441043,-0.06845 z m 6.9961551,0 c 0,-0.0991 -0.05272,-0.141811 -0.195066,-0.15807 -0.250505,-0.02861 -0.367985,0.07957 -0.245978,0.226521 0.12828,0.154505 0.441044,0.105963 0.441044,-0.06845 z M 8.8416174,20.620564 c -0.017,-0.119652 -0.065865,-0.152763 -0.2254752,-0.152763 -0.1596049,0 -0.2084768,0.0331 -0.2254772,0.152763 -0.019091,0.134411 0.008,0.152764 0.2254772,0.152764 0.2174853,0 0.2445729,-0.01836 0.2254752,-0.152764 z m 6.9961536,0 c -0.017,-0.119652 -0.06587,-0.152763 -0.225474,-0.152763 -0.159607,0 -0.208476,0.0331 -0.225479,0.152763 -0.01911,0.134411 0.008,0.152764 0.225479,0.152764 0.217484,0 0.244576,-0.01836 0.225474,-0.152764 z M 8.3444456,19.78885 c 0,-0.0991 -0.052715,-0.141809 -0.1950646,-0.158071 -0.228036,-0.02605 -0.3500678,0.06897 -0.289888,0.225739 0.065567,0.170771 0.4849526,0.11225 0.4849526,-0.06767 z m 7.0640774,0 c 0,-0.09932 -0.05276,-0.141809 -0.1964,-0.1582 -0.221001,-0.02523 -0.344717,0.10612 -0.230051,0.244225 0.116366,0.140151 0.426451,0.07759 0.426451,-0.08602 z m -1.251475,-0.933555 c -0.836109,-1.756471 -1.089167,-2.559717 -1.090892,-3.462646 l -10e-4,-0.526185 -2.886762,0 -2.8867637,0 0,0.470825 c 0,0.934524 0.2456238,1.710954 1.1021822,3.484058 l 0.4837839,1.001452 2.8700016,0 2.870002,0 -0.460547,-0.967504 z m -6.2880685,0.05092 c 0,-0.0991 -0.052715,-0.141812 -0.1950654,-0.158071 -0.2280353,-0.02605 -0.3500675,0.06897 -0.2898876,0.225738 0.065561,0.170771 0.484953,0.11225 0.484953,-0.06767 z m 7.0640775,0 c 0,-0.09932 -0.05276,-0.14181 -0.1964,-0.158203 -0.207716,-0.02371 -0.324668,0.08283 -0.264113,0.24057 0.02297,0.05988 0.114286,0.0871 0.24843,0.07406 0.159921,-0.01556 0.212083,-0.05402 0.212083,-0.156419 z M 7.4152179,17.972661 c -0.017003,-0.119653 -0.065869,-0.152765 -0.2254762,-0.152765 -0.159605,0 -0.2084761,0.0331 -0.2254769,0.152765 -0.019095,0.13441 0.00799,0.152764 0.2254769,0.152764 0.2174846,0 0.2445739,-0.01835 0.2254762,-0.152764 z m 7.1312361,0.0024 c 0.03123,-0.164851 -0.302536,-0.242287 -0.442268,-0.102616 -0.146926,0.146862 -0.04582,0.264337 0.206393,0.239804 0.137269,-0.01335 0.221718,-0.06246 0.235875,-0.137191 z M 7.1218176,17.140957 c 0,-0.09932 -0.052757,-0.141811 -0.1964014,-0.158201 -0.2210023,-0.02522 -0.3447173,0.106119 -0.230051,0.244224 0.1163643,0.140151 0.4264524,0.07759 0.4264524,-0.08602 z m 7.0955714,0.07087 c 0.114957,-0.138459 0.0295,-0.240607 -0.201304,-0.240607 -0.214549,0 -0.304519,0.08815 -0.245884,0.240884 0.04897,0.127561 0.341198,0.127379 0.447188,-2.71e-4 z M 6.8501224,16.258321 c 0,-0.09931 -0.052757,-0.14181 -0.1964014,-0.158201 -0.2210026,-0.02522 -0.3447175,0.10612 -0.2300513,0.244225 0.1163646,0.140151 0.4264527,0.07759 0.4264527,-0.08602 z m 7.1319996,0 c 0,-0.0991 -0.05272,-0.141812 -0.195062,-0.158072 -0.228037,-0.02605 -0.350068,0.06898 -0.289888,0.225739 0.06555,0.17077 0.48495,0.112251 0.48495,-0.06766 z M 6.8136911,15.446555 c 0.045148,-0.05438 0.062371,-0.130759 0.038272,-0.169737 -0.0702,-0.113534 -0.4422699,-0.08478 -0.4893348,0.03782 -0.078588,0.20471 0.2989518,0.315119 0.451065,0.131911 z m 7.1222129,-0.08784 c 0.01893,-0.133186 -0.0084,-0.152763 -0.213482,-0.152763 -0.250292,0 -0.36279,0.131407 -0.227915,0.266224 0.132736,0.132678 0.416801,0.05966 0.441397,-0.113461 z M 6.9397509,14.374235 c -0.017003,-0.119652 -0.065875,-0.152763 -0.2254768,-0.152763 -0.1596044,0 -0.2084755,0.03311 -0.2254762,0.152763 -0.019099,0.13441 0.00799,0.152764 0.2254762,0.152764 0.2174853,0 0.2445738,-0.01835 0.2254768,-0.152764 z m 7.1223271,0.04407 c 0.04844,-0.126164 -0.0834,-0.228251 -0.296699,-0.229741 -0.171498,-0.0012 -0.253522,0.09769 -0.198948,0.239845 0.05248,0.136698 0.442339,0.128751 0.495647,-0.0101 z m -0.820092,-0.672109 c 0.28508,-1.154952 0.85223,-2.453677 1.527728,-3.498359 C 14.920467,10.014694 15.01889,9.8007735 14.988432,9.7724586 14.807412,9.6041699 12.818091,9.2934133 11.905909,9.2909292 10.958448,9.2883535 9.6415836,9.5238255 9.4325052,9.7332138 9.203999,9.9620553 8.3201881,11.49383 8.0276366,12.168055 7.7641638,12.775263 7.490374,13.633313 7.3992721,14.137332 l -0.04615,0.255345 2.8690189,-0.01771 2.86902,-0.01772 0.15083,-0.611054 z M 7.1368869,13.63608 c 0.1219532,-0.121901 0.020917,-0.263307 -0.1881376,-0.263307 -0.2115585,0 -0.3010078,0.0888 -0.2426255,0.240884 0.044776,0.116637 0.3220698,0.131071 0.4307631,0.02242 z m 7.1169311,-0.09358 c 0,-0.0991 -0.05271,-0.141813 -0.195063,-0.158072 -0.228039,-0.02605 -0.35007,0.06898 -0.289888,0.225739 0.06555,0.170769 0.484951,0.11225 0.484951,-0.06766 z M 7.4152179,12.608955 c -0.026375,-0.185638 -0.3293919,-0.246043 -0.4578911,-0.09128 -0.1240655,0.149427 -0.030574,0.24404 0.2411476,0.24404 0.2084292,0 0.2357159,-0.01922 0.2167435,-0.152764 z m 7.1143241,0.07835 c 0.02531,-0.04093 -10e-4,-0.121269 -0.05817,-0.178541 -0.143765,-0.143704 -0.455289,-0.06266 -0.455289,0.118454 0,0.108007 0.04604,0.134497 0.233724,0.134497 0.12855,0 0.25443,-0.03348 0.279733,-0.07441 z m -6.79641,-0.977959 c 0,-0.15884 -0.2602057,-0.22407 -0.4072443,-0.102089 -0.1566915,0.129987 -0.04223,0.281599 0.195162,0.258509 0.1599202,-0.01556 0.2120823,-0.05403 0.2120823,-0.15642 z m 7.132001,0 c 0,-0.09112 -0.05286,-0.143265 -0.160662,-0.158511 -0.195818,-0.02769 -0.313812,0.07654 -0.256286,0.22639 0.0641,0.166965 0.416948,0.109521 0.416948,-0.06789 z M 8.1623799,10.877633 c 0.019028,-0.133942 -0.00817,-0.152764 -0.2207526,-0.152764 -0.1898279,0 -0.2424574,0.02703 -0.2424574,0.124474 0,0.173175 0.068691,0.224511 0.2691533,0.201144 0.1192342,-0.0139 0.179041,-0.06718 0.1940567,-0.172854 z m 7.1102961,0.01698 c 0,-0.0991 -0.05272,-0.141812 -0.195065,-0.158073 -0.228035,-0.02605 -0.350066,0.06898 -0.28989,0.225739 0.06556,0.17077 0.484955,0.112251 0.484955,-0.06767 z m 0.407541,-0.678952 c 0,-0.09112 -0.05286,-0.143266 -0.160661,-0.158513 -0.195815,-0.02769 -0.313814,0.07654 -0.256287,0.226391 0.0641,0.166966 0.416948,0.109522 0.416948,-0.06788 z m -7.0640748,-0.06789 c 0,-0.1798508 -0.4014968,-0.2360957 -0.4670183,-0.06542 -0.065915,0.171698 0.017333,0.244845 0.2526399,0.222013 0.1621587,-0.01574 0.2143784,-0.05388 0.2143784,-0.15659 z"
       id="path3150"
       inkscape:connector-curvature="0" />
    <path
       style="fill:none;stroke:url(#linearGradient4013);stroke-width:0.33466795px;stroke-linecap:butt;stroke-linejoin:miter;stroke-opacity:1"
       d="m 9.5035594,9.8926309 0.8025216,-0.2343444 0.91717,-0.140607 0.779592,-0.04687 0.985956,0.1171717 0.848381,0.1171727 0.936798,0.2340353 c -0.373207,0.7222388 -0.718075,1.2716008 -1.099777,1.9441328 -0.101864,0.251286 -0.161394,0.517857 -0.252222,0.773338 -0.09254,0.260302 -0.247038,0.531176 -0.321833,0.820825 -0.173979,0.508447 -0.247602,0.859758 -0.248922,1.312951 0.03462,0.532231 0.01163,0.642007 0.04586,0.960813 0.02959,0.275636 0.07806,0.549447 0.137575,0.820207 0.07475,0.340068 0.275151,1.007682 0.275151,1.007682 l 0.412726,1.031118 0.389796,0.749902 0.664947,1.265463 0.827926,1.335764 0.70833,1.265461 c 0,0 0.481516,0.749904 0.504444,0.867075 0.02293,0.117173 0.252222,0.72647 0.252222,0.72647 0,0 0.160504,0.984249 0.160504,1.077985 0,0.09374 0.07292,1.076438 0.07292,1.076438 l -0.130151,1.025855 c 0,0 -0.293957,0.679546 -0.524897,0.962981 -0.344641,0.422984 -0.816545,0.707678 -0.816545,0.707678 l -1.284036,0.445256 -0.963026,0.140606 -1.261107,0.117172 -1.238177,0.04686 -0.595334,-0.07031 c 0,0 0.605921,-0.727515 0.808297,-1.124236 0.243493,-0.477329 0.497838,-1.500421 0.497838,-1.500421 l 0.160499,-1.78101 -0.412727,-1.874759 -0.710805,-1.382634 -0.619088,-1.101422 -0.9859568,-1.546673 c 0,0 -0.6572144,-1.124087 -0.9000137,-1.687284 -0.2925869,-0.678677 -0.7050344,-2.038799 -0.7050344,-2.038799 0,0 -0.1875574,-1.077984 -0.1875574,-1.242026 0,-0.164041 0.2334157,-1.242027 0.2334157,-1.242027 0,0 0.4009354,-1.188109 0.6599987,-1.757896 0.3415074,-0.751118 1.1743384,-2.1790968 1.1743384,-2.1790968 z"
       id="path4005"
       inkscape:connector-curvature="0"
       sodipodi:nodetypes="ccccccccsccssccccccscsccsccccccsccccccsczcac" />
  </g>
</svg>
