<?xml version="1.0" encoding="UTF-8" standalone="no"?>
<!-- Created with Inkscape (http://www.inkscape.org/) -->

<svg
   xmlns:dc="http://purl.org/dc/elements/1.1/"
   xmlns:cc="http://creativecommons.org/ns#"
   xmlns:rdf="http://www.w3.org/1999/02/22-rdf-syntax-ns#"
   xmlns:svg="http://www.w3.org/2000/svg"
   xmlns="http://www.w3.org/2000/svg"
   xmlns:xlink="http://www.w3.org/1999/xlink"
   xmlns:sodipodi="http://sodipodi.sourceforge.net/DTD/sodipodi-0.dtd"
   xmlns:inkscape="http://www.inkscape.org/namespaces/inkscape"
   version="1.1"
   width="24"
   height="24"
   id="svg12303"
   inkscape:version="0.48.4 r9939"
   sodipodi:docname="epiphany-gecko.svg">
  <sodipodi:namedview
     pagecolor="#ffffff"
     bordercolor="#666666"
     borderopacity="1"
     objecttolerance="10"
     gridtolerance="10"
     guidetolerance="10"
     inkscape:pageopacity="0"
     inkscape:pageshadow="2"
     inkscape:window-width="1855"
     inkscape:window-height="1056"
     id="namedview31"
     showgrid="false"
     inkscape:zoom="40.173914"
     inkscape:cx="12"
     inkscape:cy="11.5"
     inkscape:window-x="65"
     inkscape:window-y="24"
     inkscape:window-maximized="1"
     inkscape:current-layer="layer1" />
  <defs
     id="defs12305">
    <linearGradient
       x1="71.204407"
       y1="6.2375584"
       x2="71.204407"
       y2="44.340794"
       id="linearGradient6351"
       xlink:href="#linearGradient4011-2"
       gradientUnits="userSpaceOnUse"
       gradientTransform="matrix(0.5135135,0,0,0.5135135,-24.83613,-9.02128)" />
    <linearGradient
       id="linearGradient4011-2">
      <stop
         id="stop4013-7"
         style="stop-color:#ffffff;stop-opacity:1"
         offset="0" />
      <stop
         id="stop4015-9"
         style="stop-color:#ffffff;stop-opacity:0.23529412"
         offset="0.507761" />
      <stop
         id="stop4017-5"
         style="stop-color:#ffffff;stop-opacity:0.15686275"
         offset="0.83456558" />
      <stop
         id="stop4019-6"
         style="stop-color:#ffffff;stop-opacity:0.39215687"
         offset="1" />
    </linearGradient>
    <radialGradient
       cx="7.1334543"
       cy="8.4497671"
       r="19.99999"
       fx="7.1334543"
       fy="8.4497671"
       id="radialGradient6358"
       xlink:href="#linearGradient3242-7-3-8-0-4-58-8"
       gradientUnits="userSpaceOnUse"
       gradientTransform="matrix(0,1.1468756,-1.2132576,-3.1216191e-8,22.2518,-14.94309)" />
    <linearGradient
       id="linearGradient2867-449-88-871-390-598-476-591-434-148-57-177-3-8-5">
      <stop
         id="stop3750-8-9-1"
         style="stop-color:#90dbec;stop-opacity:1"
         offset="0" />
      <stop
         id="stop3752-3-2-2"
         style="stop-color:#42baea;stop-opacity:1"
         offset="0.26238" />
      <stop
         id="stop3754-7-2-5"
         style="stop-color:#3689e6;stop-opacity:1"
         offset="0.704952" />
      <stop
         id="stop3756-9-3-2"
         style="stop-color:#2b63a0;stop-opacity:1"
         offset="1" />
    </linearGradient>
    <linearGradient
       x1="24"
       y1="44"
       x2="24"
       y2="3.8990016"
       id="linearGradient6360"
       xlink:href="#linearGradient3707-319-631-407-324-3-8-4"
       gradientUnits="userSpaceOnUse"
       gradientTransform="matrix(0.53851149,0,0,0.53851149,-0.92427,-8.9242797)" />
    <linearGradient
       id="linearGradient3707-319-631-407-324-3-8-4">
      <stop
         id="stop3760-7-3-4"
         style="stop-color:#185f9a;stop-opacity:1"
         offset="0" />
      <stop
         id="stop3762-8-4-6"
         style="stop-color:#599ec9;stop-opacity:1"
         offset="1" />
    </linearGradient>
    <linearGradient
       id="linearGradient8838">
      <stop
         id="stop8840"
         style="stop-color:#000000;stop-opacity:1"
         offset="0" />
      <stop
         id="stop8842"
         style="stop-color:#000000;stop-opacity:0"
         offset="1" />
    </linearGradient>
    <radialGradient
       cx="62.625"
       cy="4.625"
       r="10.625"
       fx="62.625"
       fy="4.625"
       id="radialGradient12301"
       xlink:href="#linearGradient8838"
       gradientUnits="userSpaceOnUse"
       gradientTransform="matrix(1.0352941,0,0,0.2823525,-52.83529,11.69412)" />
    <linearGradient
       gradientTransform="matrix(0.34627962,0,0,0.34627962,3.7308065,-4.7139969)"
       x1="24"
       y1="22"
       x2="24"
       y2="26"
       id="linearGradient3963"
       xlink:href="#linearGradient3957"
       gradientUnits="userSpaceOnUse" />
    <linearGradient
       id="linearGradient3957">
      <stop
         id="stop3959"
         style="stop-color:#ffffff;stop-opacity:1"
         offset="0" />
      <stop
         id="stop3961"
         style="stop-color:#c1c1c1;stop-opacity:1"
         offset="1" />
    </linearGradient>
    <linearGradient
       gradientTransform="matrix(0.46170616,0,0,0.46170616,0.96056958,-7.4842333)"
       x1="21.013996"
       y1="25.433903"
       x2="22.805599"
       y2="27.343702"
       id="linearGradient3963-7"
       xlink:href="#linearGradient3957-2"
       gradientUnits="userSpaceOnUse" />
    <linearGradient
       id="linearGradient3957-2">
      <stop
         id="stop3959-62"
         style="stop-color:#ffffff;stop-opacity:1"
         offset="0" />
      <stop
         id="stop3961-5"
         style="stop-color:#c1c1c1;stop-opacity:1"
         offset="1" />
    </linearGradient>
    <linearGradient
       gradientTransform="matrix(0.46170616,0,0,0.46170616,2.9605696,-7.4842333)"
       x1="27.92535"
       y1="15.149301"
       x2="33.447899"
       y2="22.986004"
       id="linearGradient3951"
       xlink:href="#linearGradient4168"
       gradientUnits="userSpaceOnUse" />
    <linearGradient
       id="linearGradient4168">
      <stop
         id="stop4170"
         style="stop-color:#f8b17e;stop-opacity:1"
         offset="0" />
      <stop
         id="stop4172"
         style="stop-color:#e35d4f;stop-opacity:1"
         offset="0.23208089" />
      <stop
         id="stop4174"
         style="stop-color:#c6262e;stop-opacity:1"
         offset="0.5908742" />
      <stop
         id="stop4176"
         style="stop-color:#690b54;stop-opacity:1"
         offset="1" />
    </linearGradient>
    <radialGradient
       cx="99.157013"
       cy="186.17059"
       r="62.769119"
       fx="99.157013"
       fy="186.17059"
       id="radialGradient3018"
       xlink:href="#linearGradient3820-7-2-1"
       gradientUnits="userSpaceOnUse"
       gradientTransform="matrix(0.27083381,0,0,0.08762273,-2.855072,25.187228)" />
    <linearGradient
       id="linearGradient3820-7-2-1">
      <stop
         id="stop3822-2-6-3"
         style="stop-color:#3d3d3d;stop-opacity:1"
         offset="0" />
      <stop
         id="stop3864-8-7-7"
         style="stop-color:#686868;stop-opacity:0.49803922"
         offset="0.5" />
      <stop
         id="stop3824-1-2-5"
         style="stop-color:#686868;stop-opacity:0"
         offset="1" />
    </linearGradient>
    <radialGradient
       cx="3.9722471"
       cy="8.4497671"
       r="19.99999"
       fx="3.9722471"
       fy="8.4497671"
       id="radialGradient3015"
       xlink:href="#linearGradient3242-7-3-8-0-4-58-8"
       gradientUnits="userSpaceOnUse"
       gradientTransform="matrix(0,2.4988347,-2.6434689,-6.8014435e-8,-12.849627,-48.842273)" />
    <linearGradient
       id="linearGradient3242-7-3-8-0-4-58-8">
      <stop
         offset="0"
         style="stop-color:#fff769;stop-opacity:1;"
         id="stop3244-5-8-5-6-4-3-1" />
      <stop
         offset="0.26238"
         style="stop-color:#99d451;stop-opacity:1;"
         id="stop3246-9-5-1-5-3-0-2" />
      <stop
         offset="0.66093999"
         style="stop-color:#69aa30;stop-opacity:1;"
         id="stop3248-7-2-0-7-5-35-7" />
      <stop
         offset="1"
         style="stop-color:#396c1f;stop-opacity:1;"
         id="stop3250-8-2-8-5-6-40-1" />
    </linearGradient>
    <linearGradient
       x1="71.204407"
       y1="6.2375584"
       x2="71.204407"
       y2="44.340794"
       id="linearGradient3012"
       xlink:href="#linearGradient4011"
       gradientUnits="userSpaceOnUse"
       gradientTransform="matrix(1.054054,0,0,1.054054,-110.79744,-39.389706)" />
    <linearGradient
       id="linearGradient4011">
      <stop
         id="stop4013"
         style="stop-color:#ffffff;stop-opacity:1"
         offset="0" />
      <stop
         id="stop4015"
         style="stop-color:#ffffff;stop-opacity:0.23529412"
         offset="0.507761" />
      <stop
         id="stop4017"
         style="stop-color:#ffffff;stop-opacity:0.15686275"
         offset="0.83456558" />
      <stop
         id="stop4019"
         style="stop-color:#ffffff;stop-opacity:0.39215687"
         offset="1" />
    </linearGradient>
    <radialGradient
       r="62.769119"
       fy="186.17059"
       fx="99.157013"
       cy="186.17059"
       cx="99.157013"
       gradientTransform="matrix(0.27083381,0,0,0.08762273,-62.041512,-11.474577)"
       gradientUnits="userSpaceOnUse"
       id="radialGradient4033"
       xlink:href="#linearGradient3820-7-2-1"
       inkscape:collect="always" />
  </defs>
  <metadata
     id="metadata12308">
    <rdf:RDF>
      <cc:Work
         rdf:about="">
        <dc:format>image/svg+xml</dc:format>
        <dc:type
           rdf:resource="http://purl.org/dc/dcmitype/StillImage" />
        <dc:title></dc:title>
      </cc:Work>
    </rdf:RDF>
  </metadata>
  <g
     transform="translate(0,8)"
     id="layer1">
    <path
       d="m 23,13 c 0,1.65685 -4.92486,3 -11,3 -6.07514,0 -11,-1.34315 -11,-3 0,-1.65685 4.92486,-3 11,-3 6.07514,0 11,1.34315 11,3 l 0,0 z"
       id="path8836"
       style="opacity:0.3;fill:url(#radialGradient12301);fill-opacity:1;fill-rule:evenodd;stroke:none;stroke-width:0.99999988;marker:none;visibility:visible;display:inline;overflow:visible" />
    <path
       d="M 12,-6.4999997 C 6.20646,-6.4999997 1.5,-1.79354 1.5,4 1.5,9.79354 6.20646,14.5 12,14.5 17.79354,14.5 22.5,9.79354 22.5,4 22.5,-1.79354 17.79354,-6.4999997 12,-6.4999997 z"
       id="path2555-7-1"
       style="color:#000000;fill:url(#radialGradient6358);fill-opacity:1;fill-rule:nonzero;stroke:none;stroke-width:1;stroke-linecap:round;stroke-linejoin:round;stroke-miterlimit:4;stroke-opacity:1;stroke-dasharray:none;stroke-dashoffset:0;marker:none;visibility:visible;display:inline;overflow:visible;enable-background:accumulate" />
    <path
       d="M 21.5,3.99966 C 21.5,9.24654 17.24639,13.5 12.00012,13.5 6.75337,13.5 2.5,9.24649 2.5,3.99966 c 0,-5.24663 4.25337,-9.4996597 9.50012,-9.4996597 5.24627,0 9.49988,4.2530297 9.49988,9.4996597 l 0,0 z"
       id="path8655-6-6"
       style="opacity:0.5;color:#000000;fill:none;stroke:url(#linearGradient6351);stroke-width:0.99999988;stroke-linecap:round;stroke-linejoin:round;stroke-miterlimit:4;stroke-opacity:1;stroke-dasharray:none;stroke-dashoffset:0;marker:none;visibility:visible;display:inline;overflow:visible;enable-background:accumulate" />
    <g
       id="g15"
       transform="matrix(0.09365194,0,0,0.09365194,-0.64426463,-8.1483912)">
      <g
         id="g17"
         style="opacity:0.2">
        <g
           id="g19">
          <g
             id="g21">
            <path
               d="m 64.3363,123.3782 c 43.5821,-13.2261 97.7626,-6.8201 134.8025,15.9416 2.6832,1.6562 4.2247,4.4397 4.4201,7.3596 0.0574,-3.1976 -1.4966,-6.3505 -4.4201,-8.15 -37.0398,-22.7616 -91.2204,-29.1676 -134.8025,-15.9397 -4.3323,1.3156 -7.0065,5.4901 -6.5961,9.8349 -0.0358,-4.0492 2.5273,-7.8079 6.5961,-9.0464"
               id="path23"
               inkscape:connector-curvature="0" />
            <path
               d="m 68.502,161.197 c 45.7115,-10.4496 84.9219,-5.9525 116.5505,13.3749 2.1383,1.3049 3.3697,3.5149 3.5435,5.8396 0.0842,-2.6043 -1.1615,-5.1746 -3.5435,-6.63 -31.6286,-19.3274 -70.8391,-23.8263 -116.5505,-13.3767 -3.6296,0.8281 -6.0063,4.1584 -5.7787,7.7521 0.1469,-3.2819 2.4179,-6.1981 5.7787,-6.9599"
               id="path25"
               inkscape:connector-curvature="0" />
            <path
               d="m 57.5575,82.8021 c 42.3883,-12.8676 112.8528,-10.3815 157.3849,16.0527 3.2836,1.9483 5.1925,5.3108 5.4507,8.849 -0.007,-3.8196 -1.9232,-7.546 -5.4507,-9.6395 C 170.4103,71.6301 99.9458,69.144 57.5575,82.0117 c -5.2015,1.5809 -8.41,6.587 -7.9134,11.7939 -0.1166,-4.9111 2.9789,-9.5033 7.9134,-11.0035"
               id="path27"
               inkscape:connector-curvature="0" />
          </g>
        </g>
      </g>
      <path
         d="M 199.1386,139.3198 C 162.0987,116.5582 107.92,110.1522 64.3361,123.3783 c -4.9399,1.5038 -7.7306,6.7197 -6.2394,11.6685 1.5039,4.938 6.7287,7.727 11.6775,6.2321 38.1512,-11.5807 87.3255,-5.8378 119.5743,13.9843 4.3985,2.7029 10.1557,1.3228 12.8694,-3.0811 2.703,-4.3932 1.3192,-10.154 -3.0793,-12.8623"
         id="path29"
         inkscape:connector-curvature="0"
         style="fill:#ffffff" />
      <path
         d="M 214.9415,98.8541 C 170.4111,72.4198 99.9467,69.9356 57.5565,82.8014 c -5.9346,1.8032 -9.2774,8.0694 -7.4797,14.0022 1.796,5.9292 8.0676,9.2774 13.9968,7.4779 36.9252,-11.2078 100.7291,-9.0946 139.4108,13.8767 5.3199,3.1672 12.2134,1.4088 15.3788,-3.9254 3.16,-5.3252 1.4106,-12.2133 -3.9217,-15.3787"
         id="path31"
         inkscape:connector-curvature="0"
         style="fill:#ffffff" />
      <path
         d="m 185.052,174.5724 c -31.6287,-19.3292 -70.8391,-23.8245 -116.5506,-13.3748 -4.0329,0.9177 -6.5458,4.9308 -5.6245,8.9548 0.9177,4.0239 4.9291,6.5458 8.9548,5.6245 41.77,-9.5427 77.2379,-5.6532 105.418,11.5717 3.5238,2.1526 8.1285,1.045 10.283,-2.4897 2.1562,-3.5256 1.0467,-8.132 -2.4807,-10.2865"
         id="path33"
         inkscape:connector-curvature="0"
         style="fill:#ffffff" />
    </g>
    <path
       style="color:#000000;fill:none;fill-opacity:1;fill-rule:nonzero;stroke:#1e3c00;stroke-width:1;stroke-linecap:round;stroke-linejoin:round;stroke-miterlimit:4;stroke-opacity:1;stroke-dasharray:none;stroke-dashoffset:0;marker:none;visibility:visible;display:inline;overflow:visible;enable-background:accumulate;opacity:0.59999999999999998"
       id="path3864"
       d="M 12,-6.4999997 C 6.20646,-6.4999997 1.5,-1.79354 1.5,4 1.5,9.79354 6.20646,14.5 12,14.5 17.79354,14.5 22.5,9.79354 22.5,4 22.5,-1.79354 17.79354,-6.4999997 12,-6.4999997 z" />
  </g>
</svg>
