<?xml version="1.0" encoding="UTF-8" standalone="no"?>
<!-- Created with Inkscape (http://www.inkscape.org/) -->

<svg
   xmlns:dc="http://purl.org/dc/elements/1.1/"
   xmlns:cc="http://creativecommons.org/ns#"
   xmlns:rdf="http://www.w3.org/1999/02/22-rdf-syntax-ns#"
   xmlns:svg="http://www.w3.org/2000/svg"
   xmlns="http://www.w3.org/2000/svg"
   xmlns:xlink="http://www.w3.org/1999/xlink"
   xmlns:sodipodi="http://sodipodi.sourceforge.net/DTD/sodipodi-0.dtd"
   xmlns:inkscape="http://www.inkscape.org/namespaces/inkscape"
   version="1.1"
   width="24"
   height="24"
   id="svg6333"
   inkscape:version="0.48.4 r9939"
   sodipodi:docname="64.svg">
  <sodipodi:namedview
     pagecolor="#ffffff"
     bordercolor="#666666"
     borderopacity="1"
     objecttolerance="10"
     gridtolerance="10"
     guidetolerance="10"
     inkscape:pageopacity="0"
     inkscape:pageshadow="2"
     inkscape:window-width="1855"
     inkscape:window-height="1056"
     id="namedview49"
     showgrid="false"
     inkscape:zoom="16.069595"
     inkscape:cx="30.000001"
     inkscape:cy="5.279116"
     inkscape:window-x="65"
     inkscape:window-y="24"
     inkscape:window-maximized="1"
     inkscape:current-layer="svg6333" />
  <defs
     id="defs6335">
    <linearGradient
       x1="167.98311"
       y1="8.50811"
       x2="167.98311"
       y2="54.780239"
       id="linearGradient5809"
       xlink:href="#linearGradient5803"
       gradientUnits="userSpaceOnUse"
       gradientTransform="translate(-130,1.759402e-6)" />
    <linearGradient
       id="linearGradient5803">
      <stop
         id="stop5805"
         style="stop-color:#fff5ef;stop-opacity:1"
         offset="0" />
      <stop
         id="stop5807"
         style="stop-color:#fef8dd;stop-opacity:1"
         offset="1" />
    </linearGradient>
    <linearGradient
       x1="27.096104"
       y1="10.880992"
       x2="27.096104"
       y2="39.150768"
       id="linearGradient5801"
       xlink:href="#linearGradient3895-9-0-3-5-2-0-4-9"
       gradientUnits="userSpaceOnUse"
       gradientTransform="matrix(1.4102564,0,0,1.4102564,0.391129,-2.2559982)" />
    <linearGradient
       id="linearGradient3895-9-0-3-5-2-0-4-9">
      <stop
         id="stop3897-0-5-7-89-6-6-7-0"
         style="stop-color:#dc5639;stop-opacity:1"
         offset="0" />
      <stop
         id="stop3899-8-7-06-3-8-3-8-0"
         style="stop-color:#9d0f0f;stop-opacity:1"
         offset="1" />
    </linearGradient>
    <linearGradient
       x1="23.99999"
       y1="4.999989"
       x2="23.99999"
       y2="43"
       id="linearGradient3381-5-4"
       xlink:href="#linearGradient3924-2-2-5-8"
       gradientUnits="userSpaceOnUse"
       gradientTransform="matrix(1.4324324,0,0,1.4362832,-2.378381,-2.4707782)" />
    <linearGradient
       id="linearGradient3924-2-2-5-8">
      <stop
         id="stop3926-9-4-9-6"
         style="stop-color:#ffffff;stop-opacity:1"
         offset="0" />
      <stop
         id="stop3928-9-8-6-5"
         style="stop-color:#ffffff;stop-opacity:0.23529412"
         offset="0.06316455" />
      <stop
         id="stop3930-3-5-1-7"
         style="stop-color:#ffffff;stop-opacity:0.15686275"
         offset="0.95056331" />
      <stop
         id="stop3932-8-0-4-8"
         style="stop-color:#ffffff;stop-opacity:0.39215687"
         offset="1" />
    </linearGradient>
    <radialGradient
       cx="6.7304144"
       cy="9.9571075"
       r="12.671875"
       fx="6.2001843"
       fy="9.9571075"
       id="radialGradient3402-7-1-6"
       xlink:href="#linearGradient2867-449-88-871-390-598-476-591-434-148-57-177-8-3-3-6-4-8-8-8"
       gradientUnits="userSpaceOnUse"
       gradientTransform="matrix(0,13.393984,-16.443533,0,196.90205,-114.89368)" />
    <linearGradient
       id="linearGradient2867-449-88-871-390-598-476-591-434-148-57-177-8-3-3-6-4-8-8-8">
      <stop
         id="stop3750-1-0-7-6-6-1-3-9"
         style="stop-color:#ffcd7d;stop-opacity:1"
         offset="0" />
      <stop
         id="stop3752-3-7-4-0-32-8-923-0"
         style="stop-color:#fc8f36;stop-opacity:1"
         offset="0.26238" />
      <stop
         id="stop3754-1-8-5-2-7-6-7-1"
         style="stop-color:#e23a0e;stop-opacity:1"
         offset="0.704952" />
      <stop
         id="stop3756-1-6-2-6-6-1-96-6"
         style="stop-color:#ac441f;stop-opacity:1"
         offset="1" />
    </linearGradient>
    <radialGradient
       cx="4.9929786"
       cy="43.5"
       r="2.5"
       fx="4.9929786"
       fy="43.5"
       id="radialGradient3337-2-2"
       xlink:href="#linearGradient3688-166-749-4-0-3-8"
       gradientUnits="userSpaceOnUse"
       gradientTransform="matrix(2.003784,0,0,1.4,27.98813,-17.4)" />
    <linearGradient
       id="linearGradient3688-166-749-4-0-3-8">
      <stop
         id="stop2883-4-0-1-8"
         style="stop-color:#181818;stop-opacity:1"
         offset="0" />
      <stop
         id="stop2885-9-2-9-6"
         style="stop-color:#181818;stop-opacity:0"
         offset="1" />
    </linearGradient>
    <radialGradient
       cx="4.9929786"
       cy="43.5"
       r="2.5"
       fx="4.9929786"
       fy="43.5"
       id="radialGradient3339-1-4"
       xlink:href="#linearGradient3688-464-309-9-2-4-2"
       gradientUnits="userSpaceOnUse"
       gradientTransform="matrix(2.003784,0,0,1.4,-20.01187,-104.4)" />
    <linearGradient
       id="linearGradient3688-464-309-9-2-4-2">
      <stop
         id="stop2889-7-9-6-9"
         style="stop-color:#181818;stop-opacity:1"
         offset="0" />
      <stop
         id="stop2891-6-6-1-7"
         style="stop-color:#181818;stop-opacity:0"
         offset="1" />
    </linearGradient>
    <linearGradient
       id="linearGradient3702-501-757-8-4-1-1">
      <stop
         id="stop2895-8-9-9-1"
         style="stop-color:#181818;stop-opacity:0"
         offset="0" />
      <stop
         id="stop2897-7-8-7-7"
         style="stop-color:#181818;stop-opacity:1"
         offset="0.5" />
      <stop
         id="stop2899-4-5-1-5"
         style="stop-color:#181818;stop-opacity:0"
         offset="1" />
    </linearGradient>
    <linearGradient
       x1="25.058096"
       y1="47.027729"
       x2="25.058096"
       y2="39.999443"
       id="linearGradient6394"
       xlink:href="#linearGradient3702-501-757-8-4-1-1"
       gradientUnits="userSpaceOnUse" />
    <linearGradient
       inkscape:collect="always"
       xlink:href="#linearGradient5803"
       id="linearGradient3028"
       gradientUnits="userSpaceOnUse"
       gradientTransform="translate(-130,1.759402e-6)"
       x1="167.98311"
       y1="8.50811"
       x2="167.98311"
       y2="54.780239" />
    <linearGradient
       inkscape:collect="always"
       xlink:href="#linearGradient3895-9-0-3-5-2-0-4-9"
       id="linearGradient3032"
       gradientUnits="userSpaceOnUse"
       gradientTransform="matrix(1.4102564,0,0,1.4102564,0.391129,-2.2559982)"
       x1="27.096104"
       y1="10.880992"
       x2="27.096104"
       y2="39.150768" />
    <linearGradient
       inkscape:collect="always"
       xlink:href="#linearGradient3924-2-2-5-8"
       id="linearGradient3035"
       gradientUnits="userSpaceOnUse"
       gradientTransform="matrix(1.4324324,0,0,1.4362832,-2.378381,-2.4707782)"
       x1="23.99999"
       y1="4.999989"
       x2="23.99999"
       y2="43" />
    <radialGradient
       inkscape:collect="always"
       xlink:href="#linearGradient2867-449-88-871-390-598-476-591-434-148-57-177-8-3-3-6-4-8-8-8"
       id="radialGradient3038"
       gradientUnits="userSpaceOnUse"
       gradientTransform="matrix(0,13.393984,-16.443533,0,196.90205,-114.89368)"
       cx="6.7304144"
       cy="9.9571075"
       fx="6.2001843"
       fy="9.9571075"
       r="12.671875" />
    <radialGradient
       cx="4.9929786"
       cy="43.5"
       r="2.5"
       fx="4.9929786"
       fy="43.5"
       id="radialGradient3337-2-2-6"
       xlink:href="#linearGradient3688-166-749-4-0-3-8-2"
       gradientUnits="userSpaceOnUse"
       gradientTransform="matrix(2.003784,0,0,1.4,27.98813,-17.4)" />
    <linearGradient
       id="linearGradient3688-166-749-4-0-3-8-2">
      <stop
         id="stop2883-4-0-1-8-8"
         style="stop-color:#181818;stop-opacity:1"
         offset="0" />
      <stop
         id="stop2885-9-2-9-6-1"
         style="stop-color:#181818;stop-opacity:0"
         offset="1" />
    </linearGradient>
    <radialGradient
       cx="4.9929786"
       cy="43.5"
       r="2.5"
       fx="4.9929786"
       fy="43.5"
       id="radialGradient3339-1-4-4"
       xlink:href="#linearGradient3688-464-309-9-2-4-2-6"
       gradientUnits="userSpaceOnUse"
       gradientTransform="matrix(2.003784,0,0,1.4,-20.01187,-104.4)" />
    <linearGradient
       id="linearGradient3688-464-309-9-2-4-2-6">
      <stop
         id="stop2889-7-9-6-9-0"
         style="stop-color:#181818;stop-opacity:1"
         offset="0" />
      <stop
         id="stop2891-6-6-1-7-6"
         style="stop-color:#181818;stop-opacity:0"
         offset="1" />
    </linearGradient>
    <linearGradient
       x1="25.058096"
       y1="47.027729"
       x2="25.058096"
       y2="39.999443"
       id="linearGradient4159"
       xlink:href="#linearGradient3702-501-757-8-4-1-1-1"
       gradientUnits="userSpaceOnUse" />
    <linearGradient
       id="linearGradient3702-501-757-8-4-1-1-1">
      <stop
         id="stop2895-8-9-9-1-6"
         style="stop-color:#181818;stop-opacity:0"
         offset="0" />
      <stop
         id="stop2897-7-8-7-7-2"
         style="stop-color:#181818;stop-opacity:1"
         offset="0.5" />
      <stop
         id="stop2899-4-5-1-5-7"
         style="stop-color:#181818;stop-opacity:0"
         offset="1" />
    </linearGradient>
    <radialGradient
       cx="7.1183534"
       cy="9.9571075"
       r="12.671875"
       fx="7.1183534"
       fy="9.9571075"
       id="radialGradient3988-3"
       xlink:href="#linearGradient2867-449-88-871-390-598-476-591-434-148-57-177-8-3-3-6-4-8-8-8-5-7"
       gradientUnits="userSpaceOnUse"
       gradientTransform="matrix(0,4.3800857,-5.3932899,0,66.113974,-37.117575)" />
    <linearGradient
       id="linearGradient2867-449-88-871-390-598-476-591-434-148-57-177-8-3-3-6-4-8-8-8-5-7">
      <stop
         id="stop3754-1-8-5-2-7-6-7-1-9-1"
         style="stop-color:#81d72c;stop-opacity:1;"
         offset="0" />
      <stop
         id="stop3756-1-6-2-6-6-1-96-6-0-1"
         style="stop-color:#74ba30;stop-opacity:1;"
         offset="1" />
    </linearGradient>
    <filter
       color-interpolation-filters="sRGB"
       inkscape:collect="always"
       id="filter3844">
      <feGaussianBlur
         inkscape:collect="always"
         stdDeviation="1.075"
         id="feGaussianBlur3846" />
    </filter>
    <radialGradient
       inkscape:collect="always"
       xlink:href="#linearGradient3856"
       id="radialGradient3850"
       cx="36.111111"
       cy="-11"
       fx="36.111111"
       fy="-11"
       r="22"
       gradientUnits="userSpaceOnUse"
       gradientTransform="matrix(8.355357e-8,1.6363607,-1.6363607,8.355357e-8,-6.7999894,-54.090769)" />
    <linearGradient
       id="linearGradient3856">
      <stop
         offset="0"
         style="stop-color:#fffffe;stop-opacity:1;"
         id="stop3858" />
      <stop
         id="stop3860"
         style="stop-color:#bdff7d;stop-opacity:1;"
         offset="0.40972224" />
      <stop
         id="stop3862"
         style="stop-color:#a5ff4d;stop-opacity:1;"
         offset="0.81666666" />
      <stop
         offset="1"
         style="stop-color:#94ff29;stop-opacity:1;"
         id="stop3864" />
    </linearGradient>
    <radialGradient
       inkscape:collect="always"
       xlink:href="#linearGradient3804"
       id="radialGradient3802"
       cx="30.891773"
       cy="-4.848485"
       fx="30.891773"
       fy="-4.848485"
       r="27.999998"
       gradientUnits="userSpaceOnUse"
       gradientTransform="matrix(-2.1740973e-4,1.1398889,-1.0916485,-2.0823611e-4,6.2705655,-37.753547)" />
    <linearGradient
       id="linearGradient3804">
      <stop
         id="stop3806"
         offset="0"
         style="stop-color:#505050;stop-opacity:1;" />
      <stop
         style="stop-color:#2b2b2b;stop-opacity:1;"
         offset="0.25"
         id="stop3808" />
      <stop
         style="stop-color:#0a0a0a;stop-opacity:1;"
         offset="0.49824864"
         id="stop3810" />
      <stop
         id="stop3812"
         offset="1"
         style="stop-color:#000000;stop-opacity:1;" />
    </linearGradient>
    <radialGradient
       inkscape:collect="always"
       xlink:href="#linearGradient4389"
       id="radialGradient3866"
       cx="30.887144"
       cy="31.692015"
       fx="30.887144"
       fy="31.692015"
       r="12.010634"
       gradientTransform="matrix(0.99911288,1.5555614e-7,-1.4323604e-7,0.9268524,-19.659758,-17.241699)"
       gradientUnits="userSpaceOnUse" />
    <linearGradient
       id="linearGradient4389">
      <stop
         style="stop-color:#505050;stop-opacity:1;"
         offset="0"
         id="stop4391" />
      <stop
         id="stop4519"
         offset="0.25"
         style="stop-color:#2b2b2b;stop-opacity:1;" />
      <stop
         id="stop4517"
         offset="0.5"
         style="stop-color:#0a0a0a;stop-opacity:1;" />
      <stop
         style="stop-color:#000000;stop-opacity:1;"
         offset="1"
         id="stop4393" />
    </linearGradient>
    <linearGradient
       x1="23.99999"
       y1="4.999989"
       x2="23.99999"
       y2="43"
       id="linearGradient3180"
       xlink:href="#linearGradient3924-2-2-5-8-8"
       gradientUnits="userSpaceOnUse"
       gradientTransform="matrix(0.48436744,0,0,0.48502038,0.37873594,0.5572783)" />
    <linearGradient
       id="linearGradient3924-2-2-5-8-8">
      <stop
         id="stop3926-9-4-9-6-2"
         style="stop-color:#ffffff;stop-opacity:1"
         offset="0" />
      <stop
         id="stop3928-9-8-6-5-1"
         style="stop-color:#ffffff;stop-opacity:0.23529412"
         offset="0.06316455" />
      <stop
         id="stop3930-3-5-1-7-8"
         style="stop-color:#ffffff;stop-opacity:0.15686275"
         offset="0.95056331" />
      <stop
         id="stop3932-8-0-4-8-7"
         style="stop-color:#ffffff;stop-opacity:0.39215687"
         offset="1" />
    </linearGradient>
    <linearGradient
       y2="39.999443"
       x2="25.058096"
       y1="47.027729"
       x1="25.058096"
       gradientUnits="userSpaceOnUse"
       id="linearGradient3907"
       xlink:href="#linearGradient3702-501-757-8-4-1-1-1"
       inkscape:collect="always" />
  </defs>
  <metadata
     id="metadata6338">
    <rdf:RDF>
      <cc:Work
         rdf:about="">
        <dc:format>image/svg+xml</dc:format>
        <dc:type
           rdf:resource="http://purl.org/dc/dcmitype/StillImage" />
        <dc:title></dc:title>
      </cc:Work>
    </rdf:RDF>
  </metadata>
  <g
     style="opacity:0.6"
     id="g3712-8-2-4-4"
     transform="matrix(0.63157895,0,0,0.28571377,-3.1578947,10.571452)">
    <rect
       style="fill:url(#radialGradient3337-2-2);fill-opacity:1;stroke:none"
       id="rect2801-5-5-7-9"
       y="40"
       x="38"
       height="7"
       width="5" />
    <rect
       style="fill:url(#radialGradient3339-1-4);fill-opacity:1;stroke:none"
       id="rect3696-3-0-3-7"
       transform="scale(-1,-1)"
       y="-47"
       x="-10"
       height="7"
       width="5" />
    <rect
       style="fill:url(#linearGradient6394);fill-opacity:1;stroke:none"
       id="rect3700-5-6-8-4"
       y="40"
       x="10"
       height="7.0000005"
       width="28" />
  </g>
  <rect
     width="18.744555"
     height="18.689144"
     rx="0.24476783"
     ry="0.22941086"
     x="2.6406925"
     y="2.842463"
     id="rect5505-21-3-8-5-2-6"
     style="opacity:0.9;color:#000000;fill:url(#radialGradient3988-3);fill-opacity:1;fill-rule:nonzero;stroke:none;stroke-width:0.99999994;marker:none;visibility:visible;display:inline;overflow:visible;enable-background:accumulate" />
  <path
     inkscape:connector-curvature="0"
     id="path3066"
     d="m 27.500006,-21.5 c -2.731831,0.569246 -5.275013,1.674839 -7.53125,3.15625 0.06576,1.644023 -0.527812,3.27781 -1.78125,4.53125 -1.253447,1.253435 -2.88723,1.847007 -4.53125,1.78125 -1.48141,2.256235 -2.587,4.799413 -3.15625,7.53125 1.21873,1.115181 1.96875,2.717857 1.96875,4.5 0,1.782149 -0.75002,3.38482 -1.96875,4.5 0.56925,2.731837 1.67484,5.275016 3.15625,7.53125 1.64402,-0.06576 3.277803,0.527809 4.53125,1.78125 1.253438,1.253442 1.847015,2.887232 1.78125,4.53125 2.256237,1.481414 4.799419,2.587006 7.53125,3.15625 1.11518,-1.218736 2.717858,-1.96875 4.5,-1.96875 1.782143,0 3.384821,0.750014 4.5,1.96875 2.722993,-0.567409 5.249196,-1.650988 7.5,-3.125 -0.0035,-0.08805 0,-0.193224 0,-0.28125 0,-1.560945 0.621529,-3.090287 1.8125,-4.28125 1.253437,-1.253441 2.887241,-1.847011 4.53125,-1.78125 C 51.825167,9.775016 52.930755,7.231837 53.500006,4.5 52.281249,3.38482 51.531256,1.782149 51.531256,0 c 0,-1.782143 0.749993,-3.384819 1.96875,-4.5 -0.569251,-2.731837 -1.674839,-5.275015 -3.15625,-7.53125 -1.644009,0.06577 -3.277813,-0.527815 -4.53125,-1.78125 -1.190971,-1.190965 -1.8125,-2.720312 -1.8125,-4.28125 0,-0.08803 -0.0035,-0.193204 0,-0.28125 -2.250804,-1.474017 -4.777007,-2.557594 -7.5,-3.125 -1.115179,1.218737 -2.717857,1.96875 -4.5,1.96875 -1.782142,0 -3.38482,-0.750013 -4.5,-1.96875 z m 3.5,16.5 c 2.485281,0 4.5,2.014719 4.5,4.5 0,2.485281 -2.014719,4.5 -4.5,4.5 -2.485281,0 -4.5,-2.014719 -4.5,-4.5 0,-2.485281 2.014719,-4.5 4.5,-4.5 z"
     style="color:#000000;fill:none;stroke:#000000;stroke-width:0.5;stroke-miterlimit:4;stroke-opacity:1;stroke-dasharray:none;marker:none;visibility:visible;display:inline;overflow:visible;filter:url(#filter3844);enable-background:accumulate"
     transform="matrix(0.39999929,0,0,0.39999929,-0.79999853,12.20002)" />
  <path
     style="opacity:0.4;color:#000000;fill:url(#radialGradient3850);fill-opacity:1;fill-rule:nonzero;stroke:none;stroke-width:1;marker:none;visibility:visible;display:inline;overflow:visible;enable-background:accumulate"
     d="M 10.199984,3.6000361 C 9.1072538,3.827734 8.089983,4.2699705 7.1874893,4.8625338 7.2137933,5.5201418 6.976365,6.1736554 6.4749908,6.6750305 5.9736129,7.1764036 5.3201009,7.413832 4.662494,7.3875292 4.0699311,8.2900213 3.6276959,9.3072913 3.3999963,10.400023 c 0.4874912,0.446072 0.7874986,1.087141 0.7874986,1.799997 0,0.712859 -0.3000074,1.353926 -0.7874986,1.799997 0.2276996,1.092733 0.6699348,2.110003 1.2624977,3.012495 0.6576069,-0.0263 1.3111189,0.211123 1.8124968,0.712498 0.5013742,0.501377 0.7388047,1.154891 0.7124985,1.812497 0.9024937,0.592565 1.9197645,1.034801 3.0124947,1.262498 0.446071,-0.487493 1.087141,-0.787499 1.799997,-0.787499 0.712856,0 1.353926,0.300006 1.799997,0.787499 1.089195,-0.226963 2.099674,-0.660394 2.999994,-1.249998 -0.0014,-0.03522 0,-0.07729 0,-0.112499 0,-0.624378 0.248612,-1.236113 0.724999,-1.712498 0.501374,-0.501375 1.154894,-0.738802 1.812497,-0.712498 0.592563,-0.902492 1.034798,-1.919762 1.262498,-3.012495 -0.487502,-0.446071 -0.787499,-1.087138 -0.787499,-1.799997 0,-0.712856 0.299997,-1.353925 0.787499,-1.799997 C 20.372266,9.3072913 19.930031,8.2900213 19.337468,7.3875292 18.679865,7.413837 18.026345,7.1764036 17.524971,6.6750305 17.048584,6.1986454 16.799972,5.5869077 16.799972,4.9625336 c 0,-0.035212 -0.0014,-0.077281 0,-0.1124998 -0.90032,-0.5896057 -1.910799,-1.0230357 -2.999994,-1.2499977 -0.446071,0.4874939 -1.087141,0.7874985 -1.799997,0.7874985 -0.712856,0 -1.353926,-0.3000046 -1.799997,-0.7874985 z m 1.399998,6.5999879 c 0.99411,0 1.799997,0.805886 1.799997,1.799997 0,0.994111 -0.805887,1.799997 -1.799997,1.799997 -0.994111,0 -1.7999975,-0.805886 -1.7999975,-1.799997 0,-0.994111 0.8058865,-1.799997 1.7999975,-1.799997 z"
     id="path3968-2"
     inkscape:connector-curvature="0" />
  <rect
     width="20.533297"
     height="20.533297"
     rx="1.119998"
     ry="1.119998"
     x="1.73333"
     y="1.9333732"
     id="rect5505-21-3-8-9-1-1-7"
     style="opacity:0.9;color:#000000;fill:none;stroke:url(#radialGradient3802);stroke-width:1.86666334;stroke-linecap:round;stroke-linejoin:round;stroke-miterlimit:4;stroke-opacity:1;stroke-dasharray:none;stroke-dashoffset:0;marker:none;visibility:visible;display:inline;overflow:visible;enable-background:accumulate" />
  <path
     d="m 13.718195,7.2642419 c -0.544042,0 -0.984572,0.4414402 -0.984572,0.9856394 0,0.5441955 0.44053,0.9856395 0.984572,0.9856395 0.544043,0 0.984569,-0.441444 0.984569,-0.9856395 0,-0.5441992 -0.440526,-0.9856394 -0.984569,-0.9856394 z m -2.079303,0.7719697 c -0.607185,7.5e-5 -1.222793,0.1534875 -1.7763567,0.4273387 -0.019702,0.00976 -0.031973,0.027128 -0.037867,0.048248 -0.006,0.02112 -0.00473,0.043425 0.0069,0.062032 l 0.7986752,1.2647873 c 0.02022,0.032168 0.06135,0.045758 0.09639,0.03102 0.295599,-0.1251015 0.602342,-0.1861005 0.912273,-0.1861005 1.140046,0 2.13465,0.8457079 2.313398,1.9678319 0.006,0.03768 0.0377,0.06548 0.07574,0.06548 l 1.500951,0 c 0.02188,0 0.0438,-0.0079 0.05852,-0.02411 0.01472,-0.01624 0.02271,-0.03667 0.02068,-0.05859 -0.08095,-0.832586 -0.436509,-1.6387056 -0.99834,-2.2642109 -0.02537,-0.02838 -0.06779,-0.031073 -0.09983,-0.010335 -0.226543,0.1464622 -0.483582,0.2240085 -0.743591,0.2240085 -0.758535,0 -1.373499,-0.6169155 -1.373579,-1.371624 8e-5,-6.398e-4 0,-0.02631 0,-0.02757 0,-0.037598 -0.02817,-0.072802 -0.06541,-0.079264 -0.237175,-0.041145 -0.4674,-0.068925 -0.688509,-0.068925 z M 9.2291055,8.8633221 c -0.01041,0.00255 -0.022432,0.00713 -0.030967,0.013777 -0.6510472,0.5019787 -1.139295,1.2079484 -1.3770202,1.9885084 -0.00929,0.03051 -0.00113,0.06285 0.02409,0.08271 0.3271755,0.259425 0.523269,0.658756 0.523269,1.06835 0,0.409593 -0.1960133,0.808925 -0.523269,1.068351 -0.024952,0.01979 -0.03339,0.05213 -0.02409,0.08271 0.2358337,0.774018 0.7202317,1.477293 1.3632487,1.978172 0.01725,0.01348 0.036945,0.02102 0.058523,0.01724 0.021495,-0.0037 0.0399,-0.01955 0.051638,-0.03791 l 0.8055605,-1.261346 c 0.02057,-0.03224 0.01496,-0.07463 -0.01379,-0.09994 -0.5046662,-0.444515 -0.7952312,-1.081878 -0.7952312,-1.747271 0,-0.670358 0.2921722,-1.30949 0.8021162,-1.75416 0.02876,-0.02515 0.0376,-0.06754 0.01721,-0.09994 L 9.3117233,8.8977718 c -0.011648,-0.01845 -0.030143,-0.030682 -0.051638,-0.034463 -0.010748,-0.00195 -0.020595,-0.00255 -0.030968,0 z M 7.0086608,11.02759 c -0.5567843,0 -1.0086691,0.452766 -1.0086691,1.009764 0,0.556998 0.4518848,1.006315 1.0086691,1.006315 0.5567842,0 1.0086675,-0.449317 1.0086675,-1.006315 0,-0.556998 -0.4518833,-1.009764 -1.0086675,-1.009764 z m 8.5203182,1.302696 -1.500952,0.0035 c -0.03787,7.9e-5 -0.07312,0.02812 -0.07918,0.06547 -0.181188,1.113771 -1.173061,1.95405 -2.309955,1.95405 -0.313554,0 -0.623693,-0.06482 -0.922602,-0.192995 -0.03497,-0.01489 -0.07584,-0.0044 -0.09639,0.02757 l -0.805558,1.264787 c -0.011715,0.01852 -0.01272,0.04083 -0.0069,0.06203 0.00585,0.02111 0.018247,0.03848 0.037867,0.04825 0.5578935,0.279606 1.1793755,0.427339 1.7935685,0.427339 0.227805,0 0.465636,-0.02284 0.705726,-0.06548 0.0337,-0.0059 0.05795,-0.03151 0.06197,-0.06548 0.08,-0.69172 0.664348,-1.213093 1.359805,-1.213093 0.2156,0 0.437494,0.05447 0.63687,0.158527 0.03031,0.01586 0.06549,0.01074 0.08951,-0.01379 0.628764,-0.641899 1.026254,-1.488201 1.115387,-2.377941 0.002,-0.02183 -0.0058,-0.04227 -0.02067,-0.05858 -0.0148,-0.01632 -0.03663,-0.0242 -0.05852,-0.02412 z m -1.772917,2.663984 c -0.556785,0 -1.008669,0.448747 -1.008669,1.002871 0,0.554125 0.451884,1.002871 1.008669,1.002871 0.556785,0 1.008669,-0.448746 1.008669,-1.002871 0,-0.554124 -0.451884,-1.002871 -1.008669,-1.002871 z"
     inkscape:connector-curvature="0"
     id="path3324"
     style="fill:url(#radialGradient3866);fill-opacity:1;overflow:visible" />
  <rect
     width="17.921597"
     height="17.945753"
     rx="0.2715686"
     ry="0.19542238"
     x="3.0427592"
     y="3.2248883"
     id="rect6741-5-0-2-3-3"
     style="opacity:0.3;fill:none;stroke:url(#linearGradient3180);stroke-width:0.7362231;stroke-linecap:round;stroke-linejoin:round;stroke-miterlimit:4;stroke-opacity:1;stroke-dasharray:none;stroke-dashoffset:0" />
  <path
     inkscape:connector-curvature="0"
     id="path3848"
     d="M 10.199984,3.6000361 C 9.1072538,3.827734 8.089983,4.2699705 7.1874893,4.8625338 7.2137933,5.5201418 6.976365,6.1736554 6.4749908,6.6750305 5.9736129,7.1764036 5.3201009,7.413832 4.662494,7.3875292 4.0699311,8.2900213 3.6276959,9.3072913 3.3999963,10.400023 c 0.4874912,0.446072 0.7874986,1.087141 0.7874986,1.799997 0,0.712859 -0.3000074,1.353926 -0.7874986,1.799997 0.2276996,1.092733 0.6699348,2.110003 1.2624977,3.012495 0.6576069,-0.0263 1.3111189,0.211123 1.8124968,0.712498 0.5013742,0.501377 0.7388047,1.154891 0.7124985,1.812497 0.9024937,0.592565 1.9197645,1.034801 3.0124947,1.262498 0.446071,-0.487493 1.087141,-0.787499 1.799997,-0.787499 0.712856,0 1.353926,0.300006 1.799997,0.787499 1.089195,-0.226963 2.099674,-0.660394 2.999994,-1.249998 -0.0014,-0.03522 0,-0.07729 0,-0.112499 0,-0.624378 0.248612,-1.236113 0.724999,-1.712498 0.501374,-0.501375 1.154894,-0.738802 1.812497,-0.712498 0.592563,-0.902492 1.034798,-1.919762 1.262498,-3.012495 -0.487502,-0.446071 -0.787499,-1.087138 -0.787499,-1.799997 0,-0.712856 0.299997,-1.353925 0.787499,-1.799997 C 20.372266,9.3072913 19.930031,8.2900213 19.337468,7.3875292 18.679865,7.413837 18.026345,7.1764036 17.524971,6.6750305 17.048584,6.1986454 16.799972,5.5869077 16.799972,4.9625336 c 0,-0.035212 -0.0014,-0.077281 0,-0.1124998 -0.90032,-0.5896057 -1.910799,-1.0230357 -2.999994,-1.2499977 -0.446071,0.4874939 -1.087141,0.7874985 -1.799997,0.7874985 -0.712856,0 -1.353926,-0.3000046 -1.799997,-0.7874985 z m 1.399998,6.5999879 c 0.99411,0 1.799997,0.805886 1.799997,1.799997 0,0.994111 -0.805887,1.799997 -1.799997,1.799997 -0.994111,0 -1.7999975,-0.805886 -1.7999975,-1.799997 0,-0.994111 0.8058865,-1.799997 1.7999975,-1.799997 z"
     style="color:#000000;fill:none;stroke:none;stroke-width:1.22793615;marker:none;visibility:visible;display:inline;overflow:visible;enable-background:accumulate" />
  <path
     inkscape:connector-curvature="0"
     id="path3840"
     d="M 10.240893,3.7954901 C 9.1729973,4.0180133 8.178846,4.4501989 7.296864,5.0292947 7.322574,5.6719571 7.0905383,6.3106184 6.6005588,6.8005983 6.1105755,7.2905767 5.4719166,7.5226093 4.8292538,7.4969038 4.2501588,8.3788851 3.8179756,9.3730348 3.5954519,10.440933 c 0.4764112,0.435934 0.7695987,1.062433 0.7695987,1.759087 0,0.696657 -0.2931875,1.323155 -0.7695987,1.759088 0.2225237,1.067898 0.6547069,2.062048 1.2338019,2.944029 0.6426628,-0.0257 1.2813217,0.206325 1.771305,0.696306 0.4899795,0.48998 0.7220137,1.128643 0.6963052,1.771303 0.881982,0.579097 1.8761333,1.011282 2.944029,1.233805 0.435934,-0.476414 1.062434,-0.769601 1.759088,-0.769601 0.696655,0 1.323155,0.293187 1.759088,0.769601 1.06444,-0.221806 2.051954,-0.645385 2.931813,-1.221589 -0.0013,-0.03442 0,-0.07553 0,-0.109943 0,-0.610186 0.242961,-1.208019 0.708521,-1.673576 0.489979,-0.489981 1.128647,-0.722012 1.771304,-0.696306 0.579096,-0.881981 1.011279,-1.876131 1.233804,-2.944029 -0.476422,-0.435933 -0.7696,-1.062431 -0.7696,-1.759088 0,-0.696654 0.293178,-1.323153 0.7696,-1.759087 C 20.181986,9.3730348 19.749803,8.3788851 19.170707,7.4969038 18.52805,7.5226161 17.889382,7.2905767 17.399403,6.8005983 16.933843,6.3350404 16.690882,5.7372058 16.690882,5.1270221 c 0,-0.034412 -0.0013,-0.075525 0,-0.109943 -0.879859,-0.5762057 -1.867373,-0.999785 -2.931813,-1.221589 -0.435933,0.4764148 -1.062433,0.769601 -1.759088,0.769601 -0.696654,0 -1.323154,-0.2931862 -1.759088,-0.769601 z m 1.368179,6.4499879 c 0.971518,0 1.759089,0.787571 1.759089,1.759089 0,0.971517 -0.787571,1.759087 -1.759089,1.759087 -0.971517,0 -1.7590872,-0.78757 -1.7590872,-1.759087 0,-0.971518 0.7875702,-1.759089 1.7590872,-1.759089 z"
     style="opacity:0.4;color:#000000;fill:none;stroke:#ffffff;stroke-width:0.39090842;stroke-miterlimit:4;stroke-opacity:1;stroke-dasharray:none;marker:none;visibility:visible;display:inline;overflow:visible;enable-background:accumulate" />
</svg>
