<?xml version="1.0" encoding="UTF-8" standalone="no"?>
<!-- Created with Inkscape (http://www.inkscape.org/) -->

<svg
   xmlns:dc="http://purl.org/dc/elements/1.1/"
   xmlns:cc="http://creativecommons.org/ns#"
   xmlns:rdf="http://www.w3.org/1999/02/22-rdf-syntax-ns#"
   xmlns:svg="http://www.w3.org/2000/svg"
   xmlns="http://www.w3.org/2000/svg"
   xmlns:xlink="http://www.w3.org/1999/xlink"
   xmlns:sodipodi="http://sodipodi.sourceforge.net/DTD/sodipodi-0.dtd"
   xmlns:inkscape="http://www.inkscape.org/namespaces/inkscape"
   version="1.1"
   width="32"
   height="32"
   id="svg4106"
   inkscape:version="0.48.4 r9939"
   sodipodi:docname="drive-optical.svg">
  <sodipodi:namedview
     pagecolor="#ffffff"
     bordercolor="#666666"
     borderopacity="1"
     objecttolerance="10"
     gridtolerance="10"
     guidetolerance="10"
     inkscape:pageopacity="0"
     inkscape:pageshadow="2"
     inkscape:window-width="848"
     inkscape:window-height="571"
     id="namedview77"
     showgrid="false"
     inkscape:zoom="7.375"
     inkscape:cx="16"
     inkscape:cy="16"
     inkscape:window-x="707"
     inkscape:window-y="91"
     inkscape:window-maximized="0"
     inkscape:current-layer="svg4106" />
  <defs
     id="defs4108">
    <linearGradient
       x1="18.775953"
       y1="4.0378027"
       x2="18.203465"
       y2="45.962208"
       id="linearGradient3406"
       xlink:href="#linearGradient6036"
       gradientUnits="userSpaceOnUse"
       gradientTransform="matrix(0.3283222,0,0,-0.3283221,8.0063392,24.208052)" />
    <linearGradient
       id="linearGradient6036">
      <stop
         id="stop6038"
         style="stop-color:#ffffff;stop-opacity:1"
         offset="0" />
      <stop
         id="stop6040"
         style="stop-color:#ffffff;stop-opacity:0"
         offset="1" />
    </linearGradient>
    <linearGradient
       x1="71.204407"
       y1="6.2375584"
       x2="71.204407"
       y2="44.340794"
       id="linearGradient3199"
       xlink:href="#linearGradient4011"
       gradientUnits="userSpaceOnUse"
       gradientTransform="matrix(0.67567564,0,0,0.67567564,-32.468594,-1.1332689)" />
    <linearGradient
       id="linearGradient4011">
      <stop
         id="stop4013"
         style="stop-color:#ffffff;stop-opacity:1"
         offset="0" />
      <stop
         id="stop4015"
         style="stop-color:#ffffff;stop-opacity:0.23529412"
         offset="0.507761" />
      <stop
         id="stop4017"
         style="stop-color:#ffffff;stop-opacity:0.15686275"
         offset="0.83456558" />
      <stop
         id="stop4019"
         style="stop-color:#ffffff;stop-opacity:0.39215687"
         offset="1" />
    </linearGradient>
    <linearGradient
       x1="21.448364"
       y1="15.5"
       x2="21.448364"
       y2="32.509201"
       id="linearGradient3427"
       xlink:href="#linearGradient3428"
       gradientUnits="userSpaceOnUse"
       gradientTransform="matrix(0.6875,0,0,0.6875,-0.5000014,-0.5000005)" />
    <linearGradient
       id="linearGradient3428">
      <stop
         id="stop3430"
         style="stop-color:#aaaaaa;stop-opacity:1"
         offset="0" />
      <stop
         id="stop3432"
         style="stop-color:#d4d4d4;stop-opacity:1"
         offset="1" />
    </linearGradient>
    <linearGradient
       x1="20.018932"
       y1="3"
       x2="20.018932"
       y2="45.17627"
       id="linearGradient3409"
       xlink:href="#linearGradient3772"
       gradientUnits="userSpaceOnUse"
       gradientTransform="matrix(0.6585366,0,0,0.6585366,0.195122,0.195122)" />
    <linearGradient
       id="linearGradient3772">
      <stop
         id="stop3774"
         style="stop-color:#b4b4b4;stop-opacity:1"
         offset="0" />
      <stop
         id="stop3776"
         style="stop-color:#969696;stop-opacity:1"
         offset="1" />
    </linearGradient>
    <linearGradient
       x1="20.580074"
       y1="10.774516"
       x2="24.27351"
       y2="9.8622112"
       id="linearGradient3436"
       xlink:href="#linearGradient3487"
       gradientUnits="userSpaceOnUse"
       spreadMethod="reflect" />
    <linearGradient
       id="linearGradient3487">
      <stop
         id="stop3489"
         style="stop-color:#e6cde2;stop-opacity:1"
         offset="0" />
      <stop
         id="stop3491"
         style="stop-color:#e6cde2;stop-opacity:0"
         offset="1" />
    </linearGradient>
    <linearGradient
       x1="17.494959"
       y1="11.200086"
       x2="21.047453"
       y2="9.7956104"
       id="linearGradient3438"
       xlink:href="#linearGradient3495"
       gradientUnits="userSpaceOnUse"
       spreadMethod="reflect" />
    <linearGradient
       id="linearGradient3495">
      <stop
         id="stop3497"
         style="stop-color:#c1cbe4;stop-opacity:1"
         offset="0" />
      <stop
         id="stop3499"
         style="stop-color:#c1cbe4;stop-opacity:0"
         offset="1" />
    </linearGradient>
    <linearGradient
       x1="14.084608"
       y1="13.045606"
       x2="16.994024"
       y2="10.732353"
       id="linearGradient3440"
       xlink:href="#linearGradient3503"
       gradientUnits="userSpaceOnUse"
       spreadMethod="reflect" />
    <linearGradient
       id="linearGradient3503">
      <stop
         id="stop3505"
         style="stop-color:#c4ebdd;stop-opacity:1"
         offset="0" />
      <stop
         id="stop3507"
         style="stop-color:#c4ebdd;stop-opacity:0"
         offset="1" />
    </linearGradient>
    <linearGradient
       x1="12.371647"
       y1="16.188046"
       x2="14.609327"
       y2="13.461712"
       id="linearGradient3442"
       xlink:href="#linearGradient3511"
       gradientUnits="userSpaceOnUse"
       spreadMethod="reflect" />
    <linearGradient
       id="linearGradient3511">
      <stop
         id="stop3513"
         style="stop-color:#ebeec7;stop-opacity:1"
         offset="0" />
      <stop
         id="stop3515"
         style="stop-color:#ebeec7;stop-opacity:0"
         offset="1" />
    </linearGradient>
    <linearGradient
       x1="10.609375"
       y1="17.886322"
       x2="9.7297754"
       y2="20.612656"
       id="linearGradient3444"
       xlink:href="#linearGradient3519"
       gradientUnits="userSpaceOnUse"
       spreadMethod="reflect" />
    <linearGradient
       id="linearGradient3519">
      <stop
         id="stop3521"
         style="stop-color:#fcd9cd;stop-opacity:1"
         offset="0" />
      <stop
         id="stop3523"
         style="stop-color:#fcd9cd;stop-opacity:0"
         offset="1" />
    </linearGradient>
    <linearGradient
       x1="20.580074"
       y1="10.774516"
       x2="24.27351"
       y2="9.8622112"
       id="linearGradient3446"
       xlink:href="#linearGradient3487"
       gradientUnits="userSpaceOnUse"
       spreadMethod="reflect" />
    <linearGradient
       x1="17.494959"
       y1="11.200086"
       x2="21.047453"
       y2="9.7956104"
       id="linearGradient3448"
       xlink:href="#linearGradient3495"
       gradientUnits="userSpaceOnUse"
       spreadMethod="reflect" />
    <linearGradient
       x1="14.084608"
       y1="13.045606"
       x2="16.994024"
       y2="10.732353"
       id="linearGradient3450"
       xlink:href="#linearGradient3503"
       gradientUnits="userSpaceOnUse"
       spreadMethod="reflect" />
    <linearGradient
       x1="12.371647"
       y1="16.188046"
       x2="14.609327"
       y2="13.461712"
       id="linearGradient3452"
       xlink:href="#linearGradient3511"
       gradientUnits="userSpaceOnUse"
       spreadMethod="reflect" />
    <linearGradient
       x1="10.609375"
       y1="17.886322"
       x2="9.7297754"
       y2="20.612656"
       id="linearGradient3454"
       xlink:href="#linearGradient3519"
       gradientUnits="userSpaceOnUse"
       spreadMethod="reflect" />
    <linearGradient
       x1="12.2744"
       y1="32.4165"
       x2="35.391201"
       y2="14.2033"
       id="linearGradient3431"
       xlink:href="#linearGradient3263"
       gradientUnits="userSpaceOnUse"
       gradientTransform="matrix(0,0.7714354,-0.7714354,0,33.82016,-2.5144531)" />
    <linearGradient
       x1="12.2744"
       y1="32.4165"
       x2="35.391201"
       y2="14.2033"
       id="linearGradient3263"
       gradientUnits="userSpaceOnUse">
      <stop
         id="stop3265"
         style="stop-color:#dedbde;stop-opacity:1"
         offset="0" />
      <stop
         id="stop3267"
         style="stop-color:#e6e6e6;stop-opacity:1"
         offset="0.5" />
      <stop
         id="stop3269"
         style="stop-color:#d2d2d2;stop-opacity:1"
         offset="1" />
    </linearGradient>
    <linearGradient
       id="linearGradient23419">
      <stop
         id="stop23421"
         style="stop-color:#000000;stop-opacity:1"
         offset="0" />
      <stop
         id="stop23423"
         style="stop-color:#000000;stop-opacity:0"
         offset="1" />
    </linearGradient>
    <radialGradient
       cx="23.334524"
       cy="41.63604"
       r="22.627417"
       fx="23.334524"
       fy="41.63604"
       id="radialGradient4104"
       xlink:href="#linearGradient23419"
       gradientUnits="userSpaceOnUse"
       gradientTransform="matrix(0.61871843,0,0,0.19951815,1.5624994,18.177856)" />
    <linearGradient
       x1="20"
       y1="26.000008"
       x2="20"
       y2="13.000008"
       id="linearGradient3354"
       xlink:href="#linearGradient3680-6-6-6-3-7-1-8-8-6-4"
       gradientUnits="userSpaceOnUse"
       gradientTransform="matrix(0.94777285,0,0,0.9730468,-33.586838,-7.6485)" />
    <linearGradient
       id="linearGradient3680-6-6-6-3-7-1-8-8-6-4">
      <stop
         id="stop3682-4-6-1-3-7-7-4-0-3-2"
         style="stop-color:#dcdcdc;stop-opacity:1"
         offset="0" />
      <stop
         id="stop3684-8-5-8-0-2-6-8-4-3-2"
         style="stop-color:#ffffff;stop-opacity:1"
         offset="1" />
    </linearGradient>
    <linearGradient
       x1="40.290417"
       y1="5.4143372"
       x2="40.290417"
       y2="42.437775"
       id="linearGradient3217"
       xlink:href="#linearGradient3462"
       gradientUnits="userSpaceOnUse"
       gradientTransform="matrix(0.3673985,0,0,0.291385,15.482428,18.444265)" />
    <linearGradient
       id="linearGradient3462">
      <stop
         id="stop3464"
         style="stop-color:#ffffff;stop-opacity:1"
         offset="0" />
      <stop
         id="stop3466"
         style="stop-color:#ffffff;stop-opacity:0.23529412"
         offset="0.03457849" />
      <stop
         id="stop3468"
         style="stop-color:#ffffff;stop-opacity:0.15686275"
         offset="0.96375686" />
      <stop
         id="stop3470"
         style="stop-color:#ffffff;stop-opacity:0.39215687"
         offset="1" />
    </linearGradient>
    <radialGradient
       cx="7.1183534"
       cy="9.9571075"
       r="12.671875"
       fx="7.1183534"
       fy="9.9571075"
       id="radialGradient3220"
       xlink:href="#linearGradient2867-449-88-871-390-598-476-591-434-148-57-177-8-3-3-6-4-8-8-8-5-7"
       gradientUnits="userSpaceOnUse"
       gradientTransform="matrix(0,2.7464664,-4.1810126,0,66.240433,-5.4782043)" />
    <linearGradient
       id="linearGradient2867-449-88-871-390-598-476-591-434-148-57-177-8-3-3-6-4-8-8-8-5-7">
      <stop
         id="stop3750-1-0-7-6-6-1-3-9-3-9"
         style="stop-color:#505050;stop-opacity:1"
         offset="0" />
      <stop
         id="stop3752-3-7-4-0-32-8-923-0-7-0"
         style="stop-color:#2b2b2b;stop-opacity:1"
         offset="0.26238" />
      <stop
         id="stop3754-1-8-5-2-7-6-7-1-9-1"
         style="stop-color:#0a0a0a;stop-opacity:1"
         offset="0.704952" />
      <stop
         id="stop3756-1-6-2-6-6-1-96-6-0-1"
         style="stop-color:#000000;stop-opacity:1"
         offset="1" />
    </linearGradient>
    <linearGradient
       x1="302.85715"
       y1="366.64789"
       x2="302.85715"
       y2="609.50507"
       id="linearGradient3188"
       xlink:href="#linearGradient5048"
       gradientUnits="userSpaceOnUse"
       gradientTransform="matrix(0.08449704,0,0,0.01235294,-6.5396456,38.470822)" />
    <linearGradient
       id="linearGradient5048">
      <stop
         id="stop5050"
         style="stop-color:#000000;stop-opacity:0"
         offset="0" />
      <stop
         id="stop5056"
         style="stop-color:#000000;stop-opacity:1"
         offset="0.5" />
      <stop
         id="stop5052"
         style="stop-color:#000000;stop-opacity:0"
         offset="1" />
    </linearGradient>
    <radialGradient
       cx="605.71429"
       cy="486.64789"
       r="117.14286"
       fx="605.71429"
       fy="486.64789"
       id="radialGradient3190"
       xlink:href="#linearGradient5060"
       gradientUnits="userSpaceOnUse"
       gradientTransform="matrix(-0.0289166,0,0,0.01235294,21.026894,38.470848)" />
    <linearGradient
       id="linearGradient5060">
      <stop
         id="stop5062"
         style="stop-color:#000000;stop-opacity:1"
         offset="0" />
      <stop
         id="stop5064"
         style="stop-color:#000000;stop-opacity:0"
         offset="1" />
    </linearGradient>
    <radialGradient
       cx="605.71429"
       cy="486.64789"
       r="117.14286"
       fx="605.71429"
       fy="486.64789"
       id="radialGradient3192"
       xlink:href="#linearGradient5060"
       gradientUnits="userSpaceOnUse"
       gradientTransform="matrix(0.02891661,0,0,0.01235294,26.973101,38.470848)" />
    <linearGradient
       id="linearGradient3133">
      <stop
         id="stop3135"
         style="stop-color:#000000;stop-opacity:1"
         offset="0" />
      <stop
         id="stop3137"
         style="stop-color:#000000;stop-opacity:0"
         offset="1" />
    </linearGradient>
    <radialGradient
       r="117.14286"
       fy="486.64789"
       fx="605.71429"
       cy="486.64789"
       cx="605.71429"
       gradientTransform="matrix(0.02891661,0,0,0.01235294,26.973101,38.470848)"
       gradientUnits="userSpaceOnUse"
       id="radialGradient3150"
       xlink:href="#linearGradient5060"
       inkscape:collect="always" />
  </defs>
  <metadata
     id="metadata4111">
    <rdf:RDF>
      <cc:Work
         rdf:about="">
        <dc:format>image/svg+xml</dc:format>
        <dc:type
           rdf:resource="http://purl.org/dc/dcmitype/StillImage" />
        <dc:title></dc:title>
      </cc:Work>
    </rdf:RDF>
  </metadata>
  <g
     id="layer1">
    <path
       d="M 30,26.484999 C 30.000722,28.978497 23.732497,31 16,31 8.2675033,31 1.999279,28.978497 2.0000001,26.484999 1.999279,23.991503 8.2675033,21.97 16,21.97 c 7.732497,0 14.000722,2.021503 14,4.514999 z"
       inkscape:connector-curvature="0"
       id="path23417"
       style="opacity:0.3;fill:url(#radialGradient4104);fill-opacity:1;fill-rule:evenodd;stroke:none;stroke-width:2;marker:none;visibility:visible;display:inline;overflow:visible" />
    <path
       d="M 29.5,16 C 29.5,8.5170745 23.482924,2.5 16,2.5 8.5170738,2.5 2.5,8.5170751 2.5,16 c -1.3e-6,7.482925 6.0170745,13.5 13.5,13.5 7.482924,-1e-6 13.5,-6.017074 13.5,-13.5 z m -8.231707,0 c 0,3.044415 -2.223878,5.268293 -5.268293,5.268293 -3.044414,0 -5.268293,-2.223878 -5.268293,-5.268293 0,-3.044414 2.223879,-5.268293 5.268293,-5.268293 3.044415,0 5.268293,2.223879 5.268293,5.268293 z"
       inkscape:connector-curvature="0"
       id="path2781"
       style="fill:url(#linearGradient3431);fill-rule:nonzero;stroke:none" />
    <path
       d="m 16,10.731707 c -2.908097,0 -5.268293,2.360196 -5.268293,5.268293 0,2.908098 2.360196,5.268293 5.268293,5.268293 2.908098,0 5.268293,-2.360195 5.268293,-5.268293 0,-2.908097 -2.360195,-5.268293 -5.268293,-5.268293 z m 0,2.634147 c 1.454049,0 2.634147,1.180098 2.634147,2.634146 0,1.454049 -1.180098,2.634147 -2.634147,2.634147 -1.454048,0 -2.634146,-1.180098 -2.634146,-2.634147 0,-1.454048 1.180098,-2.634146 2.634146,-2.634146 z"
       inkscape:connector-curvature="0"
       id="path2474"
       style="opacity:0.5;fill:#ffffff;fill-opacity:1;fill-rule:nonzero;stroke:none;stroke-width:1;marker:none;visibility:visible;display:inline;overflow:visible;enable-background:accumulate" />
    <g
       transform="matrix(0.6585366,0,0,0.6585366,0.195122,0.195122)"
       id="g3527">
      <path
         d="m 24,3.5 c -2.975804,0 -5.797406,0.6208152 -8.34375,1.75 L 20.625,16.34375 C 21.660403,15.885186 22.795334,15.625 24,15.625 c 0.03206,0 0.06178,-3.6e-4 0.09375,0 l 0,-12.125 C 24.06248,3.4998614 24.0313,3.5 24,3.5 z"
         inkscape:connector-curvature="0"
         transform="matrix(0.9996011,0.02824295,-0.02824295,0.9996011,0.6924114,-0.6708346)"
         id="path3296"
         style="opacity:0.8;fill:url(#linearGradient3446);fill-opacity:1;fill-rule:nonzero;stroke:none" />
      <path
         d="m 19.597283,3.9975155 c -2.9067,0.6375811 -5.529765,1.8485223 -7.775043,3.4970525 l 7.230257,9.771547 c 0.913109,-0.669755 1.965938,-1.167064 3.142629,-1.425169 0.03132,-0.0069 0.06026,-0.01359 0.09157,-0.02009 L 19.688856,3.9774292 c -0.03058,0.00656 -0.061,0.013379 -0.09157,0.020086 z"
         inkscape:connector-curvature="0"
         id="path3308"
         style="opacity:0.8;fill:url(#linearGradient3448);fill-opacity:1;fill-rule:nonzero;stroke:none" />
      <path
         d="M 14.558173,5.8448691 C 11.915535,7.2130345 9.6952631,9.061613 7.9531621,11.235092 l 9.5129549,7.567261 c 0.70865,-0.883264 1.596891,-1.636119 2.666685,-2.18998 0.02847,-0.01474 0.05469,-0.02872 0.08325,-0.0431 L 14.641427,5.8017664 c -0.02783,0.014254 -0.05545,0.02871 -0.08325,0.043103 z"
         inkscape:connector-curvature="0"
         id="path3310"
         style="opacity:0.8;fill:url(#linearGradient3450);fill-opacity:1;fill-rule:nonzero;stroke:none" />
      <path
         d="M 10.168897,8.9334932 C 7.970412,10.939005 6.3042413,13.299243 5.1840387,15.849551 L 16.331399,20.69683 c 0.455898,-1.036579 1.119019,-1.993675 2.009011,-2.805547 0.02369,-0.02161 0.0454,-0.0419 0.06926,-0.06318 L 10.238158,8.8703115 c -0.0232,0.020972 -0.04613,0.042084 -0.06926,0.063182 z"
         inkscape:connector-curvature="0"
         id="path3312"
         style="opacity:0.8;fill:url(#linearGradient3452);fill-opacity:1;fill-rule:nonzero;stroke:none" />
      <path
         d="m 6.78125,12.96875 c -0.016978,0.02626 -0.045621,0.06739 -0.0625,0.09375 -1.1482224,1.793482 -1.9616625,3.681269 -2.5,5.625 l 11.75,3.125 C 16.184264,21.049497 16.486796,20.297733 16.9375,19.59375 16.95479,19.56675 16.98246,19.52673 17,19.5 L 6.78125,12.96875 z"
         inkscape:connector-curvature="0"
         id="path3314"
         style="opacity:0.8;fill:url(#linearGradient3454);fill-opacity:1;fill-rule:nonzero;stroke:none" />
    </g>
    <g
       transform="matrix(-0.6585366,0,0,-0.6585366,31.804879,31.804879)"
       id="g3642"
       style="opacity:0.8">
      <path
         d="m 24,3.5 c -2.975804,0 -5.797406,0.6208152 -8.34375,1.75 L 20.625,16.34375 C 21.660403,15.885186 22.795334,15.625 24,15.625 c 0.03206,0 0.06178,-3.6e-4 0.09375,0 l 0,-12.125 C 24.06248,3.4998614 24.0313,3.5 24,3.5 z"
         inkscape:connector-curvature="0"
         transform="matrix(0.9996011,0.02824295,-0.02824295,0.9996011,0.6924114,-0.6708346)"
         id="path3644"
         style="opacity:0.8;fill:url(#linearGradient3436);fill-opacity:1;fill-rule:nonzero;stroke:none" />
      <path
         d="m 19.597283,3.9975155 c -2.9067,0.6375811 -5.529765,1.8485223 -7.775043,3.4970525 l 7.230257,9.771547 c 0.913109,-0.669755 1.965938,-1.167064 3.142629,-1.425169 0.03132,-0.0069 0.06026,-0.01359 0.09157,-0.02009 L 19.688856,3.9774292 c -0.03058,0.00656 -0.061,0.013379 -0.09157,0.020086 z"
         inkscape:connector-curvature="0"
         id="path3646"
         style="opacity:0.8;fill:url(#linearGradient3438);fill-opacity:1;fill-rule:nonzero;stroke:none" />
      <path
         d="M 14.558173,5.8448691 C 11.915535,7.2130345 9.6952631,9.061613 7.9531621,11.235092 l 9.5129549,7.567261 c 0.70865,-0.883264 1.596891,-1.636119 2.666685,-2.18998 0.02847,-0.01474 0.05469,-0.02872 0.08325,-0.0431 L 14.641427,5.8017664 c -0.02783,0.014254 -0.05545,0.02871 -0.08325,0.043103 z"
         inkscape:connector-curvature="0"
         id="path3648"
         style="opacity:0.8;fill:url(#linearGradient3440);fill-opacity:1;fill-rule:nonzero;stroke:none" />
      <path
         d="M 10.168897,8.9334932 C 7.970412,10.939005 6.3042413,13.299243 5.1840387,15.849551 L 16.331399,20.69683 c 0.455898,-1.036579 1.119019,-1.993675 2.009011,-2.805547 0.02369,-0.02161 0.0454,-0.0419 0.06926,-0.06318 L 10.238158,8.8703115 c -0.0232,0.020972 -0.04613,0.042084 -0.06926,0.063182 z"
         inkscape:connector-curvature="0"
         id="path3650"
         style="opacity:0.8;fill:url(#linearGradient3442);fill-opacity:1;fill-rule:nonzero;stroke:none" />
      <path
         d="m 6.78125,12.96875 c -0.016978,0.02626 -0.045621,0.06739 -0.0625,0.09375 -1.1482224,1.793482 -1.9616625,3.681269 -2.5,5.625 l 11.75,3.125 C 16.184264,21.049497 16.486796,20.297733 16.9375,19.59375 16.95479,19.56675 16.98246,19.52673 17,19.5 L 6.78125,12.96875 z"
         inkscape:connector-curvature="0"
         id="path3652"
         style="opacity:0.8;fill:url(#linearGradient3444);fill-opacity:1;fill-rule:nonzero;stroke:none" />
    </g>
    <path
       d="M 16,2.5 C 8.5170743,2.5 2.5,8.5170756 2.5,16 2.5,23.482926 8.517075,29.5 16,29.5 23.482925,29.5 29.499999,23.482926 29.499999,16 29.499998,8.5170763 23.482926,2.5 16,2.5 z"
       inkscape:connector-curvature="0"
       id="path3287"
       style="fill:none;stroke:url(#linearGradient3409);stroke-width:1;stroke-miterlimit:4;stroke-opacity:1" />
    <path
       d="M 15.999999,10.5 C 12.964,10.5 10.5,12.964001 10.5,16 c 0,3.036 2.464,5.5 5.499999,5.5 3.036,0 5.5,-2.464 5.5,-5.5 0,-3.035999 -2.464,-5.5 -5.5,-5.5 z m 0,2.75 c 1.518001,0 2.75,1.232001 2.75,2.75 0,1.518001 -1.231999,2.75 -2.75,2.75 -1.517999,0 -2.75,-1.231999 -2.75,-2.75 0,-1.517999 1.232001,-2.75 2.75,-2.75 z"
       inkscape:connector-curvature="0"
       id="path3418"
       style="fill:none;stroke:url(#linearGradient3427);stroke-width:0.99999994;stroke-linecap:butt;stroke-linejoin:round;stroke-miterlimit:4;stroke-opacity:1;stroke-dasharray:none;stroke-dashoffset:0;marker:none;visibility:visible;display:inline;overflow:visible;enable-background:accumulate" />
    <path
       d="M 28.5,15.999557 C 28.5,22.903339 22.903147,28.5 16.000158,28.5 9.096537,28.5 3.5,22.903276 3.5,15.999557 3.5,9.0960941 9.096537,3.5000011 16.000158,3.5000011 22.903147,3.5000011 28.5,9.0960941 28.5,15.999557 l 0,0 z"
       inkscape:connector-curvature="0"
       id="path8655"
       style="opacity:0.55;color:#000000;fill:none;stroke:url(#linearGradient3199);stroke-width:0.99999994;stroke-linecap:round;stroke-linejoin:round;stroke-miterlimit:4;stroke-opacity:1;stroke-dasharray:none;stroke-dashoffset:0;marker:none;visibility:visible;display:inline;overflow:visible;enable-background:accumulate" />
    <path
       d="M 15.999999,22.5 C 12.397142,22.5 9.5,19.602858 9.5,16.000001 c 0,-3.602858 2.897142,-6.5000015 6.499999,-6.5000015 3.60286,0 6.5,2.8971435 6.5,6.5000015 0,3.602857 -2.89714,6.499999 -6.5,6.499999 l 0,0 0,0 z"
       inkscape:connector-curvature="0"
       id="path3281"
       style="opacity:0.4;fill:none;stroke:url(#linearGradient3406);stroke-width:0.99999994;stroke-miterlimit:4;stroke-opacity:1" />
  </g>
  <g
     id="g576"
     style="opacity:0.2"
     transform="matrix(1.0298014,0,0,1.0249216,-15.359488,13.966504)">
    <path
       inkscape:connector-curvature="0"
       id="path577"
       d="M 45.882,9.821 C 45.725,9.243 45.384,8.687 44.897,8.213 44.131,7.47 43.066,6.975 41.725,6.742 41.448,6.695 41.152,6.657 40.846,6.633 40.584,6.612 40.336,6.613 40.096,6.613 H 39.903 L 38.126,6.611 H 36.35 L 35.831,6.614 C 35.447,6.618 35.084,6.622 34.725,6.607 L 34.64,6.603 C 34.431,6.59 34.144,6.573 33.836,6.669 L 33.834,6.67 c -0.368,0.115 -0.563,0.376 -0.657,0.501 0,0 -0.014,0.018 -0.014,0.019 L 33.02,7.362 32.946,7.45 31.8,8.813 31.485,9.185 c -0.269,0.316 -0.546,0.643 -0.813,0.979 0,0 -0.061,0.079 -0.112,0.147 C 30.487,10.081 30.413,9.85 30.331,9.62 L 30.148,9.113 C 30.017,8.754 29.893,8.415 29.789,8.073 L 29.748,7.931 C 29.694,7.748 29.634,7.54 29.542,7.328 l 0.004,0.008 -0.004,-0.01 C 29.324,6.764 28.908,6.64 28.679,6.616 L 28.412,6.611 28.382,6.613 H 17.591 V 7.424 H 17.41 V 7.422 C 17.407,7.437 17.403,7.452 17.399,7.467 17.035,7.377 16.716,7.299 16.716,7.299 L 16.395,8.602 16.38,8.653 c -0.035,0.115 -0.087,0.288 -0.087,0.497 0,0 0.032,0.073 0.043,0.097 -0.095,0.126 -0.161,0.277 -0.186,0.448 l 0.011,-0.056 -0.092,0.381 -0.624,2.607 -0.208,0.879 -0.063,0.269 -0.134,0.554 -0.022,0.071 c -0.041,0.132 -0.103,0.332 -0.103,0.565 v 0.9 h 3.114 l 1.515,0.004 0.235,10e-4 c 0.657,0.002 1.238,-0.039 1.776,-0.125 1.179,-0.188 2.247,-0.564 3.177,-1.116 0.899,-0.535 1.581,-1.144 2.038,-1.816 0.013,0.033 0.68,1.921 0.68,1.921 l 0.172,0.489 c 0.134,0.388 0.273,0.789 0.427,1.185 l 0.009,0.021 0.111,0.309 0.028,0.111 c 0.1,0.461 0.482,0.76 0.944,0.743 l 0.796,-0.478 c 0.241,-0.294 0.499,-0.576 0.772,-0.874 0,0 0.342,-0.376 0.343,-0.376 l 1.231,-1.39 0.65,-0.736 0.741,-0.837 c 0,0 0.122,-0.139 0.298,-0.336 -0.064,0.274 -0.126,0.535 -0.126,0.535 l -0.205,0.863 -0.054,0.206 c -0.057,0.21 -0.12,0.448 -0.145,0.716 l -0.087,0.98 h 3.647 l 0.448,0.002 c 1.021,0.005 2.078,0.011 3.144,-0.22 0.591,-0.127 1.168,-0.311 1.714,-0.546 0.606,-0.261 1.134,-0.595 1.569,-0.89 0.956,-0.642 1.673,-1.586 1.967,-2.59 0.18,-0.607 0.192,-1.231 0.038,-1.8 m -24.068,2.178 c -0.131,0.074 -0.287,0.133 -0.48,0.198 -0.268,0.091 -0.483,0.148 -0.679,0.181 -0.13,0.021 -0.266,0.033 -0.405,0.042 0.073,-0.307 0.156,-0.657 0.156,-0.657 0,0 0.361,-1.527 0.399,-1.687 0.205,0.004 0.407,0.012 0.603,0.033 0.192,0.021 1.156,0.15 1.21,0.655 0.003,0.03 0.004,0.059 0.004,0.088 0.001,0.477 -0.407,0.922 -0.808,1.147 m 17.325,0.383 c -0.122,0.018 -0.249,0.026 -0.375,0.033 0.023,-0.099 0.046,-0.198 0.07,-0.295 l 0.095,-0.399 0.071,-0.304 0.139,-0.585 0.048,-0.189 c 0.046,-0.176 0.092,-0.376 0.128,-0.584 0.394,0.015 0.771,0.056 1.123,0.156 0.301,0.085 0.503,0.191 0.601,0.314 0.064,0.083 0.099,0.197 0.099,0.325 v 0.03 c -0.017,0.418 -0.313,0.829 -0.791,1.1 -0.157,0.089 -0.338,0.167 -0.536,0.231 -0.262,0.085 -0.488,0.141 -0.672,0.167 m -9.957,5.211 c -0.015,0.001 -0.027,-0.001 -0.041,0 l -0.009,0.002 0.05,-0.002 z" />
  </g>
  <path
     inkscape:connector-curvature="0"
     id="path584"
     style="fill:#666666"
     d="m 19.481607,20.079875 c -0.378954,0.11786 -0.579754,0.385362 -0.67655,0.513469 0,0 -0.01442,0.01845 -0.01442,0.01947 l -0.147258,0.176282 -0.07621,0.09019 -1.180115,1.396908 -0.324372,0.381258 c -0.277006,0.323868 -0.562251,0.658999 -0.837169,1.003402 0,0 -0.06281,0.08096 -0.115331,0.150658 -0.07517,-0.235728 -0.151371,-0.472471 -0.235808,-0.709222 l -0.188448,-0.51962 c -0.134899,-0.367939 -0.262591,-0.71435 -0.369683,-1.065881 l -0.04222,-0.14553 C 15.218413,21.183706 15.156627,20.97053 15.061895,20.75325 l 0.0041,0.0082 -0.0041,-0.01127 c -0.224488,-0.574964 -0.652872,-0.702048 -0.888687,-0.727671 l -0.27495,-0.0041 -0.03089,0.0021 H 2.7549773 v 0.922366 C 2.3045142,20.834879 1.8544511,20.723683 1.8544511,20.723683 l -0.3305557,1.33547 -0.015447,0.05329 c -0.036042,0.11786 -0.089589,0.296197 -0.089589,0.509373 0,0 0.032952,0.07481 0.04428,0.09941 -0.097828,0.129139 -0.1657938,0.283894 -0.1915368,0.459151 l 0.011328,-0.05739 -0.094741,0.390482 -0.64256788,2.6719 -0.214192,0.900846 -0.064875,0.275694 -0.1379868,0.56881 -0.021625,0.07379 c -0.04222,0.135283 -0.106068001,0.339236 -0.106068001,0.579067 v 0.922365 H 3.2075548 l 1.5601015,0.0041 h 0.241991 c 0.6765506,0.003 1.2748323,-0.03997 1.8288915,-0.128115 1.2141149,-0.192681 2.3139137,-0.579058 3.2715582,-1.144837 0.925725,-0.547293 1.628019,-1.171477 2.098641,-1.861211 0.01338,0.0328 0.700238,1.968807 0.700238,1.968807 l 0.177121,0.501173 c 0.137987,0.398681 0.281126,0.80965 0.439712,1.215554 l 0.0093,0.02152 0.1143,0.315668 0.02883,0.113764 c 0.105036,0.486821 0.52106,0.80045 1.014282,0.762515 l -0.05149,0.001 c 0,0 0.696118,-0.292093 0.768203,-0.42328 l 0.06076,-0.06765 c 0.248175,-0.301316 0.513853,-0.590338 0.794978,-0.895726 0,0 0.352179,-0.386386 0.353211,-0.386386 l 1.267632,-1.424586 0.669343,-0.754317 0.763052,-0.857808 c 0,0 0.125627,-0.141434 0.306868,-0.344363 -0.0659,0.280822 -0.129747,0.547292 -0.129747,0.547292 l -0.211104,0.885487 -0.05561,0.210104 c -0.05869,0.215224 -0.123571,0.460175 -0.149315,0.733821 l -0.08959,1.005402 h 3.755539 l 0.461335,0.0021 c 1.051401,0.0051 2.13984,0.01025 3.237559,-0.225479 0.608593,-0.130163 1.202755,-0.319764 1.765054,-0.559587 0.624032,-0.26647 1.167716,-0.60981 1.615699,-0.911167 0.984443,-0.658999 1.722815,-1.625459 2.025524,-2.654461 0.184329,-0.622104 0.195657,-1.260592 0.03707,-1.843771 -0.161674,-0.592385 -0.512821,-1.162196 -1.014282,-1.648018 -0.788795,-0.761491 -1.88553,-1.267792 -3.266438,-1.506583 -0.285245,-0.04818 -0.590058,-0.08712 -0.905166,-0.11274 -0.269798,-0.02152 -0.52518,-0.0205 -0.772323,-0.01947 h -0.198745 l -1.829851,-0.0021 h -1.827852 l -0.534444,0.0021 c -0.395425,0.0041 -0.769235,0.0072 -1.138917,-0.0082 l -0.0856,-0.0024 c -0.215224,-0.01333 -0.510765,-0.03075 -0.827969,0.06764 l -0.0021,0.0021 M 3.4555784,24.19328 h 0.5581311 c -0.076203,0.320788 -0.5952017,2.503826 -0.5952017,2.503826 0,0 -0.1699137,0.726645 -0.2244876,0.965484 H 2.103501 c 0.017506,-0.07174 0.035012,-0.14553 0.035012,-0.14553 l 0.215224,-0.899887 c 0,0 0.4232321,-1.763854 0.5818182,-2.423829 h 0.5200285 m 2.2006376,1.109959 c 0,0 0.3717461,-1.564982 0.4108726,-1.728976 0.2111041,0.0041 0.4191123,0.0123 0.6209447,0.03382 0.1977126,0.02152 1.1904354,0.15373 1.2460334,0.671303 0.00312,0.02972 0.00408,0.06047 0.00408,0.09019 0,0.488869 -0.4191123,0.944924 -0.8320488,1.174516 -0.134899,0.07687 -0.295541,0.136314 -0.4942855,0.203952 -0.2759737,0.09327 -0.4973734,0.151682 -0.6992058,0.185505 -0.133867,0.02152 -0.2739178,0.03382 -0.4170564,0.04305 0.076205,-0.314644 0.160642,-0.67335 0.160642,-0.67335 m 4.5206635,-3.432361 h 0.649783 v 0.728693 c 0,0.301317 0.07311,0.540116 0.135931,0.738948 0.04119,0.131187 0.06797,0.27467 0.08341,0.449927 0.0103,0.09634 0.01442,0.192681 0.01442,0.284918 0,0.319764 -0.05355,0.607761 -0.160642,0.860927 -0.255382,0.603658 -0.855728,1.198116 -1.7372149,1.718736 -0.4160244,0.246999 -0.8753272,0.446855 -1.3644293,0.604681 0.072085,-0.03382 0.1431387,-0.06252 0.2152244,-0.102492 1.1059586,-0.616985 1.7804933,-1.686977 1.7804933,-2.787735 0,-0.09429 -0.00512,-0.189609 -0.015447,-0.284918 -0.1194516,-1.108918 -0.961804,-1.908328 -2.2922346,-2.212717 1.2449938,0.001 2.6907801,0.001 2.6907801,0.001 m 6.581193,4.140565 0.256414,-0.332067 0.17197,-0.217272 0.215224,-0.283894 0.278038,-0.363834 c 0.257438,-0.320788 0.534443,-0.644656 0.80013,-0.958284 l 0.329523,-0.388434 1.180116,-1.394907 0.0659,-0.07687 c 0,0 0.05664,-0.06969 0.113275,-0.138362 0.01133,0 0.150347,0.0092 0.150347,0.0092 0.235815,0.01025 0.47163,0.01333 0.705389,0.01333 -0.227575,0.128107 -0.370714,0.306444 -0.445887,0.399705 0,0 -0.02162,0.02562 -0.02162,0.02665 -0.0051,0.0062 -0.933965,1.040281 -0.933965,1.040281 l -1.694977,1.901209 -0.759963,0.856768 -0.674495,0.758419 -1.255313,1.409227 c 0,0 -0.203896,0.221376 -0.283181,0.309517 -0.03914,-0.111658 -0.0793,-0.220294 -0.117398,-0.335082 l -0.181241,-0.512444 -1.237794,-3.48155 -0.269798,-0.75022 c 0,0 -0.289365,-0.80453 -0.298629,-0.830129 -0.0021,-0.0062 -0.0062,-0.0205 -0.0062,-0.0205 -0.114299,-0.401761 -0.297604,-0.63748 -0.491197,-0.777891 h 1.134837 c 10e-4,0.0072 0.05561,0.185505 0.05561,0.185505 0.121516,0.400729 0.264646,0.788139 0.402641,1.163237 l 0.181242,0.499117 c 0.189472,0.53294 0.355266,1.089479 0.515908,1.629539 0.05561,0.186529 0.108124,0.385361 0.123572,0.57701 0.0381,0.518597 0.468542,0.925486 0.980363,0.925486 l 0.627128,-0.06867 0.261559,-0.579066 c 0.02574,-0.05432 0.06384,-0.114788 0.122539,-0.194729 h -0.0021 0.0021 m 4.54231,1.088439 0.42632,-1.788413 0.166826,-0.722549 0.069,-0.307468 c 0,0 0.0093,-0.03894 0.02266,-0.09327 0.15961,0.0021 0.370714,0.0041 0.370714,0.0041 h 0.718773 c -0.03913,0.167058 -0.07929,0.336164 -0.07929,0.336164 l -0.07002,0.30542 -0.09783,0.405857 c -0.115332,0.481694 -0.235815,0.981883 -0.338796,1.484024 0,0 -0.14417,0.698974 -0.193592,0.939805 h -1.129638 c 0.06179,-0.262374 0.134899,-0.563691 0.134899,-0.563691 m 3.332275,-1.430746 0.09783,-0.409953 0.07311,-0.31054 0.143138,-0.599562 0.04943,-0.193704 c 0.04737,-0.180378 0.09474,-0.385362 0.131812,-0.598538 0.405728,0.01435 0.793946,0.05739 1.156436,0.159882 0.309957,0.08609 0.517973,0.194729 0.618889,0.321812 0.0659,0.08507 0.101948,0.20088 0.101948,0.333092 v 0.02972 c -0.0175,0.4284 -0.322316,0.849649 -0.814529,1.127398 -0.161674,0.09121 -0.348059,0.171154 -0.551956,0.236751 -0.268766,0.08814 -0.500461,0.146563 -0.690974,0.172186 -0.125627,0.01845 -0.256406,0.02665 -0.386161,0.03382 0.02266,-0.101461 0.04634,-0.203953 0.07105,-0.302341 m 2.470388,1.466585 c 1.05444,-0.594434 1.710415,-1.588581 1.754734,-2.65958 0.001,-0.03485 0.0021,-0.06867 0.0021,-0.10454 0,-0.545244 -0.17609,-1.065881 -0.500461,-1.475865 -0.354243,-0.446855 -0.867088,-0.759444 -1.569382,-0.957244 -0.07311,-0.0205 -0.143138,-0.0328 -0.215224,-0.04919 0.250231,0.02152 0.491198,0.05022 0.716717,0.08917 1.004043,0.17321 1.774254,0.513469 2.288155,1.011562 0.265678,0.256223 0.444855,0.534988 0.519004,0.80861 0.02986,0.111716 0.04531,0.231623 0.04531,0.355635 0,0.157834 -0.02471,0.319764 -0.07209,0.485797 -0.183297,0.621081 -0.649783,1.219635 -1.280992,1.641859 -0.376898,0.25315 -0.829969,0.539092 -1.31291,0.746116 -0.203897,0.08814 -0.417057,0.16501 -0.631249,0.234695 0.08445,-0.04202 0.175058,-0.08199 0.256415,-0.127083 z" />
  <path
     inkscape:connector-curvature="0"
     id="path585"
     style="fill:#ffffff"
     d="m 2.5684003,20.852646 h 7.4204425 3.6937822 c 0.06797,0 0.136954,-0.0092 0.205952,-0.0021 0.08238,0.0082 0.107092,0.110684 0.135931,0.17833 0.09371,0.213176 0.150346,0.441727 0.218312,0.664127 0.166825,0.547291 0.379985,1.083319 0.571514,1.623459 0.195657,0.553443 0.363507,1.112038 0.530324,1.672657 0.0762,0.256223 0.139019,0.507317 0.158586,0.771739 0.0031,0.03382 0.03193,0.06969 0.05664,0.06969 0.01648,-0.04817 0.03707,-0.09429 0.05973,-0.139387 0.05561,-0.108636 0.123572,-0.212152 0.193593,-0.311564 0.142107,-0.198825 0.300693,-0.38433 0.451039,-0.579067 0.168881,-0.218303 0.329523,-0.443775 0.501493,-0.660031 0.371746,-0.46427 0.763051,-0.911166 1.146117,-1.366189 0.393369,-0.465302 0.786739,-0.930605 1.180116,-1.395867 0.08444,-0.100437 0.173001,-0.197801 0.252294,-0.302341 0.06281,-0.08096 0.125636,-0.177305 0.228608,-0.210104 0.187417,-0.05842 0.406753,-0.02972 0.598289,-0.02153 0.569459,0.0246 1.142998,0.0051 1.713536,0.0051 h 1.827852 c 0.609617,0 1.219234,10e-4 1.827851,0.003 0.299661,10e-4 0.600354,-0.0082 0.900047,0.01538 0.275973,0.02255 0.548867,0.05534 0.821729,0.103516 1.005082,0.173209 2.032724,0.540116 2.776216,1.258593 0.349091,0.339235 0.636392,0.755339 0.765115,1.227794 0.121516,0.441727 0.09783,0.908046 -0.03089,1.343629 -0.259502,0.880367 -0.896926,1.641859 -1.652738,2.1492 -0.470598,0.314644 -0.943244,0.604681 -1.464345,0.829169 -0.513853,0.219328 -1.048281,0.388433 -1.5941,0.505269 -1.152277,0.248023 -2.332393,0.202928 -3.503229,0.202928 H 19.81591 c 0.02471,-0.275693 0.118419,-0.545243 0.183297,-0.813729 0.069,-0.294141 0.140051,-0.589314 0.210072,-0.883487 0.142107,-0.596482 0.284213,-1.192995 0.427352,-1.789453 0.08033,-0.339235 0.156522,-0.679503 0.233759,-1.020762 0.03604,-0.162954 0.07517,-0.322836 0.11842,-0.484774 0.02369,-0.08507 0.04325,-0.210104 0.102972,-0.279797 0.02883,-0.03587 0.09886,-0.03998 0.141075,-0.04407 0.09268,-0.01025 0.187417,-0.01025 0.280093,-0.0082 0.219336,0.0051 0.437648,0.01025 0.656992,0.01025 h 1.881369 c -0.0381,0.292093 -0.123571,0.573939 -0.193593,0.858848 -0.07517,0.303365 -0.145194,0.610833 -0.21728,0.917246 -0.148282,0.619033 -0.301716,1.238033 -0.431471,1.86225 0.562251,0 1.123478,0.0205 1.679537,-0.05739 0.283181,-0.03997 0.579754,-0.119915 0.850608,-0.210104 0.25023,-0.08096 0.493253,-0.183457 0.720837,-0.311564 0.694062,-0.391506 1.251153,-1.07204 1.284112,-1.892969 0.01339,-0.347435 -0.08135,-0.696926 -0.300693,-0.971564 -0.268766,-0.340259 -0.68479,-0.52474 -1.094599,-0.639528 -1.022522,-0.289021 -2.12544,-0.183457 -3.176841,-0.178329 -0.304813,10e-4 -0.608585,0.0021 -0.914446,0.0041 -0.146226,0 -0.292453,0.001 -0.439711,0.001 -0.149315,0.001 -0.317164,-0.01947 -0.464423,0.0051 -0.125627,0.0205 -0.212128,0.17013 -0.290389,0.257247 -0.107092,0.119915 -0.21316,0.237775 -0.32026,0.357682 -0.205952,0.229576 -0.410873,0.458127 -0.617857,0.686679 -0.821729,0.914205 -1.635299,1.835611 -2.452868,2.753896 -0.644632,0.724597 -1.283072,1.454346 -1.933927,2.173759 -0.393369,0.434552 -0.80221,0.859888 -1.175956,1.311871 -0.03604,0.04407 -0.08959,0.09429 -0.110188,0.149634 -10e-4,0.003 -10e-4,0.0041 -10e-4,0.0072 -0.04119,0 -0.04531,0.0123 -0.05457,-0.0328 -0.01442,-0.06457 -0.0309,-0.128107 -0.05149,-0.191657 -0.0412,-0.136187 -0.09371,-0.269422 -0.146232,-0.402666 -0.218312,-0.556515 -0.405729,-1.127397 -0.606529,-1.689056 -0.411905,-1.160197 -0.824849,-2.321353 -1.236754,-3.48155 -0.127691,-0.35769 -0.25847,-0.715373 -0.385129,-1.07204 -0.06385,-0.173209 -0.125628,-0.345387 -0.188449,-0.518596 -0.03295,-0.09224 -0.08032,-0.367938 -0.218312,-0.367938 0,0.162953 0.04531,0.309516 0.09577,0.465302 0.06488,0.20908 0.100916,0.418152 0.120483,0.636456 0.05046,0.538068 -0.0041,1.089479 -0.216248,1.591621 -0.395425,0.932685 -1.262512,1.648018 -2.1172003,2.154319 -0.9010062,0.53294 -1.9132887,0.861968 -2.9441301,1.025882 -0.5581311,0.08916 -1.1152382,0.118891 -1.6784972,0.115811 -0.6024094,-0.001 -1.2037949,-0.0041 -1.8061723,-0.0041 H 1.1802679 0.73953242 c 0,-0.137339 0.062816,-0.285941 0.097828,-0.419176 0.076203,-0.285941 0.1400507,-0.575986 0.20800818,-0.863968 0.2862772,-1.189875 0.5694586,-2.38079 0.8578078,-3.569706 0.030893,-0.131187 0.062815,-0.26135 0.094741,-0.391505 0.011328,-0.04817 -0.00103,-0.07072 0.053548,-0.07072 H 2.1616533 2.382021 3.2665479 4.9965631 c -0.2893652,1.211395 -0.5776984,2.42591 -0.8660476,3.637304 0.5818182,0 1.1697962,0.02972 1.7433747,-0.06559 0.2883332,-0.04612 0.5704907,-0.128108 0.8454084,-0.221376 0.2244876,-0.07585 0.4438233,-0.155786 0.6497836,-0.270566 C 8.1372858,25.825397 8.7643904,24.99626 8.666554,24.084134 8.5584301,23.069532 7.480278,22.687227 6.5987911,22.59291 6.0653711,22.53449 5.5268312,22.54884 4.9913313,22.54986 c -0.6127051,0.0021 -1.2243542,0 -1.8371312,0 H 2.4529303 2.3056719 c -0.04119,0 -0.1482825,0.02152 -0.1482825,-0.02255 0,-0.10966 0.051489,-0.234696 0.078262,-0.34026 0.1111158,-0.445583 0.2213517,-0.890366 0.3315076,-1.33595" />
</svg>
