<?xml version="1.0" encoding="UTF-8" standalone="no"?>
<!-- Created with Inkscape (http://www.inkscape.org/) -->

<svg
   xmlns:dc="http://purl.org/dc/elements/1.1/"
   xmlns:cc="http://creativecommons.org/ns#"
   xmlns:rdf="http://www.w3.org/1999/02/22-rdf-syntax-ns#"
   xmlns:svg="http://www.w3.org/2000/svg"
   xmlns="http://www.w3.org/2000/svg"
   xmlns:sodipodi="http://sodipodi.sourceforge.net/DTD/sodipodi-0.dtd"
   xmlns:inkscape="http://www.inkscape.org/namespaces/inkscape"
   id="svg2864"
   height="22"
   width="22"
   version="1.1"
   inkscape:version="0.48.4 r9939"
   sodipodi:docname="start-here.svg">
  <defs
     id="defs7" />
  <sodipodi:namedview
     pagecolor="#ffffff"
     bordercolor="#666666"
     borderopacity="1"
     objecttolerance="10"
     gridtolerance="10"
     guidetolerance="10"
     inkscape:pageopacity="0"
     inkscape:pageshadow="2"
     inkscape:window-width="735"
     inkscape:window-height="480"
     id="namedview5"
     showgrid="false"
     inkscape:zoom="10.727273"
     inkscape:cx="11"
     inkscape:cy="11"
     inkscape:window-x="1066"
     inkscape:window-y="58"
     inkscape:window-maximized="0"
     inkscape:current-layer="svg2864" />
  <metadata
     id="metadata13">
    <rdf:RDF>
      <cc:Work
         rdf:about="">
        <dc:format>image/svg+xml</dc:format>
        <dc:type
           rdf:resource="http://purl.org/dc/dcmitype/StillImage" />
        <dc:title />
      </cc:Work>
    </rdf:RDF>
  </metadata>
  <path
     d="m 14.975953,4.5792979 a 1.1891546,1.1891546 0 0 0 -0.990963,1.1891546 1.189155,1.189155 0 0 0 2.37831,0 1.1891546,1.1891546 0 0 0 -1.387347,-1.1891546 z m -3.741081,1.3377989 c -0.512922,0.00151 -1.02188,0.1180434 -1.6101151,0.3963849 l 1.0155381,2.0314728 c 1.936736,-0.5469322 3.626921,0.695734 4.286506,2.7001735 h 2.35294 C 17.053802,9.8742065 16.56942,8.6808505 15.744146,7.799925 15.167803,8.0942015 14.459859,8.1175875 13.861318,7.7751113 13.262777,7.4328726 12.92585,6.805316 12.894932,6.1648374 12.259131,6.01762 11.748587,5.9155906 11.234872,5.9170968 z M 8.4356023,6.8089628 C 7.4327486,7.504539 6.4478115,8.8424175 6.1811237,10.103952 c 0.7399713,0.384651 1.1127316,0.980021 1.1396858,1.982082 0.025289,0.941018 -0.5464562,1.552244 -1.065324,1.93198 0.4595687,0.891073 1.4599648,2.168225 2.3287611,2.576502 l 0.9661485,-2.328365 c -1.3569047,-1.042492 -1.8543677,-3.311399 0,-5.1779755 L 8.4356023,6.8089628 z M 4.7937767,10.896721 A 1.1891546,1.1891546 0 0 0 4.347923,13.150724 1.190838,1.190838 0 0 0 5.4131677,11.020552 1.1891546,1.1891546 0 0 0 4.7937767,10.896721 z m 10.1331823,1.511178 c -0.539083,1.959727 -2.04376,3.190105 -4.162041,2.601077 l -0.9418101,2.205486 c 1.1273191,0.367845 1.7773901,0.409069 3.0220381,0.07373 0.03647,-0.64135 0.388457,-1.237513 0.990962,-1.585539 0.603298,-0.348026 1.309656,-0.363881 1.883621,-0.07373 0.73569,-0.94736 1.373077,-2.012842 1.560171,-3.221023 h -2.352941 z m 0.172824,4.062945 a 1.1891546,1.1891546 0 0 0 -1.114634,1.189154 1.1891546,1.1891546 0 0 0 2.378309,0 1.1891546,1.1891546 0 0 0 -1.263675,-1.189154 z"
     style="opacity:0.5;fill:#000000;fill-opacity:1"
     id="path2984"
     inkscape:connector-curvature="0" />
  <path
     id="path19"
     style="fill:#ffffff"
     d="m 14.975953,3.8658045 a 1.1891546,1.1891546 0 0 0 -0.990963,1.1891546 1.189155,1.189155 0 0 0 2.37831,0 1.1891546,1.1891546 0 0 0 -1.387347,-1.1891546 z m -3.741081,1.3377989 c -0.512922,0.00151 -1.02188,0.1180435 -1.6101151,0.3963849 l 1.0155381,2.0314725 c 1.936736,-0.5469319 3.626921,0.6957347 4.286506,2.7001742 h 2.35294 C 17.053802,9.1607135 16.56942,7.9673575 15.744146,7.0864316 15.167803,7.3807077 14.459859,7.4040944 13.861318,7.0616179 13.262777,6.7193792 12.92585,6.0918227 12.894932,5.451344 12.259131,5.3041266 11.748587,5.2020972 11.234872,5.2036034 z M 8.4356023,6.0954694 C 7.4327486,6.7910456 6.4478115,8.1289235 6.1811237,9.3904585 c 0.7399713,0.384652 1.1127316,0.9800225 1.1396858,1.9820835 0.025289,0.941017 -0.5464562,1.552243 -1.065324,1.931979 0.4595687,0.891074 1.4599648,2.168226 2.3287611,2.576502 l 0.9661485,-2.328365 c -1.3569047,-1.042492 -1.8543677,-3.311399 0,-5.1779755 L 8.4356023,6.0954694 z M 4.7937767,10.183228 A 1.1891546,1.1891546 0 0 0 4.347923,12.437231 1.190838,1.190838 0 1 0 5.4131677,10.307059 1.1891546,1.1891546 0 0 0 4.7937767,10.183228 z m 10.1331823,1.511178 c -0.539083,1.959727 -2.04376,3.190106 -4.162041,2.601078 l -0.9418101,2.205485 c 1.1273191,0.367845 1.7773901,0.409069 3.0220381,0.07373 0.03647,-0.641351 0.388457,-1.237514 0.990962,-1.58554 0.603298,-0.348026 1.309656,-0.363881 1.883621,-0.07373 0.73569,-0.94736 1.373077,-2.012843 1.560171,-3.221024 h -2.352941 z m 0.172824,4.062945 a 1.1891546,1.1891546 0 0 0 -1.114634,1.189155 1.1891546,1.1891546 0 0 0 2.378309,0 1.1891546,1.1891546 0 0 0 -1.263675,-1.189155 z"
     inkscape:connector-curvature="0" />
</svg>
