<?xml version="1.0" encoding="UTF-8" standalone="no"?>
<!-- Created with Inkscape (http://www.inkscape.org/) -->

<svg
   xmlns:dc="http://purl.org/dc/elements/1.1/"
   xmlns:cc="http://creativecommons.org/ns#"
   xmlns:rdf="http://www.w3.org/1999/02/22-rdf-syntax-ns#"
   xmlns:svg="http://www.w3.org/2000/svg"
   xmlns="http://www.w3.org/2000/svg"
   xmlns:xlink="http://www.w3.org/1999/xlink"
   xmlns:sodipodi="http://sodipodi.sourceforge.net/DTD/sodipodi-0.dtd"
   xmlns:inkscape="http://www.inkscape.org/namespaces/inkscape"
   version="1.0"
   width="22"
   height="22"
   id="svg3184"
   inkscape:version="0.48.3.1 r9886"
   sodipodi:docname="user-indeterminate-panel.svg">
  <metadata
     id="metadata12">
    <rdf:RDF>
      <cc:Work
         rdf:about="">
        <dc:format>image/svg+xml</dc:format>
        <dc:type
           rdf:resource="http://purl.org/dc/dcmitype/StillImage" />
        <dc:title></dc:title>
      </cc:Work>
    </rdf:RDF>
  </metadata>
  <sodipodi:namedview
     pagecolor="#ffffff"
     bordercolor="#666666"
     borderopacity="1"
     objecttolerance="10"
     gridtolerance="10"
     guidetolerance="10"
     inkscape:pageopacity="0"
     inkscape:pageshadow="2"
     inkscape:window-width="1153"
     inkscape:window-height="722"
     id="namedview10"
     showgrid="true"
     inkscape:zoom="13.227273"
     inkscape:cx="11"
     inkscape:cy="12.587628"
     inkscape:window-x="345"
     inkscape:window-y="24"
     inkscape:window-maximized="0"
     inkscape:current-layer="svg3184"
     showguides="true"
     inkscape:guide-bbox="true" />
  <defs
     id="defs3186">
    <linearGradient
       id="linearGradient3587-6-5-3">
      <stop
         id="stop3589-9-2-2"
         style="stop-color:#ffffff;stop-opacity:1"
         offset="0" />
      <stop
         id="stop3591-7-4-73"
         style="stop-color:#e6e6e6;stop-opacity:1"
         offset="1" />
    </linearGradient>
    <linearGradient
       x1="159.68553"
       y1="14.403693"
       x2="159.68553"
       y2="38.279892"
       id="linearGradient2388"
       xlink:href="#linearGradient3587-6-5-3"
       gradientUnits="userSpaceOnUse"
       gradientTransform="matrix(-0.45102519,0,0,0.59918617,83.632994,-5.0304937)" />
  </defs>
  <path
     d="m 9.35,4.7 c 5.1612,0 9.35,3.2032 9.35,7.15 0,0.605372 -0.123888,1.191617 -0.309375,1.753125 L 22,16.696875 16.0875,16.8 C 14.385648,18.155387 11.999346,19 9.35,19 4.1888,19 -1.0999998e-6,15.7968 0,11.85 0,7.9032 4.1888,4.6999999 9.35,4.7 z"
     id="path2410"
     style="opacity:0.5;fill:#000000;fill-opacity:1;fill-rule:nonzero;stroke:none;stroke-width:1;marker:none;visibility:visible;display:inline;overflow:visible;enable-background:accumulate"
     inkscape:connector-curvature="0" />
  <path
     d="m 9.35,3.6 c 5.1612,0 9.35,3.2032003 9.35,7.15 0,0.605372 -0.123888,1.191617 -0.309375,1.753125 L 22,15.596875 16.0875,15.7 C 14.385648,17.055387 11.999346,17.9 9.35,17.9 4.1888,17.9 -1.0999998e-6,14.6968 0,10.75 0,6.8032001 4.1888,3.5999999 9.35,3.6 z"
     id="path2396"
     style="fill:url(#linearGradient2388);fill-opacity:1;fill-rule:nonzero;stroke:none;stroke-width:1;marker:none;visibility:visible;display:inline;overflow:visible;enable-background:accumulate"
     inkscape:connector-curvature="0" />
  <path
     sodipodi:type="arc"
     style="opacity:0.5;fill:#000000;fill-opacity:1;stroke:none"
     id="path2989"
     sodipodi:cx="-16.972507"
     sodipodi:cy="14.33677"
     sodipodi:rx="1.927835"
     sodipodi:ry="2.1924398"
     d="m -15.044672,14.33677 a 1.927835,2.1924398 0 1 1 -3.85567,0 1.927835,2.1924398 0 1 1 3.85567,0 z"
     transform="matrix(0.85588238,0,0,0.75258623,19.253824,0.5084546)" />
  <path
     transform="matrix(0.85588238,0,0,0.75258623,23.653824,0.5084546)"
     d="m -15.044672,14.33677 a 1.927835,2.1924398 0 1 1 -3.85567,0 1.927835,2.1924398 0 1 1 3.85567,0 z"
     sodipodi:ry="2.1924398"
     sodipodi:rx="1.927835"
     sodipodi:cy="14.33677"
     sodipodi:cx="-16.972507"
     id="path3759"
     style="opacity:0.5;fill:#000000;fill-opacity:1;stroke:none"
     sodipodi:type="arc" />
  <path
     sodipodi:type="arc"
     style="opacity:0.5;fill:#000000;fill-opacity:1;stroke:none"
     id="path3761"
     sodipodi:cx="-16.972507"
     sodipodi:cy="14.33677"
     sodipodi:rx="1.927835"
     sodipodi:ry="2.1924398"
     d="m -15.044672,14.33677 a 1.927835,2.1924398 0 1 1 -3.85567,0 1.927835,2.1924398 0 1 1 3.85567,0 z"
     transform="matrix(0.85588238,0,0,0.75258623,28.053824,0.5084546)" />
</svg>
