<?xml version="1.0" encoding="UTF-8" standalone="no"?>
<svg
   xmlns:dc="http://purl.org/dc/elements/1.1/"
   xmlns:cc="http://creativecommons.org/ns#"
   xmlns:rdf="http://www.w3.org/1999/02/22-rdf-syntax-ns#"
   xmlns:svg="http://www.w3.org/2000/svg"
   xmlns="http://www.w3.org/2000/svg"
   xmlns:xlink="http://www.w3.org/1999/xlink"
   xmlns:sodipodi="http://sodipodi.sourceforge.net/DTD/sodipodi-0.dtd"
   xmlns:inkscape="http://www.inkscape.org/namespaces/inkscape"
   id="svg4505"
   height="32"
   width="32"
   version="1.1"
   inkscape:version="0.91 r"
   sodipodi:docname="novell-button.svg">
  <sodipodi:namedview
     pagecolor="#ffffff"
     bordercolor="#666666"
     borderopacity="1"
     objecttolerance="10"
     gridtolerance="10"
     guidetolerance="10"
     inkscape:pageopacity="0"
     inkscape:pageshadow="2"
     inkscape:window-width="1855"
     inkscape:window-height="1056"
     id="namedview29"
     showgrid="true"
     inkscape:zoom="31.961268"
     inkscape:cx="-1.0362456"
     inkscape:cy="16"
     inkscape:window-x="65"
     inkscape:window-y="24"
     inkscape:window-maximized="1"
     inkscape:current-layer="svg4505">
    <inkscape:grid
       type="xygrid"
       id="grid4185" />
  </sodipodi:namedview>
  <defs
     id="defs4507">
    <linearGradient
       id="linearGradient3820-7-2-2">
      <stop
         offset="0"
         style="stop-color:#3d3d3d;stop-opacity:1"
         id="stop3822-2-6-36" />
      <stop
         offset="0.5"
         style="stop-color:#686868;stop-opacity:0.49803922"
         id="stop3864-8-7-6" />
      <stop
         offset="1"
         style="stop-color:#686868;stop-opacity:0"
         id="stop3824-1-2-4" />
    </linearGradient>
    <radialGradient
       gradientTransform="matrix(0.17524541,0,0,0.05575992,-1.37681,18.119145)"
       gradientUnits="userSpaceOnUse"
       xlink:href="#linearGradient3820-7-2-2"
       id="radialGradient3043"
       fy="186.17059"
       fx="99.157013"
       r="62.769119"
       cy="186.17059"
       cx="99.157013" />
    <linearGradient
       gradientTransform="matrix(0.72972969,0,0,0.72972969,-36.346077,-2.5039312)"
       gradientUnits="userSpaceOnUse"
       xlink:href="#linearGradient4011"
       id="linearGradient3012"
       y2="44.340794"
       x2="71.204407"
       y1="6.2375584"
       x1="71.204407" />
    <linearGradient
       id="linearGradient4011">
      <stop
         offset="0"
         style="stop-color:#ffffff;stop-opacity:1"
         id="stop4013" />
      <stop
         offset="0.507761"
         style="stop-color:#ffffff;stop-opacity:0.23529412"
         id="stop4015" />
      <stop
         offset="0.83456558"
         style="stop-color:#ffffff;stop-opacity:0.15686275"
         id="stop4017" />
      <stop
         offset="1"
         style="stop-color:#ffffff;stop-opacity:0.39215687"
         id="stop4019" />
    </linearGradient>
    <linearGradient
       id="linearGradient2867-449-88-871-390-598-476-591-434-148-57-177-3-8-8">
      <stop
         offset="0"
         style="stop-color:#90dbec;stop-opacity:1"
         id="stop3750-8-9-0" />
      <stop
         offset="0.26238"
         style="stop-color:#42baea;stop-opacity:1"
         id="stop3752-3-2-2" />
      <stop
         offset="0.704952"
         style="stop-color:#3689e6;stop-opacity:1"
         id="stop3754-7-2-2-9" />
      <stop
         offset="1"
         style="stop-color:#2b63a0;stop-opacity:1"
         id="stop3756-9-3-05" />
    </linearGradient>
    <radialGradient
       gradientTransform="matrix(0,3.5365871,-3.741287,-9.6260457e-8,47.613087,-13.699891)"
       gradientUnits="userSpaceOnUse"
       xlink:href="#linearGradient2867-449-88-871-390-598-476-591-434-148-57-177-3-8-8"
       id="radialGradient3386"
       fy="8.4497671"
       fx="1.1978998"
       r="19.99999"
       cy="8.4497671"
       cx="1.1978998" />
  </defs>
  <metadata
     id="metadata4510">
    <rdf:RDF>
      <cc:Work
         rdf:about="">
        <dc:format>image/svg+xml</dc:format>
        <dc:type
           rdf:resource="http://purl.org/dc/dcmitype/StillImage" />
        <dc:title></dc:title>
      </cc:Work>
    </rdf:RDF>
  </metadata>
  <path
     style="color:#000000;fill:#353945;fill-opacity:1;fill-rule:nonzero;stroke:none;stroke-width:1;marker:none;visibility:visible;display:inline;overflow:visible;enable-background:accumulate"
     id="path2555-72"
     d="M 16.000002,1.4999987 C 7.999402,1.4999987 1.5,7.9993984 1.5,15.999999 1.5,24.000599 7.999402,30.500002 16.000002,30.5 24.000599,30.5 30.500008,24.000599 30.5,15.999999 30.5,7.9993984 24.000599,1.4999987 16.000002,1.4999987 z" />
  <path
     id="path2828"
     d="m 21.681115,15.385974 c -0.264576,-3.004949 -2.785867,-5.361171 -5.858941,-5.361171 -0.885247,0 -1.725234,0.196951 -2.477695,0.547289 L 11.945057,8.0643796 c 1.16846,-0.5784727 2.484683,-0.9054488 3.877117,-0.9054488 0.809702,0 1.593112,0.1124532 2.337253,0.3178575 0.131456,0.8092354 0.611686,1.5548079 1.377458,1.9967979 0.764441,0.440694 1.649024,0.48489 2.414796,0.195654 1.488946,1.4644518 2.458392,3.4560588 2.599166,5.6745018 l -2.869732,0.04224 z"
     style="fill:#ffffff;fill-opacity:1;fill-rule:nonzero;stroke:none"
     inkscape:connector-curvature="0" />
  <path
     id="path2826"
     d="m 21.951681,22.146104 c -0.765772,-0.289237 -1.649689,-0.245707 -2.414796,0.195652 -0.765772,0.442657 -1.246002,1.187564 -1.377458,1.9968 -0.744141,0.206069 -1.527551,0.318488 -2.337253,0.318488 -1.392434,0 -2.708657,-0.326942 -3.877117,-0.90608 l 1.399422,-2.507713 c 0.752461,0.350372 1.592448,0.547323 2.477695,0.547323 3.073074,0 5.594365,-2.355624 5.858274,-5.361206 l 2.870399,0.04223 c -0.140774,2.218477 -1.11022,4.210051 -2.599166,5.674503 z"
     style="fill:#ffffff;fill-opacity:1;fill-rule:nonzero;stroke:none"
     inkscape:connector-curvature="0" />
  <path
     id="path2824"
     d="m 21.957325,26.53427 c -0.963123,0.556374 -2.194149,0.226204 -2.749924,-0.737121 -0.556442,-0.962656 -0.226304,-2.193749 0.737151,-2.750124 0.962456,-0.555775 2.194149,-0.225571 2.749924,0.737086 0.556442,0.96329 0.226305,2.194382 -0.737151,2.750159 z"
     style="fill:#ffffff;fill-opacity:1;fill-rule:nonzero;stroke:none"
     inkscape:connector-curvature="0" />
  <path
     id="path2822"
     d="m 7.3507555,18.101155 c 0.6356478,-0.518702 1.0426617,-1.308435 1.0426617,-2.193217 0,-0.885314 -0.4070139,-1.675048 -1.0426617,-2.19375 C 7.8955489,11.606234 9.206447,9.8063872 10.968623,8.6285747 l 1.472306,2.4661123 c -1.512575,1.064694 -2.5013239,2.822941 -2.5013239,4.813251 0,1.990409 0.9887489,3.748689 2.5013239,4.812718 L 10.968623,23.1874 C 9.2057817,22.009622 7.8948832,20.209774 7.3507555,18.101155 Z"
     style="fill:#ffffff;fill-opacity:1;fill-rule:nonzero;stroke:none"
     inkscape:connector-curvature="0" />
  <path
     id="path2820"
     d="m 5.5652847,17.921775 c -1.1128826,0 -2.0144373,-0.901554 -2.0144373,-2.013837 0,-1.112816 0.9015547,-2.014338 2.0144373,-2.014338 1.1118839,0 2.0134386,0.901522 2.0134386,2.014338 0,1.112283 -0.9015547,2.013837 -2.0134386,2.013837 z"
     style="fill:#ffffff;fill-opacity:1;fill-rule:nonzero;stroke:none"
     inkscape:connector-curvature="0" />
  <path
     id="path2818"
     d="m 19.206748,6.018193 c 0.556442,-0.9632891 1.787468,-1.2934929 2.75059,-0.7377505 0.963455,0.5564078 1.292927,1.787501 0.736486,2.75079 C 22.138049,8.9945542 20.907022,9.3240932 19.9439,8.7676851 18.981109,8.211943 18.650972,6.9808497 19.206748,6.018193 Z"
     style="fill:#ffffff;fill-opacity:1;fill-rule:nonzero;stroke:none"
     inkscape:connector-curvature="0" />
</svg>
