<?xml version="1.0" encoding="UTF-8" standalone="no"?>
<!-- Created with Inkscape (http://www.inkscape.org/) -->

<svg
   xmlns:dc="http://purl.org/dc/elements/1.1/"
   xmlns:cc="http://creativecommons.org/ns#"
   xmlns:rdf="http://www.w3.org/1999/02/22-rdf-syntax-ns#"
   xmlns:svg="http://www.w3.org/2000/svg"
   xmlns="http://www.w3.org/2000/svg"
   xmlns:xlink="http://www.w3.org/1999/xlink"
   xmlns:sodipodi="http://sodipodi.sourceforge.net/DTD/sodipodi-0.dtd"
   xmlns:inkscape="http://www.inkscape.org/namespaces/inkscape"
   version="1.0"
   width="128"
   height="128"
   id="svg3191"
   sodipodi:version="0.32"
   inkscape:version="0.48.2 r9819"
   sodipodi:docname="clementine.svg"
   inkscape:output_extension="org.inkscape.output.svg.inkscape"
   inkscape:export-filename="/home/daniel/Desktop/Tangerine.svg.png"
   inkscape:export-xdpi="90"
   inkscape:export-ydpi="90">
  <metadata
     id="metadata27">
    <rdf:RDF>
      <cc:Work
         rdf:about="">
        <dc:format>image/svg+xml</dc:format>
        <dc:type
           rdf:resource="http://purl.org/dc/dcmitype/StillImage" />
      </cc:Work>
    </rdf:RDF>
  </metadata>
  <sodipodi:namedview
     inkscape:window-height="793"
     inkscape:window-width="1440"
     inkscape:pageshadow="2"
     inkscape:pageopacity="0.0"
     guidetolerance="10.0"
     gridtolerance="10.0"
     objecttolerance="10.0"
     borderopacity="1.0"
     bordercolor="#666666"
     pagecolor="#ffffff"
     id="base"
     showgrid="false"
     inkscape:zoom="6.0520833"
     inkscape:cx="24"
     inkscape:cy="60.351119"
     inkscape:window-x="66"
     inkscape:window-y="24"
     inkscape:current-layer="svg3191"
     inkscape:window-maximized="0">
    <inkscape:grid
       type="xygrid"
       id="grid2637"
       empspacing="5"
       visible="true"
       enabled="true"
       snapvisiblegridlinesonly="true" />
  </sodipodi:namedview>
  <defs
     id="defs3193">
    <linearGradient
       inkscape:collect="always"
       id="linearGradient3850">
      <stop
         style="stop-color:#699536;stop-opacity:1"
         offset="0"
         id="stop3852" />
      <stop
         style="stop-color:#717171;stop-opacity:0;"
         offset="1"
         id="stop3854" />
    </linearGradient>
    <linearGradient
       id="linearGradient8838">
      <stop
         id="stop8840"
         style="stop-color:#000000;stop-opacity:1"
         offset="0" />
      <stop
         id="stop8842"
         style="stop-color:#000000;stop-opacity:0"
         offset="1" />
    </linearGradient>
    <linearGradient
       id="linearGradient4873">
      <stop
         id="stop4875"
         style="stop-color:#ffffff;stop-opacity:1"
         offset="0" />
      <stop
         id="stop4877"
         style="stop-color:#ffffff;stop-opacity:0"
         offset="1" />
    </linearGradient>
    <linearGradient
       id="linearGradient5670-725-6">
      <stop
         offset="0"
         style="stop-color:#000000;stop-opacity:1"
         id="stop3197-4" />
      <stop
         offset="1"
         style="stop-color:#000000;stop-opacity:0"
         id="stop3199-8" />
    </linearGradient>
    <linearGradient
       id="linearGradient5670-612-8">
      <stop
         offset="0"
         style="stop-color:#000000;stop-opacity:1"
         id="stop3203-1" />
      <stop
         offset="1"
         style="stop-color:#000000;stop-opacity:0"
         id="stop3205-0" />
    </linearGradient>
    <linearGradient
       id="linearGradient7067-814-120-245-2">
      <stop
         offset="0"
         style="stop-color:#aaaaaa;stop-opacity:1"
         id="stop3877-9" />
      <stop
         offset="1"
         style="stop-color:#4d4d4d;stop-opacity:1"
         id="stop3879-7" />
    </linearGradient>
    <linearGradient
       id="linearGradient7067-561-456-275-6">
      <stop
         offset="0"
         style="stop-color:#aaaaaa;stop-opacity:1"
         id="stop3871-4" />
      <stop
         offset="1"
         style="stop-color:#4d4d4d;stop-opacity:1"
         id="stop3873-6" />
    </linearGradient>
    <linearGradient
       id="linearGradient2372-270-7">
      <stop
         offset="0"
         style="stop-color:#ffffff;stop-opacity:1"
         id="stop3239-9" />
      <stop
         offset="1"
         style="stop-color:#ffffff;stop-opacity:0.37931034"
         id="stop3241-7" />
    </linearGradient>
    <linearGradient
       id="linearGradient2372-378-9">
      <stop
         offset="0"
         style="stop-color:#ffffff;stop-opacity:1"
         id="stop3245-1" />
      <stop
         offset="1"
         style="stop-color:#ffffff;stop-opacity:0.37931034"
         id="stop3247-7" />
    </linearGradient>
    <radialGradient
       inkscape:collect="always"
       xlink:href="#linearGradient5670-725-6"
       id="radialGradient2625"
       gradientUnits="userSpaceOnUse"
       gradientTransform="matrix(0.6976533,0,0,0.2996088,-34.379469,25.389985)"
       cx="22.90196"
       cy="45.866665"
       fx="22.90196"
       fy="45.866665"
       r="7.9058824" />
    <radialGradient
       inkscape:collect="always"
       xlink:href="#linearGradient5670-612-8"
       id="radialGradient2627"
       gradientUnits="userSpaceOnUse"
       gradientTransform="matrix(0.7587453,0,0,0.3258449,-47.692253,25.979203)"
       cx="22.90196"
       cy="45.866665"
       fx="22.90196"
       fy="45.866665"
       r="7.9058824" />
    <radialGradient
       inkscape:collect="always"
       xlink:href="#linearGradient7067-814-120-245-2"
       id="radialGradient2629"
       gradientUnits="userSpaceOnUse"
       gradientTransform="matrix(0.6649828,0,-0.1088639,0.6373854,-36.948113,11.762702)"
       cx="17.058823"
       cy="41.058823"
       fx="14.638257"
       fy="38.175381"
       r="5.7384715" />
    <radialGradient
       inkscape:collect="always"
       xlink:href="#linearGradient7067-561-456-275-6"
       id="radialGradient2631"
       gradientUnits="userSpaceOnUse"
       gradientTransform="matrix(0.6633252,0,-0.1085925,0.6357966,-24.889106,9.9975179)"
       cx="17.058823"
       cy="41.058823"
       fx="14.109128"
       fy="38.980988"
       r="5.7384715" />
    <linearGradient
       inkscape:collect="always"
       xlink:href="#linearGradient2372-270-7"
       id="linearGradient2633"
       gradientUnits="userSpaceOnUse"
       gradientTransform="matrix(0.2214737,0,0,0.2231125,-32.85424,-9.5787631)"
       x1="28.739122"
       y1="144.11652"
       x2="25.400293"
       y2="119.86452" />
    <linearGradient
       inkscape:collect="always"
       xlink:href="#linearGradient2372-378-9"
       id="linearGradient2635"
       gradientUnits="userSpaceOnUse"
       gradientTransform="matrix(0.4456319,0,0,0.2231125,-26.170308,-11.1572)"
       x1="28.739122"
       y1="144.11652"
       x2="26.256771"
       y2="125.39074" />
    <linearGradient
       id="linearGradient2490-113-765">
      <stop
         id="stop3686"
         style="stop-color:#861318;stop-opacity:1"
         offset="0" />
      <stop
         id="stop3688"
         style="stop-color:#f67e2a;stop-opacity:1"
         offset="1" />
    </linearGradient>
    <linearGradient
       id="linearGradient3242-817-801">
      <stop
         id="stop3676"
         style="stop-color:#ffed8c;stop-opacity:1"
         offset="0" />
      <stop
         id="stop3678"
         style="stop-color:#fb9858;stop-opacity:1"
         offset="0.26238" />
      <stop
         id="stop3680"
         style="stop-color:#dc572a;stop-opacity:1"
         offset="0.66093999" />
      <stop
         id="stop3682"
         style="stop-color:#750c3d;stop-opacity:1"
         offset="1" />
    </linearGradient>
    <linearGradient
       inkscape:collect="always"
       xlink:href="#linearGradient4873"
       id="linearGradient2869"
       gradientUnits="userSpaceOnUse"
       gradientTransform="matrix(5.6710014,0,0,5.3800105,-290.07901,87.90991)"
       x1="63.397362"
       y1="-12.489107"
       x2="63.397362"
       y2="5.4675598" />
    <radialGradient
       inkscape:collect="always"
       xlink:href="#linearGradient3242-817-801"
       id="radialGradient2872"
       gradientUnits="userSpaceOnUse"
       gradientTransform="matrix(0,5.8178075,-8.0945771,0,94.956965,-123.33231)"
       cx="23.895569"
       cy="3.9900031"
       fx="23.895569"
       fy="3.9900031"
       r="20.397499" />
    <linearGradient
       inkscape:collect="always"
       xlink:href="#linearGradient2490-113-765"
       id="linearGradient2874"
       gradientUnits="userSpaceOnUse"
       gradientTransform="matrix(2.5694253,0,0,2.4376387,0.99336922,10.518251)"
       x1="18.379412"
       y1="44.980297"
       x2="18.379412"
       y2="3.0816143" />
    <radialGradient
       inkscape:collect="always"
       xlink:href="#linearGradient8838"
       id="radialGradient2877"
       gradientUnits="userSpaceOnUse"
       gradientTransform="matrix(5.8032541,0,0,2.0185205,-300.76922,97.21753)"
       cx="62.625"
       cy="4.625"
       fx="62.625"
       fy="4.625"
       r="10.625" />
    <linearGradient
       id="linearGradient2264">
      <stop
         id="stop2266"
         offset="0"
         style="stop-color:#d7e866;stop-opacity:1;" />
      <stop
         id="stop2268"
         offset="1"
         style="stop-color:#8cab2a;stop-opacity:1;" />
    </linearGradient>
    <linearGradient
       inkscape:collect="always"
       xlink:href="#linearGradient2264"
       id="linearGradient3834"
       x1="34"
       y1="0"
       x2="35.319725"
       y2="4.9252748"
       gradientUnits="userSpaceOnUse"
       gradientTransform="matrix(2.604367,-0.57058136,0.43471073,2.7464748,2.2533277,25.198757)" />
    <radialGradient
       inkscape:collect="always"
       xlink:href="#linearGradient3850"
       id="radialGradient3856"
       cx="22.306368"
       cy="10.82272"
       fx="22.306368"
       fy="10.82272"
       r="1.4870912"
       gradientTransform="matrix(1,0,0,0.3333333,0,7.2151462)"
       gradientUnits="userSpaceOnUse" />
  </defs>
  <path
     style="opacity:0.3;fill:url(#radialGradient2877);fill-opacity:1;fill-rule:evenodd;stroke:none;stroke-width:0.99999988;marker:none;visibility:visible;display:inline;overflow:visible"
     id="path8836"
     d="M 124.31915,106.55319 C 124.31915,118.39794 96.713212,128 62.659572,128 28.605933,128 0.9999968,118.39794 0.9999968,106.55319 c 0,-11.844749 27.6059362,-21.446807 61.6595752,-21.446807 34.05364,0 61.659578,9.602058 61.659578,21.446807 l 0,0 z"
     inkscape:connector-curvature="0" />
  <path
     style="fill:url(#radialGradient2872);fill-opacity:1;stroke:url(#linearGradient2874);stroke-width:2.69064665;stroke-linecap:round;stroke-linejoin:round;stroke-miterlimit:4;stroke-opacity:1;stroke-dasharray:none;stroke-dashoffset:0"
     id="path2555"
     d="m 62.659586,19.430866 c -28.841746,0 -52.271753,22.228264 -52.271753,49.590705 0,27.362455 23.430007,49.590709 52.271753,49.590709 28.841735,0 52.271764,-22.228254 52.271744,-49.590709 0,-27.362441 -23.430009,-49.590705 -52.271744,-49.590705 z"
     inkscape:connector-curvature="0" />
  <path
     style="opacity:0.4;fill:none;stroke:url(#linearGradient2869);stroke-width:2.68085098;stroke-miterlimit:4;stroke-opacity:1;stroke-dasharray:none"
     id="path8655"
     d="m 112.25533,69.019909 c 0,25.98691 -22.206406,47.053631 -49.59512,47.053631 -27.39122,0 -49.596374,-21.066962 -49.596374,-47.053631 0,-25.985723 22.205154,-47.050296 49.596374,-47.050296 27.388714,0 49.59512,21.064573 49.59512,47.050296 l 0,0 z"
     inkscape:connector-curvature="0" />
  <g
     id="g2616"
     transform="matrix(2.6808511,0,0,2.6808511,158.64491,11.382815)">
    <path
       style="opacity:0.3;fill:url(#radialGradient2625);fill-opacity:1;stroke:none"
       id="path2704"
       d="m -12.886276,39.132052 c 0,1.308183 -2.469403,2.368674 -5.515565,2.368674 -3.046162,0 -5.515565,-1.060491 -5.515565,-2.368674 0,-1.308183 2.469403,-2.368674 5.515565,-2.368674 3.046162,0 5.515565,1.060491 5.515565,2.368674 z"
       inkscape:connector-curvature="0" />
    <path
       style="opacity:0.3;fill:url(#radialGradient2627);fill-opacity:1;stroke:none"
       id="path4121"
       d="m -24.316948,40.924632 c -8.55e-4,1.422478 -2.686248,2.575429 -5.998551,2.575429 -3.312303,0 -5.997696,-1.152951 -5.998551,-2.575429 -8.56e-4,-1.422997 2.685038,-2.576759 5.998551,-2.576759 3.313513,0 5.999407,1.153762 5.998551,2.576759 l 0,0 z"
       inkscape:connector-curvature="0" />
    <path
       style="fill:#4d4d4d;fill-opacity:1;stroke:#333333;stroke-width:1;stroke-linecap:round;stroke-linejoin:round;stroke-miterlimit:4;stroke-opacity:1;stroke-dasharray:none"
       id="path4031"
       d="m -14.420631,16.004278 c -4.126923,0.65819 -8.872206,1.335746 -12.987656,2.030696 -1.089793,0.526246 -0.844792,1.881339 -0.893006,2.864584 0,4.387432 0,8.774864 0,13.162296 -2.800847,-0.6412 -5.875138,1.450854 -5.996608,4.424657 -0.198287,1.851424 1.460567,3.462983 3.264419,3.506319 3.229721,0.07759 5.684399,-2.043142 5.719432,-4.725187 -0.03527,-4.504338 0.0099,-9.010449 0,-13.515478 0.5,-0.03665 8.318974,-1.466849 9,-1.562074 0,3.37408 0,6.74816 0,10.12224 -2.583394,-0.761059 -5.165682,0.829544 -5.801891,3.495564 -0.470738,1.5444 0.238985,3.370066 1.771061,4.002814 2.990859,1.360163 7.197751,-1.394993 7.03083,-4.628508 -0.04632,-6.006297 0.03797,-12.015051 0,-18.021989 -0.07855,-0.564485 -0.465037,-1.196681 -1.106581,-1.155934 l 0,0 z"
       inkscape:connector-curvature="0" />
    <path
       style="fill:url(#radialGradient2629);fill-opacity:1;stroke:none"
       id="path2937"
       d="m -26.178216,37.267607 c 0,1.987828 -1.744253,3.897195 -3.895897,4.26469 -2.151645,0.367496 -3.895897,-0.946043 -3.895897,-2.933871 0,-1.987828 1.744253,-3.897195 3.895897,-4.26469 2.151645,-0.367496 3.895897,0.946043 3.895897,2.933871 z"
       inkscape:connector-curvature="0" />
    <path
       style="fill:url(#radialGradient2631);fill-opacity:1;stroke:none"
       id="path2941"
       d="m -14.136344,35.437188 c 4.91e-4,1.988065 -1.743905,3.897957 -3.895897,4.265512 -2.151992,0.367555 -3.896388,-0.94646 -3.895896,-2.934693 4.91e-4,-1.987591 1.7446,-3.896432 3.895897,-4.263868 2.151297,-0.367436 3.895405,0.945626 3.895896,2.933049 z"
       inkscape:connector-curvature="0" />
    <path
       style="opacity:0.3;fill:url(#linearGradient2633);fill-opacity:1;fill-rule:evenodd;stroke:none"
       id="path2945"
       d="m -27.707307,34.666171 -0.094,-15.045207 c 0,0 0.102897,-1.150193 0.866171,-1.153699 0.270703,-0.04687 12.136359,-2.004103 12.136359,-2.004103 0,0 1.532086,0.727913 -11.015275,2.767717 -1.287099,0.24744 -1.000012,0.730941 -1.000012,1.580039 0,2.29019 2e-6,6.021469 2e-6,14.360383 0,0.05966 -0.569792,-0.422704 -0.893247,-0.50513 l 2e-6,0 z"
       inkscape:connector-curvature="0" />
    <path
       style="opacity:0.3;fill:url(#linearGradient2635);fill-opacity:1;fill-rule:evenodd;stroke:none"
       id="path2947"
       d="m -15.814047,32.934517 0.0594,-11.365685 c 0.625915,-0.05597 0.0961,-0.009 0.940117,-0.09284 0.01161,2.122994 4.8e-4,3.885177 4.8e-4,11.903162 0,0.05966 -0.349163,-0.362211 -0.999997,-0.444637 z"
       inkscape:connector-curvature="0" />
  </g>
  <path
     style="fill:url(#linearGradient3834);fill-opacity:1;fill-rule:evenodd;stroke:#699536;stroke-width:2.68085051px;stroke-linecap:butt;stroke-linejoin:miter;stroke-opacity:1"
     d="m 69.101346,21.920117 c 0,0 13.01794,-19.9023382 45.574474,-18.5098908 0,0 -14.04726,20.8712918 -45.574474,18.5098908 z"
     id="path3826"
     inkscape:transform-center-x="-23.702051"
     inkscape:transform-center-y="-10.713314"
     inkscape:connector-curvature="0" />
  <path
     sodipodi:type="arc"
     style="fill:url(#radialGradient3856);fill-opacity:1;fill-rule:nonzero;stroke:none;stroke-width:1;marker:none;visibility:visible;display:inline;overflow:visible;enable-background:accumulate"
     id="path3848"
     sodipodi:cx="22.306368"
     sodipodi:cy="10.82272"
     sodipodi:rx="1.4870912"
     sodipodi:ry="0.49569708"
     d="m 23.793459,10.82272 a 1.4870912,0.49569708 0 1 1 -2.974182,0 1.4870912,0.49569708 0 1 1 2.974182,0 z"
     transform="matrix(5.4082449,0,0,4.4680852,-57.978721,-21.76314)" />
</svg>
