<?xml version="1.0" encoding="UTF-8" standalone="no"?>
<!-- Created with Inkscape (http://www.inkscape.org/) -->

<svg
   xmlns:dc="http://purl.org/dc/elements/1.1/"
   xmlns:cc="http://creativecommons.org/ns#"
   xmlns:rdf="http://www.w3.org/1999/02/22-rdf-syntax-ns#"
   xmlns:svg="http://www.w3.org/2000/svg"
   xmlns="http://www.w3.org/2000/svg"
   xmlns:xlink="http://www.w3.org/1999/xlink"
   xmlns:sodipodi="http://sodipodi.sourceforge.net/DTD/sodipodi-0.dtd"
   xmlns:inkscape="http://www.inkscape.org/namespaces/inkscape"
   width="128"
   height="128"
   id="svg7450"
   sodipodi:version="0.32"
   inkscape:version="0.48.2 r9819"
   sodipodi:docname="activity-log-manager2.svg"
   inkscape:output_extension="org.inkscape.output.svg.inkscape"
   version="1.1">
  <defs
     id="defs7452">
    <linearGradient
       inkscape:collect="always"
       id="linearGradient5974">
      <stop
         style="stop-color:#ad7fa8;stop-opacity:1;"
         offset="0"
         id="stop5976" />
      <stop
         style="stop-color:#dac6d8;stop-opacity:1"
         offset="1"
         id="stop5978" />
    </linearGradient>
    <linearGradient
       inkscape:collect="always"
       xlink:href="#linearGradient5974"
       id="linearGradient5980"
       x1="27.651777"
       y1="23.145937"
       x2="21.59099"
       y2="20.618719"
       gradientUnits="userSpaceOnUse"
       gradientTransform="matrix(2.7114414,0,0,2.7757862,-10.918917,-83.461958)" />
    <linearGradient
       inkscape:collect="always"
       id="linearGradient5999">
      <stop
         style="stop-color:#c4a000;stop-opacity:1;"
         offset="0"
         id="stop6001" />
      <stop
         style="stop-color:#c4a000;stop-opacity:0;"
         offset="1"
         id="stop6003" />
    </linearGradient>
    <linearGradient
       inkscape:collect="always"
       xlink:href="#linearGradient5999"
       id="linearGradient6005"
       x1="27.354809"
       y1="36.218422"
       x2="23.489431"
       y2="34.728424"
       gradientUnits="userSpaceOnUse"
       gradientTransform="matrix(2.7757861,0,0,2.7757861,-12.654719,-83.461956)" />
    <linearGradient
       id="linearGradient5981"
       inkscape:collect="always">
      <stop
         id="stop5983"
         offset="0"
         style="stop-color:#ffffff;stop-opacity:1;" />
      <stop
         id="stop5985"
         offset="1"
         style="stop-color:#ffffff;stop-opacity:0.69411765" />
    </linearGradient>
    <linearGradient
       inkscape:collect="always"
       xlink:href="#linearGradient5981"
       id="linearGradient5973"
       gradientUnits="userSpaceOnUse"
       x1="22.319767"
       y1="41.955986"
       x2="18.985712"
       y2="37.029255"
       gradientTransform="matrix(2.7757862,0,0,2.7757862,-12.654719,-83.461958)" />
    <linearGradient
       inkscape:collect="always"
       id="linearGradient5987">
      <stop
         style="stop-color:#d7c20f;stop-opacity:1"
         offset="0"
         id="stop5989" />
      <stop
         style="stop-color:#b6970d;stop-opacity:1"
         offset="1"
         id="stop5991" />
    </linearGradient>
    <linearGradient
       inkscape:collect="always"
       xlink:href="#linearGradient5987"
       id="linearGradient5993"
       x1="17.032078"
       y1="27.446827"
       x2="29.494455"
       y2="37.845814"
       gradientUnits="userSpaceOnUse"
       gradientTransform="matrix(2.7757862,0,0,2.7757862,-12.654719,-83.461958)" />
    <linearGradient
       inkscape:collect="always"
       id="linearGradient5966">
      <stop
         style="stop-color:#fdef72;stop-opacity:1"
         offset="0"
         id="stop5968" />
      <stop
         style="stop-color:#e2cb0b;stop-opacity:1"
         offset="1"
         id="stop5970" />
    </linearGradient>
    <linearGradient
       inkscape:collect="always"
       xlink:href="#linearGradient5966"
       id="linearGradient5972"
       x1="20.933708"
       y1="25.060659"
       x2="30.208115"
       y2="30.742676"
       gradientUnits="userSpaceOnUse"
       gradientTransform="matrix(2.7757862,0,0,2.7757862,-12.654719,-83.461958)" />
    <linearGradient
       inkscape:collect="always"
       id="linearGradient5984">
      <stop
         style="stop-color:#ffffff;stop-opacity:1;"
         offset="0"
         id="stop5986" />
      <stop
         style="stop-color:#ffffff;stop-opacity:0.13438736"
         offset="1"
         id="stop5988" />
    </linearGradient>
    <linearGradient
       inkscape:collect="always"
       xlink:href="#linearGradient5984"
       id="linearGradient5994"
       gradientUnits="userSpaceOnUse"
       x1="28"
       y1="8"
       x2="33.447109"
       y2="16.685888" />
    <linearGradient
       inkscape:collect="always"
       id="linearGradient5996">
      <stop
         style="stop-color:#8f5902;stop-opacity:1;"
         offset="0"
         id="stop5998" />
      <stop
         style="stop-color:#73521e;stop-opacity:1"
         offset="1"
         id="stop6000" />
    </linearGradient>
    <linearGradient
       inkscape:collect="always"
       xlink:href="#linearGradient5996"
       id="linearGradient6002"
       x1="30.324829"
       y1="9.2407961"
       x2="34"
       y2="18"
       gradientUnits="userSpaceOnUse"
       gradientTransform="matrix(2.7757862,0,0,2.7757862,-12.654719,-83.461958)" />
    <linearGradient
       inkscape:collect="always"
       id="linearGradient5958">
      <stop
         style="stop-color:#c17d11;stop-opacity:1;"
         offset="0"
         id="stop5960" />
      <stop
         style="stop-color:#e9b96e;stop-opacity:1"
         offset="1"
         id="stop5962" />
    </linearGradient>
    <linearGradient
       inkscape:collect="always"
       xlink:href="#linearGradient5958"
       id="linearGradient5964"
       x1="28"
       y1="16"
       x2="26"
       y2="8"
       gradientUnits="userSpaceOnUse"
       gradientTransform="matrix(2.7757862,0,0,2.7757862,-12.654719,-83.461958)" />
    <linearGradient
       inkscape:collect="always"
       id="linearGradient6019">
      <stop
         style="stop-color:#000000;stop-opacity:1;"
         offset="0"
         id="stop6021" />
      <stop
         style="stop-color:#000000;stop-opacity:0;"
         offset="1"
         id="stop6023" />
    </linearGradient>
    <radialGradient
       inkscape:collect="always"
       xlink:href="#linearGradient6019"
       id="radialGradient6025"
       cx="38"
       cy="69"
       fx="28.603323"
       fy="69"
       r="20"
       gradientTransform="matrix(1,0,0,0.45,0,37.95)"
       gradientUnits="userSpaceOnUse" />
  </defs>
  <sodipodi:namedview
     id="base"
     pagecolor="#ffffff"
     bordercolor="#666666"
     borderopacity="1.0"
     inkscape:pageopacity="0.0"
     inkscape:pageshadow="2"
     inkscape:zoom="5.3671875"
     inkscape:cx="64"
     inkscape:cy="64"
     inkscape:current-layer="layer1"
     showgrid="true"
     inkscape:grid-bbox="true"
     inkscape:document-units="px"
     inkscape:window-width="1129"
     inkscape:window-height="873"
     inkscape:window-x="382"
     inkscape:window-y="92"
     inkscape:window-maximized="0" />
  <metadata
     id="metadata7455">
    <rdf:RDF>
      <cc:Work
         rdf:about="">
        <dc:format>image/svg+xml</dc:format>
        <dc:type
           rdf:resource="http://purl.org/dc/dcmitype/StillImage" />
        <dc:title></dc:title>
      </cc:Work>
    </rdf:RDF>
  </metadata>
  <g
     id="layer1"
     inkscape:label="Layer 1"
     inkscape:groupmode="layer"
     transform="translate(0,80)">
    <path
       sodipodi:type="arc"
       style="opacity:0.25;fill:url(#radialGradient6025);fill-opacity:1;stroke:none"
       id="path6017"
       sodipodi:cx="38"
       sodipodi:cy="69"
       sodipodi:rx="20"
       sodipodi:ry="9"
       d="m 58,69 a 20,9 0 1 1 -40,0 20,9 0 1 1 40,0 z"
       transform="matrix(2.7757861,0,0,1.8505245,-45.964151,-97.340913)" />
    <path
       style="fill:url(#linearGradient5964);fill-opacity:1;fill-rule:evenodd;stroke:url(#linearGradient6002);stroke-width:2.77578616px;stroke-linecap:butt;stroke-linejoin:miter;stroke-opacity:1"
       d="m 88.921708,-76.609234 c -22.770378,0.293262 -26.083509,45.09966 -32.615489,53.173657 l 11.103146,3.990191 c 7.305516,-12.137255 43.735275,-52.484559 23.76767,-57.077106 -0.775805,-0.08597 -1.520799,-0.09621 -2.255327,-0.08673 z m -2.86253,5.725059 c 0.53729,-0.05202 1.021451,0.01593 1.474637,0.26023 1.812744,0.977417 2.008711,4.149459 0.433717,7.026209 -1.574996,2.87675 -4.346038,4.447151 -6.158776,3.469733 -1.812736,-0.977419 -2.008712,-4.149459 -0.433718,-7.026209 1.181248,-2.157564 3.072275,-3.573919 4.68414,-3.729963 z"
       id="path5371"
       inkscape:connector-curvature="0" />
    <path
       sodipodi:type="inkscape:offset"
       inkscape:radius="-1.0049498"
       inkscape:original="M 36.59375 2.46875 C 28.390533 2.5744003 27.19695 18.716276 24.84375 21.625 L 28.84375 23.0625 C 31.475623 18.689953 44.599746 4.1545034 37.40625 2.5 C 37.12676 2.4690309 36.85837 2.4653419 36.59375 2.46875 z "
       style="opacity:0.26666667;fill:none;stroke:url(#linearGradient5994);stroke-width:1px;stroke-linecap:butt;stroke-linejoin:miter;stroke-opacity:1"
       id="path5992"
       d="m 36.59375,3.46875 c -1.721618,0.022173 -3.007925,0.8558743 -4.1875,2.28125 -1.179575,1.4253757 -2.148334,3.4416354 -2.9375,5.59375 -0.789166,2.152115 -1.42404,4.43427 -2,6.375 -0.399891,1.347456 -0.769857,2.406448 -1.21875,3.34375 l 2.1875,0.78125 c 1.618594,-2.495624 5.038798,-6.591178 7.53125,-10.625 1.325839,-2.1457566 2.2837,-4.1780411 2.5,-5.5625 C 38.5769,4.9640206 38.513818,4.4833206 38.34375,4.1875 38.179059,3.9010309 37.880274,3.6629145 37.21875,3.5 37.019255,3.4812162 36.817917,3.4658629 36.59375,3.46875 z"
       transform="matrix(2.7757861,0,0,2.7757861,-12.654719,-83.461956)" />
    <path
       style="fill:url(#linearGradient5972);fill-opacity:1;fill-rule:evenodd;stroke:url(#linearGradient5993);stroke-width:2.77578592;stroke-linecap:butt;stroke-linejoin:miter;stroke-miterlimit:20;stroke-opacity:1;stroke-dasharray:none"
       d="m 49.800471,-37.661483 c 1.969436,5.55992 -1.502778,10.37542 -2.775786,13.878932 -14.41068,4.290459 -24.390281,26.9354679 -39.2290295,38.73217 1.8536367,1.935826 4.0310715,4.008728 5.9195945,5.680409 l 11.276632,-9.801994 -8.514881,12.559458 c 6.132371,4.971385 12.505073,8.345681 16.668752,9.733575 L 40.779165,22.972099 35.92154,34.50896 c 4.030425,1.634611 13.838089,4.113784 19.430504,4.163679 l 5.562369,-9.444605 -1.424448,9.618091 c 2.30269,0.439571 6.767825,1.038744 9.741009,1.127663 9.33271,-15.266824 11.103145,-40.16215542 5.551572,-51.265301 -1.387893,-5.551572 4.16368,-12.491038 8.327359,-15.266825 -6.939465,-5.551572 -22.77696,-11.946223 -33.309434,-11.103145 z"
       id="path5367"
       sodipodi:nodetypes="cccccccccccccccc"
       inkscape:connector-curvature="0" />
    <path
       style="opacity:0.26666667;fill:#c4a000;fill-rule:evenodd;stroke:none"
       d="M 17.87893,23.405814 C 31.248489,9.4966408 30.272878,3.4092556 45.959108,-8.5926942 37.680485,4.8099976 36.338679,11.781738 26.206287,28.957387 L 17.87893,23.405814 z"
       id="path5975"
       sodipodi:nodetypes="cccc"
       inkscape:connector-curvature="0" />
    <path
       style="opacity:0.41568627;fill:#c4a000;fill-rule:evenodd;stroke:none"
       d="M 37.725268,33.68303 49.788909,6.3688847 C 54.409242,-1.9133029 57.726748,-10.202702 62.360371,-16.801581 57.913689,-1.7622707 48.78486,16.845923 41.455231,34.897436 L 37.725268,33.68303 z"
       id="path5979"
       sodipodi:nodetypes="ccccc"
       inkscape:connector-curvature="0" />
    <path
       style="opacity:0.47843137;fill:none;stroke:url(#linearGradient5973);stroke-width:2.77578592px;stroke-linecap:butt;stroke-linejoin:miter;stroke-opacity:1"
       d="m 52.923229,-34.885696 c 0.268531,5.316036 -2.561891,9.79754 -3.382988,12.05732 -0.288967,0.790292 -0.930804,1.400036 -1.734866,1.648125 -15.137468,6.202893 -21.178702,23.7996961 -36.07034,36.324402 0.559718,0.554752 1.365773,1.158347 1.927867,1.688319 L 38.697326,-4.3520469 20.442049,22.879284 c 3.525339,2.852434 7.556249,5.231091 11.732293,6.909389 L 51.589171,3.9753101 39.722981,32.87572 c 4.42896,1.459111 8.600228,2.296397 13.726289,3.021133 l 12.820607,-21.338857 -3.804881,21.947633 5.204599,0.627315 c 3.978292,-7.03799 5.919036,-15.729077 7.026209,-24.396557 1.176781,-9.2124076 -0.01391,-18.1569118 -2.34207,-22.813495 -0.07538,-0.167137 -0.133508,-0.341518 -0.173488,-0.520459 -0.962805,-3.851212 0.469502,-7.621272 2.428812,-10.756172 1.184964,-1.895941 2.582515,-3.582925 4.066414,-5.001347 -3.251782,-2.172583 -7.180117,-4.052831 -12.133541,-5.841567 -4.891149,-1.76625 -9.709693,-2.637067 -13.618702,-2.689043 z"
       id="path6014"
       sodipodi:nodetypes="csccccccccccccsssscsc"
       inkscape:connector-curvature="0" />
    <path
       style="opacity:0.24705882;fill:url(#linearGradient6005);fill-opacity:1;fill-rule:evenodd;stroke:none"
       d="M 45.550048,35.896853 C 51.594506,19.930889 63.303744,7.9476186 67.803284,-8.3364442 67.946349,1.8286871 68.496454,19.986917 62.55174,38.065436 c -0.887603,0.005 -0.482785,-0.307583 -1.304287,-0.329079 L 63.47028,21.846322 54.361576,37.264105 c -6.081214,-0.433921 -3.593562,0.09048 -8.811528,-1.367252 z"
       id="path5977"
       sodipodi:nodetypes="ccccccc"
       inkscape:connector-curvature="0" />
    <path
       style="opacity:0.48235294;fill:#c4a000;fill-rule:evenodd;stroke:none"
       d="m 51.196877,-20.700188 c -3.475271,1.710937 -5.72425,4.239397 -8.280464,6.563036 3.404466,-1.967042 6.603556,-4.022099 11.10196,-5.520313 l -2.821496,-1.042723 z"
       id="path5995"
       sodipodi:nodetypes="cccc"
       inkscape:connector-curvature="0" />
    <path
       style="opacity:0.48235294;fill:#c4a000;fill-rule:evenodd;stroke:none"
       d="m 56.76408,-19.449412 -2.82149,5.52031 8.273823,-4.408643 -5.452333,-1.111667 z"
       id="path5997"
       sodipodi:nodetypes="cccc"
       inkscape:connector-curvature="0" />
    <path
       style="opacity:0.48235294;fill:#c4a000;fill-rule:evenodd;stroke:none"
       d="m 56.572848,-33.604951 -2.484864,4.738328 4.346123,1.393679 -1.861259,-6.132007 z"
       id="path6007"
       sodipodi:nodetypes="cccc"
       inkscape:connector-curvature="0" />
    <path
       style="opacity:0.48235294;fill:#c4a000;fill-rule:evenodd;stroke:none"
       d="m 75.957409,-28.264419 -6.829123,5.094809 4.346125,1.393678 2.482998,-6.488487 z"
       id="path6009"
       sodipodi:nodetypes="cccc"
       inkscape:connector-curvature="0" />
    <path
       style="opacity:0.48235294;fill:#c4a000;fill-rule:evenodd;stroke:none"
       d="m 65.103171,-33.668331 -4.202292,7.00779 4.346123,1.393677 -0.143851,-8.401467 z"
       id="path6011"
       sodipodi:nodetypes="cccc"
       inkscape:connector-curvature="0" />
    <path
       style="opacity:0.2;fill:#000000;fill-opacity:1;fill-rule:evenodd;stroke:none"
       d="m 45.547205,-22.3261 c -1.57326,-8.231549 25.905956,5.975998 30.63586,8.311728 -0.01794,2.995262 0,5.551573 -2.711442,5.551573 -7.126936,-3.866615 -18.14047,-10.007105 -27.924418,-13.863301 z"
       id="path6013"
       sodipodi:nodetypes="cccc"
       inkscape:connector-curvature="0" />
    <path
       style="fill:url(#linearGradient5980);fill-opacity:1;fill-rule:evenodd;stroke:#5c3566;stroke-width:2.77578616px;stroke-linecap:butt;stroke-linejoin:round;stroke-opacity:1"
       d="m 44.665635,-23.782551 c -1.355722,-2.775787 0,-5.551573 2.711443,-5.551573 11.079385,2.707548 20.332289,6.124028 29.825858,11.103145 1.355721,2.775787 0,5.551573 -2.711442,5.551573 -9.80947,-5.175232 -19.060521,-8.535024 -29.825859,-11.103145 z"
       id="path5373"
       sodipodi:nodetypes="ccccc"
       inkscape:connector-curvature="0" />
  </g>
</svg>
