<?xml version="1.0" encoding="UTF-8" standalone="no"?>
<!-- Created with Inkscape (http://www.inkscape.org/) -->

<svg
   xmlns:dc="http://purl.org/dc/elements/1.1/"
   xmlns:cc="http://creativecommons.org/ns#"
   xmlns:rdf="http://www.w3.org/1999/02/22-rdf-syntax-ns#"
   xmlns:svg="http://www.w3.org/2000/svg"
   xmlns="http://www.w3.org/2000/svg"
   xmlns:xlink="http://www.w3.org/1999/xlink"
   xmlns:sodipodi="http://sodipodi.sourceforge.net/DTD/sodipodi-0.dtd"
   xmlns:inkscape="http://www.inkscape.org/namespaces/inkscape"
   inkscape:export-ydpi="90.000000"
   inkscape:export-xdpi="90.000000"
   inkscape:export-filename="/home/jimmac/Desktop/wi-fi.png"
   width="128"
   height="128"
   id="svg11300"
   sodipodi:version="0.32"
   inkscape:version="0.48.1 r9760"
   sodipodi:docname="tomboy.svg"
   inkscape:output_extension="org.inkscape.output.svg.inkscape"
   sodipodi:modified="true"
   version="1.1">
  <defs
     id="defs3">
    <linearGradient
       id="linearGradient2994">
      <stop
         id="stop2996"
         offset="0"
         style="stop-color:#000000;stop-opacity:1;" />
      <stop
         id="stop2998"
         offset="1"
         style="stop-color:#c9c9c9;stop-opacity:1;" />
    </linearGradient>
    <linearGradient
       inkscape:collect="always"
       xlink:href="#linearGradient2994"
       id="linearGradient2560"
       gradientUnits="userSpaceOnUse"
       gradientTransform="translate(-5.825542,0.125)"
       x1="25.71875"
       y1="31.046875"
       x2="25.514589"
       y2="30.703125" />
    <linearGradient
       id="linearGradient2984"
       inkscape:collect="always">
      <stop
         id="stop2986"
         offset="0"
         style="stop-color:#e7e2b8;stop-opacity:1;" />
      <stop
         id="stop2988"
         offset="1"
         style="stop-color:#e7e2b8;stop-opacity:0;" />
    </linearGradient>
    <radialGradient
       inkscape:collect="always"
       xlink:href="#linearGradient2984"
       id="radialGradient2558"
       gradientUnits="userSpaceOnUse"
       gradientTransform="matrix(2.923565,0,0,2.029717,-61.55532,-27.88417)"
       cx="29.053354"
       cy="27.640751"
       fx="29.053354"
       fy="27.640751"
       r="3.2408545" />
    <linearGradient
       id="linearGradient2974">
      <stop
         id="stop2976"
         offset="0"
         style="stop-color:#c1c1c1;stop-opacity:1;" />
      <stop
         id="stop2978"
         offset="1"
         style="stop-color:#acacac;stop-opacity:1;" />
    </linearGradient>
    <linearGradient
       inkscape:collect="always"
       xlink:href="#linearGradient2974"
       id="linearGradient2556"
       gradientUnits="userSpaceOnUse"
       gradientTransform="translate(-5.669292,0)"
       x1="46"
       y1="19.8125"
       x2="47.6875"
       y2="22.625" />
    <linearGradient
       id="linearGradient2966">
      <stop
         id="stop2968"
         offset="0"
         style="stop-color:#ffd1d1;stop-opacity:1;" />
      <stop
         style="stop-color:#ff1d1d;stop-opacity:1;"
         offset="0.5"
         id="stop3006" />
      <stop
         id="stop2970"
         offset="1"
         style="stop-color:#6f0000;stop-opacity:1;" />
    </linearGradient>
    <linearGradient
       inkscape:collect="always"
       xlink:href="#linearGradient2966"
       id="linearGradient2554"
       gradientUnits="userSpaceOnUse"
       gradientTransform="translate(-5.669292,0)"
       x1="48.90625"
       y1="17.376184"
       x2="50.988335"
       y2="22.250591" />
    <radialGradient
       inkscape:collect="always"
       xlink:href="#linearGradient2865"
       id="radialGradient2552"
       gradientUnits="userSpaceOnUse"
       gradientTransform="matrix(1,0,0,0.348243,0,26.35543)"
       cx="23.5625"
       cy="40.4375"
       fx="23.5625"
       fy="40.4375"
       r="19.5625" />
    <linearGradient
       inkscape:collect="always"
       id="linearGradient6417">
      <stop
         style="stop-color:black;stop-opacity:1;"
         offset="0"
         id="stop6419" />
      <stop
         style="stop-color:black;stop-opacity:0;"
         offset="1"
         id="stop6421" />
    </linearGradient>
    <linearGradient
       inkscape:collect="always"
       id="linearGradient6407">
      <stop
         style="stop-color:white;stop-opacity:1;"
         offset="0"
         id="stop6409" />
      <stop
         style="stop-color:white;stop-opacity:0;"
         offset="1"
         id="stop6411" />
    </linearGradient>
    <linearGradient
       id="linearGradient6377">
      <stop
         style="stop-color:#fff27e;stop-opacity:1;"
         offset="0"
         id="stop6379" />
      <stop
         style="stop-color:#edd400;stop-opacity:1;"
         offset="1"
         id="stop6381" />
    </linearGradient>
    <linearGradient
       inkscape:collect="always"
       id="linearGradient5609">
      <stop
         style="stop-color:white;stop-opacity:1;"
         offset="0"
         id="stop5611" />
      <stop
         style="stop-color:white;stop-opacity:0;"
         offset="1"
         id="stop5613" />
    </linearGradient>
    <linearGradient
       inkscape:collect="always"
       id="linearGradient2865">
      <stop
         style="stop-color:#000000;stop-opacity:1;"
         offset="0"
         id="stop2867" />
      <stop
         style="stop-color:#000000;stop-opacity:0;"
         offset="1"
         id="stop2869" />
    </linearGradient>
    <linearGradient
       inkscape:collect="always"
       xlink:href="#linearGradient5609"
       id="linearGradient5615"
       x1="26.213203"
       y1="14.08672"
       x2="26.130388"
       y2="67.031342"
       gradientUnits="userSpaceOnUse"
       gradientTransform="matrix(2.8167485,0,0,2.8167485,-4.7645488,-83.327227)" />
    <radialGradient
       inkscape:collect="always"
       xlink:href="#linearGradient6377"
       id="radialGradient6405"
       gradientUnits="userSpaceOnUse"
       gradientTransform="matrix(4.7031588,0,4.7953763e-8,3.4377965,-89.936629,-116.56283)"
       cx="45.150326"
       cy="35.915409"
       fx="45.150326"
       fy="35.915409"
       r="21.626934" />
    <radialGradient
       inkscape:collect="always"
       xlink:href="#linearGradient6407"
       id="radialGradient6413"
       cx="43.875"
       cy="35.90107"
       fx="43.875"
       fy="35.90107"
       r="20.21875"
       gradientTransform="matrix(30.653406,-1.8181678e-7,0,32.103525,-1226.0977,-1157.5819)"
       gradientUnits="userSpaceOnUse" />
    <radialGradient
       inkscape:collect="always"
       xlink:href="#linearGradient6417"
       id="radialGradient6423"
       cx="39.907337"
       cy="31.780704"
       fx="39.907337"
       fy="31.780704"
       r="5.2591066"
       gradientTransform="matrix(2.8167485,0,0,1.017818,-4.7645488,-20.522355)"
       gradientUnits="userSpaceOnUse" />
  </defs>
  <sodipodi:namedview
     stroke="#c4a000"
     fill="#edd400"
     id="base"
     pagecolor="#ffffff"
     bordercolor="#666666"
     borderopacity="0.25490196"
     inkscape:pageopacity="0.0"
     inkscape:pageshadow="2"
     inkscape:zoom="6.7578125"
     inkscape:cx="64"
     inkscape:cy="64"
     inkscape:current-layer="layer1"
     showgrid="false"
     inkscape:grid-bbox="true"
     inkscape:document-units="px"
     inkscape:showpageshadow="false"
     inkscape:window-width="1154"
     inkscape:window-height="1053"
     inkscape:window-x="297"
     inkscape:window-y="52"
     inkscape:window-maximized="0" />
  <metadata
     id="metadata4">
    <rdf:RDF>
      <cc:Work
         rdf:about="">
        <dc:format>image/svg+xml</dc:format>
        <dc:type
           rdf:resource="http://purl.org/dc/dcmitype/StillImage" />
        <dc:creator>
          <cc:Agent>
            <dc:title>Jakub Steiner</dc:title>
          </cc:Agent>
        </dc:creator>
        <dc:source>http://jimmac.musichall.cz</dc:source>
        <cc:license
           rdf:resource="http://creativecommons.org/licenses/GPL/2.0/" />
        <dc:title>Tomboy</dc:title>
      </cc:Work>
      <cc:License
         rdf:about="http://creativecommons.org/licenses/GPL/2.0/">
        <cc:permits
           rdf:resource="http://web.resource.org/cc/Reproduction" />
        <cc:permits
           rdf:resource="http://web.resource.org/cc/Distribution" />
        <cc:requires
           rdf:resource="http://web.resource.org/cc/Notice" />
        <cc:permits
           rdf:resource="http://web.resource.org/cc/DerivativeWorks" />
        <cc:requires
           rdf:resource="http://web.resource.org/cc/ShareAlike" />
        <cc:requires
           rdf:resource="http://web.resource.org/cc/SourceCode" />
      </cc:License>
    </rdf:RDF>
  </metadata>
  <g
     id="layer1"
     inkscape:label="Layer 1"
     inkscape:groupmode="layer"
     transform="translate(0,80)">
    <g
       style="display:inline"
       transform="matrix(0.5952381,0,0,0.59084679,-5.6849862,-73.402354)"
       id="g1197">
      <path
         d="m 32.706693,164.36026 c -10.3875,0 -18.75,8.3625 -18.75,18.75 0,10.3875 8.3625,18.75 18.75,18.75 l 172.499997,0 c 10.3875,0 18.75,-8.3625 18.75,-18.75 0,-10.3875 -8.3625,-18.75 -18.75,-18.75 l -172.499997,0 z"
         style="opacity:0.04787233;fill-rule:evenodd;stroke-width:3pt"
         id="path1196"
         inkscape:connector-curvature="0" />
      <path
         d="m 32.706693,165.61026 c -9.695,0 -17.5,7.805 -17.5,17.5 0,9.695 7.805,17.5 17.5,17.5 l 172.499997,0 c 9.695,0 17.5,-7.805 17.5,-17.5 0,-9.695 -7.805,-17.5 -17.5,-17.5 l -172.499997,0 z"
         style="opacity:0.04787233;fill-rule:evenodd;stroke-width:3pt"
         id="path1195"
         inkscape:connector-curvature="0" />
      <path
         d="m 32.706694,166.86026 c -9.0025,0 -16.25,7.2475 -16.25,16.25 0,9.0025 7.2475,16.25 16.25,16.25 l 172.499996,0 c 9.0025,0 16.25,-7.2475 16.25,-16.25 0,-9.0025 -7.2475,-16.25 -16.25,-16.25 l -172.499996,0 z"
         style="opacity:0.04787233;fill-rule:evenodd;stroke-width:3pt"
         id="path1194"
         inkscape:connector-curvature="0" />
      <path
         d="m 32.706694,168.11026 c -8.31,0 -15,6.69 -15,15 0,8.31 6.69,15 15,15 l 172.499996,0 c 8.31,0 15,-6.69 15,-15 0,-8.31 -6.69,-15 -15,-15 l -172.499996,0 z"
         style="opacity:0.04787233;fill-rule:evenodd;stroke-width:3pt"
         id="path1193"
         inkscape:connector-curvature="0" />
      <path
         d="m 32.707764,169.36026 c -7.6175,0 -13.75,6.1325 -13.75,13.75 0,7.6175 6.1325,13.75 13.75,13.75 l 172.498416,0 c 7.6175,0 13.75,-6.1325 13.75,-13.75 0,-7.6175 -6.1325,-13.75 -13.75,-13.75 l -172.498416,0 z"
         style="opacity:0.04787233;fill-rule:evenodd;stroke-width:3pt"
         id="path1192"
         inkscape:connector-curvature="0" />
      <path
         d="m 32.706694,170.61026 c -6.925,0 -12.5,5.575 -12.5,12.5 0,6.925 5.575,12.5 12.5,12.5 l 172.499996,0 c 6.925,0 12.5,-5.575 12.5,-12.5 0,-6.925 -5.575,-12.5 -12.5,-12.5 l -172.499996,0 z"
         style="opacity:0.04787233;fill-rule:evenodd;stroke-width:3pt"
         id="path1191"
         inkscape:connector-curvature="0" />
      <path
         d="m 32.706694,171.86026 c -6.2325,0 -11.25,5.0175 -11.25,11.25 0,6.2325 5.0175,11.25 11.25,11.25 l 172.499996,0 c 6.2325,0 11.25,-5.0175 11.25,-11.25 0,-6.2325 -5.0175,-11.25 -11.25,-11.25 l -172.499996,0 z"
         style="opacity:0.04787233;fill-rule:evenodd;stroke-width:3pt"
         id="path1190"
         inkscape:connector-curvature="0" />
      <path
         d="m 32.706694,173.11026 c -5.54,0 -10,4.46 -10,10 0,5.54 4.46,10 10,10 l 172.499996,0 c 5.54,0 10,-4.46 10,-10 0,-5.54 -4.46,-10 -10,-10 l -172.499996,0 z"
         style="opacity:0.04787233;fill-rule:evenodd;stroke-width:3pt"
         id="path1189"
         inkscape:connector-curvature="0" />
    </g>
    <path
       style="color:#000000;fill:#edd400;fill-opacity:1;fill-rule:evenodd;stroke:#c4a000;stroke-width:2.8167479;stroke-linecap:butt;stroke-linejoin:miter;stroke-miterlimit:4;stroke-opacity:1;stroke-dashoffset:0;marker:none;visibility:visible;display:inline;overflow:visible"
       d="m 24.25205,-42.213946 80.69774,0.99587 c 2.14799,0 3.50378,1.624266 3.87723,3.362738 0,0 12.39744,55.814277 12.39744,55.814277 0,0 0.0351,17.879654 0.0351,17.879654 0,1.862958 -1.72924,3.362739 -3.87723,3.362739 l -105.562806,0 c -2.1479924,0 -3.8772379,-1.499781 -3.8772379,-3.362739 L 7.9108191,18.467942 20.374819,-38.851208 c 0.871387,-1.862958 1.729246,-3.362738 3.877231,-3.362738 z"
       id="rect1975"
       sodipodi:nodetypes="ccccccccccc"
       inkscape:connector-curvature="0" />
    <rect
       style="opacity:0.37078654;color:#000000;fill:#f57900;fill-opacity:1;fill-rule:evenodd;stroke:none;stroke-width:1;marker:none;visibility:visible;display:inline;overflow:visible"
       id="rect2851"
       width="109.98861"
       height="19.918623"
       x="9.6420498"
       y="17.957148"
       rx="1.9136387"
       ry="1.9136387" />
    <path
       style="opacity:0.16292138;color:#000000;fill:#ffffff;fill-opacity:1;fill-rule:evenodd;stroke:none;stroke-width:1;marker:none;visibility:visible;display:inline;overflow:visible"
       d="m 9.5004043,19.57544 c 0,0 0.4249397,-1.493807 1.9830527,-1.61829 l 105.810033,0 c 2.1247,0 2.26635,2.116226 2.26635,2.116226 0,0 0.0665,-4.56193 -3.61634,-4.56193 l -102.563123,0 C 10.547445,15.760419 9.5004043,17.70818 9.5004043,19.57544 z"
       id="path2853"
       sodipodi:nodetypes="ccccccc"
       inkscape:connector-curvature="0" />
    <path
       style="opacity:0.4831461;color:#000000;fill:none;stroke:url(#linearGradient5615);stroke-width:2.8167479;stroke-linecap:butt;stroke-linejoin:miter;stroke-miterlimit:4;stroke-opacity:1;stroke-dashoffset:0;marker:none;visibility:visible;display:inline;overflow:visible"
       d="m 24.28317,-39.403555 c -0.426219,0 -0.280154,-0.07532 -0.440117,0.08802 -0.143316,0.14633 -0.438881,0.774845 -0.792211,1.496398 -0.04106,0.08385 -0.04559,0.08532 -0.08802,0.176047 l -12.235251,56.070899 0,0.176047 0,17.252584 c 0,0.124134 0.203842,0.52814 1.05628,0.52814 l 105.628069,0 c 0.85243,0 1.05628,-0.404003 1.05628,-0.52814 0,0 -0.0855,-17.092444 -0.088,-17.604678 -7e-4,-0.0031 0.001,-0.258662 0,-0.26407 -0.26362,-1.185395 -12.32327,-55.190666 -12.32327,-55.190666 -0.15929,-0.741506 -0.47765,-1.232327 -1.14431,-1.232327 l -80.629417,-0.968257 z"
       id="path4730"
       inkscape:connector-curvature="0" />
    <path
       style="opacity:0.46629214;color:#000000;fill:url(#radialGradient6423);fill-opacity:1;fill-rule:evenodd;stroke:none;stroke-width:1;marker:none;visibility:visible;display:inline;overflow:visible"
       d="M 119.71932,17.177423 C 118.65087,13.641477 117.22964,6.4718102 117.22964,6.4718102 L 92.083905,15.43465 c 16.182905,0 24.149865,-0.746903 27.635415,1.742773 z"
       id="path6415"
       sodipodi:nodetypes="cccc"
       inkscape:connector-curvature="0" />
    <path
       sodipodi:nodetypes="cczczcccc"
       id="path2524"
       d="M 19.975571,-37.057725 8.3287952,13.726219 c 0,0 60.4801178,0.352097 82.4619378,0.352097 22.479257,0 31.421017,-8.361293 31.421017,-8.361293 0,0 -2.83574,-1.2773616 -6.54925,-13.9900037 0,0 -6.77085,-29.5769543 -6.77085,-29.5769543 -1.3054,-3.341794 -2.41172,-4.686138 -4.94731,-4.66524 l -78.252796,0 c -4.916,0.09039 -4.891055,2.35354 -5.715973,5.45745 z"
       style="fill:url(#radialGradient6405);fill-opacity:1;fill-rule:evenodd;stroke:#c4a000;stroke-width:2.81674743px;stroke-linecap:butt;stroke-linejoin:miter;stroke-opacity:1"
       inkscape:connector-curvature="0" />
    <path
       style="opacity:0.46629214;fill:none;stroke:url(#radialGradient6413);stroke-width:2.81674743px;stroke-linecap:butt;stroke-linejoin:miter;stroke-opacity:1"
       d="m 25.691544,-39.667625 c -1.803533,0.05135 -1.995094,0.281083 -2.112561,0.440116 -0.122163,0.1654 -0.422718,1.183283 -0.880234,2.904772 L 11.871872,10.945824 c 4.772799,0.0276 57.94233,0.352093 78.95698,0.352093 10.890358,0 18.357538,-2.0120089 23.062128,-3.9610523 2.96906,-1.2300375 3.13596,-1.6253456 4.04908,-2.2886082 -1.38198,-2.2249637 -3.11263,-5.97882183 -5.01734,-12.4993213 -0.002,-0.058673 -0.002,-0.1173739 0,-0.1760468 0,0 -6.49522,-28.2867714 -6.68977,-29.1357424 -0.60275,-1.54302 -1.07571,-2.396385 -1.32036,-2.640701 -0.24463,-0.244325 -0.20153,-0.27038 -0.96825,-0.26407 l -78.164773,0 -0.08802,0 z"
       id="path6403"
       inkscape:connector-curvature="0" />
    <path
       sodipodi:nodetypes="ccccccc"
       id="path6359"
       d="m 9.5004043,25.208937 c 0,0 0.4249397,-1.493807 1.9830527,-1.61829 l 105.810033,0 c 2.1247,0 2.26635,2.116226 2.26635,2.116226 0,0 0.0665,-4.56193 -3.61634,-4.56193 l -102.563123,0 c -2.832932,0.248973 -3.8799727,2.196734 -3.8799727,4.063994 z"
       style="opacity:0.26404497;color:#000000;fill:#ffffff;fill-opacity:1;fill-rule:evenodd;stroke:none;stroke-width:1;marker:none;visibility:visible;display:inline;overflow:visible"
       inkscape:connector-curvature="0" />
    <path
       style="opacity:0.26404497;color:#000000;fill:#ffffff;fill-opacity:1;fill-rule:evenodd;stroke:none;stroke-width:1;marker:none;visibility:visible;display:inline;overflow:visible"
       d="m 9.5004043,30.842433 c 0,0 0.4249397,-1.493806 1.9830527,-1.618289 l 105.810033,0 c 2.1247,0 2.26635,2.116226 2.26635,2.116226 0,0 0.0665,-4.56193 -3.61634,-4.56193 l -102.563123,0 c -2.832932,0.248972 -3.8799727,2.196734 -3.8799727,4.063993 z"
       id="path6361"
       sodipodi:nodetypes="ccccccc"
       inkscape:connector-curvature="0" />
    <path
       sodipodi:nodetypes="ccccccc"
       id="path6363"
       d="m 9.5004043,36.47593 c 0,0 0.4249397,-1.493806 1.9830527,-1.618289 l 105.810033,0 c 2.1247,0 2.26635,2.116226 2.26635,2.116226 0,0 0.0665,-4.56193 -3.61634,-4.56193 l -102.563123,0 c -2.832932,0.248972 -3.8799727,2.196734 -3.8799727,4.063993 z"
       style="opacity:0.26404497;color:#000000;fill:#ffffff;fill-opacity:1;fill-rule:evenodd;stroke:none;stroke-width:1;marker:none;visibility:visible;display:inline;overflow:visible"
       inkscape:connector-curvature="0" />
    <path
       inkscape:r_cy="true"
       inkscape:r_cx="true"
       transform="matrix(1.7368437,0,0,0.82693257,27.594708,-42.122478)"
       d="m 43.125,40.4375 a 19.5625,6.8125 0 1 1 -39.125,0 19.5625,6.8125 0 1 1 39.125,0 z"
       sodipodi:ry="6.8125"
       sodipodi:rx="19.5625"
       sodipodi:cy="40.4375"
       sodipodi:cx="23.5625"
       id="path3008"
       style="opacity:0.2;color:#000000;fill:url(#radialGradient2552);fill-opacity:1;fill-rule:evenodd;stroke:none;stroke-width:1;marker:none;visibility:visible;display:inline;overflow:visible"
       sodipodi:type="arc" />
    <g
       style="display:inline"
       id="g1574"
       transform="matrix(2.9116701,-0.78018017,0.78018017,2.9116701,36.974819,-165.14878)"
       inkscape:r_cx="true"
       inkscape:r_cy="true">
      <path
         transform="translate(-29.75546,19)"
         sodipodi:nodetypes="cccccc"
         id="path2960"
         d="m 17.34116,32.5 5.625,-5.625 20.093749,-9.75 c 3.25,-1.25 5.1875,3.375 2.3125,5 L 25.34116,31.5 l -8,1 z"
         style="color:#000000;fill:#cb9022;fill-opacity:1;fill-rule:evenodd;stroke:#5c410c;stroke-width:0.93443578;stroke-linecap:butt;stroke-linejoin:miter;stroke-miterlimit:4;stroke-opacity:1;stroke-dasharray:none;stroke-dashoffset:0;marker:none;visibility:visible;display:inline;overflow:visible"
         inkscape:r_cx="true"
         inkscape:r_cy="true"
         inkscape:connector-curvature="0" />
      <path
         transform="translate(-29.75546,19)"
         style="color:#000000;fill:url(#linearGradient2554);fill-opacity:1;fill-rule:evenodd;stroke:none;stroke-width:1;marker:none;visibility:visible;display:inline;overflow:visible"
         d="m 38.330708,20 c 0,0 1.4375,0.09375 2,1.34375 0.579493,1.287761 0,2.65625 0,2.65625 l 5.03125,-2.46875 c 0,0 1.452032,-0.881367 0.65625,-2.84375 -0.784912,-1.935577 -2.6875,-1.15625 -2.6875,-1.15625 l -5,2.46875 z"
         id="path2964"
         sodipodi:nodetypes="czcczcc"
         inkscape:r_cx="true"
         inkscape:r_cy="true"
         inkscape:connector-curvature="0" />
      <path
         transform="translate(-29.75546,19)"
         sodipodi:nodetypes="czcczcc"
         id="path2962"
         d="m 38.330708,20 c 0,0 1.4375,0.09375 2,1.34375 0.579493,1.287761 0,2.65625 0,2.65625 l 2,-1 c 0,0 0.827032,-1.318867 0.21875,-2.6875 C 41.924458,18.90625 40.330708,19 40.330708,19 l -2,1 z"
         style="color:#000000;fill:url(#linearGradient2556);fill-opacity:1;fill-rule:evenodd;stroke:none;stroke-width:1;marker:none;visibility:visible;display:inline;overflow:visible"
         inkscape:r_cx="true"
         inkscape:r_cy="true"
         inkscape:connector-curvature="0" />
      <path
         transform="translate(-29.75546,19)"
         sodipodi:nodetypes="cccc"
         id="path2982"
         d="m 18.768208,31.78125 4.5,-4.5 c 1.5,0.8125 2.28125,2.15625 1.875,3.71875 l -6.375,0.78125 z"
         style="color:#000000;fill:url(#radialGradient2558);fill-opacity:1;fill-rule:evenodd;stroke:none;stroke-width:1;marker:none;visibility:visible;display:inline;overflow:visible"
         inkscape:r_cx="true"
         inkscape:r_cy="true"
         inkscape:connector-curvature="0" />
      <path
         transform="translate(-29.75546,19)"
         sodipodi:nodetypes="cccc"
         id="path2992"
         d="m 20.111958,30.375 -1.625,1.59375 2.34375,-0.3125 c 0.21875,-0.71875 -0.1875,-1.0625 -0.71875,-1.28125 z"
         style="color:#000000;fill:url(#linearGradient2560);fill-opacity:1;fill-rule:evenodd;stroke:none;stroke-width:1;marker:none;visibility:visible;display:inline;overflow:visible"
         inkscape:r_cx="true"
         inkscape:r_cy="true"
         inkscape:connector-curvature="0" />
      <path
         transform="translate(-29.75546,19)"
         sodipodi:nodetypes="ccccc"
         id="path3002"
         d="m 23.268208,27.25 1.5625,1.25 15.38734,-7.31867 C 39.773616,20.325286 38.976281,20.096733 38.314669,20.019068 L 23.268208,27.25 z"
         style="color:#000000;fill:#ffffff;fill-opacity:0.36363639;fill-rule:evenodd;stroke:none;stroke-width:1;marker:none;visibility:visible;display:inline;overflow:visible"
         inkscape:r_cx="true"
         inkscape:r_cy="true"
         inkscape:connector-curvature="0" />
      <path
         transform="translate(-29.75546,19)"
         sodipodi:nodetypes="ccccc"
         id="path3004"
         d="m 25.143208,31.0625 0.1875,-0.75 15.23109,-7.1296 c 0,0 -0.11016,0.613627 -0.215879,0.74935 L 25.143208,31.0625 z"
         style="color:#000000;fill:#000000;fill-opacity:0.36363639;fill-rule:evenodd;stroke:none;stroke-width:1;marker:none;visibility:visible;display:inline;overflow:visible"
         inkscape:r_cx="true"
         inkscape:r_cy="true"
         inkscape:connector-curvature="0" />
    </g>
  </g>
</svg>
