<?xml version="1.0" encoding="UTF-8" standalone="no"?>
<!-- Created with Inkscape (http://www.inkscape.org/) -->

<svg
   xmlns:dc="http://purl.org/dc/elements/1.1/"
   xmlns:cc="http://creativecommons.org/ns#"
   xmlns:rdf="http://www.w3.org/1999/02/22-rdf-syntax-ns#"
   xmlns:svg="http://www.w3.org/2000/svg"
   xmlns="http://www.w3.org/2000/svg"
   xmlns:sodipodi="http://sodipodi.sourceforge.net/DTD/sodipodi-0.dtd"
   xmlns:inkscape="http://www.inkscape.org/namespaces/inkscape"
   width="700"
   height="700"
   id="svg3162"
   version="1.1"
   inkscape:version="0.48.4 r9939"
   sodipodi:docname="totem.svg">
  <defs
     id="defs3164">
    <filter
       color-interpolation-filters="sRGB"
       id="filter3869">
      <feGaussianBlur
         id="feGaussianBlur3871"
         stdDeviation="3.39" />
    </filter>
  </defs>
  <sodipodi:namedview
     id="base"
     pagecolor="#ffffff"
     bordercolor="#666666"
     borderopacity="1.0"
     inkscape:pageopacity="0.0"
     inkscape:pageshadow="2"
     inkscape:zoom="0.35"
     inkscape:cx="375"
     inkscape:cy="520"
     inkscape:document-units="px"
     inkscape:current-layer="layer1"
     showgrid="false"
     inkscape:window-width="1095"
     inkscape:window-height="1028"
     inkscape:window-x="742"
     inkscape:window-y="24"
     inkscape:window-maximized="0" />
  <metadata
     id="metadata3167">
    <rdf:RDF>
      <cc:Work
         rdf:about="">
        <dc:format>image/svg+xml</dc:format>
        <dc:type
           rdf:resource="http://purl.org/dc/dcmitype/StillImage" />
        <dc:title></dc:title>
      </cc:Work>
    </rdf:RDF>
  </metadata>
  <g
     inkscape:label="Livello 1"
     inkscape:groupmode="layer"
     id="layer1"
     transform="translate(0,-352.36218)">
    <g
       id="layer4"
       transform="matrix(2.8893145,0,0,2.8893145,-389.66451,81.159568)">
      <path
         id="path4240"
         style="text-indent:0;text-transform:none;block-progression:tb;opacity:0.5;color:#000000;filter:url(#filter3869)"
         d="m 256,102 c -62.325,0 -113,50.675 -113,113 0,62.325 50.675,113 113,113 62.325,0 113,-50.675 113,-113 0,-62.325 -50.675,-113 -113,-113 z m 0,14 c 54.759,0 99,44.241 99,99 0,54.759 -44.241,99 -99,99 -54.759,0 -99,-44.241 -99,-99 0,-54.759 44.241,-99 99,-99 z m -35.688,35.875 c -0.43215,0.039 -0.79815,0.15032 -1.0625,0.3125 -8.4591,5.1898 -8.4591,124.56 0,129.75 8.4591,5.1898 105.75,-54.495 105.75,-64.875 0,-10.055 -91.291,-66.395 -104.69,-65.188 z"
         inkscape:connector-curvature="0" />
      <path
         id="path4029"
         style="text-indent:0;text-transform:none;block-progression:tb;color:#000000;fill:#ffffff"
         d="m 256,102 c -62.325,0 -113,50.675 -113,113 0,62.325 50.675,113 113,113 62.325,0 113,-50.675 113,-113 0,-62.325 -50.675,-113 -113,-113 z m 0,14 c 54.759,0 99,44.241 99,99 0,54.759 -44.241,99 -99,99 -54.759,0 -99,-44.241 -99,-99 0,-54.759 44.241,-99 99,-99 z m -35.688,35.875 c -0.43215,0.039 -0.79815,0.15032 -1.0625,0.3125 -8.4591,5.1898 -8.4591,124.56 0,129.75 8.4591,5.1898 105.75,-54.495 105.75,-64.875 0,-10.055 -91.291,-66.395 -104.69,-65.188 z"
         inkscape:connector-curvature="0" />
    </g>
  </g>
</svg>
