<?xml version="1.0" encoding="UTF-8" standalone="no"?>
<!-- Created with Inkscape (http://www.inkscape.org/) -->

<svg
   xmlns:dc="http://purl.org/dc/elements/1.1/"
   xmlns:cc="http://creativecommons.org/ns#"
   xmlns:rdf="http://www.w3.org/1999/02/22-rdf-syntax-ns#"
   xmlns:svg="http://www.w3.org/2000/svg"
   xmlns="http://www.w3.org/2000/svg"
   xmlns:xlink="http://www.w3.org/1999/xlink"
   xmlns:sodipodi="http://sodipodi.sourceforge.net/DTD/sodipodi-0.dtd"
   xmlns:inkscape="http://www.inkscape.org/namespaces/inkscape"
   version="1.1"
   width="128"
   height="128"
   id="svg4207"
   inkscape:version="0.48.4 r9939"
   sodipodi:docname="system-software-installer.svg">
  <sodipodi:namedview
     pagecolor="#ffffff"
     bordercolor="#666666"
     borderopacity="1"
     objecttolerance="10"
     gridtolerance="10"
     guidetolerance="10"
     inkscape:pageopacity="0"
     inkscape:pageshadow="2"
     inkscape:window-width="1855"
     inkscape:window-height="1056"
     id="namedview63"
     showgrid="true"
     inkscape:zoom="7.21875"
     inkscape:cx="64"
     inkscape:cy="64"
     inkscape:window-x="65"
     inkscape:window-y="24"
     inkscape:window-maximized="1"
     inkscape:current-layer="layer1">
    <inkscape:grid
       type="xygrid"
       id="grid3051" />
  </sodipodi:namedview>
  <defs
     id="defs4209">
    <linearGradient
       x1="19.874987"
       y1="44.520065"
       x2="19.874987"
       y2="5.2502403"
       id="linearGradient3212-5"
       xlink:href="#linearGradient3707-319-631-407-1-846-4-2"
       gradientUnits="userSpaceOnUse"
       gradientTransform="matrix(2.6410259,0,0,2.6410259,0.6153933,-63.025638)" />
    <linearGradient
       id="linearGradient3707-319-631-407-1-846-4-2">
      <stop
         id="stop3788-5-54"
         style="stop-color:#365a7c;stop-opacity:1"
         offset="0" />
      <stop
         id="stop3790-9-7"
         style="stop-color:#5ea1ca;stop-opacity:1"
         offset="1" />
    </linearGradient>
    <linearGradient
       x1="19.874987"
       y1="44.520065"
       x2="19.874987"
       y2="5.2502403"
       id="linearGradient3215-4"
       xlink:href="#linearGradient3707-319-631-407-1-846-4-8-4"
       gradientUnits="userSpaceOnUse"
       gradientTransform="matrix(2.6410259,0,0,2.6410259,0.6153933,-63.025638)" />
    <linearGradient
       id="linearGradient3707-319-631-407-1-846-4-8-4">
      <stop
         id="stop3788-5-5-3"
         style="stop-color:#365a7c;stop-opacity:1"
         offset="0" />
      <stop
         id="stop3790-9-0-0"
         style="stop-color:#5ea1ca;stop-opacity:1"
         offset="1" />
    </linearGradient>
    <linearGradient
       x1="16.626165"
       y1="15.298182"
       x2="20.054544"
       y2="24.627615"
       id="linearGradient3221"
       xlink:href="#linearGradient8265-821-176-38-919-66-249-7-7"
       gradientUnits="userSpaceOnUse"
       gradientTransform="matrix(2.2144204,0,0,3.4699564,10.750311,-67.821123)" />
    <linearGradient
       id="linearGradient8265-821-176-38-919-66-249-7-7">
      <stop
         id="stop2687-1-9"
         style="stop-color:#ffffff;stop-opacity:1"
         offset="0" />
      <stop
         id="stop2689-5-4"
         style="stop-color:#ffffff;stop-opacity:0"
         offset="1" />
    </linearGradient>
    <linearGradient
       x1="23.99999"
       y1="4.999989"
       x2="23.99999"
       y2="43"
       id="linearGradient3224"
       xlink:href="#linearGradient3924"
       gradientUnits="userSpaceOnUse"
       gradientTransform="matrix(2.7297298,0,0,2.7297298,-1.5135112,-62.513486)" />
    <linearGradient
       id="linearGradient3924">
      <stop
         id="stop3926"
         style="stop-color:#ffffff;stop-opacity:1"
         offset="0" />
      <stop
         id="stop3928"
         style="stop-color:#ffffff;stop-opacity:0.23529412"
         offset="0.06316455" />
      <stop
         id="stop3930"
         style="stop-color:#ffffff;stop-opacity:0.15686275"
         offset="0.95056331" />
      <stop
         id="stop3932"
         style="stop-color:#ffffff;stop-opacity:0.39215687"
         offset="1" />
    </linearGradient>
    <linearGradient
       x1="19.874987"
       y1="44.520065"
       x2="19.874987"
       y2="5.2502403"
       id="linearGradient3353"
       xlink:href="#linearGradient3707-319-631-407-1-846-4-8-4-9"
       gradientUnits="userSpaceOnUse"
       gradientTransform="matrix(2.6410259,0,0,2.6410259,0.6153933,-63.025638)" />
    <linearGradient
       id="linearGradient3707-319-631-407-1-846-4-8-4-9">
      <stop
         id="stop3788-5-5-3-5"
         style="stop-color:#365a7c;stop-opacity:1"
         offset="0" />
      <stop
         id="stop3790-9-0-0-0"
         style="stop-color:#5ea1ca;stop-opacity:1"
         offset="1" />
    </linearGradient>
    <radialGradient
       cx="7.4956832"
       cy="8.4497671"
       r="19.99999"
       fx="7.4956832"
       fy="8.4497671"
       id="radialGradient3227"
       xlink:href="#linearGradient2867-449-88-871-390-598-476-591-434-148-57-177"
       gradientUnits="userSpaceOnUse"
       gradientTransform="matrix(5.1311087e-8,6.1720513,-6.5292943,-1.1371274e-7,119.17132,-93.225249)" />
    <linearGradient
       id="linearGradient2867-449-88-871-390-598-476-591-434-148-57-177">
      <stop
         id="stop3750"
         style="stop-color:#90dbec;stop-opacity:1"
         offset="0" />
      <stop
         id="stop3752"
         style="stop-color:#55c1ec;stop-opacity:1"
         offset="0.26238" />
      <stop
         id="stop3754"
         style="stop-color:#3689e6;stop-opacity:1"
         offset="0.704952" />
      <stop
         id="stop3756"
         style="stop-color:#2b63a0;stop-opacity:1"
         offset="1" />
    </linearGradient>
    <linearGradient
       x1="24"
       y1="44"
       x2="24"
       y2="3.8990016"
       id="linearGradient3229"
       xlink:href="#linearGradient3707-319-631-407-324"
       gradientUnits="userSpaceOnUse"
       gradientTransform="matrix(2.641026,0,0,2.641026,0.6153902,-60.384616)" />
    <linearGradient
       id="linearGradient3707-319-631-407-324">
      <stop
         id="stop3760"
         style="stop-color:#185f9a;stop-opacity:1"
         offset="0" />
      <stop
         id="stop3762"
         style="stop-color:#599ec9;stop-opacity:1"
         offset="1" />
    </linearGradient>
    <radialGradient
       cx="4.9929786"
       cy="43.5"
       r="2.5"
       fx="4.9929786"
       fy="43.5"
       id="radialGradient3190"
       xlink:href="#linearGradient3688-166-749"
       gradientUnits="userSpaceOnUse"
       gradientTransform="matrix(2.003784,0,0,1.4,27.98813,-17.4)" />
    <linearGradient
       id="linearGradient3688-166-749">
      <stop
         id="stop2883"
         style="stop-color:#181818;stop-opacity:1"
         offset="0" />
      <stop
         id="stop2885"
         style="stop-color:#181818;stop-opacity:0"
         offset="1" />
    </linearGradient>
    <radialGradient
       cx="4.9929786"
       cy="43.5"
       r="2.5"
       fx="4.9929786"
       fy="43.5"
       id="radialGradient3192"
       xlink:href="#linearGradient3688-464-309"
       gradientUnits="userSpaceOnUse"
       gradientTransform="matrix(2.003784,0,0,1.4,-20.01187,-104.4)" />
    <linearGradient
       id="linearGradient3688-464-309">
      <stop
         id="stop2889"
         style="stop-color:#181818;stop-opacity:1"
         offset="0" />
      <stop
         id="stop2891"
         style="stop-color:#181818;stop-opacity:0"
         offset="1" />
    </linearGradient>
    <linearGradient
       x1="25.058096"
       y1="47.027729"
       x2="25.058096"
       y2="39.999443"
       id="linearGradient3194"
       xlink:href="#linearGradient3702-501-757"
       gradientUnits="userSpaceOnUse" />
    <linearGradient
       id="linearGradient3702-501-757">
      <stop
         id="stop2895"
         style="stop-color:#181818;stop-opacity:0"
         offset="0" />
      <stop
         id="stop2897"
         style="stop-color:#181818;stop-opacity:1"
         offset="0.5" />
      <stop
         id="stop2899"
         style="stop-color:#181818;stop-opacity:0"
         offset="1" />
    </linearGradient>
  </defs>
  <metadata
     id="metadata4212">
    <rdf:RDF>
      <cc:Work
         rdf:about="">
        <dc:format>image/svg+xml</dc:format>
        <dc:type
           rdf:resource="http://purl.org/dc/dcmitype/StillImage" />
        <dc:title></dc:title>
      </cc:Work>
    </rdf:RDF>
  </metadata>
  <g
     transform="translate(0,64)"
     id="layer1">
    <g
       transform="matrix(2.9499988,0,0,1.2222234,-6.8000012,1.555537)"
       id="g2036"
       style="display:inline">
      <g
         transform="matrix(1.052632,0,0,1.285713,-1.263158,-13.42854)"
         id="g3712"
         style="opacity:0.4">
        <rect
           width="5"
           height="7"
           x="38"
           y="40"
           id="rect2801"
           style="fill:url(#radialGradient3190);fill-opacity:1;stroke:none" />
        <rect
           width="5"
           height="7"
           x="-10"
           y="-47"
           transform="scale(-1,-1)"
           id="rect3696"
           style="fill:url(#radialGradient3192);fill-opacity:1;stroke:none" />
        <rect
           width="28"
           height="7.0000005"
           x="10"
           y="40"
           id="rect3700"
           style="fill:url(#linearGradient3194);fill-opacity:1;stroke:none" />
      </g>
    </g>
    <rect
       width="103"
       height="103"
       rx="6"
       ry="6"
       x="12.5"
       y="-48.5"
       id="rect5505-21"
       style="color:#000000;fill:url(#radialGradient3227);fill-opacity:1;fill-rule:nonzero;stroke:none;stroke-width:1;stroke-linecap:round;stroke-linejoin:round;stroke-miterlimit:4;stroke-opacity:1;stroke-dasharray:none;stroke-dashoffset:0;marker:none;visibility:visible;display:inline;overflow:visible;enable-background:accumulate" />
    <rect
       width="101"
       height="101"
       rx="5"
       ry="5"
       x="13.5"
       y="-47.5"
       id="rect6741-7"
       style="opacity:0.5;fill:none;stroke:url(#linearGradient3224);stroke-width:0.99999994;stroke-linecap:round;stroke-linejoin:round;stroke-miterlimit:4;stroke-opacity:1;stroke-dasharray:none;stroke-dashoffset:0" />
    <rect
       style="color:#000000;fill:none;fill-opacity:1;fill-rule:nonzero;stroke:#00243f;stroke-width:1;stroke-linecap:round;stroke-linejoin:round;stroke-miterlimit:4;stroke-opacity:1;stroke-dasharray:none;stroke-dashoffset:0;marker:none;visibility:visible;display:inline;overflow:visible;enable-background:accumulate;opacity:0.6"
       id="rect3809"
       y="-48.5"
       x="12.5"
       ry="6"
       rx="6"
       height="103"
       width="103" />
    <path
       d="m 77.466196,-29.375 c -9.59743,0 -17.50259,7.380658 -18.53125,16.71875 -8.46736,-1.614287 -15.91642,-6.009765 -21.15625,-12.4375 -0.91252,-1.122781 -2.4011,-1.766282 -3.84375,-1.65625 -1.44265,0.110033 -2.79956,0.970563 -3.53125,2.21875 -1.61229,2.766269 -2.53125,6.023359 -2.53125,9.4375 0,2.386119 0.55391,4.609386 1.375,6.7187497 -0.90741,0.8106616 -1.46284,2.0025336 -1.5,3.2187496 -0.003,0.130485 0,0.221277 0,0.28125 0,4.97875196 1.98907,9.50815 5.1875,12.875 -0.27162,0.868211 -0.27162,1.819289 0,2.6874997 1.17567,3.670103 3.48374,6.832337 6.46875,9.125001 -2.08996,0.589906 -4.27217,0.96875 -6.5625,0.96875 -0.97239,0 -1.90716,-0.04535 -2.84375,-0.15625 -2.00048,-0.23592 -4.06796,1.042134 -4.75,2.9375 -0.68205,1.895366 0.08913,4.219643 1.78125,5.3125 6.98843,4.48102 15.30623,7.125 24.21875,7.125 14.32465,0 25.8224,-6.079408 33.4375,-14.71875 7.5781,-8.597364 11.52447,-19.6306457 11.5625,-30.1250003 2.13857,-1.8092147 4.065774,-3.8398307 5.687504,-6.1249997 0.3352,-0.318359 0.6209,-0.688721 0.84375,-1.09375 0.22003,-0.400007 0.37869,-0.833693 0.46875,-1.28125 0.011,-0.04151 0.0215,-0.08319 0.0313,-0.125 0.0141,-0.10376 0.0245,-0.208012 0.0313,-0.3125 0.0305,-0.301058 0.0305,-0.605192 0,-0.90625 5.8e-4,-0.04166 5.8e-4,-0.08334 0,-0.125 -0.0171,-0.104861 -0.038,-0.209115 -0.0625,-0.3125 -0.01,-0.04181 -0.0203,-0.08349 -0.0313,-0.125 -0.0275,-0.105255 -0.0588,-0.209513 -0.0937,-0.3125 -0.01,-0.04181 -0.0202,-0.08349 -0.0313,-0.125 -0.0384,-0.09514 -0.0801,-0.188962 -0.125,-0.28125 -0.0557,-0.138413 -0.11832,-0.274053 -0.1875,-0.40625 -0.0202,-0.04199 -0.041,-0.08366 -0.0625,-0.125 -0.0104,-0.01047 -0.0208,-0.02088 -0.0313,-0.03125 -0.0677,-0.117807 -0.14069,-0.232547 -0.21875,-0.34375 -0.0596,-0.08547 -0.12213,-0.168871 -0.1875,-0.25 -0.0308,-0.03171 -0.062,-0.06296 -0.0937,-0.09375 -0.0698,-0.08599 -0.14279,-0.169396 -0.21875,-0.25 -0.031,-0.02122 -0.0623,-0.04206 -0.0937,-0.0625 -0.0508,-0.05335 -0.1029,-0.105456 -0.15625,-0.15625 -0.0611,-0.05377 -0.1236,-0.105874 -0.1875,-0.15625 -0.0811,-0.06537 -0.16453,-0.127919 -0.25,-0.1875 -0.0413,-0.02148 -0.083,-0.04232 -0.125,-0.0625 -0.0413,-0.02148 -0.083,-0.04232 -0.125,-0.0625 0.0334,-0.0988 0.0932,-0.181691 0.125,-0.28125 0.54878,-1.721756 -0.0576,-3.74612 -1.468754,-4.875 -1.41121,-1.128879 -3.53456,-1.288351 -5.09385,-0.375 -1.74318,1.033952 -3.66951,1.772585 -5.65625,2.34375 -3.18348,-2.478921 -7.1493,-4.03125 -11.46875,-4.03125 z"
       inkscape:connector-curvature="0"
       id="path3927-8"
       style="opacity:0.05;color:#000000;fill:#142b3f;fill-opacity:0.49019608;fill-rule:nonzero;stroke:none;stroke-width:0.9854275;marker:none;visibility:visible;display:inline;overflow:visible;enable-background:accumulate" />
    <path
       d="m 77.466196,-27.875 c -9.37027,0 -17.0157,7.60642 -17.1875,16.9375 -9.49217,-1.382066 -17.86815,-6.11844 -23.65625,-13.21875 -0.60735,-0.757172 -1.59462,-1.19851 -2.5625,-1.125 -0.96787,0.07351 -1.88897,0.659786 -2.375,1.5 -1.483,2.544446 -2.3125,5.542428 -2.3125,8.6875 0,2.61921 0.66615,5.049237 1.71875,7.2812493 -1.05987,0.442281 -1.8126,1.539469 -1.84375,2.6875 -0.002,0.10675 0,0.190027 0,0.25 0,4.93850096 2.24177,9.226204 5.59375,12.375 0.005,0.0047 -0.005,0.02657 0,0.03125 -0.57712,0.761589 -0.75751,1.80787 -0.46875,2.7187497 1.39979,4.369729 4.61385,7.800587 8.625,9.875001 -3.11776,1.349738 -6.52975,2.15625 -10.15625,2.15625 -1.03099,0 -2.0359,-0.0384 -3.03125,-0.15625 -1.33175,-0.151309 -2.70454,0.706841 -3.15625,1.96875 -0.4517,1.261909 0.06226,2.803063 1.1875,3.53125 6.75728,4.332807 14.78692,6.875 23.40625,6.875 13.91043,0 24.95327,-5.869692 32.3125,-14.21875 7.35923,-8.349058 11.1875,-19.1214257 11.1875,-29.2812503 0,-0.178919 -0.02895,-0.352934 -0.03125,-0.53125 2.29349,-1.8521797 4.36283,-3.9652217 6.062504,-6.3749997 0.43131,-0.379192 0.75009,-0.884839 0.90625,-1.4375 0.0107,-0.02071 0.0211,-0.04155 0.0313,-0.0625 0.0131,-0.0725 0.0236,-0.145482 0.0313,-0.21875 0.0109,-0.03108 0.0213,-0.06233 0.0313,-0.09375 0.0124,-0.06215 0.0228,-0.12469 0.0313,-0.1875 4.9e-4,-0.03125 4.9e-4,-0.0625 0,-0.09375 0.0139,-0.16628 0.0139,-0.33372 0,-0.5 4.9e-4,-0.03125 4.9e-4,-0.0625 0,-0.09375 -0.0181,-0.07367 -0.0389,-0.146658 -0.0625,-0.21875 -0.0163,-0.09468 -0.0372,-0.188573 -0.0625,-0.28125 -0.01,-0.03142 -0.0203,-0.06267 -0.0313,-0.09375 -0.0188,-0.06316 -0.0396,-0.125709 -0.0625,-0.1875 -0.01,-0.03142 -0.0203,-0.06267 -0.0313,-0.09375 -0.0393,-0.06404 -0.081,-0.126595 -0.125,-0.1875 -0.0102,-0.02095 -0.0206,-0.04179 -0.0313,-0.0625 -0.029,-0.06357 -0.0603,-0.126117 -0.0937,-0.1875 -0.0205,-0.02114 -0.0414,-0.04198 -0.0625,-0.0625 -0.0393,-0.06404 -0.081,-0.126595 -0.125,-0.1875 -0.0205,-0.02114 -0.0414,-0.04198 -0.0625,-0.0625 -0.0501,-0.05398 -0.10227,-0.106109 -0.15625,-0.15625 -0.0205,-0.02114 -0.0414,-0.04198 -0.0625,-0.0625 -0.0507,-0.04339 -0.1028,-0.08509 -0.15625,-0.125 -0.0205,-0.02114 -0.0414,-0.04198 -0.0625,-0.0625 -0.0609,-0.044 -0.12346,-0.0857 -0.1875,-0.125 -0.0207,-0.01066 -0.0416,-0.02108 -0.0625,-0.03125 -0.0609,-0.044 -0.12346,-0.0857 -0.1875,-0.125 -0.0312,-0.01093 -0.0624,-0.02135 -0.0939,-0.03125 -0.266954,-0.124126 -0.552274,-0.208665 -0.843754,-0.25 -0.0829,-0.01391 -0.16628,-0.02434 -0.25,-0.03125 0.24938,-0.561557 0.52944,-1.095473 0.71875,-1.6875 0.365844,-1.147829 -0.02801,-2.497418 -0.96875,-3.25 -0.94073,-0.752582 -2.36672,-0.858878 -3.40625,-0.25 -2.07843,1.232797 -4.38095,2.110653 -6.78125,2.71875 -3.01001,-2.556155 -6.85421,-4.1875 -11.09375,-4.1875 z"
       inkscape:connector-curvature="0"
       id="path3927-0"
       style="opacity:0.1;color:#000000;fill:#142b3f;fill-opacity:0.49019608;fill-rule:nonzero;stroke:none;stroke-width:0.9854275;marker:none;visibility:visible;display:inline;overflow:visible;enable-background:accumulate" />
    <path
       d="m 77.466196,-26.375 c -8.66624,0 -15.71875,7.083721 -15.71875,15.75 0,0.494986 0.11169,0.9525537 0.15625,1.4374997 -10.63861,-1.0319747 -20.07523,-6.1882727 -26.46875,-14.0312497 -0.61924,-0.725722 -1.95737,-0.605632 -2.4375,0.21875 -1.35371,2.322623 -2.125,5.030247 -2.125,7.90625 0,3.443192 1.17895,6.5595587 3.0625,9.1562493 -0.31787,-0.143984 -0.66539,-0.237728 -0.96875,-0.40625 -0.88938,-0.486612 -2.17412,0.237182 -2.21875,1.25 -0.002,0.08302 0,0.158777 0,0.21875 0,5.28728096 2.70269,9.865519 6.71875,12.71875 -1.0036,-0.153374 -1.96389,0.969979 -1.65625,1.9375 1.60422,5.0079097 5.70222,8.7956407 10.78125,10.2187507 -4.03787,2.382163 -8.71494,3.78125 -13.75,3.78125 -1.08959,0 -2.16464,-0.06269 -3.21875,-0.1875 -0.66304,-0.06691 -1.34108,0.371453 -1.5625,1 -0.22142,0.628547 0.03514,1.386571 0.59375,1.75 6.52613,4.184593 14.2676,6.65625 22.59375,6.65625 13.49621,0 24.08414,-5.659977 31.1875,-13.71875 7.10336,-8.058774 10.8125,-18.50201074 10.8125,-28.2812503 0,-0.398248 -0.02005,-0.792061 -0.03125,-1.1874997 2.53406,-1.941927 4.75423,-4.241563 6.5625,-6.875 0.0211,-0.0099 0.0419,-0.02035 0.0625,-0.03125 0.0166,-0.02434 0.0459,-0.03811 0.0625,-0.0625 0.0463,-0.05925 0.0881,-0.121985 0.125004,-0.1875 0.0109,-0.02059 0.0212,-0.04143 0.0313,-0.0625 0.0214,-0.02021 0.0423,-0.04106 0.0625,-0.0625 0.0109,-0.02059 0.0212,-0.04143 0.0313,-0.0625 0.0115,-0.0309 0.0219,-0.06217 0.0313,-0.09375 0.0106,-0.01026 0.0209,-0.02068 0.0313,-0.03125 0.0115,-0.0309 0.0219,-0.06217 0.0313,-0.09375 4.3e-4,-0.02083 4.3e-4,-0.04167 0,-0.0625 0.0115,-0.0309 0.0219,-0.06217 0.0313,-0.09375 1.1e-4,-0.01042 1.1e-4,-0.02083 0,-0.03125 0.0174,-0.08226 0.0279,-0.165986 0.0313,-0.25 4.3e-4,-0.02083 4.3e-4,-0.04167 0,-0.0625 -0.003,-0.08401 -0.0139,-0.16774 -0.0313,-0.25 1.1e-4,-0.01042 1.1e-4,-0.02083 0,-0.03125 -0.009,-0.04209 -0.019,-0.08381 -0.0313,-0.125 -0.0103,-0.01057 -0.0207,-0.02099 -0.0313,-0.03125 -0.01,-0.02107 -0.0203,-0.04191 -0.0313,-0.0625 4.3e-4,-0.02083 4.3e-4,-0.04167 0,-0.0625 -0.019,-0.04261 -0.0398,-0.08434 -0.0626,-0.125 -0.0103,-0.01057 -0.0207,-0.02099 -0.0313,-0.03125 -0.0103,-0.01057 -0.0207,-0.02099 -0.0313,-0.03125 -0.009,-0.03158 -0.0198,-0.06285 -0.0313,-0.09375 -0.0202,-0.02144 -0.0411,-0.04229 -0.0625,-0.0625 -0.0103,-0.01057 -0.02065,-0.02099 -0.03125,-0.03125 -0.0298,-0.03261 -0.06115,-0.0639 -0.09375,-0.09375 -0.0103,-0.01057 -0.02065,-0.02099 -0.03125,-0.03125 -0.0202,-0.02144 -0.0411,-0.04229 -0.0625,-0.0625 -0.0103,-0.01057 -0.02065,-0.02099 -0.03125,-0.03125 -0.0305,-0.022 -0.06175,-0.04285 -0.09375,-0.0625 -0.0976,-0.064 -0.20273,-0.116561 -0.3125,-0.15625 -0.0309,-0.01144 -0.06225,-0.02187 -0.09375,-0.03125 -0.0208,-4.34e-4 -0.0417,-4.34e-4 -0.0625,0 -0.0309,-0.01144 -0.06225,-0.02187 -0.09375,-0.03125 -0.0104,-1.08e-4 -0.02075,-1.08e-4 -0.03125,0 -0.13458,-0.01839 -0.27167,-0.01839 -0.40625,0 -0.15105,0.01914 -0.29914,0.06145 -0.4375,0.125 -0.0426,0.01888 -0.0843,0.03974 -0.125,0.0625 -0.7061,0.308885 -1.45212,0.53282 -2.1875,0.78125 1.05033,-1.39096 1.89397,-2.956484 2.4375,-4.65625 0.18292,-0.573914 -0.02963,-1.248709 -0.5,-1.625 -0.47037,-0.376291 -1.16774,-0.429439 -1.6875,-0.125 -2.41236,1.430866 -5.08933,2.464104 -7.90625,3.09375 -2.81806,-2.659744 -6.5781,-4.34375 -10.75,-4.34375 z"
       inkscape:connector-curvature="0"
       id="path3927"
       style="opacity:0.25;color:#000000;fill:#142b3f;fill-opacity:0.49019608;fill-rule:nonzero;stroke:none;stroke-width:0.9854275;marker:none;visibility:visible;display:inline;overflow:visible;enable-background:accumulate" />
    <path
       d="m 98.789116,-18.190195 c -2.550774,1.13152 -5.292561,1.896266 -8.169547,2.24016 2.936266,-1.76072 5.192027,-4.548267 6.254213,-7.870028 -2.74872,1.630374 -5.7928,2.814241 -9.033094,3.451761 -2.594453,-2.764321 -6.291307,-4.491761 -10.382667,-4.491761 -7.855468,0 -14.224775,6.368961 -14.224775,14.224428 0,1.1145337 0.12584,2.2002937 0.368507,3.2416803 -11.822028,-0.593494 -22.303531,-6.2562933 -29.319059,-14.8622943 -1.224427,2.1008 -1.925872,4.544107 -1.925872,7.151041 0,4.935147 2.511011,9.2889333 6.328019,11.8397063 -2.33175,-0.07384 -4.525214,-0.713786 -6.44287,-1.779093 -0.0014,0.05928 -0.0014,0.118907 -0.0014,0.17888 0,6.892081 4.903288,12.640854 11.410361,13.948135 -1.193435,0.324826 -2.450102,0.498853 -3.747398,0.498853 -0.916621,0 -1.807693,-0.08944 -2.676371,-0.255147 1.810121,5.6506677 7.063334,9.7638687 13.287874,9.8782687 -4.868206,3.815414 -11.001503,6.0892 -17.666031,6.0892 -1.148195,0 -2.280409,-0.06729 -3.393278,-0.199056 6.294982,4.036379 13.772028,6.391529 21.804989,6.391529 26.163976,0 40.47195,-21.6753017 40.47195,-40.4726093 0,-0.616374 -0.01421,-1.2299737 -0.0416,-1.8401067 2.779574,-2.005467 5.190987,-4.510827 7.098001,-7.363547"
       inkscape:connector-curvature="0"
       id="path16"
       style="color:#000000;fill:#f7f7f7;fill-opacity:1;fill-rule:nonzero;stroke:none;stroke-width:1;marker:none;visibility:visible;display:inline;overflow:visible;enable-background:accumulate" />
  </g>
</svg>
