<?xml version="1.0" encoding="UTF-8" standalone="no"?>
<!-- Created with Inkscape (http://www.inkscape.org/) -->

<svg
   xmlns:dc="http://purl.org/dc/elements/1.1/"
   xmlns:cc="http://creativecommons.org/ns#"
   xmlns:rdf="http://www.w3.org/1999/02/22-rdf-syntax-ns#"
   xmlns:svg="http://www.w3.org/2000/svg"
   xmlns="http://www.w3.org/2000/svg"
   xmlns:xlink="http://www.w3.org/1999/xlink"
   xmlns:sodipodi="http://sodipodi.sourceforge.net/DTD/sodipodi-0.dtd"
   xmlns:inkscape="http://www.inkscape.org/namespaces/inkscape"
   width="128"
   height="128"
   id="svg1306"
   sodipodi:version="0.32"
   inkscape:version="0.48.2 r9819"
   sodipodi:docname="Gnome-tools-check-spelling.svg"
   inkscape:export-filename="/home/lapo/Desktop/insert-link-16.png"
   inkscape:export-xdpi="90.000031"
   inkscape:export-ydpi="90.000031"
   version="1.0"
   inkscape:output_extension="org.inkscape.output.svg.inkscape">
  <defs
     id="defs1308">
    <linearGradient
       inkscape:collect="always"
       id="linearGradient6373">
      <stop
         style="stop-color:#ffffff;stop-opacity:1;"
         offset="0"
         id="stop6375" />
      <stop
         style="stop-color:#ffffff;stop-opacity:0;"
         offset="1"
         id="stop6377" />
    </linearGradient>
    <linearGradient
       id="linearGradient5348">
      <stop
         style="stop-color:#555753;stop-opacity:1;"
         offset="0"
         id="stop5350" />
      <stop
         style="stop-color:#888a85;stop-opacity:1"
         offset="1"
         id="stop5352" />
    </linearGradient>
    <linearGradient
       id="linearGradient5048">
      <stop
         id="stop5050"
         offset="0"
         style="stop-color:black;stop-opacity:0;" />
      <stop
         style="stop-color:black;stop-opacity:1;"
         offset="0.5"
         id="stop5056" />
      <stop
         id="stop5052"
         offset="1"
         style="stop-color:black;stop-opacity:0;" />
    </linearGradient>
    <linearGradient
       id="linearGradient5060"
       inkscape:collect="always">
      <stop
         id="stop5062"
         offset="0"
         style="stop-color:black;stop-opacity:1;" />
      <stop
         id="stop5064"
         offset="1"
         style="stop-color:black;stop-opacity:0;" />
    </linearGradient>
    <linearGradient
       inkscape:collect="always"
       xlink:href="#linearGradient5048"
       id="linearGradient6875"
       gradientUnits="userSpaceOnUse"
       gradientTransform="matrix(2.77439,0,0,1.96971,-1892.18,-872.885)"
       x1="302.85715"
       y1="366.64789"
       x2="302.85715"
       y2="609.50507" />
    <radialGradient
       inkscape:collect="always"
       xlink:href="#linearGradient5060"
       id="radialGradient6877"
       gradientUnits="userSpaceOnUse"
       gradientTransform="matrix(2.77439,0,0,1.96971,-1891.63,-872.885)"
       cx="605.71429"
       cy="486.64789"
       fx="605.71429"
       fy="486.64789"
       r="117.14286" />
    <radialGradient
       inkscape:collect="always"
       xlink:href="#linearGradient5060"
       id="radialGradient6879"
       gradientUnits="userSpaceOnUse"
       gradientTransform="matrix(-2.77439,0,0,1.96971,112.762,-872.885)"
       cx="605.71429"
       cy="486.64789"
       fx="605.71429"
       fy="486.64789"
       r="117.14286" />
    <linearGradient
       inkscape:collect="always"
       xlink:href="#linearGradient5048"
       id="linearGradient6889"
       gradientUnits="userSpaceOnUse"
       gradientTransform="matrix(2.77439,0,0,1.96971,-1892.18,-872.885)"
       x1="302.85715"
       y1="366.64789"
       x2="302.85715"
       y2="609.50507" />
    <radialGradient
       inkscape:collect="always"
       xlink:href="#linearGradient5060"
       id="radialGradient6891"
       gradientUnits="userSpaceOnUse"
       gradientTransform="matrix(2.77439,0,0,1.96971,-1891.63,-872.885)"
       cx="605.71429"
       cy="486.64789"
       fx="605.71429"
       fy="486.64789"
       r="117.14286" />
    <radialGradient
       inkscape:collect="always"
       xlink:href="#linearGradient5060"
       id="radialGradient6893"
       gradientUnits="userSpaceOnUse"
       gradientTransform="matrix(-2.77439,0,0,1.96971,112.762,-872.885)"
       cx="605.71429"
       cy="486.64789"
       fx="605.71429"
       fy="486.64789"
       r="117.14286" />
    <linearGradient
       inkscape:collect="always"
       xlink:href="#linearGradient5348"
       id="linearGradient5380"
       gradientUnits="userSpaceOnUse"
       gradientTransform="matrix(2.5255148,0,0,-2.6041631,3.8989883,63.392464)"
       x1="17.856678"
       y1="29.360811"
       x2="17.856678"
       y2="19.586843" />
    <linearGradient
       inkscape:collect="always"
       xlink:href="#linearGradient6373"
       id="linearGradient6379"
       x1="16.882174"
       y1="23.103367"
       x2="16.882174"
       y2="14.433153"
       gradientUnits="userSpaceOnUse"
       gradientTransform="matrix(2.6041631,0,0,2.6041631,0.63261246,-61.607365)" />
  </defs>
  <sodipodi:namedview
     id="base"
     pagecolor="#ffffff"
     bordercolor="#868686"
     borderopacity="1"
     inkscape:pageopacity="0"
     inkscape:pageshadow="2"
     inkscape:zoom="4.46875"
     inkscape:cx="64"
     inkscape:cy="64"
     inkscape:current-layer="layer1"
     showgrid="false"
     inkscape:grid-bbox="true"
     inkscape:document-units="px"
     fill="#fcaf3e"
     stroke="#555753"
     showguides="true"
     inkscape:guide-bbox="true"
     inkscape:window-width="1085"
     inkscape:window-height="760"
     inkscape:window-x="195"
     inkscape:window-y="175"
     inkscape:showpageshadow="false"
     showborder="true"
     inkscape:grid-points="true"
     width="48px"
     height="48px"
     inkscape:window-maximized="0">
    <inkscape:grid
       id="GridFromPre046Settings"
       type="xygrid"
       originx="0px"
       originy="0px"
       spacingx="0.5px"
       spacingy="0.5px"
       color="#0000ff"
       empcolor="#0000ff"
       opacity="0.2"
       empopacity="0.4"
       empspacing="2"
       visible="true"
       enabled="true"
       snapvisiblegridlinesonly="true" />
  </sodipodi:namedview>
  <metadata
     id="metadata1311">
    <rdf:RDF>
      <cc:Work
         rdf:about="">
        <dc:format>image/svg+xml</dc:format>
        <dc:type
           rdf:resource="http://purl.org/dc/dcmitype/StillImage" />
        <dc:title>Insert Text</dc:title>
        <dc:creator>
          <cc:Agent>
            <dc:title>Lapo Calamandrei</dc:title>
          </cc:Agent>
        </dc:creator>
        <dc:source>http://www.gnome.org</dc:source>
        <dc:contributor>
          <cc:Agent>
            <dc:title />
          </cc:Agent>
        </dc:contributor>
        <cc:license
           rdf:resource="http://creativecommons.org/licenses/GPL/2.0/" />
        <dc:subject>
          <rdf:Bag>
            <rdf:li>insert</rdf:li>
            <rdf:li>text</rdf:li>
            <rdf:li>generic</rdf:li>
          </rdf:Bag>
        </dc:subject>
      </cc:Work>
      <cc:License
         rdf:about="http://creativecommons.org/licenses/GPL/2.0/">
        <cc:permits
           rdf:resource="http://web.resource.org/cc/Reproduction" />
        <cc:permits
           rdf:resource="http://web.resource.org/cc/Distribution" />
        <cc:requires
           rdf:resource="http://web.resource.org/cc/Notice" />
        <cc:permits
           rdf:resource="http://web.resource.org/cc/DerivativeWorks" />
        <cc:requires
           rdf:resource="http://web.resource.org/cc/ShareAlike" />
        <cc:requires
           rdf:resource="http://web.resource.org/cc/SourceCode" />
      </cc:License>
    </rdf:RDF>
  </metadata>
  <g
     id="layer1"
     inkscape:label="Layer 1"
     inkscape:groupmode="layer"
     transform="translate(0,80)">
    <g
       style="opacity:0.27155175;display:inline"
       id="g6881"
       transform="matrix(0.05450904,0,0,0.04218562,111.61472,-1.7618746)">
      <rect
         y="-150.69685"
         x="-1559.2523"
         height="478.35718"
         width="1339.6335"
         id="rect6883"
         style="opacity:0.39195981;color:#000000;fill:url(#linearGradient6889);fill-opacity:1;fill-rule:nonzero;stroke:none;stroke-width:1;marker:none;visibility:visible;display:inline;overflow:visible" />
      <path
         sodipodi:nodetypes="cccc"
         id="path6885"
         d="m -219.61876,-150.68038 c 0,0 0,478.33079 0,478.33079 142.874166,0.90045 345.40022,-107.16966 345.40014,-239.196175 0,-132.026537 -159.436816,-239.134595 -345.40014,-239.134615 z"
         style="opacity:0.40206185;color:#000000;fill:url(#radialGradient6891);fill-opacity:1;fill-rule:nonzero;stroke:none;stroke-width:1;marker:none;visibility:visible;display:inline;overflow:visible"
         inkscape:connector-curvature="0" />
      <path
         style="opacity:0.40206185;color:#000000;fill:url(#radialGradient6893);fill-opacity:1;fill-rule:nonzero;stroke:none;stroke-width:1;marker:none;visibility:visible;display:inline;overflow:visible"
         d="m -1559.2523,-150.68038 c 0,0 0,478.33079 0,478.33079 -142.8742,0.90045 -345.4002,-107.16966 -345.4002,-239.196175 0,-132.026537 159.4368,-239.134595 345.4002,-239.134615 z"
         id="path6887"
         sodipodi:nodetypes="cccc"
         inkscape:connector-curvature="0" />
    </g>
    <path
       style="font-size:17.50059891px;font-style:normal;font-weight:bold;fill:url(#linearGradient5380);fill-opacity:1;stroke:#2e3436;stroke-width:2.60416293px;stroke-linecap:butt;stroke-linejoin:miter;stroke-opacity:1;font-family:Bitstream Vera Sans"
       d="m 29.522549,-31.65949 c -0.487442,0.08755 -0.890918,0.428953 -1.057941,0.895181 L 16.501734,3.0084313 c -0.160729,0.4262572 -0.09739,0.9281133 0.16276,1.3020815 0.260151,0.3739657 0.683773,0.5721165 1.139321,0.5696607 l 8.38215,0 c 0.599841,-0.00885 1.125663,-0.4031843 1.302082,-0.9765611 l 1.383461,-4.23176504 11.881494,0 1.383462,4.23176504 c 0.176406,0.5733768 0.702241,0.9677434 1.302082,0.9765611 l 8.38215,0 c 0.455548,0.00246 0.87917,-0.1957028 1.139321,-0.5696607 0.260156,-0.3739708 0.323489,-0.8758243 0.16276,-1.3020815 L 40.997143,-30.764309 c -0.204206,-0.541259 -0.723593,-0.898337 -1.302082,-0.895181 l -9.928372,0 c -0.08122,-0.0073 -0.162916,-0.0073 -0.24414,0 z m 25.634731,0 c -0.650765,0.119636 -1.068246,0.705419 -1.057942,1.383462 l -0.08138,33.7727399 c 7.3e-5,0.7640328 0.638564,1.3833861 1.383462,1.3834616 l 7.649729,0 c 0.744895,-7.55e-5 1.383386,-0.6194288 1.383462,-1.3834616 l 0,-0.4882806 c 0.694944,0.5076738 1.195482,0.9687929 1.790362,1.3020815 1.474792,0.8087281 3.200151,1.2207041 5.045566,1.2207015 3.303318,0 6.130918,-1.550313 8.219389,-4.3131451 2.07926,-2.7675248 3.173795,-6.2521112 3.173824,-10.4166523 -2.9e-5,-4.1645149 -1.081092,-7.7294369 -3.173824,-10.4980329 -2.089786,-2.781402 -4.920618,-4.313116 -8.219389,-4.313145 -1.837362,2.9e-5 -3.558673,0.387643 -5.045566,1.220702 -0.604338,0.331398 -1.114988,0.792574 -1.790362,1.302081 l 0.08138,-8.78905 c -7.6e-5,-0.764033 -0.638567,-1.383386 -1.383462,-1.383462 l -7.731109,0 c -0.07919,-0.0073 -0.164948,-0.0073 -0.24414,0 z m 42.39903,7.649729 c -4.509476,2.9e-5 -8.295715,1.340248 -10.986313,3.987625 -2.704827,2.64441 -3.906248,6.361408 -3.906245,10.8235529 -3e-6,4.4621683 1.207204,8.1678038 3.906245,10.8235528 2.699426,2.6390745 6.490311,3.9062472 10.986313,3.9062446 1.282514,0 2.58969,-0.061328 3.90621,-0.3255204 1.31316,-0.2441924 2.56715,-0.63871 3.82486,-1.1393213 0.52491,-0.2041925 0.89824,-0.7235928 0.89518,-1.3020816 l 0,-6.6731679 c 0.001,-0.5395669 -0.33919,-0.993483 -0.8138,-1.2207014 -0.47461,-0.2272133 -0.98442,-0.1862758 -1.38346,0.1627602 -0.80919,0.6682204 -1.62442,1.1461052 -2.52278,1.4648417 -0.89891,0.3231818 -1.887736,0.4882832 -2.929649,0.4882806 -1.816427,5.2e-6 -3.153647,-0.6050591 -4.069005,-1.6276019 -0.90741,-1.0376418 -1.302084,-2.4021947 -1.302081,-4.5572854 2e-6,-2.1550649 0.504608,-3.7264689 1.383461,-4.7200459 0.893705,-1.009811 2.131497,-1.464821 3.987625,-1.464841 0.950913,2e-5 1.871139,0.170676 2.766889,0.48828 0.0263,7.97e-4 0.0551,7.97e-4 0.0814,0 0.93379,0.326666 1.76809,0.787108 2.68554,1.464842 0.41104,0.308255 0.93226,0.322622 1.38346,0.08138 0.4512,-0.24125 0.7399,-0.696681 0.73242,-1.220702 l 0,-6.591787 c 0.003,-0.578489 -0.37027,-1.097876 -0.89518,-1.302082 -1.26783,-0.498676 -2.52666,-0.895069 -3.82486,-1.139321 -1.24972,-0.253698 -2.553282,-0.406872 -3.90621,-0.406901 z m -62.744055,5.777987 2.441403,7.324209 -4.882805,0 2.441402,-7.324209 z m 33.77274,2.197263 c 1.296543,1.5e-5 1.997672,0.399338 2.604164,1.383461 0.611629,0.976272 1.057917,2.7717 1.057941,5.2083266 -2.4e-5,2.4366529 -0.431078,4.044997 -1.057941,5.0455659 -0.606494,0.9841471 -1.307629,1.3834669 -2.604164,1.3834617 -1.296532,5.2e-6 -2.578389,-0.5761763 -3.092443,-1.3834617 -0.655374,-1.0584646 -1.057962,-2.6596942 -1.057941,-5.0455659 -2.4e-5,-2.3858406 0.411918,-4.0958356 1.057941,-5.1269466 0.529293,-0.841092 1.83137,-1.464826 3.092443,-1.464841 z"
       id="path6355"
       sodipodi:nodetypes="cccsccccccccsccccccccccccsssssssccccccssssssccssssssssssssccssccccccsssssssc"
       inkscape:connector-curvature="0" />
    <g
       style="opacity:0.32758622;display:inline"
       id="g6055"
       transform="matrix(0.0615632,0,0,0.04899056,118.8095,22.352415)">
      <rect
         y="-150.69685"
         x="-1559.2523"
         height="478.35718"
         width="1339.6335"
         id="rect6057"
         style="opacity:0.39195981;color:#000000;fill:url(#linearGradient6875);fill-opacity:1;fill-rule:nonzero;stroke:none;stroke-width:1;marker:none;visibility:visible;display:inline;overflow:visible" />
      <path
         sodipodi:nodetypes="cccc"
         id="path6059"
         d="m -219.61876,-150.68038 c 0,0 0,478.33079 0,478.33079 142.874166,0.90045 345.40022,-107.16966 345.40014,-239.196175 0,-132.026537 -159.436816,-239.134595 -345.40014,-239.134615 z"
         style="opacity:0.40206185;color:#000000;fill:url(#radialGradient6877);fill-opacity:1;fill-rule:nonzero;stroke:none;stroke-width:1;marker:none;visibility:visible;display:inline;overflow:visible"
         inkscape:connector-curvature="0" />
      <path
         style="opacity:0.40206185;color:#000000;fill:url(#radialGradient6879);fill-opacity:1;fill-rule:nonzero;stroke:none;stroke-width:1;marker:none;visibility:visible;display:inline;overflow:visible"
         d="m -1559.2523,-150.68038 c 0,0 0,478.33079 0,478.33079 -142.8742,0.90045 -345.4002,-107.16966 -345.4002,-239.196175 0,-132.026537 159.4368,-239.134595 345.4002,-239.134615 z"
         id="path6061"
         sodipodi:nodetypes="cccc"
         inkscape:connector-curvature="0" />
    </g>
    <path
       style="fill:none;stroke:#4e9a06;stroke-width:7.81248903;stroke-linecap:square;stroke-linejoin:miter;stroke-miterlimit:4;stroke-opacity:1;stroke-dasharray:none"
       d="M 9.7471834,25.632098 20.163838,15.215446 30.58049,25.632098 40.997143,15.215446 51.413795,25.632098 61.830447,15.215446 72.2471,25.632098 82.663752,15.215446 93.080404,25.632098 103.49702,15.215446 113.91367,25.632098"
       id="path6341"
       sodipodi:nodetypes="ccccccccccc"
       inkscape:connector-curvature="0" />
    <path
       style="fill:none;stroke:#8ae234;stroke-width:2.60416317px;stroke-linecap:square;stroke-linejoin:miter;stroke-opacity:1"
       d="M 9.7471834,25.632098 20.163838,15.215446 30.58049,25.632098 40.997143,15.215446 51.413795,25.632098 61.830447,15.215446 72.2471,25.632098 82.663752,15.215446 93.080404,25.632098 103.49702,15.215446 113.91367,25.632098"
       id="path6339"
       sodipodi:nodetypes="ccccccccccc"
       inkscape:connector-curvature="0" />
    <path
       style="font-size:17.50059891px;font-style:normal;font-weight:bold;opacity:0.15;fill:none;stroke:url(#linearGradient6379);stroke-width:2.60416293px;stroke-linecap:butt;stroke-linejoin:miter;stroke-opacity:1;font-family:Bitstream Vera Sans"
       d="m 30.661871,-28.973947 -11.067694,31.1685773 5.696607,0 1.057941,-3.3365839 c 0.350357,-1.1019099 1.366624,-1.8559141 2.522783,-1.8717422 l 11.881494,0 c 1.15616,0.015885 2.172427,0.7698323 2.522783,1.8717422 l 1.057942,3.3365839 5.615226,0 -11.149073,-31.1685773 -8.138009,0 z m 26.12301,0 -0.08138,31.1685773 5.126946,0 c 0.254401,-0.8304519 0.894705,-1.48660989 1.71868,-1.76126836 0.823976,-0.27465848 1.729907,-0.13390607 2.431705,0.37780677 0.824434,0.60226739 1.312418,1.00832929 1.546222,1.13932139 1.037665,0.5690226 2.29776,0.8951836 3.743485,0.895181 2.463067,0 4.426759,-1.0370402 6.103507,-3.25520384 1.700862,-2.26387186 2.604137,-5.09504506 2.604163,-8.78905036 -2.6e-5,-3.6997659 -0.911853,-6.6315769 -2.604163,-8.8704309 -1.674592,-2.228799 -3.636039,-3.255183 -6.103507,-3.255203 -1.459688,2.3e-5 -2.717726,0.320481 -3.743485,0.895181 -0.242552,0.13302 -0.687051,0.471171 -1.464842,1.057941 -0.809178,0.616335 -1.897104,0.722671 -2.810311,0.274682 -0.913207,-0.447989 -1.494982,-1.373423 -1.502834,-2.390565 l 0.08138,-7.486969 -5.045566,0 z m 40.771429,7.64973 c -3.977388,2.6e-5 -6.998798,1.173417 -9.114571,3.255203 -2.089575,2.042904 -3.092446,4.890337 -3.092444,8.8704309 -2e-6,3.9777992 0.998265,6.8098395 3.092444,8.87043046 2.10801,2.06088254 5.123173,3.17382634 9.114571,3.17382374 1.196886,0 2.358994,-0.031641 3.41794,-0.2441403 0.83617,-0.1554946 1.67843,-0.5143925 2.52277,-0.8138009 l 0,-3.4179641 c -0.38864,0.1971352 -0.72763,0.5049707 -1.13932,0.65104079 -1.21494,0.43679627 -2.499211,0.65104337 -3.824829,0.65104077 -2.412812,7.81e-6 -4.672379,-0.92407426 -6.103507,-2.52278296 -1.421418,-1.6254171 -1.953125,-3.864677 -1.953123,-6.3476475 3e-6,-2.5742749 0.562638,-4.8464079 2.034503,-6.5104079 1.443967,-1.63156 3.727125,-2.359997 6.022127,-2.360023 0.960973,2.1e-5 1.865999,0.246615 2.766889,0.488281 0.0271,-4.12e-4 0.0542,-4.12e-4 0.0814,0 0.0542,-0.0016 0.10851,-0.0016 0.16276,0 0.22297,0.02682 0.44168,0.08151 0.65104,0.16276 0.0271,-4.11e-4 0.0542,-4.11e-4 0.0814,0 0.43226,0.151224 0.80968,0.449406 1.2207,0.651041 l 0,-3.417964 c -0.85486,-0.301125 -1.69782,-0.658585 -2.52277,-0.813801 -0.0271,4.11e-4 -0.0542,4.11e-4 -0.0814,0 -1.099438,-0.223203 -2.186293,-0.325497 -3.336557,-0.32552 z m -63.150955,0.4069 c 1.303115,-0.177526 2.543098,0.614694 2.929683,1.871742 l 2.441403,7.324209 c 0.25763,0.810301 0.116354,1.694732 -0.380892,2.3844523 -0.497239,0.6897178 -1.291702,1.1032485 -2.141891,1.1148917 l -4.882805,0 c -0.850189,-0.011719 -1.644652,-0.4251739 -2.141891,-1.1148917 -0.497239,-0.6897203 -0.63852,-1.5741513 -0.380892,-2.3844523 l 2.441402,-7.324209 c 0.293714,-0.974397 1.112931,-1.699091 2.115883,-1.871742 l 0,0 z m 34.17964,2.197263 c 1.847946,2.3e-5 3.961547,1.190662 4.882806,2.685543 1.086059,1.733547 1.464816,3.827255 1.464842,6.5917876 -2.6e-5,2.7533634 -0.444622,4.8819828 -1.464842,6.5104077 -0.921262,1.4949146 -3.034852,2.60417087 -4.882806,2.60416306 -2.092179,7.81e-6 -4.081562,-0.5790565 -5.371086,-2.60416306 -4.11e-4,-0.027135 -4.11e-4,-0.054245 0,-0.08138 -1.034405,-1.6706175 -1.464865,-3.7410417 -1.464842,-6.4290276 -2.6e-5,-2.6949777 0.382273,-4.8639097 1.464842,-6.5917877 1.267964,-2.014904 3.224514,-2.685517 5.371086,-2.685543 z"
       id="path5386"
       sodipodi:nodetypes="ccccccccccccccsssssssssssccccsssssccsssssssssssccssccccsccscccccssssssssc"
       inkscape:connector-curvature="0" />
    <path
       style="font-size:17.50059891px;font-style:normal;font-weight:bold;fill:#babdb6;fill-opacity:1;stroke:none;font-family:Bitstream Vera Sans"
       d="m 29.766689,-30.276028 -11.962874,33.7727399 0.895181,0 11.067693,-31.1685769 9.928372,0 11.230454,31.1685769 0.895181,0 -12.125635,-33.7727399 -9.928372,0 z m 25.716111,0 0,2.604163 7.649729,0 0,-2.604163 -7.649729,0 z m 15.787739,7.649729 c -1.642803,2.6e-5 -3.145186,0.357976 -4.394526,1.057941 -0.417968,0.229193 -0.899467,0.671393 -1.627602,1.220702 -0.423835,0.308254 -0.999589,0.322622 -1.464841,0.08138 -0.440622,-0.228463 -0.710291,-0.64765 -0.732421,-1.139322 l 0,2.522783 c -0.0078,0.524021 0.267166,0.97946 0.732421,1.220702 0.465252,0.24125 1.041006,0.226875 1.464841,-0.08138 0.728135,-0.549309 1.209634,-0.991501 1.627602,-1.220702 1.24934,-0.699965 2.751723,-1.057915 4.394526,-1.057941 2.870524,2.6e-5 5.20417,1.246756 7.080068,3.743484 1.670792,2.210388 2.639348,5.040988 2.848303,8.3821504 0.02862,-0.4409109 0.08138,-0.8405535 0.08138,-1.3020815 -2.6e-5,-3.9250989 -1.04323,-7.1885349 -2.929683,-9.6842319 -1.875898,-2.496728 -4.209544,-3.743458 -7.080068,-3.743484 z m 26.285771,0 c -4.235369,2.6e-5 -7.615276,1.224712 -10.009752,3.580724 -2.38788,2.334544 -3.499347,5.633177 -3.499344,9.8469919 0,0.4547389 0.05526,0.8689675 0.08138,1.3020815 0.215781,-3.5821874 1.287847,-6.4623714 3.417964,-8.5449104 2.394476,-2.356012 5.774383,-3.580698 10.009752,-3.580724 1.248527,2.6e-5 2.48978,0.168932 3.66207,0.406901 1.19061,0.22401 2.37079,0.582035 3.58072,1.057941 l 0,-2.604163 c -1.20993,-0.475906 -2.39011,-0.833931 -3.58072,-1.057942 -1.17229,-0.237981 -2.413543,-0.406874 -3.66207,-0.4069 z m -66.080639,12.695295 -0.4069,1.2207014 c -0.128073,0.4162443 -0.09338,0.8684936 0.16276,1.2207015 0.256146,0.3522078 0.703864,0.5632622 1.139322,0.5696607 l 4.882805,0 c 0.435458,-0.00651 0.883171,-0.2174477 1.139322,-0.5696607 0.256145,-0.3522079 0.29084,-0.8044572 0.16276,-1.2207015 L 38.148839,-9.931004 c -0.245752,0.2188721 -0.559666,0.4019708 -0.895181,0.4069005 l -4.882805,0 c -0.335516,-0.00495 -0.649427,-0.1880206 -0.895182,-0.4069005 z m 31.656858,1.7903621 c -0.02859,0.4225124 -0.08138,0.8389806 -0.08138,1.3020816 -2.4e-5,2.5415069 0.45145,4.404171 1.302081,5.7779868 0.913538,1.43464645 2.525354,2.03451021 4.231765,2.0345024 1.5806,5.21e-6 2.974837,-0.78723329 3.743485,-2.0345024 0.829501,-1.3240086 1.302055,-3.1781805 1.302081,-5.7779868 -5e-6,-0.4535124 -0.05453,-0.8869676 -0.08138,-1.3020816 -0.137552,1.9106094 -0.542134,3.3928104 -1.220701,4.4759053 -0.768648,1.2472691 -2.162885,2.0345076 -3.743485,2.0345024 -1.706411,7.8e-6 -3.318227,-0.5998559 -4.231765,-2.0345024 -0.69585,-1.123837 -1.087727,-2.5937933 -1.220701,-4.4759053 z m 28.727174,0.5696607 c -0.02188,0.3199214 -0.08138,0.6372699 -0.08138,0.9765611 -3e-6,2.3239994 0.4554,4.1120308 1.627602,5.4524665 1.181058,1.31935495 3.00329,2.11588771 5.126946,2.1158825 1.188063,2.6e-6 2.356219,-0.18794245 3.417929,-0.56966067 1.02567,-0.36390836 1.96323,-0.91119146 2.8483,-1.62760193 l 0,-2.6041631 c -0.88507,0.7164105 -1.82263,1.2636936 -2.8483,1.6276019 -1.06171,0.3817105 -2.229866,0.5696633 -3.417929,0.5696607 -2.123656,5.2e-6 -3.945888,-0.7965275 -5.126946,-2.1158825 -0.87915,-1.0053267 -1.363194,-2.2787104 -1.546222,-3.8248645 z"
       id="path6363"
       sodipodi:nodetypes="cccccccccccccccsssccssssscssccsscsssccscccsccsccccccssssscsssccssssccsssc"
       inkscape:connector-curvature="0" />
  </g>
</svg>
