<?xml version="1.0" encoding="UTF-8" standalone="no"?>
<svg
   xmlns:dc="http://purl.org/dc/elements/1.1/"
   xmlns:cc="http://creativecommons.org/ns#"
   xmlns:rdf="http://www.w3.org/1999/02/22-rdf-syntax-ns#"
   xmlns:svg="http://www.w3.org/2000/svg"
   xmlns="http://www.w3.org/2000/svg"
   xmlns:sodipodi="http://sodipodi.sourceforge.net/DTD/sodipodi-0.dtd"
   xmlns:inkscape="http://www.inkscape.org/namespaces/inkscape"
   height="48"
   id="svg7384"
   version="1.1"
   width="48"
   inkscape:version="0.91 r"
   sodipodi:docname="1.svg">
  <sodipodi:namedview
     pagecolor="#ffffff"
     bordercolor="#666666"
     borderopacity="1"
     objecttolerance="10"
     gridtolerance="10"
     guidetolerance="10"
     inkscape:pageopacity="0"
     inkscape:pageshadow="2"
     inkscape:window-width="640"
     inkscape:window-height="480"
     id="namedview19"
     showgrid="true"
     inkscape:zoom="19.145833"
     inkscape:cx="24"
     inkscape:cy="24"
     inkscape:current-layer="svg7384">
    <inkscape:grid
       type="xygrid"
       id="grid4202" />
  </sodipodi:namedview>
  <metadata
     id="metadata90">
    <rdf:RDF>
      <cc:Work
         rdf:about="">
        <dc:format>image/svg+xml</dc:format>
        <dc:type
           rdf:resource="http://purl.org/dc/dcmitype/StillImage" />
        <dc:title>elementary Symbolic Icon Theme</dc:title>
      </cc:Work>
    </rdf:RDF>
  </metadata>
  <title
     id="title9167">elementary Symbolic Icon Theme</title>
  <defs
     id="defs7386">
    <filter
       id="filter7554"
       style="color-interpolation-filters:sRGB">
      <feBlend
         id="feBlend7556"
         in2="BackgroundImage"
         mode="darken" />
    </filter>
    <filter
       id="filter7554-7"
       style="color-interpolation-filters:sRGB">
      <feBlend
         id="feBlend7556-6"
         in2="BackgroundImage"
         mode="darken" />
    </filter>
  </defs>
  <g
     id="layer9"
     label="status"
     style="display:inline"
     transform="matrix(2.9980919,0,0,2.9980919,-1298.1591,755.53444)" />
  <g
     id="layer10"
     style="display:inline;fill:#353945;fill-opacity:1"
     transform="matrix(2.9980919,0,0,2.9980919,-1298.1591,755.53444)">
    <path
       d="m 440.98907,-251.00446 c -3.84231,0 -6.99332,3.15102 -6.99332,6.99332 0,3.8423 3.15101,7.01559 6.99332,7.01559 3.8423,0 7.01559,-3.17329 7.01559,-7.01559 0,-3.8423 -3.17329,-6.99332 -7.01559,-6.99332 z m 0,4.00891 c 1.68054,0 3.00668,1.30387 3.00668,2.98441 0,1.68054 -1.32614,3.00668 -3.00668,3.00668 -1.68055,0 -2.98441,-1.32614 -2.98441,-3.00668 0,-1.68054 1.30386,-2.98441 2.98441,-2.98441 z"
       id="path39797"
       style="color:#bebebe;font-style:normal;font-variant:normal;font-weight:normal;font-stretch:normal;font-size:medium;line-height:normal;font-family:Sans;-inkscape-font-specification:Sans;text-indent:0;text-align:start;text-decoration:none;text-decoration-line:none;letter-spacing:normal;word-spacing:normal;text-transform:none;direction:ltr;block-progression:tb;writing-mode:lr-tb;baseline-shift:baseline;text-anchor:start;display:inline;overflow:visible;visibility:visible;fill:#353945;fill-opacity:1;stroke:none;stroke-width:5.61250019;marker:none;enable-background:accumulate"
       inkscape:connector-curvature="0" />
    <path
       d="m 441.00524,-245.9942 c -1.09865,0 -2.01317,0.89789 -2.01317,1.99654 0,1.09864 0.91453,1.99653 2.01317,1.99653 1.09865,0 1.99654,-0.89789 1.99654,-1.99653 0,-1.09865 -0.89789,-1.99654 -1.99654,-1.99654 z"
       id="path40342"
       style="color:#bebebe;font-style:normal;font-variant:normal;font-weight:normal;font-stretch:normal;font-size:medium;line-height:normal;font-family:Sans;-inkscape-font-specification:Sans;text-indent:0;text-align:start;text-decoration:none;text-decoration-line:none;letter-spacing:normal;word-spacing:normal;text-transform:none;direction:ltr;block-progression:tb;writing-mode:lr-tb;baseline-shift:baseline;text-anchor:start;display:inline;overflow:visible;visibility:visible;fill:#353945;fill-opacity:1;stroke:none;stroke-width:1.87825239;marker:none;enable-background:accumulate"
       inkscape:connector-curvature="0" />
  </g>
  <g
     id="layer13"
     style="display:inline"
     transform="matrix(2.9980919,0,0,2.9980919,-1298.1591,755.53444)" />
  <g
     id="layer14"
     transform="matrix(2.9980919,0,0,2.9980919,-1298.1591,755.53444)" />
  <g
     id="layer15"
     style="display:inline"
     transform="matrix(2.9980919,0,0,2.9980919,-1298.1591,755.53444)" />
  <g
     id="g71291"
     style="display:inline"
     transform="matrix(2.9980919,0,0,2.9980919,-1298.1591,755.53444)" />
  <g
     id="layer12"
     style="display:inline"
     transform="matrix(2.9980919,0,0,2.9980919,-1298.1591,755.53444)" />
</svg>
