<?xml version="1.0" encoding="UTF-8" standalone="no"?>
<svg
   xmlns:dc="http://purl.org/dc/elements/1.1/"
   xmlns:cc="http://creativecommons.org/ns#"
   xmlns:rdf="http://www.w3.org/1999/02/22-rdf-syntax-ns#"
   xmlns:svg="http://www.w3.org/2000/svg"
   xmlns="http://www.w3.org/2000/svg"
   xmlns:sodipodi="http://sodipodi.sourceforge.net/DTD/sodipodi-0.dtd"
   xmlns:inkscape="http://www.inkscape.org/namespaces/inkscape"
   height="48"
   id="svg7384"
   version="1.1"
   width="48"
   inkscape:version="0.91 r"
   sodipodi:docname="55.svg">
  <sodipodi:namedview
     pagecolor="#ffffff"
     bordercolor="#666666"
     borderopacity="1"
     objecttolerance="10"
     gridtolerance="10"
     guidetolerance="10"
     inkscape:pageopacity="0"
     inkscape:pageshadow="2"
     inkscape:window-width="640"
     inkscape:window-height="480"
     id="namedview19"
     showgrid="true"
     inkscape:zoom="19.145833"
     inkscape:cx="24"
     inkscape:cy="24"
     inkscape:current-layer="g4223">
    <inkscape:grid
       type="xygrid"
       id="grid4202" />
  </sodipodi:namedview>
  <metadata
     id="metadata90">
    <rdf:RDF>
      <cc:Work
         rdf:about="">
        <dc:format>image/svg+xml</dc:format>
        <dc:type
           rdf:resource="http://purl.org/dc/dcmitype/StillImage" />
        <dc:title>elementary Symbolic Icon Theme</dc:title>
      </cc:Work>
    </rdf:RDF>
  </metadata>
  <title
     id="title9167">elementary Symbolic Icon Theme</title>
  <defs
     id="defs7386">
    <filter
       id="filter7554"
       style="color-interpolation-filters:sRGB">
      <feBlend
         id="feBlend7556"
         in2="BackgroundImage"
         mode="darken" />
    </filter>
    <filter
       id="filter7554-7"
       style="color-interpolation-filters:sRGB">
      <feBlend
         id="feBlend7556-6"
         in2="BackgroundImage"
         mode="darken" />
    </filter>
  </defs>
  <g
     id="layer9"
     label="status"
     style="display:inline"
     transform="matrix(2.9980919,0,0,2.9980919,-1298.1591,755.53444)" />
  <g
     id="layer13"
     style="display:inline"
     transform="matrix(2.9980919,0,0,2.9980919,-1298.1591,755.53444)" />
  <g
     id="layer14"
     transform="matrix(2.9980919,0,0,2.9980919,-1298.1591,755.53444)" />
  <g
     id="layer15"
     style="display:inline"
     transform="matrix(2.9980919,0,0,2.9980919,-1298.1591,755.53444)" />
  <g
     id="g71291"
     style="display:inline"
     transform="matrix(2.9980919,0,0,2.9980919,-1298.1591,755.53444)" />
  <g
     id="layer12"
     style="display:inline"
     transform="matrix(2.9980919,0,0,2.9980919,-1298.1591,755.53444)" />
  <g
     transform="matrix(1.7845785,0,0,1.7845785,-753.37542,467.93718)"
     style="display:inline;fill:#353945;fill-opacity:1"
     id="g4223">
    <g
       id="layer13-5"
       style="display:inline;fill:#353945;fill-opacity:1"
       transform="matrix(1.5401895,0,0,1.5401895,-674.45491,638.37978)">
      <path
         inkscape:connector-curvature="0"
         d="m 726.36939,-584 -7.375,1.90625 c -0.554,0.14844 -1,0.73896 -1,1.3125 l 0,9.09375 c -0.56177,-0.29416 -1.28326,-0.4131 -2.03125,-0.21875 -1.34976,0.35071 -2.19558,1.48415 -1.90625,2.53125 0.28933,1.0471 1.61899,1.63196 2.96875,1.28125 1.07683,-0.2798 1.81912,-1.07145 1.9375,-1.90625 l 0.0312,-8.59375 7,-1.875 0,6.78125 c -0.56177,-0.29416 -1.28326,-0.4131 -2.03125,-0.21875 -1.34976,0.35071 -2.19558,1.48415 -1.90625,2.53125 0.28933,1.0471 1.61899,1.63196 2.96875,1.28125 1.07683,-0.2798 1.81912,-1.07145 1.9375,-1.90625 l 0.0312,-11.1875 c 0,-0.43016 -0.26584,-0.75199 -0.625,-0.8125 z"
         id="rect2996-2"
         style="color:#bebebe;display:inline;overflow:visible;visibility:visible;fill:#353945;fill-opacity:1;fill-rule:nonzero;stroke:none;stroke-width:1;marker:none;enable-background:accumulate" />
    </g>
  </g>
</svg>
