<?xml version="1.0" encoding="UTF-8" standalone="no"?>
<!-- Created with Inkscape (http://www.inkscape.org/) -->

<svg
   xmlns:dc="http://purl.org/dc/elements/1.1/"
   xmlns:cc="http://creativecommons.org/ns#"
   xmlns:rdf="http://www.w3.org/1999/02/22-rdf-syntax-ns#"
   xmlns:svg="http://www.w3.org/2000/svg"
   xmlns="http://www.w3.org/2000/svg"
   xmlns:xlink="http://www.w3.org/1999/xlink"
   xmlns:sodipodi="http://sodipodi.sourceforge.net/DTD/sodipodi-0.dtd"
   xmlns:inkscape="http://www.inkscape.org/namespaces/inkscape"
   version="1.1"
   width="64"
   height="64"
   id="svg3854"
   inkscape:version="0.48.4 r9939"
   sodipodi:docname="application-illustrator.svg">
  <sodipodi:namedview
     pagecolor="#ffffff"
     bordercolor="#666666"
     borderopacity="1"
     objecttolerance="10"
     gridtolerance="10"
     guidetolerance="10"
     inkscape:pageopacity="0"
     inkscape:pageshadow="2"
     inkscape:window-width="864"
     inkscape:window-height="945"
     id="namedview35"
     showgrid="true"
     inkscape:zoom="11.046875"
     inkscape:cx="32"
     inkscape:cy="32"
     inkscape:window-x="75"
     inkscape:window-y="34"
     inkscape:window-maximized="0"
     inkscape:current-layer="layer1">
    <inkscape:grid
       type="xygrid"
       id="grid3049" />
  </sodipodi:namedview>
  <defs
     id="defs3856">
    <linearGradient
       x1="23.99999"
       y1="5.5641499"
       x2="23.99999"
       y2="43"
       id="linearGradient3027"
       xlink:href="#linearGradient3977-4"
       gradientUnits="userSpaceOnUse"
       gradientTransform="matrix(1.2162162,0,0,1.5405376,2.8108184,-6.97295)" />
    <linearGradient
       id="linearGradient3977-4">
      <stop
         id="stop3979-7"
         style="stop-color:#ffffff;stop-opacity:1"
         offset="0" />
      <stop
         id="stop3981-6"
         style="stop-color:#ffffff;stop-opacity:0.23529412"
         offset="0.03626217" />
      <stop
         id="stop3983-5"
         style="stop-color:#ffffff;stop-opacity:0.15686275"
         offset="0.95056331" />
      <stop
         id="stop3985-6"
         style="stop-color:#ffffff;stop-opacity:0.39215687"
         offset="1" />
    </linearGradient>
    <radialGradient
       cx="7.8060555"
       cy="9.9571075"
       r="12.671875"
       fx="7.2758255"
       fy="9.9571075"
       id="radialGradient3030"
       xlink:href="#linearGradient2867-449-88-871-390-598-476-591-434-148-57-177-8-3-3"
       gradientUnits="userSpaceOnUse"
       gradientTransform="matrix(-2.1710338e-7,8.8513747,-10.866659,-2.6569444e-7,140.18608,-80.70502)" />
    <linearGradient
       id="linearGradient2867-449-88-871-390-598-476-591-434-148-57-177-8-3-3">
      <stop
         id="stop3750-1-0-7"
         style="stop-color:#ffcd7d;stop-opacity:1"
         offset="0" />
      <stop
         id="stop3752-3-7-4"
         style="stop-color:#fc8f36;stop-opacity:1"
         offset="0.26238" />
      <stop
         id="stop3754-1-8-5"
         style="stop-color:#e23a0e;stop-opacity:1"
         offset="0.704952" />
      <stop
         id="stop3756-1-6-2"
         style="stop-color:#ac441f;stop-opacity:1"
         offset="1" />
    </linearGradient>
    <radialGradient
       cx="605.71429"
       cy="486.64789"
       r="117.14286"
       fx="605.71429"
       fy="486.64789"
       id="radialGradient3035"
       xlink:href="#linearGradient5060"
       gradientUnits="userSpaceOnUse"
       gradientTransform="matrix(0.03132633,0,0,0.02058823,35.220859,49.45142)" />
    <linearGradient
       id="linearGradient5060">
      <stop
         id="stop5062"
         style="stop-color:#000000;stop-opacity:1"
         offset="0" />
      <stop
         id="stop5064"
         style="stop-color:#000000;stop-opacity:0"
         offset="1" />
    </linearGradient>
    <radialGradient
       cx="605.71429"
       cy="486.64789"
       r="117.14286"
       fx="605.71429"
       fy="486.64789"
       id="radialGradient3038"
       xlink:href="#linearGradient5060"
       gradientUnits="userSpaceOnUse"
       gradientTransform="matrix(-0.03132632,0,0,0.02058823,28.779136,49.45142)" />
    <linearGradient
       id="linearGradient5048">
      <stop
         id="stop5050"
         style="stop-color:#000000;stop-opacity:0"
         offset="0" />
      <stop
         id="stop5056"
         style="stop-color:#000000;stop-opacity:1"
         offset="0.5" />
      <stop
         id="stop5052"
         style="stop-color:#000000;stop-opacity:0"
         offset="1" />
    </linearGradient>
    <linearGradient
       x1="302.85715"
       y1="366.64789"
       x2="302.85715"
       y2="609.50507"
       id="linearGradient3852"
       xlink:href="#linearGradient5048"
       gradientUnits="userSpaceOnUse"
       gradientTransform="matrix(0.09153846,0,0,0.02058823,-1.084616,49.45142)" />
  </defs>
  <metadata
     id="metadata3859">
    <rdf:RDF>
      <cc:Work
         rdf:about="">
        <dc:format>image/svg+xml</dc:format>
        <dc:type
           rdf:resource="http://purl.org/dc/dcmitype/StillImage" />
        <dc:title></dc:title>
      </cc:Work>
    </rdf:RDF>
  </metadata>
  <g
     id="layer1">
    <rect
       width="44.199997"
       height="5"
       x="9.8999996"
       y="57.000004"
       id="rect2879"
       style="opacity:0.3;fill:url(#linearGradient3852);fill-opacity:1;fill-rule:nonzero;stroke:none;stroke-width:1;marker:none;visibility:visible;display:inline;overflow:visible" />
    <path
       d="m 9.9,57.00022 c 0,0 0,4.9997 0,4.9997 -1.6132281,0.01 -3.9,-1.1202 -3.9,-2.5002 0,-1.38 1.8002408,-2.4995 3.9,-2.4995 z"
       inkscape:connector-curvature="0"
       id="path2881"
       style="opacity:0.3;fill:url(#radialGradient3038);fill-opacity:1;fill-rule:nonzero;stroke:none;stroke-width:1;marker:none;visibility:visible;display:inline;overflow:visible" />
    <path
       d="m 54.099999,57.00022 c 0,0 0,4.9997 0,4.9997 C 55.713227,62.00992 58,60.87972 58,59.49972 c 0,-1.38 -1.800241,-2.4995 -3.900001,-2.4995 z"
       inkscape:connector-curvature="0"
       id="path2883"
       style="opacity:0.3;fill:url(#radialGradient3035);fill-opacity:1;fill-rule:nonzero;stroke:none;stroke-width:1;marker:none;visibility:visible;display:inline;overflow:visible" />
    <path
       d="m 8.5000081,0.50371 c 10.7700849,0 46.9999419,0 46.9999419,0 l 5.7e-5,58.99631 c 0,0 -31.333332,0 -46.9999989,0 0,-19.6667 0,-39.3334 0,-59.00006 z"
       inkscape:connector-curvature="0"
       id="path4160"
       style="color:#000000;fill:url(#radialGradient3030);fill-opacity:1;fill-rule:nonzero;stroke:none;stroke-width:0.99999994;marker:none;visibility:visible;display:inline;overflow:visible;enable-background:accumulate" />
    <path
       d="m 54.499999,58.50002 -44.9999992,0 0,-57.00004 44.9999992,0 z"
       inkscape:connector-curvature="0"
       id="rect6741-1-8"
       style="opacity:0.5;fill:none;stroke:url(#linearGradient3027);stroke-width:1;stroke-linecap:round;stroke-linejoin:miter;stroke-miterlimit:4;stroke-opacity:1;stroke-dasharray:none;stroke-dashoffset:0" />
    <path
       d="m 8.5000081,0.50371 c 10.7700849,0 46.9999419,0 46.9999419,0 l 5.7e-5,58.99631 c 0,0 -31.333332,0 -46.9999989,0 0,-19.6667 0,-39.3334 0,-59.00006 z"
       inkscape:connector-curvature="0"
       id="path4160-1"
       style="opacity:0.35;color:#000000;fill:none;stroke:#770000;stroke-width:1;stroke-linecap:round;stroke-linejoin:round;stroke-miterlimit:4;stroke-opacity:1;stroke-dasharray:none;stroke-dashoffset:0;marker:none;visibility:visible;display:inline;overflow:visible;enable-background:accumulate" />
    <path
       inkscape:connector-curvature="0"
       id="path3828"
       d="m 28.281517,35.578573 c 0,0 -1.031478,0.599845 0.734068,0.802812 2.138908,0.244017 3.232082,0.209023 5.589175,-0.237094 0,0 0.619702,0.388569 1.48516,0.725122 -5.283978,2.264621 -11.95869,-0.131172 -7.808403,-1.29084"
       style="opacity:0.15;fill:#000000;fill-opacity:1;stroke:#000000;stroke-width:0.74037075;stroke-linecap:round;stroke-linejoin:round;stroke-miterlimit:4;stroke-opacity:1;stroke-dasharray:none" />
    <path
       inkscape:connector-curvature="0"
       id="path3830"
       d="m 27.635841,32.623384 c 0,0 -1.156904,0.856368 0.609954,1.039119 2.284851,0.235711 4.089247,0.254995 7.211549,-0.346231 0,0 0.431855,0.437823 1.110922,0.67725 -6.38865,1.868126 -13.504457,0.147327 -8.932425,-1.370138"
       style="opacity:0.15;fill:#000000;fill-opacity:1;stroke:#000000;stroke-width:0.74037075;stroke-linecap:round;stroke-linejoin:round;stroke-miterlimit:4;stroke-opacity:1;stroke-dasharray:none" />
    <path
       inkscape:connector-curvature="0"
       id="path3832"
       d="m 33.079076,27.610402 c 1.301974,1.498987 -0.34208,2.847882 -0.34208,2.847882 0,0 3.305925,-1.706619 1.787666,-3.843711 -1.418011,-1.992973 -2.505434,-2.983198 3.381442,-6.397381 0,0 -9.240457,2.30784 -4.827028,7.39321"
       style="opacity:0.15;fill:#000000;fill-opacity:1;stroke:#000000;stroke-width:0.74037075;stroke-linecap:round;stroke-linejoin:round;stroke-miterlimit:4;stroke-opacity:1;stroke-dasharray:none" />
    <path
       style="fill:#ffffff;fill-opacity:1;stroke:#ffffff;stroke-width:0.74037075;stroke-linecap:round;stroke-linejoin:round;stroke-miterlimit:4;stroke-opacity:1;stroke-dasharray:none"
       d="m 28.281517,34.244573 c 0,0 -1.031478,0.599842 0.734068,0.802811 2.138908,0.244016 3.232082,0.209021 5.589175,-0.237094 0,0 0.619702,0.388569 1.48516,0.725123 -5.283978,2.264621 -11.95869,-0.131172 -7.808403,-1.29084"
       id="path5"
       inkscape:connector-curvature="0" />
    <path
       inkscape:connector-curvature="0"
       id="path3834"
       d="m 40.067569,37.764409 c 0,0 0.763311,0.628941 -0.84065,1.115503 -3.049988,0.923957 -12.69436,1.202957 -15.373529,0.03684 -0.963092,-0.418982 0.842978,-1.000411 1.411099,-1.122422 0.592493,-0.128477 0.931081,-0.104539 0.931081,-0.104539 -1.071058,-0.754508 -6.922867,1.48152 -2.972433,2.121882 10.773418,1.747143 19.638912,-0.786738 16.844432,-2.047243"
       style="opacity:0.15;fill:#000000;fill-opacity:1;stroke:#000000;stroke-width:0.74037075;stroke-linecap:round;stroke-linejoin:round;stroke-miterlimit:4;stroke-opacity:1;stroke-dasharray:none" />
    <path
       inkscape:connector-curvature="0"
       id="path3836"
       d="m 28.777538,29.56147 c 0,0 -4.905742,1.165191 -1.737242,1.58832 1.337836,0.17912 4.004781,0.138591 6.488971,-0.06955 2.03022,-0.171259 4.068805,-0.535383 4.068805,-0.535383 0,0 -0.715877,0.306577 -1.233804,0.660225 -4.981696,1.310191 -14.60541,0.700675 -11.834866,-0.639489 2.343053,-1.132602 4.248136,-1.004126 4.248136,-1.004126"
       style="opacity:0.15;fill:#000000;fill-opacity:1;stroke:#000000;stroke-width:0.74037075;stroke-linecap:round;stroke-linejoin:round;stroke-miterlimit:4;stroke-opacity:1;stroke-dasharray:none" />
    <path
       style="fill:#ffffff;fill-opacity:1;stroke:#ffffff;stroke-width:0.74037075;stroke-linecap:round;stroke-linejoin:round;stroke-miterlimit:4;stroke-opacity:1;stroke-dasharray:none"
       d="m 27.635841,31.289382 c 0,0 -1.156904,0.856368 0.609954,1.03912 2.284851,0.235711 4.089247,0.254993 7.211549,-0.346231 0,0 0.431855,0.437823 1.110922,0.67725 -6.38865,1.868125 -13.504457,0.147328 -8.932425,-1.370139"
       id="path7"
       inkscape:connector-curvature="0" />
    <path
       inkscape:connector-curvature="0"
       id="path3840"
       d="m 34.524662,14.704189 c 0,0 2.804589,2.805537 -2.660035,7.119661 -4.382072,3.460671 -0.999251,5.433851 -0.0018,7.688294 -2.557913,-2.307843 -4.435064,-4.339443 -3.175726,-6.230268 1.848414,-2.775564 6.969137,-4.12126 5.837551,-8.577687"
       style="opacity:0.15;fill:#000000;fill-opacity:1;stroke:#000000;stroke-width:0.74037075;stroke-linecap:round;stroke-linejoin:round;stroke-miterlimit:4;stroke-opacity:1;stroke-dasharray:none" />
    <path
       style="fill:#ffffff;fill-opacity:1;stroke:#ffffff;stroke-width:0.74037075;stroke-linecap:round;stroke-linejoin:round;stroke-miterlimit:4;stroke-opacity:1;stroke-dasharray:none"
       d="m 33.079076,26.2764 c 1.301974,1.498987 -0.34208,2.847882 -0.34208,2.847882 0,0 3.305925,-1.706618 1.787666,-3.84371 -1.418011,-1.992974 -2.505434,-2.983198 3.381442,-6.397381 0,0 -9.240457,2.30784 -4.827028,7.393209"
       id="path9"
       inkscape:connector-curvature="0" />
    <path
       inkscape:connector-curvature="0"
       id="path3838"
       d="m 37.577844,34.480529 c 5.064125,-2.631515 2.722674,-5.160382 1.088373,-4.819683 -0.400572,0.08338 -0.579178,0.155619 -0.579178,0.155619 0,0 0.148706,-0.232954 0.432728,-0.33379 3.233173,-1.136674 5.719696,3.352488 -1.043698,5.130479 0,7.4e-5 0.07836,-0.07 0.101775,-0.132625"
       style="opacity:0.15;fill:#000000;fill-opacity:1;stroke:#000000;stroke-width:0.74037075;stroke-linecap:round;stroke-linejoin:round;stroke-miterlimit:4;stroke-opacity:1;stroke-dasharray:none" />
    <path
       style="fill:#ffffff;fill-opacity:1;stroke:#ffffff;stroke-width:0.74037075;stroke-linecap:round;stroke-linejoin:round;stroke-miterlimit:4;stroke-opacity:1;stroke-dasharray:none"
       d="m 40.067569,36.430406 c 0,0 0.763311,0.628944 -0.84065,1.115505 -3.049988,0.923957 -12.69436,1.202956 -15.373529,0.03684 -0.963092,-0.418982 0.842978,-1.000411 1.411099,-1.122421 0.592493,-0.128479 0.931081,-0.10454 0.931081,-0.10454 -1.071058,-0.754509 -6.922867,1.481518 -2.972433,2.12188 10.773418,1.747144 19.638912,-0.786735 16.844432,-2.047242"
       id="path11"
       inkscape:connector-curvature="0" />
    <path
       style="fill:#ffffff;fill-opacity:1;stroke:#ffffff;stroke-width:0.74037075;stroke-linecap:round;stroke-linejoin:round;stroke-miterlimit:4;stroke-opacity:1;stroke-dasharray:none"
       d="m 28.777538,28.227467 c 0,0 -4.905742,1.165194 -1.737242,1.588323 1.337836,0.179119 4.004781,0.138591 6.488971,-0.06956 2.03022,-0.171257 4.068805,-0.535381 4.068805,-0.535381 0,0 -0.715877,0.306577 -1.233804,0.660226 -4.981696,1.310195 -14.60541,0.700678 -11.834866,-0.639485 2.343053,-1.132602 4.248136,-1.004127 4.248136,-1.004127"
       id="path13"
       inkscape:connector-curvature="0" />
    <path
       inkscape:connector-curvature="0"
       id="path3842"
       d="m 29.275164,42.544963 c 4.860927,0.311164 12.325436,-0.17264 12.502222,-2.472691 0,0 -0.339823,0.871929 -4.017293,1.564391 -4.148906,0.780766 -9.265995,0.689609 -12.300992,0.189226 7.4e-5,-7.6e-5 0.621302,0.514207 3.816063,0.719074"
       style="opacity:0.15;fill:#000000;fill-opacity:1;stroke:#000000;stroke-width:0.74037075;stroke-linecap:round;stroke-linejoin:round;stroke-miterlimit:4;stroke-opacity:1;stroke-dasharray:none" />
    <path
       style="fill:#ffffff;fill-opacity:1;stroke:#ffffff;stroke-width:0.74037075;stroke-linecap:round;stroke-linejoin:round;stroke-miterlimit:4;stroke-opacity:1;stroke-dasharray:none"
       d="m 37.577844,33.146528 c 5.064125,-2.631516 2.722674,-5.160383 1.088373,-4.819683 -0.400572,0.08338 -0.579178,0.155619 -0.579178,0.155619 0,0 0.148706,-0.232954 0.432728,-0.33379 3.233173,-1.136675 5.719696,3.352488 -1.043698,5.13048 0,7.1e-5 0.07836,-0.07 0.101775,-0.132626"
       id="path15"
       inkscape:connector-curvature="0" />
    <path
       style="fill:#ffffff;fill-opacity:1;stroke:#ffffff;stroke-width:0.74037075;stroke-linecap:round;stroke-linejoin:round;stroke-miterlimit:4;stroke-opacity:1;stroke-dasharray:none"
       d="m 34.524662,13.370186 c 0,0 2.804589,2.805539 -2.660035,7.119662 -4.382072,3.460673 -0.999251,5.433852 -0.0018,7.688294 -2.557892,-2.307842 -4.435043,-4.339442 -3.175705,-6.230266 1.848414,-2.775566 6.969137,-4.121262 5.837551,-8.57769"
       id="path17"
       inkscape:connector-curvature="0" />
    <path
       style="fill:#ffffff;fill-opacity:1;stroke:#ffffff;stroke-width:0.74037075;stroke-linecap:round;stroke-linejoin:round;stroke-miterlimit:4;stroke-opacity:1;stroke-dasharray:none"
       d="m 29.275164,41.210963 c 4.860927,0.311164 12.325436,-0.172642 12.502222,-2.472692 0,0 -0.339823,0.871928 -4.017293,1.56439 -4.148906,0.780768 -9.265995,0.689609 -12.300992,0.189226 7.4e-5,-7.6e-5 0.621302,0.514207 3.816063,0.719076"
       id="path19"
       inkscape:connector-curvature="0" />
  </g>
</svg>
