<?xml version="1.0" encoding="UTF-8" standalone="no"?>
<!-- Created with Inkscape (http://www.inkscape.org/) -->

<svg
   xmlns:dc="http://purl.org/dc/elements/1.1/"
   xmlns:cc="http://creativecommons.org/ns#"
   xmlns:rdf="http://www.w3.org/1999/02/22-rdf-syntax-ns#"
   xmlns:svg="http://www.w3.org/2000/svg"
   xmlns="http://www.w3.org/2000/svg"
   xmlns:xlink="http://www.w3.org/1999/xlink"
   xmlns:sodipodi="http://sodipodi.sourceforge.net/DTD/sodipodi-0.dtd"
   xmlns:inkscape="http://www.inkscape.org/namespaces/inkscape"
   version="1.1"
   width="64"
   height="64"
   id="svg3950"
   inkscape:version="0.48.4 r9939"
   sodipodi:docname="libreoffice-draw.svg">
  <sodipodi:namedview
     pagecolor="#ffffff"
     bordercolor="#666666"
     borderopacity="1"
     objecttolerance="10"
     gridtolerance="10"
     guidetolerance="10"
     inkscape:pageopacity="0"
     inkscape:pageshadow="2"
     inkscape:window-width="1855"
     inkscape:window-height="1056"
     id="namedview65"
     showgrid="true"
     inkscape:snap-global="false"
     inkscape:zoom="14.4375"
     inkscape:cx="20.640693"
     inkscape:cy="26.458874"
     inkscape:window-x="65"
     inkscape:window-y="24"
     inkscape:window-maximized="1"
     inkscape:current-layer="svg3950">
    <inkscape:grid
       type="xygrid"
       id="grid3921" />
  </sodipodi:namedview>
  <defs
     id="defs3952">
    <linearGradient
       id="linearGradient3977-4">
      <stop
         id="stop3979-7"
         style="stop-color:#ffffff;stop-opacity:1"
         offset="0" />
      <stop
         id="stop3981-6"
         style="stop-color:#ffffff;stop-opacity:0.23529412"
         offset="0.01214366" />
      <stop
         id="stop3983-5"
         style="stop-color:#ffffff;stop-opacity:0.15686275"
         offset="0.98781353" />
      <stop
         id="stop3985-6"
         style="stop-color:#ffffff;stop-opacity:0.39215687"
         offset="1" />
    </linearGradient>
    <linearGradient
       id="linearGradient2867-449-88-871-390-598-476-591-434-148-57-177-8-3">
      <stop
         id="stop3750-1-0"
         style="stop-color:#90dbec;stop-opacity:1"
         offset="0" />
      <stop
         id="stop3752-3-7"
         style="stop-color:#55c1ec;stop-opacity:1"
         offset="0.26238" />
      <stop
         id="stop3754-1-8"
         style="stop-color:#3689e6;stop-opacity:1"
         offset="0.704952" />
      <stop
         id="stop3756-1-6"
         style="stop-color:#2b63a0;stop-opacity:1"
         offset="1" />
    </linearGradient>
    <linearGradient
       id="linearGradient5060">
      <stop
         id="stop5062"
         style="stop-color:#000000;stop-opacity:1"
         offset="0" />
      <stop
         id="stop5064"
         style="stop-color:#000000;stop-opacity:0"
         offset="1" />
    </linearGradient>
    <linearGradient
       id="linearGradient5048">
      <stop
         id="stop5050"
         style="stop-color:#000000;stop-opacity:0"
         offset="0" />
      <stop
         id="stop5056"
         style="stop-color:#000000;stop-opacity:1"
         offset="0.5" />
      <stop
         id="stop5052"
         style="stop-color:#000000;stop-opacity:0"
         offset="1" />
    </linearGradient>
    <linearGradient
       x1="23.99999"
       y1="5.8641062"
       x2="23.99999"
       y2="42.100208"
       id="linearGradient3104"
       xlink:href="#linearGradient3977-4"
       gradientUnits="userSpaceOnUse"
       gradientTransform="matrix(1.2162162,0,0,1.5405376,2.8108184,-6.9729501)" />
    <radialGradient
       cx="7.8060555"
       cy="9.9571075"
       r="12.671875"
       fx="7.2758255"
       fy="9.9571075"
       id="radialGradient3107"
       xlink:href="#linearGradient2867-449-88-871-390-598-476-591-434-148-57-177-8-3"
       gradientUnits="userSpaceOnUse"
       gradientTransform="matrix(-2.1710338e-7,8.8513721,-10.866659,-2.6569437e-7,140.18608,-80.708701)" />
    <radialGradient
       cx="605.71429"
       cy="486.64789"
       r="117.14286"
       fx="605.71429"
       fy="486.64789"
       id="radialGradient3110"
       xlink:href="#linearGradient5060"
       gradientUnits="userSpaceOnUse"
       gradientTransform="matrix(0.03132633,0,0,0.02058823,35.220859,49.45142)" />
    <radialGradient
       cx="605.71429"
       cy="486.64789"
       r="117.14286"
       fx="605.71429"
       fy="486.64789"
       id="radialGradient3113"
       xlink:href="#linearGradient5060"
       gradientUnits="userSpaceOnUse"
       gradientTransform="matrix(-0.03132632,0,0,0.02058823,28.779136,49.45142)" />
    <linearGradient
       x1="302.85715"
       y1="366.64789"
       x2="302.85715"
       y2="609.50507"
       id="linearGradient3116"
       xlink:href="#linearGradient5048"
       gradientUnits="userSpaceOnUse"
       gradientTransform="matrix(0.09153846,0,0,0.02058823,-1.084616,49.45142)" />
    <linearGradient
       x1="167.98311"
       y1="13.398731"
       x2="167.98311"
       y2="54.780239"
       id="linearGradient3512"
       xlink:href="#linearGradient5803-6"
       gradientUnits="userSpaceOnUse"
       gradientTransform="matrix(0.99526986,0,0,0.94787606,-109.26008,-44.367595)" />
    <linearGradient
       id="linearGradient2867-449-88-871-390-598-476-591-434-148-57-177-8-3-5-6">
      <stop
         id="stop3750-1-0-6-9"
         style="stop-color:#90dbec;stop-opacity:1"
         offset="0" />
      <stop
         id="stop3752-3-7-8-3"
         style="stop-color:#55c1ec;stop-opacity:1"
         offset="0.26238" />
      <stop
         id="stop3754-1-8-5-8"
         style="stop-color:#3689e6;stop-opacity:1"
         offset="0.704952" />
      <stop
         id="stop3756-1-6-3-7"
         style="stop-color:#2b63a0;stop-opacity:1"
         offset="1" />
    </linearGradient>
    <radialGradient
       cx="7.7392125"
       cy="9.9571075"
       r="12.671875"
       fx="7.2089825"
       fy="9.9571075"
       id="radialGradient3422-5"
       xlink:href="#linearGradient2867-449-88-871-390-598-476-591-434-148-57-177-8-3-5-6"
       gradientUnits="userSpaceOnUse"
       gradientTransform="matrix(0,8.4616298,-16.443533,0,196.90204,-80.463829)" />
    <linearGradient
       x1="23.99999"
       y1="4.999989"
       x2="23.99999"
       y2="43"
       id="linearGradient3448"
       xlink:href="#linearGradient3924-2-2-5-8"
       gradientUnits="userSpaceOnUse"
       gradientTransform="matrix(1.4324324,0,0,1.4362832,-2.378381,-2.4707782)" />
    <linearGradient
       id="linearGradient5803-6">
      <stop
         id="stop5805-7"
         style="stop-color:#ffffff;stop-opacity:1"
         offset="0" />
      <stop
         id="stop5807-8"
         style="stop-color:#e6f4f8;stop-opacity:1"
         offset="1" />
    </linearGradient>
    <linearGradient
       x1="25.058096"
       y1="47.027729"
       x2="25.058096"
       y2="39.999443"
       id="linearGradient6394"
       xlink:href="#linearGradient3702-501-757-8-4-1-1"
       gradientUnits="userSpaceOnUse" />
    <linearGradient
       id="linearGradient3702-501-757-8-4-1-1">
      <stop
         id="stop2895-8-9-9-1"
         style="stop-color:#181818;stop-opacity:0"
         offset="0" />
      <stop
         id="stop2897-7-8-7-7"
         style="stop-color:#181818;stop-opacity:1"
         offset="0.5" />
      <stop
         id="stop2899-4-5-1-5"
         style="stop-color:#181818;stop-opacity:0"
         offset="1" />
    </linearGradient>
    <linearGradient
       id="linearGradient3688-464-309-9-2-4-2">
      <stop
         id="stop2889-7-9-6-9"
         style="stop-color:#181818;stop-opacity:1"
         offset="0" />
      <stop
         id="stop2891-6-6-1-7"
         style="stop-color:#181818;stop-opacity:0"
         offset="1" />
    </linearGradient>
    <radialGradient
       cx="4.9929786"
       cy="43.5"
       r="2.5"
       fx="4.9929786"
       fy="43.5"
       id="radialGradient3339-1-4"
       xlink:href="#linearGradient3688-464-309-9-2-4-2"
       gradientUnits="userSpaceOnUse"
       gradientTransform="matrix(2.003784,0,0,1.4,-20.01187,-104.4)" />
    <linearGradient
       id="linearGradient3688-166-749-4-0-3-8">
      <stop
         id="stop2883-4-0-1-8"
         style="stop-color:#181818;stop-opacity:1"
         offset="0" />
      <stop
         id="stop2885-9-2-9-6"
         style="stop-color:#181818;stop-opacity:0"
         offset="1" />
    </linearGradient>
    <radialGradient
       cx="4.9929786"
       cy="43.5"
       r="2.5"
       fx="4.9929786"
       fy="43.5"
       id="radialGradient3337-2-2"
       xlink:href="#linearGradient3688-166-749-4-0-3-8"
       gradientUnits="userSpaceOnUse"
       gradientTransform="matrix(2.003784,0,0,1.4,27.98813,-17.4)" />
    <linearGradient
       id="linearGradient3924-2-2-5-8">
      <stop
         id="stop3926-9-4-9-6"
         style="stop-color:#ffffff;stop-opacity:1"
         offset="0" />
      <stop
         id="stop3928-9-8-6-5"
         style="stop-color:#ffffff;stop-opacity:0.23529412"
         offset="0.06316455" />
      <stop
         id="stop3930-3-5-1-7"
         style="stop-color:#ffffff;stop-opacity:0.15686275"
         offset="0.95056331" />
      <stop
         id="stop3932-8-0-4-8"
         style="stop-color:#ffffff;stop-opacity:0.39215687"
         offset="1" />
    </linearGradient>
    <linearGradient
       y2="43"
       x2="23.99999"
       y1="5.5641499"
       x1="23.99999"
       gradientTransform="matrix(0.89189031,0,0,1.1337975,2.5943098,-4.6837307)"
       gradientUnits="userSpaceOnUse"
       id="linearGradient4386"
       xlink:href="#linearGradient3977"
       inkscape:collect="always" />
    <linearGradient
       id="linearGradient3977">
      <stop
         id="stop3979"
         style="stop-color:#ffffff;stop-opacity:1"
         offset="0" />
      <stop
         id="stop3981"
         style="stop-color:#ffffff;stop-opacity:0.23529412"
         offset="0.03626217" />
      <stop
         id="stop3983"
         style="stop-color:#ffffff;stop-opacity:0.15686275"
         offset="0.95056331" />
      <stop
         id="stop3985"
         style="stop-color:#ffffff;stop-opacity:0.39215687"
         offset="1" />
    </linearGradient>
    <linearGradient
       y2="43"
       x2="23.99999"
       y1="5.5641499"
       x1="23.99999"
       gradientTransform="matrix(0.89189031,0,0,1.1337975,104.69634,-31.821298)"
       gradientUnits="userSpaceOnUse"
       id="linearGradient3136"
       xlink:href="#linearGradient3977"
       inkscape:collect="always" />
    <linearGradient
       y2="609.50507"
       x2="302.85715"
       y1="366.64789"
       x1="302.85715"
       gradientTransform="matrix(0.06732476,0,0,0.01468289,-0.34189201,37.050412)"
       gradientUnits="userSpaceOnUse"
       id="linearGradient4438"
       xlink:href="#linearGradient5048-9"
       inkscape:collect="always" />
    <linearGradient
       id="linearGradient5048-9">
      <stop
         id="stop5050-4"
         style="stop-color:#000000;stop-opacity:0"
         offset="0" />
      <stop
         id="stop5056-8"
         style="stop-color:#000000;stop-opacity:1"
         offset="0.5" />
      <stop
         id="stop5052-3"
         style="stop-color:#000000;stop-opacity:0"
         offset="1" />
    </linearGradient>
    <radialGradient
       cx="605.71429"
       cy="486.64789"
       r="117.14286"
       fx="605.71429"
       fy="486.64789"
       id="radialGradient3330"
       xlink:href="#linearGradient5060-4"
       gradientUnits="userSpaceOnUse"
       gradientTransform="matrix(-0.03146768,0,0,0.01978588,-45.360444,40.497047)" />
    <linearGradient
       id="linearGradient5060-4">
      <stop
         id="stop5062-5"
         style="stop-color:#000000;stop-opacity:1"
         offset="0" />
      <stop
         id="stop5064-7"
         style="stop-color:#000000;stop-opacity:0"
         offset="1" />
    </linearGradient>
    <radialGradient
       cx="605.71429"
       cy="486.64789"
       r="117.14286"
       fx="605.71429"
       fy="486.64789"
       id="radialGradient3327"
       xlink:href="#linearGradient5060-4"
       gradientUnits="userSpaceOnUse"
       gradientTransform="matrix(0.03146769,0,0,0.01978588,-38.889653,40.497047)" />
    <linearGradient
       id="linearGradient3158">
      <stop
         id="stop3160"
         style="stop-color:#000000;stop-opacity:1"
         offset="0" />
      <stop
         id="stop3162"
         style="stop-color:#000000;stop-opacity:0"
         offset="1" />
    </linearGradient>
    <radialGradient
       inkscape:collect="always"
       xlink:href="#linearGradient2867-449-88-871-390-598-476-591-434-148-57-177-8-3-3"
       id="radialGradient4367"
       gradientUnits="userSpaceOnUse"
       gradientTransform="matrix(9.7706036e-8,6.0761069,-6.0352037,7.0585561e-8,3.51222,-129.91288)"
       cx="19.556362"
       cy="-3.8301377"
       fx="19.556362"
       fy="-3.8301377"
       r="18.246725" />
    <linearGradient
       id="linearGradient2867-449-88-871-390-598-476-591-434-148-57-177-8-3-7">
      <stop
         id="stop3750-1-0-5"
         style="stop-color:#90dbec;stop-opacity:1"
         offset="0" />
      <stop
         id="stop3752-3-7-3"
         style="stop-color:#55c1ec;stop-opacity:1"
         offset="0.26238" />
      <stop
         id="stop3754-1-8-9"
         style="stop-color:#3689e6;stop-opacity:1"
         offset="0.704952" />
      <stop
         id="stop3756-1-6-2"
         style="stop-color:#2b63a0;stop-opacity:1"
         offset="1" />
    </linearGradient>
    <linearGradient
       id="linearGradient3707-319-631-407-324-3-8">
      <stop
         id="stop3760-4-4"
         style="stop-color:#185f9a;stop-opacity:1"
         offset="0" />
      <stop
         id="stop3762-0-3"
         style="stop-color:#599ec9;stop-opacity:1"
         offset="1" />
    </linearGradient>
    <linearGradient
       y2="43"
       x2="23.99999"
       y1="5.5641499"
       x1="23.99999"
       gradientTransform="matrix(1.2064959,0,0,1.5310875,3.0472539,-6.7501146)"
       gradientUnits="userSpaceOnUse"
       id="linearGradient4386-8"
       xlink:href="#linearGradient3977-6"
       inkscape:collect="always" />
    <linearGradient
       id="linearGradient3977-6">
      <stop
         id="stop3979-5"
         style="stop-color:#ffffff;stop-opacity:1"
         offset="0" />
      <stop
         id="stop3981-1"
         style="stop-color:#ffffff;stop-opacity:0.23529412"
         offset="0.03626217" />
      <stop
         id="stop3983-0"
         style="stop-color:#ffffff;stop-opacity:0.15686275"
         offset="0.95056331" />
      <stop
         id="stop3985-8"
         style="stop-color:#ffffff;stop-opacity:0.39215687"
         offset="1" />
    </linearGradient>
    <radialGradient
       cx="8.276144"
       cy="9.9941158"
       r="12.671875"
       fx="8.276144"
       fy="9.9941158"
       id="radialGradient3988-4"
       xlink:href="#linearGradient3242-4"
       gradientUnits="userSpaceOnUse"
       gradientTransform="matrix(0,10.087121,-12.383763,0,155.87414,-97.777008)" />
    <linearGradient
       id="linearGradient3242-4">
      <stop
         id="stop3244-7"
         style="stop-color:#f89b7e;stop-opacity:1"
         offset="0" />
      <stop
         id="stop3246-1"
         style="stop-color:#e35d4f;stop-opacity:1"
         offset="0.26238" />
      <stop
         id="stop3248-5"
         style="stop-color:#c6262e;stop-opacity:1"
         offset="0.66093999" />
      <stop
         id="stop3250-7"
         style="stop-color:#690b2c;stop-opacity:1"
         offset="1" />
    </linearGradient>
    <linearGradient
       x1="27.096104"
       y1="10.880992"
       x2="27.096104"
       y2="39.150768"
       id="linearGradient3446"
       xlink:href="#linearGradient3895-9-0-3-5-2-0-4-9-5"
       gradientUnits="userSpaceOnUse"
       gradientTransform="matrix(1.4102564,0,0,1.4102564,67.868241,-22.306786)" />
    <linearGradient
       id="linearGradient3895-9-0-3-5-2-0-4-9-5">
      <stop
         id="stop3897-0-5-7-89-6-6-7-0-4"
         style="stop-color:#dc5639;stop-opacity:1"
         offset="0" />
      <stop
         id="stop3899-8-7-06-3-8-3-8-0-6"
         style="stop-color:#9d0f0f;stop-opacity:1"
         offset="1" />
    </linearGradient>
    <linearGradient
       y2="39.150768"
       x2="27.096104"
       y1="10.880992"
       x1="27.096104"
       gradientTransform="matrix(1.4102564,0,0,1.4102564,67.899385,-24.324369)"
       gradientUnits="userSpaceOnUse"
       id="linearGradient3099"
       xlink:href="#linearGradient3895-9-0-3-5-2-0-4-9-5"
       inkscape:collect="always" />
    <radialGradient
       cx="7.8060555"
       cy="9.9571075"
       r="12.671875"
       fx="7.2758255"
       fy="9.9571075"
       id="radialGradient3029"
       xlink:href="#linearGradient2867-449-88-871-390-598-476-591-434-148-57-177-8-3-3"
       gradientUnits="userSpaceOnUse"
       gradientTransform="matrix(-2.1710338e-7,8.8513747,-10.866659,-2.6569444e-7,140.18608,-80.70502)" />
    <linearGradient
       id="linearGradient2867-449-88-871-390-598-476-591-434-148-57-177-8-3-3">
      <stop
         id="stop3750-1-0-7"
         style="stop-color:#ffee7d;stop-opacity:1;"
         offset="0" />
      <stop
         id="stop3752-3-7-4"
         style="stop-color:#fcd936;stop-opacity:1;"
         offset="0.26238" />
      <stop
         id="stop3754-1-8-5"
         style="stop-color:#e2880e;stop-opacity:1;"
         offset="0.704952" />
      <stop
         id="stop3756-1-6-2-5"
         style="stop-color:#ac871f;stop-opacity:1;"
         offset="1" />
    </linearGradient>
    <radialGradient
       r="12.671875"
       fy="9.9571075"
       fx="7.2758255"
       cy="9.9571075"
       cx="7.8060555"
       gradientTransform="matrix(-2.1710338e-7,8.8513747,-10.866659,-2.6569444e-7,141.64061,-12.48856)"
       gradientUnits="userSpaceOnUse"
       id="radialGradient3118"
       xlink:href="#linearGradient2867-449-88-871-390-598-476-591-434-148-57-177-8-3-3"
       inkscape:collect="always" />
  </defs>
  <metadata
     id="metadata3955">
    <rdf:RDF>
      <cc:Work
         rdf:about="">
        <dc:format>image/svg+xml</dc:format>
        <dc:type
           rdf:resource="http://purl.org/dc/dcmitype/StillImage" />
        <dc:title />
      </cc:Work>
    </rdf:RDF>
  </metadata>
  <rect
     width="44.199997"
     height="5"
     x="9.8999996"
     y="57.000004"
     id="rect2879"
     style="opacity:0.3;fill:url(#linearGradient3116);fill-opacity:1;fill-rule:nonzero;stroke:none;stroke-width:1;marker:none;visibility:visible;display:inline;overflow:visible" />
  <path
     d="m 9.9,57.00022 c 0,0 0,4.9997 0,4.9997 -1.6132281,0.01 -3.9,-1.1202 -3.9,-2.5002 0,-1.38 1.8002408,-2.4995 3.9,-2.4995 z"
     id="path2881"
     style="opacity:0.3;fill:url(#radialGradient3113);fill-opacity:1;fill-rule:nonzero;stroke:none;stroke-width:1;marker:none;visibility:visible;display:inline;overflow:visible" />
  <path
     d="m 54.099999,57.00022 c 0,0 0,4.9997 0,4.9997 C 55.713227,62.00992 58,60.87972 58,59.49972 c 0,-1.38 -1.800241,-2.4995 -3.900001,-2.4995 z"
     id="path2883"
     style="opacity:0.3;fill:url(#radialGradient3110);fill-opacity:1;fill-rule:nonzero;stroke:none;stroke-width:1;marker:none;visibility:visible;display:inline;overflow:visible" />
  <path
     d="m 8.535217,0.500001 c 4.709272,0 12.72192,0.041218 12.72192,0.041218 l 12.085965,-0.020545 9.76424,9.804996 12.31886,12.398529 0.0738,36.775801 c 0,0 -31.33333,0 -47.000002,0 0,-19.632227 0.03523,-39.367767 0.03523,-58.9999958 z"
     id="path4160-3"
     style="fill:url(#radialGradient4367);fill-opacity:1.0;stroke:none;display:inline"
     inkscape:connector-curvature="0"
     sodipodi:nodetypes="cccccccc" />
  <path
     sodipodi:nodetypes="ccccccc"
     id="path4572-6"
     d="m 42.095941,0.6687286 9.552273,9.6840174 3.68056,3.731313 0,-2.981177 -0.0208,-7.494469 c -0.0119,-2.6920284 0.002,-2.9567394 0.002,-2.9567394 z"
     style="color:#000000;fill:#ac871f;fill-opacity:1;stroke:#ac871f;stroke-width:1.33188127999999995;stroke-linecap:round;stroke-linejoin:round;stroke-miterlimit:4;stroke-opacity:1;stroke-dasharray:none;stroke-dashoffset:0;marker:none;visibility:visible;display:inline;overflow:visible;enable-background:accumulate"
     inkscape:connector-curvature="0" />
  <path
     d="m 54.323323,58.321096 -44.6403491,0 0,-56.6502423 23.1707771,0.025588 9.387667,9.4693573 12.03066,12.003705 z"
     inkscape:connector-curvature="0"
     id="rect6741-1-1"
     style="opacity:0.5;fill:none;stroke:url(#linearGradient4386-8);stroke-width:1.35077524;stroke-linecap:round;stroke-linejoin:round;stroke-miterlimit:4;stroke-opacity:1;stroke-dasharray:none;stroke-dashoffset:0"
     sodipodi:nodetypes="ccccccc" />
  <path
     d="m 8.4999684,0.4998999 c 4.8874156,0 11.8916366,8.2423e-4 21.5000316,0.001724 0.432696,4.052e-5 3.239697,1.2195e-4 3.239697,1.2195e-4 5.808242,5.63534415 9.220772,9.15858755 9.220772,9.15858755 l 13.039546,12.9679276 3.1e-5,36.871859 c 0,0 -31.333384,0 -47.0000776,0 0,-19.6668 0,-39.3334 0,-58.99997015 z"
     id="path4160-6-1"
     style="opacity:0.3;fill:none;stroke:#000000;stroke-width:0.9999218;stroke-linecap:butt;stroke-linejoin:round;stroke-miterlimit:4;stroke-opacity:1;stroke-dasharray:none;stroke-dashoffset:0;display:inline"
     inkscape:connector-curvature="0"
     sodipodi:nodetypes="cssccccsc" />
  <path
     inkscape:connector-curvature="0"
     style="opacity:0.1;fill:#000000;fill-opacity:1"
     d="m 36.931355,17.000003 -2.291419,0.366667 c -6.204888,0.92194 -12.431983,1.825 -18.636868,2.733332 -0.0041,7.93685 -0.0041,15.863149 0,23.799999 6.172526,0.911734 12.353817,1.790955 18.522297,2.733333 L 36.931355,47 c 0,-1.132863 0.07638,-2.633803 0.07638,-3.766666 2.835476,-0.0068 5.680956,0.0068 8.516435,0 0.821118,-0.02041 1.947601,0.0294 2.29142,-0.766667 0.287188,-1.537701 0.05391,-3.115356 0.114575,-4.666666 -0.07898,-5.156522 0.190999,-8.7518 0,-14.199998 -1.913545,0.01396 -6.340307,-0.03599 -8.058154,-0.100004 l -2.864272,0 c 0,-2.041197 -0.07638,-4.458802 -0.07638,-6.499999 z m 0.267332,7.299999 9.776717,0 0,17.933332 -9.776717,0 0,-0.833333 7.63806,0 0,-3.433333 -7.63806,-0.03333 0,-1.1 7.63806,0 -4.009981,-4.366667 -3.628079,3.433333 0,-6.333333 c 0.635625,1.163188 2.008165,1.966667 3.628079,1.966667 2.218871,0 4.009981,-1.497744 4.009981,-3.366666 0,-1.868925 -1.79111,-3.4 -4.009981,-3.4 -1.616004,0 -2.99033,0.808003 -3.628079,1.966667 l 0,-2.433333 z M 22.45723,26.366669 c 2.204471,0.05784 4.778624,-0.324749 6.606922,1.066667 1.67555,1.91161 1.606308,5.98777 0.305522,8.333332 -1.360234,1.90202 -3.069551,1.588844 -4.468264,1.666667 -0.817071,-0.06804 -1.631154,-0.125157 -2.44418,-0.2 0.04046,-3.619722 -0.0162,-7.246945 0,-10.866666 z m 3.055224,1.8 c -0.215013,0.0066 -0.410821,0.02399 -0.611044,0.03333 -0.0081,1.139668 -0.0427,6.063733 0.03819,7.199998 0.808981,-0.07825 1.898589,-0.03593 2.367799,-0.733332 0.376177,-0.6838 0.368558,-5.299876 -0.07638,-5.966667 -0.400447,-0.487334 -1.073529,-0.553108 -1.718563,-0.533332 z"
     id="path4762" />
  <path
     id="path4248"
     d="m 36.748999,17.923628 -2.191685,0.350708 c -5.934825,0.881813 -11.890891,1.745568 -17.825712,2.614366 -0.0039,7.591404 -0.0039,15.172716 0,22.76412 5.903871,0.872052 11.816125,1.713005 17.716127,2.614367 l 2.30127,0.350707 c 0,-1.083556 0.07306,-2.519169 0.07306,-3.602724 2.712066,-0.0065 5.433697,0.0065 8.145765,0 0.785378,-0.01953 1.862833,0.02812 2.191686,-0.733298 0.274689,-1.470774 0.05156,-2.979763 0.109584,-4.463553 -0.07556,-4.932088 0.182688,-8.370883 0,-13.581954 -1.830258,0.01335 -6.06435,-0.03442 -7.707428,-0.09565 l -2.739607,0 c 0,-1.952355 -0.07306,-4.264736 -0.07306,-6.217091 z m 0.255697,6.982272 9.351193,0 0,17.152796 -9.351193,0 0,-0.797063 7.30562,0 0,-3.2839 -7.30562,-0.03188 0,-1.052123 7.30562,0 -3.835451,-4.176611 -3.470169,3.2839 0,-6.057679 c 0.607961,1.11256 1.920761,1.881069 3.470169,1.881069 2.122297,0 3.835451,-1.432555 3.835451,-3.220135 0,-1.787581 -1.713154,-3.252017 -3.835451,-3.252017 -1.545669,0 -2.860178,0.772836 -3.470169,1.881069 l 0,-2.327424 z m -14.099845,1.976716 c 2.108524,0.05532 4.570638,-0.310614 6.31936,1.020241 1.602623,1.828409 1.536394,5.727157 0.292225,7.97063 -1.30103,1.819236 -2.935952,1.519691 -4.273787,1.594126 -0.781509,-0.06508 -1.560159,-0.11971 -2.337798,-0.191295 0.03869,-3.462176 -0.0155,-6.931526 0,-10.393702 z m 2.922247,1.721656 c -0.205653,0.0063 -0.39294,0.02293 -0.584449,0.03188 -0.0077,1.090065 -0.04085,5.799814 0.03653,6.886624 0.77377,-0.07485 1.815955,-0.03436 2.264742,-0.701415 0.359805,-0.654039 0.352517,-5.069203 -0.07306,-5.706971 -0.383018,-0.466125 -1.026803,-0.529035 -1.643765,-0.510121 z"
     style="opacity:0.29999999999999999;fill:#705300;fill-opacity:1"
     inkscape:connector-curvature="0" />
  <path
     inkscape:connector-curvature="0"
     style="fill:#ffffff;fill-opacity:1"
     d="m 36.0471,17.209952 -2.191686,0.350708 c -5.934824,0.881813 -11.89089,1.745568 -17.825711,2.614367 -0.0039,7.591403 -0.0039,15.172716 0,22.764119 5.903871,0.872052 11.816125,1.713006 17.716127,2.614367 l 2.30127,0.350708 c 0,-1.083557 0.07306,-2.519169 0.07306,-3.602725 2.712067,-0.0065 5.433698,0.0065 8.145766,0 0.785377,-0.01953 1.862832,0.02812 2.191686,-0.733298 0.274689,-1.470774 0.05156,-2.979763 0.109584,-4.463553 -0.07556,-4.932088 0.182687,-8.370883 0,-13.581954 -1.830259,0.01336 -6.06435,-0.03442 -7.707428,-0.09565 l -2.739608,0 c 0,-1.952355 -0.07306,-4.264737 -0.07306,-6.217092 z m 0.255697,6.982272 9.351193,0 0,17.152796 -9.351193,0 0,-0.797063 7.305619,0 0,-3.283899 -7.305619,-0.03188 0,-1.052123 7.305619,0 -3.83545,-4.17661 -3.470169,3.283899 0,-6.057679 c 0.607961,1.112561 1.92076,1.881069 3.470169,1.881069 2.122296,0 3.83545,-1.432554 3.83545,-3.220134 0,-1.787581 -1.713154,-3.252017 -3.83545,-3.252017 -1.545669,0 -2.860178,0.772835 -3.470169,1.881068 l 0,-2.327424 z m -14.099846,1.976717 c 2.108525,0.05532 4.570639,-0.310615 6.319361,1.02024 1.602623,1.828409 1.536394,5.727157 0.292225,7.97063 -1.30103,1.819236 -2.935952,1.519692 -4.273787,1.594126 -0.781509,-0.06508 -1.560159,-0.11971 -2.337799,-0.191295 0.03869,-3.462175 -0.0155,-6.931526 0,-10.393701 z m 2.922248,1.721656 c -0.205654,0.0063 -0.392941,0.02294 -0.584449,0.03188 -0.0077,1.090065 -0.04085,5.799814 0.03653,6.886625 0.77377,-0.07484 1.815955,-0.03436 2.264742,-0.701416 0.359804,-0.654038 0.352516,-5.069202 -0.07306,-5.706971 -0.383017,-0.466125 -1.026803,-0.529035 -1.643764,-0.51012 z"
     id="path30-3-4" />
</svg>
