<?xml version="1.0" encoding="UTF-8" standalone="no"?>
<!-- Created with Inkscape (http://www.inkscape.org/) -->

<svg
   xmlns:dc="http://purl.org/dc/elements/1.1/"
   xmlns:cc="http://creativecommons.org/ns#"
   xmlns:rdf="http://www.w3.org/1999/02/22-rdf-syntax-ns#"
   xmlns:svg="http://www.w3.org/2000/svg"
   xmlns="http://www.w3.org/2000/svg"
   xmlns:xlink="http://www.w3.org/1999/xlink"
   xmlns:sodipodi="http://sodipodi.sourceforge.net/DTD/sodipodi-0.dtd"
   xmlns:inkscape="http://www.inkscape.org/namespaces/inkscape"
   version="1.1"
   width="64"
   height="64"
   id="svg3950"
   inkscape:version="0.48.4 r9939"
   sodipodi:docname="3.svg">
  <sodipodi:namedview
     pagecolor="#ffffff"
     bordercolor="#666666"
     borderopacity="1"
     objecttolerance="10"
     gridtolerance="10"
     guidetolerance="10"
     inkscape:pageopacity="0"
     inkscape:pageshadow="2"
     inkscape:window-width="930"
     inkscape:window-height="1028"
     id="namedview65"
     showgrid="true"
     inkscape:snap-global="false"
     inkscape:zoom="14.4375"
     inkscape:cx="32.103896"
     inkscape:cy="34.770563"
     inkscape:window-x="992"
     inkscape:window-y="24"
     inkscape:window-maximized="0"
     inkscape:current-layer="svg3950">
    <inkscape:grid
       type="xygrid"
       id="grid3921" />
  </sodipodi:namedview>
  <defs
     id="defs3952">
    <linearGradient
       id="linearGradient3977-4">
      <stop
         id="stop3979-7"
         style="stop-color:#ffffff;stop-opacity:1"
         offset="0" />
      <stop
         id="stop3981-6"
         style="stop-color:#ffffff;stop-opacity:0.23529412"
         offset="0.01214366" />
      <stop
         id="stop3983-5"
         style="stop-color:#ffffff;stop-opacity:0.15686275"
         offset="0.98781353" />
      <stop
         id="stop3985-6"
         style="stop-color:#ffffff;stop-opacity:0.39215687"
         offset="1" />
    </linearGradient>
    <linearGradient
       id="linearGradient2867-449-88-871-390-598-476-591-434-148-57-177-8-3">
      <stop
         id="stop3750-1-0"
         style="stop-color:#90dbec;stop-opacity:1"
         offset="0" />
      <stop
         id="stop3752-3-7"
         style="stop-color:#55c1ec;stop-opacity:1"
         offset="0.26238" />
      <stop
         id="stop3754-1-8"
         style="stop-color:#3689e6;stop-opacity:1"
         offset="0.704952" />
      <stop
         id="stop3756-1-6"
         style="stop-color:#2b63a0;stop-opacity:1"
         offset="1" />
    </linearGradient>
    <linearGradient
       id="linearGradient5060">
      <stop
         id="stop5062"
         style="stop-color:#000000;stop-opacity:1"
         offset="0" />
      <stop
         id="stop5064"
         style="stop-color:#000000;stop-opacity:0"
         offset="1" />
    </linearGradient>
    <linearGradient
       id="linearGradient5048">
      <stop
         id="stop5050"
         style="stop-color:#000000;stop-opacity:0"
         offset="0" />
      <stop
         id="stop5056"
         style="stop-color:#000000;stop-opacity:1"
         offset="0.5" />
      <stop
         id="stop5052"
         style="stop-color:#000000;stop-opacity:0"
         offset="1" />
    </linearGradient>
    <linearGradient
       x1="23.99999"
       y1="5.8641062"
       x2="23.99999"
       y2="42.100208"
       id="linearGradient3104"
       xlink:href="#linearGradient3977-4"
       gradientUnits="userSpaceOnUse"
       gradientTransform="matrix(1.2162162,0,0,1.5405376,2.8108184,-6.9729501)" />
    <radialGradient
       cx="7.8060555"
       cy="9.9571075"
       r="12.671875"
       fx="7.2758255"
       fy="9.9571075"
       id="radialGradient3107"
       xlink:href="#linearGradient2867-449-88-871-390-598-476-591-434-148-57-177-8-3"
       gradientUnits="userSpaceOnUse"
       gradientTransform="matrix(-2.1710338e-7,8.8513721,-10.866659,-2.6569437e-7,140.18608,-80.708701)" />
    <radialGradient
       cx="605.71429"
       cy="486.64789"
       r="117.14286"
       fx="605.71429"
       fy="486.64789"
       id="radialGradient3110"
       xlink:href="#linearGradient5060"
       gradientUnits="userSpaceOnUse"
       gradientTransform="matrix(0.03132633,0,0,0.02058823,35.220859,49.45142)" />
    <radialGradient
       cx="605.71429"
       cy="486.64789"
       r="117.14286"
       fx="605.71429"
       fy="486.64789"
       id="radialGradient3113"
       xlink:href="#linearGradient5060"
       gradientUnits="userSpaceOnUse"
       gradientTransform="matrix(-0.03132632,0,0,0.02058823,28.779136,49.45142)" />
    <linearGradient
       x1="302.85715"
       y1="366.64789"
       x2="302.85715"
       y2="609.50507"
       id="linearGradient3116"
       xlink:href="#linearGradient5048"
       gradientUnits="userSpaceOnUse"
       gradientTransform="matrix(0.09153846,0,0,0.02058823,-1.084616,49.45142)" />
    <linearGradient
       x1="167.98311"
       y1="13.398731"
       x2="167.98311"
       y2="54.780239"
       id="linearGradient3512"
       xlink:href="#linearGradient5803-6"
       gradientUnits="userSpaceOnUse"
       gradientTransform="matrix(0.99526986,0,0,0.94787606,-109.26008,-44.367595)" />
    <linearGradient
       id="linearGradient2867-449-88-871-390-598-476-591-434-148-57-177-8-3-5-6">
      <stop
         id="stop3750-1-0-6-9"
         style="stop-color:#90dbec;stop-opacity:1"
         offset="0" />
      <stop
         id="stop3752-3-7-8-3"
         style="stop-color:#55c1ec;stop-opacity:1"
         offset="0.26238" />
      <stop
         id="stop3754-1-8-5-8"
         style="stop-color:#3689e6;stop-opacity:1"
         offset="0.704952" />
      <stop
         id="stop3756-1-6-3-7"
         style="stop-color:#2b63a0;stop-opacity:1"
         offset="1" />
    </linearGradient>
    <radialGradient
       cx="7.7392125"
       cy="9.9571075"
       r="12.671875"
       fx="7.2089825"
       fy="9.9571075"
       id="radialGradient3422-5"
       xlink:href="#linearGradient2867-449-88-871-390-598-476-591-434-148-57-177-8-3-5-6"
       gradientUnits="userSpaceOnUse"
       gradientTransform="matrix(0,8.4616298,-16.443533,0,196.90204,-80.463829)" />
    <linearGradient
       x1="23.99999"
       y1="4.999989"
       x2="23.99999"
       y2="43"
       id="linearGradient3448"
       xlink:href="#linearGradient3924-2-2-5-8"
       gradientUnits="userSpaceOnUse"
       gradientTransform="matrix(1.4324324,0,0,1.4362832,-2.378381,-2.4707782)" />
    <linearGradient
       id="linearGradient5803-6">
      <stop
         id="stop5805-7"
         style="stop-color:#ffffff;stop-opacity:1"
         offset="0" />
      <stop
         id="stop5807-8"
         style="stop-color:#e6f4f8;stop-opacity:1"
         offset="1" />
    </linearGradient>
    <linearGradient
       x1="25.058096"
       y1="47.027729"
       x2="25.058096"
       y2="39.999443"
       id="linearGradient6394"
       xlink:href="#linearGradient3702-501-757-8-4-1-1"
       gradientUnits="userSpaceOnUse" />
    <linearGradient
       id="linearGradient3702-501-757-8-4-1-1">
      <stop
         id="stop2895-8-9-9-1"
         style="stop-color:#181818;stop-opacity:0"
         offset="0" />
      <stop
         id="stop2897-7-8-7-7"
         style="stop-color:#181818;stop-opacity:1"
         offset="0.5" />
      <stop
         id="stop2899-4-5-1-5"
         style="stop-color:#181818;stop-opacity:0"
         offset="1" />
    </linearGradient>
    <linearGradient
       id="linearGradient3688-464-309-9-2-4-2">
      <stop
         id="stop2889-7-9-6-9"
         style="stop-color:#181818;stop-opacity:1"
         offset="0" />
      <stop
         id="stop2891-6-6-1-7"
         style="stop-color:#181818;stop-opacity:0"
         offset="1" />
    </linearGradient>
    <radialGradient
       cx="4.9929786"
       cy="43.5"
       r="2.5"
       fx="4.9929786"
       fy="43.5"
       id="radialGradient3339-1-4"
       xlink:href="#linearGradient3688-464-309-9-2-4-2"
       gradientUnits="userSpaceOnUse"
       gradientTransform="matrix(2.003784,0,0,1.4,-20.01187,-104.4)" />
    <linearGradient
       id="linearGradient3688-166-749-4-0-3-8">
      <stop
         id="stop2883-4-0-1-8"
         style="stop-color:#181818;stop-opacity:1"
         offset="0" />
      <stop
         id="stop2885-9-2-9-6"
         style="stop-color:#181818;stop-opacity:0"
         offset="1" />
    </linearGradient>
    <radialGradient
       cx="4.9929786"
       cy="43.5"
       r="2.5"
       fx="4.9929786"
       fy="43.5"
       id="radialGradient3337-2-2"
       xlink:href="#linearGradient3688-166-749-4-0-3-8"
       gradientUnits="userSpaceOnUse"
       gradientTransform="matrix(2.003784,0,0,1.4,27.98813,-17.4)" />
    <linearGradient
       id="linearGradient3924-2-2-5-8">
      <stop
         id="stop3926-9-4-9-6"
         style="stop-color:#ffffff;stop-opacity:1"
         offset="0" />
      <stop
         id="stop3928-9-8-6-5"
         style="stop-color:#ffffff;stop-opacity:0.23529412"
         offset="0.06316455" />
      <stop
         id="stop3930-3-5-1-7"
         style="stop-color:#ffffff;stop-opacity:0.15686275"
         offset="0.95056331" />
      <stop
         id="stop3932-8-0-4-8"
         style="stop-color:#ffffff;stop-opacity:0.39215687"
         offset="1" />
    </linearGradient>
    <linearGradient
       y2="43"
       x2="23.99999"
       y1="5.5641499"
       x1="23.99999"
       gradientTransform="matrix(0.89189031,0,0,1.1337975,2.5943098,-4.6837307)"
       gradientUnits="userSpaceOnUse"
       id="linearGradient4386"
       xlink:href="#linearGradient3977"
       inkscape:collect="always" />
    <linearGradient
       id="linearGradient3977">
      <stop
         id="stop3979"
         style="stop-color:#ffffff;stop-opacity:1"
         offset="0" />
      <stop
         id="stop3981"
         style="stop-color:#ffffff;stop-opacity:0.23529412"
         offset="0.03626217" />
      <stop
         id="stop3983"
         style="stop-color:#ffffff;stop-opacity:0.15686275"
         offset="0.95056331" />
      <stop
         id="stop3985"
         style="stop-color:#ffffff;stop-opacity:0.39215687"
         offset="1" />
    </linearGradient>
    <linearGradient
       y2="43"
       x2="23.99999"
       y1="5.5641499"
       x1="23.99999"
       gradientTransform="matrix(0.89189031,0,0,1.1337975,104.69634,-31.821298)"
       gradientUnits="userSpaceOnUse"
       id="linearGradient3136"
       xlink:href="#linearGradient3977"
       inkscape:collect="always" />
    <linearGradient
       y2="609.50507"
       x2="302.85715"
       y1="366.64789"
       x1="302.85715"
       gradientTransform="matrix(0.06732476,0,0,0.01468289,-0.34189201,37.050412)"
       gradientUnits="userSpaceOnUse"
       id="linearGradient4438"
       xlink:href="#linearGradient5048-9"
       inkscape:collect="always" />
    <linearGradient
       id="linearGradient5048-9">
      <stop
         id="stop5050-4"
         style="stop-color:#000000;stop-opacity:0"
         offset="0" />
      <stop
         id="stop5056-8"
         style="stop-color:#000000;stop-opacity:1"
         offset="0.5" />
      <stop
         id="stop5052-3"
         style="stop-color:#000000;stop-opacity:0"
         offset="1" />
    </linearGradient>
    <radialGradient
       cx="605.71429"
       cy="486.64789"
       r="117.14286"
       fx="605.71429"
       fy="486.64789"
       id="radialGradient3330"
       xlink:href="#linearGradient5060-4"
       gradientUnits="userSpaceOnUse"
       gradientTransform="matrix(-0.03146768,0,0,0.01978588,-45.360444,40.497047)" />
    <linearGradient
       id="linearGradient5060-4">
      <stop
         id="stop5062-5"
         style="stop-color:#000000;stop-opacity:1"
         offset="0" />
      <stop
         id="stop5064-7"
         style="stop-color:#000000;stop-opacity:0"
         offset="1" />
    </linearGradient>
    <radialGradient
       cx="605.71429"
       cy="486.64789"
       r="117.14286"
       fx="605.71429"
       fy="486.64789"
       id="radialGradient3327"
       xlink:href="#linearGradient5060-4"
       gradientUnits="userSpaceOnUse"
       gradientTransform="matrix(0.03146769,0,0,0.01978588,-38.889653,40.497047)" />
    <linearGradient
       id="linearGradient3158">
      <stop
         id="stop3160"
         style="stop-color:#000000;stop-opacity:1"
         offset="0" />
      <stop
         id="stop3162"
         style="stop-color:#000000;stop-opacity:0"
         offset="1" />
    </linearGradient>
    <radialGradient
       inkscape:collect="always"
       xlink:href="#linearGradient2867-449-88-871-390-598-476-591-434-148-57-177-8-3-3"
       id="radialGradient4367"
       gradientUnits="userSpaceOnUse"
       gradientTransform="matrix(9.7706036e-8,6.0761069,-6.0352037,7.0585561e-8,3.51222,-129.91288)"
       cx="19.556362"
       cy="-3.8301377"
       fx="19.556362"
       fy="-3.8301377"
       r="18.246725" />
    <linearGradient
       id="linearGradient2867-449-88-871-390-598-476-591-434-148-57-177-8-3-7">
      <stop
         id="stop3750-1-0-5"
         style="stop-color:#90dbec;stop-opacity:1"
         offset="0" />
      <stop
         id="stop3752-3-7-3"
         style="stop-color:#55c1ec;stop-opacity:1"
         offset="0.26238" />
      <stop
         id="stop3754-1-8-9"
         style="stop-color:#3689e6;stop-opacity:1"
         offset="0.704952" />
      <stop
         id="stop3756-1-6-2"
         style="stop-color:#2b63a0;stop-opacity:1"
         offset="1" />
    </linearGradient>
    <linearGradient
       id="linearGradient3707-319-631-407-324-3-8">
      <stop
         id="stop3760-4-4"
         style="stop-color:#185f9a;stop-opacity:1"
         offset="0" />
      <stop
         id="stop3762-0-3"
         style="stop-color:#599ec9;stop-opacity:1"
         offset="1" />
    </linearGradient>
    <linearGradient
       y2="43"
       x2="23.99999"
       y1="5.5641499"
       x1="23.99999"
       gradientTransform="matrix(1.2064959,0,0,1.5310875,3.0472539,-6.7501146)"
       gradientUnits="userSpaceOnUse"
       id="linearGradient4386-8"
       xlink:href="#linearGradient3977-6"
       inkscape:collect="always" />
    <linearGradient
       id="linearGradient3977-6">
      <stop
         id="stop3979-5"
         style="stop-color:#ffffff;stop-opacity:1"
         offset="0" />
      <stop
         id="stop3981-1"
         style="stop-color:#ffffff;stop-opacity:0.23529412"
         offset="0.03626217" />
      <stop
         id="stop3983-0"
         style="stop-color:#ffffff;stop-opacity:0.15686275"
         offset="0.95056331" />
      <stop
         id="stop3985-8"
         style="stop-color:#ffffff;stop-opacity:0.39215687"
         offset="1" />
    </linearGradient>
    <radialGradient
       cx="8.276144"
       cy="9.9941158"
       r="12.671875"
       fx="8.276144"
       fy="9.9941158"
       id="radialGradient3988-4"
       xlink:href="#linearGradient3242-4"
       gradientUnits="userSpaceOnUse"
       gradientTransform="matrix(0,10.087121,-12.383763,0,155.87414,-97.777008)" />
    <linearGradient
       id="linearGradient3242-4">
      <stop
         id="stop3244-7"
         style="stop-color:#f89b7e;stop-opacity:1"
         offset="0" />
      <stop
         id="stop3246-1"
         style="stop-color:#e35d4f;stop-opacity:1"
         offset="0.26238" />
      <stop
         id="stop3248-5"
         style="stop-color:#c6262e;stop-opacity:1"
         offset="0.66093999" />
      <stop
         id="stop3250-7"
         style="stop-color:#690b2c;stop-opacity:1"
         offset="1" />
    </linearGradient>
    <linearGradient
       x1="27.096104"
       y1="10.880992"
       x2="27.096104"
       y2="39.150768"
       id="linearGradient3446"
       xlink:href="#linearGradient3895-9-0-3-5-2-0-4-9-5"
       gradientUnits="userSpaceOnUse"
       gradientTransform="matrix(1.4102564,0,0,1.4102564,67.868241,-22.306786)" />
    <linearGradient
       id="linearGradient3895-9-0-3-5-2-0-4-9-5">
      <stop
         id="stop3897-0-5-7-89-6-6-7-0-4"
         style="stop-color:#dc5639;stop-opacity:1"
         offset="0" />
      <stop
         id="stop3899-8-7-06-3-8-3-8-0-6"
         style="stop-color:#9d0f0f;stop-opacity:1"
         offset="1" />
    </linearGradient>
    <linearGradient
       y2="39.150768"
       x2="27.096104"
       y1="10.880992"
       x1="27.096104"
       gradientTransform="matrix(1.4102564,0,0,1.4102564,67.899385,-24.324369)"
       gradientUnits="userSpaceOnUse"
       id="linearGradient3099"
       xlink:href="#linearGradient3895-9-0-3-5-2-0-4-9-5"
       inkscape:collect="always" />
    <radialGradient
       cx="7.8060555"
       cy="9.9571075"
       r="12.671875"
       fx="7.2758255"
       fy="9.9571075"
       id="radialGradient3029"
       xlink:href="#linearGradient2867-449-88-871-390-598-476-591-434-148-57-177-8-3-3"
       gradientUnits="userSpaceOnUse"
       gradientTransform="matrix(-2.1710338e-7,8.8513747,-10.866659,-2.6569444e-7,140.18608,-80.70502)" />
    <linearGradient
       id="linearGradient2867-449-88-871-390-598-476-591-434-148-57-177-8-3-3">
      <stop
         id="stop3750-1-0-7"
         style="stop-color:#ffcd7d;stop-opacity:1"
         offset="0" />
      <stop
         id="stop3752-3-7-4"
         style="stop-color:#fc8f36;stop-opacity:1"
         offset="0.26238" />
      <stop
         id="stop3754-1-8-5"
         style="stop-color:#e23a0e;stop-opacity:1"
         offset="0.704952" />
      <stop
         id="stop3756-1-6-2-5"
         style="stop-color:#ac441f;stop-opacity:1"
         offset="1" />
    </linearGradient>
    <radialGradient
       r="12.671875"
       fy="9.9571075"
       fx="7.2758255"
       cy="9.9571075"
       cx="7.8060555"
       gradientTransform="matrix(-2.1710338e-7,8.8513747,-10.866659,-2.6569444e-7,141.64061,-12.48856)"
       gradientUnits="userSpaceOnUse"
       id="radialGradient3118"
       xlink:href="#linearGradient2867-449-88-871-390-598-476-591-434-148-57-177-8-3-3"
       inkscape:collect="always" />
  </defs>
  <metadata
     id="metadata3955">
    <rdf:RDF>
      <cc:Work
         rdf:about="">
        <dc:format>image/svg+xml</dc:format>
        <dc:type
           rdf:resource="http://purl.org/dc/dcmitype/StillImage" />
        <dc:title></dc:title>
      </cc:Work>
    </rdf:RDF>
  </metadata>
  <rect
     width="44.199997"
     height="5"
     x="9.8999996"
     y="57.000004"
     id="rect2879"
     style="opacity:0.3;fill:url(#linearGradient3116);fill-opacity:1;fill-rule:nonzero;stroke:none;stroke-width:1;marker:none;visibility:visible;display:inline;overflow:visible" />
  <path
     d="m 9.9,57.00022 c 0,0 0,4.9997 0,4.9997 -1.6132281,0.01 -3.9,-1.1202 -3.9,-2.5002 0,-1.38 1.8002408,-2.4995 3.9,-2.4995 z"
     id="path2881"
     style="opacity:0.3;fill:url(#radialGradient3113);fill-opacity:1;fill-rule:nonzero;stroke:none;stroke-width:1;marker:none;visibility:visible;display:inline;overflow:visible" />
  <path
     d="m 54.099999,57.00022 c 0,0 0,4.9997 0,4.9997 C 55.713227,62.00992 58,60.87972 58,59.49972 c 0,-1.38 -1.800241,-2.4995 -3.900001,-2.4995 z"
     id="path2883"
     style="opacity:0.3;fill:url(#radialGradient3110);fill-opacity:1;fill-rule:nonzero;stroke:none;stroke-width:1;marker:none;visibility:visible;display:inline;overflow:visible" />
  <path
     d="m 8.535217,0.500001 c 4.709272,0 12.72192,0.041218 12.72192,0.041218 l 12.085965,-0.020545 9.76424,9.804996 12.31886,12.398529 0.0738,36.775801 c 0,0 -31.33333,0 -47.000002,0 0,-19.632227 0.03523,-39.367767 0.03523,-58.9999958 z"
     id="path4160-3"
     style="fill:url(#radialGradient4367);fill-opacity:1.0;stroke:none;display:inline"
     inkscape:connector-curvature="0"
     sodipodi:nodetypes="cccccccc" />
  <path
     sodipodi:nodetypes="ccccccc"
     id="path4572-6"
     d="m 42.095941,0.6687286 9.552273,9.6840174 3.68056,3.731313 0,-2.981177 -0.0208,-7.494469 c -0.0119,-2.6920284 0.002,-2.9567394 0.002,-2.9567394 z"
     style="color:#000000;fill:#ba3d12;fill-opacity:1;stroke:#ba3d12;stroke-width:1.33188127999999995;stroke-linecap:round;stroke-linejoin:round;stroke-miterlimit:4;stroke-opacity:1;stroke-dasharray:none;stroke-dashoffset:0;marker:none;visibility:visible;display:inline;overflow:visible;enable-background:accumulate"
     inkscape:connector-curvature="0" />
  <path
     d="m 54.323323,58.321096 -44.6403491,0 0,-56.6502423 23.1707771,0.025588 9.387667,9.4693573 12.03066,12.003705 z"
     inkscape:connector-curvature="0"
     id="rect6741-1-1"
     style="opacity:0.5;fill:none;stroke:url(#linearGradient4386-8);stroke-width:1.35077524;stroke-linecap:round;stroke-linejoin:round;stroke-miterlimit:4;stroke-opacity:1;stroke-dasharray:none;stroke-dashoffset:0"
     sodipodi:nodetypes="ccccccc" />
  <path
     d="m 8.4999684,0.4998999 c 4.8874156,0 11.8916366,8.2423e-4 21.5000316,0.001724 0.432696,4.052e-5 3.239697,1.2195e-4 3.239697,1.2195e-4 5.808242,5.63534415 9.220772,9.15858755 9.220772,9.15858755 l 13.039546,12.9679276 3.1e-5,36.871859 c 0,0 -31.333384,0 -47.0000776,0 0,-19.6668 0,-39.3334 0,-58.99997015 z"
     id="path4160-6-1"
     style="opacity:0.3;fill:none;stroke:#000000;stroke-width:0.9999218;stroke-linecap:butt;stroke-linejoin:round;stroke-miterlimit:4;stroke-opacity:1;stroke-dasharray:none;stroke-dashoffset:0;display:inline"
     inkscape:connector-curvature="0"
     sodipodi:nodetypes="cssccccsc" />
  <path
     inkscape:connector-curvature="0"
     d="m 33.843644,14.982417 -17,3 a 1.0008581,1.0008581 0 0 0 -0.8125,1 l 0,22 a 1.0008581,1.0008581 0 0 0 0.8125,1 l 17,3 a 1.0008581,1.0008581 0 0 0 1.1875,-1 l 0,-3 10,0 a 1.0008581,1.0008581 0 0 0 1,-1 l 0,-5 1,0 a 1.0008581,1.0008581 0 0 0 1,-1 l 0,-13 0,-1 a 1.0008581,1.0008581 0 0 0 -1,-1 l -1,0 -11,0 0,-3 a 1.0008581,1.0008581 0 0 0 -1.1875,-1 z m 4.1875,9.40625 c 0.771652,0.302454 1.291296,0.822098 1.59375,1.59375 l -1.59375,0 0,-1.59375 z m -11.125,2.125 c 0.04672,0.03637 0.2001,0.01469 0.25,0.0625 0.08543,0.08184 0.06409,0.345033 0.125,0.4375 -0.109863,-0.179157 -0.214709,-0.357895 -0.375,-0.5 z m 8.125,1.5625 a 1.0008581,1.0008581 0 0 0 1,0.90625 l 2.59375,0 c -0.436386,1.113353 -1.317237,2 -2.59375,2 -0.203858,0 -0.453349,-0.04849 -0.75,-0.125 a 1.0008581,1.0008581 0 0 0 -0.25,-0.03125 l 0,-2.75 z m -7.9375,1.875 c -0.01782,0.0205 -0.01277,0.07441 -0.03125,0.09375 -0.01413,0.01479 -0.04787,0.01694 -0.0625,0.03125 0.03488,-0.03813 0.0618,-0.08465 0.09375,-0.125 z m -2.937499,0.65625 c 0.08908,0.08908 0.161003,0.03923 0.25,0.09375 a 1.0008581,1.0008581 0 0 0 -0.25,0.125 l 0,-0.21875 z"
     id="path3444"
     style="opacity:0.15;color:#000000;fill:url(#linearGradient3099);fill-opacity:1;fill-rule:nonzero;stroke:none;stroke-width:0.98542738;marker:none;visibility:visible;display:inline;overflow:visible;enable-background:accumulate" />
  <path
     inkscape:connector-curvature="0"
     d="m 34.031144,15.982417 -17,3 0,22 17,3 0,-28 z m 1,4 0,1 11,0 0,13 1,0 0,-13 0,-1 -1,0 -11,0 z m 0,2 0,2.15625 c 0.320165,-0.08256 0.654049,-0.15625 1,-0.15625 l 0,4 4,0 c 0,2.209139 -1.790861,4 -4,4 -0.345951,0 -0.679835,-0.07368 -1,-0.15625 l 0,1.15625 7,0 0,1 -7,0 0,2 7,0 0,1 -7,0 0,3 10,0 0,-18 -10,0 z m 2,1 c 2.209139,0 4,1.790861 4,4 l -4,0 0,-4 z m -11.124999,2.25 c 1.002039,0.01711 1.510829,0.216218 1.937499,0.625 0.55656,0.533216 0.78788,1.234256 0.78125,2.46875 -0.0109,2.026249 -1.21889,3.28125 -3.124999,3.28125 l -0.71875,0 -0.0625,1.625 -0.03125,1.65625 -0.75,-0.0625 -0.78125,-0.03125 0,-4.71875 0,-4.71875 1.5625,-0.09375 c 0.46177,-0.02619 0.85348,-0.03695 1.1875,-0.03125 z m -1.15625,1.6875 0,1.4375 c 0,0.789097 0.07149,1.477753 0.125,1.53125 0.15632,0.156315 0.59078,0.12946 1.125,-0.09375 0.648259,-0.27086 0.942599,-1.117307 0.687499,-1.96875 -0.18809,-0.627799 -0.60504,-0.90625 -1.406249,-0.90625 l -0.53125,0 z"
     id="path3065-9"
     style="opacity:0.3;color:#000000;fill:#ae2109;fill-opacity:1;fill-rule:nonzero;stroke:none;stroke-width:0.99999994;marker:none;visibility:visible;display:inline;overflow:visible;enable-background:accumulate" />
  <path
     inkscape:connector-curvature="0"
     d="m 34.031144,14.982417 -17,3 0,22 17,3 0,-28 z m 1,4 0,1 11,0 0,13 1,0 0,-13 0,-1 -1,0 -11,0 z m 0,2 0,2.15625 c 0.320165,-0.08256 0.654049,-0.15625 1,-0.15625 l 0,4 4,0 c 0,2.209139 -1.790861,4 -4,4 -0.345951,0 -0.679835,-0.07368 -1,-0.15625 l 0,1.15625 7,0 0,1 -7,0 0,2 7,0 0,1 -7,0 0,3 10,0 0,-18 -10,0 z m 2,1 c 2.209139,0 4,1.790861 4,4 l -4,0 0,-4 z m -11.124999,2.25 c 1.002039,0.01711 1.510829,0.216218 1.937499,0.625 0.55656,0.533216 0.78788,1.234256 0.78125,2.46875 -0.0109,2.026249 -1.21889,3.28125 -3.124999,3.28125 l -0.71875,0 -0.0625,1.625 -0.03125,1.65625 -0.75,-0.0625 -0.78125,-0.03125 0,-4.71875 0,-4.71875 1.5625,-0.09375 c 0.46177,-0.02619 0.85348,-0.03695 1.1875,-0.03125 z m -1.15625,1.6875 0,1.4375 c 0,0.789097 0.07149,1.477753 0.125,1.53125 0.15632,0.156315 0.59078,0.12946 1.125,-0.09375 0.648259,-0.27086 0.942599,-1.117307 0.687499,-1.96875 -0.18809,-0.627799 -0.60504,-0.90625 -1.406249,-0.90625 l -0.53125,0 z"
     id="path3065"
     style="color:#000000;fill:#ffffff;fill-opacity:1;fill-rule:nonzero;stroke:none;stroke-width:0.99999994;marker:none;visibility:visible;display:inline;overflow:visible;enable-background:accumulate" />
</svg>
