<?xml version="1.0" encoding="UTF-8" standalone="no"?>
<!-- Created with Inkscape (http://www.inkscape.org/) -->

<svg
   xmlns:dc="http://purl.org/dc/elements/1.1/"
   xmlns:cc="http://creativecommons.org/ns#"
   xmlns:rdf="http://www.w3.org/1999/02/22-rdf-syntax-ns#"
   xmlns:svg="http://www.w3.org/2000/svg"
   xmlns="http://www.w3.org/2000/svg"
   xmlns:xlink="http://www.w3.org/1999/xlink"
   xmlns:sodipodi="http://sodipodi.sourceforge.net/DTD/sodipodi-0.dtd"
   xmlns:inkscape="http://www.inkscape.org/namespaces/inkscape"
   version="1.1"
   width="16"
   height="16"
   id="svg4060"
   inkscape:version="0.48.4 r9939"
   sodipodi:docname="bash.svg">
  <sodipodi:namedview
     pagecolor="#ffffff"
     bordercolor="#666666"
     borderopacity="1"
     objecttolerance="10"
     gridtolerance="10"
     guidetolerance="10"
     inkscape:pageopacity="0"
     inkscape:pageshadow="2"
     inkscape:window-width="1308"
     inkscape:window-height="480"
     id="namedview28"
     showgrid="false"
     inkscape:zoom="14.75"
     inkscape:cx="8"
     inkscape:cy="8"
     inkscape:window-x="75"
     inkscape:window-y="34"
     inkscape:window-maximized="0"
     inkscape:current-layer="layer1" />
  <defs
     id="defs4062">
    <linearGradient
       x1="20"
       y1="26.000008"
       x2="20"
       y2="13.000008"
       id="linearGradient3965"
       xlink:href="#linearGradient3680-6-6-6-3-7-4"
       gradientUnits="userSpaceOnUse"
       gradientTransform="matrix(0.34453791,0,0,0.34453791,-0.032751,-0.124165)" />
    <linearGradient
       id="linearGradient3680-6-6-6-3-7-4">
      <stop
         id="stop3682-4-6-1-3-7-5"
         style="stop-color:#dcdcdc;stop-opacity:1"
         offset="0" />
      <stop
         id="stop3684-8-5-8-0-2-3"
         style="stop-color:#ffffff;stop-opacity:1"
         offset="1" />
    </linearGradient>
    <linearGradient
       x1="23.99999"
       y1="4.999989"
       x2="23.99999"
       y2="43"
       id="linearGradient3896"
       xlink:href="#linearGradient3924-4-8"
       gradientUnits="userSpaceOnUse"
       gradientTransform="matrix(0.2972973,0,0,0.2972973,0.86486973,0.8648672)" />
    <linearGradient
       id="linearGradient3924-4-8">
      <stop
         id="stop3926-0-4"
         style="stop-color:#ffffff;stop-opacity:1"
         offset="0" />
      <stop
         id="stop3928-6-8"
         style="stop-color:#ffffff;stop-opacity:0.23529412"
         offset="0.06316455" />
      <stop
         id="stop3930-2-1"
         style="stop-color:#ffffff;stop-opacity:0.15686275"
         offset="0.95056331" />
      <stop
         id="stop3932-9-0"
         style="stop-color:#ffffff;stop-opacity:0.39215687"
         offset="1" />
    </linearGradient>
    <linearGradient
       id="linearGradient2867-449-88-871-390-598-476-591-434-148-57-177-8-3-3-6-4-8-8-8-5-7">
      <stop
         id="stop3750-1-0-7-6-6-1-3-9-3-0"
         style="stop-color:#505050;stop-opacity:1"
         offset="0" />
      <stop
         id="stop3752-3-7-4-0-32-8-923-0-7-8"
         style="stop-color:#2b2b2b;stop-opacity:1"
         offset="0.26238" />
      <stop
         id="stop3754-1-8-5-2-7-6-7-1-9-4"
         style="stop-color:#0a0a0a;stop-opacity:1"
         offset="0.704952" />
      <stop
         id="stop3756-1-6-2-6-6-1-96-6-0-0"
         style="stop-color:#000000;stop-opacity:1"
         offset="1" />
    </linearGradient>
    <radialGradient
       cx="7.1183534"
       cy="9.9571075"
       r="12.671875"
       fx="7.1183534"
       fy="9.9571075"
       id="radialGradient4058"
       xlink:href="#linearGradient2867-449-88-871-390-598-476-591-434-148-57-177-8-3-3-6-4-8-8-8-5-7"
       gradientUnits="userSpaceOnUse"
       gradientTransform="matrix(0,3.0467483,-3.7404337,0,45.520924,-26.295845)" />
    <linearGradient
       inkscape:collect="always"
       xlink:href="#outerBackgroundGradient-33"
       id="linearGradient6281"
       gradientUnits="userSpaceOnUse"
       gradientTransform="matrix(0,-1,1,0,276,572)"
       x1="417"
       y1="148"
       x2="431"
       y2="148" />
    <linearGradient
       id="outerBackgroundGradient-33">
      <stop
         style="stop-color:#5393e7;stop-opacity:1;"
         offset="0"
         id="stop3864-8-6-336" />
      <stop
         style="stop-color:#82b9ff;stop-opacity:1;"
         offset="1"
         id="stop3866-9-1-59" />
    </linearGradient>
    <linearGradient
       y2="148"
       x2="431"
       y1="148"
       x1="417"
       gradientTransform="matrix(0,-1,1,0,-110.57627,428.61017)"
       gradientUnits="userSpaceOnUse"
       id="linearGradient3298"
       xlink:href="#outerBackgroundGradient-33"
       inkscape:collect="always" />
  </defs>
  <metadata
     id="metadata4065">
    <rdf:RDF>
      <cc:Work
         rdf:about="">
        <dc:format>image/svg+xml</dc:format>
        <dc:type
           rdf:resource="http://purl.org/dc/dcmitype/StillImage" />
        <dc:title></dc:title>
      </cc:Work>
    </rdf:RDF>
  </metadata>
  <g
     id="layer1">
    <rect
       width="13"
       height="13"
       rx="1"
       ry="1"
       x="1.5000014"
       y="1.4999985"
       id="rect5505-21-7"
       style="opacity:0.9;color:#000000;fill:url(#radialGradient4058);fill-opacity:1;fill-rule:nonzero;stroke:none;stroke-width:0.99999994;marker:none;visibility:visible;display:inline;overflow:visible;enable-background:accumulate" />
    <rect
       width="11"
       height="11"
       x="2.5"
       y="2.4999969"
       id="rect6741-0-3"
       style="opacity:0.3;fill:none;stroke:url(#linearGradient3896);stroke-width:1;stroke-linecap:round;stroke-linejoin:round;stroke-miterlimit:4;stroke-opacity:1;stroke-dasharray:none;stroke-dashoffset:0" />
    <rect
       width="13.000003"
       height="13.000003"
       rx="1"
       ry="1"
       x="1.5"
       y="1.499997"
       id="rect5505-21-2-8"
       style="opacity:0.7;color:#000000;fill:none;stroke:#000000;stroke-width:1;stroke-linecap:round;stroke-linejoin:round;stroke-miterlimit:4;stroke-opacity:1;stroke-dasharray:none;stroke-dashoffset:0;marker:none;visibility:visible;display:inline;overflow:visible;enable-background:accumulate" />
    <path
       style="opacity:0.20000000000000001;color:#000000;fill:#000000;fill-opacity:1;fill-rule:nonzero;stroke:none;stroke-width:1.50000000000000000;marker:none;visibility:visible;display:inline;overflow:visible;enable-background:accumulate"
       d="m 8.4798487,3.6019395 c 2.4892193,0.0883 3.9618193,1.66669 4.1241993,3.96798 0.18303,2.5941705 -0.63008,3.2696405 -0.2812,3.7909305 0.72855,1.08856 -0.30447,1.37399 -0.98939,1.90588 -0.42601,0.33083 -1.24801,0.17921 -1.6559293,-0.29161 -1.23954,-0.67217 -0.76231,0.61926 -3.32227,0.62488 -1.33078,-0.0511 -2.55064,-0.9521 -2.89527,-2.16625 -0.52854,-1.8620205 0.24721,-3.2361005 2.40578,-3.8846605 0.62435,-0.18759 1.86105,-0.0743 2.40578,-0.44783 0.51447,-0.35275 0.32971,-0.86081 -0.30202,-0.9269 -0.90603,-0.0948 -2.31962,0.29094 -3.15564,0.13539 -0.67108,-0.12487 -0.87534,-1.32655 -0.43741,-1.8434 0.71664,-0.84581 2.55453,-0.80893 3.59305,-0.854 0.17489,-0.008 0.34437,-0.0163 0.51032,-0.0104 z m -0.33327,5.56142 c -0.57656,0 -1.05188,0.40374 -1.05188,0.9060705 0,0.50234 0.47532,0.91649 1.05188,0.91649 0.57656,0 1.03105,-0.41415 1.03105,-0.91649 0,-0.5023305 -0.45449,-0.9060705 -1.03105,-0.9060705 z"
       id="path3899"
       inkscape:connector-curvature="0"
       sodipodi:nodetypes="ssssccsssssssssssss" />
    <path
       sodipodi:nodetypes="ssssccsssssssssssss"
       inkscape:connector-curvature="0"
       id="path3922"
       d="m 8.4798487,2.6019395 c 2.4892193,0.0883 3.9618193,1.66669 4.1241993,3.96798 0.18303,2.59417 -0.63008,3.26964 -0.2812,3.7909305 0.72855,1.08856 -0.30447,1.37399 -0.98939,1.90588 -0.42601,0.33083 -1.24801,0.17921 -1.6559293,-0.29161 -1.23954,-0.67217 -0.76231,0.61926 -3.32227,0.62488 -1.33078,-0.0511 -2.55064,-0.9521 -2.89527,-2.16625 -0.52854,-1.8620205 0.24721,-3.2361005 2.40578,-3.8846605 0.62435,-0.18759 1.86105,-0.0743 2.40578,-0.44783 0.51447,-0.35275 0.32971,-0.86081 -0.30202,-0.9269 -0.90603,-0.0948 -2.31962,0.29094 -3.15564,0.13539 -0.67108,-0.12487 -0.87534,-1.32655 -0.43741,-1.8434 0.71664,-0.84581 2.55453,-0.80893 3.59305,-0.854 0.17489,-0.008 0.34437,-0.0163 0.51032,-0.0104 z m -0.33327,5.56142 c -0.57656,0 -1.05188,0.40374 -1.05188,0.90607 0,0.50234 0.47532,0.91649 1.05188,0.91649 0.57656,0 1.03105,-0.41415 1.03105,-0.91649 0,-0.50233 -0.45449,-0.90607 -1.03105,-0.90607 z"
       style="color:#000000;fill:#ffffff;fill-opacity:1;fill-rule:nonzero;stroke:none;stroke-width:1.50000000000000000;marker:none;visibility:visible;display:inline;overflow:visible;enable-background:accumulate" />
  </g>
</svg>
