<?xml version="1.0" encoding="UTF-8" standalone="no"?>
<!-- Created with Inkscape (http://www.inkscape.org/) -->

<svg
   xmlns:dc="http://purl.org/dc/elements/1.1/"
   xmlns:cc="http://creativecommons.org/ns#"
   xmlns:rdf="http://www.w3.org/1999/02/22-rdf-syntax-ns#"
   xmlns:svg="http://www.w3.org/2000/svg"
   xmlns="http://www.w3.org/2000/svg"
   xmlns:xlink="http://www.w3.org/1999/xlink"
   xmlns:sodipodi="http://sodipodi.sourceforge.net/DTD/sodipodi-0.dtd"
   xmlns:inkscape="http://www.inkscape.org/namespaces/inkscape"
   width="16"
   height="16"
   id="svg3903"
   version="1.1"
   inkscape:version="0.48.4 r9939"
   sodipodi:docname="skype.svg">
  <defs
     id="defs3905">
    <linearGradient
       inkscape:collect="always"
       xlink:href="#linearGradient4873"
       id="linearGradient3852"
       gradientUnits="userSpaceOnUse"
       gradientTransform="matrix(0.26057125,0,0,0.26070243,20.616637,991.02277)"
       x1="36.514965"
       y1="62.84341"
       x2="36.514965"
       y2="224.55743" />
    <linearGradient
       id="linearGradient4873">
      <stop
         offset="0"
         style="stop-color:#ffffff;stop-opacity:1"
         id="stop4875" />
      <stop
         offset="1"
         style="stop-color:#ffffff;stop-opacity:0"
         id="stop4877" />
    </linearGradient>
    <linearGradient
       gradientTransform="matrix(0.35309498,0,0,0.35309498,-0.47427984,-323.3606)"
       inkscape:collect="always"
       xlink:href="#linearGradient3707-319-631-407-324"
       id="linearGradient3788"
       x1="25"
       y1="1048.7344"
       x2="25"
       y2="1005.9898"
       gradientUnits="userSpaceOnUse" />
    <linearGradient
       id="linearGradient2490-9-1">
      <stop
         offset="0"
         style="stop-color:#365f0e;stop-opacity:1"
         id="stop2492-8-6" />
      <stop
         offset="1"
         style="stop-color:#84a718;stop-opacity:1"
         id="stop2494-1-3" />
    </linearGradient>
    <linearGradient
       id="linearGradient3242-6-4">
      <stop
         offset="0"
         style="stop-color:#eef87e;stop-opacity:1"
         id="stop3244-3-7" />
      <stop
         offset="0.26238"
         style="stop-color:#cde34f;stop-opacity:1"
         id="stop3246-9-9" />
      <stop
         offset="0.66093999"
         style="stop-color:#93b723;stop-opacity:1"
         id="stop3248-3-7" />
      <stop
         offset="1"
         style="stop-color:#5a7e0d;stop-opacity:1"
         id="stop3250-3-2" />
    </linearGradient>
    <radialGradient
       r="20.397499"
       fy="7.3722291"
       fx="50.150719"
       cy="7.4866333"
       cx="50.301655"
       gradientTransform="matrix(1.5348368e-8,0.71163641,-0.9388748,2.0249379e-8,15.029011,-1.399603)"
       gradientUnits="userSpaceOnUse"
       id="radialGradient3899"
       xlink:href="#linearGradient2867-449-88-871-390-598-476-591-434-148-57-177"
       inkscape:collect="always" />
    <linearGradient
       y2="58.838844"
       x2="12.984406"
       y1="227.61346"
       x1="12.984406"
       gradientTransform="matrix(0.0920064,0,0,0.09205272,6.8053518,26.81565)"
       gradientUnits="userSpaceOnUse"
       id="linearGradient3901"
       xlink:href="#linearGradient3707-319-631-407-1-846-4-8-4-9"
       inkscape:collect="always" />
    <linearGradient
       id="linearGradient3702-501-757">
      <stop
         offset="0"
         style="stop-color:#181818;stop-opacity:0"
         id="stop2895" />
      <stop
         offset="0.5"
         style="stop-color:#181818;stop-opacity:1"
         id="stop2897" />
      <stop
         offset="1"
         style="stop-color:#181818;stop-opacity:0"
         id="stop2899" />
    </linearGradient>
    <linearGradient
       id="linearGradient3688-464-309">
      <stop
         offset="0"
         style="stop-color:#181818;stop-opacity:1"
         id="stop2889" />
      <stop
         offset="1"
         style="stop-color:#181818;stop-opacity:0"
         id="stop2891" />
    </linearGradient>
    <linearGradient
       id="linearGradient3688-166-749">
      <stop
         offset="0"
         style="stop-color:#181818;stop-opacity:1"
         id="stop2883" />
      <stop
         offset="1"
         style="stop-color:#181818;stop-opacity:0"
         id="stop2885" />
    </linearGradient>
    <linearGradient
       id="linearGradient3707-319-631-407-324">
      <stop
         offset="0"
         style="stop-color:#185f9a;stop-opacity:1;"
         id="stop3760" />
      <stop
         offset="1"
         style="stop-color:#599ec9;stop-opacity:1;"
         id="stop3762" />
    </linearGradient>
    <linearGradient
       id="linearGradient2867-449-88-871-390-598-476-591-434-148-57-177">
      <stop
         offset="0"
         style="stop-color:#90dbec;stop-opacity:1;"
         id="stop3750" />
      <stop
         offset="0.26238"
         style="stop-color:#55c1ec;stop-opacity:1;"
         id="stop3752" />
      <stop
         offset="0.704952"
         style="stop-color:#3689e6;stop-opacity:1;"
         id="stop3754" />
      <stop
         offset="1"
         style="stop-color:#2b63a0;stop-opacity:1;"
         id="stop3756" />
    </linearGradient>
    <linearGradient
       id="linearGradient3707-319-631-407-1-846-4-8-4-9">
      <stop
         id="stop3788-5-5-3-5"
         style="stop-color:#365a7c;stop-opacity:1"
         offset="0" />
      <stop
         id="stop3790-9-0-0-0"
         style="stop-color:#5ea1ca;stop-opacity:1;"
         offset="1" />
    </linearGradient>
    <linearGradient
       id="linearGradient3924">
      <stop
         offset="0"
         style="stop-color:#ffffff;stop-opacity:1;"
         id="stop3926" />
      <stop
         id="stop3928"
         style="stop-color:#ffffff;stop-opacity:0.23529412;"
         offset="0.06316455" />
      <stop
         offset="0.95056331"
         style="stop-color:#ffffff;stop-opacity:0.15686275;"
         id="stop3930" />
      <stop
         offset="1"
         style="stop-color:#ffffff;stop-opacity:0.39215687;"
         id="stop3932" />
    </linearGradient>
    <linearGradient
       id="linearGradient8265-821-176-38-919-66-249-7-7">
      <stop
         id="stop2687-1-9"
         style="stop-color:#ffffff;stop-opacity:1"
         offset="0" />
      <stop
         id="stop2689-5-4"
         style="stop-color:#ffffff;stop-opacity:0"
         offset="1" />
    </linearGradient>
    <linearGradient
       id="linearGradient3707-319-631-407-1-846-4-8-4">
      <stop
         id="stop3788-5-5-3"
         style="stop-color:#365a7c;stop-opacity:1"
         offset="0" />
      <stop
         id="stop3790-9-0-0"
         style="stop-color:#5ea1ca;stop-opacity:1;"
         offset="1" />
    </linearGradient>
    <linearGradient
       id="linearGradient3707-319-631-407-1-846-4-2">
      <stop
         id="stop3788-5-54"
         style="stop-color:#365a7c;stop-opacity:1"
         offset="0" />
      <stop
         id="stop3790-9-7"
         style="stop-color:#5ea1ca;stop-opacity:1;"
         offset="1" />
    </linearGradient>
    <linearGradient
       gradientTransform="matrix(2.1153735,0,0,2.1153253,-107.57709,32.426559)"
       gradientUnits="userSpaceOnUse"
       xlink:href="#linearGradient4873-4"
       id="linearGradient2407"
       y2="5.4675598"
       x2="63.397362"
       y1="-12.489107"
       x1="63.397362" />
    <linearGradient
       id="linearGradient4873-4">
      <stop
         offset="0"
         style="stop-color:#ffffff;stop-opacity:1"
         id="stop4875-4" />
      <stop
         offset="1"
         style="stop-color:#ffffff;stop-opacity:0"
         id="stop4877-9" />
    </linearGradient>
    <radialGradient
       gradientTransform="matrix(0,2.2874593,-3.0194057,0,36.047437,-50.630156)"
       gradientUnits="userSpaceOnUse"
       xlink:href="#linearGradient3242-187-536"
       id="radialGradient2410"
       fy="3.9900031"
       fx="23.895569"
       r="20.397499"
       cy="3.9900031"
       cx="23.895569" />
    <linearGradient
       id="linearGradient3242-187-536">
      <stop
         offset="0"
         style="stop-color:#8badea;stop-opacity:1"
         id="stop2778" />
      <stop
         offset="0.26238"
         style="stop-color:#6396cd;stop-opacity:1"
         id="stop2780" />
      <stop
         offset="0.66093999"
         style="stop-color:#3b7caf;stop-opacity:1"
         id="stop2782" />
      <stop
         offset="1"
         style="stop-color:#194c70;stop-opacity:1"
         id="stop2784" />
    </linearGradient>
    <linearGradient
       gradientTransform="matrix(0.9584364,0,0,0.9584366,0.9975246,1.9975253)"
       gradientUnits="userSpaceOnUse"
       xlink:href="#linearGradient2490-182-124"
       id="linearGradient2412"
       y2="3.0816143"
       x2="18.379412"
       y1="44.980297"
       x1="18.379412" />
    <linearGradient
       id="linearGradient2490-182-124">
      <stop
         offset="0"
         style="stop-color:#1f4b6a;stop-opacity:1"
         id="stop2788" />
      <stop
         offset="1"
         style="stop-color:#4083c2;stop-opacity:1"
         id="stop2790" />
    </linearGradient>
    <radialGradient
       gradientTransform="matrix(2.1647059,0,0,0.7529402,-188.95015,-35.708768)"
       gradientUnits="userSpaceOnUse"
       xlink:href="#linearGradient8838"
       id="radialGradient2415"
       fy="4.625"
       fx="62.625"
       r="10.625"
       cy="4.625"
       cx="62.625" />
    <linearGradient
       id="linearGradient8838">
      <stop
         offset="0"
         style="stop-color:#000000;stop-opacity:1"
         id="stop8840" />
      <stop
         offset="1"
         style="stop-color:#000000;stop-opacity:0"
         id="stop8842" />
    </linearGradient>
    <radialGradient
       inkscape:collect="always"
       xlink:href="#linearGradient8838"
       id="radialGradient4000"
       gradientUnits="userSpaceOnUse"
       gradientTransform="matrix(2.1647059,0,0,0.7529402,-188.95015,-35.708768)"
       cx="62.625"
       cy="4.625"
       fx="62.625"
       fy="4.625"
       r="10.625" />
    <linearGradient
       id="linearGradient3155-40">
      <stop
         style="stop-color:#181818;stop-opacity:1;"
         offset="0"
         id="stop2541" />
      <stop
         id="stop2543"
         offset="0.13482948"
         style="stop-color:#dbdbdb;stop-opacity:1;" />
      <stop
         style="stop-color:#a4a4a4;stop-opacity:1;"
         offset="0.20224422"
         id="stop2616" />
      <stop
         id="stop2618"
         offset="0.26965895"
         style="stop-color:#ffffff;stop-opacity:1;" />
      <stop
         style="stop-color:#8d8d8d;stop-opacity:1;"
         offset="0.44650277"
         id="stop2549" />
      <stop
         id="stop2551"
         offset="0.57114136"
         style="stop-color:#959595;stop-opacity:1;" />
      <stop
         style="stop-color:#cecece;stop-opacity:1;"
         offset="0.72038066"
         id="stop2553" />
      <stop
         style="stop-color:#181818;stop-opacity:1;"
         offset="1"
         id="stop2555" />
    </linearGradient>
    <linearGradient
       id="linearGradient3155-40-33">
      <stop
         style="stop-color:#1b1b1b;stop-opacity:1;"
         offset="0"
         id="stop2847" />
      <stop
         id="stop2849"
         offset="0.13482948"
         style="stop-color:#f3f3f3;stop-opacity:1;" />
      <stop
         style="stop-color:#b6b6b6;stop-opacity:1;"
         offset="0.20224422"
         id="stop2851" />
      <stop
         id="stop2853"
         offset="0.26965895"
         style="stop-color:#ffffff;stop-opacity:1;" />
      <stop
         style="stop-color:#9d9d9d;stop-opacity:1;"
         offset="0.44650277"
         id="stop2855" />
      <stop
         id="stop2857"
         offset="0.57114136"
         style="stop-color:#a6a6a6;stop-opacity:1;" />
      <stop
         style="stop-color:#e5e5e5;stop-opacity:1;"
         offset="0.72038066"
         id="stop2859" />
      <stop
         style="stop-color:#1b1b1b;stop-opacity:1;"
         offset="1"
         id="stop2861" />
    </linearGradient>
    <linearGradient
       id="linearGradient3191-577-747-672">
      <stop
         style="stop-color:#a1a1a1;stop-opacity:1;"
         offset="0"
         id="stop2865" />
      <stop
         style="stop-color:#828282;stop-opacity:1;"
         offset="1"
         id="stop2867" />
    </linearGradient>
    <linearGradient
       id="linearGradient3319">
      <stop
         style="stop-color:#7f96af;stop-opacity:1;"
         offset="0"
         id="stop3321" />
      <stop
         style="stop-color:#485c73;stop-opacity:1;"
         offset="1"
         id="stop3323" />
    </linearGradient>
    <linearGradient
       id="linearGradient4642">
      <stop
         id="stop4644"
         offset="0"
         style="stop-color:#4e535a;stop-opacity:1;" />
      <stop
         style="stop-color:#151c20;stop-opacity:1"
         offset="0.15977758"
         id="stop4646" />
      <stop
         id="stop4648"
         offset="0.1672256"
         style="stop-color:#4b5f76;stop-opacity:1;" />
      <stop
         style="stop-color:#4b5f76;stop-opacity:1;"
         offset="1"
         id="stop4650" />
    </linearGradient>
    <linearGradient
       id="linearGradient8967">
      <stop
         id="stop8969"
         offset="0"
         style="stop-color:#bdccdd;stop-opacity:1;" />
      <stop
         id="stop8971"
         offset="1"
         style="stop-color:#506985;stop-opacity:1;" />
    </linearGradient>
    <linearGradient
       id="linearGradient5048">
      <stop
         style="stop-color:black;stop-opacity:0;"
         offset="0"
         id="stop5050" />
      <stop
         id="stop5056"
         offset="0.5"
         style="stop-color:black;stop-opacity:1;" />
      <stop
         style="stop-color:black;stop-opacity:0;"
         offset="1"
         id="stop5052" />
    </linearGradient>
  </defs>
  <sodipodi:namedview
     id="base"
     pagecolor="#ffffff"
     bordercolor="#666666"
     borderopacity="1.0"
     inkscape:pageopacity="0.0"
     inkscape:pageshadow="2"
     inkscape:zoom="32.319231"
     inkscape:cx="11"
     inkscape:cy="10.999998"
     inkscape:current-layer="layer1"
     showgrid="true"
     inkscape:grid-bbox="true"
     inkscape:document-units="px"
     inkscape:window-width="1214"
     inkscape:window-height="796"
     inkscape:window-x="81"
     inkscape:window-y="69"
     inkscape:window-maximized="0" />
  <metadata
     id="metadata3908">
    <rdf:RDF>
      <cc:Work
         rdf:about="">
        <dc:format>image/svg+xml</dc:format>
        <dc:type
           rdf:resource="http://purl.org/dc/dcmitype/StillImage" />
        <dc:title></dc:title>
      </cc:Work>
    </rdf:RDF>
  </metadata>
  <g
     id="layer1"
     inkscape:label="Layer 1"
     inkscape:groupmode="layer"
     transform="translate(0,-32)">
    <path
       style="color:#000000;fill:url(#radialGradient3899);fill-opacity:1;fill-rule:nonzero;stroke:url(#linearGradient3901);stroke-width:0.81691504;stroke-linecap:round;stroke-linejoin:round;stroke-miterlimit:4;stroke-opacity:1;stroke-dasharray:none;stroke-dashoffset:0;marker:none;visibility:visible;display:inline;overflow:visible;enable-background:accumulate"
       d="m 4.5843447,32.408719 c -0.5142487,0 -0.848797,0.05194 -1.3081019,0.202148 -1.4710724,0.480951 -2.57437144,1.753928 -2.82890304,3.277181 -0.043105,0.257971 -0.04466,0.446311 -0.031905,0.861904 0.018415,0.599979 0.088832,0.935454 0.2977793,1.436426 0.064289,0.154091 0.1299916,0.315526 0.1488896,0.361746 0.025245,0.06179 0.02278,0.189929 -0.010635,0.468204 -0.065657,0.546732 -0.061702,1.618375 0.010635,2.064193 0.15315624,0.944035 0.50287394,1.914446 0.96778264,2.670741 0.436582,0.710249 1.1262242,1.470322 1.7654057,1.957839 1.5918358,1.214082 3.5492528,1.716254 5.5195516,1.415135 l 0.244605,-0.03213 0.340318,0.148935 c 0.3552264,0.158645 0.7977004,0.278062 1.1804824,0.329861 0.301057,0.04075 1.024278,0.01836 1.329372,-0.04258 1.270483,-0.25377 2.343501,-1.060591 2.935252,-2.213165 0.319131,-0.621587 0.446574,-1.176582 0.44667,-1.904594 8.3e-5,-0.665654 -0.09085,-1.101091 -0.361589,-1.734402 l -0.138255,-0.319233 0.04254,-0.265987 c 0.06504,-0.406975 0.08619,-1.354187 0.04254,-1.776948 -0.200938,-1.945868 -1.156781,-3.732246 -2.648115,-4.926449 -1.544542,-1.23682 -3.4974814,-1.778823 -5.477012,-1.532185 L 6.6368881,32.90854 6.3391082,32.770233 C 5.7168887,32.499464 5.2449193,32.408472 4.5843434,32.408472 z"
       id="path2986"
       inkscape:connector-curvature="0" />
    <path
       style="color:#000000;fill:url(#linearGradient3788);fill-opacity:1;fill-rule:nonzero;stroke:none;stroke-width:1;marker:none;visibility:visible;display:inline;overflow:visible;enable-background:accumulate"
       d="m 8.1877404,34.452428 c 0.5748133,1.77e-4 0.6791022,0.0085 1.0312332,0.08556 1.5206084,0.331661 2.5825604,1.137672 2.6249594,1.999542 0.0065,0.130891 -0.0097,0.285689 -0.03125,0.352847 -0.05218,0.162247 -0.225946,0.357051 -0.41666,0.459801 -0.138743,0.07475 -0.198018,0.08548 -0.458326,0.08548 -0.232364,0 -0.318823,-0.01448 -0.41666,-0.06412 -0.06874,-0.0346 -0.320047,-0.262032 -0.5520754,-0.50256 -0.470012,-0.487378 -0.652717,-0.607782 -1.135399,-0.737757 -0.3312965,-0.08933 -1.0306452,-0.09057 -1.3437287,-0.0106 -0.6174147,0.157481 -0.9607841,0.539 -0.9583177,1.069242 0.00163,0.341443 0.1890366,0.600615 0.5937403,0.791287 0.3024028,0.142437 0.4788483,0.189682 1.8437211,0.502559 0.624389,0.143145 1.2571914,0.299142 1.4062284,0.352848 1.127156,0.406095 1.725267,1.133611 1.843721,2.224074 0.09345,0.860317 -0.175682,1.670246 -0.739572,2.245507 -0.486352,0.496135 -1.16633,0.808553 -2.0728854,0.962291 -0.352805,0.05964 -1.344292,0.09318 -1.7187225,0.05349 C 6.3108723,44.176065 5.2723784,43.658321 4.7502965,42.857008 4.566984,42.575662 4.469051,42.269211 4.469051,41.990901 c 0,-0.364606 0.1360997,-0.61029 0.4166603,-0.769818 0.1490081,-0.08488 0.1889133,-0.09629 0.4583257,-0.09629 0.4218938,0 0.5425091,0.08326 0.9999842,0.662935 0.4751727,0.602204 0.8248326,0.843579 1.3853948,0.962396 1.008087,0.213517 1.9777116,-0.113732 2.291631,-0.769888 0.07362,-0.153915 0.09412,-0.215918 0.09375,-0.449102 -3.88e-4,-0.233749 -0.02124,-0.296565 -0.09375,-0.438403 -0.0946,-0.185092 -0.2819444,-0.365842 -0.4895764,-0.4598 C 9.4555006,40.598681 8.7429829,40.399076 7.9481621,40.194528 7.153343,39.98998 6.3865019,39.78635 6.250273,39.734728 5.2773241,39.36652 4.7552762,38.820742 4.5627995,38.002515 c -0.091476,-0.388828 -0.093081,-1.005297 0,-1.368667 0.2906565,-1.134531 1.1864232,-1.839096 2.677041,-2.117122 0.2362305,-0.04411 0.4636286,-0.0643 0.9479016,-0.06415 z"
       id="path2879-9"
       inkscape:connector-curvature="0" />
    <path
       style="color:#000000;fill:#ffffff;fill-opacity:1;fill-rule:nonzero;stroke:none;stroke-width:1;marker:none;visibility:visible;display:inline;overflow:visible;enable-background:accumulate"
       d="m 8.1877404,35.056614 c 0.5748133,1.78e-4 0.6791022,0.0085 1.0312332,0.08555 1.5206084,0.331663 2.5825604,1.137673 2.6249594,1.999543 0.0065,0.130891 -0.0097,0.285688 -0.03125,0.352847 -0.05218,0.162247 -0.225946,0.357049 -0.41666,0.4598 -0.138743,0.07475 -0.198018,0.08548 -0.458326,0.08548 -0.232364,0 -0.318823,-0.01448 -0.41666,-0.06412 -0.06874,-0.0346 -0.320047,-0.262032 -0.5520754,-0.50256 -0.470012,-0.487377 -0.652717,-0.607781 -1.135399,-0.737757 -0.3312965,-0.08933 -1.0306452,-0.09057 -1.3437287,-0.01059 -0.6174147,0.157481 -0.9607841,0.539001 -0.9583177,1.069245 0.00163,0.341441 0.1890366,0.600612 0.5937403,0.791284 0.3024028,0.142439 0.4788483,0.189683 1.8437211,0.50256 0.624389,0.143145 1.2571914,0.299142 1.4062284,0.352848 1.127156,0.406094 1.725267,1.133611 1.843721,2.224075 0.09345,0.860316 -0.175682,1.670245 -0.739572,2.245507 -0.486352,0.496133 -1.16633,0.808553 -2.0728854,0.962289 -0.352805,0.05964 -1.344292,0.09318 -1.7187225,0.05349 C 6.3108723,44.780249 5.2723784,44.262506 4.7502965,43.461193 4.566984,43.179846 4.469051,42.873396 4.469051,42.595087 c 0,-0.364607 0.1360997,-0.610291 0.4166603,-0.769819 0.1490081,-0.08488 0.1889133,-0.09629 0.4583257,-0.09629 0.4218938,0 0.5425091,0.08326 0.9999842,0.662934 0.4751727,0.602206 0.8248326,0.843581 1.3853948,0.962397 1.008087,0.213517 1.9777116,-0.113731 2.291631,-0.769888 0.07362,-0.153914 0.09412,-0.215917 0.09375,-0.449102 -3.88e-4,-0.233748 -0.02124,-0.296564 -0.09375,-0.438401 C 9.9264506,41.511825 9.7391026,41.331076 9.5314706,41.237117 9.4554976,41.202865 8.7429829,41.003262 7.9481621,40.798715 7.153343,40.594167 6.3865019,40.390537 6.250273,40.338914 5.2773241,39.970707 4.7552762,39.424928 4.5627995,38.606702 c -0.091476,-0.388829 -0.093081,-1.005298 0,-1.368668 0.2906565,-1.13453 1.1864232,-1.839095 2.677041,-2.117123 0.2362305,-0.0441 0.4636286,-0.0643 0.9479016,-0.06415 z"
       id="path2879"
       inkscape:connector-curvature="0" />
    <path
       transform="matrix(0.33374248,0,0,0.33374248,-0.00967484,-303.20811)"
       sodipodi:type="inkscape:offset"
       inkscape:radius="-1.0321088"
       inkscape:original="M 14.3125 1006.875 C 12.856097 1006.875 11.925797 1007.0121 10.625 1007.4375 C 6.458777 1008.7996 3.3458584 1012.4048 2.625 1016.7188 C 2.5029219 1017.4493 2.4951262 1017.9792 2.53125 1019.1562 C 2.583402 1020.8555 2.7832401 1021.8 3.375 1023.2188 C 3.5570709 1023.6552 3.7277292 1024.1191 3.78125 1024.25 C 3.852746 1024.425 3.844637 1024.7744 3.75 1025.5625 C 3.5640526 1027.1109 3.576388 1030.1749 3.78125 1031.4375 C 4.2150035 1034.1111 5.2145827 1036.8581 6.53125 1039 C 7.7676939 1041.0115 9.7210248 1043.1506 11.53125 1044.5312 C 16.039487 1047.9697 21.576173 1049.384 27.15625 1048.5312 L 27.84375 1048.4375 L 28.8125 1048.875 C 29.818533 1049.3243 31.072171 1049.6658 32.15625 1049.8125 C 33.008873 1049.9279 35.073444 1049.8601 35.9375 1049.6875 C 39.535635 1048.9688 42.574101 1046.6705 44.25 1043.4062 C 45.15381 1041.6459 45.49973 1040.093 45.5 1038.0312 C 45.500241 1036.1461 45.235505 1034.8873 44.46875 1033.0938 L 44.09375 1032.2188 L 44.21875 1031.4375 C 44.402955 1030.2849 44.436129 1027.6036 44.3125 1026.4062 C 43.743444 1020.8954 41.03611 1015.8508 36.8125 1012.4688 C 32.438206 1008.966 26.918727 1007.4265 21.3125 1008.125 L 20.125 1008.2812 L 19.28125 1007.875 C 17.519046 1007.1082 16.183316 1006.875 14.3125 1006.875 z "
       style="opacity:0.4;color:#000000;fill:none;stroke:url(#linearGradient3852);stroke-width:2.43058658;stroke-linecap:round;stroke-linejoin:round;stroke-miterlimit:4;stroke-opacity:1;stroke-dasharray:none;stroke-dashoffset:0;marker:none;visibility:visible;display:inline;overflow:visible;enable-background:accumulate"
       id="path3850"
       d="m 14.3125,1007.9062 c -1.391631,0 -2.150114,0.1 -3.375,0.5 -3.7992701,1.2422 -6.6245929,4.539 -7.28125,8.4688 -0.1098804,0.6575 -0.1294427,1.087 -0.09375,2.25 0.050032,1.6302 0.1891061,2.3427 0.75,3.6875 0.193905,0.4648 0.4163894,1.0109 0.4375,1.0625 0.2637365,0.6455 0.1293603,0.9955 0.03125,1.8125 -0.1660843,1.383 -0.1323825,4.5853 0.03125,5.5937 0.4115099,2.5365 1.3612123,5.1825 2.59375,7.1876 1.1534399,1.8764 3.063859,3.964 4.75,5.25 4.292751,3.2741 9.532921,4.5929 14.84375,3.7812 a 1.032212,1.032212 0 0 1 0.03125,0 l 0.6875,-0.094 a 1.032212,1.032212 0 0 1 0.5625,0.094 l 0.9375,0.4375 c 0.0085,0 0.02273,-0 0.03125,0 0.889436,0.3934 2.062594,0.7127 3.03125,0.8437 0.57993,0.079 2.863474,0.027 3.46875,-0.094 3.293124,-0.6578 6.059451,-2.7615 7.59375,-5.75 0.840031,-1.6361 1.124745,-2.9598 1.125,-4.9063 2.29e-4,-1.7884 -0.205609,-2.8192 -0.9375,-4.5312 l -0.375,-0.875 a 1.032212,1.032212 0 0 1 -0.09375,-0.5625 l 0.125,-0.7813 c 0.147887,-0.9253 0.199276,-3.7591 0.09375,-4.7812 -0.541311,-5.2421 -3.124293,-10.0152 -7.125,-13.2188 -4.158811,-3.3302 -9.379631,-4.7902 -14.71875,-4.125 l -1.1875,0.1563 a 1.032212,1.032212 0 0 1 -0.5625,-0.094 l -0.8125,-0.4063 c -0.01044,-0 -0.02085,0 -0.03125,0 -1.64024,-0.7101 -2.757452,-0.9063 -4.53125,-0.9063 z" />
  </g>
</svg>
