<?xml version="1.0" encoding="UTF-8" standalone="no"?>
<!-- Created with Inkscape (http://www.inkscape.org/) -->

<svg
   xmlns:dc="http://purl.org/dc/elements/1.1/"
   xmlns:cc="http://creativecommons.org/ns#"
   xmlns:rdf="http://www.w3.org/1999/02/22-rdf-syntax-ns#"
   xmlns:svg="http://www.w3.org/2000/svg"
   xmlns="http://www.w3.org/2000/svg"
   xmlns:xlink="http://www.w3.org/1999/xlink"
   xmlns:sodipodi="http://sodipodi.sourceforge.net/DTD/sodipodi-0.dtd"
   xmlns:inkscape="http://www.inkscape.org/namespaces/inkscape"
   width="16px"
   height="16px"
   id="svg3935"
   version="1.1"
   inkscape:version="0.48.4 r9939"
   sodipodi:docname="xfce-unknown.svg">
  <defs
     id="defs3937">
    <linearGradient
       id="linearGradient3707-319-631-407-324-3-8">
      <stop
         id="stop3760-7-3"
         style="stop-color:#646464;stop-opacity:1;"
         offset="0" />
      <stop
         id="stop3762-8-4"
         style="stop-color:#aaaaaa;stop-opacity:1;"
         offset="1" />
    </linearGradient>
    <linearGradient
       inkscape:collect="always"
       xlink:href="#linearGradient4011"
       id="linearGradient3071"
       gradientUnits="userSpaceOnUse"
       gradientTransform="matrix(0.35135136,0,0,0.35135136,-17.203671,-0.90930013)"
       x1="71.204407"
       y1="6.2375584"
       x2="71.204407"
       y2="44.340794" />
    <linearGradient
       id="linearGradient4011">
      <stop
         id="stop4013"
         style="stop-color:#ffffff;stop-opacity:1;"
         offset="0" />
      <stop
         offset="0.507761"
         style="stop-color:#ffffff;stop-opacity:0.23529412;"
         id="stop4015" />
      <stop
         id="stop4017"
         style="stop-color:#ffffff;stop-opacity:0.15686275;"
         offset="0.83456558" />
      <stop
         id="stop4019"
         style="stop-color:#ffffff;stop-opacity:0.39215687;"
         offset="1" />
    </linearGradient>
    <linearGradient
       id="linearGradient2867-449-88-871-390-598-476-591-434-148-57-177-3-8">
      <stop
         id="stop3750-8-9"
         style="stop-color:#cdcdcd;stop-opacity:1;"
         offset="0" />
      <stop
         id="stop3752-3-2"
         style="stop-color:#c3c3c3;stop-opacity:1;"
         offset="0.26238" />
      <stop
         id="stop3754-7-2"
         style="stop-color:#a9a9a9;stop-opacity:1;"
         offset="0.704952" />
      <stop
         id="stop3756-9-3"
         style="stop-color:#8a8a8a;stop-opacity:1;"
         offset="1" />
    </linearGradient>
    <radialGradient
       r="19.99999"
       fy="8.4497671"
       fx="5.7800279"
       cy="8.4497671"
       cx="5.7800279"
       gradientTransform="matrix(0,0.89892574,-0.95095622,-1.6561642e-8,16.035401,-6.0146846)"
       gradientUnits="userSpaceOnUse"
       id="radialGradient3931"
       xlink:href="#linearGradient2867-449-88-871-390-598-476-591-434-148-57-177-3-8"
       inkscape:collect="always" />
    <linearGradient
       y2="3.8990016"
       x2="24"
       y1="44"
       x1="24"
       gradientTransform="matrix(0.38465107,0,0,0.38465106,-1.231625,-1.2316257)"
       gradientUnits="userSpaceOnUse"
       id="linearGradient3933"
       xlink:href="#linearGradient3707-319-631-407-324-3-8"
       inkscape:collect="always" />
    <linearGradient
       inkscape:collect="always"
       xlink:href="#linearGradient4007"
       id="linearGradient4013"
       x1="18.963203"
       y1="-57.281384"
       x2="15.945889"
       y2="78.129868"
       gradientUnits="userSpaceOnUse"
       gradientTransform="matrix(0.24102296,0,0,0.24643878,3.8179994,0.08362599)" />
    <linearGradient
       id="linearGradient4007">
      <stop
         style="stop-color:#ffffff;stop-opacity:1;"
         offset="0"
         id="stop4009" />
      <stop
         style="stop-color:#ffffff;stop-opacity:0;"
         offset="1"
         id="stop4011" />
    </linearGradient>
    <radialGradient
       inkscape:collect="always"
       xlink:href="#linearGradient2867-449-88-871-390-598-476-591-434-148-57-177-8-3"
       id="radialGradient4052"
       cx="13.018921"
       cy="12.175321"
       fx="13.018921"
       fy="12.175321"
       r="15.561676"
       gradientTransform="matrix(-0.00180848,1.2861091,-1.8851164,-0.00265075,26.026751,30.362186)"
       gradientUnits="userSpaceOnUse" />
    <linearGradient
       id="linearGradient2867-449-88-871-390-598-476-591-434-148-57-177-8-3">
      <stop
         id="stop3750-1-0"
         style="stop-color:#90dbec;stop-opacity:1"
         offset="0" />
      <stop
         id="stop3752-3-7"
         style="stop-color:#55c1ec;stop-opacity:1"
         offset="0.26238" />
      <stop
         id="stop3754-1-8"
         style="stop-color:#3689e6;stop-opacity:1"
         offset="0.704952" />
      <stop
         id="stop3756-1-6"
         style="stop-color:#2b63a0;stop-opacity:1"
         offset="1" />
    </linearGradient>
    <radialGradient
       r="15.561676"
       fy="12.175321"
       fx="13.018921"
       cy="12.175321"
       cx="13.018921"
       gradientTransform="matrix(-0.00192668,1.3701697,-2.0083283,-0.002824,31.394163,-19.8763)"
       gradientUnits="userSpaceOnUse"
       id="radialGradient3868"
       xlink:href="#linearGradient2867-449-88-871-390-598-476-591-434-148-57-177-8-3"
       inkscape:collect="always" />
  </defs>
  <sodipodi:namedview
     id="base"
     pagecolor="#ffffff"
     bordercolor="#666666"
     borderopacity="1.0"
     inkscape:pageopacity="0.0"
     inkscape:pageshadow="2"
     inkscape:zoom="43.859386"
     inkscape:cx="8"
     inkscape:cy="7.2903477"
     inkscape:current-layer="layer1"
     showgrid="true"
     inkscape:grid-bbox="true"
     inkscape:document-units="px"
     inkscape:window-width="1855"
     inkscape:window-height="1056"
     inkscape:window-x="65"
     inkscape:window-y="24"
     inkscape:window-maximized="1" />
  <metadata
     id="metadata3940">
    <rdf:RDF>
      <cc:Work
         rdf:about="">
        <dc:format>image/svg+xml</dc:format>
        <dc:type
           rdf:resource="http://purl.org/dc/dcmitype/StillImage" />
        <dc:title></dc:title>
      </cc:Work>
    </rdf:RDF>
  </metadata>
  <g
     id="layer1"
     inkscape:label="Layer 1"
     inkscape:groupmode="layer">
    <path
       inkscape:connector-curvature="0"
       style="color:#000000;fill:url(#radialGradient3931);fill-opacity:1;fill-rule:nonzero;stroke:url(#linearGradient3933);stroke-width:0.99999994000000003;stroke-linecap:round;stroke-linejoin:round;stroke-miterlimit:4;stroke-opacity:1;stroke-dasharray:none;stroke-dashoffset:0;marker:none;visibility:visible;display:inline;overflow:visible;enable-background:accumulate"
       id="path2555-7"
       d="m 8.000001,0.49999997 c -4.138241,0 -7.50000103,3.36175853 -7.50000103,7.49999993 C 0.49999997,12.138242 3.86176,15.500001 8.000001,15.5 12.13824,15.5 15.500004,12.138242 15.5,7.9999999 15.5,3.8617585 12.13824,0.49999997 8.000001,0.49999997 z" />
    <path
       inkscape:connector-curvature="0"
       style="opacity:0.5;color:#000000;fill:none;stroke:url(#linearGradient3071);stroke-width:0.99999994;stroke-linecap:round;stroke-linejoin:round;stroke-miterlimit:4;stroke-opacity:1;stroke-dasharray:none;stroke-dashoffset:0;marker:none;visibility:visible;display:inline;overflow:visible;enable-background:accumulate"
       id="path8655-6"
       d="M 14.5,7.999769 C 14.5,11.589737 11.589636,14.5 8.0000824,14.5 4.4101993,14.5 1.5,11.589703 1.5,7.999769 1.5,4.4099697 4.4101993,1.5000003 8.0000824,1.5000003 11.589636,1.5000003 14.5,4.4099697 14.5,7.999769 l 0,0 z" />
    <path
       style="fill:url(#radialGradient3868);fill-opacity:1;stroke:none"
       d="M 5.843695,0.57547518 6.064471,0.39885441 6.4618672,0.26638857 7.0138069,0.13392272 7.7644441,0.08976353 8.250151,0.15599698 9.1774097,0.22223045 10.060513,0.42092762 10.303365,0.57547199 10.148823,0.92871247 9.5968847,1.789739 9.3761078,2.4962211 9.0670223,3.3572474 c 0,0 -0.1103874,0.6402497 -0.1103874,0.7727144 0,0.1324658 -0.044159,0.9493363 -0.044159,0.9493363 l 0.3753201,1.1038795 0.838946,1.8986724 0.861028,1.501275 0.551937,0.949336 0.397398,0.772715 0.0883,0.772716 0.110389,0.618171 -0.110389,0.750639 -0.04416,0.507784 -0.242856,0.529862 -0.309085,0.507785 -0.353241,0.264931 -0.816869,0.309086 -0.9051832,0.154542 -1.3467308,0.132467 -0.8831046,-0.06623 -0.6402492,-0.04416 0.375319,-0.574018 0.4857069,-0.772715 0.2207742,-0.883104 0.066234,-0.816871 -0.066222,-0.97141 L 7.344971,10.974016 6.8371862,9.9584484 6.2852466,8.9649561 5.7553848,8.1480857 5.1813673,7.1545945 4.7618935,6.0507159 c 0,0 -0.2428531,-0.7506379 -0.2870086,-0.8831038 C 4.4307295,5.0351473 4.3644972,4.2845093 4.3644972,4.2845093 L 4.6073505,3.1143964 4.9605917,2.0325954 z"
       id="path3152"
       inkscape:connector-curvature="0" />
    <path
       style="opacity:0.36637932;fill:none;stroke:#ffffff;stroke-width:0.35854292;stroke-linecap:square;stroke-linejoin:round;stroke-miterlimit:4;stroke-opacity:1;stroke-dasharray:none;stroke-dashoffset:0;marker:none;visibility:visible;display:block;overflow:visible"
       id="path4820-2"
       inkscape:connector-curvature="0"
       d="m 4.688649,4.2845093 c 1.3146122,0 2.629225,0 3.9438331,0" />
    <path
       d="m 6.0574589,8.2363966 c 1.3146114,0 2.6292244,0 3.9438321,0"
       inkscape:connector-curvature="0"
       id="path3982"
       style="opacity:0.36637932;fill:none;stroke:#ffffff;stroke-width:0.35854292;stroke-linecap:square;stroke-linejoin:round;stroke-miterlimit:4;stroke-opacity:1;stroke-dasharray:none;stroke-dashoffset:0;marker:none;visibility:visible;display:block;overflow:visible" />
    <path
       style="opacity:0.36637932;fill:none;stroke:#ffffff;stroke-width:0.35854292;stroke-linecap:square;stroke-linejoin:round;stroke-miterlimit:4;stroke-opacity:1;stroke-dasharray:none;stroke-dashoffset:0;marker:none;visibility:visible;display:block;overflow:visible"
       id="path3984"
       inkscape:connector-curvature="0"
       d="m 7.8678198,12.144128 c 1.314613,0 2.6292262,0 3.9438342,0" />
    <path
       style="fill:#323232;fill-opacity:1"
       d="M 7.1666247,15.919435 C 6.5354425,15.876769 6.1970912,15.818346 5.7063938,15.667303 L 5.3924727,15.570672 5.6074863,15.390741 C 6.5988225,14.561161 6.9627521,13.654559 6.8375166,12.326555 6.7499814,11.398318 6.6530076,11.125658 6.0540571,10.123696 5.8391655,9.7642139 5.5018254,9.1696598 5.3044118,8.8024652 5.1069987,8.4352717 4.8705744,8.0101556 4.7790247,7.8577633 4.5556786,7.4859876 4.0077151,6.2841343 3.879438,5.8846924 3.6337443,5.1196293 3.5952969,3.968465 3.7910374,3.2378643 4.0072341,2.4309112 4.3718969,1.6287716 4.8827667,0.83641497 L 5.0925938,0.510974 5.5564549,0.35764521 c 0.8281967,-0.27375714 1.5004643,-0.37994907 2.3925579,-0.37792702 1.0672983,0.0023438 1.9036755,0.15501953 2.8501782,0.52003012 l 0.39388,0.15189588 -0.11845,0.15619782 C 10.855424,1.0968978 10.436341,1.8027908 10.341846,2.0421037 10.290305,2.1726466 10.200874,2.3720842 10.143115,2.4853011 10.085362,2.5985181 9.9595546,2.9813031 9.8635582,3.3359349 9.7021784,3.9321032 9.6898554,4.0273325 9.7001202,4.598894 c 0.014286,0.7958285 0.095723,1.0597896 0.7508948,2.4342131 0.487562,1.0228078 0.630576,1.2861245 1.431038,2.6347994 0.981659,1.6539725 1.066683,1.9239535 1.016449,3.2275835 -0.03399,0.881813 -0.128403,1.267541 -0.39624,1.618695 -0.281023,0.368438 -1.615608,1.002017 -2.5921987,1.230619 -0.9431007,0.22076 -1.5188652,0.25741 -2.7434386,0.174631 z m 2.0687757,-0.268648 c 0.4646005,-0.07249 1.0890156,-0.239153 1.5694486,-0.418907 0.225364,-0.08432 0.325815,-0.160977 0.506609,-0.386611 0.26658,-0.332694 0.495395,-0.774549 0.595077,-1.149122 0.07217,-0.271185 0.103596,-1.442898 0.04294,-1.60096 -0.02671,-0.06961 -0.258596,-0.07823 -2.1059868,-0.07823 l -2.075967,0 0.033407,0.457447 c 0.044278,0.606348 -0.035176,1.140506 -0.2469024,1.659824 -0.2048262,0.502405 -0.5308865,1.083921 -0.7537422,1.344278 l -0.1618992,0.189143 0.4327711,0.03173 c 0.2380232,0.01745 0.4772772,0.03992 0.5316781,0.04994 0.1780966,0.03281 1.1771845,-0.02748 1.6325632,-0.09854 z M 6.4806438,15.319769 c 0.022739,-0.120073 -0.220269,-0.176477 -0.3220041,-0.07475 -0.1069728,0.106973 -0.033358,0.192539 0.1502714,0.174669 0.099941,-0.0097 0.1614265,-0.0455 0.1717327,-0.09993 z m 0.3538616,-0.407596 c 0.083699,-0.100845 0.021477,-0.175253 -0.1465636,-0.175253 -0.078389,0 -0.1568804,0.02323 -0.1744272,0.05161 -0.043573,0.07051 0.067999,0.19565 0.1744272,0.19565 0.047739,0 0.1136919,-0.03241 0.1465636,-0.07201 z m 0.2847647,-0.57691 c 0.095435,-0.09544 0.012734,-0.19179 -0.1646235,-0.19179 -0.129743,0 -0.1677973,0.02056 -0.1677973,0.09066 0,0.04987 0.014837,0.105502 0.032968,0.123634 0.052311,0.05231 0.2386362,0.0383 0.2994516,-0.02251 z m 5.1816759,-0.06815 c 0,-0.07218 -0.03838,-0.103298 -0.142023,-0.115139 -0.182386,-0.02084 -0.267921,0.05796 -0.17909,0.164996 0.0934,0.112538 0.321113,0.07718 0.321113,-0.04986 z M 7.355568,13.62421 c 0,-0.07218 -0.038381,-0.103298 -0.1420233,-0.115138 -0.1660265,-0.01897 -0.2548756,0.05025 -0.2110588,0.164424 0.047731,0.124388 0.3530821,0.08176 0.3530821,-0.04928 z m 5.143193,0 c 0,-0.07234 -0.0384,-0.103298 -0.142994,-0.115232 -0.160907,-0.01837 -0.250982,0.07729 -0.167494,0.17789 0.08472,0.102083 0.310488,0.05652 0.310488,-0.06265 z m -5.0442868,-0.6429 c 0,-0.07218 -0.038378,-0.103297 -0.1420209,-0.115138 -0.1660289,-0.01897 -0.2548774,0.05024 -0.2110612,0.164426 0.047731,0.124387 0.3530821,0.08177 0.3530821,-0.04929 z m 5.1589968,-0.01236 c 0.01378,-0.09702 -0.0062,-0.111271 -0.155432,-0.111271 -0.182232,0 -0.264138,0.09571 -0.165939,0.193914 0.09664,0.09664 0.303463,0.04346 0.321371,-0.08264 z M 7.5068624,12.407845 c 0.018428,-0.02981 -7.482e-4,-0.08832 -0.04235,-0.130044 -0.1046717,-0.104672 -0.3314861,-0.04564 -0.3314861,0.08628 0,0.07867 0.033514,0.09796 0.1701691,0.09796 0.093593,0 0.1852453,-0.02438 0.2036676,-0.05421 z m 5.1649876,-0.04376 c 0,-0.131916 -0.226815,-0.190952 -0.331486,-0.08629 -0.106627,0.106626 -0.03867,0.184246 0.161317,0.184246 0.136654,0 0.170169,-0.0193 0.170169,-0.09797 z m -5.2654893,-0.59656 c 0.042508,-0.06878 -0.067103,-0.195841 -0.1681189,-0.194891 -0.1300155,0.0013 -0.2208867,0.08204 -0.1881543,0.16734 0.034265,0.0893 0.3051634,0.110248 0.3562732,0.02755 z m 5.1576583,-0.05965 c -0.01802,-0.12687 -0.202283,-0.178038 -0.312309,-0.08672 -0.112947,0.09374 -0.03034,0.197995 0.156875,0.197995 0.149292,0 0.169212,-0.01425 0.155434,-0.111272 z m -0.757565,-0.369919 c -0.0934,-0.326116 -0.140259,-0.414243 -1.052315,-1.9791321 l -0.670131,-1.1498009 -2.0689362,0 c -1.137916,0 -2.0689369,0.012838 -2.0689369,0.02853 0,0.042956 0.4788221,0.8975033 0.9400101,1.6776305 0.4947993,0.8369815 0.7227499,1.3009375 0.7665511,1.5601915 l 0.032835,0.19435 2.0851656,0.01291 c 1.1468413,0.0071 2.0924363,-0.0033 2.1013233,-0.02321 0.0089,-0.01985 -0.02062,-0.164511 -0.06556,-0.321449 z M 7.1330258,11.151522 c 0.049118,-0.05918 0.049118,-0.08919 0,-0.148361 -0.076676,-0.09239 -0.1519912,-0.09387 -0.2730402,-0.0054 -0.079977,0.05848 -0.084205,0.08079 -0.028124,0.148361 0.082856,0.09983 0.2207154,0.102286 0.3011643,0.0054 z m 5.1144212,0.04416 c 0.107795,-0.04136 0.09849,-0.204155 -0.01371,-0.239766 -0.130965,-0.04156 -0.254236,0.01788 -0.254236,0.122593 0,0.120019 0.121774,0.173268 0.267951,0.117173 z M 6.8273791,10.39735 C 6.8407651,10.3031 6.8204091,10.286078 6.6943,10.286078 c -0.1635752,0 -0.2285137,0.06306 -0.1841101,0.178769 0.046632,0.121519 0.2979398,0.06804 0.3171892,-0.06749 z m 5.1768449,0.01236 c 0,-0.07218 -0.03837,-0.103298 -0.142022,-0.115139 -0.166029,-0.01897 -0.254878,0.05025 -0.21106,0.164428 0.04772,0.124385 0.353082,0.08176 0.353082,-0.04929 z M 6.4562443,9.8222953 c 0.035263,-0.091898 -0.060004,-0.1791158 -0.1956317,-0.1791158 -0.1272495,0 -0.1872374,0.071443 -0.1473239,0.1754574 0.035123,0.091525 0.3081193,0.094434 0.3429556,0.00363 z m 5.1523497,-0.055484 c 0,-0.072178 -0.03837,-0.1032973 -0.142024,-0.1151366 -0.166026,-0.018975 -0.254875,0.050242 -0.211058,0.1644244 0.04772,0.1243872 0.353082,0.081766 0.353082,-0.049284 z M 6.1192231,9.1239143 c 0,-0.072178 -0.03838,-0.1032974 -0.1420223,-0.1151357 -0.1823879,-0.020838 -0.2679227,0.057955 -0.1790915,0.1649945 0.093399,0.1125394 0.3211138,0.077185 0.3211138,-0.049859 z m 5.0937399,0 c 0,-0.072178 -0.03838,-0.1032974 -0.142023,-0.1151357 -0.182386,-0.020838 -0.267922,0.057955 -0.17909,0.1649945 0.0934,0.1125394 0.321113,0.077185 0.321113,-0.049859 z M 5.689942,8.4439256 C 5.6775646,8.3567685 5.6419827,8.3326541 5.5257779,8.3326541 c -0.1162047,0 -0.1517865,0.02412 -0.1641643,0.1112715 -0.013905,0.097906 0.00581,0.1112716 0.1641643,0.1112716 0.158346,0 0.1780685,-0.013371 0.1641641,-0.1112716 z m 5.09374,0 c -0.01238,-0.087157 -0.04797,-0.1112715 -0.164163,-0.1112715 -0.116205,0 -0.151787,0.02412 -0.164167,0.1112715 -0.01392,0.097906 0.0059,0.1112716 0.164167,0.1112716 0.158345,0 0.178069,-0.013371 0.164163,-0.1112716 z M 5.3279626,7.8381169 c 0,-0.072178 -0.03838,-0.1032973 -0.1420223,-0.1151378 -0.1660277,-0.018974 -0.2548763,0.050242 -0.2110608,0.1644257 0.047732,0.1243872 0.3530831,0.081766 0.3530831,-0.049284 z m 5.1431934,0 c 0,-0.072338 -0.0384,-0.1032973 -0.142995,-0.1152315 -0.160906,-0.018367 -0.25098,0.077292 -0.167495,0.1778907 0.08473,0.1020828 0.31049,0.056518 0.31049,-0.062653 z M 9.5599848,7.1581272 C 8.9512336,5.878738 8.766987,5.2936656 8.7657309,4.6359845 l -7.478e-4,-0.3832666 -2.1017858,0 -2.1017859,0 0,0.3429427 c 0,0.6806939 0.1788327,1.2462351 0.8024732,2.5377396 l 0.3522327,0.7294437 2.0895821,0 2.089583,0 -0.3353136,-0.7047167 z m -4.5781987,0.037085 c 0,-0.072178 -0.03838,-0.1032973 -0.1420224,-0.1151378 -0.1660276,-0.018974 -0.2548761,0.050242 -0.2110606,0.1644257 0.047732,0.1243861 0.353083,0.081766 0.353083,-0.049284 z m 5.1431939,0 c 0,-0.072338 -0.03841,-0.1032973 -0.1429953,-0.1152326 -0.1512322,-0.01727 -0.2363822,0.060332 -0.1922944,0.1752273 0.016726,0.043616 0.083204,0.063443 0.1808758,0.05394 C 10.087001,7.2978108 10.12498,7.269792 10.12498,7.1952124 z M 4.6514126,6.5152281 C 4.6390353,6.4280709 4.6034533,6.4039564 4.4872484,6.4039564 c -0.1162044,0 -0.1517865,0.02412 -0.1641644,0.1112717 -0.013905,0.097906 0.00581,0.1112715 0.1641644,0.1112715 0.158346,0 0.1780688,-0.013371 0.1641642,-0.1112715 z m 5.1920901,0.0017 c 0.022745,-0.120068 -0.2202706,-0.1764713 -0.3220051,-0.074741 -0.1069739,0.106974 -0.033357,0.1925405 0.1502701,0.1746702 0.099941,-0.00969 0.1614277,-0.045502 0.171735,-0.099931 z M 4.4377946,5.9094269 c 0,-0.072338 -0.03841,-0.1032974 -0.1429954,-0.1152316 C 4.1338926,5.7758283 4.0438184,5.8714863 4.1273044,5.972086 4.2120264,6.0741688 4.4377946,6.028604 4.4377946,5.909433 z m 5.1661235,0.051617 c 0.083695,-0.100847 0.021478,-0.175255 -0.1465648,-0.175255 -0.1562085,0 -0.2217132,0.064209 -0.1790231,0.1754574 0.035658,0.09291 0.2484186,0.092782 0.3255879,-1.982e-4 z M 4.2399794,5.2665276 c 0,-0.072338 -0.03841,-0.1032973 -0.1429952,-0.1152314 -0.1609069,-0.018367 -0.250981,0.077292 -0.167495,0.1778895 0.084723,0.1020828 0.3104902,0.056518 0.3104902,-0.062653 z m 5.1926469,0 c 0,-0.072178 -0.038375,-0.1032973 -0.1420211,-0.1151377 -0.166029,-0.018974 -0.2548778,0.050242 -0.2110607,0.1644255 0.047728,0.1243863 0.3530818,0.081756 0.3530818,-0.049284 z M 4.2134547,4.6752483 c 0.032872,-0.03961 0.04541,-0.095243 0.027864,-0.123635 -0.05111,-0.082693 -0.322007,-0.061748 -0.356274,0.02755 -0.057218,0.1491079 0.2176599,0.2295287 0.3284101,0.096085 z m 5.18552,-0.063974 c 0.013786,-0.097012 -0.00618,-0.1112705 -0.1554317,-0.1112705 -0.182231,0 -0.2641391,0.095712 -0.1659395,0.1939137 0.096639,0.096639 0.3034636,0.043456 0.3213712,-0.08264 z M 4.3052361,3.8941901 c -0.012377,-0.087157 -0.04796,-0.1112705 -0.1641645,-0.1112705 -0.1162044,0 -0.1517863,0.02412 -0.1641641,0.1112705 -0.013906,0.097906 0.00581,0.1112705 0.1641641,0.1112705 0.1583461,0 0.1780688,-0.013359 0.1641645,-0.1112705 z m 5.1856036,0.032099 C 9.5261032,3.8343915 9.4301142,3.7600347 9.2748198,3.7589501 9.1499552,3.7580775 9.0902365,3.8301055 9.1299702,3.933649 9.1681742,4.033218 9.4520276,4.027432 9.4908397,3.926299 z M 8.8937489,3.4367308 C 9.1013099,2.5954785 9.5142382,1.6495057 10.006053,0.88857289 10.115813,0.71875444 10.187474,0.56293802 10.165298,0.54231371 10.033499,0.41973441 8.5851204,0.19338368 7.9209821,0.19157364 7.231158,0.18965598 6.2723791,0.36121203 6.120153,0.51372797 5.9537835,0.68041319 5.3103008,1.7961365 5.0973005,2.2872335 4.9054721,2.7295158 4.7061323,3.3545074 4.6398029,3.7216274 L 4.6061993,3.9076179 6.6950667,3.8947165 8.783934,3.8818149 8.8937492,3.4367308 z M 4.4487665,3.3565198 c 0.088791,-0.088787 0.015228,-0.1917893 -0.1369788,-0.1917893 -0.1540312,0 -0.2191568,0.064689 -0.1766506,0.1754573 0.032602,0.084952 0.2344919,0.095467 0.3136294,0.016332 z m 5.1816749,-0.068151 c 0,-0.072178 -0.038374,-0.1032973 -0.1420211,-0.1151378 -0.166029,-0.018974 -0.2548779,0.050242 -0.2110618,0.1644256 0.047728,0.1243862 0.3530829,0.081756 0.3530829,-0.049284 z M 4.6514126,2.6083811 C 4.6322084,2.4731645 4.41159,2.4291673 4.3180327,2.541892 c -0.09033,0.1088404 -0.022261,0.1777554 0.175574,0.1777554 0.1517524,0 0.1716193,-0.01401 0.1578059,-0.1112716 z m 5.1797778,0.057071 c 0.018431,-0.029808 -7.49e-4,-0.088329 -0.042348,-0.1300461 -0.1046717,-0.1046716 -0.331487,-0.04564 -0.331487,0.086284 0,0.078677 0.033516,0.09797 0.170169,0.09797 0.093592,0 0.1852459,-0.024396 0.2036682,-0.054205 z M 4.8828785,1.9531184 c 0,-0.115697 -0.1894493,-0.1632099 -0.296505,-0.074362 -0.1140834,0.094679 -0.030748,0.205113 0.1420933,0.1882952 0.1164339,-0.011334 0.1544117,-0.039356 0.1544117,-0.113935 z m 5.1926465,0 c 0,-0.066372 -0.03848,-0.1043521 -0.116974,-0.1154584 C 9.8159813,1.817493 9.7300717,1.89341 9.7719553,2.0025597 9.8186183,2.1241759 10.075525,2.0823337 10.075525,1.9531167 z M 5.1954044,1.3473076 c 0.013856,-0.097566 -0.00595,-0.1112715 -0.1607249,-0.1112715 -0.1382095,0 -0.1765279,0.019688 -0.1765279,0.090662 0,0.1261386 0.050013,0.1635316 0.1959648,0.1465104 0.086812,-0.01012 0.1303551,-0.048932 0.141288,-0.1259042 z m 5.1768446,0.012358 c 0,-0.072178 -0.03838,-0.1032973 -0.142024,-0.1151378 -0.166025,-0.018974 -0.2548743,0.050242 -0.21106,0.1644257 0.04774,0.1243861 0.353084,0.081766 0.353084,-0.049284 z m 0.296722,-0.49453384 c 0,-0.066372 -0.03848,-0.10435205 -0.116975,-0.11545843 -0.142567,-0.0201673 -0.22848,0.0557503 -0.186595,0.16489968 0.04667,0.12161519 0.30357,0.0797742 0.30357,-0.0494434 z m -5.1431931,-0.049453 c 0,-0.13099992 -0.2923199,-0.17196834 -0.3400245,-0.0476536 -0.047991,0.12506265 0.012612,0.17834239 0.1839407,0.16171212 0.1180641,-0.0114633 0.1560838,-0.0392479 0.1560838,-0.11405855 z"
       id="path3150"
       inkscape:connector-curvature="0" />
    <path
       style="fill:none;stroke:url(#linearGradient4013);stroke-width:0.24371585px;stroke-linecap:butt;stroke-linejoin:miter;stroke-opacity:1"
       d="m 6.1718863,0.62984585 0.584298,-0.17069417 0.6677695,-0.10241309 0.567604,-0.0341448 0.7178518,0.085346 0.6176874,0.085346 0.682061,0.17046832 C 9.7374344,1.1898229 9.4863439,1.5899712 9.2084351,2.0798345 9.1342753,2.2628677 9.0909279,2.457035 9.0247988,2.6431225 8.9574149,2.8327236 8.8449351,3.0300252 8.7904793,3.2410018 8.6638079,3.6113466 8.6102053,3.8672376 8.6092444,4.1973363 c 0.025207,0.3876697 0.00842,0.4676292 0.033389,0.6998426 0.021542,0.2007704 0.056837,0.4002101 0.1001652,0.5974275 0.054419,0.2477016 0.2003314,0.7339822 0.2003314,0.7339822 L 9.2436263,6.97964 9.5274277,7.5258598 10.01156,8.4476053 l 0.602794,0.9729532 0.51572,0.9217445 c 0,0 0.350579,0.546218 0.367273,0.631565 0.01669,0.08535 0.183636,0.529151 0.183636,0.529151 0,0 0.116861,0.716913 0.116861,0.78519 0,0.06828 0.05308,0.784062 0.05308,0.784062 l -0.09477,0.74722 c 0,0 -0.214024,0.494969 -0.382165,0.70142 -0.250925,0.308097 -0.594508,0.515463 -0.594508,0.515463 l -0.9348778,0.324318 -0.7011573,0.102413 -0.9181827,0.08535 -0.9014883,0.03415 -0.4334495,-0.05121 c 0,0 0.4411573,-0.529912 0.5885023,-0.818877 C 7.656113,14.364834 7.841296,13.619629 7.841296,13.619629 L 7.9581695,12.322352 7.6576732,10.956803 7.1401518,9.9497124 6.6894079,9.1474523 5.9715555,8.0208753 c 0,0 -0.4785027,-0.818769 -0.655279,-1.2289934 -0.2130236,-0.49434 -0.5133171,-1.4850335 -0.5133171,-1.4850335 0,0 -0.1365567,-0.7851899 -0.1365567,-0.9046754 0,-0.1194855 0.169945,-0.9046761 0.169945,-0.9046761 0,0 0.2919115,-0.8654019 0.4805294,-1.2804269 C 5.5655213,1.6699659 6.1718863,0.62984585 6.1718863,0.62984585 z"
       id="path4005"
       inkscape:connector-curvature="0"
       sodipodi:nodetypes="ccccccccsccssccccccscsccsccccccsccccccsczcac" />
  </g>
</svg>
