<?xml version="1.0" encoding="UTF-8" standalone="no"?>
<!-- Created with Inkscape (http://www.inkscape.org/) -->

<svg
   xmlns:dc="http://purl.org/dc/elements/1.1/"
   xmlns:cc="http://creativecommons.org/ns#"
   xmlns:rdf="http://www.w3.org/1999/02/22-rdf-syntax-ns#"
   xmlns:svg="http://www.w3.org/2000/svg"
   xmlns="http://www.w3.org/2000/svg"
   xmlns:xlink="http://www.w3.org/1999/xlink"
   xmlns:sodipodi="http://sodipodi.sourceforge.net/DTD/sodipodi-0.dtd"
   xmlns:inkscape="http://www.inkscape.org/namespaces/inkscape"
   width="32px"
   height="32px"
   id="svg4011"
   version="1.1"
   inkscape:version="0.48.4 r9939"
   sodipodi:docname="image-x-xcf.svg">
  <defs
     id="defs4013">
    <linearGradient
       inkscape:collect="always"
       xlink:href="#linearGradient3977"
       id="linearGradient3119"
       gradientUnits="userSpaceOnUse"
       gradientTransform="matrix(0.56756757,0,0,0.72972971,2.378382,-2.5135061)"
       x1="23.99999"
       y1="5.5641499"
       x2="23.99999"
       y2="43" />
    <linearGradient
       id="linearGradient3977">
      <stop
         id="stop3979"
         style="stop-color:#ffffff;stop-opacity:1;"
         offset="0" />
      <stop
         offset="0.03626217"
         style="stop-color:#ffffff;stop-opacity:0.23529412;"
         id="stop3981" />
      <stop
         id="stop3983"
         style="stop-color:#ffffff;stop-opacity:0.15686275;"
         offset="0.95056331" />
      <stop
         id="stop3985"
         style="stop-color:#ffffff;stop-opacity:0.39215687;"
         offset="1" />
    </linearGradient>
    <radialGradient
       inkscape:collect="always"
       xlink:href="#linearGradient3242-4"
       id="radialGradient3947"
       gradientUnits="userSpaceOnUse"
       gradientTransform="matrix(-1.0624208e-7,4.3506752,-5.3177267,-1.3059556e-7,68.942118,-39.41615)"
       cx="7.8060555"
       cy="9.9571075"
       fx="7.2758255"
       fy="9.9571075"
       r="12.671875" />
    <linearGradient
       id="linearGradient2867-449-88-871-390-598-476-591-434-148-57-177-8-3-4">
      <stop
         offset="0"
         style="stop-color:#ffcd7d;stop-opacity:1"
         id="stop3750-1-0-7" />
      <stop
         offset="0.26238"
         style="stop-color:#fc8f36;stop-opacity:1"
         id="stop3752-3-7-6" />
      <stop
         offset="0.704952"
         style="stop-color:#e23a0e;stop-opacity:1"
         id="stop3754-1-8-5" />
      <stop
         offset="1"
         style="stop-color:#ac441f;stop-opacity:1"
         id="stop3756-1-6-6" />
    </linearGradient>
    <linearGradient
       inkscape:collect="always"
       xlink:href="#linearGradient4039"
       id="linearGradient3949"
       gradientUnits="userSpaceOnUse"
       gradientTransform="matrix(0.65714134,0,0,0.65900698,0.2286005,0.1720367)"
       x1="25"
       y1="47.935162"
       x2="25"
       y2="0.91790956" />
    <linearGradient
       id="linearGradient4039">
      <stop
         offset="0"
         style="stop-color:#690b2c;stop-opacity:1;"
         id="stop4041" />
      <stop
         offset="1"
         style="stop-color:#b01827;stop-opacity:1;"
         id="stop4043" />
    </linearGradient>
    <radialGradient
       inkscape:collect="always"
       xlink:href="#linearGradient5060"
       id="radialGradient3045"
       gradientUnits="userSpaceOnUse"
       gradientTransform="matrix(0.01566318,0,0,0.00823529,17.610433,25.980565)"
       cx="605.71429"
       cy="486.64789"
       fx="605.71429"
       fy="486.64789"
       r="117.14286" />
    <linearGradient
       id="linearGradient5060">
      <stop
         id="stop5062"
         style="stop-color:#000000;stop-opacity:1"
         offset="0" />
      <stop
         id="stop5064"
         style="stop-color:#000000;stop-opacity:0"
         offset="1" />
    </linearGradient>
    <radialGradient
       inkscape:collect="always"
       xlink:href="#linearGradient5060"
       id="radialGradient3048"
       gradientUnits="userSpaceOnUse"
       gradientTransform="matrix(-0.01566318,0,0,0.00823529,14.389566,25.980565)"
       cx="605.71429"
       cy="486.64789"
       fx="605.71429"
       fy="486.64789"
       r="117.14286" />
    <linearGradient
       id="linearGradient5048">
      <stop
         id="stop5050"
         style="stop-color:#000000;stop-opacity:0"
         offset="0" />
      <stop
         id="stop5056"
         style="stop-color:#000000;stop-opacity:1"
         offset="0.5" />
      <stop
         id="stop5052"
         style="stop-color:#000000;stop-opacity:0"
         offset="1" />
    </linearGradient>
    <linearGradient
       y2="609.50507"
       x2="302.85715"
       y1="366.64789"
       x1="302.85715"
       gradientTransform="matrix(0.04576928,0,0,0.00823529,-0.5423243,25.980548)"
       gradientUnits="userSpaceOnUse"
       id="linearGradient4009"
       xlink:href="#linearGradient5048"
       inkscape:collect="always" />
    <radialGradient
       cx="7.8060555"
       cy="9.9571075"
       r="12.671875"
       fx="7.2758255"
       fy="9.9571075"
       id="radialGradient3022"
       xlink:href="#linearGradient2867-449-88-871-390-598-476-591-434-148-57-177-8-3"
       gradientUnits="userSpaceOnUse"
       gradientTransform="matrix(-1.0624208e-7,4.3506752,-5.3177267,-1.3059556e-7,68.942119,-39.41615)" />
    <linearGradient
       id="linearGradient2867-449-88-871-390-598-476-591-434-148-57-177-8-3">
      <stop
         id="stop3750-1-0"
         style="stop-color:#90dbec;stop-opacity:1"
         offset="0" />
      <stop
         id="stop3752-3-7"
         style="stop-color:#55c1ec;stop-opacity:1"
         offset="0.26238" />
      <stop
         id="stop3754-1-8"
         style="stop-color:#3689e6;stop-opacity:1"
         offset="0.704952" />
      <stop
         id="stop3756-1-6"
         style="stop-color:#2b63a0;stop-opacity:1"
         offset="1" />
    </linearGradient>
    <radialGradient
       r="12.671875"
       fy="9.9571075"
       fx="7.2758255"
       cy="9.9571075"
       cx="7.8060555"
       gradientTransform="matrix(-1.0624208e-7,4.3506752,-5.3177267,-1.3059556e-7,38.832214,-40.276798)"
       gradientUnits="userSpaceOnUse"
       id="radialGradient3084"
       xlink:href="#linearGradient2867-449-88-871-390-598-476-591-434-148-57-177-8-3"
       inkscape:collect="always" />
    <radialGradient
       inkscape:collect="always"
       xlink:href="#linearGradient3242-4"
       id="radialGradient3271"
       gradientUnits="userSpaceOnUse"
       gradientTransform="matrix(0,4.9580738,-6.0601393,0,76.619254,-47.805616)"
       cx="8.276144"
       cy="9.9941158"
       fx="8.276144"
       fy="9.9941158"
       r="12.671875" />
    <linearGradient
       id="linearGradient3242-4">
      <stop
         id="stop3244-7"
         style="stop-color:#f89b7e;stop-opacity:1"
         offset="0" />
      <stop
         id="stop3246-1"
         style="stop-color:#e35d4f;stop-opacity:1"
         offset="0.26238" />
      <stop
         id="stop3248-5"
         style="stop-color:#c6262e;stop-opacity:1"
         offset="0.66093999" />
      <stop
         id="stop3250-7"
         style="stop-color:#690b2c;stop-opacity:1"
         offset="1" />
    </linearGradient>
    <linearGradient
       inkscape:collect="always"
       xlink:href="#linearGradient5803-2-7"
       id="linearGradient3265"
       gradientUnits="userSpaceOnUse"
       gradientTransform="matrix(0.51446856,0,0,0.51930682,-30.281122,-1.5965339)"
       x1="167.98311"
       y1="8.50811"
       x2="167.98311"
       y2="54.780239" />
    <linearGradient
       id="linearGradient5803-2-7">
      <stop
         id="stop5805-3-6"
         style="stop-color:#fffdf3;stop-opacity:1"
         offset="0" />
      <stop
         id="stop5807-0-0"
         style="stop-color:#fbebeb;stop-opacity:1"
         offset="1" />
    </linearGradient>
  </defs>
  <sodipodi:namedview
     id="base"
     pagecolor="#ffffff"
     bordercolor="#666666"
     borderopacity="1.0"
     inkscape:pageopacity="0.0"
     inkscape:pageshadow="2"
     inkscape:zoom="11.197802"
     inkscape:cx="16"
     inkscape:cy="16"
     inkscape:current-layer="layer1"
     showgrid="true"
     inkscape:grid-bbox="true"
     inkscape:document-units="px"
     inkscape:window-width="1075"
     inkscape:window-height="657"
     inkscape:window-x="632"
     inkscape:window-y="250"
     inkscape:window-maximized="0" />
  <metadata
     id="metadata4016">
    <rdf:RDF>
      <cc:Work
         rdf:about="">
        <dc:format>image/svg+xml</dc:format>
        <dc:type
           rdf:resource="http://purl.org/dc/dcmitype/StillImage" />
        <dc:title></dc:title>
      </cc:Work>
    </rdf:RDF>
  </metadata>
  <g
     id="layer1"
     inkscape:label="Layer 1"
     inkscape:groupmode="layer">
    <rect
       style="opacity:0.15;fill:url(#linearGradient4009);fill-opacity:1;fill-rule:nonzero;stroke:none;stroke-width:1;marker:none;visibility:visible;display:inline;overflow:visible"
       id="rect2879"
       y="29"
       x="4.9499893"
       height="2"
       width="22.100021" />
    <path
       inkscape:connector-curvature="0"
       style="opacity:0.15;fill:url(#radialGradient3048);fill-opacity:1;fill-rule:nonzero;stroke:none;stroke-width:1;marker:none;visibility:visible;display:inline;overflow:visible"
       id="path2881"
       d="m 4.9499887,29.000086 c 0,0 0,1.99989 0,1.99989 -0.806615,0.0038 -1.950002,-0.448074 -1.950002,-1.000074 0,-0.552 0.900121,-0.999816 1.950002,-0.999816 z" />
    <path
       inkscape:connector-curvature="0"
       style="opacity:0.15;fill:url(#radialGradient3045);fill-opacity:1;fill-rule:nonzero;stroke:none;stroke-width:1;marker:none;visibility:visible;display:inline;overflow:visible"
       id="path2883"
       d="m 27.050011,29.000086 c 0,0 0,1.99989 0,1.99989 0.806614,0.0038 1.950002,-0.448074 1.950002,-1.000074 0,-0.552 -0.900122,-0.999816 -1.950002,-0.999816 z" />
    <path
       inkscape:connector-curvature="0"
       d="m 4.4999935,0.499998 c 5.270467,0 22.9999725,0.00185 22.9999725,0.00185 l 2.8e-5,28.998154 c 0,0 -15.333333,0 -23.0000005,0 0,-9.666667 0,-19.333334 0,-29 z"
       id="path4160"
       style="color:#000000;fill:url(#radialGradient3947);fill-opacity:1.0;fill-rule:nonzero;stroke:url(#linearGradient3949);stroke-width:1;stroke-linecap:butt;stroke-linejoin:round;stroke-miterlimit:4;stroke-opacity:1;stroke-dasharray:none;stroke-dashoffset:0;marker:none;visibility:visible;display:inline;overflow:visible;enable-background:accumulate" />
    <path
       inkscape:connector-curvature="0"
       style="opacity:0.15;color:#000000;fill:#661215;fill-opacity:1;fill-rule:evenodd;stroke:none;stroke-width:1;marker:none;visibility:visible;display:inline;overflow:visible;enable-background:accumulate"
       d="m 18.625,0.93750022 a 1.063215,1.063215 0 0 0 -0.5,0.24999998 C 11.770526,6.6912614 7.3172428,8.9439715 4.65625,9.8437501 A 1.063215,1.063215 0 0 0 4.5,9.9062501 l 0,4.8749999 a 1.063215,1.063215 0 0 0 0.8125,0.0625 c 1.6537712,-0.491554 3.662139,-1.316494 5.78125,-2.65625 2.896175,-1.831038 5.613404,-4.2156672 7.6875,-6.1249998 -0.275904,1.695174 -0.462083,3.7368169 -0.625,6.1874998 -0.284678,4.282277 -0.403836,9.92309 -0.4375,16 -0.956556,-1.988745 -2.498607,-4.008734 -4.5,-5.9375 -2.496628,-2.406029 -5.3621202,-4.583317 -7.6875,-5.875 A 1.063215,1.063215 0 0 0 4.5,16.40625 l 0,4.71875 a 1.063215,1.063215 0 0 0 0.09375,0.0625 C 7.5866035,22.434461 11.251534,25.734969 13.5,29.5 l 14,0 0,-12.875 C 27.356322,15.882015 27.226059,15.129774 27.09375,14.40625 26.529703,10.085753 27.05187,6.1782178 27.5,3.8750002 l 0,-2.6875 A 1.063215,1.063215 0 0 0 26.8125,0.93750022 c -0.11363,-1.22e-5 -4.865505,3.283e-4 -8,0 a 1.063215,1.063215 0 0 0 -0.09375,0 1.063215,1.063215 0 0 0 -0.09375,0 z"
       id="path3377" />
    <path
       inkscape:connector-curvature="0"
       style="opacity:0.3;color:#000000;fill:#661215;fill-opacity:1;fill-rule:evenodd;stroke:none;stroke-width:1;marker:none;visibility:visible;display:inline;overflow:visible;enable-background:accumulate"
       d="M 18.8125,2.0000002 C 12.380589,7.5708318 7.826669,9.8879501 5,10.84375 l 0,2.96875 c 1.5709674,-0.466942 3.5049657,-1.250181 5.53125,-2.53125 4.661887,-2.9473683 10.25,-8.5312498 10.25,-8.5312498 C 19.271828,5.7386654 18.789517,15.955798 18.75,29.5 l 8.25,0 0,-10.125 C 26.638792,17.752026 26.319194,16.108845 26.03125,14.53125 25.272742,8.7212192 26.397247,3.6366272 26.8125,2.0000002 c -0.10805,-1.16e-5 -4.865316,3.283e-4 -8,0 z M 5,17.375 5,20.21875 c 3.451995,1.43826 7.42559,5.069711 9.75,9.28125 l 2.5625,0 C 15.836758,25.455229 9.2341699,19.726963 5,17.375 z"
       id="path6711-5" />
    <path
       inkscape:connector-curvature="0"
       style="color:#000000;fill:url(#linearGradient3265);fill-opacity:1;fill-rule:nonzero;stroke:none;marker:none;visibility:visible;display:inline;overflow:visible;enable-background:accumulate"
       d="M 18.809777,1.0000002 C 12.377866,6.5708318 7.8266629,8.884718 4.9999939,9.8405181 l 0,2.9568959 C 6.5709613,12.330472 8.5185467,11.559087 10.544831,10.278018 15.206718,7.3306494 20.767657,1.7392243 20.767657,1.7392243 19.239129,4.7657192 18.794475,15.199567 18.76494,29 l 8.235054,0 0,-10.635776 C 26.638786,16.74125 26.316471,15.099147 26.028527,13.521552 25.270019,7.7115209 26.390447,2.6366272 26.8057,1.0000002 c -0.10805,-1.158e-5 -4.861239,3.283e-4 -7.995923,0 z M 4.9999939,16.372845 l 0,2.851293 C 8.5891724,20.719555 12.752405,24.574928 15.028527,29 l 2.451087,0 C 16.400928,24.942596 9.4101875,18.822584 4.9999939,16.372845 z"
       id="path6711" />
    <path
       inkscape:connector-curvature="0"
       style="opacity:0.05;color:#000000;fill:#000000;fill-opacity:1;fill-rule:evenodd;stroke:none;marker:none;visibility:visible;display:inline;overflow:visible;enable-background:accumulate"
       d="M 25.59375,1.0312502 C 22.540451,3.316532 12.547618,10.288032 5,9.4062501 L 5,15.71875 c 0,0 15.643747,2.855408 22.125,-2.4375 l 0,-12.0624998 c -0.164209,-0.1032627 -0.333357,-0.1875 -0.53125,-0.1875 l -1,0 z M 27.125,16.1875 C 24.31595,19.773993 21.542259,24.307891 19.625,29 L 22,29 c 1.486044,-3.084251 3.375343,-6.422759 5.125,-8.78125 l 0,-4.03125 z"
       id="path6713-2" />
    <path
       style="opacity:0.5;fill:none;stroke:url(#linearGradient3119);stroke-width:0.99999994;stroke-linecap:round;stroke-linejoin:round;stroke-miterlimit:4;stroke-opacity:1;stroke-dasharray:none;stroke-dashoffset:0"
       d="m 26.5,28.5 -21,0 0,-26.9999998 21,0 z"
       id="rect6741-1"
       inkscape:connector-curvature="0"
       sodipodi:nodetypes="ccccc" />
  </g>
</svg>
