<?xml version="1.0" encoding="UTF-8" standalone="no"?>
<!-- Created with Inkscape (http://www.inkscape.org/) -->

<svg
   xmlns:dc="http://purl.org/dc/elements/1.1/"
   xmlns:cc="http://creativecommons.org/ns#"
   xmlns:rdf="http://www.w3.org/1999/02/22-rdf-syntax-ns#"
   xmlns:svg="http://www.w3.org/2000/svg"
   xmlns="http://www.w3.org/2000/svg"
   xmlns:xlink="http://www.w3.org/1999/xlink"
   xmlns:sodipodi="http://sodipodi.sourceforge.net/DTD/sodipodi-0.dtd"
   xmlns:inkscape="http://www.inkscape.org/namespaces/inkscape"
   version="1.1"
   width="48"
   height="48"
   id="svg4369"
   inkscape:version="0.91 r"
   sodipodi:docname="fslint_icon.svg">
  <sodipodi:namedview
     pagecolor="#ffffff"
     bordercolor="#666666"
     borderopacity="1"
     objecttolerance="10"
     gridtolerance="10"
     guidetolerance="10"
     inkscape:pageopacity="0"
     inkscape:pageshadow="2"
     inkscape:window-width="1855"
     inkscape:window-height="964"
     id="namedview71"
     showgrid="false"
     inkscape:zoom="17.416667"
     inkscape:cx="24"
     inkscape:cy="19.406699"
     inkscape:window-x="65"
     inkscape:window-y="24"
     inkscape:window-maximized="0"
     inkscape:current-layer="layer1" />
  <defs
     id="defs4371">
    <linearGradient
       x1="23.99999"
       y1="4.999989"
       x2="23.99999"
       y2="43"
       id="linearGradient3497"
       xlink:href="#linearGradient3924-4"
       gradientUnits="userSpaceOnUse"
       gradientTransform="translate(2.4e-6,0.9674485)" />
    <linearGradient
       id="linearGradient3924-4">
      <stop
         id="stop3926-8"
         style="stop-color:#ffffff;stop-opacity:1"
         offset="0" />
      <stop
         id="stop3928-6"
         style="stop-color:#ffffff;stop-opacity:0.23529412"
         offset="0.06316455" />
      <stop
         id="stop3930-4"
         style="stop-color:#ffffff;stop-opacity:0.15686275"
         offset="0.95056331" />
      <stop
         id="stop3932-4"
         style="stop-color:#ffffff;stop-opacity:0.39215687"
         offset="1" />
    </linearGradient>
    <radialGradient
       cx="7.8060555"
       cy="9.9571075"
       r="12.671875"
       fx="7.2758255"
       fy="9.9571075"
       id="radialGradient3351-4"
       xlink:href="#linearGradient5344-867-2"
       gradientUnits="userSpaceOnUse"
       gradientTransform="matrix(-1.6167311e-7,4.3521892,-8.0922115,-1.30641e-7,102.55944,-28.435087)" />
    <linearGradient
       id="linearGradient5344-867-2">
      <stop
         id="stop5559-5"
         style="stop-color:#f9c590;stop-opacity:1"
         offset="0" />
      <stop
         id="stop5561-3"
         style="stop-color:#f19860;stop-opacity:1"
         offset="0.39698008" />
      <stop
         id="stop5563-5"
         style="stop-color:#ce5d36;stop-opacity:1"
         offset="1" />
    </linearGradient>
    <linearGradient
       x1="10.72043"
       y1="49.805172"
       x2="10.72043"
       y2="-7.1722598"
       id="linearGradient3353-8"
       xlink:href="#linearGradient4288"
       gradientUnits="userSpaceOnUse"
       gradientTransform="matrix(1,0,0,0.6592363,-2.0048496,11.166876)" />
    <linearGradient
       id="linearGradient4288">
      <stop
         id="stop4290"
         style="stop-color:#b95b20;stop-opacity:1"
         offset="0" />
      <stop
         id="stop4292"
         style="stop-color:#ed8137;stop-opacity:1"
         offset="1" />
    </linearGradient>
    <linearGradient
       x1="22.004084"
       y1="63.217903"
       x2="22.004084"
       y2="25.646791"
       id="linearGradient3357"
       xlink:href="#linearGradient3104-5-6"
       gradientUnits="userSpaceOnUse"
       gradientTransform="matrix(1.3394176,0,0,-1.9826305,-5.3543326,103.86293)" />
    <linearGradient
       id="linearGradient3104-5-6">
      <stop
         id="stop3106-9-1"
         style="stop-color:#aaaaaa;stop-opacity:1"
         offset="0" />
      <stop
         id="stop3108-9"
         style="stop-color:#c8c8c8;stop-opacity:1"
         offset="1" />
    </linearGradient>
    <linearGradient
       x1="23.99999"
       y1="4.999989"
       x2="23.99999"
       y2="43"
       id="linearGradient3084"
       xlink:href="#linearGradient3924"
       gradientUnits="userSpaceOnUse"
       gradientTransform="translate(2.4e-6,0.9674487)" />
    <linearGradient
       id="linearGradient3924">
      <stop
         id="stop3926"
         style="stop-color:#ffffff;stop-opacity:1"
         offset="0" />
      <stop
         id="stop3928"
         style="stop-color:#ffffff;stop-opacity:0.23529412"
         offset="0.06316455" />
      <stop
         id="stop3930"
         style="stop-color:#ffffff;stop-opacity:0.15686275"
         offset="0.95056331" />
      <stop
         id="stop3932"
         style="stop-color:#ffffff;stop-opacity:0.39215687"
         offset="1" />
    </linearGradient>
    <radialGradient
       cx="7.4956832"
       cy="8.4497671"
       r="19.99999"
       fx="7.4956832"
       fy="8.4497671"
       id="radialGradient3093"
       xlink:href="#linearGradient3600"
       gradientUnits="userSpaceOnUse"
       gradientTransform="matrix(0,1.9392804,-2.0515274,-5.2784231e-8,41.335037,-8.486255)" />
    <linearGradient
       id="linearGradient3600">
      <stop
         id="stop3602"
         style="stop-color:#f4f4f4;stop-opacity:1"
         offset="0" />
      <stop
         id="stop3604"
         style="stop-color:#dbdbdb;stop-opacity:1"
         offset="1" />
    </linearGradient>
    <linearGradient
       x1="24"
       y1="44"
       x2="24"
       y2="3.8990016"
       id="linearGradient3095"
       xlink:href="#linearGradient3104"
       gradientUnits="userSpaceOnUse"
       gradientTransform="translate(-6e-7,0.9674387)" />
    <linearGradient
       id="linearGradient3104">
      <stop
         id="stop3106"
         style="stop-color:#aaaaaa;stop-opacity:1"
         offset="0" />
      <stop
         id="stop3108"
         style="stop-color:#c8c8c8;stop-opacity:1"
         offset="1" />
    </linearGradient>
    <linearGradient
       x1="20"
       y1="43"
       x2="20"
       y2="3"
       id="linearGradient3098"
       xlink:href="#linearGradient3104-5"
       gradientUnits="userSpaceOnUse" />
    <linearGradient
       id="linearGradient3104-5">
      <stop
         id="stop3106-9"
         style="stop-color:#aaaaaa;stop-opacity:1"
         offset="0" />
      <stop
         id="stop3108-8"
         style="stop-color:#c8c8c8;stop-opacity:1"
         offset="1" />
    </linearGradient>
    <radialGradient
       cx="4.9929786"
       cy="43.5"
       r="2.5"
       fx="4.9929786"
       fy="43.5"
       id="radialGradient2873-966-168"
       xlink:href="#linearGradient3688-166-749"
       gradientUnits="userSpaceOnUse"
       gradientTransform="matrix(2.003784,0,0,1.4,27.98813,-17.4)" />
    <linearGradient
       id="linearGradient3688-166-749">
      <stop
         id="stop2883"
         style="stop-color:#181818;stop-opacity:1"
         offset="0" />
      <stop
         id="stop2885"
         style="stop-color:#181818;stop-opacity:0"
         offset="1" />
    </linearGradient>
    <radialGradient
       cx="4.9929786"
       cy="43.5"
       r="2.5"
       fx="4.9929786"
       fy="43.5"
       id="radialGradient2875-742-326"
       xlink:href="#linearGradient3688-464-309"
       gradientUnits="userSpaceOnUse"
       gradientTransform="matrix(2.003784,0,0,1.4,-20.01187,-104.4)" />
    <linearGradient
       id="linearGradient3688-464-309">
      <stop
         id="stop2889"
         style="stop-color:#181818;stop-opacity:1"
         offset="0" />
      <stop
         id="stop2891"
         style="stop-color:#181818;stop-opacity:0"
         offset="1" />
    </linearGradient>
    <linearGradient
       x1="25.058096"
       y1="47.027729"
       x2="25.058096"
       y2="39.999443"
       id="linearGradient2877-634-617"
       xlink:href="#linearGradient3702-501-757"
       gradientUnits="userSpaceOnUse" />
    <linearGradient
       id="linearGradient3702-501-757">
      <stop
         id="stop2895"
         style="stop-color:#181818;stop-opacity:0"
         offset="0" />
      <stop
         id="stop2897"
         style="stop-color:#181818;stop-opacity:1"
         offset="0.5" />
      <stop
         id="stop2899"
         style="stop-color:#181818;stop-opacity:0"
         offset="1" />
    </linearGradient>
    <linearGradient
       x1="44.200016"
       y1="1037.505"
       x2="53.800014"
       y2="1037.505"
       id="linearGradient3333"
       xlink:href="#linearGradient12739"
       gradientUnits="userSpaceOnUse"
       gradientTransform="matrix(0.72916668,0,0,0.7777778,-4.2292521,-842.24523)" />
    <linearGradient
       id="linearGradient12739">
      <stop
         id="stop12741"
         style="stop-color:#ffffff;stop-opacity:1"
         offset="0" />
      <stop
         id="stop12743"
         style="stop-color:#ffffff;stop-opacity:0"
         offset="1" />
    </linearGradient>
    <linearGradient
       x1="32.139999"
       y1="29.5"
       x2="65.260002"
       y2="29.5"
       id="linearGradient3336"
       xlink:href="#linearGradient3688-166-749"
       gradientUnits="userSpaceOnUse"
       gradientTransform="matrix(0,0.56521735,0.56521735,0,29.891494,4.007308)" />
    <linearGradient
       x1="32.139999"
       y1="29.5"
       x2="65.260002"
       y2="29.5"
       id="linearGradient3339"
       xlink:href="#linearGradient3688-166-749"
       gradientUnits="userSpaceOnUse"
       gradientTransform="matrix(0,0.63025208,0.63025208,0,28.175075,0.777241)" />
    <radialGradient
       cx="51.91"
       cy="38.188026"
       r="27.5"
       fx="51.91"
       fy="38.188026"
       id="radialGradient3343"
       xlink:href="#linearGradient12727"
       gradientUnits="userSpaceOnUse"
       gradientTransform="matrix(0,0.32535882,-0.3253589,1.3972489e-8,47.721275,18.110566)"
       spreadMethod="pad" />
    <linearGradient
       id="linearGradient12727">
      <stop
         id="stop12729"
         style="stop-color:#181818;stop-opacity:0"
         offset="0" />
      <stop
         id="stop12745"
         style="stop-color:#181818;stop-opacity:0"
         offset="0.53846145" />
      <stop
         id="stop12731"
         style="stop-color:#181818;stop-opacity:1"
         offset="1" />
    </linearGradient>
    <linearGradient
       x1="30.5"
       y1="29.999983"
       x2="49.5"
       y2="29.999983"
       id="linearGradient3348"
       xlink:href="#linearGradient4632-92-3-0-8-1-7"
       gradientUnits="userSpaceOnUse"
       gradientTransform="matrix(0.89473686,0,0,0.89473686,-0.4930161,8.157994)" />
    <linearGradient
       id="linearGradient4632-92-3-0-8-1-7">
      <stop
         id="stop4634-68-8-0-2-9-4"
         style="stop-color:#fafafa;stop-opacity:1"
         offset="0" />
      <stop
         id="stop4636-8-21-7-1-4-0"
         style="stop-color:#e1e1e1;stop-opacity:1"
         offset="1" />
    </linearGradient>
    <linearGradient
       x1="33.243969"
       y1="42.379356"
       x2="66.731972"
       y2="42.379356"
       id="linearGradient3351"
       xlink:href="#linearGradient3878"
       gradientUnits="userSpaceOnUse"
       gradientTransform="matrix(0,0.65217386,-0.65197269,0,62.928743,2.399113)" />
    <linearGradient
       id="linearGradient3878">
      <stop
         id="stop3880"
         style="stop-color:#ffffff;stop-opacity:1"
         offset="0" />
      <stop
         id="stop3882"
         style="stop-color:#ffffff;stop-opacity:0.23529412"
         offset="0.07692312" />
      <stop
         id="stop3884"
         style="stop-color:#ffffff;stop-opacity:0.15686275"
         offset="0.92307693" />
      <stop
         id="stop3886"
         style="stop-color:#ffffff;stop-opacity:0.39215687"
         offset="1" />
    </linearGradient>
    <linearGradient
       x1="79.457138"
       y1="22.857172"
       x2="79.457138"
       y2="50.057175"
       id="linearGradient3355"
       xlink:href="#linearGradient4220-7"
       gradientUnits="userSpaceOnUse"
       gradientTransform="matrix(0.87690624,0,0,0.87690624,-34.380399,3.031925)" />
    <linearGradient
       id="linearGradient4220-7">
      <stop
         id="stop4222-7"
         style="stop-color:#7a8498;stop-opacity:1"
         offset="0" />
      <stop
         id="stop4224-0"
         style="stop-color:#34405c;stop-opacity:1"
         offset="1" />
    </linearGradient>
    <linearGradient
       x1="32.139999"
       y1="29.5"
       x2="65.260002"
       y2="29.5"
       id="linearGradient3358"
       xlink:href="#linearGradient3688-166-749"
       gradientUnits="userSpaceOnUse"
       gradientTransform="matrix(0,-0.93703138,0.9372054,0,18.859091,77.185132)" />
    <linearGradient
       inkscape:collect="always"
       xlink:href="#linearGradient3104-5-6"
       id="linearGradient4185"
       gradientUnits="userSpaceOnUse"
       gradientTransform="matrix(0.96239866,0,0,1.4245602,6.1113165,-28.232473)"
       x1="22.004084"
       y1="63.217903"
       x2="22.004084"
       y2="25.646791" />
    <linearGradient
       inkscape:collect="always"
       xlink:href="#linearGradient3104-5-6"
       id="linearGradient4180"
       gradientUnits="userSpaceOnUse"
       gradientTransform="matrix(0.96239866,0,0,-1.4245602,5.5275188,75.755996)"
       x1="22.004084"
       y1="63.217903"
       x2="22.004084"
       y2="25.646791" />
    <linearGradient
       inkscape:collect="always"
       xlink:href="#linearGradient3104-5-6"
       id="linearGradient3968-2"
       gradientUnits="userSpaceOnUse"
       gradientTransform="matrix(0.96239866,0,0,-1.4245602,-2.5109266,87.252309)"
       x1="22.004084"
       y1="63.217903"
       x2="22.004084"
       y2="25.646791" />
    <linearGradient
       x1="22.004084"
       y1="63.217903"
       x2="22.004084"
       y2="25.646791"
       id="linearGradient3091"
       xlink:href="#linearGradient3104-5-6"
       gradientUnits="userSpaceOnUse"
       gradientTransform="matrix(0.96239866,0,0,-1.4245602,-2.5109266,75.755996)" />
  </defs>
  <metadata
     id="metadata4374">
    <rdf:RDF>
      <cc:Work
         rdf:about="">
        <dc:format>image/svg+xml</dc:format>
        <dc:type
           rdf:resource="http://purl.org/dc/dcmitype/StillImage" />
        <dc:title></dc:title>
      </cc:Work>
    </rdf:RDF>
  </metadata>
  <g
     id="layer1">
    <g
       transform="matrix(1.1,0,0,0.4444449,-2.4000022,25.11107)"
       id="g2036"
       style="display:inline">
      <g
         transform="matrix(1.052632,0,0,1.285713,-1.263158,-13.42854)"
         id="g3712"
         style="opacity:0.4">
        <rect
           width="5"
           height="7"
           x="38"
           y="40"
           id="rect2801"
           style="fill:url(#radialGradient2873-966-168);fill-opacity:1;stroke:none" />
        <rect
           width="5"
           height="7"
           x="-10"
           y="-47"
           transform="scale(-1,-1)"
           id="rect3696"
           style="fill:url(#radialGradient2875-742-326);fill-opacity:1;stroke:none" />
        <rect
           width="28"
           height="7.0000005"
           x="10"
           y="40"
           id="rect3700"
           style="fill:url(#linearGradient2877-634-617);fill-opacity:1;stroke:none" />
      </g>
    </g>
    <path
       d="m 22.96875,8.1874998 a 2.9359229,2.9359229 0 0 0 -1.40625,0.40625 L 10.53125,14.96875 A 2.9359229,2.9359229 0 0 0 9.125,17 2.9359229,2.9359229 0 0 0 9.09375,17 2.9359229,2.9359229 0 0 0 8.125,19.1875 L 8.0625,31.90625 a 2.9359229,2.9359229 0 0 0 1,2.1875 2.9359229,2.9359229 0 0 0 0,0.03125 2.9359229,2.9359229 0 0 0 1.4375,2.09375 l 11,6.3125 a 2.9359229,2.9359229 0 0 0 2.40625,0.21875 2.9359229,2.9359229 0 0 0 0.03125,0 2.9359229,2.9359229 0 0 0 2.5,-0.1875 l 11,-6.34375 a 2.9359229,2.9359229 0 0 0 1.40625,-2 2.9359229,2.9359229 0 0 0 1.09375,-2.25 l 0,-12.71875 a 2.9359229,2.9359229 0 0 0 -1,-2.1875 A 2.9359229,2.9359229 0 0 0 37.5,14.96875 L 26.46875,8.6249998 a 2.9359229,2.9359229 0 0 0 -2.40625,-0.25 2.9359229,2.9359229 0 0 0 -1.09375,-0.1875 z"
       inkscape:connector-curvature="0"
       id="path4564-0"
       style="opacity:0.05;color:#000000;fill:url(#linearGradient3098);fill-opacity:1;fill-rule:nonzero;stroke:none;stroke-width:1;marker:none;visibility:visible;display:inline;overflow:visible;enable-background:accumulate" />
    <rect
       width="39"
       height="39"
       rx="2"
       ry="2"
       x="4.5"
       y="5.4674392"
       id="rect5505-21"
       style="color:#000000;fill:url(#radialGradient3093);fill-opacity:1;fill-rule:nonzero;stroke:url(#linearGradient3095);stroke-width:1;stroke-linecap:round;stroke-linejoin:round;stroke-miterlimit:4;stroke-opacity:1;stroke-dasharray:none;stroke-dashoffset:0;marker:none;visibility:visible;display:inline;overflow:visible;enable-background:accumulate" />
    <rect
       width="37"
       height="37"
       rx="1"
       ry="1"
       x="5.5"
       y="6.4674392"
       id="rect6741-2"
       style="fill:none;stroke:url(#linearGradient3084);stroke-width:1;stroke-linecap:round;stroke-linejoin:round;stroke-miterlimit:4;stroke-opacity:1;stroke-dasharray:none;stroke-dashoffset:0" />
    <path
       d="m 10,5.4999998 c 0,0 -3.1003072,-0.03125 -3.5,-0.03125 -1.108,0 -2,0.892 -2,2 l 0,35.0000002 c 0,1.108 0.892,2 2,2 l 3.5,0"
       inkscape:connector-curvature="0"
       id="rect5505-21-0"
       style="color:#000000;fill:url(#radialGradient3351-4);fill-opacity:1;fill-rule:nonzero;stroke:url(#linearGradient3353-8);stroke-width:1;stroke-linecap:butt;stroke-linejoin:round;stroke-miterlimit:4;stroke-opacity:1;stroke-dasharray:none;stroke-dashoffset:0;marker:none;visibility:visible;display:inline;overflow:visible;enable-background:accumulate" />
    <rect
       width="37"
       height="37"
       rx="1"
       ry="1"
       x="5.5"
       y="6.4674392"
       id="rect6741-2-5"
       style="opacity:0.4;fill:none;stroke:url(#linearGradient3497);stroke-width:1;stroke-linecap:round;stroke-linejoin:round;stroke-miterlimit:4;stroke-opacity:1;stroke-dasharray:none;stroke-dashoffset:0" />
    <path
       inkscape:connector-curvature="0"
       style="color:#000000;display:inline;overflow:visible;visibility:visible;opacity:0.4;fill:#ffffff;fill-opacity:1;fill-rule:nonzero;stroke:none;stroke-width:0.54960775;marker:none;enable-background:accumulate"
       id="path3035-5"
       d="m 40.136363,24.121017 a 7.1852025,7.1852025 0 1 1 -3.800886,-6.338259 l -3.384316,6.338259 z" />
    <path
       inkscape:connector-curvature="0"
       style="color:#000000;display:inline;overflow:visible;visibility:visible;opacity:0.15;fill:#000000;fill-opacity:1;fill-rule:nonzero;stroke:none;stroke-width:0.99992186;marker:none;enable-background:accumulate"
       id="path3035"
       d="m 40.136363,23.288886 a 7.1852025,7.1852025 0 1 1 -3.800886,-6.338259 l -3.384316,6.338259 z" />
    <path
       d="m 10.677033,25.558058 0,-0.71852 1.594217,0 0,0.71852 z m 1.90857,0 0,-0.71852 4.558112,0 0,0.71852 z m -1.90857,-2.874081 0,-0.71852 2.133107,0 0,0.71852 z m 2.671998,0 0,-0.71852 1.684031,0 0,0.71852 z m 2.110652,0 0,-0.71852 0.853243,0 0,0.71852 z m 1.302318,0 0,-0.71852 1.54931,0 0,0.71852 z m -6.084968,-2.874081 0,-0.71852 2.357645,0 0,0.71852 z m 2.784266,0 0,-0.71852 1.190049,0 0,0.71852 z m 1.594217,0 0,-0.71852 2.671997,0 0,0.71852 z m -4.378483,-2.874081 0,-0.71852 2.357645,0 0,0.71852 z m 2.80672,0 0,-0.71852 1.684032,0 0,0.71852 z m 2.110653,0 0,-0.71852 2.649543,0 0,0.71852 z"
       id="path3475-4"
       style="color:#000000;font-style:normal;font-variant:normal;font-weight:normal;font-stretch:normal;font-size:medium;line-height:normal;font-family:Sans;-inkscape-font-specification:Sans;text-indent:0;text-align:start;text-decoration:none;text-decoration-line:none;letter-spacing:normal;word-spacing:normal;text-transform:none;direction:ltr;block-progression:tb;writing-mode:lr-tb;baseline-shift:baseline;text-anchor:start;display:inline;overflow:visible;visibility:visible;fill:url(#linearGradient3091);fill-opacity:1;stroke:none;stroke-width:0.99999994px;marker:none;enable-background:accumulate"
       inkscape:connector-curvature="0"
       sodipodi:nodetypes="cccccccccccccccccccccccccccccccccccccccccccccccccccccccccccc" />
    <path
       id="path3925"
       style="color:#000000;font-style:normal;font-variant:normal;font-weight:normal;font-stretch:normal;font-size:medium;line-height:normal;font-family:Sans;-inkscape-font-specification:Sans;text-indent:0;text-align:start;text-decoration:none;text-decoration-line:none;letter-spacing:normal;word-spacing:normal;text-transform:none;direction:ltr;block-progression:tb;writing-mode:lr-tb;baseline-shift:baseline;text-anchor:start;display:inline;overflow:visible;visibility:visible;opacity:0.28000004;fill:#000000;fill-opacity:1;stroke:none;stroke-width:1px;marker:none;enable-background:accumulate"
       d="m 27.202999,9.7506137 0,0.7185203 0.707293,-1e-6 0,-0.7185203 z m 1.178822,-1e-6 0,0.7185203 1.897343,0 0,-0.7185203 z m 2.413779,0 0,0.7185203 2.155561,1e-6 0,-0.7185203 z m -14.190775,0 0,0.7185203 4.120265,0 0,-0.7185203 z m 4.591794,0 0,0.7185203 1.897342,0 0,-0.7185203 z m 2.413779,0 0,0.7185203 2.69445,0 0,-0.7185203 z"
       inkscape:connector-curvature="0" />
    <path
       d="m 40.136363,23.288886 c 10e-7,3.11528 -2.265778,6.093541 -5.267898,6.924596 -0.07014,-0.01218 -1.917304,-6.924596 -1.917304,-6.924596 z"
       id="path3962"
       style="color:#000000;display:inline;overflow:visible;visibility:visible;opacity:0.15;fill:#000000;fill-opacity:1;fill-rule:nonzero;stroke:none;stroke-width:0.99992186;marker:none;enable-background:accumulate"
       inkscape:connector-curvature="0"
       sodipodi:nodetypes="cccc" />
    <path
       d="m 40.136363,23.288886 c 10e-7,3.11528 -2.265778,6.093541 -5.267898,6.924596 -3.00212,0.831055 -6.476329,-0.558227 -8.078466,-3.229909 -0.01271,0.01152 6.161162,-3.694687 6.161162,-3.694687 z"
       id="path3964"
       style="color:#000000;display:inline;overflow:visible;visibility:visible;opacity:0.15;fill:#000000;fill-opacity:1;fill-rule:nonzero;stroke:none;stroke-width:0.99992186;marker:none;enable-background:accumulate"
       inkscape:connector-curvature="0"
       sodipodi:nodetypes="csccc" />
    <path
       sodipodi:nodetypes="cccccccccccccccccccccccccccccc"
       inkscape:connector-curvature="0"
       style="color:#000000;font-style:normal;font-variant:normal;font-weight:normal;font-stretch:normal;font-size:medium;line-height:normal;font-family:Sans;-inkscape-font-specification:Sans;text-indent:0;text-align:start;text-decoration:none;text-decoration-line:none;letter-spacing:normal;word-spacing:normal;text-transform:none;direction:ltr;block-progression:tb;writing-mode:lr-tb;baseline-shift:baseline;text-anchor:start;display:inline;overflow:visible;visibility:visible;fill:url(#linearGradient3968-2);fill-opacity:1;stroke:none;stroke-width:0.99999994px;marker:none;enable-background:accumulate"
       id="path3966"
       d="m 10.677033,31.30622 0,-0.71852 2.357645,0 0,0.71852 z m 2.784266,0 0,-0.71852 1.190049,0 0,0.71852 z m 1.594217,0 0,-0.71852 2.671997,0 0,0.71852 z m -4.378483,-2.874081 0,-0.71852 2.357645,0 0,0.71852 z m 2.80672,0 0,-0.71852 1.684032,0 0,0.71852 z m 2.110653,0 0,-0.71852 2.649543,0 0,0.71852 z" />
    <path
       sodipodi:nodetypes="cccccccccccccccccccc"
       inkscape:connector-curvature="0"
       style="color:#000000;font-style:normal;font-variant:normal;font-weight:normal;font-stretch:normal;font-size:medium;line-height:normal;font-family:Sans;-inkscape-font-specification:Sans;text-indent:0;text-align:start;text-decoration:none;text-decoration-line:none;letter-spacing:normal;word-spacing:normal;text-transform:none;direction:ltr;block-progression:tb;writing-mode:lr-tb;baseline-shift:baseline;text-anchor:start;display:inline;overflow:visible;visibility:visible;fill:url(#linearGradient4180);fill-opacity:1;stroke:none;stroke-width:0.99999994px;marker:none;enable-background:accumulate"
       id="path4178"
       d="m 18.715478,25.558059 0,-0.71852 1.594217,0 0,0.71852 z m 0,-2.874081 0,-0.71852 2.133107,0 0,0.71852 z m -0.651159,-2.874081 0,-0.71852 1.953477,0 0,0.71852 z m 0.987966,-2.874081 0,-0.71852 1.684032,0 0,0.71852 z" />
    <path
       d="m 18.580756,27.71362 0,0.71852 2.357644,0 0,-0.71852 z m 2.784266,0 0,0.71852 1.190049,0 0,-0.71852 z m -2.98635,2.874081 0,0.71852 2.357645,0 0,-0.71852 z m 2.80672,0 0,0.71852 1.684031,0 0,-0.71852 z m 2.110653,0 0,0.71852 2.649543,0 0,-0.71852 z"
       id="path4183"
       style="color:#000000;font-style:normal;font-variant:normal;font-weight:normal;font-stretch:normal;font-size:medium;line-height:normal;font-family:Sans;-inkscape-font-specification:Sans;text-indent:0;text-align:start;text-decoration:none;text-decoration-line:none;letter-spacing:normal;word-spacing:normal;text-transform:none;direction:ltr;block-progression:tb;writing-mode:lr-tb;baseline-shift:baseline;text-anchor:start;display:inline;overflow:visible;visibility:visible;fill:url(#linearGradient4185);fill-opacity:1;stroke:none;stroke-width:0.99999994px;marker:none;enable-background:accumulate"
       inkscape:connector-curvature="0"
       sodipodi:nodetypes="ccccccccccccccccccccccccc" />
    <path
       style="color:#000000;display:inline;overflow:visible;visibility:visible;opacity:0.15;fill:#000000;fill-opacity:1;fill-rule:nonzero;stroke:none;stroke-width:0.99992186;marker:none;enable-background:accumulate"
       d="m 38.832229,27.158021 a 7.9037227,7.8541448 0 0 0 -0.600638,-0.287688 7.9037227,7.8541448 0 0 0 -0.742378,-0.269445 7.9037227,7.8541448 0 0 0 -0.764831,-0.193664 7.9037227,7.8541448 0 0 0 -0.781671,-0.117882 7.9037227,7.8541448 0 0 0 -0.788689,-0.0393 7.9037227,7.8541448 0 0 0 -0.55994,0.01964 7.9037227,7.8541448 0 0 0 -0.784478,0.09403 7.9037227,7.8541448 0 0 0 -0.770445,0.172614 7.9037227,7.8541448 0 0 0 -0.749394,0.246991 7.9037227,7.8541448 0 0 0 -0.721327,0.321369 7.9037227,7.8541448 0 0 0 -0.684839,0.390134 7.9037227,7.8541448 0 0 0 -0.642739,0.457496 7.9037227,7.8541448 0 0 0 -0.593621,0.517839 7.9037227,7.8541448 0 0 0 -0.538891,0.573974 7.9037227,7.8541448 0 0 0 -0.06175,0.07999 c 1.713783,1.100518 3.840925,1.580739 5.80991,1.03568 1.647233,-0.455992 3.024498,-1.584977 3.975718,-3.001787 z"
       id="path7328"
       inkscape:connector-curvature="0" />
    <path
       inkscape:connector-curvature="0"
       style="color:#000000;display:inline;overflow:visible;visibility:visible;opacity:0.15;fill:#000000;fill-opacity:1;fill-rule:nonzero;stroke:none;stroke-width:0.99992186;marker:none;enable-background:accumulate"
       d="m 35.095117,26.267562 a 7.9037227,7.8541448 0 0 0 -1.383713,0.122092 c 0.508245,1.873807 1.033844,3.781013 1.072167,3.787669 1.65004,-0.456768 3.075018,-1.563248 4.026239,-2.983543 a 7.9037227,7.8541448 0 0 0 -3.714693,-0.926218 z"
       id="path3962-2" />
  </g>
  <path
     inkscape:connector-curvature="0"
     d="m 35.299996,22.5 a 12.5,12.5 0 0 1 0,25 12.500001,12.5 0 1 1 0,-25 z"
     id="path8105"
     style="opacity:0.15;fill:none;stroke:url(#linearGradient3358);stroke-width:1;stroke-miterlimit:4;stroke-dasharray:none;stroke-opacity:1" />
  <path
     inkscape:connector-curvature="0"
     d="m 46.796066,35.00147 a 11.5,11.5 0 0 1 -23,0 11.5,11.5 0 1 1 23,0 z"
     id="path4218"
     style="color:#000000;display:inline;overflow:visible;visibility:visible;fill:url(#linearGradient3355);fill-opacity:1;fill-rule:nonzero;stroke:none;stroke-width:0.79069769;marker:none;enable-background:accumulate" />
  <path
     inkscape:connector-curvature="0"
     d="m 46.796066,35.002228 a 11.499999,11.497725 0 0 1 -22.999998,0 11.5,11.497726 0 1 1 22.999998,0 z"
     id="path7624"
     style="opacity:0.3;fill:none;stroke:#000000;stroke-width:0.99999982;stroke-miterlimit:4;stroke-dasharray:none;stroke-opacity:1" />
  <path
     inkscape:connector-curvature="0"
     d="m 35.296459,45.500003 a 10.49676,10.5 0 1 1 0,-21 10.496761,10.5 0 0 1 0,21 z"
     id="path7681"
     style="opacity:0.3;fill:none;stroke:url(#linearGradient3351);stroke-width:0.99999994;stroke-miterlimit:4;stroke-dasharray:none;stroke-opacity:1" />
  <rect
     width="17"
     height="17"
     rx="25"
     ry="25"
     x="26.796463"
     y="26.500084"
     id="rect8115"
     style="color:#000000;display:inline;overflow:visible;visibility:visible;fill:url(#linearGradient3348);fill-opacity:1;fill-rule:nonzero;stroke:none;stroke-width:0.99999994;marker:none;enable-background:accumulate" />
  <rect
     width="17"
     height="17"
     rx="25"
     ry="25"
     x="26.796463"
     y="26.499954"
     id="rect12723"
     style="color:#000000;display:inline;overflow:visible;visibility:visible;opacity:0.4;fill:url(#radialGradient3343);fill-opacity:1;fill-rule:nonzero;stroke:none;stroke-width:0.99999994;marker:none;enable-background:accumulate" />
  <path
     inkscape:connector-curvature="0"
     d="m 43.796458,35.003787 a 8.4999993,8.4992237 0 0 1 -16.999998,0 8.5,8.4992243 0 1 1 16.999998,0 z"
     id="path8113"
     style="opacity:0.3;fill:none;stroke:#000000;stroke-width:1.00000012;stroke-miterlimit:4;stroke-dasharray:none;stroke-opacity:1" />
  <path
     d="m 35.298073,42.499953 a 7.5000005,7.5000005 0 0 0 0,-15.000001 7.5000005,7.5000005 0 1 0 0,15.000001 z"
     id="path8123"
     style="opacity:0.15;fill:none;stroke:url(#linearGradient3339);stroke-width:0.99999994;stroke-miterlimit:4;stroke-dasharray:none;stroke-opacity:1"
     inkscape:connector-curvature="0" />
  <path
     d="m 35.298739,41.500082 a 6.5,6.5 0 0 0 0,-13 6.5,6.5 0 1 0 0,13 z"
     id="path8127"
     style="opacity:0.07999998;fill:none;stroke:url(#linearGradient3336);stroke-width:1.00000012;stroke-miterlimit:4;stroke-dasharray:none;stroke-opacity:1"
     inkscape:connector-curvature="0" />
  <rect
     width="7"
     height="8"
     rx="25"
     ry="25"
     x="27.999954"
     y="-39.296856"
     transform="matrix(0,1,-1,0,0,0)"
     id="rect12733"
     style="color:#000000;display:inline;overflow:visible;visibility:visible;opacity:0.5;fill:url(#linearGradient3333);fill-opacity:1;fill-rule:nonzero;stroke:none;stroke-width:0.99999994;marker:none;enable-background:accumulate" />
  <path
     style="color:#000000;display:inline;overflow:visible;visibility:visible;opacity:0.15;fill:#000000;fill-opacity:1;fill-rule:nonzero;stroke:none;stroke-width:0.99992186;marker:none;enable-background:accumulate"
     d="m 39.296851,27.372061 a 8.88455,8.8288197 0 0 0 -0.675175,-0.32339 8.88455,8.8288197 0 0 0 -0.834505,-0.302882 8.88455,8.8288197 0 0 0 -0.859744,-0.217698 8.88455,8.8288197 0 0 0 -0.878674,-0.132511 8.88455,8.8288197 0 0 0 -0.886563,-0.04417 8.88455,8.8288197 0 0 0 -0.629427,0.02209 8.88455,8.8288197 0 0 0 -0.881828,0.105694 8.88455,8.8288197 0 0 0 -0.866055,0.194034 8.88455,8.8288197 0 0 0 -0.842392,0.277642 8.88455,8.8288197 0 0 0 -0.810842,0.36125 8.88455,8.8288197 0 0 0 -0.769826,0.438549 8.88455,8.8288197 0 0 0 -0.7225,0.514269 8.88455,8.8288197 0 0 0 -0.667288,0.582102 8.88455,8.8288197 0 0 0 -0.605764,0.645203 8.88455,8.8288197 0 0 0 -0.06942,0.08991 c 1.926458,1.237089 4.317572,1.776905 6.530902,1.164205 1.85165,-0.512579 3.399829,-1.781667 4.469092,-3.374299 z"
     id="path7328-7"
     inkscape:connector-curvature="0" />
  <path
     inkscape:connector-curvature="0"
     style="color:#000000;display:inline;overflow:visible;visibility:visible;opacity:0.15;fill:#000000;fill-opacity:1;fill-rule:nonzero;stroke:none;stroke-width:0.99992186;marker:none;enable-background:accumulate"
     d="m 35.095975,26.371098 a 8.88455,8.8288197 0 0 0 -1.555427,0.137244 c 0.571317,2.10634 1.16214,4.250225 1.20522,4.257707 1.854805,-0.513452 3.456617,-1.757243 4.525883,-3.353793 a 8.88455,8.8288197 0 0 0 -4.175676,-1.041158 z"
     id="path3962-2-4" />
</svg>
