<?xml version="1.0" encoding="UTF-8" standalone="no"?>
<svg
   xmlns:dc="http://purl.org/dc/elements/1.1/"
   xmlns:cc="http://creativecommons.org/ns#"
   xmlns:rdf="http://www.w3.org/1999/02/22-rdf-syntax-ns#"
   xmlns:svg="http://www.w3.org/2000/svg"
   xmlns="http://www.w3.org/2000/svg"
   xmlns:xlink="http://www.w3.org/1999/xlink"
   xmlns:sodipodi="http://sodipodi.sourceforge.net/DTD/sodipodi-0.dtd"
   xmlns:inkscape="http://www.inkscape.org/namespaces/inkscape"
   version="1.1"
   width="48"
   height="48"
   id="svg4296"
   inkscape:version="0.91 r"
   sodipodi:docname="guake.svg">
  <sodipodi:namedview
     pagecolor="#ffffff"
     bordercolor="#666666"
     borderopacity="1"
     objecttolerance="10"
     gridtolerance="10"
     guidetolerance="10"
     inkscape:pageopacity="0"
     inkscape:pageshadow="2"
     inkscape:window-width="1816"
     inkscape:window-height="835"
     id="namedview71"
     showgrid="false"
     inkscape:zoom="14.479167"
     inkscape:cx="10.962668"
     inkscape:cy="26.762589"
     inkscape:window-x="75"
     inkscape:window-y="34"
     inkscape:window-maximized="0"
     inkscape:current-layer="svg4296" />
  <defs
     id="defs4298">
    <linearGradient
       id="linearGradient5020">
      <stop
         offset="0"
         style="stop-color:#3ba407;stop-opacity:1;"
         id="stop5022" />
      <stop
         offset="0.26238"
         style="stop-color:#3f7a00;stop-opacity:1;"
         id="stop5024" />
      <stop
         offset="0.704952"
         style="stop-color:#274902;stop-opacity:1"
         id="stop5026" />
      <stop
         offset="1"
         style="stop-color:#000000;stop-opacity:1;"
         id="stop5028" />
    </linearGradient>
    <linearGradient
       id="linearGradient3895">
      <stop
         id="stop3897"
         style="stop-color:#ffffff;stop-opacity:1"
         offset="0" />
      <stop
         id="stop3899"
         style="stop-color:#ffffff;stop-opacity:0.23529412"
         offset="0.05263157" />
      <stop
         id="stop3901"
         style="stop-color:#ffffff;stop-opacity:0.15686275"
         offset="0.95056331" />
      <stop
         id="stop3903"
         style="stop-color:#ffffff;stop-opacity:0.39215687"
         offset="1" />
    </linearGradient>
    <linearGradient
       id="linearGradient3688-166-749">
      <stop
         id="stop2883"
         style="stop-color:#181818;stop-opacity:1"
         offset="0" />
      <stop
         id="stop2885"
         style="stop-color:#181818;stop-opacity:0"
         offset="1" />
    </linearGradient>
    <linearGradient
       id="linearGradient3688-464-309">
      <stop
         id="stop2889"
         style="stop-color:#181818;stop-opacity:1"
         offset="0" />
      <stop
         id="stop2891"
         style="stop-color:#181818;stop-opacity:0"
         offset="1" />
    </linearGradient>
    <linearGradient
       id="linearGradient3702-501-757">
      <stop
         id="stop2895"
         style="stop-color:#181818;stop-opacity:0"
         offset="0" />
      <stop
         id="stop2897"
         style="stop-color:#181818;stop-opacity:1"
         offset="0.5" />
      <stop
         id="stop2899"
         style="stop-color:#181818;stop-opacity:0"
         offset="1" />
    </linearGradient>
    <linearGradient
       x1="23.99999"
       y1="4.9999938"
       x2="23.99999"
       y2="43"
       id="linearGradient3024"
       xlink:href="#linearGradient3895"
       gradientUnits="userSpaceOnUse"
       gradientTransform="translate(50.000004,1.0000062)" />
    <radialGradient
       cx="4.9929786"
       cy="43.5"
       r="2.5"
       fx="4.9929786"
       fy="43.5"
       id="radialGradient3038"
       xlink:href="#linearGradient3688-166-749"
       gradientUnits="userSpaceOnUse"
       gradientTransform="matrix(2.003784,0,0,1.4,27.98813,-17.4)" />
    <radialGradient
       cx="4.9929786"
       cy="43.5"
       r="2.5"
       fx="4.9929786"
       fy="43.5"
       id="radialGradient3040"
       xlink:href="#linearGradient3688-464-309"
       gradientUnits="userSpaceOnUse"
       gradientTransform="matrix(2.003784,0,0,1.4,-20.01187,-104.4)" />
    <linearGradient
       x1="25.058096"
       y1="47.027729"
       x2="25.058096"
       y2="39.999443"
       id="linearGradient3042"
       xlink:href="#linearGradient3702-501-757"
       gradientUnits="userSpaceOnUse" />
    <radialGradient
       cx="7.1183534"
       cy="9.9571075"
       r="12.671875"
       fx="7.1183534"
       fy="9.9571075"
       id="radialGradient3054-6"
       xlink:href="#linearGradient2867-449-88-871-390-598-476-591-434-148-57-177-8-3-3-6-4-8-8-8-5"
       gradientUnits="userSpaceOnUse"
       gradientTransform="matrix(0,9.1402449,-11.221301,0,186.56278,-77.887535)" />
    <linearGradient
       id="linearGradient2867-449-88-871-390-598-476-591-434-148-57-177-8-3-3-6-4-8-8-8-5">
      <stop
         id="stop3750-1-0-7-6-6-1-3-9-3"
         style="stop-color:#919caf;stop-opacity:1;"
         offset="0" />
      <stop
         id="stop3752-3-7-4-0-32-8-923-0-7"
         style="stop-color:#68758e;stop-opacity:1;"
         offset="0.26238" />
      <stop
         id="stop3754-1-8-5-2-7-6-7-1-9"
         style="stop-color:#485a6c;stop-opacity:1;"
         offset="0.704952" />
      <stop
         id="stop3756-1-6-2-6-6-1-96-6-0"
         style="stop-color:#444c5c;stop-opacity:1;"
         offset="1" />
    </linearGradient>
    <linearGradient
       x1="61.041145"
       y1="42.402573"
       x2="61.041145"
       y2="4.3380871"
       id="linearGradient3018-5"
       xlink:href="#linearGradient3680-6-6-6-3-7"
       gradientUnits="userSpaceOnUse"
       gradientTransform="translate(-32.172838,-13.166413)" />
    <linearGradient
       id="linearGradient3680-6-6-6-3-7">
      <stop
         id="stop3682-4-6-1-3-7"
         style="stop-color:#dcdcdc;stop-opacity:1"
         offset="0" />
      <stop
         id="stop3684-8-5-8-0-2"
         style="stop-color:#ffffff;stop-opacity:1"
         offset="1" />
    </linearGradient>
    <linearGradient
       x1="20"
       y1="26.000008"
       x2="20"
       y2="13.000008"
       id="linearGradient3018-5-0"
       xlink:href="#linearGradient3680-6-6-6-3-7-4"
       gradientUnits="userSpaceOnUse"
       gradientTransform="matrix(1,0,0,0.75,-33.981315,9.749994)" />
    <linearGradient
       id="linearGradient3680-6-6-6-3-7-4">
      <stop
         id="stop3682-4-6-1-3-7-0"
         style="stop-color:#dcdcdc;stop-opacity:1"
         offset="0" />
      <stop
         id="stop3684-8-5-8-0-2-5"
         style="stop-color:#ffffff;stop-opacity:1"
         offset="1" />
    </linearGradient>
    <linearGradient
       id="linearGradient3462">
      <stop
         id="stop3464"
         style="stop-color:#ffffff;stop-opacity:1"
         offset="0" />
      <stop
         id="stop3466"
         style="stop-color:#ffffff;stop-opacity:0.23529412"
         offset="0.03457849" />
      <stop
         id="stop3468"
         style="stop-color:#ffffff;stop-opacity:0.15686275"
         offset="0.96375686" />
      <stop
         id="stop3470"
         style="stop-color:#ffffff;stop-opacity:0.39215687"
         offset="1" />
    </linearGradient>
    <linearGradient
       id="linearGradient2867-449-88-871-390-598-476-591-434-148-57-177-8-3-3-6-4-8-8-8-5-7">
      <stop
         offset="0"
         style="stop-color:#505050;stop-opacity:1"
         id="stop3750-1-0-7-6-6-1-3-9-3-9" />
      <stop
         offset="0.26238"
         style="stop-color:#2b2b2b;stop-opacity:1"
         id="stop3752-3-7-4-0-32-8-923-0-7-0" />
      <stop
         offset="0.704952"
         style="stop-color:#0a0a0a;stop-opacity:1"
         id="stop3754-1-8-5-2-7-6-7-1-9-1" />
      <stop
         offset="1"
         style="stop-color:#000000;stop-opacity:1"
         id="stop3756-1-6-2-6-6-1-96-6-0-1" />
    </linearGradient>
    <linearGradient
       gradientTransform="matrix(0.08449704,0,0,0.01235294,-6.5396456,38.470822)"
       gradientUnits="userSpaceOnUse"
       xlink:href="#linearGradient5048"
       id="linearGradient19619"
       y2="609.50507"
       x2="302.85715"
       y1="366.64789"
       x1="302.85715" />
    <linearGradient
       id="linearGradient5048">
      <stop
         offset="0"
         style="stop-color:#000000;stop-opacity:0"
         id="stop5050" />
      <stop
         offset="0.5"
         style="stop-color:#000000;stop-opacity:1"
         id="stop5056" />
      <stop
         offset="1"
         style="stop-color:#000000;stop-opacity:0"
         id="stop5052" />
    </linearGradient>
    <radialGradient
       gradientTransform="matrix(-0.0289166,0,0,0.01235294,21.026894,38.470848)"
       gradientUnits="userSpaceOnUse"
       xlink:href="#linearGradient5060"
       id="radialGradient19616"
       fy="486.64789"
       fx="605.71429"
       r="117.14286"
       cy="486.64789"
       cx="605.71429" />
    <linearGradient
       id="linearGradient5060">
      <stop
         offset="0"
         style="stop-color:#000000;stop-opacity:1"
         id="stop5062" />
      <stop
         offset="1"
         style="stop-color:#000000;stop-opacity:0"
         id="stop5064" />
    </linearGradient>
    <radialGradient
       gradientTransform="matrix(0.02891661,0,0,0.01235294,26.973101,38.470848)"
       gradientUnits="userSpaceOnUse"
       xlink:href="#linearGradient5060"
       id="radialGradient19613"
       fy="486.64789"
       fx="605.71429"
       r="117.14286"
       cy="486.64789"
       cx="605.71429" />
    <linearGradient
       xlink:href="#linearGradient3462"
       id="linearGradient4088"
       gradientUnits="userSpaceOnUse"
       gradientTransform="matrix(1.1621621,0,0,0.91891888,-3.8918941,4.4459492)"
       x1="40.290417"
       y1="5.4143372"
       x2="40.290417"
       y2="42.437775" />
    <radialGradient
       xlink:href="#linearGradient5020"
       id="radialGradient4091"
       gradientUnits="userSpaceOnUse"
       gradientTransform="matrix(0,8.4371492,-12.947656,0,153.88012,-68.473106)"
       cx="7.1183534"
       cy="9.9571075"
       fx="7.1183534"
       fy="9.9571075"
       r="12.671875" />
    <linearGradient
       xlink:href="#linearGradient3680-6-6-6-3-7-4"
       id="linearGradient4115"
       gradientUnits="userSpaceOnUse"
       gradientTransform="matrix(1,0,0,0.75,-33.981315,8.2499944)"
       x1="59.485085"
       y1="37.291523"
       x2="59.485085"
       y2="1.7410491" />
    <radialGradient
       cx="605.71429"
       cy="486.64789"
       r="117.14286"
       fx="605.71429"
       fy="486.64789"
       id="radialGradient19616-9"
       xlink:href="#linearGradient5060"
       gradientUnits="userSpaceOnUse"
       gradientTransform="matrix(-0.0289166,0,0,0.01235294,21.026894,38.470848)" />
    <radialGradient
       cx="605.71429"
       cy="486.64789"
       r="117.14286"
       fx="605.71429"
       fy="486.64789"
       id="radialGradient19613-8"
       xlink:href="#linearGradient5060"
       gradientUnits="userSpaceOnUse"
       gradientTransform="matrix(0.02891661,0,0,0.01235294,26.973101,38.470848)" />
    <linearGradient
       x1="20"
       y1="26.000008"
       x2="20"
       y2="13.000008"
       id="linearGradient3018-5-6"
       xlink:href="#linearGradient3680-6-6-6-3-7"
       gradientUnits="userSpaceOnUse"
       gradientTransform="matrix(0.74711511,0,0,0.74711511,-1.6897646,5.05734)" />
    <radialGradient
       cx="4.9929786"
       cy="43.5"
       r="2.5"
       fx="4.9929786"
       fy="43.5"
       id="radialGradient3038-6"
       xlink:href="#linearGradient3688-166-749"
       gradientUnits="userSpaceOnUse"
       gradientTransform="matrix(2.003784,0,0,1.4,27.98813,-17.4)" />
    <radialGradient
       cx="4.9929786"
       cy="43.5"
       r="2.5"
       fx="4.9929786"
       fy="43.5"
       id="radialGradient3040-9"
       xlink:href="#linearGradient3688-166-749"
       gradientUnits="userSpaceOnUse"
       gradientTransform="matrix(2.003784,0,0,1.4,-20.01187,-104.4)" />
    <radialGradient
       cx="7.1183534"
       cy="9.9571075"
       r="12.671875"
       fx="7.1183534"
       fy="9.9571075"
       id="radialGradient3054-6-4"
       xlink:href="#linearGradient2867-449-88-871-390-598-476-591-434-148-57-177-8-3-3-6-4-8-8-8-5-0"
       gradientUnits="userSpaceOnUse"
       gradientTransform="matrix(0,9.1402449,-11.221301,0,90.116729,-82.585913)" />
    <linearGradient
       id="linearGradient2867-449-88-871-390-598-476-591-434-148-57-177-8-3-3-6-4-8-8-8-5-0">
      <stop
         id="stop3750-1-0-7-6-6-1-3-9-3-2"
         style="stop-color:#3ba407;stop-opacity:1;"
         offset="0" />
      <stop
         id="stop3752-3-7-4-0-32-8-923-0-7-5"
         style="stop-color:#3f7a00;stop-opacity:1;"
         offset="0.26238" />
      <stop
         id="stop3754-1-8-5-2-7-6-7-1-9-5"
         style="stop-color:#000000;stop-opacity:1;"
         offset="0.704952" />
      <stop
         id="stop3756-1-6-2-6-6-1-96-6-0-3"
         style="stop-color:#000000;stop-opacity:1;"
         offset="1" />
    </linearGradient>
    <linearGradient
       x1="23.99999"
       y1="4.9999938"
       x2="23.99999"
       y2="43"
       id="linearGradient3024-3"
       xlink:href="#linearGradient3895"
       gradientUnits="userSpaceOnUse"
       gradientTransform="translate(-46.446047,-3.6983722)" />
    <linearGradient
       x1="20"
       y1="26.000008"
       x2="20"
       y2="13.000008"
       id="linearGradient3018-5-1"
       xlink:href="#linearGradient3680-6-6-6-3-7"
       gradientUnits="userSpaceOnUse"
       gradientTransform="translate(-46.446051,-3.6983862)" />
  </defs>
  <metadata
     id="metadata4301">
    <rdf:RDF>
      <cc:Work
         rdf:about="">
        <dc:format>image/svg+xml</dc:format>
        <dc:type
           rdf:resource="http://purl.org/dc/dcmitype/StillImage" />
        <dc:title></dc:title>
      </cc:Work>
    </rdf:RDF>
  </metadata>
  <g
     id="g3257"
     style="opacity:0.4">
    <rect
       width="40.799999"
       height="2.9999998"
       x="3.5999999"
       y="43"
       id="rect2879"
       style="fill:url(#linearGradient19619);fill-opacity:1;fill-rule:nonzero;stroke:none;stroke-width:1;marker:none;visibility:visible;display:inline;overflow:visible" />
    <path
       d="m 3.6,43.00013 c 0,0 0,2.999835 0,2.999835 C 2.1108662,46.005612 0,45.327854 0,44.499854 0,43.671856 1.6617608,43.000131 3.6,43.00013 z"
       id="path2881"
       style="fill:url(#radialGradient19616);fill-opacity:1;fill-rule:nonzero;stroke:none;stroke-width:1;marker:none;visibility:visible;display:inline;overflow:visible" />
    <path
       d="m 44.4,43.00013 c 0,0 0,2.999835 0,2.999835 1.489133,0.0056 3.6,-0.672111 3.6,-1.500111 0,-0.827998 -1.661761,-1.499723 -3.6,-1.499724 z"
       id="path2883"
       style="fill:url(#radialGradient19613);fill-opacity:1;fill-rule:nonzero;stroke:none;stroke-width:1;marker:none;visibility:visible;display:inline;overflow:visible" />
  </g>
  <rect
     width="45"
     height="36"
     rx="1.5"
     ry="1.5"
     x="1.4999995"
     y="8.4999981"
     id="rect5505-21-3-8-5-2"
     style="opacity:0.9;color:#000000;fill:url(#radialGradient4091);fill-opacity:1.0;fill-rule:nonzero;stroke:none;stroke-width:0.99999994;marker:none;visibility:visible;display:inline;overflow:visible;enable-background:accumulate" />
  <rect
     width="43"
     height="34"
     rx="0.75"
     ry="0.75"
     x="2.5"
     y="9.5"
     id="rect6741-5-0-2-3"
     style="opacity:0.3;fill:none;stroke:url(#linearGradient4088);stroke-width:1;stroke-linecap:round;stroke-linejoin:round;stroke-miterlimit:4;stroke-opacity:1;stroke-dasharray:none;stroke-dashoffset:0" />
  <rect
     width="45"
     height="36"
     rx="1.5"
     ry="1.5"
     x="1.4999995"
     y="8.5"
     id="rect5505-21-3-8-9-1-1"
     style="opacity:0.5;color:#000000;fill:none;stroke:#274902;stroke-width:1;stroke-linecap:round;stroke-linejoin:round;stroke-miterlimit:4;stroke-opacity:1;stroke-dasharray:none;stroke-dashoffset:0;marker:none;visibility:visible;display:inline;overflow:visible;enable-background:accumulate" />
  <path
     inkscape:connector-curvature="0"
     d="m 8.0227313,13.999381 a 0.75937722,0.75937722 0 0 0 -0.770462,0.770463 l 0,0.163431 c -0.47342,0.109769 -0.952898,0.262516 -1.377494,0.607031 -0.0092,0.0071 -0.01431,0.01614 -0.02335,0.02335 -1.02978,0.820674 -1.099131,2.311382 -0.35021,3.291976 a 0.75937722,0.75937722 0 0 0 0.02335,0.02335 c 0.50409,0.611621 1.137687,0.886904 1.727704,1.120673 l 0,0.116736 c -0.386257,-0.08959 -0.79575,-0.135841 -1.167368,-0.303515 a 0.75937722,0.75937722 0 0 0 -1.073977,0.70042 l 0,1.330799 a 0.75937722,0.75937722 0 0 0 0.466946,0.700415 c 0.577263,0.24495 1.178315,0.282107 1.774399,0.350211 l 0,0.420252 a 0.75937722,0.75937722 0 0 0 0.770462,0.770462 l 0.747115,0 a 0.75937722,0.75937722 0 0 0 0.7704635,-0.770462 l 0,-0.466947 c 0.324138,-0.0625 0.6282102,-0.08486 0.9572412,-0.256821 0.0102,-0.005 0.01323,-0.01822 0.02335,-0.02335 0.825644,-0.41906 1.383315,-1.243901 1.354147,-2.194651 -2.45e-4,-0.008 3.26e-4,-0.01538 0,-0.02335 -0.003,-0.464878 -0.154473,-0.913378 -0.420253,-1.284104 a 0.75937722,0.75937722 0 0 0 0,-0.02335 C 10.908269,18.313111 10.179503,18.02345 9.5403128,17.781644 l 0,-0.07004 c 0.227289,0.05549 0.4695802,0.08116 0.6770732,0.163431 a 0.75937722,0.75937722 0 0 0 0.980589,-0.420252 l 0.490294,-1.190715 a 0.75937722,0.75937722 0 0 0 -0.396908,-0.980583 c -0.560554,-0.240143 -1.164519,-0.272657 -1.7510512,-0.35021 l 0,-0.163431 A 0.75937722,0.75937722 0 0 0 8.7698463,13.999381 l -0.747115,0 z m 5.2298067,8.965382 a 0.75937722,0.75937722 0 0 0 -0.770462,0.770462 l 0,1.49423 a 0.75937722,0.75937722 0 0 0 0.770462,0.770463 l 5.976921,0 a 0.75937722,0.75937722 0 0 0 0.770462,-0.770463 l 0,-1.49423 a 0.75937722,0.75937722 0 0 0 -0.770462,-0.770462 l -5.976921,0 z"
     id="path3987"
     style="opacity:0.15;fill:#000000;fill-opacity:1;stroke:none" />
  <path
     inkscape:connector-curvature="0"
     d="m 8.0227313,14.769844 0,0.770462 c -0.613158,0.05858 -1.204758,0.211606 -1.681009,0.607031 -0.683544,0.528292 -0.735694,1.583768 -0.233473,2.241346 0.485601,0.589189 1.209712,0.854495 1.914482,1.120672 l 0,1.58762 c -0.785828,-0.06419 -1.527291,-0.261502 -2.241345,-0.583684 l 0,1.330799 c 0.714713,0.303273 1.464399,0.428403 2.241345,0.4436 l 0,1.027283 0.747115,0 0,-1.050631 c 0.4755835,-0.04274 0.9797405,-0.125635 1.4008417,-0.35021 0.584992,-0.287204 0.983256,-0.905167 0.957241,-1.540925 0.0024,-0.307381 -0.09759,-0.609183 -0.280168,-0.863852 -0.48839,-0.651711 -1.3410652,-0.916989 -2.0779147,-1.214062 l 0,-1.517577 c 0.5842225,0.04752 1.1856935,0.182002 1.7277047,0.396905 l 0.490294,-1.190715 C 10.295731,15.687402 9.5244088,15.547964 8.7698463,15.516959 l 0,-0.747115 -0.747115,0 z m 0,2.031219 0,1.214062 c -0.297458,-0.130824 -0.643908,-0.303409 -0.630378,-0.677073 -0.01392,-0.352719 0.32925,-0.50307 0.630378,-0.536989 z m 0.747115,2.98846 c 0.295011,0.143969 0.7404665,0.27855 0.7471155,0.653726 0.01695,0.382841 -0.4131425,0.562526 -0.7471155,0.607031 l 0,-1.260757 z m 4.4826917,3.945702 0,1.49423 5.976921,0 0,-1.49423 -5.976921,0 z"
     id="path3651-2-3-5-5"
     style="opacity:0.3;fill:#000000;fill-opacity:1;stroke:none" />
  <path
     inkscape:connector-curvature="0"
     d="m 8.0227313,14.022729 0,0.770462 c -0.613158,0.05858 -1.204758,0.211606 -1.681009,0.607031 -0.683544,0.528292 -0.735694,1.583768 -0.233473,2.241345 0.485601,0.58919 1.209712,0.854495 1.914482,1.120673 l 0,1.58762 c -0.785828,-0.06419 -1.527291,-0.261502 -2.241345,-0.583684 l 0,1.330799 c 0.714713,0.303273 1.464399,0.428403 2.241345,0.443599 l 0,1.027284 0.747115,0 0,-1.050631 c 0.4755835,-0.04274 0.9797405,-0.125636 1.4008417,-0.35021 0.584992,-0.287204 0.983256,-0.905167 0.957241,-1.540925 0.0024,-0.307381 -0.09759,-0.609183 -0.280168,-0.863852 -0.48839,-0.651711 -1.3410652,-0.916989 -2.0779147,-1.214062 l 0,-1.517578 c 0.5842225,0.04752 1.1856935,0.182003 1.7277047,0.396905 l 0.490294,-1.190714 C 10.295731,14.940287 9.5244088,14.800849 8.7698463,14.769844 l 0,-0.747115 -0.747115,0 z m 0,2.031219 0,1.214062 c -0.297458,-0.130824 -0.643908,-0.30341 -0.630378,-0.677073 -0.01392,-0.352719 0.32925,-0.50307 0.630378,-0.536989 z m 0.747115,2.98846 c 0.295011,0.143969 0.7404665,0.278549 0.7471155,0.653726 0.01695,0.38284 -0.4131425,0.562525 -0.7471155,0.607031 l 0,-1.260757 z m 4.4826917,3.945702 0,1.49423 5.976921,0 0,-1.49423 -5.976921,0 z"
     id="text3905-9"
     style="color:#000000;font-style:normal;font-variant:normal;font-weight:bold;font-stretch:normal;font-size:14.31169891px;line-height:125%;font-family:'Open Sans';-inkscape-font-specification:'Open Sans Bold';letter-spacing:0px;word-spacing:0px;display:inline;overflow:visible;visibility:visible;fill:url(#linearGradient3018-5-6);fill-opacity:1;fill-rule:nonzero;stroke:none;marker:none;enable-background:accumulate" />
</svg>
